# Blender 3.4.0
# www.blender.org
mtllib shadow_caster.mtl
o shadow_caster
v -0.756234 3.857584 0.877191
v -1.131515 4.065078 0.657952
v -1.370348 4.301114 0.312696
v -1.436372 4.529757 -0.106015
v 0.849041 3.788915 0.194847
v 0.567132 3.673058 0.567754
v 0.163067 3.645424 0.828376
v -0.301637 3.710221 0.937036
v -0.633561 4.859690 -1.167964
v -0.168857 4.794893 -1.276624
v -1.037626 4.832057 -0.907342
v -1.319535 4.716199 -0.534435
v 0.285740 4.647531 -1.216779
v 0.661021 4.440037 -0.997540
v 0.899854 4.204001 -0.652284
v 0.965878 3.975358 -0.233573
vn 0.2241 0.8698 0.4396
vt 0.385114 0.000000
vt 0.145990 0.063288
vt 0.063288 0.145990
vt 0.000000 0.385114
vt 1.000000 0.385114
vt 0.936712 0.145990
vt 0.854010 0.063288
vt 0.614886 0.000000
vt 0.145990 0.936712
vt 0.385114 1.000000
vt 0.063288 0.854010
vt 0.000000 0.614886
vt 0.614886 1.000000
vt 0.854010 0.936712
vt 0.936712 0.854010
vt 1.000000 0.614886
s 0
usemtl fake_shadow
f 4/4/1 3/3/1 2/2/1 1/1/1 8/8/1 7/7/1 6/6/1 5/5/1 16/16/1 15/15/1 14/14/1 13/13/1 10/10/1 9/9/1 11/11/1 12/12/1
