# Blender 3.5.1
# www.blender.org
mtllib emit_haut_001.mtl
o emit_haut.001
v -17.008125 26.618013 1.227688
v -17.008127 26.468918 -3.129284
v -16.265127 26.618013 1.227688
v -16.265129 26.468918 -3.129284
v -17.008125 27.350128 1.235976
v -17.008127 27.201033 -3.120996
v -16.265127 27.350128 1.235976
v -16.265129 27.201033 -3.120996
vn -0.0000 -0.9994 0.0342
vn -0.0000 0.9994 -0.0342
vn 1.0000 -0.0000 -0.0000
vn -0.0000 0.0113 -0.9999
vn -0.0000 -0.0113 0.9999
vn -1.0000 -0.0000 -0.0000
s 0
usemtl emit_haut
f 3//1 1//1 2//1 4//1
f 7//2 8//2 6//2 5//2
f 3//3 4//3 8//3 7//3
f 4//4 2//4 6//4 8//4
f 1//5 3//5 7//5 5//5
f 5//6 6//6 2//6 1//6
