# Blender 3.5.1
# www.blender.org
mtllib Malle.mtl
o Malle
v 10.647523 0.084828 21.395748
v 10.647523 0.084828 4.583192
v 16.236765 0.084828 4.583192
v 16.236765 0.084828 21.395748
v 10.647523 4.944645 21.395748
v 10.647523 4.944645 4.583192
v 16.236765 4.944645 4.583192
v 16.236765 4.944645 21.395748
v 10.647523 4.988707 21.395748
v 10.647523 4.988707 4.583192
v 16.236765 4.988707 4.583192
v 16.236765 4.988707 21.395748
v 10.647523 5.258846 21.398233
v 10.647523 5.257393 4.580705
v 16.236765 5.257393 4.580705
v 16.236765 5.258846 21.398233
vn -1.0000 -0.0000 -0.0000
vn -0.0000 -0.0000 -1.0000
vn 1.0000 -0.0000 -0.0000
vn -0.0000 -0.0000 1.0000
vn -0.0000 -1.0000 -0.0000
vn -0.0000 1.0000 -0.0001
vn -0.0000 -0.0093 -1.0000
vn -0.0000 -0.0092 1.0000
vt 0.004477 0.270555
vt 0.269423 0.627037
vt 0.992989 0.270555
vt 0.508568 0.627037
vt 0.747712 0.627037
vt 0.508568 0.866181
vt 0.986857 0.627037
vt 0.030278 0.627037
vt 0.269423 0.866181
vt 0.004477 0.051702
vt 0.269423 0.387892
vt 0.992989 0.051702
vt 0.508568 0.387892
vt 0.747712 0.387892
vt 0.986857 0.387892
vt 0.030278 0.387892
vt 0.000152 0.383109
vt 0.501318 0.866452
vt 0.999856 0.383108
vt 0.501014 0.135543
vt 0.181182 0.135848
vt 0.181486 0.866757
vt 0.626209 0.991719
vt 0.000000 0.339609
vt 0.501318 0.866452
vt 0.905151 0.991719
vt 1.000000 0.339842
vt 0.501014 0.135543
vt 0.905151 0.471140
vt 0.181182 0.135848
vt 0.626209 0.471140
vt 0.181486 0.866757
s 0
usemtl bois_
f 5/10/1 6/12/1 2/3/1 1/1/1
f 6/13/2 7/14/2 3/5/2 2/4/2
f 7/14/3 8/15/3 4/7/3 3/5/3
f 8/16/4 5/11/4 1/2/4 4/8/4
f 1/2/5 2/4/5 3/6/5 4/9/5
f 12/22/5 9/18/5 10/20/5 11/21/5
f 16/31/6 15/29/6 14/26/6 13/23/6
f 13/24/1 14/27/1 10/19/1 9/17/1
f 14/28/7 15/30/7 11/21/7 10/20/7
f 15/30/3 16/32/3 12/22/3 11/21/3
f 16/32/8 13/25/8 9/18/8 12/22/8
