# Blender 3.5.1
# www.blender.org
mtllib Meuble_dessus.mtl
o Meuble_dessus
v -16.909822 7.527610 22.279158
v -16.909822 7.527610 -3.277857
v -5.814640 7.527610 -3.277857
v -5.814640 7.527610 22.279158
v -16.909822 8.028896 22.279158
v -16.909822 8.028896 -3.277857
v -5.814640 8.028896 -3.277857
v -5.814640 8.028896 22.279158
v -16.701269 8.028896 -3.277857
v -16.701269 7.527610 -3.277857
v -16.701269 8.028896 22.279158
v -16.701269 7.527610 22.279158
v -16.909822 8.670934 22.279158
v -16.909822 8.670934 -3.277857
v -16.701269 8.670934 -3.277857
v -16.701269 8.670934 22.279158
vn -1.0000 -0.0000 -0.0000
vn -0.0000 -0.0000 -1.0000
vn 1.0000 -0.0000 -0.0000
vn -0.0000 -0.0000 1.0000
vn -0.0000 -1.0000 -0.0000
vn -0.0000 1.0000 -0.0000
vt 0.984495 0.250244
vt -0.000367 0.250244
vt 0.984495 0.742676
vt 0.738280 0.250244
vt 0.738280 0.742676
vt 0.920504 0.115809
vt 0.738280 0.250244
vt 0.984495 0.250244
vt 0.485848 0.115809
vt -0.000367 0.496460
vt 0.984495 0.496460
vt 0.738280 0.496460
vt 0.492064 0.250244
vt 0.920504 0.550464
vt 1.000000 0.994652
vt 0.485848 0.550464
vt 1.000000 0.000000
vt 0.000000 0.994652
vt 1.000000 0.000000
vt 0.492064 0.496460
vt 0.492064 0.250244
vt 0.738280 0.496460
vt 0.245848 0.496460
vt 0.051193 0.550464
vt 0.000000 0.000000
vt 0.245848 0.250244
vt 0.051193 0.115809
vt 0.984495 0.496460
vt -0.000367 0.742676
vt 0.245848 0.988891
vt 0.984495 0.742676
vt 0.492064 0.988891
vt 0.738280 0.742676
vt 1.000000 0.057709
vt 0.492064 0.742676
vt 0.245848 0.742676
vt 0.000000 0.057709
s 0
usemtl bois_
f 5/11/1 6/12/1 2/4/1 1/1/1
f 9/20/2 7/13/2 3/7/2 10/22/2
f 7/14/3 8/16/3 4/9/3 3/6/3
f 11/23/4 5/10/4 1/2/4 12/26/4
f 12/28/5 10/22/5 3/7/5 4/8/5
f 16/36/4 13/29/4 5/10/4 11/23/4
f 6/12/2 9/20/2 10/21/2 2/4/2
f 8/16/4 11/24/4 12/27/4 4/9/4
f 1/3/5 2/5/5 10/22/5 12/28/5
f 8/17/6 7/15/6 9/18/6 11/25/6
f 16/36/6 15/35/6 14/32/6 13/30/6
f 13/31/1 14/33/1 6/12/1 5/11/1
f 15/34/3 16/37/3 11/25/3 9/19/3
f 9/20/2 6/12/2 14/33/2 15/35/2
