# Blender 3.5.1
# www.blender.org
mtllib suport_statut1_001.mtl
o suport_statut1.001
v -5.749216 9.591854 -21.592121
v -5.749216 9.591854 -22.260986
v -4.825770 9.591854 -22.260986
v -4.825770 9.591854 -21.592121
v -5.749216 9.542641 -21.592121
v -5.749216 9.542641 -22.260986
v -4.825770 9.542641 -22.260986
v -4.825770 9.542641 -21.592121
vn -1.0000 -0.0000 -0.0000
vn -0.0000 -0.0000 -1.0000
vn 1.0000 -0.0000 -0.0000
vn -0.0000 -0.0000 1.0000
vn -0.0000 1.0000 -0.0000
vn -0.0000 -1.0000 -0.0000
s 0
usemtl bois_ebene
f 5//1 1//1 2//1 6//1
f 6//2 2//2 3//2 7//2
f 7//3 3//3 4//3 8//3
f 8//4 4//4 1//4 5//4
f 1//5 4//5 3//5 2//5
f 8//6 5//6 6//6 7//6
