# Blender 3.4.0
# www.blender.org
mtllib BezierCurve_016.mtl
o BezierCurve.016
v -3.855825 2.158666 -5.547989
v -3.866231 2.178053 -5.526530
v -3.880594 2.182959 -5.499804
v -3.895066 2.172069 -5.474974
v -3.905769 2.148301 -5.458692
v -3.909836 2.118023 -5.455320
v -3.906176 2.089350 -5.465764
v -3.895771 2.069963 -5.487224
v -3.881408 2.065057 -5.513949
v -3.866936 2.075948 -5.538779
v -3.856232 2.099715 -5.555062
v -3.852166 2.129992 -5.558433
v -3.435554 2.123947 -5.314456
v -3.446415 2.143324 -5.293363
v -3.461471 2.148277 -5.267163
v -3.476686 2.137477 -5.242877
v -3.487984 2.113818 -5.227012
v -3.492338 2.083641 -5.223819
v -3.488581 2.055030 -5.234155
v -3.477719 2.035652 -5.255248
v -3.462664 2.030700 -5.281447
v -3.447448 2.041500 -5.305734
v -3.436150 2.065158 -5.321599
v -3.431796 2.095336 -5.324791
v -2.881699 2.073478 -4.947956
v -2.893814 2.090927 -4.931055
v -2.910194 2.095563 -4.910002
v -2.926450 2.086145 -4.890436
v -2.938225 2.065195 -4.877601
v -2.942365 2.038327 -4.874935
v -2.937760 2.012741 -4.883153
v -2.925644 1.995292 -4.900054
v -2.909264 1.990655 -4.921107
v -2.893009 2.000073 -4.940673
v -2.881234 2.021023 -4.953508
v -2.877094 2.047891 -4.956174
v -2.401106 2.039163 -4.458986
v -2.415605 2.054656 -4.448939
v -2.434562 2.058937 -4.436121
v -2.452897 2.050859 -4.423965
v -2.465696 2.032588 -4.415731
v -2.469531 2.009018 -4.413624
v -2.463374 1.986465 -4.418208
v -2.448875 1.970972 -4.428256
v -2.429918 1.966691 -4.441074
v -2.411583 1.974769 -4.453229
v -2.398783 1.993040 -4.461463
v -2.394948 2.016610 -4.463571
v -2.108760 2.037001 -3.862077
v -2.124596 2.050215 -3.861547
v -2.144867 2.053761 -3.860080
v -2.164144 2.046687 -3.858069
v -2.177260 2.030889 -3.856053
v -2.180701 2.010600 -3.854572
v -2.173545 1.991257 -3.854022
v -2.157710 1.978042 -3.854552
v -2.137438 1.974497 -3.856019
v -2.118162 1.981571 -3.858030
v -2.105046 1.997369 -3.860046
v -2.101604 2.017657 -3.861527
v -3.968760 2.150207 -5.602488
v -3.975088 2.162013 -5.589414
v -3.983801 2.164997 -5.573119
v -3.992565 2.158361 -5.557970
v -3.999032 2.143883 -5.548025
v -4.001468 2.125441 -5.545949
v -3.999221 2.107977 -5.552299
v -3.992894 2.096171 -5.565373
v -3.984180 2.093186 -5.581668
v -3.975417 2.099822 -5.596817
v -3.968950 2.114301 -5.606762
v -3.966514 2.132743 -5.608838
v -2.178384 2.000466 -3.854165
v -3.172497 2.116827 -5.126661
v -3.432988 2.079923 -5.324909
v -2.901733 2.095003 -4.920703
v -3.888069 2.179389 -5.486706
v -2.681036 2.045237 -4.661097
v -2.396827 2.028415 -4.462074
v -3.675053 2.116280 -5.463103
v -3.678824 2.146058 -5.452243
v -2.309087 2.007165 -4.141508
v -2.648611 1.974942 -4.696548
v -2.456962 1.977523 -4.422693
v -3.161259 2.098428 -5.145931
v -2.267313 1.967866 -4.156521
v -3.172905 2.020507 -5.137935
v -3.188406 2.010385 -5.115738
v -3.219108 2.060652 -5.063091
v -2.900835 1.993690 -4.931427
v -3.440245 2.135183 -5.304948
v -2.666313 1.979435 -4.679170
v -2.614968 2.028468 -4.725955
v -3.901098 2.161453 -5.465429
v -3.860903 2.086563 -5.548325
v -2.467652 1.997213 -4.415121
v -3.908742 2.133483 -5.455258
v -3.704803 2.171308 -5.402353
v -3.853049 2.145042 -5.554836
v -2.292404 2.046108 -4.148559
v -2.618966 2.003252 -4.723560
v -2.932472 2.002646 -4.890764
v -3.157232 2.071338 -5.155367
v -3.690729 2.060176 -5.442883
v -3.432679 2.110348 -5.321213
v -2.115820 2.044641 -3.861944
v -3.731955 2.074133 -5.367332
v -2.273468 2.053652 -4.155855
v -2.878092 2.034154 -4.956218
v -3.441089 2.052061 -5.315046
v -2.171738 2.039652 -3.857027
v -2.685034 2.020020 -4.658702
v -3.491146 2.099053 -5.223701
v -2.127332 1.976768 -3.856988
v -2.917725 1.991216 -4.910406
v -3.469324 2.144748 -5.254344
v -3.720050 2.160015 -5.376691
v -2.420348 1.969254 -4.447452
v -2.631280 1.983660 -4.712797
v -2.886986 2.083573 -4.940345
v -3.873146 2.182487 -5.513388
v -2.886329 2.009407 -4.948196
v -2.154974 2.051489 -3.859111
v -2.231694 2.014354 -4.170868
v -2.668721 2.064829 -4.671860
v -3.721066 2.053992 -5.389567
v -3.901674 2.078101 -5.475429
v -2.679645 1.995935 -4.665317
v -2.407518 2.048105 -4.454502
v -3.187934 2.121606 -5.102719
v -3.483890 2.043793 -5.243663
v -3.483046 2.126915 -5.233565
v -2.101999 2.007281 -3.860883
v -2.235340 1.992426 -4.169068
v -2.941126 2.024918 -4.877764
v -3.214845 2.089173 -5.066018
v -3.161495 2.042817 -5.152440
v -3.873932 2.068626 -5.527047
v -3.731369 2.135346 -5.359898
v -3.689714 2.166199 -5.430007
v -2.134506 2.053315 -3.860911
v -2.238417 2.035319 -4.168735
v -2.918623 2.092528 -4.899681
v -3.888855 2.065529 -5.500366
v -2.460245 2.042737 -4.419191
v -2.248377 1.975410 -4.163817
v -2.180307 2.020977 -3.855216
v -2.103921 2.027792 -3.861934
v -2.620356 2.052553 -4.719340
v -3.470477 2.031202 -5.268139
v -2.110568 1.988605 -3.859073
v -2.395626 2.004545 -4.463356
v -3.705976 2.048883 -5.417221
v -2.305442 2.029093 -4.143308
v -3.215081 2.033562 -5.072527
v -3.203435 2.111484 -5.080523
v -3.454811 2.034228 -5.294267
v -3.453658 2.147775 -5.280472
v -2.253708 2.049703 -4.163239
v -2.404235 1.982891 -4.458004
v -2.633688 2.069053 -4.705487
v -2.933130 2.076812 -4.882913
v -3.735726 2.103911 -5.356471
v -2.444132 2.056374 -4.429743
v -3.853260 2.114533 -5.558496
v -2.147799 1.974942 -3.855188
v -2.287074 1.971816 -4.149137
v -3.908953 2.102974 -5.458918
v -2.424833 2.058338 -4.442667
v -2.651391 2.073546 -4.688108
v -2.878333 2.061300 -4.953345
v -3.860328 2.169914 -5.538325
v -3.679410 2.084845 -5.459677
v -2.302364 1.986200 -4.143641
v -2.468854 2.021083 -4.413839
v -3.203843 2.015163 -5.091797
v -2.166486 1.983616 -3.854155
v -2.439647 1.967290 -4.434527
v -3.491455 2.068629 -5.227398
v -2.941367 2.052065 -4.874891
v -3.990007 2.157977 -5.569596
v -3.996791 2.148573 -5.558419
v -3.975755 2.109323 -5.601884
v -4.000756 2.133909 -5.553065
v -3.971705 2.139979 -5.605334
v -3.982223 2.159604 -5.583602
v -3.997022 2.104880 -5.563621
v -3.982538 2.099918 -5.590707
v -3.990323 2.098292 -5.576702
v -3.971789 2.123986 -5.607238
v -4.000841 2.117917 -5.554969
v -3.975524 2.153016 -5.596683
v -3.975434 2.084118 -5.542761
v -3.984054 2.100196 -5.524957
v -3.963561 2.080052 -5.564949
v -3.987110 2.123979 -5.516307
v -3.939472 2.133922 -5.601934
v -3.942798 2.108806 -5.599112
v -3.983783 2.149094 -5.519129
v -3.951147 2.173783 -5.575480
v -3.942528 2.157704 -5.593284
v -3.963021 2.177848 -5.553292
v -3.951616 2.089089 -5.585574
v -3.974966 2.168812 -5.532666
v -3.675941 2.131908 -5.459352
v -3.683529 2.157742 -5.442224
v -3.696974 2.170810 -5.416404
v -3.712674 2.167609 -5.388812
v -3.726422 2.148998 -5.366839
v -3.734535 2.119962 -5.356375
v -3.734838 2.088284 -5.360222
v -3.727251 2.062449 -5.377350
v -3.713806 2.049381 -5.403170
v -3.698106 2.052582 -5.430762
v -3.684358 2.071193 -5.452734
v -3.676245 2.100229 -5.463199
v -3.158231 2.085546 -5.152101
v -3.166131 2.109087 -5.137245
v -3.179936 2.121082 -5.114882
v -3.195948 2.118317 -5.091004
v -3.209875 2.101532 -5.072010
v -3.217987 2.075225 -5.062988
v -3.218109 2.046445 -5.066357
v -3.210209 2.022903 -5.081213
v -3.196404 2.010908 -5.103577
v -3.180392 2.013673 -5.127454
v -3.166465 2.030458 -5.146448
v -3.158353 2.056765 -5.155470
v -2.616528 2.041081 -4.723711
v -2.626217 2.062085 -4.713118
v -2.642278 2.072949 -4.696954
v -2.660409 2.070763 -4.679552
v -2.675751 2.056113 -4.665572
v -2.684193 2.032923 -4.658762
v -2.683474 2.007407 -4.660946
v -2.673785 1.986404 -4.671539
v -2.657724 1.975539 -4.687703
v -2.639593 1.977725 -4.705105
v -2.624251 1.992376 -4.719084
v -2.615809 2.015566 -4.725894
v -2.233817 2.025330 -4.170279
v -2.245209 2.043624 -4.166330
v -2.263349 2.053112 -4.159665
v -2.283376 2.051252 -4.152067
v -2.299923 2.038542 -4.145574
v -2.308557 2.018387 -4.141925
v -2.306964 1.996189 -4.142097
v -2.295572 1.977895 -4.146046
v -2.277432 1.968406 -4.152711
v -2.257405 1.970267 -4.160309
v -2.240858 1.982977 -4.166802
v -2.232224 2.003131 -4.170451
v -3.980400 2.091180 -5.533470
v -3.969885 2.080845 -5.553989
v -3.986390 2.111633 -5.519897
v -3.940781 2.121151 -5.601878
v -3.986251 2.136721 -5.516907
v -3.946632 2.166692 -5.585315
v -3.957147 2.177027 -5.564795
v -3.957664 2.083395 -5.575956
v -3.969368 2.174477 -5.542829
v -3.980021 2.159724 -5.525301
v -3.947011 2.098149 -5.593484
v -3.940642 2.146240 -5.598887
v -3.992635 2.128546 -5.587841
vn 0.3927 0.5876 -0.7075
vn 0.4291 0.5833 -0.6897
vn 0.4747 0.3540 -0.8058
vn 0.4444 0.3573 -0.8215
vn 0.4529 0.5801 -0.6770
vn 0.4999 0.3510 -0.7918
vn 0.5136 0.0981 -0.8524
vn 0.4880 0.1007 -0.8670
vn 0.4618 0.1037 -0.8809
vn 0.2044 0.9135 -0.3517
vn 0.2549 0.9097 -0.3278
vn 0.3541 0.7728 -0.5267
vn 0.3113 0.7765 -0.5478
vn 0.2731 0.9076 -0.3189
vn 0.3755 0.7700 -0.5158
vn -0.0517 0.9946 0.0899
vn 0.0121 0.9925 0.1220
vn 0.1383 0.9847 -0.1065
vn 0.0814 0.9875 -0.1351
vn 0.0221 0.9917 0.1266
vn 0.1525 0.9833 -0.0998
vn -0.3066 0.8108 0.4986
vn -0.2341 0.8092 0.5389
vn -0.1149 0.9326 0.3421
vn -0.1832 0.9345 0.3051
vn -0.2326 0.8092 0.5396
vn -0.1093 0.9323 0.3447
vn -0.4928 0.4127 0.7661
vn -0.4179 0.4092 0.8111
vn -0.3375 0.6306 0.6989
vn -0.4117 0.6333 0.6553
vn -0.4223 0.4095 0.8087
vn -0.3393 0.6308 0.6978
vn -0.5615 -0.0936 0.8222
vn -0.4900 -0.1002 0.8659
vn -0.4699 0.1599 0.8681
vn -0.5437 0.1649 0.8229
vn -0.4967 -0.0997 0.8622
vn -0.4760 0.1604 0.8647
vn -0.4945 -0.5746 0.6522
vn -0.4313 -0.5829 0.6886
vn -0.4768 -0.3536 0.8047
vn -0.5446 -0.3464 0.7639
vn -0.4359 -0.5827 0.6859
vn -0.4831 -0.3532 0.8012
vn -0.3089 -0.9025 0.3001
vn -0.2572 -0.9095 0.3265
vn -0.3564 -0.7725 0.5255
vn -0.4137 -0.7651 0.4934
vn -0.2558 -0.9099 0.3265
vn -0.3584 -0.7726 0.5240
vn -0.0533 -0.9885 -0.1412
vn -0.0144 -0.9923 -0.1234
vn -0.1405 -0.9845 0.1052
vn -0.1852 -0.9792 0.0826
vn -0.0045 -0.9928 -0.1194
vn -0.1351 -0.9850 0.1070
vn 0.2038 -0.8076 -0.5533
vn 0.2321 -0.8088 -0.5403
vn 0.1127 -0.9323 -0.3436
vn 0.0802 -0.9299 -0.3590
vn 0.2500 -0.8094 -0.5314
vn 0.1268 -0.9329 -0.3372
vn 0.3927 -0.4076 -0.8244
vn 0.4159 -0.4087 -0.8124
vn 0.3355 -0.6302 -0.7002
vn 0.3109 -0.6291 -0.7125
vn 0.4395 -0.4100 -0.7992
vn 0.3566 -0.6310 -0.6889
vn 0.4679 -0.1594 -0.8693
vn 0.4444 -0.1575 -0.8819
vn 0.4930 -0.1614 -0.8549
vn 0.4865 0.5755 -0.6573
vn 0.5391 0.3461 -0.7679
vn 0.5385 0.5684 -0.6220
vn 0.6004 0.3385 -0.7245
vn 0.6224 0.0868 -0.7779
vn 0.5557 0.0937 -0.8261
vn 0.2892 0.9055 -0.3107
vn 0.4013 0.7664 -0.5015
vn 0.3119 0.9026 -0.2968
vn 0.4403 0.7611 -0.4763
vn 0.0157 0.9923 0.1225
vn 0.1576 0.9827 -0.0977
vn 0.0016 0.9936 0.1131
vn 0.1621 0.9821 -0.0956
vn -0.2594 0.8112 0.5241
vn -0.1266 0.9338 0.3347
vn -0.3062 0.8140 0.4936
vn -0.1584 0.9360 0.3143
vn -0.4617 0.4124 0.7854
vn -0.3736 0.6332 0.6778
vn -0.5272 0.4167 0.7405
vn -0.4319 0.6367 0.6388
vn -0.5381 -0.0960 0.8374
vn -0.5177 0.1637 0.8397
vn -0.6054 -0.0898 0.7908
vn -0.5863 0.1691 0.7922
vn -0.4685 -0.5796 0.6667
vn -0.5214 -0.3495 0.7785
vn -0.5208 -0.5741 0.6318
vn -0.5832 -0.3431 0.7363
vn -0.2704 -0.9089 0.3176
vn -0.3830 -0.7705 0.5096
vn -0.2927 -0.9070 0.3027
vn -0.4218 -0.7667 0.4840
vn 0.0035 -0.9932 -0.1161
vn -0.1385 -0.9849 0.1041
vn 0.0184 -0.9940 -0.1078
vn -0.1424 -0.9847 0.1007
vn 0.2782 -0.8103 -0.5157
vn 0.1457 -0.9336 -0.3275
vn 0.3253 -0.8118 -0.4850
vn 0.1780 -0.9347 -0.3076
vn 0.4798 -0.4123 -0.7745
vn 0.3921 -0.6325 -0.6680
vn 0.5449 -0.4158 -0.7282
vn 0.4502 -0.6346 -0.6282
vn 0.5355 -0.1648 -0.8283
vn 0.6034 -0.1701 -0.7791
vn 0.6111 0.5591 -0.5604
vn 0.6859 0.3286 -0.6493
vn 0.6948 0.5498 -0.4636
vn 0.7844 0.3190 -0.5320
vn 0.8223 0.0703 -0.5647
vn 0.7155 0.0781 -0.6943
vn 0.3434 0.8988 -0.2726
vn 0.4945 0.7541 -0.4322
vn 0.3795 0.8952 -0.2336
vn 0.5573 0.7471 -0.3622
vn -0.0195 0.9952 0.0959
vn 0.1677 0.9815 -0.0921
vn -0.0456 0.9966 0.0688
vn 0.1731 0.9811 -0.0861
vn -0.3730 0.8173 0.4392
vn -0.2043 0.9388 0.2775
vn -0.4526 0.8188 0.3532
vn -0.2597 0.9405 0.2191
vn -0.6195 0.4218 0.6621
vn -0.5144 0.6405 0.5702
vn -0.7272 0.4251 0.5390
vn -0.6115 0.6423 0.4620
vn -0.6993 -0.0817 0.7101
vn -0.6823 0.1758 0.7096
vn -0.8083 -0.0739 0.5840
vn -0.7939 0.1814 0.5804
vn -0.5931 -0.5668 0.5718
vn -0.6692 -0.3347 0.6634
vn -0.6777 -0.5587 0.4781
vn -0.7693 -0.3258 0.5495
vn -0.3224 -0.9047 0.2784
vn -0.4751 -0.7616 0.4407
vn -0.3573 -0.9022 0.2417
vn -0.5377 -0.7560 0.3733
vn 0.0416 -0.9950 -0.0909
vn -0.1459 -0.9846 0.0968
vn 0.0693 -0.9957 -0.0617
vn -0.1496 -0.9844 0.0929
vn 0.3931 -0.8130 -0.4295
vn 0.2256 -0.9359 -0.2705
vn 0.4725 -0.8129 -0.3406
vn 0.2818 -0.9363 -0.2097
vn 0.6366 -0.4196 -0.6470
vn 0.5329 -0.6366 -0.5575
vn 0.7424 -0.4217 -0.5205
vn 0.6288 -0.6369 -0.4461
vn 0.6986 -0.1764 -0.6934
vn 0.8079 -0.1813 -0.5607
vn 0.7531 0.5461 -0.3668
vn 0.8532 0.3149 -0.4158
vn 0.7790 0.5318 -0.3323
vn 0.8771 0.3040 -0.3719
vn 0.9198 0.0620 -0.3875
vn 0.8970 0.0674 -0.4368
vn 0.4018 0.8952 -0.1927
vn 0.6000 0.7451 -0.2912
vn 0.4280 0.8847 -0.1846
vn 0.6270 0.7311 -0.2689
vn -0.0703 0.9966 0.0437
vn 0.1721 0.9820 -0.0780
vn -0.0566 0.9981 0.0243
vn 0.1936 0.9775 -0.0841
vn -0.5142 0.8146 0.2682
vn -0.3053 0.9383 0.1623
vn -0.5213 0.8222 0.2285
vn -0.3021 0.9441 0.1316
vn -0.8050 0.4225 0.4165
vn -0.6837 0.6379 0.3545
vn -0.8270 0.4265 0.3663
vn -0.6997 0.6445 0.3083
vn -0.8861 -0.0687 0.4583
vn -0.8734 0.1825 0.4515
vn -0.9101 -0.0726 0.4080
vn -0.8981 0.1827 0.4000
vn -0.7410 -0.5500 0.3852
vn -0.8419 -0.3177 0.4361
vn -0.7530 -0.5605 0.3447
vn -0.8616 -0.3254 0.3896
vn -0.3874 -0.8983 0.2071
vn -0.5868 -0.7491 0.3075
vn -0.3778 -0.9072 0.1851
vn -0.5887 -0.7600 0.2752
vn 0.0854 -0.9959 -0.0299
vn -0.1571 -0.9833 0.0915
vn 0.1124 -0.9933 -0.0266
vn -0.1375 -0.9871 0.0816
vn 0.5276 -0.8116 -0.2508
vn 0.3196 -0.9361 -0.1470
vn 0.5574 -0.8003 -0.2212
vn 0.3495 -0.9279 -0.1299
vn 0.8165 -0.4207 -0.3954
vn 0.6960 -0.6352 -0.3350
vn 0.8413 -0.4136 -0.3481
vn 0.7234 -0.6244 -0.2948
vn 0.8844 -0.1822 -0.4298
vn 0.9074 -0.1810 -0.3793
vn -0.6238 -0.7078 0.3314
vn -0.5160 -0.8386 0.1748
vn -0.7131 -0.5135 0.4774
vn -0.9165 -0.3736 0.1429
vn -0.9290 -0.3438 -0.1373
vn -0.7645 -0.6392 -0.0834
vn -0.3721 -0.9276 -0.0339
vn -0.2360 -0.9454 -0.2248
vn -0.7985 -0.5010 -0.3338
vn -0.5410 -0.7401 -0.3994
vn -0.7687 -0.3059 0.5617
vn -0.7865 -0.0644 0.6142
vn -0.9709 -0.0266 0.2381
vn -0.9928 -0.1157 -0.0304
vn 0.3173 -0.1474 -0.9368
vn 0.3254 0.1161 -0.9384
vn 0.2631 -0.3953 -0.8801
vn -0.1331 -0.3056 -0.9428
vn -0.3575 -0.0576 -0.9321
vn -0.0834 0.1144 -0.9899
vn -0.7776 0.1708 0.6051
vn -0.7267 0.3991 0.5592
vn -0.9259 0.3238 0.1943
vn -0.9915 0.1293 -0.0167
vn 0.1289 0.7640 -0.6322
vn -0.0063 0.8990 -0.4380
vn 0.2228 0.5938 -0.7731
vn -0.1711 0.5016 -0.8480
vn -0.5000 0.5092 -0.7004
vn -0.3619 0.7371 -0.5707
vn -0.1364 0.9577 -0.2535
vn -0.2887 0.9568 -0.0352
vn -0.6647 0.5876 -0.4615
vn -0.5901 0.7672 -0.2514
vn -0.0764 -0.8948 -0.4399
vn 0.0534 -0.7867 -0.6150
vn -0.6213 -0.5198 -0.5863
vn -0.3052 -0.6226 -0.7205
vn -0.4212 0.8956 0.1434
vn -0.5484 0.7701 0.3258
vn -0.8184 0.5203 -0.2440
vn -0.7919 0.6102 0.0221
vn -0.6525 0.6066 0.4542
vn -0.9312 0.3530 -0.0904
vn 0.1790 -0.6088 -0.7728
vn -0.4514 -0.3596 -0.8167
vn 0.2979 0.3583 -0.8848
vn -0.3791 0.2732 -0.8841
vn -0.8557 0.0509 -0.5150
s 1
usemtl biscuit
f 1//1 81//2 205//3 99//4
f 81//2 13//5 105//6 205//3
f 205//3 105//6 24//7 80//8
f 99//4 205//3 80//8 12//9
f 2//10 140//11 206//12 172//13
f 140//11 14//14 91//15 206//12
f 206//12 91//15 13//5 81//2
f 172//13 206//12 81//2 1//1
f 3//16 98//17 207//18 121//19
f 98//17 15//20 158//21 207//18
f 207//18 158//21 14//14 140//11
f 121//19 207//18 140//11 2//10
f 4//22 117//23 208//24 77//25
f 117//23 16//26 116//27 208//24
f 208//24 116//27 15//20 98//17
f 77//25 208//24 98//17 3//16
f 5//28 139//29 209//30 94//31
f 139//29 17//32 132//33 209//30
f 209//30 132//33 16//26 117//23
f 94//31 209//30 117//23 4//22
f 6//34 163//35 210//36 97//37
f 163//35 18//38 113//39 210//36
f 210//36 113//39 17//32 139//29
f 97//37 210//36 139//29 5//28
f 7//40 107//41 211//42 168//43
f 107//41 19//44 179//45 211//42
f 211//42 179//45 18//38 163//35
f 168//43 211//42 163//35 6//34
f 8//46 126//47 212//48 127//49
f 126//47 20//50 131//51 212//48
f 212//48 131//51 19//44 107//41
f 127//49 212//48 107//41 7//40
f 9//52 153//53 213//54 144//55
f 153//53 21//56 150//57 213//54
f 213//54 150//57 20//50 126//47
f 144//55 213//54 126//47 8//46
f 10//58 104//59 214//60 138//61
f 104//59 22//62 157//63 214//60
f 214//60 157//63 21//56 153//53
f 138//61 214//60 153//53 9//52
f 11//64 173//65 215//66 95//67
f 173//65 23//68 110//69 215//66
f 215//66 110//69 22//62 104//59
f 95//67 215//66 104//59 10//58
f 12//9 80//8 216//70 165//71
f 80//8 24//7 75//72 216//70
f 216//70 75//72 23//68 173//65
f 165//71 216//70 173//65 11//64
f 13//5 85//73 217//74 105//6
f 85//73 25//75 171//76 217//74
f 217//74 171//76 36//77 103//78
f 105//6 217//74 103//78 24//7
f 14//14 74//79 218//80 91//15
f 74//79 26//81 120//82 218//80
f 218//80 120//82 25//75 85//73
f 91//15 218//80 85//73 13//5
f 15//20 130//83 219//84 158//21
f 130//83 27//85 76//86 219//84
f 219//84 76//86 26//81 74//79
f 158//21 219//84 74//79 14//14
f 16//26 156//87 220//88 116//27
f 156//87 28//89 143//90 220//88
f 220//88 143//90 27//85 130//83
f 116//27 220//88 130//83 15//20
f 17//32 136//91 221//92 132//33
f 136//91 29//93 162//94 221//92
f 221//92 162//94 28//89 156//87
f 132//33 221//92 156//87 16//26
f 18//38 89//95 222//96 113//39
f 89//95 30//97 180//98 222//96
f 222//96 180//98 29//93 136//91
f 113//39 222//96 136//91 17//32
f 19//44 155//99 223//100 179//45
f 155//99 31//101 135//102 223//100
f 223//100 135//102 30//97 89//95
f 179//45 223//100 89//95 18//38
f 20//50 176//103 224//104 131//51
f 176//103 32//105 102//106 224//104
f 224//104 102//106 31//101 155//99
f 131//51 224//104 155//99 19//44
f 21//56 88//107 225//108 150//57
f 88//107 33//109 115//110 225//108
f 225//108 115//110 32//105 176//103
f 150//57 225//108 176//103 20//50
f 22//62 87//111 226//112 157//63
f 87//111 34//113 90//114 226//112
f 226//112 90//114 33//109 88//107
f 157//63 226//112 88//107 21//56
f 23//68 137//115 227//116 110//69
f 137//115 35//117 122//118 227//116
f 227//116 122//118 34//113 87//111
f 110//69 227//116 87//111 22//62
f 24//7 103//78 228//119 75//72
f 103//78 36//77 109//120 228//119
f 228//119 109//120 35//117 137//115
f 75//72 228//119 137//115 23//68
f 25//75 149//121 229//122 171//76
f 149//121 37//123 79//124 229//122
f 229//122 79//124 48//125 93//126
f 171//76 229//122 93//126 36//77
f 26//81 161//127 230//128 120//82
f 161//127 38//129 129//130 230//128
f 230//128 129//130 37//123 149//121
f 120//82 230//128 149//121 25//75
f 27//85 170//131 231//132 76//86
f 170//131 39//133 169//134 231//132
f 231//132 169//134 38//129 161//127
f 76//86 231//132 161//127 26//81
f 28//89 125//135 232//136 143//90
f 125//135 40//137 164//138 232//136
f 232//136 164//138 39//133 170//131
f 143//90 232//136 170//131 27//85
f 29//93 78//139 233//140 162//94
f 78//139 41//141 145//142 233//140
f 233//140 145//142 40//137 125//135
f 162//94 233//140 125//135 28//89
f 30//97 112//143 234//144 180//98
f 112//143 42//145 175//146 234//144
f 234//144 175//146 41//141 78//139
f 180//98 234//144 78//139 29//93
f 31//101 128//147 235//148 135//102
f 128//147 43//149 96//150 235//148
f 235//148 96//150 42//145 112//143
f 135//102 235//148 112//143 30//97
f 32//105 92//151 236//152 102//106
f 92//151 44//153 84//154 236//152
f 236//152 84//154 43//149 128//147
f 102//106 236//152 128//147 31//101
f 33//109 83//155 237//156 115//110
f 83//155 45//157 178//158 237//156
f 237//156 178//158 44//153 92//151
f 115//110 237//156 92//151 32//105
f 34//113 119//159 238//160 90//114
f 119//159 46//161 118//162 238//160
f 238//160 118//162 45//157 83//155
f 90//114 238//160 83//155 33//109
f 35//117 101//163 239//164 122//118
f 101//163 47//165 160//166 239//164
f 239//164 160//166 46//161 119//159
f 122//118 239//164 119//159 34//113
f 36//77 93//126 240//167 109//120
f 93//126 48//125 152//168 240//167
f 240//167 152//168 47//165 101//163
f 109//120 240//167 101//163 35//117
f 37//123 142//169 241//170 79//124
f 142//169 49//171 148//172 241//170
f 241//170 148//172 60//173 124//174
f 79//124 241//170 124//174 48//125
f 38//129 159//175 242//176 129//130
f 159//175 50//177 106//178 242//176
f 242//176 106//178 49//171 142//169
f 129//130 242//176 142//169 37//123
f 39//133 108//179 243//180 169//134
f 108//179 51//181 141//182 243//180
f 243//180 141//182 50//177 159//175
f 169//134 243//180 159//175 38//129
f 40//137 100//183 244//184 164//138
f 100//183 52//185 123//186 244//184
f 244//184 123//186 51//181 108//179
f 164//138 244//184 108//179 39//133
f 41//141 154//187 245//188 145//142
f 154//187 53//189 111//190 245//188
f 245//188 111//190 52//185 100//183
f 145//142 245//188 100//183 40//137
f 42//145 82//191 246//192 175//146
f 82//191 54//193 147//194 246//192
f 246//192 147//194 53//189 154//187
f 175//146 246//192 154//187 41//141
f 43//149 174//195 247//196 96//150
f 174//195 55//197 73//198 247//196
f 247//196 73//198 54//193 82//191
f 96//150 247//196 82//191 42//145
f 44//153 167//199 248//200 84//154
f 167//199 56//201 177//202 248//200
f 248//200 177//202 55//197 174//195
f 84//154 248//200 174//195 43//149
f 45//157 86//203 249//204 178//158
f 86//203 57//205 166//206 249//204
f 249//204 166//206 56//201 167//199
f 178//158 249//204 167//199 44//153
f 46//161 146//207 250//208 118//162
f 146//207 58//209 114//210 250//208
f 250//208 114//210 57//205 86//203
f 118//162 250//208 86//203 45//157
f 47//165 134//211 251//212 160//166
f 134//211 59//213 151//214 251//212
f 251//212 151//214 58//209 146//207
f 160//166 251//212 146//207 46//161
f 48//125 124//174 252//215 152//168
f 124//174 60//173 133//216 252//215
f 252//215 133//216 59//213 134//211
f 152//168 252//215 134//211 47//165
f 8//46 127//49 253//217 193//218
f 127//49 7//40 194//219 253//217
f 253//217 194//219 67//220 187//221
f 193//218 253//217 187//221 68//222
f 9//52 144//55 254//223 195//224
f 144//55 8//46 193//218 254//223
f 254//223 193//218 68//222 189//225
f 195//224 254//223 189//225 69//226
f 7//40 168//43 255//227 194//219
f 168//43 6//34 196//228 255//227
f 255//227 196//228 66//229 191//230
f 194//219 255//227 191//230 67//220
f 12//9 165//71 256//231 197//232
f 165//71 11//64 198//233 256//231
f 256//231 198//233 71//234 190//235
f 197//232 256//231 190//235 72//236
f 6//34 97//37 257//237 196//228
f 97//37 5//28 199//238 257//237
f 257//237 199//238 65//239 184//240
f 196//228 257//237 184//240 66//229
f 2//10 172//13 258//241 200//242
f 172//13 1//1 201//243 258//241
f 258//241 201//243 61//244 192//245
f 200//242 258//241 192//245 62//246
f 3//16 121//19 259//247 202//248
f 121//19 2//10 200//242 259//247
f 259//247 200//242 62//246 186//249
f 202//248 259//247 186//249 63//250
f 10//58 138//61 260//251 203//252
f 138//61 9//52 195//224 260//251
f 260//251 195//224 69//226 188//253
f 203//252 260//251 188//253 70//254
f 4//22 77//25 261//255 204//256
f 77//25 3//16 202//248 261//255
f 261//255 202//248 63//250 181//257
f 204//256 261//255 181//257 64//258
f 5//28 94//31 262//259 199//238
f 94//31 4//22 204//256 262//259
f 262//259 204//256 64//258 182//260
f 199//238 262//259 182//260 65//239
f 11//64 95//67 263//261 198//233
f 95//67 10//58 203//252 263//261
f 263//261 203//252 70//254 183//262
f 198//233 263//261 183//262 71//234
f 1//1 99//4 264//263 201//243
f 99//4 12//9 197//232 264//263
f 264//263 197//232 72//236 185//264
f 201//243 264//263 185//264 61//244
f 63//250 186//249 265//265 181//257
f 62//246 192//245 265//265 186//249
f 61//244 185//264 265//265 192//245
f 72//236 190//235 265//265 185//264
f 71//234 183//262 265//265 190//235
f 70//254 188//253 265//265 183//262
f 69//226 189//225 265//265 188//253
f 68//222 187//221 265//265 189//225
f 67//220 191//230 265//265 187//221
f 66//229 184//240 265//265 191//230
f 65//239 182//260 265//265 184//240
f 64//258 181//257 265//265 182//260
