# Blender 3.5.1
# www.blender.org
mtllib Cube_1409.mtl
o Cube.1409
v -0.177193 3.314804 -14.741399
v -0.191362 3.526612 -14.765140
v -0.177193 3.314804 -14.931331
v -0.191362 3.526612 -14.907590
v 0.012740 3.314804 -14.741399
v -0.048912 3.526612 -14.765140
v 0.012740 3.314804 -14.931331
v -0.048912 3.526612 -14.907590
v -0.191362 3.107662 -14.907590
v -0.191362 3.107662 -14.765140
v -0.048912 3.107662 -14.907590
v -0.048912 3.107662 -14.765140
v -0.181537 3.383823 -14.741907
v -0.189203 3.446607 -14.745465
v -0.193122 3.496547 -14.754242
v -0.205069 3.537001 -14.794107
v -0.211954 3.542220 -14.836365
v -0.205069 3.537001 -14.878622
v -0.193122 3.496547 -14.918488
v -0.189203 3.446607 -14.927264
v -0.181537 3.383823 -14.930822
v -0.203902 3.314804 -14.888300
v -0.212805 3.314804 -14.836365
v -0.203902 3.314804 -14.784430
v -0.165713 3.537001 -14.917978
v -0.125122 3.542220 -14.923198
v -0.081197 3.537001 -14.917978
v -0.028878 3.496547 -14.918488
v -0.007404 3.446607 -14.927264
v 0.007379 3.383823 -14.930822
v -0.030292 3.314804 -14.958040
v -0.082226 3.314804 -14.966944
v -0.134161 3.314804 -14.958040
v -0.041841 3.537001 -14.878622
v -0.038289 3.542220 -14.836365
v -0.041841 3.537001 -14.794107
v -0.028878 3.496547 -14.754242
v -0.007404 3.446607 -14.745465
v 0.007379 3.383823 -14.741907
v 0.039449 3.314804 -14.784430
v 0.048352 3.314804 -14.836365
v 0.039449 3.314804 -14.888300
v -0.081197 3.537001 -14.754751
v -0.125122 3.542220 -14.749532
v -0.165713 3.537001 -14.754751
v -0.134161 3.314804 -14.714689
v -0.082226 3.314804 -14.705786
v -0.030292 3.314804 -14.714689
v -0.205069 3.097681 -14.878622
v -0.211954 3.092667 -14.836365
v -0.205069 3.097681 -14.794107
v -0.081197 3.097681 -14.917978
v -0.125122 3.092667 -14.923198
v -0.165713 3.097681 -14.917978
v -0.041841 3.097681 -14.794107
v -0.038289 3.092667 -14.836365
v -0.041841 3.097681 -14.878622
v -0.165713 3.097681 -14.754751
v -0.125122 3.092667 -14.749532
v -0.081197 3.097681 -14.754751
v 0.007379 3.246382 -14.741907
v -0.007404 3.184979 -14.745465
v -0.028878 3.136602 -14.754242
v -0.028878 3.136602 -14.918488
v -0.007404 3.184979 -14.927264
v 0.007379 3.246382 -14.930822
v -0.181537 3.246382 -14.930822
v -0.189203 3.184979 -14.927264
v -0.193122 3.136602 -14.918488
v -0.193122 3.136602 -14.754242
v -0.189203 3.184979 -14.745465
v -0.181537 3.246382 -14.741907
v -0.216407 3.499422 -14.791048
v -0.224780 3.501938 -14.836365
v -0.216407 3.499422 -14.881681
v -0.215072 3.447377 -14.786670
v -0.223878 3.448146 -14.836365
v -0.215072 3.447377 -14.886060
v -0.208142 3.383919 -14.784710
v -0.217033 3.384015 -14.836365
v -0.208142 3.383919 -14.888020
v -0.157235 3.499422 -14.940853
v -0.112722 3.501938 -14.948422
v -0.066602 3.499422 -14.940853
v -0.148244 3.447377 -14.952888
v -0.098795 3.448146 -14.961448
v -0.048854 3.447377 -14.952888
v -0.138765 3.383919 -14.957397
v -0.087141 3.384015 -14.966256
v -0.035455 3.383919 -14.957397
v -0.007430 3.499422 -14.881681
v -0.000663 3.501938 -14.836365
v -0.007430 3.499422 -14.791048
v 0.017974 3.447377 -14.886060
v 0.026288 3.448146 -14.836365
v 0.017974 3.447377 -14.786670
v 0.033922 3.383919 -14.888020
v 0.042751 3.384015 -14.836365
v 0.033922 3.383919 -14.784710
v -0.066602 3.499422 -14.731876
v -0.112722 3.501938 -14.724307
v -0.157235 3.499422 -14.731876
v -0.048854 3.447377 -14.719841
v -0.098795 3.448146 -14.711282
v -0.148244 3.447377 -14.719841
v -0.035455 3.383919 -14.715333
v -0.087141 3.384015 -14.706473
v -0.138765 3.383919 -14.715333
v 0.033922 3.246289 -14.888020
v 0.042751 3.246197 -14.836365
v 0.033922 3.246289 -14.784710
v 0.017974 3.184240 -14.886060
v 0.026288 3.183501 -14.836365
v 0.017974 3.184240 -14.786670
v -0.007430 3.133840 -14.881681
v -0.000663 3.131423 -14.836365
v -0.007430 3.133840 -14.791048
v -0.085518 3.559231 -14.791328
v -0.085502 3.566758 -14.836365
v -0.085518 3.559231 -14.881401
v -0.132958 3.566758 -14.788909
v -0.135582 3.574974 -14.836365
v -0.132958 3.566758 -14.883821
v -0.175591 3.559231 -14.791328
v -0.180414 3.566758 -14.836365
v -0.175591 3.559231 -14.881401
v -0.175591 3.076324 -14.791328
v -0.180414 3.069093 -14.836365
v -0.175591 3.076324 -14.881401
v -0.132958 3.069093 -14.788909
v -0.135582 3.061200 -14.836365
v -0.132958 3.069093 -14.883821
v -0.085518 3.076324 -14.791328
v -0.085502 3.069093 -14.836365
v -0.085518 3.076324 -14.881401
v -0.208142 3.246289 -14.784710
v -0.217033 3.246197 -14.836365
v -0.208142 3.246289 -14.888020
v -0.215072 3.184240 -14.786670
v -0.223878 3.183501 -14.836365
v -0.215072 3.184240 -14.886060
v -0.216407 3.133840 -14.791048
v -0.224780 3.131423 -14.836365
v -0.216407 3.133840 -14.881681
v -0.138765 3.246289 -14.957397
v -0.087141 3.246197 -14.966256
v -0.035455 3.246289 -14.957397
v -0.148244 3.184240 -14.952888
v -0.098795 3.183501 -14.961448
v -0.048854 3.184240 -14.952888
v -0.157235 3.133840 -14.940853
v -0.112722 3.131423 -14.948422
v -0.066602 3.133840 -14.940853
v -0.035455 3.246289 -14.715333
v -0.087141 3.246197 -14.706473
v -0.138765 3.246289 -14.715333
v -0.048854 3.184240 -14.719841
v -0.098795 3.183501 -14.711282
v -0.148244 3.184240 -14.719841
v -0.066602 3.133840 -14.731876
v -0.112722 3.131423 -14.724307
v -0.157235 3.133840 -14.731876
vn -0.9234 0.1442 0.3558
vn -0.9888 0.1494 -0.0000
vn -0.9983 -0.0585 -0.0000
vn -0.9318 -0.0418 0.3605
vn -0.9234 0.1442 -0.3558
vn -0.9318 -0.0418 -0.3605
vn -0.9966 -0.0830 -0.0000
vn -0.9311 -0.0731 0.3575
vn -0.9311 -0.0731 -0.3575
vn -0.6419 0.4477 0.6225
vn -0.7662 0.5359 0.3545
vn -0.6951 0.1836 0.6951
vn -0.8195 0.5731 -0.0000
vn -0.7662 0.5359 -0.3545
vn -0.6419 0.4477 -0.6225
vn -0.6951 0.1836 -0.6951
vn -0.7045 0.0101 -0.7096
vn -0.7024 -0.0425 -0.7105
vn -0.7019 0.0002 -0.7123
vn -0.9337 0.0002 -0.3579
vn -1.0000 0.0003 -0.0000
vn -0.9337 0.0002 0.3579
vn -0.7024 -0.0425 0.7105
vn -0.7019 0.0002 0.7123
vn -0.7045 0.0101 0.7096
vn -0.3476 0.2901 -0.8917
vn -0.0031 0.3869 -0.9221
vn 0.0024 0.1575 -0.9875
vn -0.3540 0.0832 -0.9315
vn 0.3173 0.4405 -0.8398
vn 0.3487 0.2292 -0.9088
vn 0.0056 0.0440 -0.9990
vn -0.3499 0.0005 -0.9368
vn 0.3590 0.0885 -0.9291
vn -0.3460 0.6134 -0.7099
vn -0.0112 0.7054 -0.7087
vn 0.2881 0.7176 -0.6341
vn 0.5142 0.6749 -0.5293
vn 0.6130 0.4912 -0.6188
vn 0.6759 0.2949 -0.6755
vn 0.7043 0.1309 -0.6977
vn 0.7122 -0.0003 -0.7020
vn 0.3623 -0.0002 -0.9321
vn 0.0076 -0.0000 -1.0000
vn -0.3473 0.0001 -0.9377
vn 0.7823 0.5446 -0.3025
vn 0.8228 0.5684 -0.0000
vn 0.9375 0.3479 -0.0000
vn 0.8803 0.3357 -0.3354
vn 0.7823 0.5446 0.3025
vn 0.8803 0.3357 0.3354
vn 0.9865 0.1638 -0.0000
vn 0.9241 0.1566 -0.3487
vn 0.9241 0.1566 0.3487
vn 0.5805 0.7652 -0.2784
vn 0.6043 0.7968 -0.0000
vn 0.5805 0.7652 0.2784
vn 0.5142 0.6749 0.5293
vn 0.6130 0.4912 0.6188
vn 0.6758 0.2949 0.6755
vn 0.7043 0.1309 0.6977
vn 0.7122 -0.0003 0.7020
vn 0.9361 -0.0003 0.3518
vn 1.0000 -0.0003 -0.0000
vn 0.9361 -0.0003 -0.3518
vn 0.3173 0.4405 0.8398
vn -0.0031 0.3869 0.9221
vn 0.0024 0.1575 0.9875
vn 0.3487 0.2292 0.9088
vn -0.3476 0.2901 0.8917
vn -0.3540 0.0832 0.9315
vn 0.0056 0.0440 0.9990
vn 0.3590 0.0885 0.9291
vn -0.3499 0.0005 0.9368
vn 0.2881 0.7176 0.6341
vn -0.0112 0.7054 0.7087
vn -0.3460 0.6134 0.7099
vn -0.3473 0.0001 0.9377
vn 0.0076 -0.0000 1.0000
vn 0.3623 -0.0002 0.9321
vn 0.9237 -0.1594 -0.3485
vn 0.9860 -0.1668 -0.0000
vn 0.9344 -0.3563 -0.0000
vn 0.8775 -0.3439 -0.3342
vn 0.9237 -0.1594 0.3485
vn 0.8775 -0.3439 0.3342
vn 0.8138 -0.5812 -0.0000
vn 0.7743 -0.5575 -0.2994
vn 0.7743 -0.5575 0.2994
vn 0.7042 -0.1333 -0.6974
vn 0.7042 -0.1333 0.6974
vn 0.6742 -0.3023 0.6739
vn 0.6077 -0.5040 0.6138
vn 0.5048 -0.6889 0.5202
vn 0.5682 -0.7765 0.2722
vn 0.5905 -0.8070 -0.0000
vn 0.5682 -0.7765 -0.2722
vn 0.6077 -0.5040 -0.6138
vn 0.5048 -0.6889 -0.5202
vn 0.6742 -0.3023 -0.6739
vn 0.2978 0.9022 0.3121
vn 0.3113 0.9503 -0.0000
vn -0.0151 0.9999 -0.0000
vn -0.0146 0.9336 0.3580
vn 0.2978 0.9022 -0.3121
vn -0.0146 0.9336 -0.3580
vn -0.4134 0.9105 -0.0000
vn -0.3836 0.8479 0.3659
vn -0.3836 0.8479 -0.3659
vn -0.3741 -0.8560 0.3567
vn -0.4020 -0.9157 -0.0000
vn -0.0146 -0.9999 -0.0000
vn -0.0143 -0.9377 0.3470
vn -0.3741 -0.8560 -0.3567
vn -0.0143 -0.9377 -0.3470
vn 0.3011 -0.9536 -0.0000
vn 0.2887 -0.9083 0.3027
vn 0.2887 -0.9083 -0.3027
vn -0.6374 -0.4615 0.6171
vn -0.7594 -0.5482 0.3504
vn -0.3417 -0.6260 0.7010
vn -0.8113 -0.5846 -0.0000
vn -0.7595 -0.5482 -0.3504
vn -0.6374 -0.4615 -0.6171
vn -0.3417 -0.6260 -0.7010
vn -0.0116 -0.7171 -0.6969
vn 0.2819 -0.7298 -0.6228
vn 0.2819 -0.7298 0.6228
vn -0.0116 -0.7171 0.6969
vn -0.9309 0.0744 0.3575
vn -0.9964 0.0844 -0.0000
vn -0.9982 0.0599 -0.0000
vn -0.9317 0.0427 0.3606
vn -0.9309 0.0744 -0.3575
vn -0.9317 0.0427 -0.3606
vn -0.9880 -0.1545 -0.0000
vn -0.9228 -0.1493 0.3553
vn -0.9228 -0.1493 -0.3553
vn -0.7022 0.0431 0.7106
vn -0.7022 0.0431 -0.7106
vn -0.7044 -0.0107 -0.7097
vn -0.6943 -0.1902 -0.6941
vn -0.6943 -0.1902 0.6941
vn -0.7044 -0.0107 0.7097
vn -0.3498 -0.0007 -0.9368
vn 0.0057 -0.0450 -0.9990
vn 0.0025 -0.1621 -0.9868
vn -0.3537 -0.0859 -0.9314
vn 0.3591 -0.0903 -0.9289
vn 0.3481 -0.2354 -0.9074
vn -0.0035 -0.3979 -0.9174
vn -0.3466 -0.2994 -0.8889
vn 0.3147 -0.4525 -0.8344
vn 0.3591 -0.0903 0.9289
vn 0.0057 -0.0450 0.9990
vn 0.0025 -0.1621 0.9868
vn 0.3481 -0.2354 0.9074
vn -0.3498 -0.0007 0.9368
vn -0.3537 -0.0859 0.9314
vn -0.0035 -0.3979 0.9174
vn 0.3147 -0.4525 0.8344
vn -0.3466 -0.2994 0.8889
vt 0.257058 0.258447
vt 0.479739 0.283383
vt 0.233489 0.499646
vt 0.490241 0.044630
vt 0.044547 0.258488
vt 0.074106 0.499677
vt 0.268543 0.658509
vt 0.743713 0.262947
vt 0.268543 0.297135
vt 0.700839 0.021389
vt 0.490494 0.611973
vt 0.532393 0.286166
vt 0.565931 0.834845
vt 0.408391 0.729675
vt 0.074106 0.022633
vt 0.762525 0.572940
vt 0.057917 0.574833
vt 0.233489 0.022603
vt 0.511889 0.519155
vt 0.607295 0.607232
vt 0.757833 0.494257
vt 0.047893 0.734722
vt 0.257408 0.337042
vt 0.481126 0.204940
vt 0.255047 0.408541
vt 0.487258 0.133599
vt 0.246054 0.465412
vt 0.491140 0.077556
vt 0.203976 0.511498
vt 0.511889 0.034528
vt 0.158150 0.517457
vt 0.272027 0.621456
vt 0.109413 0.511516
vt 0.062285 0.465448
vt 0.051636 0.408580
vt 0.046034 0.337082
vt 0.098339 0.258509
vt 0.158330 0.258508
vt 0.214556 0.258486
vt 0.057060 0.511480
vt 0.287981 0.673637
vt 0.324946 0.695078
vt 0.370953 0.715860
vt 0.421070 0.766833
vt 0.598209 0.954693
vt 0.523024 0.135141
vt 0.435915 0.814954
vt 0.577697 0.899756
vt 0.524643 0.207733
vt 0.621325 0.839373
vt 0.680752 0.831833
vt 0.005568 0.258445
vt 0.734513 0.814368
vt 0.432274 0.703003
vt 0.617341 0.013409
vt 0.460240 0.666712
vt 0.665779 0.013822
vt 0.480985 0.633170
vt 0.713038 0.055743
vt 0.285106 0.146762
vt 0.725294 0.112916
vt 0.734832 0.184638
vt 0.271060 0.218619
vt 0.690483 0.270544
vt 0.630916 0.277672
vt 0.574917 0.283242
vt 0.717455 0.005568
vt 0.364716 0.039887
vt 0.465031 0.580990
vt 0.412037 0.030317
vt 0.425040 0.551584
vt 0.458693 0.033767
vt 0.425489 0.284049
vt 0.365606 0.286992
vt 0.309991 0.291570
vt 0.187061 0.564422
vt 0.767363 0.543880
vt 0.109413 0.011278
vt 0.142068 0.556498
vt 0.158150 0.005568
vt 0.093518 0.562128
vt 0.203976 0.011260
vt 0.644904 0.595637
vt 0.693988 0.583142
vt 0.737001 0.575291
vt 0.725545 0.509682
vt 0.082032 0.745339
vt 0.678499 0.520817
vt 0.129847 0.751424
vt 0.631513 0.520014
vt 0.589490 0.583174
vt 0.175575 0.747633
vt 0.047188 0.605234
vt 0.481393 0.531364
vt 0.039849 0.651603
vt 0.435266 0.539503
vt 0.387416 0.537483
vt 0.041241 0.700096
vt 0.753530 0.339768
vt 0.278162 0.374292
vt 0.760886 0.408215
vt 0.298625 0.443096
vt 0.762006 0.462013
vt 0.026956 0.751424
vt 0.327107 0.497141
vt 0.591483 0.646007
vt 0.575142 0.702670
vt 0.543341 0.362863
vt 0.565579 0.767361
vt 0.046034 0.180583
vt 0.051636 0.110673
vt 0.770464 0.606468
vt 0.062285 0.055591
vt 0.246054 0.055555
vt 0.509739 0.485249
vt 0.255046 0.110635
vt 0.500777 0.429933
vt 0.257408 0.180542
vt 0.488228 0.360613
vt 0.209794 0.468720
vt 0.160860 0.471604
vt 0.108387 0.468740
vt 0.214412 0.409456
vt 0.160670 0.410352
vt 0.103206 0.409477
vt 0.215139 0.337190
vt 0.159223 0.337321
vt 0.099549 0.337213
vt 0.770464 0.977074
vt 0.282234 0.719453
vt 0.029675 0.468685
vt 0.724588 0.994432
vt 0.321631 0.746428
vt 0.371212 0.764732
vt 0.759909 0.935812
vt 0.014309 0.409415
vt 0.326528 0.796612
vt 0.708815 0.953228
vt 0.380472 0.814954
vt 0.651601 0.959739
vt 0.745419 0.879479
vt 0.007261 0.337149
vt 0.691991 0.896938
vt 0.632840 0.904349
vt 0.566560 0.069954
vt 0.463407 0.745401
vt 0.496228 0.709820
vt 0.615281 0.062167
vt 0.667398 0.058874
vt 0.563677 0.131455
vt 0.484597 0.793122
vt 0.617198 0.125239
vt 0.674259 0.119305
vt 0.566934 0.204714
vt 0.622623 0.199063
vt 0.681877 0.192085
vt 0.344946 0.081409
vt 0.745092 0.046463
vt 0.394284 0.074526
vt 0.445725 0.074846
vt 0.325015 0.140539
vt 0.762006 0.105288
vt 0.378456 0.135267
vt 0.435533 0.133343
vt 0.312315 0.212971
vt 0.367659 0.208307
vt 0.427191 0.205491
vt 0.585657 0.360057
vt 0.523024 0.749804
vt 0.641372 0.354618
vt 0.700600 0.347427
vt 0.599475 0.428457
vt 0.534307 0.685101
vt 0.653200 0.423944
vt 0.710057 0.416307
vt 0.616294 0.482586
vt 0.556154 0.627995
vt 0.665686 0.480365
vt 0.717133 0.471506
vt 0.440232 0.595637
vt 0.414467 0.628315
vt 0.388317 0.670062
vt 0.428921 0.005568
vt 0.395230 0.565395
vt 0.365496 0.598337
vt 0.340526 0.643818
vt 0.351804 0.550638
vt 0.200854 0.536777
vt 0.477296 0.011228
vt 0.321289 0.580898
vt 0.151483 0.545362
vt 0.299889 0.625063
vt 0.100074 0.536796
vt 0.093878 0.599190
vt 0.145930 0.596371
vt 0.193572 0.601636
vt 0.734241 0.531953
vt 0.090066 0.648348
vt 0.144811 0.648189
vt 0.195115 0.650925
vt 0.687916 0.536599
vt 0.087539 0.700290
vt 0.139251 0.702902
vt 0.636087 0.553636
vt 0.187234 0.702736
vt 0.215139 0.180477
vt 0.159223 0.180392
vt 0.099549 0.180499
vt 0.214412 0.109831
vt 0.160670 0.109010
vt 0.103206 0.109852
vt 0.209794 0.052445
vt 0.160860 0.049712
vt 0.108387 0.052464
vt 0.733284 0.746902
vt 0.007261 0.180435
vt 0.679840 0.764179
vt 0.620706 0.771772
vt 0.736708 0.682336
vt 0.014309 0.109791
vt 0.685481 0.698299
vt 0.628401 0.706262
vt 0.738231 0.624913
vt 0.029675 0.052410
vt 0.691921 0.637521
vt 0.639467 0.646732
vt 0.319427 0.368858
vt 0.374780 0.364407
vt 0.434302 0.361377
vt 0.338612 0.438582
vt 0.392131 0.435018
vt 0.449130 0.431385
vt 0.005568 0.708998
vt 0.363836 0.495486
vt 0.413429 0.494190
vt 0.464615 0.488924
s 1
usemtl Cube.1409_BAKED
f 73/120/1 74/121/2 77/124/3 76/123/4
f 74/121/2 75/122/5 78/125/6 77/124/3
f 76/123/4 77/124/3 80/127/7 79/126/8
f 77/124/3 78/125/6 81/128/9 80/127/7
f 2/3/10 16/29/11 73/120/1 15/27/12
f 16/29/11 17/31/13 74/121/2 73/120/1
f 17/31/13 18/33/14 75/122/5 74/121/2
f 18/33/14 4/6/15 19/34/16 75/122/5
f 75/122/5 19/34/16 20/35/17 78/125/6
f 78/125/6 20/35/17 21/36/18 81/128/9
f 81/128/9 21/36/18 3/5/19 22/37/20
f 80/127/7 81/128/9 22/37/20 23/38/21
f 79/126/8 80/127/7 23/38/21 24/39/22
f 13/23/23 79/126/8 24/39/22 1/1/24
f 14/25/25 76/123/4 79/126/8 13/23/23
f 15/27/12 73/120/1 76/123/4 14/25/25
f 82/129/26 83/132/27 86/138/28 85/135/29
f 83/133/27 84/134/30 87/139/31 86/137/28
f 85/135/29 86/138/28 89/143/32 88/141/33
f 86/138/28 87/140/31 90/144/34 89/143/32
f 4/6/15 25/40/35 82/131/26 19/34/16
f 25/41/35 26/42/36 83/133/27 82/130/26
f 26/42/36 27/43/37 84/134/30 83/133/27
f 27/43/37 8/14/38 28/44/39 84/134/30
f 84/134/30 28/44/39 29/47/40 87/139/31
f 87/140/31 29/45/40 30/48/41 90/144/34
f 90/144/34 30/48/41 7/13/42 31/50/43
f 89/143/32 90/144/34 31/50/43 32/51/44
f 88/141/33 89/143/32 32/51/44 33/53/45
f 21/36/18 88/142/33 33/52/45 3/5/19
f 20/35/17 85/136/29 88/142/33 21/36/18
f 19/34/16 82/131/26 85/136/29 20/35/17
f 91/145/46 92/148/47 95/152/48 94/150/49
f 92/148/47 93/149/50 96/153/51 95/152/48
f 94/150/49 95/152/48 98/155/52 97/154/53
f 95/152/48 96/153/51 99/156/54 98/155/52
f 8/14/38 34/54/55 91/146/46 28/44/39
f 34/54/55 35/56/56 92/147/47 91/146/46
f 35/55/56 36/57/57 93/149/50 92/148/47
f 36/57/57 6/10/58 37/59/59 93/149/50
f 93/149/50 37/59/59 38/61/60 96/153/51
f 96/153/51 38/61/60 39/62/61 99/156/54
f 99/156/54 39/62/61 5/8/62 40/64/63
f 98/155/52 99/156/54 40/64/63 41/65/64
f 97/154/53 98/155/52 41/65/64 42/66/65
f 30/49/41 97/154/53 42/66/65 7/12/42
f 29/46/40 94/150/49 97/154/53 30/49/41
f 28/44/39 91/146/46 94/151/49 29/47/40
f 100/157/66 101/159/67 104/163/68 103/161/69
f 101/159/67 102/160/70 105/164/71 104/163/68
f 103/161/69 104/163/68 107/166/72 106/165/73
f 104/163/68 105/164/71 108/167/74 107/166/72
f 6/10/58 43/67/75 100/158/66 37/59/59
f 43/68/75 44/70/76 101/159/67 100/157/66
f 44/70/76 45/72/77 102/160/70 101/159/67
f 45/72/77 2/4/10 15/28/12 102/160/70
f 102/160/70 15/28/12 14/26/25 105/164/71
f 105/164/71 14/26/25 13/24/23 108/167/74
f 108/167/74 13/24/23 1/2/24 46/73/78
f 107/166/72 108/167/74 46/73/78 47/74/79
f 106/165/73 107/166/72 47/74/79 48/75/80
f 39/63/61 106/165/73 48/75/80 5/9/62
f 38/60/60 103/161/69 106/165/73 39/63/61
f 37/59/59 100/158/66 103/162/69 38/61/60
f 109/168/81 110/170/82 113/174/83 112/172/84
f 110/170/82 111/171/85 114/175/86 113/174/83
f 112/172/84 113/174/83 116/178/87 115/176/88
f 113/174/83 114/175/86 117/179/89 116/178/87
f 7/12/42 42/66/65 109/168/81 66/108/90
f 42/66/65 41/65/64 110/170/82 109/168/81
f 41/65/64 40/64/63 111/171/85 110/170/82
f 40/64/63 5/8/62 61/99/91 111/171/85
f 111/171/85 61/99/91 62/101/92 114/175/86
f 114/175/86 62/101/92 63/103/93 117/179/89
f 117/179/89 63/103/93 12/21/94 55/86/95
f 116/178/87 117/179/89 55/86/95 56/88/96
f 115/176/88 116/178/87 56/88/96 57/90/97
f 64/106/98 115/177/88 57/91/97 11/20/99
f 65/107/100 112/173/84 115/177/88 64/106/98
f 66/109/90 109/169/81 112/173/84 65/107/100
f 118/180/101 119/181/102 122/185/103 121/184/104
f 119/181/102 120/182/105 123/186/106 122/185/103
f 121/184/104 122/185/103 125/190/107 124/187/108
f 122/185/103 123/186/106 126/192/109 125/190/107
f 6/11/58 36/58/57 118/180/101 43/69/75
f 36/58/57 35/56/56 119/181/102 118/180/101
f 35/56/56 34/54/55 120/182/105 119/181/102
f 34/54/55 8/14/38 27/43/37 120/182/105
f 120/182/105 27/43/37 26/42/36 123/186/106
f 123/186/106 26/42/36 25/41/35 126/192/109
f 126/192/109 25/41/35 4/7/15 18/32/14
f 125/191/107 126/193/109 18/33/14 17/31/13
f 124/188/108 125/191/107 17/31/13 16/29/11
f 45/72/77 124/189/108 16/30/11 2/4/10
f 44/70/76 121/183/104 124/189/108 45/72/77
f 43/69/75 118/180/101 121/184/104 44/71/76
f 127/194/110 128/195/111 131/199/112 130/198/113
f 128/195/111 129/196/114 132/200/115 131/199/112
f 130/198/113 131/199/112 134/203/116 133/202/117
f 131/199/112 132/200/115 135/205/118 134/203/116
f 10/17/119 51/81/120 127/194/110 58/93/121
f 51/81/120 50/79/122 128/195/111 127/194/110
f 50/79/122 49/76/123 129/196/114 128/195/111
f 49/77/123 9/16/124 54/85/125 129/197/114
f 129/197/114 54/85/125 53/84/126 132/201/115
f 132/201/115 53/84/126 52/83/127 135/204/118
f 135/204/118 52/83/127 11/20/99 57/91/97
f 134/203/116 135/205/118 57/92/97 56/89/96
f 133/202/117 134/203/116 56/89/96 55/87/95
f 60/98/128 133/202/117 55/87/95 12/22/94
f 59/95/129 130/198/113 133/202/117 60/98/128
f 58/93/121 127/194/110 130/198/113 59/95/129
f 136/206/130 137/207/131 140/210/132 139/209/133
f 137/207/131 138/208/134 141/211/135 140/210/132
f 139/209/133 140/210/132 143/213/136 142/212/137
f 140/210/132 141/211/135 144/214/138 143/213/136
f 1/1/24 24/39/22 136/206/130 72/118/139
f 24/39/22 23/38/21 137/207/131 136/206/130
f 23/38/21 22/37/20 138/208/134 137/207/131
f 22/37/20 3/5/19 67/110/140 138/208/134
f 138/208/134 67/110/140 68/111/141 141/211/135
f 141/211/135 68/111/141 69/113/142 144/214/138
f 144/214/138 69/113/142 9/15/124 49/78/123
f 143/213/136 144/214/138 49/78/123 50/80/122
f 142/212/137 143/213/136 50/80/122 51/82/120
f 70/114/143 142/212/137 51/82/120 10/18/119
f 71/116/144 139/209/133 142/212/137 70/114/143
f 72/118/139 136/206/130 139/209/133 71/116/144
f 145/215/145 146/217/146 149/221/147 148/219/148
f 146/217/146 147/218/149 150/222/150 149/221/147
f 148/219/148 149/221/147 152/225/151 151/223/152
f 149/221/147 150/222/150 153/226/153 152/225/151
f 3/5/19 33/52/45 145/216/145 67/110/140
f 33/53/45 32/51/44 146/217/146 145/215/145
f 32/51/44 31/50/43 147/218/149 146/217/146
f 31/50/43 7/13/42 66/109/90 147/218/149
f 147/218/149 66/109/90 65/107/100 150/222/150
f 150/222/150 65/107/100 64/106/98 153/226/153
f 153/226/153 64/106/98 11/20/99 52/83/127
f 152/225/151 153/226/153 52/83/127 53/84/126
f 151/223/152 152/225/151 53/84/126 54/85/125
f 69/112/142 151/223/152 54/85/125 9/16/124
f 68/111/141 148/220/148 151/224/152 69/113/142
f 67/110/140 145/216/145 148/220/148 68/111/141
f 154/227/154 155/228/155 158/231/156 157/230/157
f 155/228/155 156/229/158 159/232/159 158/231/156
f 157/230/157 158/231/156 161/235/160 160/234/161
f 158/231/156 159/232/159 162/236/162 161/235/160
f 5/9/62 48/75/80 154/227/154 61/100/91
f 48/75/80 47/74/79 155/228/155 154/227/154
f 47/74/79 46/73/78 156/229/158 155/228/155
f 46/73/78 1/2/24 72/119/139 156/229/158
f 156/229/158 72/119/139 71/117/144 159/232/159
f 159/232/159 71/117/144 70/115/143 162/236/162
f 162/236/162 70/115/143 10/19/119 58/94/121
f 161/235/160 162/236/162 58/94/121 59/96/129
f 160/234/161 161/235/160 59/96/129 60/97/128
f 63/104/93 160/233/161 60/98/128 12/22/94
f 62/102/92 157/230/157 160/234/161 63/105/93
f 61/100/91 154/227/154 157/230/157 62/102/92
