# Blender 3.5.1
# www.blender.org
mtllib Cube_1407.mtl
o Cube.1407
v -0.237850 3.314804 -13.894328
v -0.214108 3.526612 -13.918069
v -0.237850 3.314804 -14.084260
v -0.214108 3.526612 -14.060519
v -0.047917 3.314804 -13.894328
v -0.071659 3.526612 -13.918069
v -0.047917 3.314804 -14.084260
v -0.071659 3.526612 -14.060519
v -0.214108 3.107662 -14.060519
v -0.214108 3.107662 -13.918069
v -0.071659 3.107662 -14.060519
v -0.071659 3.107662 -13.918069
v -0.237341 3.383823 -13.894836
v -0.233783 3.446607 -13.898395
v -0.225006 3.496547 -13.907171
v -0.224497 3.537001 -13.947037
v -0.229716 3.542220 -13.989294
v -0.224497 3.537001 -14.031551
v -0.225006 3.496547 -14.071417
v -0.233783 3.446607 -14.080194
v -0.237341 3.383823 -14.083752
v -0.264559 3.314804 -14.041229
v -0.273462 3.314804 -13.989294
v -0.264559 3.314804 -13.937359
v -0.185141 3.537001 -14.070908
v -0.142883 3.542220 -14.076127
v -0.100626 3.537001 -14.070908
v -0.060761 3.496547 -14.071417
v -0.051984 3.446607 -14.080194
v -0.048425 3.383823 -14.083752
v -0.090949 3.314804 -14.110970
v -0.142883 3.314804 -14.119873
v -0.194818 3.314804 -14.110970
v -0.061269 3.537001 -14.031551
v -0.056051 3.542220 -13.989294
v -0.061269 3.537001 -13.947037
v -0.060761 3.496547 -13.907171
v -0.051984 3.446607 -13.898395
v -0.048425 3.383823 -13.894836
v -0.021208 3.314804 -13.937359
v -0.012305 3.314804 -13.989294
v -0.021208 3.314804 -14.041229
v -0.100626 3.537001 -13.907681
v -0.142883 3.542220 -13.902461
v -0.185141 3.537001 -13.907681
v -0.194818 3.314804 -13.867619
v -0.142883 3.314804 -13.858715
v -0.090949 3.314804 -13.867619
v -0.224497 3.097681 -14.031551
v -0.229716 3.092667 -13.989294
v -0.224497 3.097681 -13.947037
v -0.100626 3.097681 -14.070908
v -0.142883 3.092667 -14.076127
v -0.185141 3.097681 -14.070908
v -0.061269 3.097681 -13.947037
v -0.056051 3.092667 -13.989294
v -0.061269 3.097681 -14.031551
v -0.185141 3.097681 -13.907681
v -0.142883 3.092667 -13.902461
v -0.100626 3.097681 -13.907681
v -0.048425 3.246382 -13.894836
v -0.051984 3.184979 -13.898395
v -0.060761 3.136602 -13.907171
v -0.060761 3.136602 -14.071417
v -0.051984 3.184979 -14.080194
v -0.048425 3.246382 -14.083752
v -0.237341 3.246382 -14.083752
v -0.233783 3.184979 -14.080194
v -0.225006 3.136602 -14.071417
v -0.225006 3.136602 -13.907171
v -0.233783 3.184979 -13.898395
v -0.237341 3.246382 -13.894836
v -0.247372 3.499422 -13.943977
v -0.254941 3.501938 -13.989294
v -0.247372 3.499422 -14.034611
v -0.259407 3.447377 -13.939599
v -0.267966 3.448146 -13.989294
v -0.259407 3.447377 -14.038989
v -0.263915 3.383919 -13.937639
v -0.272775 3.384015 -13.989294
v -0.263915 3.383919 -14.040949
v -0.188200 3.499422 -14.093782
v -0.142883 3.501938 -14.101352
v -0.097567 3.499422 -14.093782
v -0.192579 3.447377 -14.105818
v -0.142883 3.448146 -14.114377
v -0.093188 3.447377 -14.105818
v -0.194538 3.383919 -14.110326
v -0.142883 3.384015 -14.119185
v -0.091229 3.383919 -14.110326
v -0.038395 3.499422 -14.034611
v -0.030825 3.501938 -13.989294
v -0.038395 3.499422 -13.943977
v -0.026360 3.447377 -14.038989
v -0.017800 3.448146 -13.989294
v -0.026360 3.447377 -13.939599
v -0.021852 3.383919 -14.040949
v -0.012992 3.384015 -13.989294
v -0.021852 3.383919 -13.937639
v -0.097567 3.499422 -13.884806
v -0.142883 3.501938 -13.877236
v -0.188200 3.499422 -13.884806
v -0.093188 3.447377 -13.872770
v -0.142883 3.448146 -13.864211
v -0.192579 3.447377 -13.872770
v -0.091229 3.383919 -13.868262
v -0.142883 3.384015 -13.859403
v -0.194538 3.383919 -13.868262
v -0.021852 3.246289 -14.040949
v -0.012992 3.246197 -13.989294
v -0.021852 3.246289 -13.937639
v -0.026360 3.184240 -14.038989
v -0.017800 3.183501 -13.989294
v -0.026360 3.184240 -13.939599
v -0.038395 3.133840 -14.034611
v -0.030825 3.131423 -13.989294
v -0.038395 3.133840 -13.943977
v -0.097847 3.559231 -13.944258
v -0.095428 3.566758 -13.989294
v -0.097847 3.559231 -14.034330
v -0.142883 3.566758 -13.941838
v -0.142883 3.574974 -13.989294
v -0.142883 3.566758 -14.036750
v -0.187920 3.559231 -13.944258
v -0.190339 3.566758 -13.989294
v -0.187920 3.559231 -14.034330
v -0.187920 3.076324 -13.944258
v -0.190339 3.069093 -13.989294
v -0.187920 3.076324 -14.034330
v -0.142883 3.069093 -13.941838
v -0.142883 3.061200 -13.989294
v -0.142883 3.069093 -14.036750
v -0.097847 3.076324 -13.944258
v -0.095428 3.069093 -13.989294
v -0.097847 3.076324 -14.034330
v -0.263915 3.246289 -13.937639
v -0.272775 3.246197 -13.989294
v -0.263915 3.246289 -14.040949
v -0.259407 3.184240 -13.939599
v -0.267966 3.183501 -13.989294
v -0.259407 3.184240 -14.038989
v -0.247372 3.133840 -13.943977
v -0.254941 3.131423 -13.989294
v -0.247372 3.133840 -14.034611
v -0.194538 3.246289 -14.110326
v -0.142883 3.246197 -14.119185
v -0.091229 3.246289 -14.110326
v -0.192579 3.184240 -14.105818
v -0.142883 3.183501 -14.114377
v -0.093188 3.184240 -14.105818
v -0.188200 3.133840 -14.093782
v -0.142883 3.131423 -14.101352
v -0.097567 3.133840 -14.093782
v -0.091229 3.246289 -13.868262
v -0.142883 3.246197 -13.859403
v -0.194538 3.246289 -13.868262
v -0.093188 3.184240 -13.872770
v -0.142883 3.183501 -13.864211
v -0.192579 3.184240 -13.872770
v -0.097567 3.133840 -13.884806
v -0.142883 3.131423 -13.877236
v -0.188200 3.133840 -13.884806
vn -0.8672 0.3696 0.3337
vn -0.9219 0.3875 -0.0000
vn -0.9877 0.1563 -0.0000
vn -0.9223 0.1568 0.3531
vn -0.8672 0.3696 -0.3337
vn -0.9223 0.1568 -0.3531
vn -0.9991 0.0426 -0.0000
vn -0.9338 0.0435 0.3551
vn -0.9338 0.0435 -0.3551
vn -0.5765 0.5790 0.5765
vn -0.6701 0.6719 0.3156
vn -0.6619 0.3520 0.6619
vn -0.7065 0.7078 -0.0000
vn -0.6701 0.6719 -0.3156
vn -0.5765 0.5790 -0.5765
vn -0.6619 0.3520 -0.6619
vn -0.6983 0.1577 -0.6983
vn -0.7064 0.0445 -0.7064
vn -0.7071 -0.0000 -0.7071
vn -0.9349 -0.0000 -0.3548
vn -1.0000 -0.0000 -0.0000
vn -0.9349 -0.0000 0.3548
vn -0.7064 0.0445 0.7064
vn -0.7071 -0.0000 0.7071
vn -0.6983 0.1577 0.6983
vn -0.3337 0.3696 -0.8672
vn -0.0000 0.3875 -0.9219
vn -0.0000 0.1563 -0.9877
vn -0.3531 0.1568 -0.9223
vn 0.3337 0.3696 -0.8672
vn 0.3531 0.1568 -0.9223
vn -0.0000 0.0426 -0.9991
vn -0.3551 0.0435 -0.9338
vn 0.3551 0.0435 -0.9338
vn -0.3156 0.6719 -0.6701
vn -0.0000 0.7078 -0.7065
vn 0.3156 0.6719 -0.6701
vn 0.5765 0.5790 -0.5765
vn 0.6619 0.3520 -0.6619
vn 0.6983 0.1577 -0.6983
vn 0.7064 0.0445 -0.7064
vn 0.7071 -0.0000 -0.7071
vn 0.3548 -0.0000 -0.9349
vn -0.0000 -0.0000 -1.0000
vn -0.3548 -0.0000 -0.9349
vn 0.8672 0.3696 -0.3337
vn 0.9219 0.3875 -0.0000
vn 0.9877 0.1563 -0.0000
vn 0.9223 0.1568 -0.3531
vn 0.8672 0.3696 0.3337
vn 0.9223 0.1568 0.3531
vn 0.9991 0.0426 -0.0000
vn 0.9338 0.0435 -0.3551
vn 0.9338 0.0435 0.3551
vn 0.6701 0.6719 -0.3156
vn 0.7065 0.7078 -0.0000
vn 0.6701 0.6719 0.3156
vn 0.5765 0.5790 0.5765
vn 0.6619 0.3520 0.6619
vn 0.6983 0.1577 0.6983
vn 0.7064 0.0445 0.7064
vn 0.7071 -0.0000 0.7071
vn 0.9349 -0.0000 0.3548
vn 1.0000 -0.0000 -0.0000
vn 0.9349 -0.0000 -0.3548
vn 0.3337 0.3696 0.8672
vn -0.0000 0.3875 0.9219
vn -0.0000 0.1563 0.9877
vn 0.3531 0.1568 0.9223
vn -0.3337 0.3696 0.8672
vn -0.3531 0.1568 0.9223
vn -0.0000 0.0426 0.9991
vn 0.3551 0.0435 0.9338
vn -0.3551 0.0435 0.9338
vn 0.3156 0.6719 0.6701
vn -0.0000 0.7078 0.7065
vn -0.3156 0.6719 0.6701
vn -0.3548 -0.0000 0.9349
vn -0.0000 -0.0000 1.0000
vn 0.3548 -0.0000 0.9349
vn 0.9338 -0.0444 -0.3551
vn 0.9991 -0.0435 -0.0000
vn 0.9870 -0.1607 -0.0000
vn 0.9217 -0.1612 -0.3528
vn 0.9338 -0.0444 0.3551
vn 0.9217 -0.1612 0.3528
vn 0.9171 -0.3986 -0.0000
vn 0.8631 -0.3806 -0.3319
vn 0.8631 -0.3806 0.3319
vn 0.7064 -0.0455 -0.7064
vn 0.7064 -0.0455 0.7064
vn 0.6977 -0.1622 0.6977
vn 0.6589 -0.3628 0.6589
vn 0.5690 -0.5938 0.5690
vn 0.6597 -0.6846 0.3101
vn 0.6945 -0.7195 -0.0000
vn 0.6597 -0.6846 -0.3101
vn 0.6589 -0.3628 -0.6589
vn 0.5690 -0.5938 -0.5690
vn 0.6977 -0.1622 -0.6977
vn 0.3362 0.8797 0.3362
vn 0.3560 0.9345 -0.0000
vn -0.0000 1.0000 -0.0000
vn -0.0000 0.9345 0.3560
vn 0.3362 0.8797 -0.3362
vn -0.0000 0.9345 -0.3560
vn -0.3560 0.9345 -0.0000
vn -0.3362 0.8797 0.3362
vn -0.3362 0.8797 -0.3362
vn -0.3267 -0.8868 0.3267
vn -0.3450 -0.9386 -0.0000
vn -0.0000 -1.0000 -0.0000
vn -0.0000 -0.9386 0.3450
vn -0.3267 -0.8869 -0.3267
vn -0.0000 -0.9386 -0.3450
vn 0.3450 -0.9386 -0.0000
vn 0.3267 -0.8868 0.3267
vn 0.3267 -0.8868 -0.3267
vn -0.5690 -0.5938 0.5690
vn -0.6597 -0.6846 0.3101
vn -0.3101 -0.6846 0.6597
vn -0.6945 -0.7195 -0.0000
vn -0.6597 -0.6846 -0.3101
vn -0.5690 -0.5938 -0.5690
vn -0.3101 -0.6846 -0.6597
vn -0.0000 -0.7195 -0.6945
vn 0.3101 -0.6846 -0.6597
vn 0.3101 -0.6846 0.6597
vn -0.0000 -0.7195 0.6945
vn -0.9338 -0.0444 0.3551
vn -0.9991 -0.0435 -0.0000
vn -0.9870 -0.1607 -0.0000
vn -0.9217 -0.1612 0.3528
vn -0.9338 -0.0444 -0.3551
vn -0.9217 -0.1612 -0.3528
vn -0.9171 -0.3986 -0.0000
vn -0.8631 -0.3806 0.3319
vn -0.8631 -0.3806 -0.3319
vn -0.7064 -0.0455 0.7064
vn -0.7064 -0.0455 -0.7064
vn -0.6977 -0.1622 -0.6977
vn -0.6589 -0.3628 -0.6589
vn -0.6589 -0.3628 0.6589
vn -0.6977 -0.1622 0.6977
vn -0.3551 -0.0444 -0.9338
vn -0.0000 -0.0435 -0.9991
vn -0.0000 -0.1607 -0.9870
vn -0.3528 -0.1612 -0.9217
vn 0.3551 -0.0444 -0.9338
vn 0.3528 -0.1612 -0.9217
vn -0.0000 -0.3986 -0.9171
vn -0.3319 -0.3806 -0.8631
vn 0.3319 -0.3806 -0.8631
vn 0.3551 -0.0444 0.9338
vn -0.0000 -0.0435 0.9991
vn -0.0000 -0.1607 0.9870
vn 0.3528 -0.1612 0.9217
vn -0.3551 -0.0444 0.9338
vn -0.3528 -0.1612 0.9217
vn -0.0000 -0.3986 0.9171
vn 0.3319 -0.3806 0.8631
vn -0.3319 -0.3806 0.8631
vt 0.286393 0.310154
vt 0.241959 0.714998
vt 0.706368 0.750724
vt 0.509255 0.295929
vt 0.527373 0.301763
vt 0.469134 0.043860
vt 0.228931 0.276727
vt 0.204147 0.023590
vt 0.540162 0.728326
vt 0.005651 0.278714
vt 0.750677 0.295582
vt 0.036687 0.025080
vt 0.726524 0.047842
vt 0.419293 0.581910
vt 0.503661 0.543719
vt 0.562017 0.550351
vt 0.188772 0.943144
vt 0.464648 0.743400
vt 0.729494 0.545715
vt 0.208397 0.524814
vt 0.304709 0.793956
vt 0.021156 0.937271
vt 0.281412 0.227743
vt 0.251159 0.643628
vt 0.281192 0.152397
vt 0.731457 0.827153
vt 0.256394 0.580415
vt 0.289294 0.091736
vt 0.719010 0.783408
vt 0.332848 0.040460
vt 0.724807 0.717116
vt 0.380860 0.031318
vt 0.740986 0.673256
vt 0.432016 0.034130
vt 0.745905 0.634822
vt 0.482015 0.079435
vt 0.544033 0.087094
vt 0.494510 0.138782
vt 0.532122 0.145545
vt 0.503081 0.213595
vt 0.527595 0.219794
vt 0.452921 0.300428
vt 0.390035 0.304743
vt 0.331043 0.308207
vt 0.590727 0.037790
vt 0.709810 0.590312
vt 0.486804 0.029302
vt 0.639216 0.029511
vt 0.661348 0.575052
vt 0.690092 0.035040
vt 0.737134 0.081748
vt 0.021760 0.061155
vt 0.745862 0.139629
vt 0.009998 0.120988
vt 0.749702 0.213646
vt 0.005661 0.196136
vt 0.694165 0.293386
vt 0.631132 0.293878
vt 0.572046 0.296767
vt 0.068327 0.012340
vt 0.555455 0.609158
vt 0.745086 0.039057
vt 0.116791 0.005651
vt 0.538357 0.645950
vt 0.167681 0.011456
vt 0.534356 0.691452
vt 0.527373 0.757584
vt 0.214842 0.059437
vt 0.223717 0.119086
vt 0.227747 0.194160
vt 0.172411 0.277158
vt 0.109380 0.277695
vt 0.050304 0.278244
vt 0.570452 0.735962
vt 0.617994 0.744153
vt 0.669062 0.749250
vt 0.186930 0.697376
vt 0.124356 0.689953
vt 0.269890 0.276479
vt 0.064710 0.693094
vt 0.380831 0.578991
vt 0.468222 0.558293
vt 0.330402 0.587358
vt 0.417910 0.567690
vt 0.285939 0.608986
vt 0.369054 0.564623
vt 0.204357 0.971121
vt 0.464460 0.705453
vt 0.693206 0.557120
vt 0.455544 0.654981
vt 0.642402 0.563751
vt 0.437551 0.609641
vt 0.593841 0.559870
vt 0.172137 0.537050
vt 0.337911 0.794033
vt 0.121351 0.543487
vt 0.385698 0.784238
vt 0.072783 0.537934
vt 0.432803 0.764038
vt 0.151573 0.946147
vt 0.100286 0.946513
vt 0.281192 0.763383
vt 0.052126 0.942662
vt 0.229141 0.358592
vt 0.005651 0.844522
vt 0.226371 0.432093
vt 0.218493 0.490069
vt 0.010613 0.900313
vt 0.487979 0.756008
vt 0.025411 0.491787
vt 0.739686 0.509501
vt 0.012652 0.433995
vt 0.747717 0.450543
vt 0.007055 0.360568
vt 0.750677 0.376978
vt 0.514408 0.377579
vt 0.528569 0.383126
vt 0.516072 0.450937
vt 0.533976 0.456460
vt 0.511679 0.508895
vt 0.546584 0.514847
vt 0.203876 0.907084
vt 0.302753 0.464552
vt 0.219569 0.852017
vt 0.292739 0.391728
vt 0.231813 0.786308
vt 0.754041 0.749139
vt 0.327353 0.086618
vt 0.378663 0.080585
vt 0.433699 0.079830
vt 0.323872 0.149618
vt 0.380247 0.145387
vt 0.440494 0.142174
vt 0.325816 0.225693
vt 0.384481 0.222133
vt 0.447037 0.217955
vt 0.516072 0.072571
vt 0.582328 0.079468
vt 0.633910 0.073985
vt 0.688884 0.076519
vt 0.574881 0.139840
vt 0.631405 0.136156
vt 0.691734 0.136606
vt 0.572028 0.214709
vt 0.630793 0.211721
vt 0.693488 0.211347
vt 0.060030 0.057314
vt 0.111596 0.053825
vt 0.166576 0.056366
vt 0.052737 0.119617
vt 0.109248 0.118170
vt 0.169578 0.118577
vt 0.050075 0.195554
vt 0.108830 0.194892
vt 0.171524 0.194473
vt 0.564481 0.783202
vt 0.249283 0.055790
vt 0.615244 0.795994
vt 0.670229 0.797452
vt 0.560950 0.829477
vt 0.086853 0.558617
vt 0.262986 0.117927
vt 0.616729 0.845104
vt 0.144028 0.554788
vt 0.676916 0.845104
vt 0.203803 0.562715
vt 0.074874 0.621738
vt 0.268494 0.193798
vt 0.134210 0.618510
vt 0.196435 0.625997
vt 0.051471 0.360211
vt 0.110228 0.359775
vt 0.172920 0.359130
vt 0.055406 0.434429
vt 0.111932 0.434787
vt 0.172247 0.433389
vt 0.453048 0.794033
vt 0.063738 0.494690
vt 0.115354 0.497101
vt 0.170284 0.493741
vt 0.574383 0.684854
vt 0.582141 0.635524
vt 0.596869 0.597149
vt 0.701308 0.013456
vt 0.625664 0.689194
vt 0.636787 0.637422
vt 0.647769 0.005651
vt 0.649358 0.596777
vt 0.679478 0.699017
vt 0.692881 0.650447
vt 0.441444 0.005651
vt 0.701964 0.611311
vt 0.288838 0.648398
vt 0.157854 0.990135
vt 0.336729 0.628642
vt 0.389970 0.616431
vt 0.298556 0.699284
vt 0.103445 0.994349
vt 0.349759 0.681318
vt 0.405121 0.665599
vt 0.317517 0.750511
vt 0.051868 0.986421
vt 0.366948 0.736241
vt 0.418649 0.718544
vt 0.337159 0.389902
vt 0.395839 0.386567
vt 0.458380 0.382164
vt 0.256394 0.878288
vt 0.345558 0.463573
vt 0.402058 0.461142
vt 0.462180 0.456129
vt 0.357482 0.522803
vt 0.235859 0.932711
vt 0.409199 0.522654
vt 0.463828 0.516015
vt 0.573003 0.378266
vt 0.631770 0.375501
vt 0.694464 0.374903
vt 0.576746 0.452547
vt 0.633281 0.450656
vt 0.693599 0.449313
vt 0.584919 0.513920
vt 0.636537 0.514298
vt 0.691476 0.510970
vt 0.055502 0.764614
vt 0.269890 0.358456
vt 0.114812 0.761582
vt 0.177063 0.768873
vt 0.049815 0.831784
vt 0.265655 0.432739
vt 0.106778 0.829522
vt 0.166765 0.835882
vt 0.049854 0.891427
vt 0.101591 0.891312
vt 0.156499 0.895163
s 1
usemtl Cube.1407_BAKED
f 73/128/1 74/129/2 77/132/3 76/131/4
f 74/129/2 75/130/5 78/133/6 77/132/3
f 76/131/4 77/132/3 80/135/7 79/134/8
f 77/132/3 78/133/6 81/136/9 80/135/7
f 2/3/10 16/31/11 73/127/1 15/29/12
f 16/30/11 17/32/13 74/129/2 73/128/1
f 17/32/13 18/34/14 75/130/5 74/129/2
f 18/34/14 4/6/15 19/36/16 75/130/5
f 75/130/5 19/36/16 20/38/17 78/133/6
f 78/133/6 20/38/17 21/40/18 81/136/9
f 81/136/9 21/40/18 3/4/19 22/42/20
f 80/135/7 81/136/9 22/42/20 23/43/21
f 79/134/8 80/135/7 23/43/21 24/44/22
f 13/23/23 79/134/8 24/44/22 1/1/24
f 14/25/25 76/131/4 79/134/8 13/23/23
f 15/28/12 73/128/1 76/131/4 14/25/25
f 82/138/26 83/139/27 86/142/28 85/141/29
f 83/139/27 84/140/30 87/143/31 86/142/28
f 85/141/29 86/142/28 89/145/32 88/144/33
f 86/142/28 87/143/31 90/146/34 89/145/32
f 4/6/15 25/47/35 82/137/26 19/36/16
f 25/45/35 26/48/36 83/139/27 82/138/26
f 26/48/36 27/50/37 84/140/30 83/139/27
f 27/50/37 8/13/38 28/51/39 84/140/30
f 84/140/30 28/51/39 29/53/40 87/143/31
f 87/143/31 29/53/40 30/55/41 90/146/34
f 90/146/34 30/55/41 7/11/42 31/57/43
f 89/145/32 90/146/34 31/57/43 32/58/44
f 88/144/33 89/145/32 32/58/44 33/59/45
f 21/41/18 88/144/33 33/59/45 3/5/19
f 20/39/17 85/141/29 88/144/33 21/41/18
f 19/37/16 82/138/26 85/141/29 20/39/17
f 91/147/46 92/148/47 95/151/48 94/150/49
f 92/148/47 93/149/50 96/152/51 95/151/48
f 94/150/49 95/151/48 98/154/52 97/153/53
f 95/151/48 96/152/51 99/155/54 98/154/52
f 8/12/38 34/60/55 91/147/46 28/52/39
f 34/60/55 35/63/56 92/148/47 91/147/46
f 35/63/56 36/65/57 93/149/50 92/148/47
f 36/65/57 6/8/58 37/68/59 93/149/50
f 93/149/50 37/68/59 38/69/60 96/152/51
f 96/152/51 38/69/60 39/70/61 99/155/54
f 99/155/54 39/70/61 5/7/62 40/71/63
f 98/154/52 99/155/54 40/71/63 41/72/64
f 97/153/53 98/154/52 41/72/64 42/73/65
f 30/56/41 97/153/53 42/73/65 7/10/42
f 29/54/40 94/150/49 97/153/53 30/56/41
f 28/52/39 91/147/46 94/150/49 29/54/40
f 100/156/66 101/158/67 104/163/68 103/160/69
f 101/158/67 102/159/70 105/165/71 104/163/68
f 103/161/69 104/164/68 107/169/72 106/167/73
f 104/164/68 105/166/71 108/170/74 107/169/72
f 6/9/58 43/74/75 100/156/66 37/67/59
f 43/74/75 44/75/76 101/158/67 100/156/66
f 44/75/76 45/76/77 102/159/70 101/158/67
f 45/76/77 2/3/10 15/29/12 102/159/70
f 102/159/70 15/29/12 14/26/25 105/165/71
f 105/166/71 14/27/25 13/24/23 108/170/74
f 108/170/74 13/24/23 1/2/24 46/77/78
f 107/169/72 108/170/74 46/77/78 47/78/79
f 106/167/73 107/169/72 47/78/79 48/80/80
f 39/70/61 106/168/73 48/79/80 5/7/62
f 38/69/60 103/162/69 106/168/73 39/70/61
f 37/68/59 100/157/66 103/162/69 38/69/60
f 109/171/81 110/172/82 113/175/83 112/174/84
f 110/172/82 111/173/85 114/176/86 113/175/83
f 112/174/84 113/175/83 116/179/87 115/178/88
f 113/175/83 114/176/86 117/180/89 116/179/87
f 7/10/42 42/73/65 109/171/81 66/114/90
f 42/73/65 41/72/64 110/172/82 109/171/81
f 41/72/64 40/71/63 111/173/85 110/172/82
f 40/71/63 5/7/62 61/104/91 111/173/85
f 111/173/85 61/104/91 62/106/92 114/176/86
f 114/176/86 62/106/92 63/107/93 117/180/89
f 117/180/89 63/107/93 12/20/94 55/94/95
f 116/179/87 117/180/89 55/94/95 56/96/96
f 115/178/88 116/179/87 56/96/96 57/98/97
f 64/109/98 115/177/88 57/99/97 11/18/99
f 65/112/100 112/174/84 115/178/88 64/110/98
f 66/114/90 109/171/81 112/174/84 65/112/100
f 118/181/101 119/182/102 122/186/103 121/185/104
f 119/182/102 120/183/105 123/188/106 122/186/103
f 121/185/104 122/186/103 125/190/107 124/189/108
f 122/186/103 123/188/106 126/192/109 125/190/107
f 6/9/58 36/66/57 118/181/101 43/74/75
f 36/66/57 35/64/56 119/182/102 118/181/101
f 35/64/56 34/61/55 120/183/105 119/182/102
f 34/62/55 8/13/38 27/50/37 120/184/105
f 120/184/105 27/50/37 26/48/36 123/187/106
f 123/188/106 26/49/36 25/46/35 126/192/109
f 126/191/109 25/47/35 4/6/15 18/34/14
f 125/190/107 126/192/109 18/35/14 17/33/13
f 124/189/108 125/190/107 17/33/13 16/31/11
f 45/76/77 124/189/108 16/31/11 2/3/10
f 44/75/76 121/185/104 124/189/108 45/76/77
f 43/74/75 118/181/101 121/185/104 44/75/76
f 127/193/110 128/195/111 131/199/112 130/197/113
f 128/195/111 129/196/114 132/200/115 131/199/112
f 130/197/113 131/199/112 134/203/116 133/201/117
f 131/199/112 132/200/115 135/204/118 134/203/116
f 10/17/119 51/87/120 127/194/110 58/100/121
f 51/85/120 50/83/122 128/195/111 127/193/110
f 50/83/122 49/81/123 129/196/114 128/195/111
f 49/81/123 9/14/124 54/92/125 129/196/114
f 129/196/114 54/92/125 53/90/126 132/200/115
f 132/200/115 53/90/126 52/88/127 135/204/118
f 135/204/118 52/88/127 11/18/99 57/99/97
f 134/203/116 135/204/118 57/99/97 56/97/96
f 133/201/117 134/203/116 56/97/96 55/95/95
f 60/102/128 133/201/117 55/95/95 12/21/94
f 59/101/129 130/198/113 133/202/117 60/103/128
f 58/100/121 127/194/110 130/198/113 59/101/129
f 136/205/130 137/206/131 140/210/132 139/209/133
f 137/206/131 138/207/134 141/211/135 140/210/132
f 139/209/133 140/210/132 143/214/136 142/212/137
f 140/210/132 141/211/135 144/215/138 143/214/136
f 1/1/24 24/44/22 136/205/130 72/125/139
f 24/44/22 23/43/21 137/206/131 136/205/130
f 23/43/21 22/42/20 138/207/134 137/206/131
f 22/42/20 3/4/19 67/116/140 138/207/134
f 138/207/134 67/116/140 68/118/141 141/211/135
f 141/211/135 68/118/141 69/120/142 144/215/138
f 144/215/138 69/120/142 9/15/124 49/82/123
f 143/214/136 144/215/138 49/82/123 50/84/122
f 142/212/137 143/214/136 50/84/122 51/86/120
f 70/122/143 142/213/137 51/87/120 10/17/119
f 71/124/144 139/208/133 142/213/137 70/122/143
f 72/125/139 136/205/130 139/209/133 71/123/144
f 145/216/145 146/217/146 149/220/147 148/219/148
f 146/217/146 147/218/149 150/221/150 149/220/147
f 148/219/148 149/220/147 152/223/151 151/222/152
f 149/220/147 150/221/150 153/224/153 152/223/151
f 3/5/19 33/59/45 145/216/145 67/117/140
f 33/59/45 32/58/44 146/217/146 145/216/145
f 32/58/44 31/57/43 147/218/149 146/217/146
f 31/57/43 7/11/42 66/115/90 147/218/149
f 147/218/149 66/115/90 65/113/100 150/221/150
f 150/221/150 65/113/100 64/111/98 153/224/153
f 153/224/153 64/111/98 11/19/99 52/89/127
f 152/223/151 153/224/153 52/89/127 53/91/126
f 151/222/152 152/223/151 53/91/126 54/93/125
f 69/121/142 151/222/152 54/93/125 9/16/124
f 68/119/141 148/219/148 151/222/152 69/121/142
f 67/117/140 145/216/145 148/219/148 68/119/141
f 154/225/154 155/227/155 158/231/156 157/229/157
f 155/227/155 156/228/158 159/232/159 158/231/156
f 157/229/157 158/231/156 161/234/160 160/233/161
f 158/231/156 159/232/159 162/235/162 161/234/160
f 5/7/62 48/79/80 154/226/154 61/104/91
f 48/80/80 47/78/79 155/227/155 154/225/154
f 47/78/79 46/77/78 156/228/158 155/227/155
f 46/77/78 1/2/24 72/126/139 156/228/158
f 156/228/158 72/126/139 71/124/144 159/232/159
f 159/232/159 71/124/144 70/122/143 162/235/162
f 162/235/162 70/122/143 10/17/119 58/100/121
f 161/234/160 162/235/162 58/100/121 59/101/129
f 160/233/161 161/234/160 59/101/129 60/103/128
f 63/108/93 160/233/161 60/103/128 12/22/94
f 62/105/92 157/229/157 160/233/161 63/108/93
f 61/104/91 154/226/154 157/230/157 62/106/92
