# Blender 3.5.1
# www.blender.org
mtllib Cylinder_059.mtl
o Cylinder.059
v 5.615258 2.411783 2.074833
v 5.576623 2.411783 2.074833
v 5.615258 2.397900 2.126647
v 5.576623 2.397900 2.126647
v 5.615258 2.359969 2.164577
v 5.576623 2.359969 2.164577
v 5.615258 2.308156 2.178460
v 5.576623 2.308156 2.178460
v 5.615258 2.256342 2.164577
v 5.576623 2.256342 2.164577
v 5.615258 2.218411 2.126647
v 5.576623 2.218411 2.126647
v 5.615258 2.204528 2.074833
v 5.576623 2.204528 2.074833
v 5.615258 2.218411 2.023019
v 5.576623 2.218411 2.023019
v 5.615258 2.256342 1.985089
v 5.576623 2.256342 1.985089
v 5.615258 2.308156 1.971205
v 5.576623 2.308156 1.971205
v 5.615258 2.359969 1.985089
v 5.576623 2.359969 1.985089
v 5.615258 2.397900 2.023019
v 5.576623 2.397900 2.023019
v 5.615258 2.367669 2.074833
v 5.615258 2.359696 2.104589
v 5.615258 2.337912 2.126373
v 5.615258 2.308156 2.134346
v 5.615258 2.278399 2.126373
v 5.615258 2.256615 2.104589
v 5.615258 2.248642 2.074833
v 5.615258 2.256615 2.045076
v 5.615258 2.278399 2.023293
v 5.615258 2.308156 2.015319
v 5.615258 2.337912 2.023293
v 5.615258 2.359696 2.045076
v 5.589971 2.367669 2.074833
v 5.589971 2.359696 2.104589
v 5.589971 2.337912 2.126373
v 5.589971 2.308156 2.134346
v 5.589971 2.278399 2.126373
v 5.589971 2.256615 2.104589
v 5.589971 2.248642 2.074833
v 5.589971 2.256615 2.045076
v 5.589971 2.278399 2.023293
v 5.589971 2.308156 2.015319
v 5.589971 2.337912 2.023293
v 5.589971 2.359696 2.045076
vn -0.0000 0.9659 0.2588
vn -0.0000 0.7071 0.7071
vn -0.0000 0.2588 0.9659
vn -0.0000 -0.2588 0.9659
vn -0.0000 -0.7071 0.7071
vn -0.0000 -0.9659 0.2588
vn -0.0000 -0.9659 -0.2588
vn -0.0000 -0.7071 -0.7071
vn -0.0000 -0.2588 -0.9659
vn -0.0000 0.2588 -0.9659
vn -1.0000 -0.0000 -0.0000
vn -0.0000 0.9659 -0.2588
vn -0.0000 0.7071 -0.7071
vn 1.0000 -0.0000 -0.0000
vt 0.082125 0.343614
vt 0.007864 0.125000
vt 0.343614 0.125000
vt 0.082125 0.674923
vt 0.007864 0.343614
vt 0.492136 0.343614
vt 0.050739 0.050739
vt 0.007864 0.674923
vt 0.492136 0.674923
vt 0.343614 0.210749
vt 0.417875 0.343614
vt 0.125000 0.007864
vt 0.417875 0.674923
vt 0.386488 0.285010
vt 0.332125 0.343614
vt 0.210749 0.007864
vt 0.332125 0.674923
vt 0.460749 0.327885
vt 0.257864 0.343614
vt 0.742136 0.343614
vt 0.285010 0.050739
vt 0.257864 0.674923
vt 0.742136 0.674923
vt 0.546498 0.327885
vt 0.667875 0.343614
vt 0.327885 0.125000
vt 0.667875 0.674923
vt 0.620759 0.285010
vt 0.582125 0.343614
vt 0.327885 0.210749
vt 0.582125 0.674923
vt 0.663634 0.210749
vt 0.507864 0.343614
vt 0.992136 0.343614
vt 0.285010 0.285010
vt 0.507864 0.674923
vt 0.992136 0.674923
vt 0.663634 0.125000
vt 0.917875 0.343614
vt 0.210749 0.327885
vt 0.917875 0.674923
vt 0.620759 0.050739
vt 0.832125 0.343614
vt 0.125000 0.327885
vt 0.832125 0.674923
vt 0.546498 0.007864
vt 0.757864 0.343614
vt 0.242136 0.343614
vt 0.050739 0.285010
vt 0.757864 0.674923
vt 0.460749 0.007864
vt 0.242136 0.674923
vt 0.167875 0.343614
vt 0.007864 0.210749
vt 0.386488 0.050739
vt 0.167875 0.674923
vt 0.075981 0.143252
vt 0.099759 0.690652
vt 0.100603 0.100603
vt 0.308406 0.690652
vt 0.142407 0.690652
vt 0.143252 0.075980
vt 0.351055 0.690652
vt 0.192498 0.075980
vt 0.400301 0.690652
vt 0.235146 0.100603
vt 0.158135 0.690652
vt 0.442949 0.690652
vt 0.259769 0.143252
vt 0.200784 0.690652
vt 0.259769 0.192498
vt 0.250030 0.690652
vt 0.458678 0.690652
vt 0.235146 0.235146
vt 0.292678 0.690652
vt 0.192498 0.259769
vt 0.501326 0.690652
vt 0.143252 0.259769
vt 0.550572 0.690652
vt 0.100603 0.235146
vt 0.593220 0.690652
vt 0.007864 0.690652
vt 0.075981 0.192498
vt 0.050513 0.690652
vt 0.679363 0.075136
vt 0.099759 0.907502
vt 0.703986 0.032487
vt 0.308406 0.907502
vt 0.142407 0.907502
vt 0.746634 0.007864
vt 0.351055 0.907502
vt 0.795880 0.007864
vt 0.400301 0.907502
vt 0.838528 0.032487
vt 0.158135 0.907502
vt 0.442949 0.907502
vt 0.863151 0.075135
vt 0.200784 0.907502
vt 0.863151 0.124381
vt 0.250030 0.907502
vt 0.458678 0.907502
vt 0.838528 0.167030
vt 0.292678 0.907502
vt 0.795880 0.191653
vt 0.501326 0.907502
vt 0.746634 0.191653
vt 0.550572 0.907502
vt 0.703986 0.167030
vt 0.593220 0.907502
vt 0.007864 0.907502
vt 0.679363 0.124381
vt 0.050513 0.907502
s 0
usemtl Cylinder.059_BAKED
f 1/1/1 2/4/1 4/8/1 3/5/1
f 3/6/2 4/9/2 6/13/2 5/11/2
f 5/11/3 6/13/3 8/17/3 7/15/3
f 7/15/4 8/17/4 10/22/4 9/19/4
f 9/20/5 10/23/5 12/27/5 11/25/5
f 11/25/6 12/27/6 14/31/6 13/29/6
f 13/29/7 14/31/7 16/36/7 15/33/7
f 15/34/8 16/37/8 18/41/8 17/39/8
f 17/39/9 18/41/9 20/45/9 19/43/9
f 19/43/10 20/45/10 22/50/10 21/47/10
f 4/10/11 2/3/11 24/55/11 22/51/11 20/46/11 18/42/11 16/38/11 14/32/11 12/28/11 10/24/11 8/18/11 6/14/11
f 23/53/12 24/56/12 2/4/12 1/1/12
f 21/48/13 22/52/13 24/56/13 23/53/13
f 11/26/14 13/30/14 31/71/14 30/69/14
f 32/73/2 33/77/2 45/105/2 44/101/2
f 9/21/14 11/26/14 30/69/14 29/66/14
f 7/16/14 9/21/14 29/66/14 28/64/14
f 23/54/14 1/2/14 25/57/14 36/83/14
f 1/2/14 3/7/14 26/59/14 25/57/14
f 5/12/14 7/16/14 28/64/14 27/62/14
f 21/49/14 23/54/14 36/83/14 35/80/14
f 3/7/14 5/12/14 27/62/14 26/59/14
f 19/44/14 21/49/14 35/80/14 34/78/14
f 17/40/14 19/44/14 34/78/14 33/76/14
f 15/35/14 17/40/14 33/76/14 32/74/14
f 13/30/14 15/35/14 32/74/14 31/71/14
f 29/67/13 30/70/13 42/98/13 41/95/13
f 36/84/6 25/58/6 37/86/6 48/112/6
f 26/60/8 27/63/8 39/91/8 38/88/8
f 33/77/3 34/79/3 46/107/3 45/105/3
f 30/70/12 31/72/12 43/100/12 42/98/12
f 27/63/9 28/65/9 40/93/9 39/91/9
f 34/79/4 35/81/4 47/109/4 46/107/4
f 31/72/1 32/75/1 44/103/1 43/100/1
f 28/65/10 29/68/10 41/96/10 40/93/10
f 35/82/5 36/84/5 48/112/5 47/110/5
f 25/58/7 26/61/7 38/89/7 37/86/7
usemtl Cylinder.059_BAKED
f 37/85/14 38/87/14 39/90/14 40/92/14 41/94/14 42/97/14 43/99/14 44/102/14 45/104/14 46/106/14 47/108/14 48/111/14
