# Blender 3.4.0
# www.blender.org
mtllib Cylinder_059.mtl
o Cylinder.059
v 5.615258 2.411783 2.074833
v 5.576623 2.411783 2.074833
v 5.615258 2.397900 2.126647
v 5.576623 2.397900 2.126647
v 5.615258 2.359969 2.164577
v 5.576623 2.359969 2.164577
v 5.615258 2.308156 2.178460
v 5.576623 2.308156 2.178460
v 5.615258 2.256342 2.164577
v 5.576623 2.256342 2.164577
v 5.615258 2.218411 2.126647
v 5.576623 2.218411 2.126647
v 5.615258 2.204528 2.074833
v 5.576623 2.204528 2.074833
v 5.615258 2.218411 2.023019
v 5.576623 2.218411 2.023019
v 5.615258 2.256342 1.985089
v 5.576623 2.256342 1.985089
v 5.615258 2.308156 1.971205
v 5.576623 2.308156 1.971205
v 5.615258 2.359969 1.985089
v 5.576623 2.359969 1.985089
v 5.615258 2.397900 2.023019
v 5.576623 2.397900 2.023019
v 5.615258 2.367669 2.074833
v 5.615258 2.359696 2.104589
v 5.615258 2.337912 2.126373
v 5.615258 2.308156 2.134346
v 5.615258 2.278399 2.126373
v 5.615258 2.256615 2.104589
v 5.615258 2.248642 2.074833
v 5.615258 2.256615 2.045076
v 5.615258 2.278399 2.023293
v 5.615258 2.308156 2.015319
v 5.615258 2.337912 2.023293
v 5.615258 2.359696 2.045076
v 5.589971 2.367669 2.074833
v 5.589971 2.359696 2.104589
v 5.589971 2.337912 2.126373
v 5.589971 2.308156 2.134346
v 5.589971 2.278399 2.126373
v 5.589971 2.256615 2.104589
v 5.589971 2.248642 2.074833
v 5.589971 2.256615 2.045076
v 5.589971 2.278399 2.023293
v 5.589971 2.308156 2.015319
v 5.589971 2.337912 2.023293
v 5.589971 2.359696 2.045076
vn -0.0000 0.9659 0.2588
vn -0.0000 0.7071 0.7071
vn -0.0000 0.2588 0.9659
vn -0.0000 -0.2588 0.9659
vn -0.0000 -0.7071 0.7071
vn -0.0000 -0.9659 0.2588
vn -0.0000 -0.9659 -0.2588
vn -0.0000 -0.7071 -0.7071
vn -0.0000 -0.2588 -0.9659
vn -0.0000 0.2588 -0.9659
vn -1.0000 -0.0000 -0.0000
vn -0.0000 0.9659 -0.2588
vn -0.0000 0.7071 -0.7071
vn 1.0000 -0.0000 -0.0000
s 0
usemtl white
f 1//1 2//1 4//1 3//1
f 3//2 4//2 6//2 5//2
f 5//3 6//3 8//3 7//3
f 7//4 8//4 10//4 9//4
f 9//5 10//5 12//5 11//5
f 11//6 12//6 14//6 13//6
f 13//7 14//7 16//7 15//7
f 15//8 16//8 18//8 17//8
f 17//9 18//9 20//9 19//9
f 19//10 20//10 22//10 21//10
f 4//11 2//11 24//11 22//11 20//11 18//11 16//11 14//11 12//11 10//11 8//11 6//11
f 23//12 24//12 2//12 1//12
f 21//13 22//13 24//13 23//13
f 11//14 13//14 31//14 30//14
f 32//2 33//2 45//2 44//2
f 9//14 11//14 30//14 29//14
f 7//14 9//14 29//14 28//14
f 23//14 1//14 25//14 36//14
f 1//14 3//14 26//14 25//14
f 5//14 7//14 28//14 27//14
f 21//14 23//14 36//14 35//14
f 3//14 5//14 27//14 26//14
f 19//14 21//14 35//14 34//14
f 17//14 19//14 34//14 33//14
f 15//14 17//14 33//14 32//14
f 13//14 15//14 32//14 31//14
f 29//13 30//13 42//13 41//13
f 36//6 25//6 37//6 48//6
f 26//8 27//8 39//8 38//8
f 33//3 34//3 46//3 45//3
f 30//12 31//12 43//12 42//12
f 27//9 28//9 40//9 39//9
f 34//4 35//4 47//4 46//4
f 31//1 32//1 44//1 43//1
f 28//10 29//10 41//10 40//10
f 35//5 36//5 48//5 47//5
f 25//7 26//7 38//7 37//7
usemtl brown
f 37//14 38//14 39//14 40//14 41//14 42//14 43//14 44//14 45//14 46//14 47//14 48//14
