# Blender 3.4.0
# www.blender.org
mtllib Cylinder_041.mtl
o Cylinder.041
v 4.357987 0.353982 0.525325
v 4.357987 1.248683 0.525325
v 4.581662 0.353982 0.585259
v 4.581662 1.248683 0.585259
v 4.745404 0.353982 0.749001
v 4.745404 1.248683 0.749001
v 4.805337 0.353982 0.972676
v 4.805337 1.248683 0.972676
v 4.745404 0.353982 1.196351
v 4.745404 1.248683 1.196351
v 4.581662 0.353982 1.360093
v 4.581662 1.248683 1.360093
v 4.357987 0.353982 1.420026
v 4.357987 1.248683 1.420026
v 4.134312 0.353982 1.360093
v 4.134312 1.248683 1.360093
v 3.970570 0.353982 1.196351
v 3.970570 1.248683 1.196351
v 3.910636 0.353982 0.972676
v 3.910636 1.248683 0.972676
v 3.970570 0.353982 0.749001
v 3.970570 1.248683 0.749001
v 4.134312 0.353982 0.585259
v 4.134312 1.248683 0.585259
v 4.357987 0.353982 0.834494
v 4.427078 0.353982 0.853007
v 4.477656 0.353982 0.903585
v 4.496169 0.353982 0.972676
v 4.477656 0.353982 1.041767
v 4.427078 0.353982 1.092345
v 4.357987 0.353982 1.110858
v 4.288896 0.353982 1.092345
v 4.238318 0.353982 1.041767
v 4.219805 0.353982 0.972676
v 4.238318 0.353982 0.903585
v 4.288896 0.353982 0.853007
v 4.357987 0.316653 0.834494
v 4.427078 0.316653 0.853007
v 4.477656 0.316653 0.903585
v 4.496169 0.316653 0.972676
v 4.477656 0.316653 1.041767
v 4.427078 0.316653 1.092345
v 4.357987 0.316653 1.110858
v 4.288896 0.316653 1.092345
v 4.238318 0.316653 1.041767
v 4.219805 0.316653 0.972676
v 4.238318 0.316653 0.903585
v 4.288896 0.316653 0.853007
v 4.357987 0.307049 0.885223
v 4.401713 0.307049 0.896939
v 4.433724 0.307049 0.928949
v 4.445440 0.307049 0.972676
v 4.433724 0.307049 1.016403
v 4.401713 0.307049 1.048413
v 4.357987 0.307049 1.060129
v 4.314260 0.307049 1.048413
v 4.282250 0.307049 1.016403
v 4.270534 0.307049 0.972676
v 4.282250 0.307049 0.928949
v 4.314260 0.307049 0.896939
v 4.357987 0.044989 0.885223
v 4.401713 0.044989 0.896939
v 4.433724 0.044989 0.928949
v 4.445440 0.044989 0.972676
v 4.433724 0.044989 1.016403
v 4.401713 0.044989 1.048413
v 4.357987 0.044989 1.060129
v 4.314260 0.044989 1.048413
v 4.282250 0.044989 1.016403
v 4.270534 0.044989 0.972676
v 4.282250 0.044989 0.928949
v 4.314260 0.044989 0.896939
v 4.357987 0.480224 0.525325
v 4.581662 0.480224 0.585259
v 4.745404 0.480224 0.749001
v 4.805337 0.480224 0.972676
v 4.745404 0.480224 1.196351
v 4.581662 0.480224 1.360093
v 4.357987 0.480224 1.420026
v 4.134312 0.480224 1.360093
v 3.970570 0.480224 1.196351
v 3.910636 0.480224 0.972676
v 3.970570 0.480224 0.749001
v 4.134312 0.480224 0.585259
v 4.357987 0.738959 0.525325
v 4.581662 0.738959 0.585259
v 4.745404 0.738959 0.749001
v 4.805337 0.738959 0.972676
v 4.745404 0.738959 1.196351
v 4.581662 0.738959 1.360093
v 4.357987 0.738959 1.420026
v 4.134312 0.738959 1.360093
v 3.970570 0.738959 1.196351
v 3.910636 0.738959 0.972676
v 3.970570 0.738959 0.749001
v 4.134312 0.738959 0.585259
v 4.357987 1.045851 0.525325
v 4.581662 1.045851 0.585259
v 4.745404 1.045851 0.749001
v 4.805337 1.045851 0.972676
v 4.745404 1.045851 1.196351
v 4.581662 1.045851 1.360093
v 4.357987 1.045851 1.420026
v 4.134312 1.045851 1.360093
v 3.970570 1.045851 1.196351
v 3.910636 1.045851 0.972676
v 3.970570 1.045851 0.749001
v 4.134312 1.045851 0.585259
v 4.581662 1.045851 0.585259
v 4.597705 0.738959 0.557473
v 4.745404 1.045851 0.749001
v 4.773190 0.738959 0.732958
v 4.805337 1.045851 0.972676
v 4.837422 0.738959 0.972676
v 4.745404 1.045851 1.196351
v 4.773190 0.738959 1.212394
v 4.581662 1.045851 1.360093
v 4.597705 0.738959 1.387879
v 4.357987 1.045851 1.420026
v 4.357987 0.738959 1.452111
v 4.134312 1.045851 1.360093
v 4.118269 0.738959 1.387879
v 3.970570 1.045851 1.196351
v 3.942784 0.738959 1.212394
v 3.910636 1.045851 0.972676
v 3.878551 0.738959 0.972676
v 3.970570 1.045851 0.749001
v 3.942783 0.738959 0.732958
v 4.134312 1.045851 0.585259
v 4.118269 0.738959 0.557473
v 4.357987 0.738959 0.493240
v 4.357987 1.045851 0.525325
v 4.617777 1.045851 0.522707
v 4.617777 0.738959 0.522707
v 4.807956 1.045851 0.712886
v 4.807956 0.738959 0.712886
v 4.877567 1.045851 0.972676
v 4.877567 0.738959 0.972676
v 4.807956 1.045851 1.232466
v 4.807956 0.738959 1.232466
v 4.617777 1.045851 1.422645
v 4.617777 0.738959 1.422645
v 4.357987 1.045851 1.492256
v 4.357987 0.738959 1.492256
v 4.098197 1.045851 1.422645
v 4.098197 0.738959 1.422645
v 3.908018 1.045851 1.232466
v 3.908018 0.738959 1.232466
v 3.838407 1.045851 0.972676
v 3.838407 0.738959 0.972676
v 3.908017 1.045851 0.712886
v 3.908017 0.738959 0.712886
v 4.098197 1.045851 0.522707
v 4.098197 0.738959 0.522707
v 4.357987 0.738959 0.453096
v 4.357987 1.045851 0.453096
v 4.357987 0.353982 0.547788
v 4.145543 0.353982 0.604712
v 4.570431 0.353982 0.604712
v 4.782875 0.353982 0.972676
v 4.725951 0.353982 0.760232
v 3.990023 0.353982 0.760232
v 3.933099 0.353982 0.972676
v 3.990023 0.353982 1.185120
v 4.145543 0.353982 1.340640
v 4.357987 0.353982 1.397564
v 4.570431 0.353982 1.340640
v 4.725951 0.353982 1.185120
v 4.357987 0.353982 0.611891
v 4.538380 0.353982 0.660227
v 4.718772 0.353982 0.972676
v 4.177594 0.353982 0.660227
v 4.670436 0.353982 0.792283
v 4.045538 0.353982 0.792284
v 3.997202 0.353982 0.972676
v 4.045538 0.353982 1.153069
v 4.177595 0.353982 1.285125
v 4.357987 0.353982 1.333461
v 4.538380 0.353982 1.285125
v 4.670436 0.353982 1.153069
v 4.177594 0.330149 0.660227
v 4.145543 0.330149 0.604712
v 4.670436 0.330149 0.792283
v 4.725951 0.330149 0.760232
v 4.045538 0.330149 0.792284
v 3.990023 0.330149 0.760232
v 3.997202 0.330149 0.972676
v 3.933099 0.330149 0.972676
v 4.045538 0.330149 1.153069
v 3.990023 0.330149 1.185120
v 4.177595 0.330149 1.285125
v 4.145543 0.330149 1.340640
v 4.357987 0.330149 1.333461
v 4.357987 0.330149 1.397564
v 4.538380 0.330149 1.285125
v 4.570431 0.330149 1.340640
v 4.670436 0.330149 1.153069
v 4.725951 0.330149 1.185120
v 4.782875 0.330149 0.972676
v 4.570431 0.330149 0.604712
v 4.357987 0.330149 0.547788
v 4.357987 0.330149 0.611891
v 4.538380 0.330149 0.660227
v 4.718772 0.330149 0.972676
v 4.148604 0.320012 0.610014
v 4.720649 0.320012 0.763293
v 3.995325 0.320012 0.763293
v 3.939221 0.320012 0.972676
v 3.995325 0.320012 1.182059
v 4.148604 0.320012 1.335338
v 4.357987 0.320012 1.391442
v 4.567370 0.320012 1.335338
v 4.720649 0.320012 1.182059
v 4.357987 0.320012 0.553910
v 4.567370 0.320012 0.610014
v 4.776752 0.320012 0.972676
v 4.357987 0.320012 0.604501
v 4.542074 0.320012 0.653827
v 4.726162 0.320012 0.972676
v 4.173899 0.320012 0.653827
v 4.676836 0.320012 0.788589
v 4.039138 0.320012 0.788589
v 3.989812 0.320012 0.972676
v 4.039138 0.320012 1.156763
v 4.173900 0.320012 1.291525
v 4.357987 0.320012 1.340851
v 4.542074 0.320012 1.291525
v 4.676836 0.320012 1.156763
v 4.357987 0.353982 0.796521
v 4.446064 0.353982 0.820121
v 4.534142 0.353982 0.972676
v 4.269909 0.353982 0.820121
v 4.510542 0.353982 0.884598
v 4.205432 0.353982 0.884598
v 4.181831 0.353982 0.972676
v 4.205432 0.353982 1.060754
v 4.269909 0.353982 1.125231
v 4.357987 0.353982 1.148831
v 4.446064 0.353982 1.125231
v 4.510542 0.353982 1.060754
v 4.196341 0.353982 0.692697
v 4.637966 0.353982 0.811030
v 4.078008 0.353982 0.811030
v 4.034696 0.353982 0.972676
v 4.078008 0.353982 1.134322
v 4.196341 0.353982 1.252655
v 4.357987 0.353982 1.295967
v 4.519633 0.353982 1.252655
v 4.637966 0.353982 1.134322
v 4.357987 0.353982 0.649384
v 4.519633 0.353982 0.692697
v 4.681278 0.353982 0.972676
v 4.357987 0.303705 0.649384
v 4.357987 0.303705 0.796521
v 4.519633 0.303705 0.692697
v 4.446064 0.303705 0.820121
v 4.681278 0.303705 0.972676
v 4.534142 0.303705 0.972676
v 4.510542 0.303705 1.060754
v 4.446064 0.303705 1.125231
v 4.357987 0.303705 1.148831
v 4.269909 0.303705 1.125231
v 4.205432 0.303705 1.060754
v 4.181831 0.303705 0.972676
v 4.205432 0.303705 0.884598
v 4.510542 0.303705 0.884598
v 4.269909 0.303705 0.820121
v 4.196341 0.303705 0.692697
v 4.637966 0.303705 0.811030
v 4.078008 0.303705 0.811030
v 4.034696 0.303705 0.972676
v 4.078008 0.303705 1.134322
v 4.196341 0.303705 1.252655
v 4.357987 0.303705 1.295967
v 4.519633 0.303705 1.252655
v 4.637966 0.303705 1.134322
v 4.357987 0.296064 0.664707
v 4.511971 0.296064 0.705967
v 4.665956 0.296064 0.972676
v 4.204002 0.296064 0.705967
v 4.624696 0.296064 0.818691
v 4.091278 0.296064 0.818692
v 4.050018 0.296064 0.972676
v 4.091278 0.296064 1.126661
v 4.204002 0.296064 1.239385
v 4.357987 0.296064 1.280645
v 4.511971 0.296064 1.239385
v 4.624696 0.296064 1.126660
v 4.357987 0.296064 0.772632
v 4.458009 0.296064 0.799433
v 4.558031 0.296064 0.972676
v 4.257965 0.296064 0.799433
v 4.531230 0.296064 0.872654
v 4.184743 0.296064 0.872654
v 4.157943 0.296064 0.972676
v 4.184743 0.296064 1.072698
v 4.257965 0.296064 1.145919
v 4.357987 0.296064 1.172720
v 4.458009 0.296064 1.145919
v 4.531230 0.296064 1.072698
vn 0.2588 -0.0000 -0.9659
vn 0.7071 -0.0000 -0.7071
vn 0.9659 -0.0000 -0.2588
vn 0.9659 -0.0000 0.2588
vn 0.7071 -0.0000 0.7071
vn 0.2588 -0.0000 0.9659
vn -0.2588 -0.0000 0.9659
vn -0.7071 -0.0000 0.7071
vn -0.9659 -0.0000 0.2588
vn -0.9659 -0.0000 -0.2588
vn -0.0000 1.0000 -0.0000
vn -0.2588 -0.0000 -0.9659
vn -0.7071 -0.0000 -0.7071
vn -0.0000 -1.0000 -0.0000
vn -0.1858 -0.9813 0.0498
vn 0.0498 -0.9813 0.1858
vn 0.1858 -0.9813 -0.0498
vn -0.1858 -0.9813 -0.0498
vn -0.0498 -0.9813 0.1858
vn 0.1858 -0.9813 0.0498
vn -0.1360 -0.9813 -0.1360
vn 0.0498 -0.9813 -0.1858
vn -0.1360 -0.9813 0.1360
vn 0.1360 -0.9813 0.1360
vn -0.0498 -0.9813 -0.1858
vn 0.1360 -0.9813 -0.1360
vn -0.7898 -0.5757 -0.2116
vn -0.5782 -0.5757 -0.5782
vn -0.2116 -0.5757 -0.7898
vn 0.2116 -0.5757 -0.7898
vn 0.5782 -0.5757 -0.5782
vn 0.7898 -0.5757 -0.2116
vn 0.7898 -0.5757 0.2116
vn -0.5782 -0.5757 0.5782
vn 0.5782 -0.5757 0.5782
vn -0.7898 -0.5757 0.2116
vn -0.2116 -0.5757 0.7898
vn 0.2116 -0.5757 0.7898
vn -0.2236 -0.5039 -0.8343
vn 0.2236 -0.5039 -0.8343
vn 0.8343 -0.5039 -0.2236
vn -0.6108 -0.5039 -0.6108
vn 0.6108 -0.5039 -0.6108
vn -0.8343 -0.5039 -0.2236
vn -0.8343 -0.5039 0.2236
vn -0.6108 -0.5039 0.6108
vn -0.2236 -0.5039 0.8343
vn 0.2236 -0.5039 0.8343
vn 0.6108 -0.5039 0.6108
vn 0.8343 -0.5039 0.2236
vn -0.3036 -0.9493 -0.0814
vn -0.2223 -0.9493 -0.2223
vn -0.0814 -0.9493 -0.3036
vn 0.0814 -0.9493 -0.3036
vn 0.2223 -0.9493 -0.2223
vn 0.3036 -0.9493 -0.0814
vn 0.3036 -0.9493 0.0814
vn -0.2223 -0.9493 0.2223
vn 0.2223 -0.9493 0.2223
vn -0.3036 -0.9493 0.0814
vn -0.0814 -0.9493 0.3036
vn 0.0814 -0.9493 0.3036
vn -0.1187 -0.8886 -0.4431
vn 0.1187 -0.8886 -0.4431
vn 0.4431 -0.8886 -0.1187
vn -0.3244 -0.8886 -0.3244
vn 0.3244 -0.8886 -0.3244
vn -0.4431 -0.8886 -0.1187
vn -0.4431 -0.8886 0.1187
vn -0.3244 -0.8886 0.3244
vn -0.1187 -0.8886 0.4431
vn 0.1187 -0.8886 0.4431
vn 0.3244 -0.8886 0.3244
vn 0.4431 -0.8886 0.1187
s 0
usemtl blue
f 97//1 2//1 4//1 98//1
f 98//2 4//2 6//2 99//2
f 99//3 6//3 8//3 100//3
f 100//4 8//4 10//4 101//4
f 101//5 10//5 12//5 102//5
f 102//6 12//6 14//6 103//6
f 103//7 14//7 16//7 104//7
f 104//8 16//8 18//8 105//8
f 105//9 18//9 20//9 106//9
f 106//10 20//10 22//10 107//10
f 4//11 2//11 24//11 22//11 20//11 18//11 16//11 14//11 12//11 10//11 8//11 6//11
f 108//12 24//12 2//12 97//12
f 107//13 22//13 24//13 108//13
f 232//14 229//14 25//14 36//14
f 30//6 31//6 43//6 42//6
f 229//14 230//14 26//14 25//14
f 233//14 231//14 28//14 27//14
f 234//14 232//14 36//14 35//14
f 230//14 233//14 27//14 26//14
f 235//14 234//14 35//14 34//14
f 236//14 235//14 34//14 33//14
f 237//14 236//14 33//14 32//14
f 238//14 237//14 32//14 31//14
f 239//14 238//14 31//14 30//14
f 240//14 239//14 30//14 29//14
f 231//14 240//14 29//14 28//14
f 45//15 46//15 58//15 57//15
f 27//3 28//3 40//3 39//3
f 34//10 35//10 47//10 46//10
f 31//7 32//7 44//7 43//7
f 28//4 29//4 41//4 40//4
f 35//13 36//13 48//13 47//13
f 25//1 26//1 38//1 37//1
f 32//8 33//8 45//8 44//8
f 29//5 30//5 42//5 41//5
f 36//12 25//12 37//12 48//12
f 26//2 27//2 39//2 38//2
f 33//9 34//9 46//9 45//9
f 50//2 51//2 63//2 62//2
f 42//16 43//16 55//16 54//16
f 39//17 40//17 52//17 51//17
f 46//18 47//18 59//18 58//18
f 43//19 44//19 56//19 55//19
f 40//20 41//20 53//20 52//20
f 47//21 48//21 60//21 59//21
f 37//22 38//22 50//22 49//22
f 44//23 45//23 57//23 56//23
f 41//24 42//24 54//24 53//24
f 48//25 37//25 49//25 60//25
f 38//26 39//26 51//26 50//26
f 61//14 62//14 63//14 64//14 65//14 66//14 67//14 68//14 69//14 70//14 71//14 72//14
f 57//9 58//9 70//9 69//9
f 54//6 55//6 67//6 66//6
f 51//3 52//3 64//3 63//3
f 58//10 59//10 71//10 70//10
f 55//7 56//7 68//7 67//7
f 52//4 53//4 65//4 64//4
f 59//13 60//13 72//13 71//13
f 49//1 50//1 62//1 61//1
f 56//8 57//8 69//8 68//8
f 53//5 54//5 66//5 65//5
f 60//12 49//12 61//12 72//12
f 21//13 83//13 84//13 23//13
f 23//12 84//12 73//12 1//12
f 19//10 82//10 83//10 21//10
f 17//9 81//9 82//9 19//9
f 15//8 80//8 81//8 17//8
f 13//7 79//7 80//7 15//7
f 11//6 78//6 79//6 13//6
f 9//5 77//5 78//5 11//5
f 7//4 76//4 77//4 9//4
f 5//3 75//3 76//3 7//3
f 3//2 74//2 75//2 5//2
f 1//1 73//1 74//1 3//1
f 83//13 95//13 96//13 84//13
f 84//12 96//12 85//12 73//12
f 82//10 94//10 95//10 83//10
f 81//9 93//9 94//9 82//9
f 80//8 92//8 93//8 81//8
f 79//7 91//7 92//7 80//7
f 78//6 90//6 91//6 79//6
f 77//5 89//5 90//5 78//5
f 76//4 88//4 89//4 77//4
f 75//3 87//3 88//3 76//3
f 74//2 86//2 87//2 75//2
f 73//1 85//1 86//1 74//1
f 97//11 98//11 109//11 132//11
f 92//14 91//14 120//14 122//14
f 105//11 106//11 125//11 123//11
f 98//11 99//11 111//11 109//11
f 93//14 92//14 122//14 124//14
f 106//11 107//11 127//11 125//11
f 86//14 85//14 131//14 110//14
f 99//11 100//11 113//11 111//11
f 94//14 93//14 124//14 126//14
f 108//11 97//11 132//11 129//11
f 87//14 86//14 110//14 112//14
f 100//11 101//11 115//11 113//11
f 121//11 123//11 147//11 145//11
f 128//14 126//14 150//14 152//14
f 132//11 109//11 133//11 156//11
f 114//14 112//14 136//14 138//14
f 123//11 125//11 149//11 147//11
f 131//14 130//14 154//14 155//14
f 109//11 111//11 135//11 133//11
f 116//14 114//14 138//14 140//14
f 125//11 127//11 151//11 149//11
f 130//14 128//14 152//14 154//14
f 111//11 113//11 137//11 135//11
f 118//14 116//14 140//14 142//14
f 104//11 105//11 123//11 121//11
f 91//14 90//14 118//14 120//14
f 103//11 104//11 121//11 119//11
f 90//14 89//14 116//14 118//14
f 96//14 95//14 128//14 130//14
f 102//11 103//11 119//11 117//11
f 89//14 88//14 114//14 116//14
f 85//14 96//14 130//14 131//14
f 101//11 102//11 117//11 115//11
f 88//14 87//14 112//14 114//14
f 107//11 108//11 129//11 127//11
f 95//14 94//14 126//14 128//14
f 152//13 151//13 153//13 154//13
f 154//12 153//12 156//12 155//12
f 150//10 149//10 151//10 152//10
f 148//9 147//9 149//9 150//9
f 146//8 145//8 147//8 148//8
f 144//7 143//7 145//7 146//7
f 142//6 141//6 143//6 144//6
f 140//5 139//5 141//5 142//5
f 138//4 137//4 139//4 140//4
f 136//3 135//3 137//3 138//3
f 134//2 133//2 135//2 136//2
f 155//1 156//1 133//1 134//1
f 112//14 110//14 134//14 136//14
f 126//14 124//14 148//14 150//14
f 119//11 121//11 145//11 143//11
f 110//14 131//14 155//14 134//14
f 124//14 122//14 146//14 148//14
f 117//11 119//11 143//11 141//11
f 122//14 120//14 144//14 146//14
f 115//11 117//11 141//11 139//11
f 127//11 129//11 153//11 151//11
f 120//14 118//14 142//14 144//14
f 113//11 115//11 139//11 137//11
f 129//11 132//11 156//11 153//11
f 7//14 9//14 168//14 160//14
f 9//14 11//14 167//14 168//14
f 11//14 13//14 166//14 167//14
f 13//14 15//14 165//14 166//14
f 15//14 17//14 164//14 165//14
f 17//14 19//14 163//14 164//14
f 19//14 21//14 162//14 163//14
f 3//14 5//14 161//14 159//14
f 21//14 23//14 158//14 162//14
f 5//14 7//14 160//14 161//14
f 1//14 3//14 159//14 157//14
f 23//14 1//14 157//14 158//14
f 157//1 159//1 200//1 201//1
f 172//5 174//5 185//5 181//5
f 167//6 166//6 194//6 196//6
f 180//10 171//10 204//10 197//10
f 161//3 160//3 199//3 184//3
f 173//8 170//8 203//8 183//8
f 168//5 167//5 196//5 198//5
f 162//13 158//13 182//13 186//13
f 174//4 175//4 187//4 185//4
f 160//4 168//4 198//4 199//4
f 159//2 161//2 184//2 200//2
f 175//3 176//3 189//3 187//3
f 219//27 228//27 197//27 204//27
f 228//28 227//28 195//28 197//28
f 227//29 226//29 193//29 195//29
f 226//30 225//30 191//30 193//30
f 225//31 224//31 189//31 191//31
f 224//32 223//32 187//32 189//32
f 223//33 222//33 185//33 187//33
f 218//34 221//34 183//34 203//34
f 222//35 220//35 181//35 185//35
f 221//36 219//36 204//36 183//36
f 217//37 218//37 203//37 202//37
f 220//38 217//38 202//38 181//38
f 179//13 180//13 197//13 195//13
f 166//7 165//7 192//7 194//7
f 171//9 173//9 183//9 204//9
f 158//12 157//12 201//12 182//12
f 178//12 179//12 195//12 193//12
f 165//8 164//8 190//8 192//8
f 170//7 169//7 202//7 203//7
f 177//1 178//1 193//1 191//1
f 164//9 163//9 188//9 190//9
f 169//6 172//6 181//6 202//6
f 176//2 177//2 191//2 189//2
f 163//10 162//10 186//10 188//10
f 182//39 201//39 214//39 205//39
f 201//40 200//40 215//40 214//40
f 184//41 199//41 216//41 206//41
f 186//42 182//42 205//42 207//42
f 200//43 184//43 206//43 215//43
f 188//44 186//44 207//44 208//44
f 190//45 188//45 208//45 209//45
f 192//46 190//46 209//46 210//46
f 194//47 192//47 210//47 211//47
f 196//48 194//48 211//48 212//48
f 198//49 196//49 212//49 213//49
f 199//50 198//50 213//50 216//50
f 205//14 214//14 217//14 220//14
f 214//14 215//14 218//14 217//14
f 206//14 216//14 219//14 221//14
f 207//14 205//14 220//14 222//14
f 215//14 206//14 221//14 218//14
f 208//14 207//14 222//14 223//14
f 209//14 208//14 223//14 224//14
f 210//14 209//14 224//14 225//14
f 211//14 210//14 225//14 226//14
f 212//14 211//14 226//14 227//14
f 213//14 212//14 227//14 228//14
f 216//14 213//14 228//14 219//14
f 234//4 235//4 264//4 265//4
f 251//2 242//2 269//2 255//2
f 252//4 249//4 276//4 257//4
f 235//3 236//3 263//3 264//3
f 243//13 241//13 268//13 270//13
f 249//5 248//5 275//5 276//5
f 236//2 237//2 262//2 263//2
f 242//3 252//3 257//3 269//3
f 229//6 232//6 267//6 254//6
f 248//6 247//6 274//6 275//6
f 237//1 238//1 261//1 262//1
f 250//1 251//1 255//1 253//1
f 172//14 169//14 250//14 241//14
f 169//14 170//14 251//14 250//14
f 173//14 171//14 252//14 242//14
f 174//14 172//14 241//14 243//14
f 170//14 173//14 242//14 251//14
f 175//14 174//14 243//14 244//14
f 176//14 175//14 244//14 245//14
f 177//14 176//14 245//14 246//14
f 178//14 177//14 246//14 247//14
f 179//14 178//14 247//14 248//14
f 180//14 179//14 248//14 249//14
f 171//14 180//14 249//14 252//14
f 291//51 300//51 259//51 258//51
f 300//52 299//52 260//52 259//52
f 299//53 298//53 261//53 260//53
f 298//54 297//54 262//54 261//54
f 297//55 296//55 263//55 262//55
f 296//56 295//56 264//56 263//56
f 295//57 294//57 265//57 264//57
f 290//58 293//58 266//58 256//58
f 294//59 292//59 267//59 265//59
f 293//60 291//60 258//60 266//60
f 289//61 290//61 256//61 254//61
f 292//62 289//62 254//62 267//62
f 244//10 243//10 270//10 271//10
f 233//8 230//8 256//8 266//8
f 240//10 231//10 258//10 259//10
f 245//9 244//9 271//9 272//9
f 232//5 234//5 265//5 267//5
f 239//13 240//13 259//13 260//13
f 246//8 245//8 272//8 273//8
f 231//9 233//9 266//9 258//9
f 241//12 250//12 253//12 268//12
f 238//12 239//12 260//12 261//12
f 247//7 246//7 273//7 274//7
f 230//7 229//7 254//7 256//7
f 268//63 253//63 277//63 280//63
f 253//64 255//64 278//64 277//64
f 269//65 257//65 279//65 281//65
f 270//66 268//66 280//66 282//66
f 255//67 269//67 281//67 278//67
f 271//68 270//68 282//68 283//68
f 272//69 271//69 283//69 284//69
f 273//70 272//70 284//70 285//70
f 274//71 273//71 285//71 286//71
f 275//72 274//72 286//72 287//72
f 276//73 275//73 287//73 288//73
f 257//74 276//74 288//74 279//74
f 280//14 277//14 289//14 292//14
f 277//14 278//14 290//14 289//14
f 281//14 279//14 291//14 293//14
f 282//14 280//14 292//14 294//14
f 278//14 281//14 293//14 290//14
f 283//14 282//14 294//14 295//14
f 284//14 283//14 295//14 296//14
f 285//14 284//14 296//14 297//14
f 286//14 285//14 297//14 298//14
f 287//14 286//14 298//14 299//14
f 288//14 287//14 299//14 300//14
f 279//14 288//14 300//14 291//14
