# Blender 3.4.0
# www.blender.org
mtllib Cylinder_427.mtl
o Cylinder.427
v 1.578829 -0.204429 0.783380
v 1.430829 -0.204429 0.783380
v 1.578829 -0.099269 0.811557
v 1.430829 -0.099269 0.811557
v 1.578829 -0.022286 0.888539
v 1.430829 -0.022286 0.888539
v 1.578829 0.005891 0.993699
v 1.430829 0.005891 0.993699
v 1.578829 -0.022287 1.098859
v 1.430829 -0.022287 1.098859
v 1.578829 -0.099269 1.175841
v 1.430829 -0.099269 1.175841
v 1.578829 -0.204429 1.204019
v 1.430829 -0.204429 1.204019
v 1.578829 -0.309589 1.175841
v 1.430829 -0.309588 1.175841
v 1.578829 -0.386571 1.098859
v 1.430829 -0.386571 1.098859
v 1.578829 -0.414748 0.993699
v 1.430829 -0.414748 0.993699
v 1.578829 -0.386571 0.888539
v 1.430829 -0.386571 0.888539
v 1.578829 -0.309589 0.811557
v 1.430829 -0.309589 0.811557
v 1.578829 -0.229982 0.688012
v 1.430829 -0.229982 0.688012
v 1.430829 -0.029455 0.741743
v 1.578829 -0.029455 0.741743
v 1.578829 0.047527 0.818725
v 1.430829 0.047527 0.818725
v 1.430829 0.101259 1.019253
v 1.578829 0.101259 1.019253
v 1.578829 0.073081 1.124413
v 1.430829 0.073081 1.124413
v 1.430829 -0.073715 1.271209
v 1.578829 -0.073715 1.271209
v 1.578829 -0.178875 1.299387
v 1.430829 -0.178875 1.299387
v 1.430829 -0.379402 1.245656
v 1.578829 -0.379402 1.245656
v 1.578829 -0.456385 1.168673
v 1.430829 -0.456385 1.168673
v 1.430829 -0.510116 0.968146
v 1.578829 -0.510116 0.968146
v 1.578829 -0.481939 0.862986
v 1.430829 -0.481939 0.862986
v 1.430829 -0.335142 0.716190
v 1.578829 -0.335142 0.716190
v 1.578829 -0.204429 0.894623
v 1.578829 -0.154891 0.907897
v 1.578829 -0.118626 0.944161
v 1.578829 -0.105353 0.993699
v 1.578829 -0.118626 1.043237
v 1.578829 -0.154891 1.079502
v 1.578829 -0.204429 1.092775
v 1.578829 -0.253967 1.079502
v 1.578829 -0.290231 1.043237
v 1.578829 -0.303505 0.993699
v 1.578829 -0.290231 0.944161
v 1.578829 -0.253967 0.907897
v 1.539890 -0.204429 0.894623
v 1.539890 -0.154891 0.907897
v 1.539890 -0.118626 0.944161
v 1.539890 -0.105353 0.993699
v 1.539890 -0.118626 1.043237
v 1.539890 -0.154891 1.079502
v 1.539890 -0.204429 1.092775
v 1.539890 -0.253967 1.079502
v 1.539890 -0.290231 1.043237
v 1.539890 -0.303505 0.993699
v 1.539890 -0.290231 0.944161
v 1.539890 -0.253967 0.907897
v 1.578829 -0.377667 0.993699
v 1.578829 -0.340586 0.993699
v 1.578829 -0.322344 1.061778
v 1.578829 -0.354458 1.080319
v 1.578829 -0.272507 1.111615
v 1.578829 -0.291048 1.143728
v 1.578829 -0.204429 1.129856
v 1.578829 -0.204429 1.166938
v 1.578829 -0.136350 1.111615
v 1.578829 -0.117809 1.143728
v 1.578829 -0.086513 1.061778
v 1.578829 -0.054400 1.080318
v 1.578829 -0.068272 0.993699
v 1.578829 -0.031190 0.993699
v 1.578829 -0.204429 0.820461
v 1.578829 -0.204429 0.857542
v 1.578829 -0.272507 0.875784
v 1.578829 -0.291048 0.843670
v 1.578829 -0.117809 0.843670
v 1.578829 -0.136350 0.875784
v 1.578829 -0.086513 0.925621
v 1.578829 -0.054400 0.907080
v 1.578829 -0.322344 0.925621
v 1.578829 -0.354458 0.907080
v 1.567875 -0.377667 0.993699
v 1.567875 -0.340586 0.993699
v 1.567875 -0.322344 1.061778
v 1.567875 -0.354458 1.080319
v 1.567875 -0.272507 1.111615
v 1.567875 -0.291048 1.143728
v 1.567875 -0.204429 1.129856
v 1.567875 -0.204429 1.166938
v 1.567875 -0.136350 1.111615
v 1.567875 -0.117809 1.143728
v 1.567875 -0.086513 1.061778
v 1.567875 -0.054400 1.080318
v 1.567875 -0.068272 0.993699
v 1.567875 -0.031190 0.993699
v 1.567875 -0.204429 0.820461
v 1.567875 -0.204429 0.857542
v 1.567875 -0.272507 0.875784
v 1.567875 -0.291048 0.843670
v 1.567875 -0.117809 0.843670
v 1.567875 -0.136350 0.875784
v 1.567875 -0.086513 0.925621
v 1.567875 -0.054400 0.907080
v 1.567875 -0.322344 0.925621
v 1.567875 -0.354458 0.907080
v 1.555148 -0.204429 0.773084
v 1.454510 -0.204429 0.773084
v 1.454510 -0.094121 0.802641
v 1.555148 -0.094121 0.802641
v 1.454510 -0.013370 0.883392
v 1.555148 -0.013370 0.883392
v 1.454510 0.016187 0.993699
v 1.555148 0.016187 0.993699
v 1.454510 -0.013370 1.104007
v 1.555148 -0.013370 1.104007
v 1.454510 -0.094121 1.184758
v 1.555148 -0.094121 1.184758
v 1.454510 -0.204429 1.214314
v 1.555148 -0.204429 1.214314
v 1.454510 -0.314736 1.184758
v 1.555148 -0.314736 1.184758
v 1.454510 -0.395487 1.104007
v 1.555148 -0.395487 1.104007
v 1.454510 -0.425044 0.993699
v 1.555148 -0.425044 0.993699
v 1.454510 -0.395487 0.883392
v 1.555148 -0.395487 0.883392
v 1.454510 -0.314736 0.802641
v 1.555148 -0.314736 0.802641
v 1.555148 -0.231233 0.673048
v 1.454510 -0.231233 0.673048
v 1.454510 -0.020890 0.729409
v 1.555148 -0.020890 0.729409
v 1.454510 0.059861 0.810160
v 1.555148 0.059861 0.810160
v 1.454510 0.116223 1.020504
v 1.555148 0.116223 1.020504
v 1.454510 0.086666 1.130811
v 1.555148 0.086666 1.130811
v 1.454510 -0.067316 1.284794
v 1.555148 -0.067316 1.284794
v 1.454510 -0.177624 1.314351
v 1.555148 -0.177624 1.314351
v 1.454510 -0.387968 1.257989
v 1.555148 -0.387968 1.257989
v 1.454510 -0.468719 1.177238
v 1.555148 -0.468719 1.177238
v 1.454510 -0.525080 0.966895
v 1.555148 -0.525080 0.966895
v 1.454510 -0.495523 0.856587
v 1.555148 -0.495523 0.856587
v 1.454510 -0.341541 0.702605
v 1.555148 -0.341541 0.702605
vn -0.3872 0.2386 -0.8906
vn 1.0000 -0.0000 -0.0000
vn -0.3872 0.8906 -0.2386
vn -1.0000 -0.0000 -0.0000
vn -0.3872 0.6520 0.6520
vn 0.1118 0.9599 -0.2572
vn -0.3872 -0.2386 0.8906
vn 0.1118 -0.7027 -0.7027
vn -0.3872 -0.8906 0.2386
vn -0.1118 0.2572 -0.9599
vn -0.3872 -0.6520 -0.6520
vn -0.5294 0.5999 -0.5999
vn -0.5294 0.8195 0.2196
vn -0.5294 0.2196 0.8195
vn -0.5294 -0.5999 0.5999
vn -0.5294 -0.8195 -0.2196
vn -0.5294 -0.2196 -0.8195
vn -0.1118 -0.7027 -0.7027
vn 0.1118 -0.9599 0.2572
vn -0.1118 -0.9599 0.2572
vn 0.1118 -0.2572 0.9599
vn -0.1118 -0.2572 0.9599
vn 0.1118 0.7027 0.7027
vn -0.1118 0.7027 0.7027
vn -0.1118 0.9599 -0.2572
vn 0.1118 0.2572 -0.9599
vn -0.0000 -0.9659 0.2588
vn -0.0000 0.9659 0.2588
vn -0.0000 0.2588 -0.9659
vn -0.0000 -0.9659 -0.2588
vn -0.0000 0.7071 0.7071
vn -0.0000 -0.2588 0.9659
vn -0.0000 0.7071 -0.7071
vn -0.0000 -0.7071 -0.7071
vn -0.0000 0.2588 0.9659
vn -0.0000 -0.7071 0.7071
vn -0.0000 0.9659 -0.2588
vn -0.0000 -0.2588 -0.9659
vn 0.5294 -0.2196 -0.8195
vn 0.5294 -0.8195 -0.2196
vn 0.5294 -0.5999 0.5999
vn 0.5294 0.2196 0.8195
vn 0.5294 0.8195 0.2196
vn 0.5294 0.5999 -0.5999
vn 0.3872 -0.6520 -0.6520
vn 0.3872 -0.8906 0.2386
vn 0.3872 -0.2386 0.8906
vn 0.3872 0.6520 0.6520
vn 0.3872 0.8906 -0.2386
vn 0.3872 0.2386 -0.8906
s 0
usemtl blue
f 122//1 2//1 4//1 123//1
f 9//2 7//2 32//2 33//2
f 125//3 6//3 8//3 127//3
f 12//4 14//4 38//4 35//4
f 129//5 10//5 12//5 131//5
f 121//6 1//6 25//6 145//6
f 133//7 14//7 16//7 135//7
f 138//8 17//8 41//8 162//8
f 137//9 18//9 20//9 139//9
f 127//10 8//10 31//10 151//10
f 4//4 2//4 24//4 22//4 20//4 18//4 16//4 14//4 12//4 10//4 8//4 6//4
f 13//2 11//2 36//2 37//2
f 141//11 22//11 24//11 143//11
f 75//2 74//2 58//2 57//2
f 147//12 27//12 30//12 149//12
f 151//13 31//13 34//13 153//13
f 155//14 35//14 38//14 157//14
f 159//15 39//15 42//15 161//15
f 163//16 43//16 46//16 165//16
f 167//17 47//17 26//17 146//17
f 123//18 4//18 27//18 147//18
f 134//19 13//19 37//19 158//19
f 143//20 24//20 47//20 167//20
f 8//4 10//4 34//4 31//4
f 5//2 3//2 28//2 29//2
f 1//2 23//2 48//2 25//2
f 130//21 9//21 33//21 154//21
f 139//22 20//22 43//22 163//22
f 4//4 6//4 30//4 27//4
f 24//4 2//4 26//4 47//4
f 21//2 19//2 44//2 45//2
f 126//23 5//23 29//23 150//23
f 135//24 16//24 39//24 159//24
f 20//4 22//4 46//4 43//4
f 17//2 15//2 40//2 41//2
f 131//25 12//25 35//25 155//25
f 142//26 21//26 45//26 166//26
f 16//4 18//4 42//4 39//4
f 51//27 52//27 64//27 63//27
f 77//2 75//2 57//2 56//2
f 79//2 77//2 56//2 55//2
f 81//2 79//2 55//2 54//2
f 83//2 81//2 54//2 53//2
f 85//2 83//2 53//2 52//2
f 89//2 88//2 49//2 60//2
f 88//2 92//2 50//2 49//2
f 93//2 85//2 52//2 51//2
f 95//2 89//2 60//2 59//2
f 92//2 93//2 51//2 50//2
f 74//2 95//2 59//2 58//2
f 61//2 62//2 63//2 64//2 65//2 66//2 67//2 68//2 69//2 70//2 71//2 72//2
f 58//28 59//28 71//28 70//28
f 55//29 56//29 68//29 67//29
f 52//30 53//30 65//30 64//30
f 59//31 60//31 72//31 71//31
f 49//32 50//32 62//32 61//32
f 56//33 57//33 69//33 68//33
f 53//34 54//34 66//34 65//34
f 60//35 49//35 61//35 72//35
f 50//36 51//36 63//36 62//36
f 57//37 58//37 70//37 69//37
f 54//38 55//38 67//38 66//38
f 19//2 21//2 96//2 73//2
f 96//31 90//31 114//31 120//31
f 3//2 5//2 94//2 91//2
f 88//38 89//38 113//38 112//38
f 21//2 23//2 90//2 96//2
f 80//29 78//29 102//29 104//29
f 5//2 7//2 86//2 94//2
f 93//33 92//33 116//33 117//33
f 1//2 3//2 91//2 87//2
f 90//35 87//35 111//35 114//35
f 23//2 1//2 87//2 90//2
f 79//35 81//35 105//35 103//35
f 7//2 9//2 84//2 86//2
f 91//36 94//36 118//36 115//36
f 9//2 11//2 82//2 84//2
f 92//29 88//29 112//29 116//29
f 11//2 13//2 80//2 82//2
f 82//38 80//38 104//38 106//38
f 13//2 15//2 78//2 80//2
f 95//30 74//30 98//30 119//30
f 15//2 17//2 76//2 78//2
f 74//27 75//27 99//27 98//27
f 17//2 19//2 73//2 76//2
f 87//32 91//32 115//32 111//32
f 97//2 120//2 119//2 98//2
f 115//2 118//2 117//2 116//2
f 120//2 114//2 113//2 119//2
f 118//2 110//2 109//2 117//2
f 111//2 115//2 116//2 112//2
f 114//2 111//2 112//2 113//2
f 110//2 108//2 107//2 109//2
f 108//2 106//2 105//2 107//2
f 106//2 104//2 103//2 105//2
f 104//2 102//2 101//2 103//2
f 102//2 100//2 99//2 101//2
f 100//2 97//2 98//2 99//2
f 77//32 79//32 103//32 101//32
f 86//30 84//30 108//30 110//30
f 89//34 95//34 119//34 113//34
f 78//33 76//33 100//33 102//33
f 83//28 85//28 109//28 107//28
f 94//27 86//27 110//27 118//27
f 75//36 77//36 101//36 99//36
f 84//34 82//34 106//34 108//34
f 85//37 93//37 117//37 109//37
f 76//37 73//37 97//37 100//37
f 73//28 96//28 120//28 97//28
f 81//31 83//31 107//31 105//31
f 22//10 141//10 165//10 46//10
f 141//29 142//29 166//29 165//29
f 11//6 132//6 156//6 36//6
f 132//37 131//37 155//37 156//37
f 15//23 136//23 160//23 40//23
f 136//31 135//31 159//31 160//31
f 6//24 125//24 149//24 30//24
f 125//31 126//31 150//31 149//31
f 19//21 140//21 164//21 44//21
f 140//32 139//32 163//32 164//32
f 10//22 129//22 153//22 34//22
f 129//32 130//32 154//32 153//32
f 23//19 144//19 168//19 48//19
f 144//27 143//27 167//27 168//27
f 14//20 133//20 157//20 38//20
f 133//27 134//27 158//27 157//27
f 3//8 124//8 148//8 28//8
f 124//34 123//34 147//34 148//34
f 48//39 168//39 145//39 25//39
f 168//38 167//38 146//38 145//38
f 44//40 164//40 166//40 45//40
f 164//30 163//30 165//30 166//30
f 40//41 160//41 162//41 41//41
f 160//36 159//36 161//36 162//36
f 36//42 156//42 158//42 37//42
f 156//35 155//35 157//35 158//35
f 32//43 152//43 154//43 33//43
f 152//28 151//28 153//28 154//28
f 28//44 148//44 150//44 29//44
f 148//33 147//33 149//33 150//33
f 21//45 142//45 144//45 23//45
f 142//34 141//34 143//34 144//34
f 7//26 128//26 152//26 32//26
f 128//29 127//29 151//29 152//29
f 17//46 138//46 140//46 19//46
f 138//27 137//27 139//27 140//27
f 18//18 137//18 161//18 42//18
f 137//34 138//34 162//34 161//34
f 13//47 134//47 136//47 15//47
f 134//32 133//32 135//32 136//32
f 2//25 122//25 146//25 26//25
f 122//37 121//37 145//37 146//37
f 9//48 130//48 132//48 11//48
f 130//31 129//31 131//31 132//31
f 5//49 126//49 128//49 7//49
f 126//37 125//37 127//37 128//37
f 1//50 121//50 124//50 3//50
f 121//29 122//29 123//29 124//29
