# Blender 3.4.0
# www.blender.org
mtllib Cylinder_056.mtl
o Cylinder.056
v 5.709466 1.287519 1.596504
v 5.631729 1.325638 1.607389
v 5.724004 1.315120 1.604863
v 5.643731 1.348424 1.614289
v 5.734647 1.335326 1.627700
v 5.652517 1.365105 1.633142
v 5.738542 1.342722 1.658896
v 5.655733 1.371210 1.658896
v 5.734647 1.335326 1.690092
v 5.652517 1.365105 1.684650
v 5.724004 1.315120 1.712929
v 5.643731 1.348424 1.703503
v 5.709466 1.287519 1.721288
v 5.631729 1.325638 1.710404
v 5.694928 1.259917 1.712929
v 5.619727 1.302852 1.703503
v 5.684285 1.239712 1.690092
v 5.610941 1.286171 1.684650
v 5.680390 1.232316 1.658896
v 5.607725 1.280066 1.658896
v 5.684285 1.239712 1.627700
v 5.610941 1.286171 1.633142
v 5.694928 1.259917 1.604863
v 5.619727 1.302852 1.614289
v 5.836851 1.228718 1.600981
v 5.850705 1.254116 1.608740
v 5.860846 1.272709 1.629938
v 5.864558 1.279515 1.658896
v 5.860846 1.272709 1.687854
v 5.850705 1.254116 1.709053
v 5.836851 1.228718 1.716812
v 5.822998 1.203319 1.709053
v 5.812856 1.184726 1.687854
v 5.809144 1.177921 1.658896
v 5.812856 1.184726 1.629938
v 5.822998 1.203319 1.608740
v 5.860274 1.215144 1.622848
v 5.869911 1.230323 1.627677
v 5.876966 1.241434 1.640872
v 5.879548 1.245501 1.658896
v 5.876966 1.241434 1.676921
v 5.869911 1.230323 1.690115
v 5.860274 1.215144 1.694945
v 5.850636 1.199966 1.690115
v 5.843582 1.188855 1.676921
v 5.841000 1.184788 1.658896
v 5.843582 1.188855 1.640872
v 5.850636 1.199966 1.627677
v 5.795125 1.287802 1.712929
v 5.805767 1.308008 1.690092
v 5.809663 1.315403 1.658896
v 5.780586 1.260200 1.596504
v 5.766048 1.232599 1.604863
v 5.795125 1.287802 1.604863
v 5.805767 1.308008 1.627700
v 5.755405 1.212393 1.627700
v 5.751510 1.204998 1.658896
v 5.755405 1.212393 1.690092
v 5.766048 1.232599 1.712929
v 5.780586 1.260201 1.721288
v 5.716990 1.301803 1.598643
v 5.630890 1.339400 1.614912
v 5.663159 1.309436 1.598238
v 5.677294 1.336271 1.606364
v 5.730022 1.326545 1.614787
v 5.640403 1.357461 1.626698
v 5.687641 1.355915 1.628567
v 5.737545 1.340830 1.642751
v 5.645895 1.367888 1.647111
v 5.691428 1.363105 1.658896
v 5.737545 1.340829 1.675041
v 5.645895 1.367888 1.670682
v 5.687641 1.355915 1.689226
v 5.730022 1.326545 1.703005
v 5.640403 1.357461 1.691095
v 5.677294 1.336271 1.711428
v 5.716990 1.301803 1.719150
v 5.630890 1.339400 1.702880
v 5.663159 1.309436 1.719555
v 5.701942 1.273234 1.719150
v 5.619905 1.318545 1.702880
v 5.649025 1.282602 1.711428
v 5.688910 1.248493 1.703005
v 5.610393 1.300484 1.691095
v 5.638679 1.262957 1.689226
v 5.681386 1.234208 1.675041
v 5.604900 1.290057 1.670682
v 5.634891 1.255767 1.658896
v 5.681386 1.234208 1.642751
v 5.604900 1.290057 1.647111
v 5.638678 1.262957 1.628567
v 5.688910 1.248493 1.614787
v 5.610393 1.300484 1.626698
v 5.649025 1.282602 1.606364
v 5.701942 1.273234 1.598643
v 5.619905 1.318545 1.614912
v 5.844021 1.241862 1.602966
v 5.856439 1.264629 1.617952
v 5.863608 1.277773 1.643910
v 5.863608 1.277773 1.673883
v 5.856439 1.264629 1.699840
v 5.844021 1.241862 1.714827
v 5.829681 1.215573 1.714827
v 5.817264 1.192807 1.699840
v 5.810094 1.179662 1.673883
v 5.810094 1.179662 1.643910
v 5.817264 1.192807 1.617952
v 5.829681 1.215573 1.602966
v 5.825665 1.271539 1.712445
v 5.773467 1.320386 1.690092
v 5.777363 1.327781 1.658896
v 5.811213 1.244213 1.597064
v 5.733748 1.244977 1.604863
v 5.825665 1.271539 1.605348
v 5.773467 1.320386 1.627700
v 5.723105 1.224771 1.627700
v 5.719210 1.217376 1.658896
v 5.723105 1.224771 1.690092
v 5.733748 1.244977 1.712929
v 5.748286 1.272579 1.721288
v 5.865833 1.221261 1.628819
v 5.873372 1.232970 1.636878
v 5.877724 1.239730 1.650837
v 5.877724 1.239730 1.666955
v 5.873372 1.232970 1.680915
v 5.865833 1.221261 1.688974
v 5.857129 1.207742 1.688974
v 5.849590 1.196033 1.680915
v 5.845238 1.189273 1.666956
v 5.845238 1.189273 1.650837
v 5.849590 1.196033 1.636878
v 5.857129 1.207742 1.628819
v 5.865444 1.239783 1.700698
v 5.874404 1.254963 1.683031
v 5.853205 1.219046 1.610628
v 5.840966 1.198308 1.617094
v 5.874404 1.254963 1.634762
v 5.865444 1.239783 1.617094
v 5.828727 1.177572 1.658896
v 5.832007 1.183128 1.683031
v 5.853205 1.219046 1.707165
v 5.877683 1.260520 1.658896
v 5.832007 1.183128 1.634762
v 5.840966 1.198308 1.700698
v 5.762825 1.300180 1.712929
v 5.836245 1.291543 1.689813
v 5.840117 1.298865 1.658896
v 5.748286 1.272578 1.596504
v 5.796760 1.216887 1.605348
v 5.762825 1.300180 1.604863
v 5.836245 1.291543 1.627980
v 5.786180 1.196883 1.627980
v 5.782307 1.189561 1.658896
v 5.786180 1.196883 1.689813
v 5.796760 1.216887 1.712445
v 5.811213 1.244213 1.720729
v 5.788110 1.274485 1.719150
v 5.773062 1.245916 1.719150
v 5.760031 1.221174 1.703005
v 5.752507 1.206890 1.675041
v 5.752507 1.206890 1.642751
v 5.801142 1.299227 1.614787
v 5.760031 1.221174 1.614787
v 5.808666 1.313511 1.642751
v 5.788110 1.274485 1.598643
v 5.773062 1.245916 1.598643
v 5.808666 1.313511 1.675041
v 5.801142 1.299227 1.703005
v 5.669796 1.323550 1.600749
v 5.682373 1.347427 1.616330
v 5.689633 1.361212 1.643316
v 5.689633 1.361212 1.674477
v 5.682373 1.347427 1.701463
v 5.669796 1.323550 1.717043
v 5.655274 1.295980 1.717043
v 5.642698 1.272103 1.701463
v 5.635437 1.258318 1.674477
v 5.635437 1.258318 1.643316
v 5.607747 1.338270 1.658896
v 5.655274 1.295980 1.600749
v 5.642698 1.272103 1.616330
v 5.831647 1.282850 1.702609
v 5.870491 1.248051 1.692733
v 5.839127 1.296992 1.674896
v 5.803733 1.230071 1.599183
v 5.818692 1.258355 1.599183
v 5.839127 1.296992 1.642896
v 5.790778 1.205576 1.615183
v 5.831647 1.282850 1.615183
v 5.783298 1.191434 1.642896
v 5.783298 1.191434 1.674896
v 5.790778 1.205577 1.702609
v 5.803733 1.230071 1.718609
v 5.818692 1.258355 1.718609
v 5.864847 1.212709 1.658896
v 5.847041 1.208342 1.612675
v 5.870491 1.248051 1.625060
v 5.829875 1.179273 1.671281
v 5.859608 1.229622 1.705118
v 5.876774 1.258691 1.646511
v 5.829875 1.179273 1.646511
v 5.847041 1.208342 1.705118
v 5.876774 1.258691 1.671281
v 5.836158 1.189913 1.625060
v 5.859608 1.229622 1.612675
v 5.836158 1.189913 1.692733
v 5.755810 1.286863 1.719150
v 5.740763 1.258294 1.719150
v 5.727731 1.233552 1.703005
v 5.720207 1.219268 1.675041
v 5.720207 1.219268 1.642751
v 5.768842 1.311605 1.614787
v 5.727731 1.233552 1.614787
v 5.776366 1.325889 1.642751
v 5.755810 1.286863 1.598643
v 5.740762 1.258294 1.598643
v 5.776366 1.325889 1.675041
v 5.768842 1.311605 1.703005
vn -0.0178 0.0059 -0.9998
vn -0.1457 0.0748 -0.9865
vn -0.0363 0.3055 -0.9515
vn 0.0844 0.2444 -0.9660
vn -0.4430 0.2319 -0.8660
vn -0.5748 0.4991 -0.6484
vn -0.2432 0.6158 -0.7495
vn 0.0727 0.5165 -0.8532
vn 0.1796 0.4669 -0.8659
vn 0.1595 0.7004 -0.6957
vn 0.2613 0.6575 -0.7068
vn -0.4355 0.7652 -0.4741
vn -0.0972 0.8964 -0.4325
vn 0.2322 0.8390 -0.4921
vn 0.3237 0.8036 -0.4994
vn 0.2724 0.9279 -0.2544
vn 0.3630 0.8952 -0.2585
vn -0.3552 0.9185 -0.1734
vn -0.0438 0.9990 -0.0000
vn 0.2905 0.9569 -0.0000
vn 0.3763 0.9265 -0.0000
vn 0.2724 0.9279 0.2544
vn 0.3630 0.8952 0.2585
vn -0.3552 0.9185 0.1734
vn -0.0972 0.8964 0.4325
vn 0.2322 0.8390 0.4921
vn 0.3237 0.8036 0.4994
vn 0.1595 0.7004 0.6957
vn 0.2613 0.6575 0.7068
vn -0.4355 0.7652 0.4741
vn -0.2432 0.6158 0.7495
vn 0.0727 0.5165 0.8532
vn 0.1796 0.4669 0.8659
vn -0.0363 0.3055 0.9515
vn 0.0844 0.2444 0.9660
vn -0.5748 0.4991 0.6484
vn -0.4430 0.2319 0.8660
vn -0.1457 0.0748 0.9865
vn -0.0178 0.0059 0.9998
vn -0.2631 -0.1517 0.9528
vn -0.1200 -0.2327 0.9651
vn -0.7361 0.1911 0.6493
vn -0.6430 -0.1525 0.7505
vn -0.3647 -0.3680 0.8553
vn -0.2151 -0.4542 0.8645
vn -0.4599 -0.5486 0.6982
vn -0.2967 -0.6442 0.7050
vn -0.8762 -0.0764 0.4759
vn -0.7896 -0.4343 0.4335
vn -0.5254 -0.6927 0.4942
vn -0.3590 -0.7893 0.4981
vn -0.5738 -0.7781 0.2557
vn -0.3982 -0.8804 0.2576
vn -0.9572 -0.2312 0.1743
vn -0.8433 -0.5374 -0.0000
vn -0.5842 -0.8116 -0.0000
vn -0.4115 -0.9114 -0.0000
vn -0.5738 -0.7781 -0.2557
vn -0.3982 -0.8804 -0.2576
vn -0.9572 -0.2312 -0.1743
vn -0.7896 -0.4343 -0.4335
vn -0.5254 -0.6927 -0.4942
vn -0.3590 -0.7893 -0.4981
vn -0.8848 0.4660 -0.0000
vn -0.7361 0.1911 -0.6493
vn -0.6430 -0.1525 -0.7505
vn -0.8762 -0.0764 -0.4759
vn -0.2151 -0.4542 -0.8645
vn -0.3647 -0.3680 -0.8553
vn -0.2631 -0.1517 -0.9528
vn -0.1200 -0.2327 -0.9651
vn -0.4599 -0.5486 -0.6982
vn -0.2967 -0.6442 -0.7050
vn 0.3640 0.7874 0.4974
vn 0.2991 0.6438 0.7043
vn 0.4088 0.5817 0.7032
vn 0.4857 0.7192 0.4969
vn 0.2143 0.4561 0.8637
vn 0.3085 0.4023 0.8620
vn 0.4936 0.2709 0.8264
vn 0.5910 0.4425 0.6744
vn 0.6665 0.5735 0.4764
vn 0.8312 0.1348 0.5394
vn 0.8894 0.2479 0.3840
vn 0.7551 -0.0060 0.6556
vn 0.8819 -0.2909 0.3709
vn 0.9210 -0.3216 0.2200
vn 0.9648 -0.1403 0.2226
vn 0.4187 0.9081 -0.0000
vn 0.4048 0.8775 0.2573
vn 0.5340 0.8054 0.2571
vn 0.5505 0.8349 -0.0000
vn 0.7132 0.6561 0.2466
vn 0.7296 0.6839 -0.0000
vn -0.1971 -0.4568 -0.8675
vn -0.0977 -0.2359 -0.9668
vn -0.0608 -0.2578 -0.9643
vn -0.1785 -0.4684 -0.8653
vn 0.0089 0.0008 -1.0000
vn 0.0654 -0.0322 -0.9973
vn 0.2573 -0.1444 -0.9555
vn 0.1346 -0.3599 -0.9232
vn 0.0215 -0.5609 -0.8276
vn 0.1153 0.2368 -0.9647
vn 0.1914 0.1929 -0.9624
vn 0.2143 0.4561 -0.8637
vn 0.3085 0.4023 -0.8620
vn 0.4936 0.2709 -0.8264
vn 0.3791 0.0708 -0.9226
vn 0.3640 0.7874 -0.4974
vn 0.4048 0.8775 -0.2573
vn 0.5340 0.8054 -0.2571
vn 0.4857 0.7192 -0.4969
vn 0.7132 0.6561 -0.2466
vn 0.6665 0.5735 -0.4764
vn -0.3480 -0.7923 -0.5011
vn -0.2825 -0.6466 -0.7086
vn -0.2799 -0.6495 -0.7070
vn -0.3576 -0.7886 -0.5002
vn -0.0764 -0.7333 -0.6756
vn -0.1503 -0.8656 -0.4776
vn 0.2991 0.6438 -0.7043
vn 0.4088 0.5817 -0.7032
vn 0.5910 0.4425 -0.6744
vn -0.4032 -0.9151 -0.0000
vn -0.3892 -0.8839 -0.2594
vn -0.4066 -0.8761 -0.2590
vn -0.4233 -0.9060 -0.0000
vn -0.1975 -0.9486 -0.2471
vn -0.2129 -0.9771 -0.0000
vn -0.3480 -0.7923 0.5011
vn -0.3892 -0.8839 0.2594
vn -0.4066 -0.8761 0.2590
vn -0.3576 -0.7886 0.5002
vn -0.1975 -0.9486 0.2471
vn -0.1503 -0.8656 0.4776
vn -0.1971 -0.4568 0.8675
vn -0.2825 -0.6466 0.7086
vn -0.2799 -0.6495 0.7070
vn -0.1785 -0.4684 0.8653
vn -0.0764 -0.7333 0.6756
vn 0.0215 -0.5609 0.8276
vn 0.0089 0.0008 1.0000
vn -0.0977 -0.2359 0.9668
vn -0.0608 -0.2578 0.9643
vn 0.0654 -0.0322 0.9973
vn 0.1346 -0.3599 0.9232
vn 0.2573 -0.1444 0.9555
vn 0.1153 0.2368 0.9647
vn 0.1914 0.1929 0.9624
vn 0.3791 0.0708 0.9226
vn 0.7789 -0.4795 -0.4042
vn 0.8484 -0.4457 -0.2855
vn 0.8433 -0.5374 -0.0000
vn 0.7737 -0.5741 -0.2679
vn 0.8819 -0.2909 -0.3709
vn 0.9210 -0.3216 -0.2200
vn 0.9648 -0.1403 -0.2226
vn 0.9661 -0.2446 -0.0828
vn 0.9966 -0.0827 -0.0000
vn 0.9661 -0.2446 0.0828
vn 0.8484 -0.4457 0.2855
vn 0.7789 -0.4795 0.4042
vn 0.7737 -0.5741 0.2679
vn 0.6885 -0.6467 0.3281
vn 0.7170 -0.6722 0.1848
vn 0.6309 -0.7548 0.1798
vn 0.6876 -0.7231 0.0652
vn 0.6116 -0.7912 -0.0000
vn 0.6876 -0.7231 -0.0652
vn 0.6309 -0.7548 -0.1798
vn 0.7170 -0.6722 -0.1848
vn 0.6885 -0.6467 -0.3281
vn 0.4927 -0.5123 -0.7034
vn 0.4115 -0.6631 -0.6253
vn 0.5786 -0.3420 -0.7404
vn 0.8312 0.1348 -0.5394
vn 0.7551 -0.0060 -0.6556
vn 0.8894 0.2479 -0.3840
vn 0.2700 -0.9458 0.1806
vn 0.2959 -0.8873 0.3537
vn 0.2552 -0.9669 -0.0000
vn 0.6698 -0.1724 0.7223
vn 0.5786 -0.3420 0.7404
vn 0.9273 0.3167 -0.1995
vn 0.9396 0.3424 -0.0000
vn 0.2700 -0.9458 -0.1806
vn 0.2959 -0.8873 -0.3537
vn 0.4927 -0.5123 0.7034
vn 0.4115 -0.6631 0.6253
vn 0.9273 0.3167 0.1995
vn 0.3487 -0.7917 -0.5017
vn 0.6698 -0.1724 -0.7223
vn 0.3487 -0.7917 0.5017
vn 0.0934 0.2431 0.9655
vn 0.1802 0.4691 0.8646
vn -0.0000 -0.0001 1.0000
vn -0.0934 -0.2432 0.9655
vn -0.1802 -0.4692 0.8645
vn -0.2544 -0.6624 0.7047
vn -0.3110 -0.8098 0.4974
vn -0.3465 -0.9021 0.2572
vn -0.3585 -0.9335 -0.0000
vn -0.3465 -0.9021 -0.2572
vn -0.3110 -0.8098 -0.4974
vn 0.2543 0.6623 -0.7047
vn 0.1802 0.4691 -0.8646
vn 0.3110 0.8098 -0.4975
vn -0.2544 -0.6624 -0.7047
vn -0.1802 -0.4692 -0.8645
vn 0.3464 0.9021 -0.2572
vn 0.3585 0.9335 -0.0000
vn 0.0934 0.2431 -0.9655
vn -0.0000 -0.0001 -1.0000
vn -0.0934 -0.2432 -0.9655
vn 0.3464 0.9021 0.2572
vn 0.3110 0.8098 0.4975
vn 0.2543 0.6623 0.7047
s 1
usemtl orange
f 1//1 63//2 169//3 61//4
f 63//2 2//5 62//6 169//3
f 169//3 62//6 4//7 64//8
f 61//4 169//3 64//8 3//9
f 3//9 64//8 170//10 65//11
f 64//8 4//7 66//12 170//10
f 170//10 66//12 6//13 67//14
f 65//11 170//10 67//14 5//15
f 5//15 67//14 171//16 68//17
f 67//14 6//13 69//18 171//16
f 171//16 69//18 8//19 70//20
f 68//17 171//16 70//20 7//21
f 7//21 70//20 172//22 71//23
f 70//20 8//19 72//24 172//22
f 172//22 72//24 10//25 73//26
f 71//23 172//22 73//26 9//27
f 9//27 73//26 173//28 74//29
f 73//26 10//25 75//30 173//28
f 173//28 75//30 12//31 76//32
f 74//29 173//28 76//32 11//33
f 11//33 76//32 174//34 77//35
f 76//32 12//31 78//36 174//34
f 174//34 78//36 14//37 79//38
f 77//35 174//34 79//38 13//39
f 13//39 79//38 175//40 80//41
f 79//38 14//37 81//42 175//40
f 175//40 81//42 16//43 82//44
f 80//41 175//40 82//44 15//45
f 15//45 82//44 176//46 83//47
f 82//44 16//43 84//48 176//46
f 176//46 84//48 18//49 85//50
f 83//47 176//46 85//50 17//51
f 17//51 85//50 177//52 86//53
f 85//50 18//49 87//54 177//52
f 177//52 87//54 20//55 88//56
f 86//53 177//52 88//56 19//57
f 19//57 88//56 178//58 89//59
f 88//56 20//55 90//60 178//58
f 178//58 90//60 22//61 91//62
f 89//59 178//58 91//62 21//63
f 4//7 62//6 179//64 66//12
f 2//5 96//65 179//64 62//6
f 24//66 93//67 179//64 96//65
f 22//61 90//60 179//64 93//67
f 20//55 87//54 179//64 90//60
f 18//49 84//48 179//64 87//54
f 16//43 81//42 179//64 84//48
f 14//37 78//36 179//64 81//42
f 12//31 75//30 179//64 78//36
f 10//25 72//24 179//64 75//30
f 8//19 69//18 179//64 72//24
f 6//13 66//12 179//64 69//18
f 23//68 94//69 180//70 95//71
f 94//69 24//66 96//65 180//70
f 180//70 96//65 2//5 63//2
f 95//71 180//70 63//2 1//1
f 21//63 91//62 181//72 92//73
f 91//62 22//61 93//67 181//72
f 181//72 93//67 24//66 94//69
f 92//73 181//72 94//69 23//68
f 11//33 77//35 207//195 145//196
f 77//35 13//39 120//197 207//195
f 207//195 120//197 60//143 157//149
f 145//196 207//195 157//149 49//78
f 13//39 80//41 208//198 120//197
f 80//41 15//45 119//199 208//198
f 208//198 119//199 59//137 158//144
f 120//197 208//198 158//144 60//143
f 15//45 83//47 209//200 119//199
f 83//47 17//51 118//201 209//200
f 209//200 118//201 58//131 159//138
f 119//199 209//200 159//138 59//137
f 17//51 86//53 210//202 118//201
f 86//53 19//57 117//203 210//202
f 210//202 117//203 57//125 160//132
f 118//201 210//202 160//132 58//131
f 19//57 89//59 211//204 117//203
f 89//59 21//63 116//205 211//204
f 211//204 116//205 56//116 161//126
f 117//203 211//204 161//126 57//125
f 3//9 65//11 212//206 150//207
f 65//11 5//15 115//208 212//206
f 212//206 115//208 55//110 162//122
f 150//207 212//206 162//122 54//106
f 21//63 92//73 213//209 116//205
f 92//73 23//68 113//210 213//209
f 213//209 113//210 53//95 163//117
f 116//205 213//209 163//117 56//116
f 5//15 68//17 214//211 115//208
f 68//17 7//21 111//212 214//211
f 214//211 111//212 51//89 164//111
f 115//208 214//211 164//111 55//110
f 1//1 61//4 215//213 148//214
f 61//4 3//9 150//207 215//213
f 215//213 150//207 54//106 165//104
f 148//214 215//213 165//104 52//99
f 23//68 95//71 216//215 113//210
f 95//71 1//1 148//214 216//215
f 216//215 148//214 52//99 166//96
f 113//210 216//215 166//96 53//95
f 7//21 71//23 217//216 111//212
f 71//23 9//27 110//217 217//216
f 217//216 110//217 50//74 167//90
f 111//212 217//216 167//90 51//89
f 9//27 74//29 218//218 110//217
f 74//29 11//33 145//196 218//218
f 218//218 145//196 49//78 168//75
f 110//217 218//218 168//75 50//74
usemtl blue.006
f 50//74 168//75 182//76 146//77
f 168//75 49//78 109//79 182//76
f 182//76 109//79 30//80 101//81
f 146//77 182//76 101//81 29//82
f 29//82 101//81 183//83 134//84
f 101//81 30//80 133//85 183//83
f 183//83 133//85 42//86 125//87
f 134//84 183//83 125//87 41//88
f 51//89 167//90 184//91 147//92
f 167//90 50//74 146//77 184//91
f 184//91 146//77 29//82 100//93
f 147//92 184//91 100//93 28//94
f 53//95 166//96 185//97 149//98
f 166//96 52//99 112//100 185//97
f 185//97 112//100 25//101 108//102
f 149//98 185//97 108//102 36//103
f 52//99 165//104 186//105 112//100
f 165//104 54//106 114//107 186//105
f 186//105 114//107 26//108 97//109
f 112//100 186//105 97//109 25//101
f 55//110 164//111 187//112 151//113
f 164//111 51//89 147//92 187//112
f 187//112 147//92 28//94 99//114
f 151//113 187//112 99//114 27//115
f 56//116 163//117 188//118 152//119
f 163//117 53//95 149//98 188//118
f 188//118 149//98 36//103 107//120
f 152//119 188//118 107//120 35//121
f 54//106 162//122 189//123 114//107
f 162//122 55//110 151//113 189//123
f 189//123 151//113 27//115 98//124
f 114//107 189//123 98//124 26//108
f 57//125 161//126 190//127 153//128
f 161//126 56//116 152//119 190//127
f 190//127 152//119 35//121 106//129
f 153//128 190//127 106//129 34//130
f 58//131 160//132 191//133 154//134
f 160//132 57//125 153//128 191//133
f 191//133 153//128 34//130 105//135
f 154//134 191//133 105//135 33//136
f 59//137 159//138 192//139 155//140
f 159//138 58//131 154//134 192//139
f 192//139 154//134 33//136 104//141
f 155//140 192//139 104//141 32//142
f 60//143 158//144 193//145 156//146
f 158//144 59//137 155//140 193//145
f 193//145 155//140 32//142 103//147
f 156//146 193//145 103//147 31//148
f 49//78 157//149 194//150 109//79
f 157//149 60//143 156//146 194//150
f 194//150 156//146 31//148 102//151
f 109//79 194//150 102//151 30//80
f 37//152 121//153 195//154 132//155
f 38//156 122//157 195//154 121//153
f 39//158 123//159 195//154 122//157
f 40//160 124//161 195//154 123//159
f 41//88 125//87 195//154 124//161
f 42//86 126//162 195//154 125//87
f 43//163 127//164 195//154 126//162
f 44//165 128//166 195//154 127//164
f 45//167 129//168 195//154 128//166
f 46//169 130//170 195//154 129//168
f 47//171 131//172 195//154 130//170
f 48//173 132//155 195//154 131//172
f 36//103 108//102 196//174 136//175
f 108//102 25//101 135//176 196//174
f 196//174 135//176 37//152 132//155
f 136//175 196//174 132//155 48//173
f 26//108 98//124 197//177 138//178
f 98//124 27//115 137//179 197//177
f 197//177 137//179 39//158 122//157
f 138//178 197//177 122//157 38//156
f 33//136 105//135 198//180 140//181
f 105//135 34//130 139//182 198//180
f 198//180 139//182 46//169 129//168
f 140//181 198//180 129//168 45//167
f 30//80 102//151 199//183 133//85
f 102//151 31//148 141//184 199//183
f 199//183 141//184 43//163 126//162
f 133//85 199//183 126//162 42//86
f 27//115 99//114 200//185 137//179
f 99//114 28//94 142//186 200//185
f 200//185 142//186 40//160 123//159
f 137//179 200//185 123//159 39//158
f 34//130 106//129 201//187 139//182
f 106//129 35//121 143//188 201//187
f 201//187 143//188 47//171 130//170
f 139//182 201//187 130//170 46//169
f 31//148 103//147 202//189 141//184
f 103//147 32//142 144//190 202//189
f 202//189 144//190 44//165 127//164
f 141//184 202//189 127//164 43//163
f 28//94 100//93 203//191 142//186
f 100//93 29//82 134//84 203//191
f 203//191 134//84 41//88 124//161
f 142//186 203//191 124//161 40//160
f 35//121 107//120 204//192 143//188
f 107//120 36//103 136//175 204//192
f 204//192 136//175 48//173 131//172
f 143//188 204//192 131//172 47//171
f 25//101 97//109 205//193 135//176
f 97//109 26//108 138//178 205//193
f 205//193 138//178 38//156 121//153
f 135//176 205//193 121//153 37//152
f 32//142 104//141 206//194 144//190
f 104//141 33//136 140//181 206//194
f 206//194 140//181 45//167 128//166
f 144//190 206//194 128//166 44//165
