# Blender 3.5.1
# www.blender.org
mtllib Cylinder_021.mtl
o Cylinder.021
v -0.507364 0.670180 -0.507789
v -0.061200 0.670180 -0.507789
v -0.507364 0.782658 -0.522858
v -0.061200 0.782658 -0.522858
v -0.507364 0.864998 -0.605197
v -0.061200 0.864998 -0.605197
v -0.507364 0.895136 -0.717675
v -0.061200 0.895136 -0.717675
v -0.507364 0.864998 -0.830154
v -0.061200 0.864998 -0.830154
v -0.507364 0.782658 -0.912493
v -0.061200 0.782658 -0.912493
v -0.507364 0.670180 -0.927562
v -0.061200 0.670180 -0.927562
v -0.507364 0.557702 -0.927562
v -0.061200 0.557702 -0.927562
v -0.504753 0.527681 -0.507789
v -0.058588 0.527682 -0.717676
v -0.058588 0.527682 -0.927562
v -0.504753 0.527682 -0.927562
v -0.061200 0.540168 -0.715675
v -0.061200 0.601100 -0.716612
v -0.507364 0.557702 -0.507789
v -0.061200 0.557702 -0.507789
v -0.472993 0.670180 -0.507789
v -0.093198 0.670180 -0.507789
v -0.093198 0.782658 -0.522858
v -0.472993 0.782658 -0.522858
v -0.093198 0.864998 -0.605197
v -0.472993 0.864998 -0.605197
v -0.093198 0.895136 -0.717675
v -0.472993 0.895136 -0.717675
v -0.093198 0.864998 -0.830154
v -0.472993 0.864998 -0.830154
v -0.093198 0.782658 -0.912493
v -0.472993 0.782658 -0.912493
v -0.093198 0.670180 -0.927562
v -0.472993 0.670180 -0.927562
v -0.093198 0.557702 -0.927562
v -0.472993 0.557702 -0.927562
v -0.061200 0.800192 -0.719676
v -0.061200 0.864998 -0.717675
v -0.507364 0.670180 -0.717676
v -0.507364 0.782658 -0.717675
v -0.507364 0.557702 -0.717676
v -0.507364 0.864998 -0.717675
v -0.093198 0.557702 -0.507789
v -0.472993 0.557702 -0.507789
v -0.472993 0.864998 -0.717675
v -0.472993 0.782658 -0.717675
v -0.093198 0.782658 -0.717675
v -0.093198 0.670180 -0.717675
v -0.472993 0.670180 -0.717675
v -0.093198 0.864998 -0.717675
v -0.058588 0.527681 -0.507789
v -0.088906 0.527682 -0.927562
v -0.468701 0.527682 -0.927562
v -0.504753 0.527682 -0.717676
v -0.088906 0.527681 -0.507789
v -0.468701 0.527681 -0.507789
v -0.088906 0.527682 -0.717676
v -0.468701 0.527682 -0.717676
v -0.061200 0.576833 -0.808193
v -0.061200 0.668179 -0.847687
v -0.507364 0.557702 -0.822619
v -0.507364 0.864998 -0.773915
v -0.061200 0.864998 -0.773914
v -0.061200 0.760697 -0.811022
v -0.507364 0.782658 -0.815084
v -0.507364 0.670180 -0.822619
v -0.058588 0.527682 -0.822619
v -0.504753 0.527682 -0.822619
v -0.088906 0.527682 -0.822619
v -0.468701 0.527682 -0.822619
v -0.061200 0.763527 -0.627158
v -0.061200 0.864998 -0.661436
v -0.507364 0.670180 -0.612732
v -0.507364 0.782658 -0.620267
v -0.507364 0.864998 -0.661436
v -0.061200 0.672181 -0.587664
v -0.061200 0.579662 -0.624328
v -0.507364 0.557702 -0.612732
v -0.058588 0.527681 -0.612732
v -0.504753 0.527682 -0.612732
v -0.088906 0.527681 -0.612732
v -0.468701 0.527682 -0.612732
v -0.061200 0.739259 -0.718739
v -0.061200 0.620581 -0.765770
v -0.061200 0.669117 -0.786755
v -0.061200 0.718275 -0.767274
v -0.061200 0.719778 -0.669581
v -0.061200 0.671243 -0.648596
v -0.061200 0.622085 -0.668077
vn -0.0000 0.1328 0.9911
vn -0.0000 0.7071 0.7071
vn -0.0000 0.9659 0.2588
vn -0.0000 0.9659 -0.2588
vn -0.0000 0.7071 -0.7071
vn -0.0000 0.1328 -0.9911
vn -0.0000 -0.0000 -1.0000
vn 1.0000 -0.0000 -0.0000
vn -0.0000 -0.0000 1.0000
vn -1.0000 -0.0000 -0.0000
vn -0.0000 1.0000 -0.0000
vn 0.9966 0.0805 0.0149
vn 0.9979 0.0645 0.0064
vn -0.9962 -0.0867 -0.0000
vn -0.0000 -1.0000 -0.0000
vn 0.9977 0.0669 -0.0057
vn 0.9968 0.0784 -0.0158
vt 0.724345 0.667661
vt 0.173768 0.665710
vt 0.724345 0.334290
vt 0.499016 0.332339
vt 0.808013 0.667661
vt 0.090434 0.654544
vt 0.808013 0.334290
vt 0.415677 0.343505
vt 0.032782 0.846595
vt 0.871019 0.667661
vt 0.029429 0.593533
vt 0.871019 0.334290
vt 0.317480 0.354671
vt 0.354669 0.404516
vt 0.032782 0.763252
vt 0.007100 0.510190
vt 0.317480 0.438013
vt 0.332339 0.487859
vt 0.332339 0.992900
vt 0.032782 0.679910
vt 0.029429 0.426847
vt 0.317480 0.521356
vt 0.332339 0.659529
vt 0.354670 0.571201
vt 0.090434 0.365836
vt 0.395345 0.992900
vt 0.395345 0.659529
vt 0.415677 0.632212
vt 0.479013 0.992900
vt 0.173768 0.354671
vt 0.479013 0.659529
vt 0.499016 0.643378
vt 0.562310 0.992900
vt 0.257101 0.354671
vt 0.562310 0.659529
vt 0.582354 0.643378
vt 0.618817 0.665710
vt 0.007100 0.007100
vt 0.279371 0.665710
vt 0.162619 0.340471
vt 0.604617 0.487859
vt 0.584541 0.657578
vt 0.318139 0.340471
vt 0.604617 0.643378
vt 0.584541 0.990949
vt 0.279371 0.354671
vt 0.318139 0.007100
vt 0.595345 0.486376
vt 0.550199 0.487071
vt 0.641049 0.667661
vt 0.257101 0.665710
vt 0.641049 0.334290
vt 0.582354 0.332339
vt 0.332339 0.007100
vt 0.796996 0.007100
vt 0.724345 0.641979
vt 0.724345 0.358199
vt 0.616119 0.007100
vt 0.977863 0.318139
vt 0.808013 0.358199
vt 0.894530 0.306973
vt 0.808013 0.641979
vt 0.713658 0.018266
vt 0.871019 0.358199
vt 0.293572 0.354671
vt 0.833525 0.245962
vt 0.007100 0.846595
vt 0.871019 0.641979
vt 0.652650 0.079277
vt 0.293572 0.438013
vt 0.811196 0.162619
vt 0.007100 0.763252
vt 0.630319 0.162619
vt 0.293572 0.521356
vt 0.332339 0.683438
vt 0.833525 0.079277
vt 0.332339 0.967218
vt 0.007100 0.679910
vt 0.652650 0.245962
vt 0.395345 0.683438
vt 0.894530 0.018266
vt 0.395345 0.967218
vt 0.713658 0.306973
vt 0.479013 0.683438
vt 0.616119 0.318139
vt 0.977863 0.007100
vt 0.479013 0.967218
vt 0.332339 0.318139
vt 0.796996 0.318139
vt 0.562310 0.683438
vt 0.562310 0.967218
vt 0.402686 0.489341
vt 0.354669 0.487859
vt 0.173768 0.510190
vt 0.090434 0.510190
vt 0.257101 0.510190
vt 0.029429 0.510190
vt 0.641049 0.358199
vt 0.641049 0.641979
vt 0.652650 0.162619
vt 0.713658 0.162619
vt 0.894530 0.162620
vt 0.616119 0.162619
vt 0.977863 0.162620
vt 0.332339 0.162619
vt 0.796996 0.162619
vt 0.833525 0.162619
vt 0.618817 0.332339
vt 0.604617 0.332339
vt 0.007100 0.340471
vt 0.584541 0.680231
vt 0.318139 0.317818
vt 0.584541 0.964011
vt 0.318139 0.034038
vt 0.162620 0.007100
vt 0.279371 0.510190
vt 0.618817 0.354992
vt 0.007100 0.317818
vt 0.618817 0.638772
vt 0.007100 0.034038
vt 0.162619 0.317818
vt 0.162620 0.034038
vt 0.568179 0.554929
vt 0.500498 0.584193
vt 0.257101 0.432430
vt 0.029429 0.468519
vt 0.354669 0.529530
vt 0.431949 0.557026
vt 0.090434 0.438013
vt 0.173768 0.432430
vt 0.240379 0.340471
vt 0.604617 0.565618
vt 0.240379 0.007100
vt 0.279371 0.432430
vt 0.240379 0.317818
vt 0.240379 0.034038
vt 0.429852 0.420788
vt 0.354669 0.446187
vt 0.173768 0.587950
vt 0.090434 0.582367
vt 0.029429 0.551861
vt 0.497533 0.391524
vt 0.566083 0.418691
vt 0.257101 0.587950
vt 0.084860 0.340471
vt 0.604617 0.410099
vt 0.084860 0.007100
vt 0.279371 0.587950
vt 0.084860 0.317818
vt 0.084860 0.034038
vt 0.447833 0.488646
vt 0.535765 0.523495
vt 0.499804 0.539044
vt 0.463381 0.524609
vt 0.462267 0.452222
vt 0.498228 0.436673
vt 0.534651 0.451108
s 0
usemtl Cylinder.021_BAKED
f 26/57/1 2/3/1 4/7/1 27/60/1
f 27/60/2 4/7/2 6/12/2 29/64/2
f 29/65/3 6/13/3 8/17/3 31/70/3
f 31/70/4 8/17/4 10/22/4 33/74/4
f 33/75/5 10/23/5 12/27/5 35/80/5
f 35/80/6 12/27/6 14/31/6 37/84/6
f 37/84/7 14/31/7 16/35/7 39/90/7
f 76/138/8 75/137/8 41/92/8 42/93/8
f 64/124/8 68/128/8 90/154/8 89/153/8
f 81/143/8 21/48/8 22/49/8 93/157/8
f 10/24/8 8/18/8 42/93/8 67/127/8
f 47/98/9 24/52/9 2/3/9 26/57/9
f 78/140/10 79/141/10 46/97/10 44/95/10
f 6/14/8 76/138/8 42/93/8 8/18/8
f 70/130/10 65/125/10 45/96/10 43/94/10
f 77/139/10 78/140/10 44/95/10 43/94/10
f 23/50/9 48/99/9 25/56/9 1/1/9
f 48/99/9 47/98/9 26/57/9 25/56/9
f 69/129/10 66/126/10 9/21/10 11/25/10
f 67/127/8 68/128/8 12/28/8 10/24/8
f 68/128/8 64/124/8 14/32/8 12/28/8
f 81/143/8 80/142/8 2/4/8 24/53/8
f 77/139/10 82/144/10 23/51/10 1/2/10
f 70/130/10 69/129/10 11/25/10 13/30/10
f 13/29/7 38/87/7 40/91/7 15/33/7
f 38/87/7 37/84/7 39/90/7 40/91/7
f 11/26/6 36/82/6 38/87/6 13/29/6
f 25/54/11 26/58/11 52/103/11 53/105/11
f 9/19/5 34/77/5 36/82/5 11/26/5
f 51/102/10 54/107/10 33/76/10 35/81/10
f 7/15/4 32/72/4 34/78/4 9/20/4
f 49/100/8 50/101/8 36/83/8 34/79/8
f 5/9/3 30/67/3 32/72/3 7/15/3
f 50/101/8 28/63/8 25/55/8 53/106/8
f 3/5/2 28/62/2 30/68/2 5/10/2
f 51/102/10 52/104/10 26/59/10 27/61/10
f 1/1/1 25/56/1 28/62/1 3/5/1
f 53/105/11 52/103/11 37/85/11 38/88/11
f 35/81/10 37/86/10 52/104/10 51/102/10
f 36/83/8 50/101/8 53/106/8 38/89/8
f 30/69/8 28/63/8 50/101/8 49/100/8
f 27/61/10 29/66/10 54/107/10 51/102/10
f 29/66/10 31/71/10 54/107/10
f 33/76/10 54/107/10 31/71/10
f 30/69/8 49/100/8 32/73/8
f 32/73/8 49/100/8 34/79/8
f 7/16/10 46/97/10 79/141/10 5/11/10
f 9/21/10 66/126/10 46/97/10 7/16/10
f 40/91/7 39/90/7 56/111/7 57/113/7
f 24/52/9 47/98/9 59/117/9 55/108/9
f 15/33/7 40/91/7 57/113/7 20/45/7
f 63/123/12 21/48/12 18/41/12 71/132/12
f 47/98/9 48/99/9 60/119/9 59/117/9
f 81/143/13 24/53/13 55/109/13 83/146/13
f 65/125/14 15/34/14 20/46/14 72/134/14
f 82/144/14 45/96/14 58/116/14 84/148/14
f 48/99/9 23/50/9 17/37/9 60/119/9
f 39/90/7 16/35/7 19/42/7 56/111/7
f 86/150/15 85/149/15 59/118/15 60/120/15
f 74/136/15 73/135/15 61/121/15 62/122/15
f 86/150/15 84/147/15 58/115/15 62/122/15
f 74/136/15 62/122/15 58/115/15 72/133/15
f 85/149/15 61/121/15 18/40/15 83/145/15
f 71/131/15 73/135/15 56/112/15 19/43/15
f 18/40/15 61/121/15 73/135/15 71/131/15
f 57/114/15 74/136/15 72/133/15 20/47/15
f 57/114/15 56/112/15 73/135/15 74/136/15
f 45/96/14 65/125/14 72/134/14 58/116/14
f 16/36/16 63/123/16 71/132/16 19/44/16
f 43/94/10 44/95/10 69/129/10 70/130/10
f 63/123/8 64/124/8 89/153/8 88/152/8
f 42/93/8 41/92/8 68/128/8 67/127/8
f 44/95/10 46/97/10 66/126/10 69/129/10
f 13/30/10 15/34/10 65/125/10 70/130/10
f 16/36/8 14/32/8 64/124/8 63/123/8
f 59/118/15 85/149/15 83/145/15 55/110/15
f 60/120/15 17/38/15 84/147/15 86/150/15
f 62/122/15 61/121/15 85/149/15 86/150/15
f 23/51/14 82/144/14 84/148/14 17/39/14
f 21/48/17 81/143/17 83/146/17 18/41/17
f 43/94/10 45/96/10 82/144/10 77/139/10
f 75/137/8 80/142/8 92/156/8 91/155/8
f 1/2/10 3/6/10 78/140/10 77/139/10
f 3/6/10 5/11/10 79/141/10 78/140/10
f 4/8/8 2/4/8 80/142/8 75/137/8
f 6/14/8 4/8/8 75/137/8 76/138/8
f 41/92/8 75/137/8 91/155/8 87/151/8
f 68/128/8 41/92/8 87/151/8 90/154/8
f 21/48/8 63/123/8 88/152/8 22/49/8
f 80/142/8 81/143/8 93/157/8 92/156/8
f 89/153/8 90/154/8 87/151/8 91/155/8 92/156/8 93/157/8 22/49/8 88/152/8
