# Blender 3.4.0
# www.blender.org
mtllib Cylinder_020.mtl
o Cylinder.020
v 4.136218 -0.400969 2.385611
v 4.582382 -0.400969 2.385611
v 4.136218 -0.513447 2.400680
v 4.582382 -0.513447 2.400680
v 4.136218 -0.595786 2.483020
v 4.582382 -0.595786 2.483020
v 4.136218 -0.625925 2.595498
v 4.582382 -0.625925 2.595498
v 4.136218 -0.595786 2.707976
v 4.582382 -0.595786 2.707976
v 4.136218 -0.513447 2.790316
v 4.582382 -0.513447 2.790316
v 4.136218 -0.400969 2.805385
v 4.582382 -0.400969 2.805385
v 4.136218 -0.288491 2.805385
v 4.582382 -0.288491 2.805385
v 4.138829 -0.153145 2.385611
v 4.584993 -0.153145 2.595498
v 4.584993 -0.153145 2.805385
v 4.138829 -0.153145 2.805385
v 4.582382 -0.270957 2.593497
v 4.582382 -0.331889 2.594435
v 4.136218 -0.288490 2.385611
v 4.582382 -0.288490 2.385611
v 4.170588 -0.400969 2.385611
v 4.550384 -0.400969 2.385611
v 4.550384 -0.513447 2.400680
v 4.170588 -0.513447 2.400680
v 4.550384 -0.595786 2.483020
v 4.170588 -0.595786 2.483020
v 4.550384 -0.625925 2.595498
v 4.170588 -0.625925 2.595498
v 4.550384 -0.595786 2.707976
v 4.170588 -0.595786 2.707976
v 4.550384 -0.513447 2.790316
v 4.170588 -0.513447 2.790316
v 4.550384 -0.400969 2.805385
v 4.170588 -0.400969 2.805385
v 4.550384 -0.288491 2.805385
v 4.170588 -0.288491 2.805385
v 4.582382 -0.530980 2.597499
v 4.582382 -0.595786 2.595498
v 4.136218 -0.400969 2.595498
v 4.136218 -0.513447 2.595498
v 4.136218 -0.288491 2.595498
v 4.136218 -0.595786 2.595498
v 4.550384 -0.288490 2.385611
v 4.170588 -0.288490 2.385611
v 4.170588 -0.595786 2.595498
v 4.170588 -0.513447 2.595498
v 4.550384 -0.513447 2.595498
v 4.550384 -0.400969 2.595498
v 4.170588 -0.400969 2.595498
v 4.550384 -0.595786 2.595498
v 4.584993 -0.153145 2.385611
v 4.554677 -0.153145 2.805385
v 4.174881 -0.153145 2.805385
v 4.138829 -0.153145 2.595498
v 4.554677 -0.153145 2.385611
v 4.174881 -0.153145 2.385611
v 4.554677 -0.153145 2.595498
v 4.174881 -0.153145 2.595498
v 4.582382 -0.307622 2.686016
v 4.582382 -0.398968 2.725510
v 4.136218 -0.288491 2.700442
v 4.136218 -0.595786 2.651737
v 4.582382 -0.595786 2.651737
v 4.582382 -0.491486 2.688845
v 4.136218 -0.513447 2.692907
v 4.136218 -0.400969 2.700442
v 4.584993 -0.153145 2.700442
v 4.138829 -0.153145 2.700442
v 4.554677 -0.153145 2.700442
v 4.174881 -0.153145 2.700442
v 4.582382 -0.494316 2.504981
v 4.582382 -0.595786 2.539259
v 4.136218 -0.400969 2.490555
v 4.136218 -0.513447 2.498089
v 4.136218 -0.595786 2.539259
v 4.582382 -0.402969 2.465486
v 4.582382 -0.310451 2.502151
v 4.136218 -0.288490 2.490555
v 4.584993 -0.153145 2.490555
v 4.138829 -0.153145 2.490555
v 4.554677 -0.153145 2.490555
v 4.174881 -0.153145 2.490555
v 4.582382 -0.470048 2.596561
v 4.582382 -0.351370 2.643593
v 4.582382 -0.399906 2.664578
v 4.582382 -0.449064 2.645097
v 4.582382 -0.450567 2.547403
v 4.582382 -0.402032 2.526418
v 4.582382 -0.352874 2.545900
v 4.610659 -0.399906 2.664578
v 4.610659 -0.449064 2.645097
v 4.610659 -0.470048 2.596561
v 4.610659 -0.307622 2.686016
v 4.610659 -0.270957 2.593497
v 4.610659 -0.450567 2.547403
v 4.610659 -0.494316 2.504981
v 4.610659 -0.530980 2.597499
v 4.610659 -0.491486 2.688845
v 4.610659 -0.398968 2.725510
v 4.610659 -0.351370 2.643593
v 4.610659 -0.331889 2.594435
v 4.610659 -0.310451 2.502151
v 4.610659 -0.402969 2.465486
v 4.610659 -0.352874 2.545900
v 4.610659 -0.402032 2.526418
v 4.678524 -0.399906 2.664578
v 4.678524 -0.449064 2.645097
v 4.678524 -0.470048 2.596561
v 4.678524 -0.307622 2.686016
v 4.678524 -0.270957 2.593497
v 4.678524 -0.450567 2.547403
v 4.678524 -0.494316 2.504981
v 4.678524 -0.530980 2.597499
v 4.678524 -0.491486 2.688845
v 4.678524 -0.398968 2.725510
v 4.678524 -0.351370 2.643593
v 4.678524 -0.331889 2.594435
v 4.678524 -0.310451 2.502151
v 4.678524 -0.402969 2.465486
v 4.678524 -0.352874 2.545900
v 4.678524 -0.402032 2.526418
v 4.170588 -0.288491 2.595498
v 4.550384 -0.288490 2.595498
v 4.644591 -0.491486 2.688845
v 4.644591 -0.530980 2.597499
v 4.644591 -0.494316 2.504981
v 4.644591 -0.402969 2.465486
v 4.644591 -0.398968 2.725510
v 4.644591 -0.307622 2.686016
v 4.644591 -0.270957 2.593497
v 4.644591 -0.310451 2.502151
v 4.610659 -0.291923 2.701238
v 4.610659 -0.249093 2.593161
v 4.610659 -0.510014 2.489758
v 4.610659 -0.552845 2.597835
v 4.610659 -0.506708 2.704543
v 4.610659 -0.398631 2.747374
v 4.610659 -0.295229 2.486453
v 4.610659 -0.403306 2.443622
v 4.644591 -0.503956 2.701705
v 4.644591 -0.548891 2.597775
v 4.644591 -0.507175 2.492511
v 4.644591 -0.398692 2.743420
v 4.644591 -0.294762 2.698485
v 4.644591 -0.297982 2.489292
v 4.644591 -0.403245 2.447576
v 4.644591 -0.253047 2.593222
v 4.681626 -0.489720 2.509437
v 4.681626 -0.402871 2.471888
v 4.681626 -0.312218 2.681559
v 4.681626 -0.399066 2.719109
v 4.681626 -0.314908 2.506747
v 4.681626 -0.277358 2.593596
v 4.681626 -0.487029 2.684249
v 4.681626 -0.524579 2.597400
v 4.681626 -0.402144 2.519142
v 4.681626 -0.399794 2.671854
v 4.681626 -0.324613 2.594323
v 4.681626 -0.454129 2.650321
v 4.681626 -0.455791 2.542337
v 4.681626 -0.346146 2.648659
v 4.681626 -0.347808 2.540676
v 4.681626 -0.477324 2.596673
v 4.635780 -0.506708 2.704543
v 4.635780 -0.552845 2.597835
v 4.635780 -0.510014 2.489758
v 4.635780 -0.398631 2.747374
v 4.635780 -0.291923 2.701238
v 4.635780 -0.295229 2.486453
v 4.635780 -0.403306 2.443622
v 4.635780 -0.249093 2.593161
v 4.173890 -0.184401 2.805385
v 4.553685 -0.184401 2.805385
v 4.584391 -0.184401 2.385611
v 4.553685 -0.184401 2.385611
v 4.138226 -0.184401 2.805385
v 4.584391 -0.184401 2.805385
v 4.584391 -0.180352 2.595036
v 4.173890 -0.184401 2.385611
v 4.138226 -0.184401 2.595498
v 4.138226 -0.184401 2.385611
v 4.138226 -0.184401 2.700442
v 4.584391 -0.188819 2.697110
v 4.138226 -0.184401 2.490555
v 4.584391 -0.189472 2.493233
v 4.582382 -0.400287 2.639798
v 4.582382 -0.431811 2.627305
v 4.582382 -0.445269 2.596180
v 4.582382 -0.432775 2.564655
v 4.582382 -0.369162 2.626341
v 4.582382 -0.356669 2.594816
v 4.582382 -0.370126 2.563691
v 4.582382 -0.401650 2.551198
v 4.675581 -0.400287 2.639798
v 4.675581 -0.431811 2.627305
v 4.675581 -0.445269 2.596180
v 4.675581 -0.432775 2.564655
v 4.675581 -0.369162 2.626341
v 4.675581 -0.356669 2.594816
v 4.675581 -0.370126 2.563691
v 4.675581 -0.401650 2.551198
v 4.678439 -0.400389 2.633133
v 4.678439 -0.427171 2.622520
v 4.678439 -0.438604 2.596077
v 4.678439 -0.427990 2.569296
v 4.678439 -0.373947 2.621701
v 4.678439 -0.363333 2.594919
v 4.678439 -0.374766 2.568476
v 4.678439 -0.401548 2.557863
v 4.678439 -0.400619 2.618205
v 4.678439 -0.416778 2.611802
v 4.678439 -0.423676 2.595848
v 4.678439 -0.417272 2.579689
v 4.678439 -0.384665 2.611307
v 4.678439 -0.378262 2.595149
v 4.678439 -0.385159 2.579195
v 4.678439 -0.401318 2.572791
v 4.676783 -0.400675 2.614607
v 4.676783 -0.414272 2.609218
v 4.676783 -0.420077 2.595792
v 4.676783 -0.414688 2.582194
v 4.676783 -0.387249 2.608802
v 4.676783 -0.381860 2.595204
v 4.676783 -0.387665 2.581778
v 4.676783 -0.401263 2.576390
v 4.649652 -0.400675 2.614607
v 4.649652 -0.414272 2.609218
v 4.649652 -0.420077 2.595792
v 4.649652 -0.414688 2.582194
v 4.649652 -0.387249 2.608802
v 4.649652 -0.381860 2.595204
v 4.649652 -0.387665 2.581778
v 4.649652 -0.401263 2.576390
vn -0.0000 -0.1328 -0.9911
vn -0.0000 -0.7071 -0.7071
vn -0.0000 -0.9659 -0.2588
vn -0.0000 -0.9659 0.2588
vn -0.0000 -0.7071 0.7071
vn -0.0000 -0.1328 0.9911
vn -0.0000 -0.0000 1.0000
vn 1.0000 -0.0000 -0.0000
vn -0.0000 0.3684 -0.9297
vn -0.0000 -0.9179 0.3969
vn -0.0000 -0.0000 -1.0000
vn -1.0000 -0.0000 -0.0000
vn -0.0000 -1.0000 -0.0000
vn 0.9998 -0.0191 -0.0008
vn 0.9998 -0.0179 -0.0004
vn -0.9998 0.0193 -0.0000
vn -0.0000 1.0000 -0.0000
vn 0.9998 -0.0180 0.0004
vn -0.0000 0.3969 0.9179
vn 0.9998 -0.0190 0.0008
vn -0.0000 -0.3684 0.9297
vn -0.0000 -0.9297 -0.3684
vn -0.0000 -0.3969 -0.9179
vn -0.0000 0.9179 -0.3969
vn -0.0000 0.9297 0.3684
vn 0.9080 0.1544 -0.3895
vn 0.9080 -0.3846 0.1663
vn 0.9080 -0.1663 -0.3846
vn 0.9080 0.1663 0.3846
vn 0.9080 0.3895 0.1544
vn 0.9080 0.3846 -0.1663
vn 0.9080 -0.3895 -0.1544
vn 0.9080 -0.1544 0.3895
vn 0.3830 0.3403 -0.8588
vn 0.3830 0.8588 0.3403
vn 0.3830 0.8479 -0.3666
vn 0.3830 -0.3666 -0.8479
vn 0.3830 -0.8588 -0.3403
vn 0.3830 -0.8479 0.3666
vn 0.3830 -0.3403 0.8588
vn 0.3830 0.3666 0.8479
vn 0.8856 0.1711 -0.4318
vn 0.8856 0.4318 0.1711
vn 0.8856 -0.4264 0.1843
vn 0.8856 -0.4318 -0.1711
vn 0.8856 -0.1843 -0.4264
vn 0.8856 0.1843 0.4264
vn 0.8856 0.4264 -0.1843
vn 0.8856 -0.1711 0.4318
vn 0.9998 -0.0188 0.0047
vn 0.9998 -0.0181 0.0019
vn 0.9998 -0.0179 -0.0022
vn 0.9998 -0.0189 -0.0044
vn 0.9071 0.1671 0.3864
vn 0.9071 -0.3914 -0.1551
vn 0.9071 -0.1551 0.3914
vn 0.9071 -0.1671 -0.3864
vn 0.9071 0.3864 -0.1671
vn 0.9071 0.3914 0.1551
vn 0.9071 -0.3864 0.1671
vn 0.9071 0.1551 -0.3914
vn 0.8951 -0.4092 0.1769
vn 0.8951 -0.4145 -0.1643
vn 0.8951 0.4092 -0.1769
vn 0.8951 -0.1643 0.4145
vn 0.8951 -0.1769 -0.4092
vn 0.8951 0.4145 0.1643
vn 0.8951 0.1643 -0.4145
vn 0.8951 0.1769 0.4092
s 0
usemtl blue
f 26//1 2//1 4//1 27//1
f 27//2 4//2 6//2 29//2
f 29//3 6//3 8//3 31//3
f 31//4 8//4 10//4 33//4
f 33//5 10//5 12//5 35//5
f 35//6 12//6 14//6 37//6
f 37//7 14//7 16//7 39//7
f 76//8 75//8 41//8 42//8
f 90//9 89//9 94//9 95//9
f 68//10 41//10 101//10 102//10
f 10//8 8//8 42//8 67//8
f 47//11 24//11 2//11 26//11
f 78//12 79//12 46//12 44//12
f 6//8 76//8 42//8 8//8
f 70//12 65//12 45//12 43//12
f 77//12 78//12 44//12 43//12
f 23//11 48//11 25//11 1//11
f 47//12 26//12 52//12 127//12
f 69//12 66//12 9//12 11//12
f 67//8 68//8 12//8 10//8
f 68//8 64//8 14//8 12//8
f 81//8 80//8 2//8 24//8
f 77//12 82//12 23//12 1//12
f 70//12 69//12 11//12 13//12
f 13//7 38//7 40//7 15//7
f 52//12 37//12 39//12 127//12
f 11//6 36//6 38//6 13//6
f 48//13 47//13 127//13 126//13
f 9//5 34//5 36//5 11//5
f 51//12 54//12 33//12 35//12
f 7//4 32//4 34//4 9//4
f 49//8 50//8 36//8 34//8
f 5//3 30//3 32//3 7//3
f 50//8 28//8 25//8 53//8
f 3//2 28//2 30//2 5//2
f 51//12 52//12 26//12 27//12
f 1//1 25//1 28//1 3//1
f 126//13 127//13 39//13 40//13
f 35//12 37//12 52//12 51//12
f 36//8 50//8 53//8 38//8
f 30//8 28//8 50//8 49//8
f 27//12 29//12 54//12 51//12
f 29//12 31//12 54//12
f 33//12 54//12 31//12
f 30//8 49//8 32//8
f 32//8 49//8 34//8
f 7//12 46//12 79//12 5//12
f 9//12 66//12 46//12 7//12
f 176//7 177//7 56//7 57//7
f 178//11 179//11 59//11 55//11
f 180//7 176//7 57//7 20//7
f 187//14 182//14 18//14 71//14
f 179//11 183//11 60//11 59//11
f 189//15 178//15 55//15 83//15
f 186//16 180//16 20//16 72//16
f 188//16 184//16 58//16 84//16
f 183//11 185//11 17//11 60//11
f 177//7 181//7 19//7 56//7
f 86//17 85//17 59//17 60//17
f 74//17 73//17 61//17 62//17
f 86//17 84//17 58//17 62//17
f 74//17 62//17 58//17 72//17
f 85//17 61//17 18//17 83//17
f 71//17 73//17 56//17 19//17
f 18//17 61//17 73//17 71//17
f 57//17 74//17 72//17 20//17
f 57//17 56//17 73//17 74//17
f 184//16 186//16 72//16 58//16
f 181//18 187//18 71//18 19//18
f 43//12 44//12 69//12 70//12
f 92//19 91//19 99//19 109//19
f 42//8 41//8 68//8 67//8
f 44//12 46//12 66//12 69//12
f 13//12 15//12 65//12 70//12
f 16//8 14//8 64//8 63//8
f 59//17 85//17 83//17 55//17
f 60//17 17//17 84//17 86//17
f 62//17 61//17 85//17 86//17
f 185//16 188//16 84//16 17//16
f 182//20 189//20 83//20 18//20
f 43//12 45//12 82//12 77//12
f 80//9 81//9 106//9 107//9
f 1//12 3//12 78//12 77//12
f 3//12 5//12 79//12 78//12
f 4//8 2//8 80//8 75//8
f 6//8 4//8 75//8 76//8
f 93//21 92//21 109//21 108//21
f 64//21 68//21 102//21 103//21
f 22//10 93//10 108//10 105//10
f 41//22 75//22 100//22 101//22
f 22//8 88//8 194//8 195//8
f 133//19 132//19 119//19 113//19
f 108//21 109//21 125//21 124//21
f 132//21 128//21 118//21 119//21
f 105//10 108//10 124//10 121//10
f 128//10 129//10 117//10 118//10
f 94//23 104//23 120//23 110//23
f 129//22 130//22 116//22 117//22
f 130//23 131//23 123//23 116//23
f 88//22 22//22 105//22 104//22
f 87//24 90//24 95//24 96//24
f 81//24 21//24 98//24 106//24
f 75//23 80//23 107//23 100//23
f 63//19 64//19 103//19 97//19
f 21//25 63//25 97//25 98//25
f 91//25 87//25 96//25 99//25
f 89//23 88//23 104//23 94//23
f 161//26 163//26 111//26 110//26
f 166//27 162//27 121//27 124//27
f 165//28 161//28 110//28 120//28
f 164//29 160//29 125//29 115//29
f 167//30 164//30 115//30 112//30
f 163//31 167//31 112//31 111//31
f 162//32 165//32 120//32 121//32
f 160//33 166//33 124//33 125//33
f 95//9 94//9 110//9 111//9
f 109//19 99//19 115//19 125//19
f 104//22 105//22 121//22 120//22
f 96//24 95//24 111//24 112//24
f 135//24 134//24 114//24 122//24
f 134//25 133//25 113//25 114//25
f 131//9 135//9 122//9 123//9
f 99//25 96//25 112//25 115//25
f 40//8 38//8 53//8 126//8
f 126//8 53//8 25//8 48//8
f 98//12 97//12 136//12 137//12
f 106//12 98//12 137//12 142//12
f 132//8 133//8 148//8 147//8
f 128//8 132//8 147//8 144//8
f 97//12 103//12 141//12 136//12
f 129//8 128//8 144//8 145//8
f 130//8 129//8 145//8 146//8
f 103//12 102//12 140//12 141//12
f 174//34 173//34 149//34 150//34
f 175//35 172//35 148//35 151//35
f 173//36 175//36 151//36 149//36
f 170//37 174//37 150//37 146//37
f 169//38 170//38 146//38 145//38
f 168//39 169//39 145//39 144//39
f 171//40 168//40 144//40 147//40
f 172//41 171//41 147//41 148//41
f 135//8 131//8 150//8 149//8
f 107//12 106//12 142//12 143//12
f 133//8 134//8 151//8 148//8
f 100//12 107//12 143//12 138//12
f 134//8 135//8 149//8 151//8
f 101//12 100//12 138//12 139//12
f 102//12 101//12 139//12 140//12
f 131//8 130//8 146//8 150//8
f 123//42 122//42 156//42 153//42
f 114//43 113//43 154//43 157//43
f 118//44 117//44 159//44 158//44
f 117//45 116//45 152//45 159//45
f 116//46 123//46 153//46 152//46
f 113//47 119//47 155//47 154//47
f 122//48 114//48 157//48 156//48
f 119//49 118//49 158//49 155//49
f 153//8 156//8 166//8 160//8
f 157//8 154//8 165//8 162//8
f 158//8 159//8 167//8 163//8
f 159//8 152//8 164//8 167//8
f 152//8 153//8 160//8 164//8
f 154//8 155//8 161//8 165//8
f 156//8 157//8 162//8 166//8
f 155//8 158//8 163//8 161//8
f 136//19 141//19 171//19 172//19
f 141//21 140//21 168//21 171//21
f 140//10 139//10 169//10 168//10
f 139//22 138//22 170//22 169//22
f 138//23 143//23 174//23 170//23
f 142//24 137//24 175//24 173//24
f 137//25 136//25 172//25 175//25
f 143//9 142//9 173//9 174//9
f 21//50 81//50 189//50 182//50
f 23//16 82//16 188//16 185//16
f 16//51 63//51 187//51 181//51
f 45//16 65//16 186//16 184//16
f 39//7 16//7 181//7 177//7
f 48//11 23//11 185//11 183//11
f 82//16 45//16 184//16 188//16
f 65//16 15//16 180//16 186//16
f 81//52 24//52 178//52 189//52
f 47//11 48//11 183//11 179//11
f 63//53 21//53 182//53 187//53
f 15//7 40//7 176//7 180//7
f 24//11 47//11 179//11 178//11
f 40//7 39//7 177//7 176//7
f 193//23 197//23 205//23 201//23
f 92//8 93//8 196//8 197//8
f 87//8 91//8 193//8 192//8
f 88//8 89//8 190//8 194//8
f 90//8 87//8 192//8 191//8
f 91//8 92//8 197//8 193//8
f 93//8 22//8 195//8 196//8
f 89//8 90//8 191//8 190//8
f 202//54 198//54 206//54 210//54
f 196//24 195//24 203//24 204//24
f 195//25 194//25 202//25 203//25
f 191//10 192//10 200//10 199//10
f 197//9 196//9 204//9 205//9
f 194//19 190//19 198//19 202//19
f 192//22 193//22 201//22 200//22
f 190//21 191//21 199//21 198//21
f 213//8 212//8 220//8 221//8
f 200//55 201//55 209//55 208//55
f 198//56 199//56 207//56 206//56
f 201//57 205//57 213//57 209//57
f 204//58 203//58 211//58 212//58
f 203//59 202//59 210//59 211//59
f 199//60 200//60 208//60 207//60
f 205//61 204//61 212//61 213//61
f 220//62 219//62 227//62 228//62
f 210//8 206//8 214//8 218//8
f 208//8 209//8 217//8 216//8
f 206//8 207//8 215//8 214//8
f 209//8 213//8 221//8 217//8
f 212//8 211//8 219//8 220//8
f 211//8 210//8 218//8 219//8
f 207//8 208//8 216//8 215//8
f 222//9 223//9 231//9 230//9
f 219//63 218//63 226//63 227//63
f 215//64 216//64 224//64 223//64
f 221//65 220//65 228//65 229//65
f 218//66 214//66 222//66 226//66
f 216//67 217//67 225//67 224//67
f 214//68 215//68 223//68 222//68
f 217//69 221//69 229//69 225//69
f 230//8 231//8 232//8 233//8 237//8 236//8 235//8 234//8
f 225//19 229//19 237//19 233//19
f 228//10 227//10 235//10 236//10
f 227//22 226//22 234//22 235//22
f 223//24 224//24 232//24 231//24
f 229//21 228//21 236//21 237//21
f 226//23 222//23 230//23 234//23
f 224//25 225//25 233//25 232//25
