# Blender 3.4.0
# www.blender.org
mtllib Plane_030.mtl
o Plane.030
v 0.202497 6.221329 1.814104
v 0.201227 6.436568 1.819711
v 0.202497 6.221329 1.645900
v 0.201227 6.436568 1.640294
v 0.197652 7.155645 1.819711
v 0.197652 7.155645 1.640294
v 0.066043 7.094429 1.819711
v 0.066043 7.094429 1.640294
v 0.052885 6.925545 1.814104
v 0.052885 6.925545 1.645900
v 0.206134 6.878871 1.640294
v 0.206134 6.878871 1.819711
v 0.221481 7.068343 1.819711
v 0.221481 7.068343 1.640294
v 0.130354 7.165325 1.640294
v 0.130354 7.165325 1.819711
v 0.201211 6.204509 1.696362
v 0.201211 6.204509 1.763643
v 0.198657 6.436621 1.763643
v 0.198657 6.436621 1.696362
v 0.196267 7.153872 1.763643
v 0.196267 7.153872 1.696362
v 0.068021 7.093100 1.763643
v 0.068021 7.093100 1.696362
v 0.054270 6.902047 1.763643
v 0.054270 6.902047 1.696362
v 0.203574 6.879086 1.763643
v 0.203574 6.879086 1.696362
v 0.219076 7.068058 1.763643
v 0.219076 7.068058 1.696362
v 0.130837 7.163086 1.763643
v 0.130837 7.163086 1.696362
v 0.210218 6.221329 1.814104
v 0.211508 6.436353 1.819711
v 0.210218 6.221329 1.645900
v 0.211508 6.436353 1.640294
v 0.203192 7.162739 1.819711
v 0.203192 7.162739 1.640294
v 0.058131 7.099749 1.819711
v 0.058131 7.099749 1.640294
v 0.045558 6.926913 1.814104
v 0.045558 6.926913 1.645900
v 0.216374 6.878013 1.640294
v 0.216374 6.878013 1.819711
v 0.231097 7.069484 1.819711
v 0.231097 7.069484 1.640294
v 0.128420 7.174282 1.640294
v 0.128420 7.174282 1.819711
v 0.211505 6.204509 1.696362
v 0.211505 6.204509 1.763643
v 0.214078 6.436299 1.763643
v 0.214078 6.436299 1.696362
v 0.204577 7.164513 1.763643
v 0.204577 7.164513 1.696362
v 0.056153 7.101078 1.763643
v 0.056153 7.101078 1.696362
v 0.044369 6.903414 1.763643
v 0.044369 6.903414 1.696362
v 0.218934 6.877798 1.763643
v 0.218934 6.877798 1.696362
v 0.233502 7.069769 1.763643
v 0.233502 7.069769 1.696362
v 0.127937 7.176521 1.763643
v 0.127937 7.176521 1.696362
v 0.201431 6.207390 1.795155
v 0.201433 6.286158 1.818751
v 0.198979 6.436615 1.664123
v 0.201433 6.286158 1.641254
v 0.196440 7.154093 1.664123
v 0.201866 6.663330 1.640294
v 0.216092 7.119148 1.819711
v 0.067774 7.093266 1.664123
v 0.167375 7.169202 1.640294
v 0.093364 7.147182 1.819711
v 0.054031 6.906067 1.664849
v 0.055064 6.999119 1.641254
v 0.055064 6.999119 1.818751
v 0.215323 7.003698 1.640294
v 0.201866 6.663330 1.819711
v 0.203894 6.879059 1.664123
v 0.215323 7.003698 1.819711
v 0.216092 7.119148 1.640294
v 0.219377 7.068094 1.664123
v 0.093364 7.147182 1.640294
v 0.167375 7.169202 1.819711
v 0.130777 7.163366 1.664123
v 0.201431 6.207390 1.664849
v 0.201211 6.204509 1.730002
v 0.198979 6.436615 1.795882
v 0.198657 6.436621 1.730002
v 0.196440 7.154093 1.795882
v 0.196267 7.153872 1.730002
v 0.067774 7.093266 1.795882
v 0.068021 7.093100 1.730002
v 0.054031 6.906067 1.795155
v 0.054270 6.902047 1.730002
v 0.203894 6.879059 1.795882
v 0.203574 6.879086 1.730002
v 0.219377 7.068094 1.795882
v 0.219076 7.068058 1.730002
v 0.130777 7.163366 1.795882
v 0.130837 7.163086 1.730002
v 0.166886 7.166997 1.696362
v 0.166886 7.166997 1.763643
v 0.212780 7.003810 1.696362
v 0.212780 7.003810 1.763643
v 0.199302 6.663484 1.696362
v 0.199302 6.663484 1.763643
v 0.057329 6.995399 1.696362
v 0.057329 6.995399 1.763643
v 0.094705 7.145282 1.696362
v 0.094705 7.145282 1.763643
v 0.214062 7.118128 1.696362
v 0.214062 7.118128 1.763643
v 0.198961 6.283984 1.763643
v 0.198961 6.283984 1.696362
v 0.211284 6.207390 1.795155
v 0.211285 6.286131 1.818751
v 0.213757 6.436306 1.664123
v 0.211285 6.286131 1.641254
v 0.204404 7.164291 1.664123
v 0.212121 6.662713 1.640294
v 0.224214 7.123227 1.819711
v 0.056400 7.100912 1.664123
v 0.169331 7.178020 1.640294
v 0.088002 7.154780 1.819711
v 0.044574 6.907444 1.664849
v 0.046151 7.002016 1.641254
v 0.046151 7.002016 1.818751
v 0.225496 7.003250 1.640294
v 0.212121 6.662713 1.819711
v 0.218614 6.877825 1.664123
v 0.225496 7.003250 1.819711
v 0.224214 7.123227 1.640294
v 0.233201 7.069734 1.664123
v 0.088002 7.154780 1.640294
v 0.169331 7.178020 1.819711
v 0.127997 7.176241 1.664123
v 0.211284 6.207390 1.664849
v 0.211505 6.204509 1.730002
v 0.213757 6.436306 1.795882
v 0.214078 6.436299 1.730002
v 0.204404 7.164291 1.795882
v 0.204577 7.164513 1.730002
v 0.056400 7.100912 1.795882
v 0.056153 7.101078 1.730002
v 0.044574 6.907444 1.795155
v 0.044369 6.903414 1.730002
v 0.218614 6.877825 1.795882
v 0.218934 6.877799 1.730002
v 0.233201 7.069734 1.795882
v 0.233502 7.069769 1.730002
v 0.127997 7.176241 1.795882
v 0.127937 7.176521 1.730002
v 0.169820 7.180225 1.696362
v 0.169820 7.180225 1.763643
v 0.228039 7.003138 1.696362
v 0.228039 7.003138 1.763643
v 0.214685 6.662559 1.696362
v 0.214685 6.662559 1.763643
v 0.043912 6.999644 1.696362
v 0.043912 6.999644 1.763643
v 0.086661 7.156680 1.696362
v 0.086661 7.156680 1.763643
v 0.226244 7.124247 1.696362
v 0.226244 7.124247 1.763643
v 0.213757 6.283944 1.763643
v 0.213757 6.283944 1.696362
v 0.206358 6.210271 1.817790
v 0.206368 6.436460 1.828121
v 0.206358 6.210271 1.642215
v 0.206368 6.436460 1.631884
v 0.200422 7.159192 1.828121
v 0.200422 7.159192 1.631884
v 0.062087 7.097089 1.828121
v 0.062087 7.097089 1.631884
v 0.049286 6.910781 1.817790
v 0.049286 6.910781 1.642215
v 0.211254 6.878442 1.631884
v 0.211254 6.878442 1.828121
v 0.226289 7.068913 1.828121
v 0.226289 7.068913 1.631884
v 0.129387 7.169804 1.631884
v 0.129387 7.169804 1.828121
v 0.206358 6.179278 1.696362
v 0.206358 6.179278 1.763643
v 0.049467 6.867483 1.763643
v 0.049467 6.867483 1.696362
v 0.199271 6.284528 1.664304
v 0.214316 7.118256 1.795882
v 0.094537 7.145519 1.795882
v 0.057042 6.996240 1.795701
v 0.199623 6.663465 1.795882
v 0.213098 7.003796 1.795882
v 0.166948 7.167273 1.795882
v 0.166948 7.167273 1.664123
v 0.166886 7.166997 1.730002
v 0.213098 7.003796 1.664123
v 0.212780 7.003810 1.730002
v 0.199623 6.663465 1.664123
v 0.199302 6.663484 1.730002
v 0.057042 6.996240 1.664304
v 0.057329 6.995399 1.730002
v 0.094537 7.145519 1.664123
v 0.094705 7.145282 1.730002
v 0.214316 7.118256 1.664123
v 0.214062 7.118128 1.730002
v 0.199271 6.284528 1.795701
v 0.198961 6.283984 1.730002
v 0.213447 6.284490 1.664304
v 0.225990 7.124119 1.795882
v 0.086828 7.156442 1.795882
v 0.044192 7.000325 1.795701
v 0.214365 6.662578 1.795882
v 0.227721 7.003152 1.795882
v 0.169759 7.179949 1.795882
v 0.169759 7.179950 1.664123
v 0.169820 7.180225 1.730002
v 0.227721 7.003152 1.664123
v 0.228039 7.003138 1.730002
v 0.214365 6.662578 1.664123
v 0.214685 6.662559 1.730002
v 0.044192 7.000325 1.664304
v 0.043912 6.999644 1.730002
v 0.086828 7.156443 1.664123
v 0.086661 7.156680 1.730002
v 0.225990 7.124119 1.664123
v 0.226244 7.124247 1.730002
v 0.213447 6.284490 1.795701
v 0.213757 6.283944 1.730002
v 0.206358 6.183172 1.795519
v 0.206359 6.285054 1.826823
v 0.206359 6.285054 1.633181
v 0.206994 6.663021 1.631884
v 0.220153 7.121188 1.828121
v 0.168353 7.173611 1.631884
v 0.090683 7.150981 1.828121
v 0.049444 6.872922 1.664486
v 0.050614 6.999044 1.633181
v 0.050614 6.999044 1.826823
v 0.220409 7.003474 1.631884
v 0.206994 6.663021 1.828121
v 0.220409 7.003474 1.828121
v 0.220153 7.121188 1.631884
v 0.090683 7.150981 1.631884
v 0.168353 7.173611 1.828121
v 0.206358 6.183172 1.664486
v 0.206358 6.179278 1.730002
v 0.049444 6.872922 1.795519
v 0.049467 6.867483 1.730002
vn -0.9931 -0.1168 -0.0089
vn -0.9999 -0.0152 -0.0049
vn -0.9986 -0.0147 -0.0499
vn -0.9858 -0.1327 -0.1029
vn -1.0000 0.0004 -0.0049
vn -0.9987 0.0004 -0.0519
vn -0.9488 -0.0003 -0.3158
vn -0.9446 -0.0229 -0.3273
vn -0.9417 -0.0812 -0.3265
vn -1.0000 -0.0012 0.0046
vn -0.9988 -0.0021 0.0482
vn -0.9595 -0.2780 0.0458
vn -0.9608 -0.2773 0.0044
vn -0.9538 -0.0052 0.3004
vn -0.9184 -0.2692 0.2900
vn -0.6604 -0.6875 0.3019
vn -0.6914 -0.7209 0.0471
vn -0.6922 -0.7217 0.0045
vn 0.2791 -0.9602 0.0044
vn 0.2783 -0.9594 0.0461
vn 0.7011 -0.7114 0.0481
vn 0.7018 -0.7123 0.0046
vn 0.2649 -0.9191 0.2916
vn 0.6691 -0.6770 0.3064
vn 0.9160 -0.2755 0.2918
vn 0.9567 -0.2871 0.0480
vn 0.9580 -0.2868 0.0047
vn 0.9962 -0.0713 0.0505
vn 0.9975 -0.0707 0.0052
vn 0.9503 -0.0829 0.3000
vn 0.9492 -0.0664 0.3076
vn 0.9892 -0.0998 0.1072
vn 0.9961 -0.0874 0.0091
vn -1.0000 0.0004 0.0049
vn -0.9987 0.0004 0.0519
vn -0.9986 0.0113 0.0519
vn -0.9999 0.0113 0.0050
vn -0.9488 -0.0003 0.3158
vn -0.9490 0.0108 0.3151
vn -0.9484 0.0444 0.3139
vn -0.9976 0.0467 0.0518
vn -0.9989 0.0467 0.0050
vn -0.9951 0.0850 0.0507
vn -0.9963 0.0855 0.0049
vn -0.9477 0.0797 0.3090
vn -0.1556 -0.9867 0.0465
vn -0.1554 -0.9878 0.0044
vn -0.1496 -0.9434 0.2961
vn -0.6604 -0.6875 -0.3019
vn -0.6914 -0.7209 -0.0471
vn -0.1556 -0.9867 -0.0465
vn -0.1496 -0.9434 -0.2961
vn -0.6922 -0.7217 -0.0045
vn -0.1554 -0.9878 -0.0044
vn 0.2791 -0.9602 -0.0044
vn 0.2783 -0.9594 -0.0461
vn 0.2649 -0.9191 -0.2916
vn -0.6922 -0.7217 -0.0000
vn -0.1554 -0.9879 -0.0000
vn 0.2792 -0.9602 -0.0000
vn -0.9484 0.0444 -0.3139
vn -0.9976 0.0467 -0.0518
vn -0.9951 0.0850 -0.0507
vn -0.9477 0.0797 -0.3090
vn -0.9989 0.0467 -0.0050
vn -0.9963 0.0855 -0.0049
vn -1.0000 -0.0012 -0.0046
vn -0.9988 -0.0021 -0.0482
vn -0.9538 -0.0052 -0.3004
vn -0.9989 0.0467 -0.0000
vn -0.9963 0.0856 -0.0000
vn -1.0000 -0.0011 -0.0000
vn -0.9986 0.0113 -0.0519
vn -0.9490 0.0108 -0.3151
vn -0.9999 0.0113 -0.0050
vn -1.0000 0.0004 -0.0000
vn -0.9999 0.0113 -0.0000
vn 0.9160 -0.2755 -0.2918
vn 0.9567 -0.2871 -0.0480
vn 0.9962 -0.0713 -0.0505
vn 0.9503 -0.0829 -0.3000
vn 0.9580 -0.2868 -0.0047
vn 0.9975 -0.0707 -0.0052
vn 0.9961 -0.0874 -0.0091
vn 0.9892 -0.0998 -0.1072
vn 0.9492 -0.0664 -0.3076
vn 0.9580 -0.2868 -0.0000
vn 0.9975 -0.0708 -0.0000
vn 0.9964 -0.0853 -0.0000
vn 0.7011 -0.7114 -0.0481
vn 0.6691 -0.6770 -0.3064
vn 0.7018 -0.7123 -0.0046
vn 0.7018 -0.7123 -0.0000
vn -0.9595 -0.2780 -0.0458
vn -0.9184 -0.2692 -0.2900
vn -0.9608 -0.2773 -0.0044
vn -0.9608 -0.2772 -0.0000
vn -0.9417 -0.0812 0.3265
vn -0.9446 -0.0229 0.3273
vn -0.9986 -0.0147 0.0499
vn -0.9858 -0.1327 0.1029
vn -0.9999 -0.0152 0.0049
vn -0.9931 -0.1168 0.0089
vn -0.9999 -0.0151 -0.0000
vn -0.9934 -0.1145 -0.0000
vn 0.9931 -0.1168 -0.0089
vn 0.9858 -0.1327 -0.1029
vn 0.9986 -0.0148 -0.0499
vn 0.9999 -0.0153 -0.0049
vn 0.9417 -0.0812 -0.3265
vn 0.9446 -0.0230 -0.3274
vn 0.9488 -0.0030 -0.3160
vn 0.9986 -0.0024 -0.0519
vn 1.0000 -0.0024 -0.0049
vn 0.9997 0.0252 0.0046
vn 0.9514 0.3079 0.0044
vn 0.9507 0.3068 0.0456
vn 0.9985 0.0244 0.0481
vn 0.6822 0.7311 0.0045
vn 0.6815 0.7303 0.0463
vn 0.6549 0.7028 0.2779
vn 0.9147 0.2939 0.2774
vn 0.9560 0.0213 0.2925
vn -0.2650 0.9642 0.0044
vn -0.6878 0.7259 0.0046
vn -0.6870 0.7251 0.0474
vn -0.2651 0.9631 0.0458
vn -0.9520 0.3061 0.0040
vn -0.9508 0.3065 0.0442
vn -0.9131 0.2961 0.2804
vn -0.6585 0.6971 0.2835
vn -0.2556 0.9256 0.2791
vn -0.9983 0.0574 0.0038
vn -0.9975 0.0578 0.0405
vn -0.9971 -0.0753 0.0083
vn -0.9910 -0.0890 0.1000
vn -0.9500 -0.0408 0.3097
vn -0.9533 0.0549 0.2970
vn 1.0000 -0.0024 0.0049
vn 0.9999 -0.0112 0.0050
vn 0.9986 -0.0112 0.0519
vn 0.9986 -0.0024 0.0519
vn 0.9989 -0.0461 0.0050
vn 0.9976 -0.0461 0.0519
vn 0.9477 -0.0438 0.3162
vn 0.9488 -0.0106 0.3158
vn 0.9488 -0.0030 0.3160
vn 0.9970 -0.0771 0.0049
vn 0.9957 -0.0774 0.0507
vn 0.9479 -0.0750 0.3097
vn 0.1674 0.9859 0.0044
vn 0.1670 0.9849 0.0459
vn 0.1603 0.9472 0.2775
vn 0.6549 0.7028 -0.2779
vn 0.1603 0.9472 -0.2775
vn 0.1670 0.9849 -0.0459
vn 0.6815 0.7303 -0.0463
vn -0.2556 0.9256 -0.2791
vn -0.2651 0.9631 -0.0458
vn -0.2650 0.9642 -0.0044
vn 0.1674 0.9859 -0.0044
vn 0.6822 0.7311 -0.0045
vn 0.1674 0.9859 -0.0000
vn 0.6823 0.7311 -0.0000
vn -0.2649 0.9643 -0.0000
vn 0.9477 -0.0438 -0.3162
vn 0.9479 -0.0750 -0.3097
vn 0.9957 -0.0774 -0.0507
vn 0.9976 -0.0461 -0.0519
vn 0.9560 0.0213 -0.2925
vn 0.9985 0.0244 -0.0481
vn 0.9997 0.0252 -0.0046
vn 0.9970 -0.0771 -0.0049
vn 0.9989 -0.0461 -0.0050
vn 0.9970 -0.0771 -0.0000
vn 0.9989 -0.0461 -0.0000
vn 0.9997 0.0253 -0.0000
vn 0.9488 -0.0106 -0.3158
vn 0.9986 -0.0112 -0.0519
vn 0.9999 -0.0112 -0.0050
vn 0.9999 -0.0112 -0.0000
vn 1.0000 -0.0024 -0.0000
vn -0.9131 0.2961 -0.2804
vn -0.9533 0.0549 -0.2970
vn -0.9975 0.0578 -0.0405
vn -0.9508 0.3065 -0.0442
vn -0.9500 -0.0408 -0.3097
vn -0.9910 -0.0890 -0.1000
vn -0.9971 -0.0753 -0.0083
vn -0.9983 0.0574 -0.0038
vn -0.9520 0.3061 -0.0040
vn -0.9983 0.0576 -0.0000
vn -0.9520 0.3060 -0.0000
vn -0.9973 -0.0728 -0.0000
vn -0.6585 0.6971 -0.2835
vn -0.6870 0.7251 -0.0474
vn -0.6878 0.7259 -0.0046
vn -0.6878 0.7259 -0.0000
vn 0.9147 0.2939 -0.2774
vn 0.9507 0.3068 -0.0456
vn 0.9514 0.3079 -0.0044
vn 0.9514 0.3080 -0.0000
vn 0.9417 -0.0812 0.3265
vn 0.9858 -0.1327 0.1029
vn 0.9986 -0.0148 0.0499
vn 0.9446 -0.0230 0.3274
vn 0.9931 -0.1168 0.0089
vn 0.9999 -0.0153 0.0049
vn 0.9934 -0.1145 -0.0000
vn 0.9999 -0.0152 -0.0000
vn -0.0000 -0.9175 0.3978
vn -0.0000 -0.5139 0.8579
vn -0.0000 -0.9982 0.0594
vn -0.0000 -0.0625 0.9980
vn -0.0007 -0.0043 1.0000
vn -0.0000 -0.0625 -0.9980
vn -0.0000 -0.5139 -0.8579
vn -0.0007 -0.0043 -1.0000
vn -0.0046 -0.0001 -1.0000
vn -0.0145 0.0003 -0.9999
vn 0.0968 0.0225 0.9950
vn 0.1321 0.1211 0.9838
vn 0.0565 0.0019 0.9984
vn 0.0188 0.1408 -0.9899
vn 0.1321 0.1211 -0.9838
vn -0.0284 0.0945 -0.9951
vn -0.1311 0.1066 0.9856
vn -0.1018 0.0009 0.9948
vn -0.0284 0.0945 0.9951
vn 0.0007 -0.8852 -0.4652
vn -0.0111 -0.4366 -0.8996
vn 0.0015 -0.9966 -0.0818
vn -0.0163 -0.0607 -0.9980
vn -0.1018 0.0009 -0.9948
vn -0.0163 -0.0607 0.9980
vn -0.0111 -0.4366 0.8996
vn -0.0045 0.0029 -1.0000
vn 0.0565 0.0019 -0.9984
vn -0.0046 -0.0001 1.0000
vn -0.0145 0.0003 0.9999
vn -0.0045 0.0029 1.0000
vn 0.0968 0.0225 -0.9950
vn -0.1311 0.1066 -0.9856
vn 0.0188 0.1408 0.9899
vn -0.0000 -0.9175 -0.3978
vn -0.0000 -0.9982 -0.0594
vn -0.0000 -1.0000 -0.0000
vn 0.0007 -0.8852 0.4653
vn 0.0015 -0.9966 0.0818
vn 0.0014 -1.0000 -0.0000
s 1
usemtl bender.002
f 17//1 116//2 189//3 87//4
f 116//2 20//5 67//6 189//3
f 189//3 67//6 4//7 68//8
f 87//4 189//3 68//8 3//9
f 29//10 99//11 190//12 114//13
f 99//11 13//14 71//15 190//12
f 190//12 71//15 5//16 91//17
f 114//13 190//12 91//17 21//18
f 31//19 101//20 191//21 112//22
f 101//20 16//23 74//24 191//21
f 191//21 74//24 7//25 93//26
f 112//22 191//21 93//26 23//27
f 23//27 93//26 192//28 110//29
f 93//26 7//25 77//30 192//28
f 192//28 77//30 9//31 95//32
f 110//29 192//28 95//32 25//33
f 19//34 89//35 193//36 108//37
f 89//35 2//38 79//39 193//36
f 193//36 79//39 12//40 97//41
f 108//37 193//36 97//41 27//42
f 27//42 97//41 194//43 106//44
f 97//41 12//40 81//45 194//43
f 194//43 81//45 13//14 99//11
f 106//44 194//43 99//11 29//10
f 21//18 91//17 195//46 104//47
f 91//17 5//16 85//48 195//46
f 195//46 85//48 16//23 101//20
f 104//47 195//46 101//20 31//19
f 6//49 69//50 196//51 73//52
f 69//50 22//53 103//54 196//51
f 196//51 103//54 32//55 86//56
f 73//52 196//51 86//56 15//57
f 22//53 92//58 197//59 103//54
f 92//58 21//18 104//47 197//59
f 197//59 104//47 31//19 102//60
f 103//54 197//59 102//60 32//55
f 11//61 80//62 198//63 78//64
f 80//62 28//65 105//66 198//63
f 198//63 105//66 30//67 83//68
f 78//64 198//63 83//68 14//69
f 28//65 98//70 199//71 105//66
f 98//70 27//42 106//44 199//71
f 199//71 106//44 29//10 100//72
f 105//66 199//71 100//72 30//67
f 4//7 67//6 200//73 70//74
f 67//6 20//5 107//75 200//73
f 200//73 107//75 28//65 80//62
f 70//74 200//73 80//62 11//61
f 20//5 90//76 201//77 107//75
f 90//76 19//34 108//37 201//77
f 201//77 108//37 27//42 98//70
f 107//75 201//77 98//70 28//65
f 8//78 72//79 202//80 76//81
f 72//79 24//82 109//83 202//80
f 202//80 109//83 26//84 75//85
f 76//81 202//80 75//85 10//86
f 24//82 94//87 203//88 109//83
f 94//87 23//27 110//29 203//88
f 203//88 110//29 25//33 96//89
f 109//83 203//88 96//89 26//84
f 15//57 86//56 204//90 84//91
f 86//56 32//55 111//92 204//90
f 204//90 111//92 24//82 72//79
f 84//91 204//90 72//79 8//78
f 32//55 102//60 205//93 111//92
f 102//60 31//19 112//22 205//93
f 205//93 112//22 23//27 94//87
f 111//92 205//93 94//87 24//82
f 14//69 83//68 206//94 82//95
f 83//68 30//67 113//96 206//94
f 206//94 113//96 22//53 69//50
f 82//95 206//94 69//50 6//49
f 30//67 100//72 207//97 113//96
f 100//72 29//10 114//13 207//97
f 207//97 114//13 21//18 92//58
f 113//96 207//97 92//58 22//53
f 1//98 66//99 208//100 65//101
f 66//99 2//38 89//35 208//100
f 208//100 89//35 19//34 115//102
f 65//101 208//100 115//102 18//103
f 18//103 115//102 209//104 88//105
f 115//102 19//34 90//76 209//104
f 209//104 90//76 20//5 116//2
f 88//105 209//104 116//2 17//1
f 49//106 139//107 210//108 168//109
f 139//107 35//110 120//111 210//108
f 210//108 120//111 36//112 119//113
f 168//109 210//108 119//113 52//114
f 61//115 166//116 211//117 151//118
f 166//116 53//119 143//120 211//117
f 211//117 143//120 37//121 123//122
f 151//118 211//117 123//122 45//123
f 63//124 164//125 212//126 153//127
f 164//125 55//128 145//129 212//126
f 212//126 145//129 39//130 126//131
f 153//127 212//126 126//131 48//132
f 55//128 162//133 213//134 145//129
f 162//133 57//135 147//136 213//134
f 213//134 147//136 41//137 129//138
f 145//129 213//134 129//138 39//130
f 51//139 160//140 214//141 141//142
f 160//140 59//143 149//144 214//141
f 214//141 149//144 44//145 131//146
f 141//142 214//141 131//146 34//147
f 59//143 158//148 215//149 149//144
f 158//148 61//115 151//118 215//149
f 215//149 151//118 45//123 133//150
f 149//144 215//149 133//150 44//145
f 53//119 156//151 216//152 143//120
f 156//151 63//124 153//127 216//152
f 216//152 153//127 48//132 137//153
f 143//120 216//152 137//153 37//121
f 38//154 125//155 217//156 121//157
f 125//155 47//158 138//159 217//156
f 217//156 138//159 64//160 155//161
f 121//157 217//156 155//161 54//162
f 54//162 155//161 218//163 144//164
f 155//161 64//160 154//165 218//163
f 218//163 154//165 63//124 156//151
f 144//164 218//163 156//151 53//119
f 43//166 130//167 219//168 132//169
f 130//167 46//170 135//171 219//168
f 219//168 135//171 62//172 157//173
f 132//169 219//168 157//173 60//174
f 60//174 157//173 220//175 150//176
f 157//173 62//172 152//177 220//175
f 220//175 152//177 61//115 158//148
f 150//176 220//175 158//148 59//143
f 36//112 122//178 221//179 119//113
f 122//178 43//166 132//169 221//179
f 221//179 132//169 60//174 159//180
f 119//113 221//179 159//180 52//114
f 52//114 159//180 222//181 142//182
f 159//180 60//174 150//176 222//181
f 222//181 150//176 59//143 160//140
f 142//182 222//181 160//140 51//139
f 40//183 128//184 223//185 124//186
f 128//184 42//187 127//188 223//185
f 223//185 127//188 58//189 161//190
f 124//186 223//185 161//190 56//191
f 56//191 161//190 224//192 146//193
f 161//190 58//189 148//194 224//192
f 224//192 148//194 57//135 162//133
f 146//193 224//192 162//133 55//128
f 47//158 136//195 225//196 138//159
f 136//195 40//183 124//186 225//196
f 225//196 124//186 56//191 163//197
f 138//159 225//196 163//197 64//160
f 64//160 163//197 226//198 154//165
f 163//197 56//191 146//193 226//198
f 226//198 146//193 55//128 164//125
f 154//165 226//198 164//125 63//124
f 46//170 134//199 227//200 135//171
f 134//199 38//154 121//157 227//200
f 227//200 121//157 54//162 165//201
f 135//171 227//200 165//201 62//172
f 62//172 165//201 228//202 152//177
f 165//201 54//162 144//164 228//202
f 228//202 144//164 53//119 166//116
f 152//177 228//202 166//116 61//115
f 33//203 117//204 229//205 118//206
f 117//204 50//207 167//208 229//205
f 229//205 167//208 51//139 141//142
f 118//206 229//205 141//142 34//147
f 50//207 140//209 230//210 167//208
f 140//209 49//106 168//109 230//210
f 230//210 168//109 52//114 142//182
f 167//208 230//210 142//182 51//139
f 1//98 65//101 231//211 169//212
f 65//101 18//103 186//213 231//211
f 231//211 186//213 50//207 117//204
f 169//212 231//211 117//204 33//203
f 2//38 66//99 232//214 170//215
f 66//99 1//98 169//212 232//214
f 232//214 169//212 33//203 118//206
f 170//215 232//214 118//206 34//147
f 3//9 68//8 233//216 171//217
f 68//8 4//7 172//218 233//216
f 233//216 172//218 36//112 120//111
f 171//217 233//216 120//111 35//110
f 4//7 70//74 234//219 172//218
f 70//74 11//61 179//220 234//219
f 234//219 179//220 43//166 122//178
f 172//218 234//219 122//178 36//112
f 5//16 71//15 235//221 173//222
f 71//15 13//14 181//223 235//221
f 235//221 181//223 45//123 123//122
f 173//222 235//221 123//122 37//121
f 6//49 73//52 236//224 174//225
f 73//52 15//57 183//226 236//224
f 236//224 183//226 47//158 125//155
f 174//225 236//224 125//155 38//154
f 7//25 74//24 237//227 175//228
f 74//24 16//23 184//229 237//227
f 237//227 184//229 48//132 126//131
f 175//228 237//227 126//131 39//130
f 10//86 75//85 238//230 178//231
f 75//85 26//84 188//232 238//230
f 238//230 188//232 58//189 127//188
f 178//231 238//230 127//188 42//187
f 8//78 76//81 239//233 176//234
f 76//81 10//86 178//231 239//233
f 239//233 178//231 42//187 128//184
f 176//234 239//233 128//184 40//183
f 9//31 77//30 240//235 177//236
f 77//30 7//25 175//228 240//235
f 240//235 175//228 39//130 129//138
f 177//236 240//235 129//138 41//137
f 11//61 78//64 241//237 179//220
f 78//64 14//69 182//238 241//237
f 241//237 182//238 46//170 130//167
f 179//220 241//237 130//167 43//166
f 12//40 79//39 242//239 180//240
f 79//39 2//38 170//215 242//239
f 242//239 170//215 34//147 131//146
f 180//240 242//239 131//146 44//145
f 13//14 81//45 243//241 181//223
f 81//45 12//40 180//240 243//241
f 243//241 180//240 44//145 133//150
f 181//223 243//241 133//150 45//123
f 14//69 82//95 244//242 182//238
f 82//95 6//49 174//225 244//242
f 244//242 174//225 38//154 134//199
f 182//238 244//242 134//199 46//170
f 15//57 84//91 245//243 183//226
f 84//91 8//78 176//234 245//243
f 245//243 176//234 40//183 136//195
f 183//226 245//243 136//195 47//158
f 16//23 85//48 246//244 184//229
f 85//48 5//16 173//222 246//244
f 246//244 173//222 37//121 137//153
f 184//229 246//244 137//153 48//132
f 17//1 87//4 247//245 185//246
f 87//4 3//9 171//217 247//245
f 247//245 171//217 35//110 139//107
f 185//246 247//245 139//107 49//106
f 18//103 88//105 248//247 186//213
f 88//105 17//1 185//246 248//247
f 248//247 185//246 49//106 140//209
f 186//213 248//247 140//209 50//207
f 25//33 95//32 249//248 187//249
f 95//32 9//31 177//236 249//248
f 249//248 177//236 41//137 147//136
f 187//249 249//248 147//136 57//135
f 26//84 96//89 250//250 188//232
f 96//89 25//33 187//249 250//250
f 250//250 187//249 57//135 148//194
f 188//232 250//250 148//194 58//189
