# Blender 3.4.0
# www.blender.org
mtllib Spiral_008.mtl
o Spiral.008
v 0.252357 1.210043 -0.959742
v 0.250007 1.216185 -0.977593
v 0.243117 1.222326 -0.994227
v 0.232156 1.228467 -1.008511
v 0.217872 1.234608 -1.019472
v 0.201238 1.240749 -1.026362
v 0.183387 1.246891 -1.028712
v 0.165536 1.253032 -1.026362
v 0.148902 1.259173 -1.019472
v 0.134617 1.265314 -1.008511
v 0.123657 1.271456 -0.994227
v 0.116767 1.277597 -0.977593
v 0.114416 1.283738 -0.959742
v 0.116767 1.289879 -0.941891
v 0.123657 1.296020 -0.925257
v 0.134617 1.302162 -0.910973
v 0.148902 1.308303 -0.900012
v 0.165536 1.314444 -0.893122
v 0.183387 1.319958 -0.890772
v 0.201238 1.322588 -0.893122
v 0.217872 1.322884 -0.900012
v 0.232156 1.321709 -0.910973
v 0.243117 1.319927 -0.925257
v 0.250007 1.318403 -0.941891
v 0.252357 1.317999 -0.959742
v 0.250007 1.319580 -0.977593
v 0.243117 1.324009 -0.994227
v 0.232156 1.330150 -1.008511
v 0.217872 1.336291 -1.019472
v 0.201238 1.342432 -1.026362
v 0.183387 1.348574 -1.028712
v 0.165536 1.356427 -1.026362
v 0.148902 1.367129 -1.019472
v 0.134617 1.379815 -1.008511
v 0.123657 1.393622 -0.994227
v 0.116767 1.407686 -0.977593
v 0.114416 1.421143 -0.959742
v 0.116767 1.433130 -0.941891
v 0.123657 1.442783 -0.925257
v 0.134617 1.449551 -0.910973
v 0.148902 1.455692 -0.900012
v 0.165536 1.461833 -0.893122
v 0.183387 1.467974 -0.890772
v 0.201238 1.474116 -0.893122
v 0.217872 1.480257 -0.900012
v 0.232156 1.486398 -0.910973
v 0.243117 1.492539 -0.925257
v 0.250007 1.498680 -0.941891
v 0.252357 1.504822 -0.959742
v 0.250007 1.510963 -0.977593
v 0.243117 1.517104 -0.994227
v 0.232156 1.523245 -1.008511
v 0.217872 1.529387 -1.019472
v 0.201238 1.535528 -1.026362
v 0.183387 1.541669 -1.028712
v 0.165536 1.547810 -1.026362
v 0.148902 1.553951 -1.019472
v 0.134617 1.560093 -1.008511
v 0.123657 1.566234 -0.994227
v 0.116767 1.572375 -0.977593
v 0.114416 1.578516 -0.959742
v 0.116767 1.584657 -0.941891
v 0.123657 1.590799 -0.925257
v 0.134617 1.596940 -0.910973
v 0.148902 1.603081 -0.900012
v 0.165536 1.609222 -0.893122
v 0.183387 1.615363 -0.890772
v 0.201238 1.621505 -0.893122
v 0.217872 1.627646 -0.900012
v 0.232156 1.633787 -0.910973
v 0.243117 1.639928 -0.925257
v 0.250007 1.646070 -0.941891
v 0.252357 1.652211 -0.959742
v 0.250007 1.658352 -0.977593
v 0.243117 1.664493 -0.994227
v 0.232156 1.670634 -1.008511
v 0.217872 1.676776 -1.019472
v 0.201238 1.682917 -1.026362
v 0.183387 1.689058 -1.028712
v 0.165536 1.695199 -1.026362
v 0.148902 1.701340 -1.019472
v 0.134617 1.707482 -1.008511
v 0.123657 1.713623 -0.994227
v 0.116767 1.719764 -0.977593
v 0.114416 1.725905 -0.959742
v 0.116767 1.732046 -0.941891
v 0.123657 1.738188 -0.925257
v 0.134617 1.744329 -0.910973
v 0.148902 1.750470 -0.900012
v 0.165536 1.756611 -0.893122
v 0.183387 1.762753 -0.890772
v 0.201238 1.768894 -0.893122
v 0.217872 1.775035 -0.900012
v 0.232156 1.781176 -0.910973
v 0.243117 1.787317 -0.925257
v 0.250007 1.793459 -0.941891
v 0.252357 1.799600 -0.959742
v 0.250007 1.805741 -0.977593
v 0.243117 1.811882 -0.994227
v 0.232156 1.818023 -1.008511
v 0.217872 1.824165 -1.019472
v 0.201238 1.830306 -1.026362
v 0.183387 1.836447 -1.028712
v 0.165536 1.842588 -1.026362
v 0.148902 1.848729 -1.019472
v 0.134617 1.854871 -1.008511
v 0.123657 1.861012 -0.994227
v 0.116767 1.867153 -0.977593
v 0.114416 1.873294 -0.959742
v 0.116767 1.879436 -0.941891
v 0.123657 1.885577 -0.925257
v 0.134617 1.891718 -0.910973
v 0.148902 1.897859 -0.900012
v 0.165536 1.904000 -0.893122
v 0.183387 1.910142 -0.890772
v 0.201238 1.916283 -0.893122
v 0.217872 1.922424 -0.900012
v 0.232156 1.928565 -0.910973
v 0.243117 1.934706 -0.925257
v 0.250007 1.940848 -0.941891
v 0.252357 1.946989 -0.959742
v 0.252357 1.301489 -0.959742
v 0.250007 1.307630 -0.977593
v 0.243117 1.313771 -0.994227
v 0.232156 1.319913 -1.008511
v 0.217872 1.326054 -1.019472
v 0.201238 1.332195 -1.026362
v 0.183387 1.338336 -1.028712
v 0.165536 1.344477 -1.026362
v 0.148902 1.350619 -1.019472
v 0.134617 1.356760 -1.008511
v 0.123657 1.362901 -0.994227
v 0.116767 1.369042 -0.977593
v 0.114416 1.375183 -0.959742
v 0.116767 1.381325 -0.941891
v 0.123657 1.387466 -0.925257
v 0.134617 1.393607 -0.910973
v 0.148902 1.399748 -0.900012
v 0.165536 1.405890 -0.893122
v 0.183387 1.411404 -0.890772
v 0.201238 1.414034 -0.893122
v 0.217872 1.414329 -0.900012
v 0.232156 1.413155 -0.910973
v 0.243117 1.411373 -0.925257
v 0.250007 1.409848 -0.941891
v 0.252357 1.409444 -0.959742
v 0.250007 1.411025 -0.977593
v 0.243117 1.415454 -0.994227
v 0.232156 1.421596 -1.008511
v 0.217872 1.427737 -1.019472
v 0.201238 1.433878 -1.026362
v 0.183387 1.440019 -1.028712
v 0.165536 1.447873 -1.026362
v 0.148902 1.458574 -1.019472
v 0.134617 1.471260 -1.008511
v 0.123657 1.485067 -0.994227
v 0.116767 1.499132 -0.977593
v 0.114416 1.512589 -0.959742
v 0.116767 1.524575 -0.941891
v 0.123657 1.534228 -0.925257
v 0.134617 1.540996 -0.910973
v 0.148902 1.547137 -0.900012
v 0.165536 1.553279 -0.893122
v 0.183387 1.559420 -0.890772
v 0.201238 1.565561 -0.893122
v 0.217872 1.571702 -0.900012
v 0.232156 1.577843 -0.910973
v 0.243117 1.583985 -0.925257
v 0.250007 1.590126 -0.941891
v 0.252357 1.596267 -0.959742
v 0.250007 1.602408 -0.977593
v 0.243117 1.608549 -0.994227
v 0.232156 1.614691 -1.008511
v 0.217872 1.620832 -1.019472
v 0.201238 1.626973 -1.026362
v 0.183387 1.633114 -1.028712
v 0.165536 1.639256 -1.026362
v 0.148902 1.645397 -1.019472
v 0.134617 1.651538 -1.008511
v 0.123657 1.657679 -0.994227
v 0.116767 1.663820 -0.977593
v 0.114416 1.669962 -0.959742
v 0.116767 1.676103 -0.941891
v 0.123657 1.682244 -0.925257
v 0.134617 1.688385 -0.910973
v 0.148902 1.694526 -0.900012
v 0.165536 1.700668 -0.893122
v 0.183387 1.706809 -0.890772
v 0.201238 1.712950 -0.893122
v 0.217872 1.719091 -0.900012
v 0.232156 1.725232 -0.910973
v 0.243117 1.731374 -0.925257
v 0.250007 1.737515 -0.941891
v 0.252357 1.743656 -0.959742
v 0.250007 1.749797 -0.977593
v 0.243117 1.755939 -0.994227
v 0.232156 1.762080 -1.008511
v 0.217872 1.768221 -1.019472
v 0.201238 1.774362 -1.026362
v 0.183387 1.780504 -1.028712
v 0.165536 1.786645 -1.026362
v 0.148902 1.792786 -1.019472
v 0.134617 1.798927 -1.008511
v 0.123657 1.805068 -0.994227
v 0.116767 1.811210 -0.977593
v 0.114416 1.817351 -0.959742
v 0.116767 1.823492 -0.941891
v 0.123657 1.829633 -0.925257
v 0.134617 1.835774 -0.910973
v 0.148902 1.841916 -0.900012
v 0.165536 1.848057 -0.893122
v 0.183387 1.854198 -0.890772
v 0.201238 1.860339 -0.893122
v 0.217872 1.866480 -0.900012
v 0.232156 1.872622 -0.910973
v 0.243117 1.878763 -0.925257
v 0.250007 1.884904 -0.941891
v 0.252357 1.891045 -0.959742
v 0.250007 1.897187 -0.977593
v 0.243117 1.903328 -0.994227
v 0.232156 1.909469 -1.008511
v 0.217872 1.915610 -1.019472
v 0.201238 1.921751 -1.026362
v 0.183387 1.927892 -1.028712
v 0.165536 1.934034 -1.026362
v 0.148902 1.940175 -1.019472
v 0.134617 1.946316 -1.008511
v 0.123657 1.952457 -0.994227
v 0.116767 1.958599 -0.977593
v 0.114416 1.964740 -0.959742
v 0.116767 1.970881 -0.941891
v 0.123657 1.977022 -0.925257
v 0.134617 1.983163 -0.910973
v 0.148902 1.989305 -0.900012
v 0.165536 1.995446 -0.893122
v 0.183387 2.001587 -0.890772
v 0.201238 2.007728 -0.893122
v 0.217872 2.013870 -0.900012
v 0.232156 2.020011 -0.910973
v 0.243117 2.026152 -0.925257
v 0.250007 2.032293 -0.941891
v 0.252357 2.038434 -0.959742
vn -0.7042 -0.0000 -0.7100
vn -0.4965 -0.0000 -0.8680
vn -0.5035 -0.0000 -0.8640
vn -0.7100 -0.0000 -0.7042
vn 0.0040 -0.0000 -1.0000
vn 0.2627 -0.0000 -0.9649
vn 0.2549 -0.0000 -0.9670
vn -0.0040 -0.0000 -1.0000
vn -0.8640 -0.0000 -0.5035
vn -0.8680 -0.0000 -0.4965
vn -0.2549 -0.0000 -0.9670
vn -0.2627 -0.0000 -0.9649
vn -0.9649 -0.0000 -0.2627
vn -0.9670 -0.0000 -0.2549
vn -1.0000 -0.0000 -0.0040
vn -1.0000 -0.0000 0.0040
vn -0.9670 -0.0000 0.2549
vn -0.9649 -0.0000 0.2627
vn -0.8680 -0.0000 0.4965
vn -0.8640 -0.0000 0.5035
vn -0.7100 -0.0000 0.7042
vn -0.7042 -0.0000 0.7100
vn -0.5035 -0.0000 0.8640
vn -0.4965 -0.0000 0.8680
vn -0.2627 -0.0000 0.9649
vn -0.2549 -0.0000 0.9670
vn -0.0040 -0.0000 1.0000
vn 0.0040 -0.0000 1.0000
vn 0.2549 -0.0000 0.9670
vn 0.2627 -0.0000 0.9649
vn -0.9914 -0.0000 0.1305
vn 0.4965 -0.0000 0.8680
vn 0.5035 -0.0000 0.8640
vn 0.7042 -0.0000 0.7100
vn 0.7100 -0.0000 0.7042
vn 0.8640 -0.0000 0.5035
vn 0.8680 -0.0000 0.4965
vn 0.9649 -0.0000 0.2627
vn 0.9670 -0.0000 0.2549
vn 1.0000 -0.0000 0.0040
vn 1.0000 -0.0000 -0.0040
vn 0.9670 -0.0000 -0.2549
vn 0.9649 -0.0000 -0.2627
vn 0.8680 -0.0000 -0.4965
vn 0.8640 -0.0000 -0.5035
vn 0.7100 -0.0000 -0.7042
vn 0.7042 -0.0000 -0.7100
vn 0.5035 -0.0000 -0.8640
vn 0.4965 -0.0000 -0.8680
vn 0.2625 -0.0000 -0.9649
vn 0.2551 -0.0000 -0.9669
vn -0.9914 -0.0000 -0.1305
vn 0.0027 -0.0000 -1.0000
vn -0.0027 -0.0000 -1.0000
vn -0.2579 -0.0000 -0.9662
vn -0.2598 -0.0000 -0.9657
vn -0.5002 -0.0000 -0.8659
vn -0.4997 -0.0000 -0.8662
vn -0.7078 -0.0000 -0.7064
vn -0.7064 -0.0000 -0.7078
vn -0.8666 -0.0000 -0.4991
vn -0.8655 -0.0000 -0.5009
vn -0.9661 -0.0000 -0.2582
vn -0.9658 -0.0000 -0.2594
vn -1.0000 -0.0000 -0.0004
vn -1.0000 -0.0000 0.0004
vn -0.9664 -0.0000 0.2569
vn -0.9654 -0.0000 0.2607
vn -0.8678 -0.0000 0.4970
vn -0.8643 -0.0000 0.5030
vn -0.0046 -0.0000 1.0000
vn 0.0046 -0.0000 1.0000
vn 0.2529 -0.0000 0.9675
vn 0.2647 -0.0000 0.9643
vn 0.4933 -0.0000 0.8699
vn 0.5066 -0.0000 0.8622
vn 0.7009 -0.0000 0.7132
vn 0.7132 -0.0000 0.7009
vn 0.8614 -0.0000 0.5079
vn 0.8706 -0.0000 0.4921
vn 0.9636 -0.0000 0.2675
vn 0.9682 -0.0000 0.2501
vn 1.0000 -0.0000 0.0083
vn 1.0000 -0.0000 -0.0084
vn 0.9677 -0.0000 -0.2520
vn 0.9640 -0.0000 -0.2657
vn 0.8687 -0.0000 -0.4953
vn 0.8633 -0.0000 -0.5047
vn 0.7101 -0.0000 -0.7041
vn 0.7041 -0.0000 -0.7101
s 1
f 94//1 93//2 214//3 215//4
f 43//5 42//6 163//7 164//8
f 95//9 94//1 215//4 216//10
f 44//11 43//5 164//8 165//12
f 96//13 95//9 216//10 217//14
f 45//2 44//11 165//12 166//3
f 97//15 96//13 217//14 218//16
f 46//1 45//2 166//3 167//4
f 98//17 97//15 218//16 219//18
f 47//9 46//1 167//4 168//10
f 99//19 98//17 219//18 220//20
f 48//13 47//9 168//10 169//14
f 100//21 99//19 220//20 221//22
f 49//15 48//13 169//14 170//16
f 101//23 100//21 221//22 222//24
f 50//17 49//15 170//16 171//18
f 102//25 101//23 222//24 223//26
f 51//19 50//17 171//18 172//20
f 103//27 102//25 223//26 224//28
f 52//21 51//19 172//20 173//22
f 104//29 103//27 224//28 225//30
f 53//23 52//21 173//22 174//24
f 2//17 1//31 122//31 123//18
f 105//32 104//29 225//30 226//33
f 54//25 53//23 174//24 175//26
f 3//19 2//17 123//18 124//20
f 106//34 105//32 226//33 227//35
f 55//27 54//25 175//26 176//28
f 4//21 3//19 124//20 125//22
f 107//36 106//34 227//35 228//37
f 56//29 55//27 176//28 177//30
f 5//23 4//21 125//22 126//24
f 108//38 107//36 228//37 229//39
f 57//32 56//29 177//30 178//33
f 6//25 5//23 126//24 127//26
f 109//40 108//38 229//39 230//41
f 58//34 57//32 178//33 179//35
f 7//27 6//25 127//26 128//28
f 110//42 109//40 230//41 231//43
f 59//36 58//34 179//35 180//37
f 8//29 7//27 128//28 129//30
f 111//44 110//42 231//43 232//45
f 60//38 59//36 180//37 181//39
f 9//32 8//29 129//30 130//33
f 112//46 111//44 232//45 233//47
f 61//40 60//38 181//39 182//41
f 10//34 9//32 130//33 131//35
f 113//48 112//46 233//47 234//49
f 62//42 61//40 182//41 183//43
f 11//36 10//34 131//35 132//37
f 114//6 113//48 234//49 235//7
f 63//44 62//42 183//43 184//45
f 12//38 11//36 132//37 133//39
f 115//5 114//6 235//7 236//8
f 64//46 63//44 184//45 185//47
f 13//40 12//38 133//39 134//41
f 116//11 115//5 236//8 237//12
f 65//48 64//46 185//47 186//49
f 14//42 13//40 134//41 135//43
f 117//2 116//11 237//12 238//3
f 66//6 65//48 186//49 187//7
f 15//44 14//42 135//43 136//45
f 118//1 117//2 238//3 239//4
f 67//5 66//6 187//7 188//8
f 16//46 15//44 136//45 137//47
f 119//9 118//1 239//4 240//10
f 68//11 67//5 188//8 189//12
f 17//48 16//46 137//47 138//49
f 120//13 119//9 240//10 241//14
f 69//2 68//11 189//12 190//3
f 18//50 17//48 138//49 139//51
f 121//52 120//13 241//14 242//52
f 70//1 69//2 190//3 191//4
f 19//53 18//50 139//51 140//54
f 71//9 70//1 191//4 192//10
f 20//55 19//53 140//54 141//56
f 72//13 71//9 192//10 193//14
f 21//57 20//55 141//56 142//58
f 73//15 72//13 193//14 194//16
f 22//59 21//57 142//58 143//60
f 74//17 73//15 194//16 195//18
f 23//61 22//59 143//60 144//62
f 75//19 74//17 195//18 196//20
f 24//63 23//61 144//62 145//64
f 76//21 75//19 196//20 197//22
f 25//65 24//63 145//64 146//66
f 77//23 76//21 197//22 198//24
f 26//67 25//65 146//66 147//68
f 78//25 77//23 198//24 199//26
f 27//69 26//67 147//68 148//70
f 79//27 78//25 199//26 200//28
f 28//21 27//69 148//70 149//22
f 80//29 79//27 200//28 201//30
f 29//23 28//21 149//22 150//24
f 81//32 80//29 201//30 202//33
f 30//25 29//23 150//24 151//26
f 82//34 81//32 202//33 203//35
f 31//71 30//25 151//26 152//72
f 83//36 82//34 203//35 204//37
f 32//73 31//71 152//72 153//74
f 84//38 83//36 204//37 205//39
f 33//75 32//73 153//74 154//76
f 85//40 84//38 205//39 206//41
f 34//77 33//75 154//76 155//78
f 86//42 85//40 206//41 207//43
f 35//79 34//77 155//78 156//80
f 87//44 86//42 207//43 208//45
f 36//81 35//79 156//80 157//82
f 88//46 87//44 208//45 209//47
f 37//83 36//81 157//82 158//84
f 89//48 88//46 209//47 210//49
f 38//85 37//83 158//84 159//86
f 90//6 89//48 210//49 211//7
f 39//87 38//85 159//86 160//88
f 91//5 90//6 211//7 212//8
f 40//89 39//87 160//88 161//90
f 92//11 91//5 212//8 213//12
f 41//48 40//89 161//90 162//49
f 93//2 92//11 213//12 214//3
f 42//6 41//48 162//49 163//7
