# Blender 3.4.0
# www.blender.org
mtllib Spiral_007.mtl
o Spiral.007
v 0.252357 1.897388 -0.959742
v 0.250007 1.903529 -0.977593
v 0.243117 1.909670 -0.994227
v 0.232156 1.915811 -1.008511
v 0.217872 1.921953 -1.019472
v 0.201238 1.928094 -1.026362
v 0.183387 1.934235 -1.028712
v 0.165536 1.940376 -1.026362
v 0.148902 1.946517 -1.019472
v 0.134617 1.952659 -1.008511
v 0.123657 1.958800 -0.994227
v 0.116767 1.964941 -0.977593
v 0.114416 1.971082 -0.959742
v 0.116767 1.977224 -0.941891
v 0.123657 1.983365 -0.925257
v 0.134617 1.989506 -0.910973
v 0.148902 1.995647 -0.900012
v 0.165536 2.001788 -0.893122
v 0.183387 2.007303 -0.890772
v 0.201238 2.009933 -0.893122
v 0.217872 2.010228 -0.900012
v 0.232156 2.009053 -0.910973
v 0.243117 2.007272 -0.925257
v 0.250007 2.005747 -0.941891
v 0.252357 2.005343 -0.959742
v 0.250007 2.006924 -0.977593
v 0.243117 2.011353 -0.994227
v 0.232156 2.017494 -1.008511
v 0.217872 2.023636 -1.019472
v 0.201238 2.029777 -1.026362
v 0.183387 2.035918 -1.028712
v 0.165536 2.043771 -1.026362
v 0.148902 2.054473 -1.019472
v 0.134617 2.067159 -1.008511
v 0.123657 2.080966 -0.994227
v 0.116767 2.095030 -0.977593
v 0.114416 2.108488 -0.959742
v 0.116767 2.120474 -0.941891
v 0.123657 2.130127 -0.925257
v 0.134617 2.136895 -0.910973
v 0.148902 2.143036 -0.900012
v 0.165536 2.149178 -0.893122
v 0.183387 2.155319 -0.890772
v 0.201238 2.161460 -0.893122
v 0.217872 2.167601 -0.900012
v 0.232156 2.173742 -0.910973
v 0.243117 2.179883 -0.925257
v 0.250007 2.186025 -0.941891
v 0.252357 2.192166 -0.959742
v 0.250007 2.198307 -0.977593
v 0.243117 2.204448 -0.994227
v 0.232156 2.210590 -1.008511
v 0.217872 2.216731 -1.019472
v 0.201238 2.222872 -1.026362
v 0.183387 2.229013 -1.028712
v 0.165536 2.235154 -1.026362
v 0.148902 2.241296 -1.019472
v 0.134617 2.247437 -1.008511
v 0.123657 2.253578 -0.994227
v 0.116767 2.259719 -0.977593
v 0.114416 2.265861 -0.959742
v 0.116767 2.272002 -0.941891
v 0.123657 2.278143 -0.925257
v 0.134617 2.284284 -0.910973
v 0.148902 2.290425 -0.900012
v 0.165536 2.296566 -0.893122
v 0.183387 2.302708 -0.890772
v 0.201238 2.308849 -0.893122
v 0.217872 2.314990 -0.900012
v 0.232156 2.321131 -0.910973
v 0.243117 2.327273 -0.925257
v 0.250007 2.333414 -0.941891
v 0.252357 2.339555 -0.959742
v 0.250007 2.345696 -0.977593
v 0.243117 2.351837 -0.994227
v 0.232156 2.357979 -1.008511
v 0.217872 2.364120 -1.019472
v 0.201238 2.370261 -1.026362
v 0.183387 2.376402 -1.028712
v 0.165536 2.382544 -1.026362
v 0.148902 2.388685 -1.019472
v 0.134617 2.394826 -1.008511
v 0.123657 2.400967 -0.994227
v 0.116767 2.407108 -0.977593
v 0.114416 2.413249 -0.959742
v 0.116767 2.419391 -0.941891
v 0.123657 2.425532 -0.925257
v 0.134617 2.431673 -0.910973
v 0.148902 2.437814 -0.900012
v 0.165536 2.443956 -0.893122
v 0.183387 2.450097 -0.890772
v 0.201238 2.456238 -0.893122
v 0.217872 2.462379 -0.900012
v 0.232156 2.468521 -0.910973
v 0.243117 2.474662 -0.925257
v 0.250007 2.480803 -0.941891
v 0.252357 2.486944 -0.959742
v 0.250007 2.493085 -0.977593
v 0.243117 2.499227 -0.994227
v 0.232156 2.505368 -1.008511
v 0.217872 2.511509 -1.019472
v 0.201238 2.517650 -1.026362
v 0.183387 2.523791 -1.028712
v 0.165536 2.529932 -1.026362
v 0.148902 2.536074 -1.019472
v 0.134617 2.542215 -1.008511
v 0.123657 2.548356 -0.994227
v 0.116767 2.554497 -0.977593
v 0.114416 2.560639 -0.959742
v 0.116767 2.566780 -0.941891
v 0.123657 2.572921 -0.925257
v 0.134617 2.579062 -0.910973
v 0.148902 2.585204 -0.900012
v 0.165536 2.591345 -0.893122
v 0.183387 2.597486 -0.890772
v 0.201238 2.603627 -0.893122
v 0.217872 2.609768 -0.900012
v 0.232156 2.615910 -0.910973
v 0.243117 2.622051 -0.925257
v 0.250007 2.628192 -0.941891
v 0.252357 2.634333 -0.959742
v 0.252357 1.988833 -0.959742
v 0.250007 1.994974 -0.977593
v 0.243117 2.001116 -0.994227
v 0.232156 2.007257 -1.008511
v 0.217872 2.013398 -1.019472
v 0.201238 2.019539 -1.026362
v 0.183387 2.025681 -1.028712
v 0.165536 2.031822 -1.026362
v 0.148902 2.037963 -1.019472
v 0.134617 2.044104 -1.008511
v 0.123657 2.050245 -0.994227
v 0.116767 2.056386 -0.977593
v 0.114416 2.062528 -0.959742
v 0.116767 2.068669 -0.941891
v 0.123657 2.074810 -0.925257
v 0.134617 2.080951 -0.910973
v 0.148902 2.087093 -0.900012
v 0.165536 2.093234 -0.893122
v 0.183387 2.098748 -0.890772
v 0.201238 2.101378 -0.893122
v 0.217872 2.101674 -0.900012
v 0.232156 2.100499 -0.910973
v 0.243117 2.098717 -0.925257
v 0.250007 2.097193 -0.941891
v 0.252357 2.096789 -0.959742
v 0.250007 2.098370 -0.977593
v 0.243117 2.102799 -0.994227
v 0.232156 2.108940 -1.008511
v 0.217872 2.115081 -1.019472
v 0.201238 2.121222 -1.026362
v 0.183387 2.127363 -1.028712
v 0.165536 2.135217 -1.026362
v 0.148902 2.145919 -1.019472
v 0.134617 2.158605 -1.008511
v 0.123657 2.172412 -0.994227
v 0.116767 2.186476 -0.977593
v 0.114416 2.199933 -0.959742
v 0.116767 2.211920 -0.941891
v 0.123657 2.221572 -0.925257
v 0.134617 2.228340 -0.910973
v 0.148902 2.234482 -0.900012
v 0.165536 2.240623 -0.893122
v 0.183387 2.246764 -0.890772
v 0.201238 2.252905 -0.893122
v 0.217872 2.259047 -0.900012
v 0.232156 2.265188 -0.910973
v 0.243117 2.271329 -0.925257
v 0.250007 2.277470 -0.941891
v 0.252357 2.283611 -0.959742
v 0.250007 2.289752 -0.977593
v 0.243117 2.295894 -0.994227
v 0.232156 2.302035 -1.008511
v 0.217872 2.308176 -1.019472
v 0.201238 2.314317 -1.026362
v 0.183387 2.320459 -1.028712
v 0.165536 2.326600 -1.026362
v 0.148902 2.332741 -1.019472
v 0.134617 2.338882 -1.008511
v 0.123657 2.345024 -0.994227
v 0.116767 2.351165 -0.977593
v 0.114416 2.357306 -0.959742
v 0.116767 2.363447 -0.941891
v 0.123657 2.369588 -0.925257
v 0.134617 2.375730 -0.910973
v 0.148902 2.381871 -0.900012
v 0.165536 2.388012 -0.893122
v 0.183387 2.394153 -0.890772
v 0.201238 2.400294 -0.893122
v 0.217872 2.406436 -0.900012
v 0.232156 2.412577 -0.910973
v 0.243117 2.418718 -0.925257
v 0.250007 2.424859 -0.941891
v 0.252357 2.431000 -0.959742
v 0.250007 2.437142 -0.977593
v 0.243117 2.443283 -0.994227
v 0.232156 2.449424 -1.008511
v 0.217872 2.455565 -1.019472
v 0.201238 2.461707 -1.026362
v 0.183387 2.467848 -1.028712
v 0.165536 2.473989 -1.026362
v 0.148902 2.480130 -1.019472
v 0.134617 2.486271 -1.008511
v 0.123657 2.492413 -0.994227
v 0.116767 2.498554 -0.977593
v 0.114416 2.504695 -0.959742
v 0.116767 2.510836 -0.941891
v 0.123657 2.516978 -0.925257
v 0.134617 2.523118 -0.910973
v 0.148902 2.529260 -0.900012
v 0.165536 2.535401 -0.893122
v 0.183387 2.541542 -0.890772
v 0.201238 2.547683 -0.893122
v 0.217872 2.553825 -0.900012
v 0.232156 2.559966 -0.910973
v 0.243117 2.566107 -0.925257
v 0.250007 2.572248 -0.941891
v 0.252357 2.578390 -0.959742
v 0.250007 2.584531 -0.977593
v 0.243117 2.590672 -0.994227
v 0.232156 2.596813 -1.008511
v 0.217872 2.602954 -1.019472
v 0.201238 2.609096 -1.026362
v 0.183387 2.615237 -1.028712
v 0.165536 2.621378 -1.026362
v 0.148902 2.627519 -1.019472
v 0.134617 2.633660 -1.008511
v 0.123657 2.639802 -0.994227
v 0.116767 2.645943 -0.977593
v 0.114416 2.652084 -0.959742
v 0.116767 2.658225 -0.941891
v 0.123657 2.664366 -0.925257
v 0.134617 2.670508 -0.910973
v 0.148902 2.676649 -0.900012
v 0.165536 2.682790 -0.893122
v 0.183387 2.688931 -0.890772
v 0.201238 2.695073 -0.893122
v 0.217872 2.701214 -0.900012
v 0.232156 2.707355 -0.910973
v 0.243117 2.713496 -0.925257
v 0.250007 2.719637 -0.941891
v 0.252357 2.725779 -0.959742
vn -0.7042 -0.0000 -0.7100
vn -0.4965 -0.0000 -0.8680
vn -0.5035 -0.0000 -0.8640
vn -0.7100 -0.0000 -0.7042
vn 0.0040 -0.0000 -1.0000
vn 0.2627 -0.0000 -0.9649
vn 0.2549 -0.0000 -0.9670
vn -0.0040 -0.0000 -1.0000
vn -0.8640 -0.0000 -0.5035
vn -0.8680 -0.0000 -0.4965
vn -0.2549 -0.0000 -0.9670
vn -0.2627 -0.0000 -0.9649
vn -0.9649 -0.0000 -0.2627
vn -0.9670 -0.0000 -0.2549
vn -1.0000 -0.0000 -0.0040
vn -1.0000 -0.0000 0.0040
vn -0.9670 -0.0000 0.2549
vn -0.9649 -0.0000 0.2627
vn -0.8680 -0.0000 0.4965
vn -0.8640 -0.0000 0.5035
vn -0.7100 -0.0000 0.7042
vn -0.7042 -0.0000 0.7100
vn -0.5035 -0.0000 0.8640
vn -0.4965 -0.0000 0.8680
vn -0.2627 -0.0000 0.9649
vn -0.2549 -0.0000 0.9670
vn -0.0040 -0.0000 1.0000
vn 0.0040 -0.0000 1.0000
vn 0.2549 -0.0000 0.9670
vn 0.2627 -0.0000 0.9649
vn -0.9914 -0.0000 0.1305
vn 0.4965 -0.0000 0.8680
vn 0.5035 -0.0000 0.8640
vn 0.7042 -0.0000 0.7100
vn 0.7100 -0.0000 0.7042
vn 0.8640 -0.0000 0.5035
vn 0.8680 -0.0000 0.4965
vn 0.9649 -0.0000 0.2627
vn 0.9670 -0.0000 0.2549
vn 1.0000 -0.0000 0.0040
vn 1.0000 -0.0000 -0.0040
vn 0.9670 -0.0000 -0.2549
vn 0.9649 -0.0000 -0.2627
vn 0.8680 -0.0000 -0.4965
vn 0.8640 -0.0000 -0.5035
vn 0.7100 -0.0000 -0.7042
vn 0.7042 -0.0000 -0.7100
vn 0.5035 -0.0000 -0.8640
vn 0.4965 -0.0000 -0.8680
vn 0.2625 -0.0000 -0.9649
vn 0.2551 -0.0000 -0.9669
vn -0.9914 -0.0000 -0.1305
vn 0.0027 -0.0000 -1.0000
vn -0.0027 -0.0000 -1.0000
vn -0.2579 -0.0000 -0.9662
vn -0.2598 -0.0000 -0.9657
vn -0.5002 -0.0000 -0.8659
vn -0.4997 -0.0000 -0.8662
vn -0.7078 -0.0000 -0.7064
vn -0.7064 -0.0000 -0.7078
vn -0.8666 -0.0000 -0.4991
vn -0.8655 -0.0000 -0.5009
vn -0.9661 -0.0000 -0.2582
vn -0.9658 -0.0000 -0.2594
vn -1.0000 -0.0000 -0.0004
vn -1.0000 -0.0000 0.0004
vn -0.9664 -0.0000 0.2569
vn -0.9654 -0.0000 0.2607
vn -0.8678 -0.0000 0.4970
vn -0.8643 -0.0000 0.5030
vn -0.0046 -0.0000 1.0000
vn 0.0046 -0.0000 1.0000
vn 0.2529 -0.0000 0.9675
vn 0.2647 -0.0000 0.9643
vn 0.4933 -0.0000 0.8699
vn 0.5066 -0.0000 0.8622
vn 0.7009 -0.0000 0.7132
vn 0.7132 -0.0000 0.7009
vn 0.8614 -0.0000 0.5079
vn 0.8706 -0.0000 0.4921
vn 0.9636 -0.0000 0.2675
vn 0.9682 -0.0000 0.2501
vn 1.0000 -0.0000 0.0083
vn 1.0000 -0.0000 -0.0084
vn 0.9677 -0.0000 -0.2520
vn 0.9640 -0.0000 -0.2657
vn 0.8687 -0.0000 -0.4953
vn 0.8633 -0.0000 -0.5047
vn 0.7101 -0.0000 -0.7041
vn 0.7041 -0.0000 -0.7101
s 1
f 94//1 93//2 214//3 215//4
f 43//5 42//6 163//7 164//8
f 95//9 94//1 215//4 216//10
f 44//11 43//5 164//8 165//12
f 96//13 95//9 216//10 217//14
f 45//2 44//11 165//12 166//3
f 97//15 96//13 217//14 218//16
f 46//1 45//2 166//3 167//4
f 98//17 97//15 218//16 219//18
f 47//9 46//1 167//4 168//10
f 99//19 98//17 219//18 220//20
f 48//13 47//9 168//10 169//14
f 100//21 99//19 220//20 221//22
f 49//15 48//13 169//14 170//16
f 101//23 100//21 221//22 222//24
f 50//17 49//15 170//16 171//18
f 102//25 101//23 222//24 223//26
f 51//19 50//17 171//18 172//20
f 103//27 102//25 223//26 224//28
f 52//21 51//19 172//20 173//22
f 104//29 103//27 224//28 225//30
f 53//23 52//21 173//22 174//24
f 2//17 1//31 122//31 123//18
f 105//32 104//29 225//30 226//33
f 54//25 53//23 174//24 175//26
f 3//19 2//17 123//18 124//20
f 106//34 105//32 226//33 227//35
f 55//27 54//25 175//26 176//28
f 4//21 3//19 124//20 125//22
f 107//36 106//34 227//35 228//37
f 56//29 55//27 176//28 177//30
f 5//23 4//21 125//22 126//24
f 108//38 107//36 228//37 229//39
f 57//32 56//29 177//30 178//33
f 6//25 5//23 126//24 127//26
f 109//40 108//38 229//39 230//41
f 58//34 57//32 178//33 179//35
f 7//27 6//25 127//26 128//28
f 110//42 109//40 230//41 231//43
f 59//36 58//34 179//35 180//37
f 8//29 7//27 128//28 129//30
f 111//44 110//42 231//43 232//45
f 60//38 59//36 180//37 181//39
f 9//32 8//29 129//30 130//33
f 112//46 111//44 232//45 233//47
f 61//40 60//38 181//39 182//41
f 10//34 9//32 130//33 131//35
f 113//48 112//46 233//47 234//49
f 62//42 61//40 182//41 183//43
f 11//36 10//34 131//35 132//37
f 114//6 113//48 234//49 235//7
f 63//44 62//42 183//43 184//45
f 12//38 11//36 132//37 133//39
f 115//5 114//6 235//7 236//8
f 64//46 63//44 184//45 185//47
f 13//40 12//38 133//39 134//41
f 116//11 115//5 236//8 237//12
f 65//48 64//46 185//47 186//49
f 14//42 13//40 134//41 135//43
f 117//2 116//11 237//12 238//3
f 66//6 65//48 186//49 187//7
f 15//44 14//42 135//43 136//45
f 118//1 117//2 238//3 239//4
f 67//5 66//6 187//7 188//8
f 16//46 15//44 136//45 137//47
f 119//9 118//1 239//4 240//10
f 68//11 67//5 188//8 189//12
f 17//48 16//46 137//47 138//49
f 120//13 119//9 240//10 241//14
f 69//2 68//11 189//12 190//3
f 18//50 17//48 138//49 139//51
f 121//52 120//13 241//14 242//52
f 70//1 69//2 190//3 191//4
f 19//53 18//50 139//51 140//54
f 71//9 70//1 191//4 192//10
f 20//55 19//53 140//54 141//56
f 72//13 71//9 192//10 193//14
f 21//57 20//55 141//56 142//58
f 73//15 72//13 193//14 194//16
f 22//59 21//57 142//58 143//60
f 74//17 73//15 194//16 195//18
f 23//61 22//59 143//60 144//62
f 75//19 74//17 195//18 196//20
f 24//63 23//61 144//62 145//64
f 76//21 75//19 196//20 197//22
f 25//65 24//63 145//64 146//66
f 77//23 76//21 197//22 198//24
f 26//67 25//65 146//66 147//68
f 78//25 77//23 198//24 199//26
f 27//69 26//67 147//68 148//70
f 79//27 78//25 199//26 200//28
f 28//21 27//69 148//70 149//22
f 80//29 79//27 200//28 201//30
f 29//23 28//21 149//22 150//24
f 81//32 80//29 201//30 202//33
f 30//25 29//23 150//24 151//26
f 82//34 81//32 202//33 203//35
f 31//71 30//25 151//26 152//72
f 83//36 82//34 203//35 204//37
f 32//73 31//71 152//72 153//74
f 84//38 83//36 204//37 205//39
f 33//75 32//73 153//74 154//76
f 85//40 84//38 205//39 206//41
f 34//77 33//75 154//76 155//78
f 86//42 85//40 206//41 207//43
f 35//79 34//77 155//78 156//80
f 87//44 86//42 207//43 208//45
f 36//81 35//79 156//80 157//82
f 88//46 87//44 208//45 209//47
f 37//83 36//81 157//82 158//84
f 89//48 88//46 209//47 210//49
f 38//85 37//83 158//84 159//86
f 90//6 89//48 210//49 211//7
f 39//87 38//85 159//86 160//88
f 91//5 90//6 211//7 212//8
f 40//89 39//87 160//88 161//90
f 92//11 91//5 212//8 213//12
f 41//48 40//89 161//90 162//49
f 93//2 92//11 213//12 214//3
f 42//6 41//48 162//49 163//7
