# Blender 3.4.0
# www.blender.org
mtllib FlowerParticles_3.mtl
o FlowerParticles_3
v -14.290145 0.464152 32.381302
v -14.313776 0.593439 32.415070
v -14.340769 0.400371 32.630981
v -14.406196 0.565882 32.824635
v -14.383223 0.499865 32.562035
v -15.568198 1.794406 32.804291
v -15.459416 1.793774 32.892342
v -15.696755 1.738320 32.953323
v -15.599791 1.705659 33.174747
v -15.592240 1.800804 32.972473
v -15.486185 0.702666 33.286160
v -15.487626 0.790849 33.394825
v -15.348457 0.582347 33.378014
v -15.272919 0.651855 33.599285
v -15.428367 0.654120 33.438492
v -16.752998 1.050464 31.985954
v -16.797327 1.018667 32.199741
v -16.996012 1.080471 31.916983
v -17.202358 1.047852 32.211281
v -16.940702 1.122406 32.090351
v -16.090103 -0.133651 32.802853
v -16.017353 -0.096117 32.833447
v -16.152973 -0.076805 32.857338
v -16.075075 0.013809 32.935806
v -16.086300 -0.051217 32.838066
v -14.870889 0.947122 33.218868
v -14.897252 0.864773 33.231571
v -14.857659 0.967361 33.316689
v -14.891282 0.850427 33.391731
v -14.851502 0.898096 33.291466
vn 0.8596 0.3482 0.3739
vn 0.9289 -0.2042 0.3089
vn 0.9660 0.1371 0.2191
vn 0.9912 -0.0786 0.1065
vn 0.8512 0.4912 0.1847
vn 0.2011 -0.9774 0.0659
vn -0.1518 -0.9743 -0.1662
vn 0.1716 -0.9680 -0.1830
vn 0.1560 -0.8960 -0.4157
vn 0.5272 -0.8373 -0.1452
vn 0.8645 0.4699 -0.1784
vn 0.8597 0.2263 -0.4580
vn 0.7248 0.6002 -0.3382
vn 0.5985 0.5624 -0.5706
vn 0.5271 0.8082 -0.2627
vn -0.3825 -0.9225 -0.0521
vn -0.3487 -0.8643 -0.3626
vn -0.0231 -0.9894 -0.1437
vn 0.1727 -0.9605 -0.2184
vn 0.0911 -0.9742 0.2066
vn 0.0343 -0.3939 0.9185
vn -0.2602 -0.4853 0.8347
vn 0.0619 -0.7426 0.6668
vn 0.0397 -0.8340 0.5503
vn 0.4222 -0.5680 0.7064
vn -0.9656 0.0032 0.2600
vn -0.7487 0.6236 0.2249
vn -0.9357 0.3483 0.0558
vn -0.8310 0.5522 -0.0672
vn -0.9965 -0.0797 -0.0243
vt 0.000000 0.000000
vt 1.000000 0.000000
vt 0.000000 0.982821
vt 0.997585 1.000000
vt 0.494997 0.496195
vt 0.000000 0.000000
vt 1.000000 0.000000
vt 0.000000 0.982821
vt 0.997585 1.000000
vt 0.494997 0.496195
vt 0.000000 0.000000
vt 1.000000 0.000000
vt 0.000000 0.982821
vt 0.997585 1.000000
vt 0.494997 0.496195
vt 0.000000 0.000000
vt 1.000000 0.000000
vt 0.000000 0.982821
vt 0.997585 1.000000
vt 0.494997 0.496195
vt 0.000000 0.000000
vt 1.000000 0.000000
vt 0.000000 0.982821
vt 0.997585 1.000000
vt 0.494997 0.496195
vt 0.000000 0.000000
vt 1.000000 0.000000
vt 0.000000 0.982821
vt 0.997585 1.000000
vt 0.494997 0.496195
s 1
usemtl flowerParticles
f 1/1/1 2/2/2 5/5/3
f 4/4/4 3/3/5 5/5/3
f 5/5/3 2/2/2 4/4/4
f 5/5/3 3/3/5 1/1/1
f 6/6/6 7/7/7 10/10/8
f 9/9/9 8/8/10 10/10/8
f 10/10/8 7/7/7 9/9/9
f 10/10/8 8/8/10 6/6/6
f 11/11/11 12/12/12 15/15/13
f 14/14/14 13/13/15 15/15/13
f 15/15/13 12/12/12 14/14/14
f 15/15/13 13/13/15 11/11/11
f 16/16/16 17/17/17 20/20/18
f 19/19/19 18/18/20 20/20/18
f 20/20/18 17/17/17 19/19/19
f 20/20/18 18/18/20 16/16/16
f 21/21/21 22/22/22 25/25/23
f 24/24/24 23/23/25 25/25/23
f 25/25/23 22/22/22 24/24/24
f 25/25/23 23/23/25 21/21/21
f 26/26/26 27/27/27 30/30/28
f 29/29/29 28/28/30 30/30/28
f 30/30/28 27/27/27 29/29/29
f 30/30/28 28/28/30 26/26/26
