# Blender 3.4.0
# www.blender.org
mtllib FlowerParticles_14.mtl
o FlowerParticles_14
v -25.261938 -0.333478 6.750364
v -25.286055 -0.214530 6.689672
v -25.115320 -0.203077 6.924921
v -25.070107 0.055988 6.928900
v -25.214628 -0.161921 6.854926
v -26.188364 1.316496 6.785527
v -26.052551 1.331202 6.755096
v -26.165920 1.417906 6.961866
v -25.941540 1.498103 7.014022
v -26.094015 1.434713 6.863167
v -25.553204 0.833942 7.676894
v -25.501894 0.963163 7.660893
v -25.366575 0.757835 7.712402
v -25.181189 0.916283 7.707515
v -25.399027 0.874376 7.736051
v -27.398346 0.726047 7.687849
v -27.278812 0.853804 7.822274
v -27.622753 0.792671 7.787426
v -27.563162 1.029449 8.053207
v -27.477312 0.909595 7.794537
v -26.107868 0.176225 8.423542
v -26.044851 0.194590 8.365844
v -26.128857 0.272488 8.444657
v -26.042479 0.355484 8.366641
v -26.100779 0.253700 8.378853
v -25.221867 0.735335 7.108240
v -25.212738 0.696092 7.185792
v -25.151672 0.805526 7.125528
v -25.097799 0.783997 7.256181
v -25.148113 0.739730 7.159141
vn 0.7751 0.1590 -0.6115
vn 0.9090 -0.2882 -0.3011
vn 0.7954 -0.1224 -0.5936
vn 0.7879 -0.3507 -0.5062
vn 0.6090 0.1426 -0.7802
vn 0.4135 -0.7069 0.5739
vn 0.0086 -0.7205 0.6934
vn 0.2237 -0.8451 0.4856
vn 0.0399 -0.9349 0.3525
vn 0.4689 -0.8615 0.1949
vn 0.3799 -0.1037 -0.9192
vn 0.2457 -0.4445 -0.8614
vn 0.1439 -0.0624 -0.9876
vn -0.0921 -0.1873 -0.9780
vn 0.0069 0.2007 -0.9796
vn -0.0896 -0.5290 0.8439
vn -0.2874 -0.6951 0.6590
vn 0.1178 -0.7640 0.6344
vn 0.1989 -0.8624 0.4656
vn 0.4296 -0.5766 0.6949
vn 0.7318 0.2890 0.6172
vn 0.4895 0.2815 0.8253
vn 0.6637 -0.1188 0.7385
vn 0.5912 -0.2465 0.7679
vn 0.9034 -0.1055 0.4156
vn -0.5065 0.5181 0.6892
vn -0.5218 0.8449 0.1181
vn -0.7028 0.6178 0.3527
vn -0.7590 0.6434 0.1000
vn -0.6996 0.2947 0.6509
vt 0.000000 0.000000
vt 1.000000 0.000000
vt 0.000000 0.982821
vt 0.997585 1.000000
vt 0.494997 0.496195
vt 0.000000 0.000000
vt 1.000000 0.000000
vt 0.000000 0.982821
vt 0.997585 1.000000
vt 0.494997 0.496195
vt 0.000000 0.000000
vt 1.000000 0.000000
vt 0.000000 0.982821
vt 0.997585 1.000000
vt 0.494997 0.496195
vt 0.000000 0.000000
vt 1.000000 0.000000
vt 0.000000 0.982821
vt 0.997585 1.000000
vt 0.494997 0.496195
vt 0.000000 0.000000
vt 1.000000 0.000000
vt 0.000000 0.982821
vt 0.997585 1.000000
vt 0.494997 0.496195
vt 0.000000 0.000000
vt 1.000000 0.000000
vt 0.000000 0.982821
vt 0.997585 1.000000
vt 0.494997 0.496195
s 1
usemtl flowerParticles
f 1/1/1 2/2/2 5/5/3
f 4/4/4 3/3/5 5/5/3
f 5/5/3 2/2/2 4/4/4
f 5/5/3 3/3/5 1/1/1
f 6/6/6 7/7/7 10/10/8
f 9/9/9 8/8/10 10/10/8
f 10/10/8 7/7/7 9/9/9
f 10/10/8 8/8/10 6/6/6
f 11/11/11 12/12/12 15/15/13
f 14/14/14 13/13/15 15/15/13
f 15/15/13 12/12/12 14/14/14
f 15/15/13 13/13/15 11/11/11
f 16/16/16 17/17/17 20/20/18
f 19/19/19 18/18/20 20/20/18
f 20/20/18 17/17/17 19/19/19
f 20/20/18 18/18/20 16/16/16
f 21/21/21 22/22/22 25/25/23
f 24/24/24 23/23/25 25/25/23
f 25/25/23 22/22/22 24/24/24
f 25/25/23 23/23/25 21/21/21
f 26/26/26 27/27/27 30/30/28
f 29/29/29 28/28/30 30/30/28
f 30/30/28 27/27/27 29/29/29
f 30/30/28 28/28/30 26/26/26
