# Blender 3.4.0
# www.blender.org
mtllib FlowerParticles_13.mtl
o FlowerParticles_13
v -30.593178 0.169159 6.231038
v -30.618134 0.274742 6.312542
v -30.692471 0.014167 6.418361
v -30.787453 0.091217 6.651206
v -30.717491 0.137338 6.392707
v -31.879755 1.341024 6.974922
v -31.789734 1.291847 7.070130
v -32.036160 1.243314 7.063655
v -31.984167 1.111473 7.262181
v -31.935001 1.280103 7.123722
v -31.929747 0.146127 6.951603
v -31.948605 0.181144 7.085786
v -31.816332 -0.016063 7.003706
v -31.781673 -0.053079 7.242299
v -31.903635 0.032859 7.075674
v -32.913799 1.139938 5.743179
v -32.998966 1.027961 5.913145
v -33.138096 1.222924 5.656477
v -33.397530 1.095241 5.872455
v -33.115192 1.183037 5.837472
v -32.460648 -0.342218 6.069906
v -32.393723 -0.329123 6.124558
v -32.530632 -0.306237 6.132841
v -32.465828 -0.265504 6.253578
v -32.460640 -0.282672 6.137018
v -31.304499 0.325480 7.092216
v -31.335724 0.248779 7.064296
v -31.309338 0.301910 7.190063
v -31.360744 0.169036 7.201803
v -31.300995 0.249019 7.139028
vn 0.7851 0.0635 0.6162
vn 0.8456 -0.4168 0.3336
vn 0.9113 -0.0754 0.4049
vn 0.9496 -0.2268 0.2165
vn 0.8178 0.2718 0.5073
vn 0.1498 -0.9333 -0.3265
vn -0.1524 -0.7950 -0.5872
vn 0.1684 -0.8188 -0.5489
vn 0.1998 -0.6559 -0.7279
vn 0.5148 -0.7562 -0.4038
vn 0.8989 0.4008 0.1767
vn 0.9384 0.2967 -0.1770
vn 0.7968 0.6004 0.0680
vn 0.7155 0.6763 -0.1749
vn 0.5959 0.7795 0.1931
vn -0.3985 -0.7691 -0.4996
vn -0.3044 -0.5922 -0.7461
vn -0.0308 -0.8323 -0.5534
vn 0.1765 -0.7974 -0.5770
vn 0.0154 -0.9760 -0.2170
vn -0.1546 -0.7390 0.6557
vn -0.4309 -0.7538 0.4960
vn -0.0923 -0.9534 0.2871
vn -0.0952 -0.9854 0.1409
vn 0.2600 -0.8526 0.4533
vn -0.9966 0.0045 0.0819
vn -0.7549 0.5552 0.3490
vn -0.9162 0.3973 0.0517
vn -0.7829 0.6205 0.0455
vn -0.9760 0.0503 -0.2117
vt 0.000000 0.000000
vt 1.000000 0.000000
vt 0.000000 0.982821
vt 0.997585 1.000000
vt 0.494997 0.496195
vt 0.000000 0.000000
vt 1.000000 0.000000
vt 0.000000 0.982821
vt 0.997585 1.000000
vt 0.494997 0.496195
vt 0.000000 0.000000
vt 1.000000 0.000000
vt 0.000000 0.982821
vt 0.997585 1.000000
vt 0.494997 0.496195
vt 0.000000 0.000000
vt 1.000000 0.000000
vt 0.000000 0.982821
vt 0.997585 1.000000
vt 0.494997 0.496195
vt 0.000000 0.000000
vt 1.000000 0.000000
vt 0.000000 0.982821
vt 0.997585 1.000000
vt 0.494997 0.496195
vt 0.000000 0.000000
vt 1.000000 0.000000
vt 0.000000 0.982821
vt 0.997585 1.000000
vt 0.494997 0.496195
s 1
usemtl flowerParticles
f 1/1/1 2/2/2 5/5/3
f 4/4/4 3/3/5 5/5/3
f 5/5/3 2/2/2 4/4/4
f 5/5/3 3/3/5 1/1/1
f 6/6/6 7/7/7 10/10/8
f 9/9/9 8/8/10 10/10/8
f 10/10/8 7/7/7 9/9/9
f 10/10/8 8/8/10 6/6/6
f 11/11/11 12/12/12 15/15/13
f 14/14/14 13/13/15 15/15/13
f 15/15/13 12/12/12 14/14/14
f 15/15/13 13/13/15 11/11/11
f 16/16/16 17/17/17 20/20/18
f 19/19/19 18/18/20 20/20/18
f 20/20/18 17/17/17 19/19/19
f 20/20/18 18/18/20 16/16/16
f 21/21/21 22/22/22 25/25/23
f 24/24/24 23/23/25 25/25/23
f 25/25/23 22/22/22 24/24/24
f 25/25/23 23/23/25 21/21/21
f 26/26/26 27/27/27 30/30/28
f 29/29/29 28/28/30 30/30/28
f 30/30/28 27/27/27 29/29/29
f 30/30/28 28/28/30 26/26/26
