# Blender 3.4.0
# www.blender.org
mtllib FlowerParticles_2.mtl
o FlowerParticles_2
v -12.600418 0.465674 -1.082883
v -12.594115 0.598290 -1.110939
v -12.535667 0.525356 -0.835462
v -12.489274 0.765784 -0.739459
v -12.596025 0.596626 -0.923398
v -13.414302 2.167924 -0.935067
v -13.277720 2.170295 -0.904621
v -13.464078 2.217150 -0.742759
v -13.279285 2.248647 -0.586689
v -13.357384 2.247928 -0.796270
v -13.217516 1.389984 -0.047990
v -13.160767 1.510351 -0.004654
v -13.064356 1.281520 0.033623
v -12.889392 1.407893 0.147270
v -13.100571 1.391690 0.075403
v -14.904292 1.547515 -0.787098
v -14.847673 1.618687 -0.586078
v -15.147934 1.618131 -0.767984
v -15.197277 1.768956 -0.443836
v -15.015390 1.707440 -0.671387
v -14.048492 0.650986 0.199169
v -13.966797 0.674154 0.178516
v -14.073766 0.740755 0.237324
v -13.960690 0.827568 0.226679
v -14.021506 0.735412 0.185248
v -12.683486 1.392147 -0.445082
v -12.708281 1.333676 -0.385049
v -12.624879 1.444912 -0.382361
v -12.630428 1.383567 -0.253357
v -12.637283 1.372943 -0.370609
vn 0.9625 0.1961 -0.1875
vn 0.9442 -0.3294 0.0067
vn 0.9661 -0.0805 -0.2453
vn 0.9170 -0.3201 -0.2379
vn 0.8806 0.2469 -0.4044
vn 0.1203 -0.8806 0.4583
vn -0.2980 -0.8661 0.4014
vn -0.0196 -0.9634 0.2673
vn -0.1343 -0.9895 0.0534
vn 0.3233 -0.9406 0.1037
vn 0.7230 0.0790 -0.6863
vn 0.5679 -0.2426 -0.7865
vn 0.5376 0.1696 -0.8260
vn 0.3155 0.0813 -0.9454
vn 0.4166 0.4389 -0.7962
vn -0.4444 -0.7069 0.5503
vn -0.5525 -0.7907 0.2636
vn -0.1753 -0.9083 0.3797
vn -0.0343 -0.9714 0.2351
vn 0.0884 -0.7889 0.6081
vn 0.4186 0.0159 0.9080
vn 0.1118 -0.0093 0.9937
vn 0.2956 -0.3953 0.8697
vn 0.2141 -0.5146 0.8303
vn 0.6476 -0.3352 0.6843
vn -0.7322 0.3938 0.5558
vn -0.5013 0.8531 0.1448
vn -0.7690 0.6023 0.2140
vn -0.7151 0.6987 -0.0215
vn -0.8980 0.2173 0.3826
vt 0.000000 0.000000
vt 1.000000 0.000000
vt 0.000000 0.982821
vt 0.997585 1.000000
vt 0.494997 0.496195
vt 0.000000 0.000000
vt 1.000000 0.000000
vt 0.000000 0.982821
vt 0.997585 1.000000
vt 0.494997 0.496195
vt 0.000000 0.000000
vt 1.000000 0.000000
vt 0.000000 0.982821
vt 0.997585 1.000000
vt 0.494997 0.496195
vt 0.000000 0.000000
vt 1.000000 0.000000
vt 0.000000 0.982821
vt 0.997585 1.000000
vt 0.494997 0.496195
vt 0.000000 0.000000
vt 1.000000 0.000000
vt 0.000000 0.982821
vt 0.997585 1.000000
vt 0.494997 0.496195
vt 0.000000 0.000000
vt 1.000000 0.000000
vt 0.000000 0.982821
vt 0.997585 1.000000
vt 0.494997 0.496195
s 1
usemtl flowerParticles
f 1/1/1 2/2/2 5/5/3
f 4/4/4 3/3/5 5/5/3
f 5/5/3 2/2/2 4/4/4
f 5/5/3 3/3/5 1/1/1
f 6/6/6 7/7/7 10/10/8
f 9/9/9 8/8/10 10/10/8
f 10/10/8 7/7/7 9/9/9
f 10/10/8 8/8/10 6/6/6
f 11/11/11 12/12/12 15/15/13
f 14/14/14 13/13/15 15/15/13
f 15/15/13 12/12/12 14/14/14
f 15/15/13 13/13/15 11/11/11
f 16/16/16 17/17/17 20/20/18
f 19/19/19 18/18/20 20/20/18
f 20/20/18 17/17/17 19/19/19
f 20/20/18 18/18/20 16/16/16
f 21/21/21 22/22/22 25/25/23
f 24/24/24 23/23/25 25/25/23
f 25/25/23 22/22/22 24/24/24
f 25/25/23 23/23/25 21/21/21
f 26/26/26 27/27/27 30/30/28
f 29/29/29 28/28/30 30/30/28
f 30/30/28 27/27/27 29/29/29
f 30/30/28 28/28/30 26/26/26
