# Blender 3.4.0
# www.blender.org
mtllib FlowerParticles_8.mtl
o FlowerParticles_8
v -12.098145 1.215017 35.223160
v -12.126143 1.149920 35.124470
v -11.979170 1.360724 35.082077
v -11.955620 1.341541 34.848560
v -12.069086 1.293334 35.058315
v -13.032546 1.085228 33.815521
v -12.911636 1.058629 33.796158
v -13.022594 1.233461 33.708271
v -12.828499 1.275716 33.617512
v -12.957506 1.145005 33.697342
v -12.452173 1.931192 34.122952
v -12.414392 1.905992 34.006165
v -12.281349 1.972190 34.175041
v -12.125978 1.956062 34.022415
v -12.318325 1.982318 34.071548
v -14.092733 1.925805 34.340149
v -13.996964 2.035640 34.206776
v -14.299379 2.005472 34.286983
v -14.266802 2.221679 34.049053
v -14.177230 2.003234 34.172829
v -12.919838 2.648000 34.677731
v -12.863608 2.595803 34.662365
v -12.945218 2.657854 34.591721
v -12.871900 2.582053 34.519188
v -12.917618 2.601313 34.612400
v -12.138595 1.438041 34.239117
v -12.129463 1.510774 34.266487
v -12.080807 1.448062 34.170567
v -12.033937 1.567100 34.174515
v -12.074052 1.483976 34.225800
vn 0.7751 -0.6127 -0.1544
vn 0.9339 -0.2569 0.2486
vn 0.8152 -0.5662 0.1214
vn 0.8223 -0.4564 0.3399
vn 0.6145 -0.7814 -0.1092
vn 0.4505 0.6482 0.6139
vn 0.0450 0.7624 0.6455
vn 0.2731 0.5715 0.7738
vn 0.0994 0.4454 0.8898
vn 0.5254 0.2877 0.8008
vn 0.4069 -0.8983 0.1660
vn 0.2963 -0.8085 0.5084
vn 0.1701 -0.9741 0.1493
vn -0.0564 -0.9554 0.2897
vn 0.0143 -0.9946 -0.1024
vn -0.0700 0.8914 0.4478
vn -0.2512 0.7211 0.6456
vn 0.1584 0.7097 0.6864
vn 0.2502 0.5529 0.7948
vn 0.4544 0.7558 0.4714
vn 0.6951 0.5959 -0.4022
vn 0.4493 0.8001 -0.3975
vn 0.6538 0.7566 -0.0045
vn 0.5901 0.7976 0.1246
vn 0.8991 0.4377 -0.0034
vn -0.5579 0.6259 -0.5450
vn -0.5839 0.0246 -0.8115
vn -0.7533 0.2782 -0.5960
vn -0.8055 0.0234 -0.5922
vn -0.7335 0.6074 -0.3052
vt 0.000000 0.000000
vt 1.000000 0.000000
vt 0.000000 0.982821
vt 0.997585 1.000000
vt 0.494997 0.496195
vt 0.000000 0.000000
vt 1.000000 0.000000
vt 0.000000 0.982821
vt 0.997585 1.000000
vt 0.494997 0.496195
vt 0.000000 0.000000
vt 1.000000 0.000000
vt 0.000000 0.982821
vt 0.997585 1.000000
vt 0.494997 0.496195
vt 0.000000 0.000000
vt 1.000000 0.000000
vt 0.000000 0.982821
vt 0.997585 1.000000
vt 0.494997 0.496195
vt 0.000000 0.000000
vt 1.000000 0.000000
vt 0.000000 0.982821
vt 0.997585 1.000000
vt 0.494997 0.496195
vt 0.000000 0.000000
vt 1.000000 0.000000
vt 0.000000 0.982821
vt 0.997585 1.000000
vt 0.494997 0.496195
s 1
usemtl flowerParticles
f 1/1/1 2/2/2 5/5/3
f 4/4/4 3/3/5 5/5/3
f 5/5/3 2/2/2 4/4/4
f 5/5/3 3/3/5 1/1/1
f 6/6/6 7/7/7 10/10/8
f 9/9/9 8/8/10 10/10/8
f 10/10/8 7/7/7 9/9/9
f 10/10/8 8/8/10 6/6/6
f 11/11/11 12/12/12 15/15/13
f 14/14/14 13/13/15 15/15/13
f 15/15/13 12/12/12 14/14/14
f 15/15/13 13/13/15 11/11/11
f 16/16/16 17/17/17 20/20/18
f 19/19/19 18/18/20 20/20/18
f 20/20/18 17/17/17 19/19/19
f 20/20/18 18/18/20 16/16/16
f 21/21/21 22/22/22 25/25/23
f 24/24/24 23/23/25 25/25/23
f 25/25/23 22/22/22 24/24/24
f 25/25/23 23/23/25 21/21/21
f 26/26/26 27/27/27 30/30/28
f 29/29/29 28/28/30 30/30/28
f 30/30/28 27/27/27 29/29/29
f 30/30/28 28/28/30 26/26/26
