# Blender 3.4.0
# www.blender.org
mtllib Mesh_001.mtl
o Mesh.001
v 0.005924 -0.000929 0.178969
v 0.097618 0.496705 0.101447
v 0.166870 0.604402 0.051412
v 0.227936 0.767415 -0.040204
v 0.088918 0.814493 -0.020050
v 0.043825 0.633968 0.063134
v 0.062334 0.510806 0.101447
v -0.032043 0.000581 0.178969
v 0.029261 -0.004429 0.151455
v -0.006038 0.262424 0.162630
v 0.031107 0.254423 0.162630
v 0.059639 0.378164 0.137625
v 0.023307 0.389289 0.137625
v 0.013004 0.127249 0.176259
v -0.024692 0.132026 0.176259
v 0.064280 0.725586 0.024177
v 0.195650 0.687808 0.008486
v -0.191098 -0.002537 0.148913
v 0.045753 0.911189 -0.036068
v 0.113296 0.880055 0.040946
v -0.116485 0.010665 0.224869
v -0.104537 0.000658 0.216760
v 0.272031 0.810018 0.218858
v 0.121003 0.815211 0.287971
v 0.352002 0.640590 0.149001
v 0.298874 0.789088 0.202414
v -0.036455 0.415999 0.275531
v 0.161016 0.342065 0.171930
v 0.031166 0.618883 0.287561
v 0.249970 0.497910 0.165910
v -0.081634 0.209093 0.251905
v 0.086906 0.174143 0.167089
v -0.164541 0.480872 0.084361
v -0.089801 0.471165 0.160581
v -0.079823 0.708702 0.030948
v -0.202435 0.239432 0.123772
v -0.007841 0.687867 0.107503
v -0.126804 0.241234 0.199791
v 0.113580 0.659073 0.109810
v 0.183316 0.841144 0.021618
v 0.142514 0.758154 -0.098148
v 0.095310 0.603189 -0.003943
v 0.117622 0.682534 -0.048679
v 0.146155 0.751987 0.068826
v 0.086604 0.564426 0.116672
v 0.081387 0.543741 0.053286
v 0.074751 0.844765 0.159607
v -0.022694 0.643935 0.170649
v -0.020649 0.406490 0.195359
v -0.039702 0.198920 0.185478
v -0.068102 -0.000727 0.148871
v -0.072398 0.426112 0.175480
v 0.011035 0.624837 0.184702
v 0.095364 0.828698 0.169221
v -0.085133 0.208367 0.168827
v -0.107760 0.000781 0.134426
v -0.089732 0.005237 0.404756
v 0.175117 0.708682 0.068103
v 0.260198 0.645940 0.082080
v 0.015586 -0.012660 0.412169
v 0.011415 0.416660 0.303595
v 0.107821 0.371680 0.314060
v 0.091280 0.580809 0.200306
v -0.052311 0.221524 0.372911
v 0.181858 0.525608 0.212530
v 0.049302 0.189184 0.381736
v 0.249387 -0.033537 0.201402
v 0.160871 -0.010883 0.318534
v 0.611899 0.430117 0.012089
v 0.577729 0.506174 0.152733
v 0.543423 0.326037 -0.090548
v 0.606054 0.410268 -0.017101
v 0.274513 0.335781 0.249993
v 0.349117 0.211956 0.068911
v 0.412777 0.452389 0.204834
v 0.440541 0.287574 -0.007555
v 0.186024 0.172977 0.287964
v 0.281921 0.103317 0.138627
v 0.220354 -0.032880 0.026329
v 0.233842 -0.015799 0.155945
v 0.600891 0.493800 -0.013108
v 0.560036 0.454339 0.120319
v 0.496487 0.471446 -0.155945
v 0.594586 0.496643 -0.045844
v 0.298566 0.269407 0.135050
v 0.257848 0.255722 -0.067686
v 0.411170 0.380786 0.126868
v 0.356718 0.383263 -0.112576
v 0.238680 0.129565 0.144774
v 0.213522 0.110103 -0.021355
v 0.146813 -0.030525 -0.109984
v 0.131985 0.444829 -0.179011
v 0.155353 0.576689 -0.159320
v 0.263233 0.737567 -0.144064
v 0.351659 0.658594 -0.231778
v 0.243656 0.521049 -0.231289
v 0.162769 0.438313 -0.200284
v 0.178025 -0.026937 -0.131256
v 0.137514 0.198040 -0.184314
v 0.106095 0.199366 -0.163042
v 0.110344 0.321886 -0.175787
v 0.141559 0.317979 -0.197060
v 0.118776 0.080753 -0.140863
v 0.150187 0.081938 -0.162135
v 0.294327 0.592956 -0.233949
v 0.205316 0.660355 -0.154356
v 0.180634 0.574558 -0.251837
v 0.292866 0.739887 -0.245198
v 0.337767 0.670655 -0.123432
v 0.235317 0.538179 -0.143471
v 0.283590 0.607692 -0.135749
v 0.232411 0.660436 -0.251318
v 0.154938 0.489362 -0.225253
v 0.188116 0.480553 -0.168184
v -0.171351 0.011841 -0.092192
v -0.061356 -0.035307 -0.150263
v 0.339096 0.563235 0.004304
v 0.372174 0.453777 -0.070714
v 0.175346 0.618602 0.048357
v 0.317714 0.584211 0.018668
v 0.127263 0.256273 -0.130733
v -0.033991 0.352273 -0.040902
v 0.244929 0.367633 -0.105723
v 0.063637 0.495939 -0.000965
v 0.023728 0.121147 -0.145609
v -0.113518 0.189864 -0.071338
v -0.216132 0.010455 0.017891
v 0.309445 0.630195 0.049386
v 0.299074 0.623637 0.155227
v -0.215788 -0.005235 0.124050
v -0.037210 0.432328 0.037462
v -0.043705 0.418980 0.143453
v 0.125864 0.564973 0.044337
v -0.157585 0.240731 0.028646
v 0.116894 0.554674 0.150253
v -0.160803 0.225506 0.134717
v -0.259742 -0.023281 -0.103533
v -0.257025 -0.069180 0.022046
v 0.131091 0.651560 0.163879
v 0.064650 0.569560 0.268455
v 0.080807 0.640213 -0.007481
v 0.134321 0.660516 0.131694
v -0.148238 0.287030 0.147627
v -0.142359 0.347563 -0.053306
v -0.052712 0.440209 0.208742
v -0.041801 0.506157 -0.029746
v -0.217480 0.114754 0.085322
v -0.216218 0.169170 -0.077968
v -0.362204 -0.014506 -0.338104
v 0.145694 0.744021 -0.059207
v 0.062254 0.773519 0.005617
v -0.447341 -0.027569 -0.271058
v -0.177944 0.422949 -0.226506
v -0.265048 0.430781 -0.160314
v -0.029081 0.602194 -0.149429
v -0.291371 0.213972 -0.289625
v -0.115105 0.620899 -0.083864
v -0.378130 0.211136 -0.222936
v 0.232251 -0.000029 -0.434960
v 0.295578 -0.041798 -0.329094
v 0.587722 0.448555 -0.073726
v 0.533841 0.354788 -0.002012
v 0.552383 0.502625 -0.239892
v 0.593125 0.465827 -0.101179
v 0.375864 0.187438 -0.175359
v 0.326320 0.290972 -0.346653
v 0.446999 0.280379 -0.090979
v 0.425496 0.411415 -0.295436
v 0.324167 0.078896 -0.254832
v 0.260844 0.150562 -0.393252
v -0.256574 0.001710 -0.466134
v -0.124140 -0.047606 -0.518027
v 0.316979 0.641779 -0.243027
v 0.359459 0.512810 -0.324005
v 0.128348 0.710528 -0.222140
v 0.291965 0.667031 -0.230461
v 0.086443 0.290463 -0.444173
v -0.106463 0.400698 -0.365865
v 0.218137 0.416820 -0.389756
v 0.002908 0.568092 -0.299325
v -0.029619 0.134834 -0.486999
v -0.194554 0.210717 -0.421530
v -0.620627 -0.073742 -0.115951
v -0.616810 -0.067648 0.015693
v -0.099373 0.733742 -0.103006
v -0.157053 0.690135 0.029156
v -0.192694 0.661453 -0.252596
v -0.102418 0.731622 -0.136316
v -0.444905 0.361288 0.022636
v -0.461429 0.337566 -0.184070
v -0.312500 0.541233 0.025929
v -0.338133 0.513538 -0.218301
v -0.548121 0.155291 0.019238
v -0.557224 0.138145 -0.149941
v -0.171930 0.734208 0.526199
v -0.307087 0.569020 0.459901
v -0.402663 0.350971 0.477655
v -0.476705 0.156991 0.456793
v -0.534868 -0.034208 0.411344
v -0.413974 0.375792 0.425558
v -0.302601 0.547170 0.494576
v -0.171386 0.716970 0.548063
v -0.489801 0.171650 0.411582
v -0.548614 -0.027741 0.371937
vn 0.3411 0.9400 0.0084
vn 0.0747 0.9969 0.0243
vn 0.0599 0.9962 0.0637
vn 0.3324 0.9384 0.0949
vn 0.3432 0.9368 -0.0686
vn 0.1000 0.9948 -0.0191
vn -0.1262 0.5648 0.8155
vn -0.1572 0.2015 0.9668
vn 0.0314 0.2017 0.9789
vn 0.0750 0.5217 0.8498
vn -0.0189 0.8283 0.5599
vn 0.1264 0.7994 0.5874
vn 0.0656 0.9139 0.4005
vn 0.1792 0.8946 0.4094
vn 0.1593 0.9573 0.2412
vn 0.2446 0.9385 0.2439
vn 0.5077 0.8350 0.2121
vn 0.3834 0.8876 0.2553
vn 0.3504 0.8949 0.2764
vn 0.1605 0.9123 0.3768
vn 0.0488 0.8842 0.4645
vn 0.4619 0.8327 0.3055
vn -0.0867 0.8003 0.5933
vn 0.4244 0.7960 0.4316
vn -0.2701 0.5756 0.7718
vn 0.3568 0.6265 0.6930
vn -0.4428 0.1857 0.8772
vn 0.2098 0.2022 0.9566
vn -0.6373 0.6722 0.3768
vn -0.4115 0.6729 0.6147
vn -0.2088 0.9100 0.3582
vn -0.3717 0.9097 0.1852
vn -0.7782 0.1834 0.6006
vn -0.4478 0.2006 0.8714
vn -0.0922 0.9953 0.0300
vn -0.0104 0.9906 0.1365
vn 0.1226 0.9912 0.0508
vn 0.0508 0.9978 -0.0420
vn 0.2193 0.9707 0.0978
vn 0.2070 0.9748 -0.0834
vn 0.1354 0.9907 -0.0152
vn 0.2134 0.9573 0.1949
vn 0.2588 0.9656 0.0265
vn 0.2297 0.9596 -0.1624
vn 0.1856 0.9526 0.2410
vn 0.1287 0.9893 0.0693
vn -0.0409 0.9513 0.3055
vn 0.0177 0.9380 0.3461
vn 0.1439 0.9597 0.2413
vn 0.1010 0.9714 0.2149
vn -0.1810 0.8878 0.4230
vn -0.3197 0.7118 0.6253
vn -0.1599 0.6749 0.7204
vn -0.0497 0.8674 0.4952
vn -0.6041 0.2023 0.7708
vn -0.3932 0.2024 0.8969
vn -0.1316 0.4704 0.8726
vn 0.1318 0.4098 0.9026
vn 0.2328 0.7166 0.6575
vn 0.0216 0.7896 0.6132
vn -0.2148 0.1753 0.9608
vn 0.0339 0.1671 0.9854
vn 0.1685 0.9123 0.3732
vn 0.3355 0.8607 0.3830
vn 0.4272 0.8952 0.1271
vn 0.2949 0.9494 0.1077
vn 0.8651 0.4800 -0.1456
vn 0.8456 0.5331 -0.0289
vn 0.8295 0.5583 0.0144
vn 0.7547 0.6251 0.1991
vn 0.6627 0.6734 0.3275
vn 0.8548 0.5183 -0.0247
vn 0.5641 0.6562 0.5012
vn 0.8701 0.4701 0.1481
vn 0.5073 0.4123 0.7568
vn 0.8578 0.2853 0.4276
vn 0.4476 0.1719 0.8776
vn 0.7781 0.1582 0.6079
vn 0.7234 0.6521 -0.2267
vn 0.7835 0.6178 -0.0672
vn 0.7888 0.6143 -0.0231
vn 0.7797 0.6040 0.1649
vn 0.7435 0.6316 0.2196
vn 0.6992 0.6783 -0.2258
vn 0.7242 0.6132 0.3156
vn 0.7193 0.6635 -0.2058
vn 0.7889 0.4005 0.4660
vn 0.9092 0.4063 -0.0909
vn 0.8175 0.1751 0.5486
vn 0.9807 0.1712 0.0944
vn 0.3306 0.9086 -0.2551
vn 0.4437 0.8232 -0.3543
vn 0.4095 0.8197 -0.4006
vn 0.2914 0.9081 -0.3008
vn 0.3802 0.8993 -0.2160
vn 0.4750 0.8201 -0.3190
vn 0.6353 0.2900 -0.7157
vn 0.7796 0.1739 -0.6017
vn 0.7780 0.1749 -0.6034
vn 0.5791 0.3470 -0.7377
vn 0.4767 0.6173 -0.6258
vn 0.4122 0.6692 -0.6183
vn 0.3705 0.7577 -0.5373
vn 0.3096 0.7984 -0.5165
vn 0.3430 0.8321 -0.4357
vn 0.2892 0.8636 -0.4129
vn 0.3403 0.8616 -0.3767
vn 0.4525 0.8629 -0.2251
vn 0.4325 0.8619 -0.2649
vn 0.2949 0.8569 -0.4228
vn 0.3822 0.8644 -0.3268
vn 0.4814 0.8579 -0.1796
vn 0.3045 0.8396 -0.4498
vn 0.3800 0.8595 -0.3418
vn 0.3389 0.9372 0.0818
vn 0.5149 0.8570 0.0214
vn 0.5542 0.8323 0.0061
vn 0.6502 0.7474 -0.1363
vn 0.5640 0.7878 -0.2478
vn 0.0798 0.9967 -0.0152
vn 0.4550 0.7606 -0.4631
vn -0.0458 0.9970 -0.0630
vn 0.1287 0.5699 -0.8116
vn -0.5407 0.7578 -0.3653
vn -0.3865 0.1741 -0.9057
vn -0.8446 0.2051 -0.4946
vn -0.5996 0.7946 0.0950
vn -0.5552 0.7075 0.4373
vn -0.1163 0.9149 0.3866
vn -0.0471 0.9976 0.0501
vn -0.9753 0.2034 0.0858
vn -0.8497 0.1822 0.4948
vn 0.2821 0.9564 0.0753
vn 0.2440 0.9189 0.3099
vn 0.4585 0.8577 0.2324
vn 0.4905 0.8683 0.0737
vn 0.0944 0.9954 -0.0180
vn 0.1127 0.8720 0.4764
vn 0.2268 0.9322 0.2821
vn 0.2447 0.9404 0.2361
vn -0.0544 0.9975 -0.0450
vn -0.1314 0.8682 0.4785
vn -0.4253 0.8871 -0.1792
vn -0.4367 0.7893 0.4316
vn -0.7764 0.5629 -0.2835
vn -0.8592 0.4049 0.3127
vn -0.9060 0.1714 -0.3870
vn -0.9854 0.1461 0.0870
vn -0.6309 0.4480 -0.6335
vn -0.7850 0.4059 -0.4679
vn -0.5270 0.7873 -0.3199
vn -0.3706 0.7961 -0.4785
vn -0.7085 0.1557 -0.6884
vn -0.8466 0.1475 -0.5114
vn -0.0613 0.9513 -0.3020
vn -0.2329 0.9576 -0.1697
vn 0.0715 0.9974 0.0045
vn 0.2300 0.9688 -0.0921
vn 0.7185 0.6198 -0.3158
vn 0.7978 0.5869 -0.1379
vn 0.8072 0.5796 -0.1116
vn 0.8504 0.5259 -0.0157
vn 0.8420 0.5074 -0.1831
vn 0.6541 0.6043 -0.4549
vn 0.8228 0.3969 -0.4067
vn 0.5816 0.5033 -0.6391
vn 0.7654 0.2304 -0.6009
vn 0.5321 0.2851 -0.7972
vn 0.6555 0.1461 -0.7409
vn 0.4548 0.1659 -0.8750
vn 0.2008 0.9148 -0.3505
vn 0.4089 0.8524 -0.3258
vn 0.4444 0.8264 -0.3456
vn 0.5256 0.7056 -0.4752
vn 0.3714 0.6586 -0.6545
vn 0.0088 0.8582 -0.5133
vn 0.1738 0.5140 -0.8400
vn -0.1976 0.7020 -0.6842
vn -0.0447 0.2656 -0.9630
vn -0.3738 0.3969 -0.8383
vn -0.2234 0.1374 -0.9650
vn -0.4617 0.1638 -0.8718
vn -0.2950 0.8726 -0.3894
vn -0.2760 0.9600 0.0466
vn -0.1491 0.9760 -0.1588
vn -0.1754 0.9557 -0.2363
vn -0.5434 0.7578 -0.3611
vn -0.5440 0.8380 0.0433
vn -0.7826 0.5301 -0.3263
vn -0.7903 0.6120 0.0296
vn -0.9346 0.2389 -0.2636
vn -0.9626 0.2694 0.0281
vn -0.9713 0.1315 -0.1981
vn -0.9911 0.1314 0.0233
vn -0.3998 0.6995 0.5923
vn -0.3887 0.6677 0.6348
vn -0.1942 0.7607 0.6194
vn -0.1970 0.7796 0.5945
vn -0.6014 0.5169 0.6092
vn -0.7392 0.2471 0.6265
vn -0.6989 0.2395 0.6740
vn -0.5746 0.4704 0.6698
vn -0.8212 0.1394 0.5533
vn -0.7864 0.1351 0.6028
vt 0.825000 0.040000
vt 0.810000 0.570000
vt 0.830000 0.710000
vt 0.800000 0.910000
vt 0.650000 0.870000
vt 0.700000 0.680000
vt 0.770000 0.570000
vt 0.785000 0.040000
vt 0.455300 0.040000
vt 0.777500 0.305000
vt 0.817500 0.305000
vt 0.813750 0.437500
vt 0.773750 0.437500
vt 0.821250 0.172500
vt 0.781250 0.172500
vt 0.675000 0.775000
vt 0.815000 0.810000
vt 0.154802 0.040000
vt 0.090308 0.923200
vt 0.202746 0.918880
vt 0.267489 0.040000
vt 0.298478 0.040000
vt 0.391208 0.911639
vt 0.238127 0.834376
vt 0.575210 0.808960
vt 0.430972 0.910111
vt 0.268302 0.437188
vt 0.515255 0.424480
vt 0.253215 0.635782
vt 0.545232 0.616720
vt 0.283390 0.238594
vt 0.485277 0.232240
vt 0.122555 0.481600
vt 0.235117 0.479440
vt 0.106432 0.702400
vt 0.138679 0.260800
vt 0.218931 0.699160
vt 0.251303 0.259720
vt 0.830000 0.710000
vt 0.800000 0.910000
vt 0.650000 0.870000
vt 0.700000 0.680000
vt 0.675000 0.775000
vt 0.815000 0.810000
vt 0.816539 0.615772
vt 0.747114 0.605963
vt 0.238127 0.834376
vt 0.253215 0.635782
vt 0.348562 0.433058
vt 0.374239 0.235735
vt 0.353365 0.040000
vt 0.286762 0.436238
vt 0.296492 0.632957
vt 0.267327 0.832175
vt 0.322373 0.237367
vt 0.308906 0.040000
vt 0.154802 0.040000
vt 0.090308 0.923200
vt 0.202746 0.918880
vt 0.267489 0.040000
vt 0.122555 0.481600
vt 0.235117 0.479440
vt 0.106432 0.702400
vt 0.138679 0.260800
vt 0.218931 0.699160
vt 0.251303 0.259720
vt 0.455300 0.040000
vt 0.298478 0.040000
vt 0.391208 0.911639
vt 0.238127 0.834376
vt 0.575210 0.808960
vt 0.430972 0.910111
vt 0.268302 0.437188
vt 0.515255 0.424480
vt 0.253215 0.635782
vt 0.545232 0.616720
vt 0.283390 0.238594
vt 0.485277 0.232240
vt 0.455300 0.040000
vt 0.298478 0.040000
vt 0.391208 0.911639
vt 0.238127 0.834376
vt 0.575210 0.808960
vt 0.430972 0.910111
vt 0.268302 0.437188
vt 0.515255 0.424480
vt 0.253215 0.635782
vt 0.545232 0.616720
vt 0.283390 0.238594
vt 0.485277 0.232240
vt 0.825000 0.040000
vt 0.810000 0.570000
vt 0.830000 0.710000
vt 0.800000 0.910000
vt 0.650000 0.870000
vt 0.700000 0.680000
vt 0.770000 0.570000
vt 0.785000 0.040000
vt 0.777500 0.305000
vt 0.817500 0.305000
vt 0.813750 0.437500
vt 0.773750 0.437500
vt 0.821250 0.172500
vt 0.781250 0.172500
vt 0.675000 0.775000
vt 0.815000 0.810000
vt 0.830000 0.710000
vt 0.800000 0.910000
vt 0.650000 0.870000
vt 0.700000 0.680000
vt 0.675000 0.775000
vt 0.815000 0.810000
vt 0.816539 0.615772
vt 0.747114 0.605963
vt 0.455300 0.040000
vt 0.298478 0.040000
vt 0.391208 0.911639
vt 0.238127 0.834376
vt 0.575210 0.808960
vt 0.430972 0.910111
vt 0.268302 0.437188
vt 0.515255 0.424480
vt 0.253215 0.635782
vt 0.545232 0.616720
vt 0.283390 0.238594
vt 0.485277 0.232240
vt 0.154802 0.040000
vt 0.090308 0.923200
vt 0.202746 0.918880
vt 0.267489 0.040000
vt 0.122555 0.481600
vt 0.235117 0.479440
vt 0.106432 0.702400
vt 0.138679 0.260800
vt 0.218931 0.699160
vt 0.251303 0.259720
vt 0.455300 0.040000
vt 0.298478 0.040000
vt 0.391208 0.911639
vt 0.238127 0.834376
vt 0.575210 0.808960
vt 0.430972 0.910111
vt 0.268302 0.437188
vt 0.515255 0.424480
vt 0.253215 0.635782
vt 0.545232 0.616720
vt 0.283390 0.238594
vt 0.485277 0.232240
vt 0.154802 0.040000
vt 0.090308 0.923200
vt 0.202746 0.918880
vt 0.267489 0.040000
vt 0.122555 0.481600
vt 0.235117 0.479440
vt 0.106432 0.702400
vt 0.138679 0.260800
vt 0.218931 0.699160
vt 0.251303 0.259720
vt 0.455300 0.040000
vt 0.298478 0.040000
vt 0.391208 0.911639
vt 0.238127 0.834376
vt 0.575210 0.808960
vt 0.430972 0.910111
vt 0.268302 0.437188
vt 0.515255 0.424480
vt 0.253215 0.635782
vt 0.545232 0.616720
vt 0.283390 0.238594
vt 0.485277 0.232240
vt 0.455300 0.040000
vt 0.298478 0.040000
vt 0.391208 0.911639
vt 0.238127 0.834376
vt 0.575210 0.808960
vt 0.430972 0.910111
vt 0.268302 0.437188
vt 0.515255 0.424480
vt 0.253215 0.635782
vt 0.545232 0.616720
vt 0.283390 0.238594
vt 0.485277 0.232240
vt 0.455300 0.040000
vt 0.298478 0.040000
vt 0.391208 0.911639
vt 0.238127 0.834376
vt 0.575210 0.808960
vt 0.430972 0.910111
vt 0.268302 0.437188
vt 0.515255 0.424480
vt 0.253215 0.635782
vt 0.545232 0.616720
vt 0.283390 0.238594
vt 0.485277 0.232240
vt 0.238127 0.834376
vt 0.253215 0.635782
vt 0.348562 0.433058
vt 0.374239 0.235735
vt 0.353365 0.040000
vt 0.286762 0.436238
vt 0.296492 0.632957
vt 0.267327 0.832175
vt 0.322373 0.237367
vt 0.308906 0.040000
s 1
usemtl 
f 17/17/1 16/16/2 6/6/3 3/3/4
f 4/4/5 5/5/6 16/16/2 17/17/1
f 15/15/7 8/8/8 1/1/9 14/14/10
f 10/10/11 15/15/7 14/14/10 11/11/12
f 13/13/13 10/10/11 11/11/12 12/12/14
f 7/7/15 13/13/13 12/12/14 2/2/16
f 3/3/4 6/6/3 7/7/15 2/2/16
f 25/25/17 26/26/18 23/23/19 24/24/20
f 24/24/20 29/29/21 30/30/22 25/25/17
f 29/29/21 27/27/23 28/28/24 30/30/22
f 27/27/23 31/31/25 32/32/26 28/28/24
f 31/31/25 22/22/27 9/9/28 32/32/26
f 36/36/29 38/38/30 34/34/31 33/33/32
f 18/18/33 21/21/34 38/38/30 36/36/29
f 35/35/35 37/37/36 20/20/37 19/19/38
f 33/33/32 34/34/31 37/37/36 35/35/35
f 44/44/39 43/43/40 42/42/41 39/39/42
f 40/40/43 41/41/44 43/43/40 44/44/39
f 45/45/45 39/39/42 42/42/41 46/46/46
f 48/48/47 53/53/48 54/54/49 47/47/50
f 52/52/51 55/55/52 50/50/53 49/49/54
f 55/55/52 56/56/55 51/51/56 50/50/53
f 52/52/51 49/49/54 53/53/48 48/48/47
f 64/64/57 66/66/58 62/62/59 61/61/60
f 57/57/61 60/60/62 66/66/58 64/64/57
f 63/63/63 65/65/64 59/59/65 58/58/66
f 61/61/60 62/62/59 65/65/64 63/63/63
f 71/71/67 72/72/68 69/69/69 70/70/70
f 70/70/70 75/75/71 76/76/72 71/71/67
f 75/75/71 73/73/73 74/74/74 76/76/72
f 73/73/73 77/77/75 78/78/76 74/74/74
f 77/77/75 68/68/77 67/67/78 78/78/76
f 83/83/79 84/84/80 81/81/81 82/82/82
f 82/82/82 87/87/83 88/88/84 83/83/79
f 87/87/83 85/85/85 86/86/86 88/88/84
f 85/85/85 89/89/87 90/90/88 86/86/86
f 89/89/87 80/80/89 79/79/90 90/90/88
f 106/106/91 105/105/92 96/96/93 93/93/94
f 94/94/95 95/95/96 105/105/92 106/106/91
f 104/104/97 98/98/98 91/91/99 103/103/100
f 99/99/101 104/104/97 103/103/100 100/100/102
f 102/102/103 99/99/101 100/100/102 101/101/104
f 97/97/105 102/102/103 101/101/104 92/92/106
f 93/93/94 96/96/93 97/97/105 92/92/106
f 112/112/107 111/111/108 110/110/109 107/107/110
f 108/108/111 109/109/112 111/111/108 112/112/107
f 113/113/113 107/107/110 110/110/109 114/114/114
f 119/119/115 120/120/116 117/117/117 118/118/118
f 118/118/118 123/123/119 124/124/120 119/119/115
f 123/123/119 121/121/121 122/122/122 124/124/120
f 121/121/121 125/125/123 126/126/124 122/122/122
f 125/125/123 116/116/125 115/115/126 126/126/124
f 134/134/127 136/136/128 132/132/129 131/131/130
f 127/127/131 130/130/132 136/136/128 134/134/127
f 133/133/133 135/135/134 129/129/135 128/128/136
f 131/131/130 132/132/129 135/135/134 133/133/133
f 141/141/137 140/140/138 139/139/139 142/142/140
f 140/140/138 141/141/137 146/146/141 145/145/142
f 145/145/142 146/146/141 144/144/143 143/143/144
f 143/143/144 144/144/143 148/148/145 147/147/146
f 147/147/146 148/148/145 137/137/147 138/138/148
f 156/156/149 158/158/150 154/154/151 153/153/152
f 149/149/153 152/152/154 158/158/150 156/156/149
f 155/155/155 157/157/156 151/151/157 150/150/158
f 153/153/152 154/154/151 157/157/156 155/155/155
f 163/163/159 164/164/160 161/161/161 162/162/162
f 162/162/162 167/167/163 168/168/164 163/163/159
f 167/167/163 165/165/165 166/166/166 168/168/164
f 165/165/165 169/169/167 170/170/168 166/166/166
f 169/169/167 160/160/169 159/159/170 170/170/168
f 175/175/171 176/176/172 173/173/173 174/174/174
f 174/174/174 179/179/175 180/180/176 175/175/171
f 179/179/175 177/177/177 178/178/178 180/180/176
f 177/177/177 181/181/179 182/182/180 178/178/178
f 181/181/179 172/172/181 171/171/182 182/182/180
f 187/187/183 186/186/184 185/185/185 188/188/186
f 186/186/184 187/187/183 192/192/187 191/191/188
f 191/191/188 192/192/187 190/190/189 189/189/190
f 189/189/190 190/190/189 194/194/191 193/193/192
f 193/193/192 194/194/191 183/183/193 184/184/194
f 196/196/195 201/201/196 202/202/197 195/195/198
f 200/200/199 203/203/200 198/198/201 197/197/202
f 203/203/200 204/204/203 199/199/204 198/198/201
f 200/200/199 197/197/202 201/201/196 196/196/195
