# Blender 3.4.0
# www.blender.org
mtllib packpackBuckle.mtl
o packpackBuckle
v -14.920400 3.328859 29.842600
v -14.941863 3.130516 29.803583
v -14.825976 3.339062 29.738791
v -14.847440 3.140719 29.699774
v -14.844390 3.305926 29.749086
v -14.908807 3.298965 29.819906
v -14.923450 3.163652 29.793287
v -14.859033 3.170613 29.722467
v -14.894651 3.135617 29.751678
v -14.891241 3.167133 29.757877
v -14.882348 3.207924 29.753542
v -14.898452 3.206184 29.771246
v -14.890400 3.207054 29.762394
v -14.906454 3.134342 29.764654
v -14.899293 3.166262 29.766731
v -14.882849 3.136893 29.738703
v -14.883189 3.168003 29.749025
v -14.925326 3.228052 29.828211
v -14.910323 3.229673 29.811716
v -14.830903 3.238255 29.724401
v -14.845906 3.236634 29.740896
v -14.827764 3.288468 29.732191
v -14.844472 3.271089 29.745586
v -14.838495 3.189296 29.712683
v -14.851793 3.203433 29.732279
v -14.922187 3.278265 29.836002
v -14.908889 3.264129 29.816408
v -14.932919 3.179093 29.816494
v -14.916210 3.196472 29.803099
v -14.654269 3.336216 29.512556
v -14.658662 3.141195 29.455366
v -14.582994 3.368872 29.395725
v -14.587386 3.173851 29.338533
v -14.595016 3.332696 29.405201
v -14.643642 3.310417 29.484905
v -14.646639 3.177371 29.445889
v -14.598014 3.199650 29.366184
v -14.623024 3.157523 29.396950
v -14.622326 3.188511 29.406036
v -14.619383 3.230367 29.404928
v -14.631539 3.224797 29.424854
v -14.625462 3.227582 29.414892
v -14.631933 3.153441 29.411552
v -14.628405 3.185726 29.416000
v -14.614115 3.161605 29.382345
v -14.616248 3.191295 29.396074
v -14.649647 3.237436 29.487766
v -14.638322 3.242625 29.469202
v -14.578371 3.270092 29.370934
v -14.589697 3.264903 29.389498
v -14.579888 3.319334 29.383772
v -14.591562 3.298652 29.397793
v -14.582085 3.221824 29.355177
v -14.593061 3.232129 29.378284
v -14.651164 3.286678 29.500605
v -14.640188 3.276373 29.477497
v -14.653360 3.189167 29.472008
v -14.641686 3.209850 29.457989
vn 0.8173 -0.0852 0.5698
vn 0.7338 -0.2067 0.6471
vn 0.6300 -0.3225 0.7065
vn 0.7411 -0.0909 0.6652
vn 0.7414 -0.2733 0.6129
vn 0.7220 -0.1389 0.6778
vn 0.6537 -0.1029 0.7497
vn 0.7071 -0.2770 0.6506
vn 0.7564 -0.1352 0.6400
vn 0.7936 -0.3048 0.5266
vn 0.9142 -0.0220 0.4047
vn 0.8619 -0.1605 0.4810
vn 0.7858 -0.2945 0.5439
vn 0.8585 -0.0468 0.5107
vn 0.8709 -0.2220 0.4385
vn 0.8481 -0.0980 0.5208
vn 0.7907 -0.0786 0.6072
vn 0.8450 -0.2339 0.4809
vn 0.8740 -0.0862 0.4783
vn 0.9093 -0.2379 0.3414
vt 0.000000 0.000000
vt 1.000000 0.000000
vt 0.000000 1.000000
vt 1.000000 1.000000
vt 0.158893 0.841107
vt 0.158893 0.158893
vt 0.841107 0.158893
vt 0.841107 0.841107
vt 1.000000 0.500000
vt 0.841107 0.500000
vt 0.841107 0.585277
vt 0.841107 0.414723
vt 0.841107 0.500000
vt 1.000000 0.375000
vt 0.841107 0.414723
vt 1.000000 0.625000
vt 0.841107 0.585277
vt 0.500000 0.000000
vt 0.500000 0.158893
vt 0.500000 1.000000
vt 0.500000 0.841107
vt 0.250000 1.000000
vt 0.329447 0.841107
vt 0.750000 1.000000
vt 0.670553 0.841107
vt 0.250000 0.000000
vt 0.329447 0.158893
vt 0.750000 0.000000
vt 0.670553 0.158893
vt 0.000000 0.000000
vt 1.000000 0.000000
vt 0.000000 1.000000
vt 1.000000 1.000000
vt 0.158893 0.841107
vt 0.158893 0.158893
vt 0.841107 0.158893
vt 0.841107 0.841107
vt 1.000000 0.500000
vt 0.841107 0.500000
vt 0.841107 0.585277
vt 0.841107 0.414723
vt 0.841107 0.500000
vt 1.000000 0.375000
vt 0.841107 0.414723
vt 1.000000 0.625000
vt 0.841107 0.585277
vt 0.500000 0.000000
vt 0.500000 0.158893
vt 0.500000 1.000000
vt 0.500000 0.841107
vt 0.250000 1.000000
vt 0.329447 0.841107
vt 0.750000 1.000000
vt 0.670553 0.841107
vt 0.250000 0.000000
vt 0.329447 0.158893
vt 0.750000 0.000000
vt 0.670553 0.158893
s 0
f 27/27/1 6/6/1 1/1/1 26/26/1
f 8/8/2 17/17/2 16/16/2 4/4/2
f 25/25/3 8/8/3 4/4/3 24/24/3
f 6/6/2 5/5/2 3/3/2 1/1/2
f 17/17/2 10/10/2 9/9/2 16/16/2
f 15/15/4 10/10/4 13/13/4 12/12/4
f 10/10/2 15/15/2 14/14/2 9/9/2
f 10/10/4 17/17/4 11/11/4 13/13/4
f 15/15/2 7/7/2 2/2/2 14/14/2
f 29/29/5 19/19/5 18/18/5 28/28/5
f 23/23/6 21/21/6 20/20/6 22/22/6
f 5/5/7 23/23/7 22/22/7 3/3/7
f 21/21/8 25/25/8 24/24/8 20/20/8
f 19/19/9 27/27/9 26/26/9 18/18/9
f 7/7/10 29/29/10 28/28/10 2/2/10
f 56/56/11 35/35/11 30/30/11 55/55/11
f 37/37/12 46/46/12 45/45/12 33/33/12
f 54/54/13 37/37/13 33/33/13 53/53/13
f 35/35/12 34/34/12 32/32/12 30/30/12
f 46/46/12 39/39/12 38/38/12 45/45/12
f 44/44/14 39/39/14 42/42/14 41/41/14
f 39/39/12 44/44/12 43/43/12 38/38/12
f 39/39/14 46/46/14 40/40/14 42/42/14
f 44/44/12 36/36/12 31/31/12 43/43/12
f 58/58/15 48/48/15 47/47/15 57/57/15
f 52/52/16 50/50/16 49/49/16 51/51/16
f 34/34/17 52/52/17 51/51/17 32/32/17
f 50/50/18 54/54/18 53/53/18 49/49/18
f 48/48/19 56/56/19 55/55/19 47/47/19
f 36/36/20 58/58/20 57/57/20 31/31/20
