# Blender 3.4.0
# www.blender.org
mtllib Cylinder_002.mtl
o Cylinder.002
v -2.663679 -2.882713 12.110571
v -2.663679 -2.537990 12.110571
v -2.663622 -2.882713 12.110467
v -2.663622 -2.537990 12.110467
v -2.663546 -2.882713 12.110374
v -2.663546 -2.537990 12.110374
v -2.663453 -2.882713 12.110300
v -2.663453 -2.537990 12.110300
v -2.663348 -2.882713 12.110244
v -2.663348 -2.537990 12.110244
v -2.663234 -2.882713 12.110210
v -2.663234 -2.537990 12.110210
v -2.663115 -2.882713 12.110199
v -2.663115 -2.537990 12.110199
v -2.662996 -2.882713 12.110211
v -2.662996 -2.537990 12.110211
v -2.662883 -2.882713 12.110247
v -2.662883 -2.537990 12.110247
v -2.662778 -2.882713 12.110304
v -2.662778 -2.537990 12.110304
v -2.662686 -2.882713 12.110380
v -2.662686 -2.537990 12.110380
v -2.662611 -2.882713 12.110473
v -2.662611 -2.537990 12.110473
v -2.662555 -2.882713 12.110578
v -2.662555 -2.537990 12.110578
v -2.662521 -2.882713 12.110692
v -2.662521 -2.537990 12.110692
v -2.662510 -2.882713 12.110811
v -2.662510 -2.537990 12.110811
v -2.662523 -2.882713 12.110929
v -2.662523 -2.537990 12.110929
v -2.662558 -2.882713 12.111044
v -2.662558 -2.537990 12.111044
v -2.662615 -2.882713 12.111148
v -2.662615 -2.537990 12.111148
v -2.662691 -2.882713 12.111240
v -2.662691 -2.537990 12.111240
v -2.662784 -2.882713 12.111315
v -2.662784 -2.537990 12.111315
v -2.662889 -2.882713 12.111371
v -2.662889 -2.537990 12.111371
v -2.663003 -2.882713 12.111404
v -2.663003 -2.537990 12.111404
v -2.663122 -2.882713 12.111416
v -2.663122 -2.537990 12.111416
v -2.663241 -2.882713 12.111403
v -2.663241 -2.537990 12.111403
v -2.663355 -2.882713 12.111368
v -2.663355 -2.537990 12.111368
v -2.663460 -2.882713 12.111311
v -2.663460 -2.537990 12.111311
v -2.663551 -2.882713 12.111235
v -2.663551 -2.537990 12.111235
v -2.663626 -2.882713 12.111142
v -2.663626 -2.537990 12.111142
v -2.663682 -2.882713 12.111037
v -2.663682 -2.537990 12.111037
v -2.663716 -2.882713 12.110923
v -2.663716 -2.537990 12.110923
v -2.663727 -2.882713 12.110804
v -2.663727 -2.537990 12.110804
v -2.663714 -2.882713 12.110685
v -2.663714 -2.537990 12.110685
vn -0.8791 -0.0000 -0.4767
vn -0.7692 -0.0000 -0.6390
vn -0.6297 -0.0000 -0.7768
vn -0.4661 -0.0000 -0.8847
vn -0.2845 -0.0000 -0.9587
vn -0.0920 -0.0000 -0.9958
vn 0.1040 -0.0000 -0.9946
vn 0.2960 -0.0000 -0.9552
vn 0.4767 -0.0000 -0.8791
vn 0.6390 -0.0000 -0.7692
vn 0.7768 -0.0000 -0.6297
vn 0.8847 -0.0000 -0.4661
vn 0.9587 -0.0000 -0.2845
vn 0.9958 -0.0000 -0.0920
vn 0.9946 -0.0000 0.1040
vn 0.9552 -0.0000 0.2960
vn 0.8791 -0.0000 0.4767
vn 0.7692 -0.0000 0.6390
vn 0.6297 -0.0000 0.7768
vn 0.4661 -0.0000 0.8847
vn 0.2845 -0.0000 0.9587
vn 0.0920 -0.0000 0.9958
vn -0.1040 -0.0000 0.9946
vn -0.2960 -0.0000 0.9552
vn -0.4767 -0.0000 0.8791
vn -0.6390 -0.0000 0.7692
vn -0.7768 -0.0000 0.6297
vn -0.8847 -0.0000 0.4661
vn -0.9587 -0.0000 0.2845
vn -0.9958 -0.0000 0.0920
vn -0.0000 1.0000 -0.0000
vn -0.9946 -0.0000 -0.1040
vn -0.9552 -0.0000 -0.2960
vn -0.0000 -1.0000 -0.0000
vt 1.000000 0.500000
vt 0.000000 0.500000
vt 0.750000 0.490000
vt 1.000000 1.000000
vt 0.250000 0.490000
vt 0.000000 1.000000
vt 0.968750 0.500000
vt 0.796822 0.485388
vt 0.968750 1.000000
vt 0.296822 0.485388
vt 0.937500 0.500000
vt 0.841844 0.471731
vt 0.937500 1.000000
vt 0.341844 0.471731
vt 0.906250 0.500000
vt 0.883337 0.449553
vt 0.906250 1.000000
vt 0.383337 0.449553
vt 0.875000 0.500000
vt 0.919706 0.419706
vt 0.875000 1.000000
vt 0.419706 0.419706
vt 0.843750 0.500000
vt 0.949553 0.383337
vt 0.843750 1.000000
vt 0.449553 0.383337
vt 0.812500 0.500000
vt 0.971731 0.341844
vt 0.812500 1.000000
vt 0.471731 0.341844
vt 0.781250 0.500000
vt 0.985388 0.296822
vt 0.781250 1.000000
vt 0.485388 0.296822
vt 0.750000 0.500000
vt 0.990000 0.250000
vt 0.750000 1.000000
vt 0.490000 0.250000
vt 0.718750 0.500000
vt 0.985388 0.203178
vt 0.718750 1.000000
vt 0.485388 0.203178
vt 0.687500 0.500000
vt 0.971731 0.158156
vt 0.687500 1.000000
vt 0.471731 0.158156
vt 0.656250 0.500000
vt 0.949553 0.116663
vt 0.656250 1.000000
vt 0.449553 0.116663
vt 0.625000 0.500000
vt 0.919706 0.080294
vt 0.625000 1.000000
vt 0.419706 0.080294
vt 0.593750 0.500000
vt 0.883337 0.050447
vt 0.593750 1.000000
vt 0.383337 0.050447
vt 0.562500 0.500000
vt 0.841844 0.028269
vt 0.562500 1.000000
vt 0.341844 0.028269
vt 0.531250 0.500000
vt 0.796822 0.014612
vt 0.531250 1.000000
vt 0.296822 0.014612
vt 0.500000 0.500000
vt 0.750000 0.010000
vt 0.500000 1.000000
vt 0.250000 0.010000
vt 0.468750 0.500000
vt 0.703178 0.014612
vt 0.468750 1.000000
vt 0.203178 0.014612
vt 0.437500 0.500000
vt 0.658156 0.028269
vt 0.437500 1.000000
vt 0.158156 0.028269
vt 0.406250 0.500000
vt 0.616663 0.050447
vt 0.406250 1.000000
vt 0.116663 0.050447
vt 0.375000 0.500000
vt 0.580294 0.080294
vt 0.375000 1.000000
vt 0.080294 0.080294
vt 0.343750 0.500000
vt 0.550447 0.116663
vt 0.343750 1.000000
vt 0.050447 0.116663
vt 0.312500 0.500000
vt 0.528269 0.158156
vt 0.312500 1.000000
vt 0.028269 0.158156
vt 0.281250 0.500000
vt 0.514611 0.203179
vt 0.281250 1.000000
vt 0.014611 0.203179
vt 0.250000 0.500000
vt 0.510000 0.250000
vt 0.250000 1.000000
vt 0.010000 0.250000
vt 0.218750 0.500000
vt 0.514612 0.296822
vt 0.218750 1.000000
vt 0.014612 0.296822
vt 0.187500 0.500000
vt 0.528269 0.341844
vt 0.187500 1.000000
vt 0.028269 0.341844
vt 0.156250 0.500000
vt 0.550447 0.383337
vt 0.156250 1.000000
vt 0.050447 0.383337
vt 0.125000 0.500000
vt 0.580295 0.419706
vt 0.125000 1.000000
vt 0.080295 0.419706
vt 0.093750 0.500000
vt 0.616663 0.449553
vt 0.093750 1.000000
vt 0.116663 0.449553
vt 0.062500 0.500000
vt 0.658156 0.471731
vt 0.158156 0.471731
vt 0.062500 1.000000
vt 0.031250 0.500000
vt 0.703179 0.485389
vt 0.203179 0.485389
vt 0.031250 1.000000
s 0
usemtl Wood
f 1/1/1 2/4/1 4/9/1 3/7/1
f 3/7/2 4/9/2 6/13/2 5/11/2
f 5/11/3 6/13/3 8/17/3 7/15/3
f 7/15/4 8/17/4 10/21/4 9/19/4
f 9/19/5 10/21/5 12/25/5 11/23/5
f 11/23/6 12/25/6 14/29/6 13/27/6
f 13/27/7 14/29/7 16/33/7 15/31/7
f 15/31/8 16/33/8 18/37/8 17/35/8
f 17/35/9 18/37/9 20/41/9 19/39/9
f 19/39/10 20/41/10 22/45/10 21/43/10
f 21/43/11 22/45/11 24/49/11 23/47/11
f 23/47/12 24/49/12 26/53/12 25/51/12
f 25/51/13 26/53/13 28/57/13 27/55/13
f 27/55/14 28/57/14 30/61/14 29/59/14
f 29/59/15 30/61/15 32/65/15 31/63/15
f 31/63/16 32/65/16 34/69/16 33/67/16
f 33/67/17 34/69/17 36/73/17 35/71/17
f 35/71/18 36/73/18 38/77/18 37/75/18
f 37/75/19 38/77/19 40/81/19 39/79/19
f 39/79/20 40/81/20 42/85/20 41/83/20
f 41/83/21 42/85/21 44/89/21 43/87/21
f 43/87/22 44/89/22 46/93/22 45/91/22
f 45/91/23 46/93/23 48/97/23 47/95/23
f 47/95/24 48/97/24 50/101/24 49/99/24
f 49/99/25 50/101/25 52/105/25 51/103/25
f 51/103/26 52/105/26 54/109/26 53/107/26
f 53/107/27 54/109/27 56/113/27 55/111/27
f 55/111/28 56/113/28 58/117/28 57/115/28
f 57/115/29 58/117/29 60/121/29 59/119/29
f 59/119/30 60/121/30 62/126/30 61/123/30
f 4/10/31 2/5/31 64/129/31 62/125/31 60/122/31 58/118/31 56/114/31 54/110/31 52/106/31 50/102/31 48/98/31 46/94/31 44/90/31 42/86/31 40/82/31 38/78/31 36/74/31 34/70/31 32/66/31 30/62/31 28/58/31 26/54/31 24/50/31 22/46/31 20/42/31 18/38/31 16/34/31 14/30/31 12/26/31 10/22/31 8/18/31 6/14/31
f 61/123/32 62/126/32 64/130/32 63/127/32
f 63/127/33 64/130/33 2/6/33 1/2/33
f 1/3/34 3/8/34 5/12/34 7/16/34 9/20/34 11/24/34 13/28/34 15/32/34 17/36/34 19/40/34 21/44/34 23/48/34 25/52/34 27/56/34 29/60/34 31/64/34 33/68/34 35/72/34 37/76/34 39/80/34 41/84/34 43/88/34 45/92/34 47/96/34 49/100/34 51/104/34 53/108/34 55/112/34 57/116/34 59/120/34 61/124/34 63/128/34
