# Blender 3.4.0
# www.blender.org
mtllib GEO-Dirt_grass.mtl
o GEO-Dirt_grass
v -3.134805 0.259540 0.984246
v -3.134805 0.259540 0.984246
v -3.134805 0.259540 0.984246
v -3.134805 0.259540 0.984246
v -3.142887 0.260399 0.983065
v -3.142878 0.261283 0.981991
v -3.142875 0.261511 0.980620
v -3.142880 0.261024 0.979318
v -3.148006 0.261939 0.986947
v -3.148732 0.263463 0.985443
v -3.149781 0.263951 0.983501
v -3.150873 0.263272 0.981641
v -3.154834 0.262629 0.993025
v -3.155982 0.264596 0.991345
v -3.157325 0.265295 0.988955
v -3.158505 0.264541 0.986496
v -3.164146 0.259891 0.996919
v -3.165548 0.262117 0.995159
v -3.166539 0.263162 0.992340
v -3.166855 0.262745 0.989219
v -3.172047 0.253810 0.997128
v -3.173925 0.255960 0.995498
v -3.174916 0.257298 0.992664
v -3.174756 0.257466 0.989384
v -3.177150 0.246846 0.995975
v -3.179276 0.248698 0.994535
v -3.180345 0.250121 0.991918
v -3.180072 0.250735 0.988825
v -3.180865 0.239532 0.992497
v -3.182709 0.241177 0.991455
v -3.183546 0.242760 0.989460
v -3.183152 0.243857 0.987046
v -3.182259 0.235197 0.983536
v -3.182259 0.235197 0.983536
v -3.182259 0.235197 0.983536
v -3.182259 0.235197 0.983536
v -3.588089 0.177587 1.111788
v -3.588089 0.177587 1.111788
v -3.588089 0.177587 1.111788
v -3.588089 0.177587 1.111788
v -3.584204 0.176747 1.102514
v -3.583192 0.177626 1.102884
v -3.581979 0.177868 1.103519
v -3.580890 0.177407 1.104249
v -3.582699 0.176437 1.095518
v -3.581102 0.177925 1.096106
v -3.579083 0.178372 1.097020
v -3.577182 0.177657 1.098014
v -3.580419 0.176577 1.088962
v -3.578818 0.178541 1.090223
v -3.576650 0.179222 1.091909
v -3.574496 0.178440 1.093569
v -3.574307 0.177251 1.082650
v -3.573256 0.179485 1.084631
v -3.571688 0.180304 1.087256
v -3.570024 0.179489 1.089822
v -3.565477 0.177750 1.078590
v -3.565156 0.180153 1.080810
v -3.564473 0.181124 1.083875
v -3.563609 0.180404 1.086964
v -3.557043 0.178353 1.077640
v -3.557479 0.180692 1.079727
v -3.557614 0.181703 1.082723
v -3.557412 0.181114 1.085827
v -3.549630 0.179804 1.078806
v -3.550637 0.181694 1.080419
v -3.551258 0.182556 1.082880
v -3.551327 0.182159 1.085531
v -3.542521 0.182069 1.084430
v -3.542521 0.182069 1.084430
v -3.542521 0.182069 1.084430
v -3.542521 0.182069 1.084430
vn 0.0799 0.9065 0.4145
vn 0.2940 0.9036 0.3115
vn 0.2952 0.7581 0.5815
vn -0.0108 0.7721 0.6354
vn 0.2728 0.9582 -0.0862
vn 0.2697 0.9451 -0.1844
vn 0.3608 0.8729 -0.3284
vn 0.2529 0.8974 -0.3615
vn 0.4273 0.8565 0.2897
vn 0.5281 0.6980 0.4837
vn 0.1816 0.9734 -0.1395
vn 0.0547 0.9377 -0.3431
vn 0.2080 0.8650 0.4566
vn 0.3131 0.7112 0.6294
vn -0.0271 0.9990 0.0346
vn -0.1509 0.9648 -0.2154
vn -0.2082 0.7344 0.6460
vn -0.1008 0.5668 0.8177
vn -0.3713 0.9065 0.2012
vn -0.4170 0.9057 -0.0767
vn -0.5208 0.4863 0.7017
vn -0.3831 0.3212 0.8661
vn -0.6747 0.6897 0.2629
vn -0.6840 0.7295 0.0007
vn -0.6804 0.2104 0.7020
vn -0.5248 0.0624 0.8489
vn -0.8541 0.4382 0.2801
vn -0.8583 0.5128 0.0174
vn -0.8298 -0.1960 0.5225
vn -0.6881 -0.3335 0.6444
vn -0.9844 0.0778 0.1581
vn -0.9755 0.2063 -0.0758
vn -0.8530 -0.4386 0.2828
vn -0.7260 -0.5680 0.3877
vn -0.9864 -0.1642 -0.0046
vn -0.9842 -0.0308 -0.1744
vn -0.3688 0.9080 -0.1988
vn -0.3895 0.9104 -0.1394
vn -0.5976 0.7675 -0.2319
vn -0.5592 0.7712 -0.3041
vn 0.0509 0.9961 0.0715
vn 0.0560 0.9944 0.0902
vn 0.2524 0.9426 0.2186
vn 0.2572 0.9445 0.2046
vn -0.4621 0.8815 -0.0972
vn -0.6472 0.7400 -0.1831
vn -0.0097 0.9932 0.1163
vn 0.2208 0.9487 0.2262
vn -0.4783 0.8532 -0.2083
vn -0.6135 0.7164 -0.3323
vn -0.1031 0.9889 0.1070
vn 0.1198 0.9515 0.2835
vn -0.3679 0.8465 -0.3848
vn -0.4524 0.6983 -0.5547
vn -0.1220 0.9916 0.0436
vn 0.0285 0.9580 0.2854
vn -0.2128 0.8332 -0.5104
vn -0.2415 0.6780 -0.6942
vn -0.1042 0.9940 -0.0321
vn -0.0295 0.9702 0.2406
vn -0.0991 0.8181 -0.5665
vn -0.0761 0.6609 -0.7466
vn -0.1131 0.9904 -0.0797
vn -0.1006 0.9757 0.1945
vn 0.0672 0.8326 -0.5498
vn 0.1322 0.6887 -0.7129
vn -0.0366 0.9949 -0.0941
vn -0.0662 0.9847 0.1610
vn 0.2025 0.8485 -0.4889
vn 0.2875 0.7058 -0.6475
vn 0.0697 0.9944 -0.0801
vn 0.0287 0.9885 0.1487
vt 0.000000 0.000000
vt 0.000000 0.333333
vt 0.000000 0.666667
vt 0.000000 1.000000
vt 0.125000 0.000000
vt 0.125000 0.333333
vt 0.125000 0.666667
vt 0.125000 1.000000
vt 0.250000 0.000000
vt 0.250000 0.333333
vt 0.250000 0.666667
vt 0.250000 1.000000
vt 0.375000 0.000000
vt 0.375000 0.333333
vt 0.375000 0.666667
vt 0.375000 1.000000
vt 0.500000 0.000000
vt 0.500000 0.333333
vt 0.500000 0.666667
vt 0.500000 1.000000
vt 0.625000 0.000000
vt 0.625000 0.333333
vt 0.625000 0.666667
vt 0.625000 1.000000
vt 0.750000 0.000000
vt 0.750000 0.333333
vt 0.750000 0.666667
vt 0.750000 1.000000
vt 0.875000 0.000000
vt 0.875000 0.333333
vt 0.875000 0.666667
vt 0.875000 1.000000
vt 1.000000 0.000000
vt 1.000000 0.333333
vt 1.000000 0.666667
vt 1.000000 1.000000
vt 0.000000 0.000000
vt 0.000000 0.333333
vt 0.000000 0.666667
vt 0.000000 1.000000
vt 0.125000 0.000000
vt 0.125000 0.333333
vt 0.125000 0.666667
vt 0.125000 1.000000
vt 0.250000 0.000000
vt 0.250000 0.333333
vt 0.250000 0.666667
vt 0.250000 1.000000
vt 0.375000 0.000000
vt 0.375000 0.333333
vt 0.375000 0.666667
vt 0.375000 1.000000
vt 0.500000 0.000000
vt 0.500000 0.333333
vt 0.500000 0.666667
vt 0.500000 1.000000
vt 0.625000 0.000000
vt 0.625000 0.333333
vt 0.625000 0.666667
vt 0.625000 1.000000
vt 0.750000 0.000000
vt 0.750000 0.333333
vt 0.750000 0.666667
vt 0.750000 1.000000
vt 0.875000 0.000000
vt 0.875000 0.333333
vt 0.875000 0.666667
vt 0.875000 1.000000
vt 1.000000 0.000000
vt 1.000000 0.333333
vt 1.000000 0.666667
vt 1.000000 1.000000
s 1
usemtl grass
f 2/2/1 6/6/2 5/5/3 1/1/4
f 3/3/5 7/7/6 6/6/2 2/2/1
f 4/4/7 8/8/8 7/7/6 3/3/5
f 6/6/2 10/10/9 9/9/10 5/5/3
f 7/7/6 11/11/11 10/10/9 6/6/2
f 8/8/8 12/12/12 11/11/11 7/7/6
f 10/10/9 14/14/13 13/13/14 9/9/10
f 11/11/11 15/15/15 14/14/13 10/10/9
f 12/12/12 16/16/16 15/15/15 11/11/11
f 14/14/13 18/18/17 17/17/18 13/13/14
f 15/15/15 19/19/19 18/18/17 14/14/13
f 16/16/16 20/20/20 19/19/19 15/15/15
f 18/18/17 22/22/21 21/21/22 17/17/18
f 19/19/19 23/23/23 22/22/21 18/18/17
f 20/20/20 24/24/24 23/23/23 19/19/19
f 22/22/21 26/26/25 25/25/26 21/21/22
f 23/23/23 27/27/27 26/26/25 22/22/21
f 24/24/24 28/28/28 27/27/27 23/23/23
f 26/26/25 30/30/29 29/29/30 25/25/26
f 27/27/27 31/31/31 30/30/29 26/26/25
f 28/28/28 32/32/32 31/31/31 27/27/27
f 30/30/29 34/34/33 33/33/34 29/29/30
f 31/31/31 35/35/35 34/34/33 30/30/29
f 32/32/32 36/36/36 35/35/35 31/31/31
f 38/38/37 42/42/38 41/41/39 37/37/40
f 39/39/41 43/43/42 42/42/38 38/38/37
f 40/40/43 44/44/44 43/43/42 39/39/41
f 42/42/38 46/46/45 45/45/46 41/41/39
f 43/43/42 47/47/47 46/46/45 42/42/38
f 44/44/44 48/48/48 47/47/47 43/43/42
f 46/46/45 50/50/49 49/49/50 45/45/46
f 47/47/47 51/51/51 50/50/49 46/46/45
f 48/48/48 52/52/52 51/51/51 47/47/47
f 50/50/49 54/54/53 53/53/54 49/49/50
f 51/51/51 55/55/55 54/54/53 50/50/49
f 52/52/52 56/56/56 55/55/55 51/51/51
f 54/54/53 58/58/57 57/57/58 53/53/54
f 55/55/55 59/59/59 58/58/57 54/54/53
f 56/56/56 60/60/60 59/59/59 55/55/55
f 58/58/57 62/62/61 61/61/62 57/57/58
f 59/59/59 63/63/63 62/62/61 58/58/57
f 60/60/60 64/64/64 63/63/63 59/59/59
f 62/62/61 66/66/65 65/65/66 61/61/62
f 63/63/63 67/67/67 66/66/65 62/62/61
f 64/64/64 68/68/68 67/67/67 63/63/63
f 66/66/65 70/70/69 69/69/70 65/65/66
f 67/67/67 71/71/71 70/70/69 66/66/65
f 68/68/68 72/72/72 71/71/71 67/67/67
o GEO-Dirt_grass
v -3.134805 0.259540 0.984246
v -3.134805 0.259540 0.984246
v -3.134805 0.259540 0.984246
v -3.134805 0.259540 0.984246
v -3.142887 0.260399 0.983065
v -3.142878 0.261283 0.981991
v -3.142875 0.261511 0.980620
v -3.142880 0.261024 0.979318
v -3.148006 0.261939 0.986947
v -3.148732 0.263463 0.985443
v -3.149781 0.263951 0.983501
v -3.150873 0.263272 0.981641
v -3.154834 0.262629 0.993025
v -3.155982 0.264596 0.991345
v -3.157325 0.265295 0.988955
v -3.158505 0.264541 0.986496
v -3.164146 0.259891 0.996919
v -3.165548 0.262117 0.995159
v -3.166539 0.263162 0.992340
v -3.166855 0.262745 0.989219
v -3.172047 0.253810 0.997128
v -3.173925 0.255960 0.995498
v -3.174916 0.257298 0.992664
v -3.174756 0.257466 0.989384
v -3.177150 0.246846 0.995975
v -3.179276 0.248698 0.994535
v -3.180345 0.250121 0.991918
v -3.180072 0.250735 0.988825
v -3.180865 0.239532 0.992497
v -3.182709 0.241177 0.991455
v -3.183546 0.242760 0.989460
v -3.183152 0.243857 0.987046
v -3.182259 0.235197 0.983536
v -3.182259 0.235197 0.983536
v -3.182259 0.235197 0.983536
v -3.182259 0.235197 0.983536
v -3.588089 0.177587 1.111788
v -3.588089 0.177587 1.111788
v -3.588089 0.177587 1.111788
v -3.588089 0.177587 1.111788
v -3.584204 0.176747 1.102514
v -3.583192 0.177626 1.102884
v -3.581979 0.177868 1.103519
v -3.580890 0.177407 1.104249
v -3.582699 0.176437 1.095518
v -3.581102 0.177925 1.096106
v -3.579083 0.178372 1.097020
v -3.577182 0.177657 1.098014
v -3.580419 0.176577 1.088962
v -3.578818 0.178541 1.090223
v -3.576650 0.179222 1.091909
v -3.574496 0.178440 1.093569
v -3.574307 0.177251 1.082650
v -3.573256 0.179485 1.084631
v -3.571688 0.180304 1.087256
v -3.570024 0.179489 1.089822
v -3.565477 0.177750 1.078590
v -3.565156 0.180153 1.080810
v -3.564473 0.181124 1.083875
v -3.563609 0.180404 1.086964
v -3.557043 0.178353 1.077640
v -3.557479 0.180692 1.079727
v -3.557614 0.181703 1.082723
v -3.557412 0.181114 1.085827
v -3.549630 0.179804 1.078806
v -3.550637 0.181694 1.080419
v -3.551258 0.182556 1.082880
v -3.551327 0.182159 1.085531
v -3.542521 0.182069 1.084430
v -3.542521 0.182069 1.084430
v -3.542521 0.182069 1.084430
v -3.542521 0.182069 1.084430
vn 0.0799 0.9065 0.4145
vn 0.2940 0.9036 0.3115
vn 0.2952 0.7581 0.5815
vn -0.0108 0.7721 0.6354
vn 0.2728 0.9582 -0.0862
vn 0.2697 0.9451 -0.1844
vn 0.3608 0.8729 -0.3284
vn 0.2529 0.8974 -0.3615
vn 0.4273 0.8565 0.2897
vn 0.5281 0.6980 0.4837
vn 0.1816 0.9734 -0.1395
vn 0.0547 0.9377 -0.3431
vn 0.2080 0.8650 0.4566
vn 0.3131 0.7112 0.6294
vn -0.0271 0.9990 0.0346
vn -0.1509 0.9648 -0.2154
vn -0.2082 0.7344 0.6460
vn -0.1008 0.5668 0.8177
vn -0.3713 0.9065 0.2012
vn -0.4170 0.9057 -0.0767
vn -0.5208 0.4863 0.7017
vn -0.3831 0.3212 0.8661
vn -0.6747 0.6897 0.2629
vn -0.6840 0.7295 0.0007
vn -0.6804 0.2104 0.7020
vn -0.5248 0.0624 0.8489
vn -0.8541 0.4382 0.2801
vn -0.8583 0.5128 0.0174
vn -0.8298 -0.1960 0.5225
vn -0.6881 -0.3335 0.6444
vn -0.9844 0.0778 0.1581
vn -0.9755 0.2063 -0.0758
vn -0.8530 -0.4386 0.2828
vn -0.7260 -0.5680 0.3877
vn -0.9864 -0.1642 -0.0046
vn -0.9842 -0.0308 -0.1744
vn -0.3688 0.9080 -0.1988
vn -0.3895 0.9104 -0.1394
vn -0.5976 0.7675 -0.2319
vn -0.5592 0.7712 -0.3041
vn 0.0509 0.9961 0.0715
vn 0.0560 0.9944 0.0902
vn 0.2524 0.9426 0.2186
vn 0.2572 0.9445 0.2046
vn -0.4621 0.8815 -0.0972
vn -0.6472 0.7400 -0.1831
vn -0.0097 0.9932 0.1163
vn 0.2208 0.9487 0.2262
vn -0.4783 0.8532 -0.2083
vn -0.6135 0.7164 -0.3323
vn -0.1031 0.9889 0.1070
vn 0.1198 0.9515 0.2835
vn -0.3679 0.8465 -0.3848
vn -0.4524 0.6983 -0.5547
vn -0.1220 0.9916 0.0436
vn 0.0285 0.9580 0.2854
vn -0.2128 0.8332 -0.5104
vn -0.2415 0.6780 -0.6942
vn -0.1042 0.9940 -0.0321
vn -0.0295 0.9702 0.2406
vn -0.0991 0.8181 -0.5665
vn -0.0761 0.6609 -0.7466
vn -0.1131 0.9904 -0.0797
vn -0.1006 0.9757 0.1945
vn 0.0672 0.8326 -0.5498
vn 0.1322 0.6887 -0.7129
vn -0.0366 0.9949 -0.0941
vn -0.0662 0.9847 0.1610
vn 0.2025 0.8485 -0.4889
vn 0.2875 0.7058 -0.6475
vn 0.0697 0.9944 -0.0801
vn 0.0287 0.9885 0.1487
vt 0.000000 0.000000
vt 0.000000 0.333333
vt 0.000000 0.666667
vt 0.000000 1.000000
vt 0.125000 0.000000
vt 0.125000 0.333333
vt 0.125000 0.666667
vt 0.125000 1.000000
vt 0.250000 0.000000
vt 0.250000 0.333333
vt 0.250000 0.666667
vt 0.250000 1.000000
vt 0.375000 0.000000
vt 0.375000 0.333333
vt 0.375000 0.666667
vt 0.375000 1.000000
vt 0.500000 0.000000
vt 0.500000 0.333333
vt 0.500000 0.666667
vt 0.500000 1.000000
vt 0.625000 0.000000
vt 0.625000 0.333333
vt 0.625000 0.666667
vt 0.625000 1.000000
vt 0.750000 0.000000
vt 0.750000 0.333333
vt 0.750000 0.666667
vt 0.750000 1.000000
vt 0.875000 0.000000
vt 0.875000 0.333333
vt 0.875000 0.666667
vt 0.875000 1.000000
vt 1.000000 0.000000
vt 1.000000 0.333333
vt 1.000000 0.666667
vt 1.000000 1.000000
vt 0.000000 0.000000
vt 0.000000 0.333333
vt 0.000000 0.666667
vt 0.000000 1.000000
vt 0.125000 0.000000
vt 0.125000 0.333333
vt 0.125000 0.666667
vt 0.125000 1.000000
vt 0.250000 0.000000
vt 0.250000 0.333333
vt 0.250000 0.666667
vt 0.250000 1.000000
vt 0.375000 0.000000
vt 0.375000 0.333333
vt 0.375000 0.666667
vt 0.375000 1.000000
vt 0.500000 0.000000
vt 0.500000 0.333333
vt 0.500000 0.666667
vt 0.500000 1.000000
vt 0.625000 0.000000
vt 0.625000 0.333333
vt 0.625000 0.666667
vt 0.625000 1.000000
vt 0.750000 0.000000
vt 0.750000 0.333333
vt 0.750000 0.666667
vt 0.750000 1.000000
vt 0.875000 0.000000
vt 0.875000 0.333333
vt 0.875000 0.666667
vt 0.875000 1.000000
vt 1.000000 0.000000
vt 1.000000 0.333333
vt 1.000000 0.666667
vt 1.000000 1.000000
s 1
usemtl grass
f 74/74/73 78/78/74 77/77/75 73/73/76
f 75/75/77 79/79/78 78/78/74 74/74/73
f 76/76/79 80/80/80 79/79/78 75/75/77
f 78/78/74 82/82/81 81/81/82 77/77/75
f 79/79/78 83/83/83 82/82/81 78/78/74
f 80/80/80 84/84/84 83/83/83 79/79/78
f 82/82/81 86/86/85 85/85/86 81/81/82
f 83/83/83 87/87/87 86/86/85 82/82/81
f 84/84/84 88/88/88 87/87/87 83/83/83
f 86/86/85 90/90/89 89/89/90 85/85/86
f 87/87/87 91/91/91 90/90/89 86/86/85
f 88/88/88 92/92/92 91/91/91 87/87/87
f 90/90/89 94/94/93 93/93/94 89/89/90
f 91/91/91 95/95/95 94/94/93 90/90/89
f 92/92/92 96/96/96 95/95/95 91/91/91
f 94/94/93 98/98/97 97/97/98 93/93/94
f 95/95/95 99/99/99 98/98/97 94/94/93
f 96/96/96 100/100/100 99/99/99 95/95/95
f 98/98/97 102/102/101 101/101/102 97/97/98
f 99/99/99 103/103/103 102/102/101 98/98/97
f 100/100/100 104/104/104 103/103/103 99/99/99
f 102/102/101 106/106/105 105/105/106 101/101/102
f 103/103/103 107/107/107 106/106/105 102/102/101
f 104/104/104 108/108/108 107/107/107 103/103/103
f 110/110/109 114/114/110 113/113/111 109/109/112
f 111/111/113 115/115/114 114/114/110 110/110/109
f 112/112/115 116/116/116 115/115/114 111/111/113
f 114/114/110 118/118/117 117/117/118 113/113/111
f 115/115/114 119/119/119 118/118/117 114/114/110
f 116/116/116 120/120/120 119/119/119 115/115/114
f 118/118/117 122/122/121 121/121/122 117/117/118
f 119/119/119 123/123/123 122/122/121 118/118/117
f 120/120/120 124/124/124 123/123/123 119/119/119
f 122/122/121 126/126/125 125/125/126 121/121/122
f 123/123/123 127/127/127 126/126/125 122/122/121
f 124/124/124 128/128/128 127/127/127 123/123/123
f 126/126/125 130/130/129 129/129/130 125/125/126
f 127/127/127 131/131/131 130/130/129 126/126/125
f 128/128/128 132/132/132 131/131/131 127/127/127
f 130/130/129 134/134/133 133/133/134 129/129/130
f 131/131/131 135/135/135 134/134/133 130/130/129
f 132/132/132 136/136/136 135/135/135 131/131/131
f 134/134/133 138/138/137 137/137/138 133/133/134
f 135/135/135 139/139/139 138/138/137 134/134/133
f 136/136/136 140/140/140 139/139/139 135/135/135
f 138/138/137 142/142/141 141/141/142 137/137/138
f 139/139/139 143/143/143 142/142/141 138/138/137
f 140/140/140 144/144/144 143/143/143 139/139/139
