# Blender 3.4.0
# www.blender.org
mtllib OBJ-mannschild_bud_04_002.mtl
o OBJ-mannschild_bud_04.002
v 0.003627 -0.000179 -0.000150
v 0.011246 -0.000628 -0.001605
v 0.003351 -0.000455 -0.000844
v 0.010788 -0.001368 -0.003254
v 0.003005 0.000291 -0.000935
v 0.012290 0.000970 -0.003282
v 0.006518 0.000060 0.003268
v 0.010358 -0.000113 0.001289
v 0.008819 -0.002786 -0.005143
v 0.004488 -0.003330 -0.004505
v 0.009135 -0.004784 -0.000987
v 0.003842 -0.003966 0.000618
v 0.001756 -0.000889 -0.000156
v 0.013311 -0.004977 -0.003081
v 0.001275 -0.000256 -0.001155
v 0.012436 -0.004125 -0.005352
v 0.000988 0.000445 -0.000333
v 0.015062 -0.003987 -0.004049
v 0.006425 -0.004364 0.002271
v 0.011205 -0.005579 0.000318
v 0.008548 -0.001670 -0.007773
v 0.002652 0.000280 -0.006811
v 0.007881 -0.006414 -0.004559
v 0.002006 -0.004285 -0.002635
v 0.002590 -0.004667 0.003843
v 0.007174 -0.007268 0.006590
v 0.003931 -0.007869 -0.002479
v 0.009305 -0.009128 -0.000086
v 0.011191 -0.001273 0.007178
v 0.006406 0.000451 0.005624
v 0.015462 -0.006219 0.006676
v 0.001691 -0.000833 0.000052
v 0.012711 -0.007631 0.006231
v 0.001815 -0.002395 -0.000305
v 0.013391 -0.005924 0.007687
v 0.001971 -0.001410 0.001194
v 0.003330 -0.000541 -0.001364
v 0.010439 -0.000474 -0.004608
v 0.003263 0.000247 -0.001207
v 0.010434 0.001327 -0.004394
v 0.003132 0.000024 -0.000417
v 0.012152 0.000010 -0.003316
v 0.004822 -0.004130 -0.003731
v 0.008883 -0.003072 -0.004741
v 0.009147 0.003977 -0.003845
v 0.004942 0.004561 -0.002733
v 0.007621 0.001338 -0.007157
v 0.002483 0.000619 -0.004992
v 0.001476 0.000200 -0.001294
v 0.012186 0.002434 -0.007253
v 0.001511 0.000840 -0.000191
v 0.012366 0.004111 -0.005343
v 0.001112 -0.000138 0.000173
v 0.014335 0.002458 -0.006535
v 0.004187 -0.001112 -0.006779
v 0.008975 0.000209 -0.008544
v 0.010152 0.005689 -0.001110
v 0.004831 0.005095 0.002079
v 0.007444 0.005428 -0.006172
v 0.001852 0.003916 -0.003244
v 0.000123 -0.001405 -0.006278
v 0.003245 -0.002512 -0.010639
v 0.002850 0.005197 -0.006895
v 0.007110 0.003506 -0.010251
v 0.007916 -0.007020 -0.007015
v 0.004069 -0.006209 -0.003855
v 0.012352 -0.002335 -0.011232
v 0.001359 0.000017 -0.001302
v 0.009207 -0.001557 -0.011954
v 0.001269 0.001049 -0.002527
v 0.009554 -0.004041 -0.011126
v 0.001101 -0.000729 -0.002342
v 0.003403 0.000706 -0.001065
v 0.010967 0.001283 -0.002744
v 0.003451 0.000220 -0.000436
v 0.011280 0.000215 -0.001247
v 0.003016 -0.000317 -0.000890
v 0.012188 -0.000731 -0.003698
v 0.004790 0.003992 -0.003780
v 0.009031 0.003225 -0.004125
v 0.010435 -0.001003 0.001447
v 0.006364 -0.001068 0.003144
v 0.009663 0.003546 0.001167
v 0.004096 0.003370 0.001653
v 0.001850 0.000700 0.000196
v 0.014801 0.003113 0.002623
v 0.001629 -0.000561 0.000277
v 0.014861 0.000837 0.003618
v 0.000936 -0.000304 -0.000561
v 0.016676 0.002326 0.002153
v 0.006086 0.005533 0.000653
v 0.011590 0.005645 0.001514
v 0.011313 -0.003545 0.002801
v 0.004897 -0.005192 0.002015
v 0.010548 0.001463 0.005687
v 0.003733 0.000525 0.004198
v 0.001968 0.006135 0.001352
v 0.005759 0.010490 0.001496
v 0.006083 0.002898 0.006249
v 0.010470 0.006461 0.005024
v 0.007944 0.008664 -0.005380
v 0.003762 0.005666 -0.005044
v 0.013186 0.011101 -0.000066
v 0.001698 0.000825 0.000075
v 0.011169 0.011191 0.001366
v 0.002251 0.001379 0.001474
v 0.010748 0.011559 -0.000981
v 0.001665 0.002123 -0.000053
v 0.001882 -0.002381 -0.002820
v 0.001882 0.002877 -0.002820
v 0.007365 -0.002444 -0.004229
v 0.007365 0.002939 -0.004229
v 0.003134 -0.002381 0.002286
v 0.003134 0.002877 0.002286
v 0.008647 -0.002444 0.000999
v 0.008647 0.002939 0.000999
v 0.004261 -0.002971 -0.004012
v 0.001167 0.000248 -0.003253
v 0.004261 0.003467 -0.004012
v 0.008252 0.000248 -0.005100
v 0.009045 -0.003078 -0.001870
v 0.009045 0.003574 -0.001870
v 0.009837 0.000248 0.001360
v 0.005795 -0.002971 0.002241
v 0.005795 0.003467 0.002241
v 0.002701 0.000248 0.003001
v 0.001934 -0.002972 -0.000126
v 0.001934 0.003468 -0.000126
v 0.005030 0.004801 -0.000886
v 0.005030 -0.004305 -0.000886
v 0.000639 0.000248 0.000191
v 0.006114 0.000248 0.003536
v 0.012183 0.000248 -0.002640
v 0.003946 0.000248 -0.005307
v 0.002372 -0.000134 0.000996
v 0.012703 -0.001368 -0.001136
v 0.001739 -0.000926 -0.001109
v 0.012080 -0.002378 -0.003701
v 0.001430 0.000095 -0.000326
v 0.013729 0.000066 -0.003241
v 0.006363 -0.000734 0.004763
v 0.011253 -0.001091 0.002353
v 0.009372 -0.004322 -0.005619
v 0.003789 -0.004822 -0.004923
v 0.009846 -0.006292 -0.000650
v 0.002865 -0.005150 0.001349
v 0.000591 -0.001730 0.000753
v 0.013765 -0.006604 -0.003273
v -0.000358 -0.000465 -0.001581
v 0.012744 -0.005251 -0.006589
v -0.000563 -0.000171 -0.000007
v 0.015472 -0.005470 -0.004772
v 0.005807 -0.005852 0.002813
v 0.011205 -0.007275 0.000438
v 0.008244 -0.002731 -0.009066
v 0.001587 -0.000499 -0.007883
v 0.007693 -0.007973 -0.005209
v 0.000767 -0.005437 -0.002803
v 0.001250 -0.005181 0.004754
v 0.006592 -0.008250 0.007850
v 0.002805 -0.009105 -0.002174
v 0.008735 -0.010640 0.000441
v 0.010701 -0.001389 0.008801
v 0.005542 0.000646 0.007075
v 0.015275 -0.007187 0.008061
v 0.000055 -0.001033 0.000468
v 0.012624 -0.009154 0.006982
v 0.000206 -0.002943 -0.000255
v 0.013159 -0.006305 0.009327
v 0.000664 -0.000937 0.002174
v 0.001791 -0.001263 -0.001350
v 0.011352 -0.000843 -0.005994
v 0.001776 0.001027 -0.000942
v 0.011475 0.001995 -0.005560
v 0.001440 -0.000063 -0.000281
v 0.013177 0.000134 -0.004667
v 0.003917 -0.004948 -0.004915
v 0.008973 -0.003689 -0.006322
v 0.009339 0.005047 -0.005152
v 0.004060 0.005755 -0.003561
v 0.007749 0.001648 -0.008823
v 0.001059 0.000776 -0.005909
v -0.000077 0.000083 -0.001976
v 0.012366 0.003299 -0.008706
v 0.000120 0.001641 0.000368
v 0.012832 0.005648 -0.005899
v -0.000549 0.000206 0.000050
v 0.014669 0.003711 -0.007635
v 0.003136 -0.000714 -0.008054
v 0.008601 0.000937 -0.010035
v 0.010095 0.007367 -0.001379
v 0.004059 0.006602 0.002223
v 0.007178 0.006781 -0.007166
v 0.000536 0.004875 -0.003731
v -0.001490 -0.001703 -0.006721
v 0.002316 -0.002997 -0.011978
v 0.001511 0.005756 -0.007781
v 0.006271 0.003796 -0.011700
v 0.007168 -0.008183 -0.008003
v 0.002907 -0.007399 -0.004205
v 0.011975 -0.002902 -0.012790
v -0.000327 0.000088 -0.001091
v 0.008827 -0.001615 -0.013610
v -0.000336 0.001608 -0.002469
v 0.009202 -0.004964 -0.012509
v -0.000336 -0.001530 -0.001913
v 0.001843 0.001375 -0.001162
v 0.012283 0.002354 -0.002851
v 0.002168 -0.000079 0.000639
v 0.012823 0.000637 -0.000673
v 0.001402 -0.000030 -0.000440
v 0.013671 0.000069 -0.003476
v 0.004282 0.005614 -0.003723
v 0.009671 0.004800 -0.004097
v 0.011419 -0.000478 0.002730
v 0.006175 -0.000773 0.004807
v 0.010499 0.004759 0.002015
v 0.003186 0.004398 0.002657
v 0.000619 0.001645 0.000888
v 0.015296 0.004106 0.003911
v 0.000322 -0.001136 0.001200
v 0.015494 0.000441 0.005145
v -0.000483 -0.000036 0.000335
v 0.017288 0.002732 0.003686
v 0.005478 0.006642 0.001789
v 0.011603 0.006740 0.002815
v 0.011437 -0.004161 0.004381
v 0.004315 -0.005902 0.003446
v 0.010673 0.001737 0.007360
v 0.002802 0.000727 0.005606
v 0.000513 0.006880 0.001821
v 0.004979 0.011915 0.001996
v 0.005160 0.003501 0.007543
v 0.009980 0.007484 0.006290
v 0.007039 0.010042 -0.005792
v 0.002460 0.006651 -0.005520
v 0.012794 0.012716 0.000296
v 0.000093 0.000938 0.000624
v 0.010993 0.012497 0.002441
v 0.000875 0.001368 0.002472
v 0.010251 0.013167 -0.001222
v 0.000031 0.002428 -0.000410
v 0.003069 -0.001399 -0.002101
v 0.003069 0.001895 -0.002101
v 0.006984 -0.001337 -0.002997
v 0.006984 0.001833 -0.002997
v 0.003854 -0.001399 0.001099
v 0.003854 0.001895 0.001099
v 0.007739 -0.001337 0.000082
v 0.007739 0.001833 0.000082
v 0.004614 -0.001770 -0.002862
v 0.002621 0.000248 -0.002372
v 0.004614 0.002266 -0.002862
v 0.007673 0.000248 -0.003502
v 0.008128 -0.001664 -0.001645
v 0.008128 0.002159 -0.001645
v 0.008584 0.000248 0.000211
v 0.005575 -0.001770 0.001059
v 0.005575 0.002266 0.001059
v 0.003582 0.000248 0.001547
v 0.003102 -0.001770 -0.000413
v 0.003102 0.002265 -0.000413
v 0.005092 0.003102 -0.000901
v 0.005092 -0.002606 -0.000901
v 0.002290 0.000248 -0.000214
v 0.005772 0.000248 0.001871
v 0.010532 0.000248 -0.002235
v 0.004413 0.000248 -0.003673
vn -0.4321 0.8821 -0.1876
vn -0.1614 0.9429 -0.2912
vn -0.4051 0.6642 -0.6282
vn -0.1066 0.8068 -0.5812
vn 0.0539 0.9919 -0.1147
vn -0.1816 0.9638 0.1954
vn 0.5457 0.7894 -0.2811
vn 0.0877 0.9916 -0.0954
vn 0.5848 0.6883 -0.4292
vn 0.2604 0.7776 -0.5724
vn -0.0265 0.8067 -0.5904
vn 0.4467 0.6067 -0.6575
vn 0.1033 0.9177 0.3837
vn 0.5957 0.7583 0.2647
vn 0.3237 0.9457 -0.0290
vn 0.4224 0.9063 -0.0148
vn 0.5044 0.6605 0.5562
vn 0.4290 0.6311 0.6463
vn 0.5693 0.7347 0.3689
vn 0.3680 0.7481 0.5522
vn 0.7351 0.6715 0.0938
vn 0.2821 0.9386 0.1988
vn 0.2096 0.9778 -0.0049
vn 0.4230 0.9051 -0.0434
vn 0.5283 0.7293 -0.4348
vn 0.3989 0.7154 -0.5737
vn 0.7925 0.2960 -0.5332
vn 0.3905 0.7520 -0.5310
vn 0.3255 0.2608 -0.9089
vn 0.4605 0.4173 -0.7834
vn 0.3350 0.5795 -0.7430
vn 0.6733 0.2245 -0.7045
vn 0.6564 0.6161 -0.4355
vn 0.6804 0.7159 -0.1567
vn 0.7513 0.3447 -0.5628
vn 0.6745 0.0716 -0.7348
vn -0.0928 -0.1863 0.9781
vn 0.2346 -0.1826 0.9548
vn 0.0815 0.2379 0.9679
vn 0.3722 0.0983 0.9229
vn 0.4000 -0.3766 0.8356
vn 0.0755 -0.5657 0.8212
vn 0.7706 -0.2666 0.5788
vn 0.3747 -0.4381 0.8171
vn 0.8438 -0.0909 0.5290
vn 0.5984 0.0468 0.7998
vn 0.3959 0.1305 0.9090
vn 0.7727 0.1713 0.6112
vn 0.1491 -0.7956 0.5871
vn 0.6115 -0.7094 0.3505
vn 0.4975 -0.4929 0.7138
vn 0.5744 -0.5157 0.6357
vn 0.4178 -0.8936 0.1643
vn 0.3105 -0.9405 0.1381
vn 0.5464 -0.7900 0.2781
vn 0.3033 -0.9111 0.2791
vn 0.7807 -0.5581 0.2812
vn 0.3851 -0.6832 0.6204
vn 0.3940 -0.5207 0.7574
vn 0.5911 -0.4930 0.6384
vn 0.7596 -0.1147 0.6402
vn 0.6219 0.0171 0.7829
vn 0.9518 0.1747 0.2522
vn 0.6929 0.0099 0.7210
vn 0.5940 0.5815 0.5559
vn 0.7691 0.3696 0.5215
vn 0.5412 0.2868 0.7905
vn 0.7903 0.4800 0.3808
vn 0.7858 -0.1092 0.6088
vn 0.7608 -0.3122 0.5690
vn 0.8178 0.2705 0.5080
vn 0.6797 0.6889 0.2519
vn -0.5075 -0.7054 -0.4948
vn -0.2360 -0.7682 -0.5952
vn -0.2832 -0.9501 -0.1311
vn -0.0560 -0.9254 -0.3749
vn -0.1114 -0.6043 -0.7890
vn -0.4302 -0.3808 -0.8185
vn 0.4376 -0.5359 -0.7220
vn -0.0873 -0.5813 -0.8090
vn 0.5461 -0.5974 -0.5874
vn 0.2821 -0.8284 -0.4840
vn 0.0204 -0.9167 -0.3990
vn 0.5169 -0.7714 -0.3712
vn -0.0819 -0.1618 -0.9834
vn 0.4660 -0.0373 -0.8840
vn 0.3792 -0.4571 -0.8046
vn 0.3615 -0.3590 -0.8605
vn 0.2796 0.1445 -0.9492
vn 0.2049 0.1789 -0.9623
vn 0.2736 0.0267 -0.9615
vn 0.0893 0.1196 -0.9888
vn 0.5550 -0.1184 -0.8234
vn 0.0063 -0.2671 -0.9637
vn 0.0916 -0.4690 -0.8784
vn 0.2457 -0.4129 -0.8770
vn 0.4803 -0.6343 -0.6058
vn 0.4072 -0.7502 -0.5209
vn 0.8594 -0.4319 -0.2737
vn 0.3957 -0.7552 -0.5225
vn 0.5608 -0.8273 0.0326
vn 0.6183 -0.7668 -0.1724
vn 0.4525 -0.8420 -0.2938
vn 0.8189 -0.5659 -0.0952
vn 0.6797 -0.4980 -0.5385
vn 0.6996 -0.3378 -0.6296
vn 0.8339 -0.5067 -0.2188
vn 0.8509 -0.5002 0.1608
vn -0.2781 -0.0000 -0.9605
vn -0.2113 0.7064 -0.6755
vn 0.2404 0.6462 -0.7243
vn 0.3589 -0.0000 -0.9334
vn 0.9712 -0.0000 -0.2382
vn 0.5544 0.8210 -0.1360
vn 0.5482 0.6462 0.5309
vn 0.7500 -0.0000 0.6615
vn 0.1978 -0.0000 0.9802
vn 0.1252 0.7064 0.6966
vn -0.4252 0.5765 0.6978
vn -0.5197 -0.0000 0.8543
vn -0.9712 -0.0000 0.2382
vn -0.6879 0.7060 0.1687
vn -0.6998 0.5765 -0.4219
vn -0.8560 -0.0000 -0.5170
vn -0.0402 -0.9991 0.0098
vn 0.1252 -0.7064 0.6966
vn -0.4252 -0.5765 0.6978
vn -0.6879 -0.7060 0.1687
vn -0.0402 0.9991 0.0098
vn -0.2113 -0.7064 -0.6755
vn -0.6998 -0.5765 -0.4219
vn 0.2404 -0.6462 -0.7243
vn 0.5544 -0.8210 -0.1360
vn 0.5482 -0.6462 0.5309
vn 0.4067 -0.8900 0.2062
vn 0.2905 -0.3918 -0.8730
vn 0.5723 -0.1713 -0.8020
vn 0.8160 0.4937 -0.3006
vn 0.6999 0.1773 0.6919
vn 0.8425 0.2655 0.4687
vn -0.4939 0.6254 0.6041
vn -0.7781 0.6196 -0.1035
vn -0.5659 -0.7034 0.4301
vn -0.0209 0.2636 0.9644
vn -0.7724 0.0970 -0.6277
vn -0.5017 -0.4117 -0.7608
vn -0.1170 -0.9170 -0.3814
vn 0.1663 0.0640 -0.9840
vn 0.4725 -0.0414 -0.8804
vn 0.9699 -0.1478 -0.1935
vn 0.4713 -0.6380 0.6089
vn 0.6730 -0.6302 0.3871
vn -0.3936 -0.0323 0.9187
vn -0.7145 0.5370 0.4485
vn -0.7235 -0.6826 -0.1025
vn -0.1103 -0.4212 0.9002
vn -0.8012 0.5091 -0.3146
vn -0.5466 0.3351 -0.7674
vn -0.4817 0.8206 0.3076
vn -0.7010 0.6533 -0.2859
vn -0.7847 -0.3066 0.5387
vn -0.2734 0.7891 0.5501
vn -0.7934 -0.0581 -0.6059
vn -0.4889 -0.6194 -0.6142
vn 0.2429 -0.9152 -0.3216
vn -0.3486 -0.5771 0.7385
vn 0.3158 0.5364 0.7827
vn 0.9138 -0.1228 0.3871
vn 0.3892 0.2694 0.8809
vn 0.4432 -0.8956 -0.0395
vn 0.0616 0.1798 -0.9818
vn 0.4645 0.8798 -0.1012
vn 0.7716 0.6337 -0.0550
vn 0.9768 -0.1425 0.1600
vn 0.4209 -0.8130 -0.4024
vn 0.6727 -0.6805 -0.2906
vn -0.5254 -0.7192 0.4547
vn -0.5449 -0.0547 0.8367
vn -0.8316 0.0935 -0.5475
vn -0.3045 -0.9406 -0.1503
vn -0.4682 0.6474 0.6014
vn -0.2932 0.9454 0.1424
vn -0.1625 0.7960 -0.5830
vn 0.4957 0.7695 0.4027
vn 0.7172 0.6756 0.1707
vn 0.9354 0.0528 -0.3496
vn 0.1117 -0.2967 -0.9484
vn 0.3848 -0.1536 -0.9101
vn -0.6824 -0.6813 -0.2649
vn -0.6972 -0.4951 0.5185
vn -0.7693 0.5687 -0.2911
vn -0.4878 -0.5346 -0.6902
vn -0.5195 0.1835 0.8345
vn -0.1740 0.5977 0.7826
vn -0.3967 -0.5681 0.7211
vn -0.4144 0.0615 0.9080
vn -0.9471 -0.1766 -0.2681
vn -0.2875 -0.8517 0.4382
vn -0.5425 0.7018 0.4617
vn -0.4088 0.9036 -0.1276
vn 0.1656 0.6949 -0.6998
vn -0.5506 -0.2848 -0.7847
vn 0.2493 -0.9604 -0.1249
vn 0.8214 -0.0956 -0.5623
vn 0.3736 -0.8113 -0.4498
vn 0.2932 0.4586 -0.8389
vn 0.4793 0.7198 0.5021
vn 0.6527 -0.4574 0.6040
vn 0.8403 -0.4572 0.2912
vn 0.7514 -0.3421 -0.5643
vn 0.3594 0.6210 -0.6966
vn 0.5505 0.4191 -0.7220
vn -0.7910 0.0713 -0.6076
vn -0.7999 -0.5683 -0.1926
vn -0.5261 0.6098 0.5927
vn -0.4126 0.6549 -0.6331
vn -0.5039 -0.7265 0.4672
vn -0.1065 -0.5148 0.8507
vn 0.0674 0.1610 0.9846
vn 0.4461 -0.8190 0.3609
vn 0.7018 -0.5896 0.3998
vn 0.9901 0.1358 0.0359
vn 0.2711 0.9599 0.0716
vn 0.5188 0.8435 0.1390
vn -0.6718 0.6953 -0.2553
vn -0.9161 -0.0607 -0.3964
vn -0.5413 0.1194 0.8323
vn -0.3590 0.9310 -0.0665
vn -0.7173 -0.6966 -0.0162
vn -0.3143 -0.9258 0.2101
vn -0.7173 -0.2663 -0.6438
vn -0.6703 -0.7213 -0.1741
vn -0.8523 0.4437 0.2771
vn -0.5725 0.0346 -0.8192
vn -0.4956 -0.6399 0.5873
vn -0.1480 -0.3221 0.9351
vn 0.4695 0.1905 0.8621
vn -0.4644 0.8351 0.2947
vn 0.0261 0.5179 -0.8551
vn 0.8318 0.5550 0.0037
vn 0.2237 0.7652 -0.6037
vn 0.5161 0.4513 0.7280
vn 0.2698 -0.0000 0.9629
vn -0.3114 -0.0000 0.9503
vn -0.2007 -0.6575 0.7262
vn 0.2025 -0.7067 0.6779
vn -0.7157 -0.0000 -0.6984
vn -0.5139 -0.6575 -0.5510
vn -0.5135 -0.8488 0.1259
vn -0.2062 -0.0000 -0.9785
vn 0.5162 -0.0000 -0.8565
vn 0.4202 -0.5787 -0.6989
vn -0.1341 -0.7067 -0.6947
vn 0.8539 -0.0000 0.5205
vn 0.6959 -0.5787 0.4252
vn 0.6850 -0.7089 -0.1680
vn 0.0318 0.9995 -0.0078
vn 0.6850 0.7089 -0.1680
vn 0.4202 0.5787 -0.6989
vn -0.1341 0.7067 -0.6947
vn 0.0318 -0.9995 -0.0078
vn 0.2025 0.7067 0.6779
vn 0.6959 0.5787 0.4252
vn -0.2007 0.6575 0.7262
vn -0.5135 0.8488 0.1259
vn -0.5139 0.6575 -0.5510
s 1
usemtl MAT-mannschild.bud.001
f 11//1 6//2 4//3 9//4
f 8//5 2//6 6//2 11//1
f 1//7 7//8 12//9 5//10
f 7//8 8//5 11//1 12//9
f 5//10 12//9 10//11 3//12
f 12//9 11//1 9//4 10//11
f 23//13 18//14 16//15 21//16
f 20//17 14//18 18//14 23//13
f 13//19 19//20 24//21 17//22
f 19//20 20//17 23//13 24//21
f 17//22 24//21 22//23 15//24
f 24//21 23//13 21//16 22//23
f 36//25 30//26 25//27 32//28
f 32//28 25//27 27//29 34//30
f 25//27 26//31 28//32 27//29
f 29//33 35//34 31//35 26//31
f 30//26 29//33 26//31 25//27
f 26//31 31//35 33//36 28//32
f 47//37 42//38 40//39 45//40
f 44//41 38//42 42//38 47//37
f 37//43 43//44 48//45 41//46
f 43//44 44//41 47//37 48//45
f 41//46 48//45 46//47 39//48
f 48//45 47//37 45//40 46//47
f 59//49 54//50 52//51 57//52
f 56//53 50//54 54//50 59//49
f 49//55 55//56 60//57 53//58
f 55//56 56//53 59//49 60//57
f 53//58 60//57 58//59 51//60
f 60//57 59//49 57//52 58//59
f 72//61 66//62 61//63 68//64
f 68//64 61//63 63//65 70//66
f 61//63 62//67 64//68 63//65
f 65//69 71//70 67//71 62//67
f 66//62 65//69 62//67 61//63
f 62//67 67//71 69//72 64//68
f 83//73 78//74 76//75 81//76
f 80//77 74//78 78//74 83//73
f 73//79 79//80 84//81 77//82
f 79//80 80//77 83//73 84//81
f 77//82 84//81 82//83 75//84
f 84//81 83//73 81//76 82//83
f 95//85 90//86 88//87 93//88
f 92//89 86//90 90//86 95//85
f 85//91 91//92 96//93 89//94
f 91//92 92//89 95//85 96//93
f 89//94 96//93 94//95 87//96
f 96//93 95//85 93//88 94//95
f 108//97 102//98 97//99 104//100
f 104//100 97//99 99//101 106//102
f 97//99 98//103 100//104 99//101
f 101//105 107//106 103//107 98//103
f 102//98 101//105 98//103 97//99
f 98//103 103//107 105//108 100//104
f 134//109 119//110 112//111 120//112
f 133//113 122//114 116//115 123//116
f 132//117 125//118 114//119 126//120
f 131//121 128//122 110//123 118//124
f 130//125 124//126 113//127 127//128
f 129//129 119//110 110//123 128//122
f 125//118 129//129 128//122 114//119
f 116//115 122//114 129//129 125//118
f 122//114 112//111 119//110 129//129
f 117//130 130//125 127//128 109//131
f 111//132 121//133 130//125 117//130
f 121//133 115//134 124//126 130//125
f 127//128 131//121 118//124 109//131
f 113//127 126//120 131//121 127//128
f 126//120 114//119 128//122 131//121
f 124//126 132//117 126//120 113//127
f 115//134 123//116 132//117 124//126
f 123//116 116//115 125//118 132//117
f 121//133 133//113 123//116 115//134
f 111//132 120//112 133//113 121//133
f 120//112 112//111 122//114 133//113
f 117//130 134//109 120//112 111//132
f 109//131 118//124 134//109 117//130
f 118//124 110//123 119//110 134//109
f 145//135 143//136 138//137 140//138
f 142//139 145//135 140//138 136//140
f 135//141 139//142 146//143 141//144
f 141//144 146//143 145//135 142//139
f 139//142 137//145 144//146 146//143
f 146//143 144//146 143//136 145//135
f 157//147 155//148 150//149 152//150
f 154//151 157//147 152//150 148//152
f 147//153 151//154 158//155 153//156
f 153//156 158//155 157//147 154//151
f 151//154 149//157 156//158 158//155
f 158//155 156//158 155//148 157//147
f 170//159 166//160 159//161 164//162
f 166//160 168//163 161//164 159//161
f 159//161 161//164 162//165 160//166
f 163//167 160//166 165//168 169//169
f 164//162 159//161 160//166 163//167
f 160//166 162//165 167//170 165//168
f 181//171 179//172 174//173 176//174
f 178//175 181//171 176//174 172//176
f 171//177 175//178 182//179 177//180
f 177//180 182//179 181//171 178//175
f 175//178 173//181 180//182 182//179
f 182//179 180//182 179//172 181//171
f 193//183 191//184 186//185 188//186
f 190//187 193//183 188//186 184//188
f 183//189 187//190 194//191 189//192
f 189//192 194//191 193//183 190//187
f 187//190 185//193 192//194 194//191
f 194//191 192//194 191//184 193//183
f 206//195 202//196 195//197 200//198
f 202//196 204//199 197//200 195//197
f 195//197 197//200 198//201 196//202
f 199//203 196//202 201//204 205//205
f 200//198 195//197 196//202 199//203
f 196//202 198//201 203//206 201//204
f 217//207 215//208 210//209 212//210
f 214//211 217//207 212//210 208//212
f 207//213 211//214 218//215 213//216
f 213//216 218//215 217//207 214//211
f 211//214 209//217 216//218 218//215
f 218//215 216//218 215//208 217//207
f 229//219 227//220 222//221 224//222
f 226//223 229//219 224//222 220//224
f 219//225 223//226 230//227 225//228
f 225//228 230//227 229//219 226//223
f 223//226 221//229 228//230 230//227
f 230//227 228//230 227//220 229//219
f 242//231 238//232 231//233 236//234
f 238//232 240//235 233//236 231//233
f 231//233 233//236 234//237 232//238
f 235//239 232//238 237//240 241//241
f 236//234 231//233 232//238 235//239
f 232//238 234//237 239//242 237//240
f 268//243 254//244 246//245 253//246
f 267//121 257//247 250//248 256//249
f 266//250 260//251 248//252 259//253
f 265//113 252//254 244//255 262//256
f 264//257 261//258 247//259 258//260
f 263//261 262//256 244//255 253//246
f 259//253 248//252 262//256 263//261
f 250//248 259//253 263//261 256//249
f 256//249 263//261 253//246 246//245
f 251//262 243//263 261//258 264//257
f 245//264 251//262 264//257 255//265
f 255//265 264//257 258//260 249//266
f 261//258 243//263 252//254 265//113
f 247//259 261//258 265//113 260//251
f 260//251 265//113 262//256 248//252
f 258//260 247//259 260//251 266//250
f 249//266 258//260 266//250 257//247
f 257//247 266//250 259//253 250//248
f 255//265 249//266 257//247 267//121
f 245//264 255//265 267//121 254//244
f 254//244 267//121 256//249 246//245
f 251//262 245//264 254//244 268//243
f 243//263 251//262 268//243 252//254
f 252//254 268//243 253//246 244//255
f 1//7 5//10 139//142 135//141
f 2//6 8//5 142//139 136//140
f 4//3 6//2 140//138 138//137
f 3//12 10//11 144//146 137//145
f 5//10 3//12 137//145 139//142
f 6//2 2//6 136//140 140//138
f 7//8 1//7 135//141 141//144
f 8//5 7//8 141//144 142//139
f 9//4 4//3 138//137 143//136
f 10//11 9//4 143//136 144//146
f 13//19 17//22 151//154 147//153
f 14//18 20//17 154//151 148//152
f 16//15 18//14 152//150 150//149
f 15//24 22//23 156//158 149//157
f 17//22 15//24 149//157 151//154
f 18//14 14//18 148//152 152//150
f 19//20 13//19 147//153 153//156
f 20//17 19//20 153//156 154//151
f 21//16 16//15 150//149 155//148
f 22//23 21//16 155//148 156//158
f 27//29 28//32 162//165 161//164
f 29//33 30//26 164//162 163//167
f 28//32 33//36 167//170 162//165
f 34//30 27//29 161//164 168//163
f 30//26 36//25 170//159 164//162
f 36//25 32//28 166//160 170//159
f 31//35 35//34 169//169 165//168
f 32//28 34//30 168//163 166//160
f 35//34 29//33 163//167 169//169
f 33//36 31//35 165//168 167//170
f 37//43 41//46 175//178 171//177
f 38//42 44//41 178//175 172//176
f 40//39 42//38 176//174 174//173
f 39//48 46//47 180//182 173//181
f 41//46 39//48 173//181 175//178
f 42//38 38//42 172//176 176//174
f 43//44 37//43 171//177 177//180
f 44//41 43//44 177//180 178//175
f 45//40 40//39 174//173 179//172
f 46//47 45//40 179//172 180//182
f 49//55 53//58 187//190 183//189
f 50//54 56//53 190//187 184//188
f 52//51 54//50 188//186 186//185
f 51//60 58//59 192//194 185//193
f 53//58 51//60 185//193 187//190
f 54//50 50//54 184//188 188//186
f 55//56 49//55 183//189 189//192
f 56//53 55//56 189//192 190//187
f 57//52 52//51 186//185 191//184
f 58//59 57//52 191//184 192//194
f 63//65 64//68 198//201 197//200
f 65//69 66//62 200//198 199//203
f 64//68 69//72 203//206 198//201
f 70//66 63//65 197//200 204//199
f 66//62 72//61 206//195 200//198
f 72//61 68//64 202//196 206//195
f 67//71 71//70 205//205 201//204
f 68//64 70//66 204//199 202//196
f 71//70 65//69 199//203 205//205
f 69//72 67//71 201//204 203//206
f 73//79 77//82 211//214 207//213
f 74//78 80//77 214//211 208//212
f 76//75 78//74 212//210 210//209
f 75//84 82//83 216//218 209//217
f 77//82 75//84 209//217 211//214
f 78//74 74//78 208//212 212//210
f 79//80 73//79 207//213 213//216
f 80//77 79//80 213//216 214//211
f 81//76 76//75 210//209 215//208
f 82//83 81//76 215//208 216//218
f 85//91 89//94 223//226 219//225
f 86//90 92//89 226//223 220//224
f 88//87 90//86 224//222 222//221
f 87//96 94//95 228//230 221//229
f 89//94 87//96 221//229 223//226
f 90//86 86//90 220//224 224//222
f 91//92 85//91 219//225 225//228
f 92//89 91//92 225//228 226//223
f 93//88 88//87 222//221 227//220
f 94//95 93//88 227//220 228//230
f 99//101 100//104 234//237 233//236
f 101//105 102//98 236//234 235//239
f 100//104 105//108 239//242 234//237
f 106//102 99//101 233//236 240//235
f 102//98 108//97 242//231 236//234
f 108//97 104//100 238//232 242//231
f 103//107 107//106 241//241 237//240
f 104//100 106//102 240//235 238//232
f 107//106 101//105 235//239 241//241
f 105//108 103//107 237//240 239//242
