# Blender 3.4.0
# www.blender.org
mtllib _B_cut_Cube_042.mtl
o [B]cut:Cube.042
v 0.122903 2.238883 -0.649103
v 0.112587 2.235194 -0.650745
v 0.122902 2.225258 -0.618488
v 0.112587 2.221568 -0.620130
v 0.127039 2.238883 -0.649103
v 0.127039 2.235194 -0.650745
v 0.127038 2.225258 -0.618488
v 0.127038 2.221568 -0.620130
v 0.116723 2.238883 -0.649103
v 0.127039 2.235194 -0.650745
v 0.116723 2.225258 -0.618488
v 0.127038 2.221568 -0.620130
v 0.112587 2.238883 -0.649103
v 0.112587 2.235194 -0.650745
v 0.112587 2.225258 -0.618488
v 0.112587 2.221568 -0.620130
vn -0.3645 0.8507 0.3786
vn -0.0000 -0.4066 0.9136
vn 1.0000 -0.0000 -0.0000
vn -0.0000 0.4066 -0.9136
vn -0.0000 0.9136 0.4066
vn -0.0000 -0.9136 -0.4066
vn 0.3645 0.8507 0.3786
vn -1.0000 -0.0000 -0.0000
s 0
usemtl b_cut
f 2//1 4//1 3//1 1//1
f 4//2 8//2 7//2 3//2
f 8//3 6//3 5//3 7//3
f 6//4 2//4 1//4 5//4
f 1//5 3//5 7//5 5//5
f 6//6 8//6 4//6 2//6
f 10//7 9//7 11//7 12//7
f 12//2 11//2 15//2 16//2
f 16//8 15//8 13//8 14//8
f 14//4 13//4 9//4 10//4
f 9//5 13//5 15//5 11//5
f 14//6 10//6 12//6 16//6
