# Blender 3.4.0
# www.blender.org
mtllib Plane_209.mtl
o Plane.209
v -0.082315 1.770731 0.089190
v -0.078699 1.770674 0.089286
v -0.082255 1.774345 0.089039
v -0.078639 1.774289 0.089135
v -0.083017 1.772549 0.089095
v -0.080519 1.769971 0.089268
v -0.077937 1.772470 0.089230
v -0.080435 1.775048 0.089057
v -0.080486 1.772525 0.089524
v -0.082975 1.772054 0.089117
v -0.082837 1.771576 0.089141
v -0.082611 1.771132 0.089165
v -0.080024 1.770014 0.089279
v -0.079545 1.770152 0.089286
v -0.079101 1.770379 0.089288
v -0.077979 1.772965 0.089208
v -0.078117 1.773444 0.089184
v -0.078343 1.773887 0.089160
v -0.080930 1.775006 0.089046
v -0.081409 1.774868 0.089039
v -0.081853 1.774641 0.089037
v -0.082564 1.773953 0.089048
v -0.082805 1.773517 0.089060
v -0.082959 1.773043 0.089076
v -0.081923 1.770423 0.089213
v -0.081487 1.770182 0.089234
v -0.081013 1.770029 0.089253
v -0.078390 1.771067 0.089277
v -0.078149 1.771503 0.089265
v -0.077996 1.771977 0.089249
v -0.079031 1.774597 0.089112
v -0.079467 1.774837 0.089090
v -0.079941 1.774991 0.089072
v -0.080449 1.774419 0.089216
v -0.080462 1.773790 0.089358
v -0.080475 1.773158 0.089466
v -0.080512 1.770611 0.089374
v -0.080505 1.771251 0.089464
v -0.080496 1.771889 0.089519
v -0.078575 1.772486 0.089346
v -0.079213 1.772501 0.089444
v -0.079851 1.772514 0.089509
v -0.082386 1.772545 0.089245
v -0.081754 1.772540 0.089377
v -0.081121 1.772534 0.089476
v -0.078901 1.770884 0.089320
v -0.078734 1.771403 0.089345
v -0.078621 1.771940 0.089356
v -0.079425 1.770734 0.089356
v -0.079321 1.771319 0.089414
v -0.079247 1.771909 0.089447
v -0.079965 1.770639 0.089376
v -0.079912 1.771265 0.089457
v -0.079872 1.771890 0.089507
v -0.082357 1.771998 0.089257
v -0.082261 1.771458 0.089252
v -0.082109 1.770934 0.089235
v -0.081739 1.771948 0.089381
v -0.081681 1.771356 0.089351
v -0.081592 1.770768 0.089298
v -0.081118 1.771909 0.089474
v -0.081095 1.771283 0.089426
v -0.081058 1.770656 0.089347
v -0.082055 1.774140 0.089102
v -0.082225 1.773624 0.089162
v -0.082339 1.773090 0.089211
v -0.081534 1.774293 0.089151
v -0.081642 1.773715 0.089253
v -0.081719 1.773130 0.089332
v -0.080996 1.774390 0.089191
v -0.081054 1.773774 0.089322
v -0.081098 1.773155 0.089422
v -0.078603 1.773032 0.089310
v -0.078698 1.773569 0.089255
v -0.078848 1.774090 0.089187
v -0.079227 1.773091 0.089398
v -0.079282 1.773678 0.089315
v -0.079367 1.774259 0.089209
v -0.079851 1.773136 0.089455
v -0.079871 1.773755 0.089353
v -0.079903 1.774374 0.089220
vn 0.1136 -0.1021 0.9883
vn 0.1357 -0.0611 0.9889
vn 0.0719 -0.1229 0.9898
vn 0.0887 -0.0764 0.9931
vn 0.0900 -0.0777 0.9929
vn 0.1295 -0.0688 0.9892
vn 0.1569 -0.0360 0.9870
vn 0.1734 0.0107 0.9848
vn 0.1488 0.0010 0.9889
vn 0.0983 -0.0045 0.9951
vn 0.0211 -0.0064 0.9998
vn 0.0166 -0.0836 0.9964
vn 0.0094 -0.1339 0.9910
vn -0.0012 -0.1582 0.9874
vn 0.0460 -0.1433 0.9886
vn 0.0798 -0.1170 0.9899
vn -0.1897 -0.0561 0.9802
vn -0.1689 -0.0978 0.9808
vn -0.1435 -0.0728 0.9870
vn -0.1280 -0.1198 0.9845
vn -0.2248 0.0169 0.9742
vn -0.2100 -0.0303 0.9772
vn -0.1838 -0.0639 0.9809
vn -0.1448 -0.0741 0.9867
vn -0.1356 -0.1136 0.9842
vn -0.1027 -0.1410 0.9847
vn -0.0560 -0.1574 0.9859
vn -0.0660 -0.1327 0.9890
vn -0.0719 -0.0822 0.9940
vn -0.0741 -0.0049 0.9972
vn -0.1509 -0.0006 0.9885
vn -0.2008 0.0064 0.9796
vn -0.1642 0.1845 0.9690
vn -0.1864 0.1437 0.9719
vn -0.1226 0.2054 0.9710
vn -0.1397 0.1593 0.9773
vn -0.1409 0.1606 0.9769
vn -0.1802 0.1514 0.9719
vn -0.2075 0.1184 0.9710
vn -0.2239 0.0717 0.9720
vn -0.1995 0.0818 0.9765
vn -0.1495 0.0879 0.9849
vn -0.0725 0.0903 0.9933
vn -0.0678 0.1669 0.9836
vn -0.0602 0.2166 0.9744
vn -0.0494 0.2406 0.9694
vn -0.0966 0.2257 0.9694
vn -0.1304 0.1995 0.9712
vn 0.1390 0.1386 0.9805
vn 0.1183 0.1802 0.9765
vn 0.0926 0.1557 0.9834
vn 0.0773 0.2023 0.9763
vn 0.1743 0.0655 0.9825
vn 0.1594 0.1127 0.9808
vn 0.1331 0.1465 0.9802
vn 0.0939 0.1570 0.9831
vn 0.0850 0.1962 0.9769
vn 0.0521 0.2234 0.9733
vn 0.0055 0.2398 0.9708
vn 0.0152 0.2155 0.9764
vn 0.0208 0.1655 0.9860
vn 0.0226 0.0888 0.9958
vn 0.0998 0.0840 0.9915
vn 0.1500 0.0763 0.9857
s 0
usemtl light_red_diode_PD
f 46//1 47//1 50//1 49//1
f 47//2 48//2 51//2 50//2
f 49//3 50//3 53//3 52//3
f 50//4 51//4 54//4 53//4
f 2//5 28//5 46//5 15//5
f 28//6 29//6 47//6 46//6
f 29//7 30//7 48//7 47//7
f 30//8 7//8 40//8 48//8
f 48//9 40//9 41//9 51//9
f 51//10 41//10 42//10 54//10
f 54//11 42//11 9//11 39//11
f 53//12 54//12 39//12 38//12
f 52//13 53//13 38//13 37//13
f 13//14 52//14 37//14 6//14
f 14//15 49//15 52//15 13//15
f 15//16 46//16 49//16 14//16
f 55//17 56//17 59//17 58//17
f 56//18 57//18 60//18 59//18
f 58//19 59//19 62//19 61//19
f 59//20 60//20 63//20 62//20
f 5//21 10//21 55//21 43//21
f 10//22 11//22 56//22 55//22
f 11//23 12//23 57//23 56//23
f 12//24 1//24 25//24 57//24
f 57//25 25//25 26//25 60//25
f 60//26 26//26 27//26 63//26
f 63//27 27//27 6//27 37//27
f 62//28 63//28 37//28 38//28
f 61//29 62//29 38//29 39//29
f 45//30 61//30 39//30 9//30
f 44//31 58//31 61//31 45//31
f 43//32 55//32 58//32 44//32
f 64//33 65//33 68//33 67//33
f 65//34 66//34 69//34 68//34
f 67//35 68//35 71//35 70//35
f 68//36 69//36 72//36 71//36
f 3//37 22//37 64//37 21//37
f 22//38 23//38 65//38 64//38
f 23//39 24//39 66//39 65//39
f 24//40 5//40 43//40 66//40
f 66//41 43//41 44//41 69//41
f 69//42 44//42 45//42 72//42
f 72//43 45//43 9//43 36//43
f 71//44 72//44 36//44 35//44
f 70//45 71//45 35//45 34//45
f 19//46 70//46 34//46 8//46
f 20//47 67//47 70//47 19//47
f 21//48 64//48 67//48 20//48
f 73//49 74//49 77//49 76//49
f 74//50 75//50 78//50 77//50
f 76//51 77//51 80//51 79//51
f 77//52 78//52 81//52 80//52
f 7//53 16//53 73//53 40//53
f 16//54 17//54 74//54 73//54
f 17//55 18//55 75//55 74//55
f 18//56 4//56 31//56 75//56
f 75//57 31//57 32//57 78//57
f 78//58 32//58 33//58 81//58
f 81//59 33//59 8//59 34//59
f 80//60 81//60 34//60 35//60
f 79//61 80//61 35//61 36//61
f 42//62 79//62 36//62 9//62
f 41//63 76//63 79//63 42//63
f 40//64 73//64 76//64 41//64
