# Blender 3.4.0
# www.blender.org
mtllib Plane_358.mtl
o Plane.358
v -0.043930 2.237846 -0.388721
v -0.046851 2.237846 -0.385800
v -0.046851 2.234925 -0.388721
v -0.043930 2.237846 -0.456540
v -0.046851 2.234925 -0.456540
v -0.046851 2.237846 -0.459461
v -0.068285 2.236791 -0.388721
v -0.063117 2.234925 -0.388721
v -0.064984 2.237846 -0.385800
v -0.068285 2.236791 -0.456540
v -0.064984 2.237846 -0.459461
v -0.063117 2.234925 -0.456540
v -0.064984 2.237846 -0.637030
v -0.063117 2.234925 -0.634109
v -0.068285 2.236791 -0.634109
v -0.068285 2.236791 -0.566290
v -0.063117 2.234925 -0.566290
v -0.064984 2.237846 -0.563369
v -0.046851 2.237846 -0.637030
v -0.043930 2.237846 -0.634109
v -0.046851 2.234925 -0.634109
v -0.046851 2.237846 -0.563369
v -0.046851 2.234925 -0.566290
v -0.043930 2.237846 -0.566290
v -0.083690 2.253379 -0.459461
v -0.085556 2.251132 -0.456540
v -0.085937 2.255244 -0.456540
v -0.083690 2.253379 -0.385800
v -0.085937 2.255244 -0.388721
v -0.085556 2.251132 -0.388721
v -0.083690 2.253379 -0.637030
v -0.085556 2.251132 -0.634109
v -0.085937 2.255244 -0.634109
v -0.083690 2.253379 -0.563369
v -0.085937 2.255244 -0.566290
v -0.085556 2.251132 -0.566290
v -0.043930 2.245766 -0.388721
v -0.046847 2.248550 -0.388721
v -0.046851 2.245633 -0.385800
v -0.043930 2.245766 -0.456540
v -0.046851 2.245633 -0.459461
v -0.046847 2.248550 -0.456540
v -0.063546 2.249812 -0.388721
v -0.062436 2.244902 -0.385800
v -0.058447 2.248006 -0.388721
v -0.063546 2.249812 -0.456540
v -0.058447 2.248006 -0.456540
v -0.062436 2.244902 -0.459461
v -0.063546 2.249812 -0.634109
v -0.058447 2.248006 -0.634109
v -0.062436 2.244902 -0.637030
v -0.062436 2.244902 -0.563369
v -0.058447 2.248006 -0.566290
v -0.063546 2.249812 -0.566290
v -0.046851 2.245633 -0.637030
v -0.046847 2.248550 -0.634109
v -0.043930 2.245766 -0.634109
v -0.046851 2.245633 -0.563369
v -0.043930 2.245766 -0.566290
v -0.046847 2.248550 -0.566290
v -0.078700 2.259388 -0.459461
v -0.080877 2.261338 -0.456540
v -0.076830 2.261643 -0.456540
v -0.078700 2.259388 -0.385800
v -0.076830 2.261643 -0.388721
v -0.080877 2.261338 -0.388721
v -0.078700 2.259388 -0.637030
v -0.080877 2.261338 -0.634109
v -0.076830 2.261643 -0.634109
v -0.078700 2.259388 -0.563369
v -0.076830 2.261643 -0.566290
v -0.080877 2.261338 -0.566290
v 0.179136 2.237846 -0.388721
v 0.182057 2.237846 -0.385800
v 0.182057 2.234925 -0.388721
v 0.179136 2.237846 -0.456540
v 0.182057 2.234925 -0.456540
v 0.182057 2.237846 -0.459461
v 0.203491 2.236791 -0.388721
v 0.198323 2.234925 -0.388721
v 0.200190 2.237846 -0.385800
v 0.203491 2.236791 -0.456540
v 0.200190 2.237846 -0.459461
v 0.198323 2.234925 -0.456540
v 0.200190 2.237846 -0.637030
v 0.198323 2.234925 -0.634109
v 0.203491 2.236791 -0.634109
v 0.203491 2.236791 -0.566290
v 0.198323 2.234925 -0.566290
v 0.200190 2.237846 -0.563369
v 0.182057 2.237846 -0.637030
v 0.179136 2.237846 -0.634109
v 0.182057 2.234925 -0.634109
v 0.182057 2.237846 -0.563369
v 0.182057 2.234925 -0.566290
v 0.179136 2.237846 -0.566290
v 0.218896 2.253379 -0.459461
v 0.220762 2.251132 -0.456540
v 0.221143 2.255244 -0.456540
v 0.218896 2.253379 -0.385800
v 0.221143 2.255244 -0.388721
v 0.220762 2.251132 -0.388721
v 0.218896 2.253379 -0.637030
v 0.220762 2.251132 -0.634109
v 0.221143 2.255244 -0.634109
v 0.218896 2.253379 -0.563369
v 0.221143 2.255244 -0.566290
v 0.220762 2.251132 -0.566290
v 0.179136 2.245766 -0.388721
v 0.182053 2.248550 -0.388721
v 0.182057 2.245633 -0.385800
v 0.179136 2.245766 -0.456540
v 0.182057 2.245633 -0.459461
v 0.182053 2.248550 -0.456540
v 0.198752 2.249812 -0.388721
v 0.197642 2.244902 -0.385800
v 0.193653 2.248006 -0.388721
v 0.198752 2.249812 -0.456540
v 0.193653 2.248006 -0.456540
v 0.197642 2.244902 -0.459461
v 0.198752 2.249812 -0.634109
v 0.193653 2.248006 -0.634109
v 0.197642 2.244902 -0.637030
v 0.197642 2.244902 -0.563369
v 0.193653 2.248006 -0.566290
v 0.198752 2.249812 -0.566290
v 0.182057 2.245633 -0.637030
v 0.182053 2.248550 -0.634109
v 0.179136 2.245766 -0.634109
v 0.182057 2.245633 -0.563369
v 0.179136 2.245766 -0.566290
v 0.182053 2.248550 -0.566290
v 0.213906 2.259388 -0.459461
v 0.216083 2.261338 -0.456540
v 0.212036 2.261643 -0.456540
v 0.213906 2.259388 -0.385800
v 0.212036 2.261643 -0.388721
v 0.216083 2.261338 -0.388721
v 0.213906 2.259388 -0.637030
v 0.216083 2.261338 -0.634109
v 0.212036 2.261643 -0.634109
v 0.213906 2.259388 -0.563369
v 0.212036 2.261643 -0.566290
v 0.216083 2.261338 -0.566290
vn -0.0000 -0.0000 1.0000
vn -0.0000 -0.0000 -1.0000
vn -0.6388 -0.7693 -0.0000
vn 0.6651 0.7468 -0.0000
vn -0.0469 0.9989 -0.0000
vn -0.0000 -1.0000 -0.0000
vn 1.0000 -0.0000 -0.0000
vn -0.7693 0.6388 -0.0000
vn 0.5773 -0.5774 0.5774
vn 0.5773 -0.5773 -0.5774
vn -0.2751 -0.7620 0.5862
vn -0.2751 -0.7620 -0.5862
vn 0.5774 -0.5773 -0.5774
vn -0.8130 -0.0753 -0.5774
vn -0.8130 -0.0753 0.5774
vn -0.8130 -0.0754 -0.5773
vn -0.8130 -0.0754 0.5773
vn 0.5593 0.5862 0.5861
vn 0.5593 0.5862 -0.5861
vn 0.1889 0.5333 0.8246
vn 0.1889 0.5333 -0.8246
vn 0.5594 0.5862 -0.5861
vn 0.5594 0.5862 0.5861
vn -0.0608 0.8085 -0.5853
vn -0.0608 0.8085 0.5853
vn 0.7071 -0.7071 -0.0000
vn -0.3396 -0.9406 -0.0000
vn -0.0000 -0.7071 -0.7071
vn -0.0000 -0.7071 0.7071
vn -0.4517 -0.5440 -0.7071
vn -0.4517 -0.5440 0.7071
vn -0.9957 -0.0923 -0.0000
vn 0.6903 0.7235 -0.0000
vn 0.3338 0.9426 -0.0000
vn -0.0332 0.7072 -0.7062
vn -0.0332 0.7072 0.7062
vn 0.4697 0.5274 -0.7080
vn 0.4697 0.5274 0.7080
vn -0.0750 0.9972 -0.0000
vn 0.7071 -0.0000 0.7071
vn 0.7071 -0.0000 -0.7071
vn -0.5440 0.4517 -0.7071
vn -0.5440 0.4517 0.7071
vn 0.6388 -0.7693 -0.0000
vn -0.6651 0.7468 -0.0000
vn 0.0469 0.9989 -0.0000
vn -1.0000 -0.0000 -0.0000
vn 0.7693 0.6388 -0.0000
vn -0.5773 -0.5774 0.5773
vn -0.5774 -0.5774 -0.5774
vn 0.2751 -0.7620 0.5862
vn 0.2751 -0.7620 -0.5862
vn -0.5774 -0.5773 -0.5773
vn -0.5774 -0.5774 0.5773
vn 0.8130 -0.0753 -0.5774
vn 0.8130 -0.0754 0.5773
vn 0.8130 -0.0754 -0.5774
vn -0.5594 0.5862 0.5861
vn -0.5594 0.5862 -0.5861
vn -0.1889 0.5333 0.8246
vn -0.1889 0.5333 -0.8246
vn 0.0608 0.8085 -0.5853
vn 0.0608 0.8085 0.5853
vn -0.7071 -0.7071 -0.0000
vn 0.3396 -0.9406 -0.0000
vn 0.4517 -0.5440 -0.7071
vn 0.4517 -0.5440 0.7071
vn 0.9957 -0.0923 -0.0000
vn -0.6903 0.7235 -0.0000
vn -0.3338 0.9426 -0.0000
vn 0.0332 0.7072 -0.7062
vn 0.0332 0.7072 0.7062
vn -0.4697 0.5274 -0.7080
vn -0.4697 0.5274 0.7080
vn 0.0750 0.9972 -0.0000
vn -0.7071 -0.0000 0.7071
vn -0.7071 -0.0000 -0.7071
vn 0.5440 0.4517 -0.7071
vn 0.5440 0.4517 0.7071
vt 0.368953 0.184261
vt 0.358276 0.172762
vt 0.368953 0.173584
vt 0.616847 0.184261
vt 0.616847 0.173585
vt 0.627523 0.172763
vt 0.368953 0.092774
vt 0.368953 0.114126
vt 0.358276 0.103450
vt 0.616847 0.092774
vt 0.627523 0.103450
vt 0.616847 0.114127
vt 0.627523 0.103450
vt 0.616847 0.114127
vt 0.616847 0.092774
vt 0.368953 0.092773
vt 0.368953 0.114126
vt 0.358276 0.103450
vt 0.627523 0.172763
vt 0.616847 0.184261
vt 0.616847 0.173585
vt 0.358276 0.172762
vt 0.368953 0.173584
vt 0.368953 0.184261
vt 0.627523 0.011364
vt 0.616847 0.010720
vt 0.616847 0.000043
vt 0.358276 0.011364
vt 0.368953 0.000043
vt 0.368953 0.010719
vt 0.627523 0.011364
vt 0.616847 0.010720
vt 0.616847 0.000043
vt 0.358276 0.011364
vt 0.368953 0.000043
vt 0.368953 0.010719
vt 0.368953 0.184261
vt 0.368953 0.170737
vt 0.358276 0.171571
vt 0.616847 0.184261
vt 0.627523 0.171572
vt 0.616847 0.170738
vt 0.368953 0.090668
vt 0.358276 0.103450
vt 0.368953 0.116973
vt 0.616847 0.090669
vt 0.616847 0.116974
vt 0.627523 0.103450
vt 0.616847 0.090669
vt 0.616847 0.116974
vt 0.627523 0.103450
vt 0.358276 0.103450
vt 0.368953 0.116973
vt 0.368953 0.090668
vt 0.627523 0.171572
vt 0.616847 0.170738
vt 0.616847 0.184261
vt 0.358276 0.171571
vt 0.368953 0.184261
vt 0.368953 0.170737
vt 0.627523 0.012181
vt 0.616847 0.000043
vt 0.616847 0.012825
vt 0.358276 0.012181
vt 0.368953 0.012824
vt 0.368953 0.000043
vt 0.627523 0.012181
vt 0.616847 0.000043
vt 0.616847 0.012825
vt 0.358276 0.012181
vt 0.368953 0.012824
vt 0.368953 0.000043
vt 0.368953 0.184261
vt 0.358276 0.172762
vt 0.368953 0.173584
vt 0.616847 0.184261
vt 0.616847 0.173585
vt 0.627523 0.172763
vt 0.368953 0.092774
vt 0.368953 0.114126
vt 0.358276 0.103450
vt 0.616847 0.092774
vt 0.627523 0.103450
vt 0.616847 0.114127
vt 0.627523 0.103450
vt 0.616847 0.114127
vt 0.616847 0.092774
vt 0.368953 0.092773
vt 0.368953 0.114126
vt 0.358276 0.103450
vt 0.627523 0.172763
vt 0.616847 0.184261
vt 0.616847 0.173585
vt 0.358276 0.172762
vt 0.368953 0.173584
vt 0.368953 0.184261
vt 0.627523 0.011364
vt 0.616847 0.010720
vt 0.616847 0.000043
vt 0.358276 0.011364
vt 0.368953 0.000043
vt 0.368953 0.010719
vt 0.627523 0.011364
vt 0.616847 0.010720
vt 0.616847 0.000043
vt 0.358276 0.011364
vt 0.368953 0.000043
vt 0.368953 0.010719
vt 0.368953 0.184261
vt 0.368953 0.170737
vt 0.358276 0.171571
vt 0.616847 0.184261
vt 0.627523 0.171572
vt 0.616847 0.170738
vt 0.368953 0.090668
vt 0.358276 0.103450
vt 0.368953 0.116973
vt 0.616847 0.090669
vt 0.616847 0.116974
vt 0.627523 0.103450
vt 0.616847 0.090669
vt 0.616847 0.116974
vt 0.627523 0.103450
vt 0.358276 0.103450
vt 0.368953 0.116973
vt 0.368953 0.090668
vt 0.627523 0.171572
vt 0.616847 0.170738
vt 0.616847 0.184261
vt 0.358276 0.171571
vt 0.368953 0.184261
vt 0.368953 0.170737
vt 0.627523 0.012181
vt 0.616847 0.000043
vt 0.616847 0.012825
vt 0.358276 0.012181
vt 0.368953 0.012824
vt 0.368953 0.000043
vt 0.627523 0.012181
vt 0.616847 0.000043
vt 0.616847 0.012825
vt 0.358276 0.012181
vt 0.368953 0.012824
vt 0.368953 0.000043
s 0
usemtl glossy_22%_dark
f 9/9/1 2/2/1 39/39/1 44/44/1
f 19/19/2 13/13/2 51/51/2 55/55/2
f 15/15/3 16/16/3 36/36/3 32/32/3
f 28/28/1 9/9/1 44/44/1 64/64/1
f 46/46/4 63/63/4 65/65/4 43/43/4
f 56/56/5 50/50/5 53/53/5 60/60/5
f 49/49/4 69/69/4 71/71/4 54/54/4
f 5/5/6 3/3/6 8/8/6 12/12/6
f 10/10/3 7/7/3 30/30/3 26/26/3
f 6/6/2 11/11/2 48/48/2 41/41/2
f 13/13/2 31/31/2 67/67/2 51/51/2
f 18/18/1 22/22/1 58/58/1 52/52/1
f 21/21/6 23/23/6 17/17/6 14/14/6
f 24/24/7 20/20/7 57/57/7 59/59/7
f 34/34/1 18/18/1 52/52/1 70/70/1
f 27/27/8 29/29/8 66/66/8 62/62/8
f 11/11/2 25/25/2 61/61/2 48/48/2
f 33/33/8 35/35/8 72/72/8 68/68/8
f 42/42/5 47/47/5 45/45/5 38/38/5
f 1/1/9 2/2/9 3/3/9
f 4/4/10 5/5/10 6/6/10
f 7/7/11 8/8/11 9/9/11
f 10/10/12 11/11/12 12/12/12
f 13/13/12 14/14/12 15/15/12
f 16/16/11 17/17/11 18/18/11
f 19/19/13 20/20/13 21/21/13
f 22/22/9 23/23/9 24/24/9
f 25/25/14 26/26/14 27/27/14
f 28/28/15 29/29/15 30/30/15
f 31/31/16 32/32/16 33/33/16
f 34/34/17 35/35/17 36/36/17
f 37/37/18 38/38/18 39/39/18
f 40/40/19 41/41/19 42/42/19
f 43/43/20 44/44/20 45/45/20
f 46/46/21 47/47/21 48/48/21
f 49/49/21 50/50/21 51/51/21
f 52/52/20 53/53/20 54/54/20
f 55/55/22 56/56/22 57/57/22
f 58/58/23 59/59/23 60/60/23
f 61/61/24 62/62/24 63/63/24
f 64/64/25 65/65/25 66/66/25
f 67/67/24 68/68/24 69/69/24
f 70/70/25 71/71/25 72/72/25
f 4/4/26 1/1/26 3/3/26 5/5/26
f 12/12/27 8/8/27 7/7/27 10/10/27
f 11/11/28 6/6/28 5/5/28 12/12/28
f 2/2/29 9/9/29 8/8/29 3/3/29
f 25/25/30 11/11/30 10/10/30 26/26/30
f 18/18/31 34/34/31 36/36/31 16/16/31
f 31/31/30 13/13/30 15/15/30 32/32/30
f 22/22/29 18/18/29 17/17/29 23/23/29
f 13/13/28 19/19/28 21/21/28 14/14/28
f 14/14/27 17/17/27 16/16/27 15/15/27
f 20/20/26 24/24/26 23/23/26 21/21/26
f 9/9/31 28/28/31 30/30/31 7/7/31
f 29/29/32 27/27/32 26/26/32 30/30/32
f 35/35/32 33/33/32 32/32/32 36/36/32
f 42/42/33 38/38/33 37/37/33 40/40/33
f 46/46/34 43/43/34 45/45/34 47/47/34
f 47/47/35 42/42/35 41/41/35 48/48/35
f 38/38/36 45/45/36 44/44/36 39/39/36
f 63/63/37 46/46/37 48/48/37 61/61/37
f 54/54/38 71/71/38 70/70/38 52/52/38
f 69/69/37 49/49/37 51/51/37 67/67/37
f 60/60/36 53/53/36 52/52/36 58/58/36
f 50/50/35 56/56/35 55/55/35 51/51/35
f 49/49/34 54/54/34 53/53/34 50/50/34
f 56/56/33 60/60/33 59/59/33 57/57/33
f 43/43/38 65/65/38 64/64/38 44/44/38
f 65/65/39 63/63/39 62/62/39 66/66/39
f 71/71/39 69/69/39 68/68/39 72/72/39
f 1/1/40 37/37/40 39/39/40 2/2/40
f 6/6/41 41/41/41 40/40/41 4/4/41
f 19/19/41 55/55/41 57/57/41 20/20/41
f 24/24/40 59/59/40 58/58/40 22/22/40
f 27/27/42 62/62/42 61/61/42 25/25/42
f 28/28/43 64/64/43 66/66/43 29/29/43
f 33/33/42 68/68/42 67/67/42 31/31/42
f 34/34/43 70/70/43 72/72/43 35/35/43
f 1/1/7 4/4/7 40/40/7 37/37/7
f 81/81/1 116/116/1 111/111/1 74/74/1
f 91/91/2 127/127/2 123/123/2 85/85/2
f 87/87/44 104/104/44 108/108/44 88/88/44
f 100/100/1 136/136/1 116/116/1 81/81/1
f 118/118/45 115/115/45 137/137/45 135/135/45
f 128/128/46 132/132/46 125/125/46 122/122/46
f 121/121/45 126/126/45 143/143/45 141/141/45
f 77/77/6 84/84/6 80/80/6 75/75/6
f 82/82/44 98/98/44 102/102/44 79/79/44
f 78/78/2 113/113/2 120/120/2 83/83/2
f 85/85/2 123/123/2 139/139/2 103/103/2
f 90/90/1 124/124/1 130/130/1 94/94/1
f 93/93/6 86/86/6 89/89/6 95/95/6
f 96/96/47 131/131/47 129/129/47 92/92/47
f 106/106/1 142/142/1 124/124/1 90/90/1
f 99/99/48 134/134/48 138/138/48 101/101/48
f 83/83/2 120/120/2 133/133/2 97/97/2
f 105/105/48 140/140/48 144/144/48 107/107/48
f 114/114/46 110/110/46 117/117/46 119/119/46
f 73/73/49 75/75/49 74/74/49
f 76/76/50 78/78/50 77/77/50
f 79/79/51 81/81/51 80/80/51
f 82/82/52 84/84/52 83/83/52
f 85/85/52 87/87/52 86/86/52
f 88/88/51 90/90/51 89/89/51
f 91/91/53 93/93/53 92/92/53
f 94/94/54 96/96/54 95/95/54
f 97/97/55 99/99/55 98/98/55
f 100/100/56 102/102/56 101/101/56
f 103/103/57 105/105/57 104/104/57
f 106/106/56 108/108/56 107/107/56
f 109/109/58 111/111/58 110/110/58
f 112/112/59 114/114/59 113/113/59
f 115/115/60 117/117/60 116/116/60
f 118/118/61 120/120/61 119/119/61
f 121/121/61 123/123/61 122/122/61
f 124/124/60 126/126/60 125/125/60
f 127/127/59 129/129/59 128/128/59
f 130/130/58 132/132/58 131/131/58
f 133/133/62 135/135/62 134/134/62
f 136/136/63 138/138/63 137/137/63
f 139/139/62 141/141/62 140/140/62
f 142/142/63 144/144/63 143/143/63
f 76/76/64 77/77/64 75/75/64 73/73/64
f 84/84/65 82/82/65 79/79/65 80/80/65
f 83/83/28 84/84/28 77/77/28 78/78/28
f 74/74/29 75/75/29 80/80/29 81/81/29
f 97/97/66 98/98/66 82/82/66 83/83/66
f 90/90/67 88/88/67 108/108/67 106/106/67
f 103/103/66 104/104/66 87/87/66 85/85/66
f 94/94/29 95/95/29 89/89/29 90/90/29
f 85/85/28 86/86/28 93/93/28 91/91/28
f 86/86/65 87/87/65 88/88/65 89/89/65
f 92/92/64 93/93/64 95/95/64 96/96/64
f 81/81/67 79/79/67 102/102/67 100/100/67
f 101/101/68 102/102/68 98/98/68 99/99/68
f 107/107/68 108/108/68 104/104/68 105/105/68
f 114/114/69 112/112/69 109/109/69 110/110/69
f 118/118/70 119/119/70 117/117/70 115/115/70
f 119/119/71 120/120/71 113/113/71 114/114/71
f 110/110/72 111/111/72 116/116/72 117/117/72
f 135/135/73 133/133/73 120/120/73 118/118/73
f 126/126/74 124/124/74 142/142/74 143/143/74
f 141/141/73 139/139/73 123/123/73 121/121/73
f 132/132/72 130/130/72 124/124/72 125/125/72
f 122/122/71 123/123/71 127/127/71 128/128/71
f 121/121/70 122/122/70 125/125/70 126/126/70
f 128/128/69 129/129/69 131/131/69 132/132/69
f 115/115/74 116/116/74 136/136/74 137/137/74
f 137/137/75 138/138/75 134/134/75 135/135/75
f 143/143/75 144/144/75 140/140/75 141/141/75
f 73/73/76 74/74/76 111/111/76 109/109/76
f 78/78/77 76/76/77 112/112/77 113/113/77
f 91/91/77 92/92/77 129/129/77 127/127/77
f 96/96/76 94/94/76 130/130/76 131/131/76
f 99/99/78 97/97/78 133/133/78 134/134/78
f 100/100/79 101/101/79 138/138/79 136/136/79
f 105/105/78 103/103/78 139/139/78 140/140/78
f 106/106/79 107/107/79 144/144/79 142/142/79
f 73/73/47 109/109/47 112/112/47 76/76/47
