# Blender 3.4.0
# www.blender.org
mtllib Plane_013.mtl
o Plane.013
v -1.174844 1.978014 0.244313
v -1.174844 1.978014 -0.169737
v -0.632068 2.415045 0.250790
v -0.632068 2.415045 -0.163261
v -1.463799 1.378117 0.218406
v -1.463799 1.378117 -0.195645
v -1.511804 0.991017 0.211929
v -1.511804 0.991017 -0.202122
v 1.174844 1.978014 0.244313
v 1.174844 1.978014 -0.169737
v 0.632068 2.415045 0.250790
v 0.632068 2.415045 -0.163261
v 0.000000 2.554975 0.250790
v 0.000000 2.554975 -0.163261
v 1.463799 1.378117 0.218406
v 1.463799 1.378117 -0.195645
v 1.511804 0.991017 0.211929
v 1.511804 0.991017 -0.202122
v -1.174844 1.978014 -0.066225
v -1.174844 1.978014 0.037288
v -1.174844 1.978014 0.140801
v -0.782541 2.333217 -0.163362
v -0.925589 2.232554 -0.164070
v -1.057570 2.113878 -0.165993
v -1.057570 2.113878 0.248058
v -0.925589 2.232554 0.249981
v -0.782541 2.333217 0.250689
v -0.160382 2.546636 -0.163261
v -0.319818 2.521077 -0.163261
v -0.477362 2.477484 -0.163261
v -0.632068 2.415045 -0.059748
v -0.632068 2.415045 0.043765
v -0.632068 2.415045 0.147277
v -0.477362 2.477484 0.250790
v -0.319818 2.521077 0.250790
v -0.160382 2.546636 0.250790
v 0.000000 2.554975 -0.059748
v 0.000000 2.554975 0.043765
v 0.000000 2.554975 0.147277
v -1.463799 1.378117 -0.092132
v -1.463799 1.378117 0.011381
v -1.463799 1.378117 0.114893
v -1.418780 1.517283 -0.189775
v -1.355672 1.670389 -0.182691
v -1.274389 1.827333 -0.175607
v -1.274389 1.827333 0.238444
v -1.355672 1.670389 0.231360
v -1.418780 1.517283 0.224275
v -1.511804 0.991017 -0.098609
v -1.511804 0.991017 0.004904
v -1.511804 0.991017 0.108416
v -1.511054 1.072767 -0.202020
v -1.505803 1.160526 -0.201312
v -1.491552 1.260306 -0.199389
v -1.491552 1.260306 0.214661
v -1.505803 1.160526 0.212739
v -1.511054 1.072767 0.212030
v 1.174844 1.978014 -0.066225
v 1.174844 1.978014 0.037288
v 1.174844 1.978014 0.140801
v 0.782541 2.333217 -0.163362
v 0.925589 2.232554 -0.164070
v 1.057571 2.113878 -0.165993
v 1.057570 2.113878 0.248058
v 0.925589 2.232554 0.249981
v 0.782541 2.333217 0.250689
v 0.160382 2.546636 -0.163261
v 0.319818 2.521077 -0.163261
v 0.477362 2.477484 -0.163261
v 0.632068 2.415045 -0.059748
v 0.632068 2.415045 0.043765
v 0.632068 2.415045 0.147277
v 0.477362 2.477484 0.250790
v 0.319818 2.521077 0.250790
v 0.160382 2.546636 0.250790
v 1.463799 1.378117 -0.092132
v 1.463799 1.378117 0.011381
v 1.463799 1.378117 0.114893
v 1.418780 1.517283 -0.189775
v 1.355673 1.670389 -0.182691
v 1.274389 1.827333 -0.175607
v 1.274389 1.827332 0.238444
v 1.355673 1.670388 0.231359
v 1.418780 1.517283 0.224275
v 1.511804 0.991017 -0.098609
v 1.511804 0.991017 0.004904
v 1.511804 0.991017 0.108416
v 1.511054 1.072767 -0.202020
v 1.505803 1.160526 -0.201312
v 1.491552 1.260306 -0.199389
v 1.491552 1.260306 0.214661
v 1.505803 1.160526 0.212739
v 1.511054 1.072767 0.212030
v -1.057570 2.113878 0.144545
v -1.057570 2.113878 0.041032
v -1.057570 2.113878 -0.062480
v -0.925589 2.232554 0.146468
v -0.925589 2.232554 0.042955
v -0.925589 2.232554 -0.060558
v -0.782541 2.333217 0.147176
v -0.782541 2.333217 0.043664
v -0.782541 2.333217 -0.059849
v -0.477362 2.477484 0.147277
v -0.477362 2.477484 0.043765
v -0.477362 2.477484 -0.059748
v -0.319818 2.521077 0.147277
v -0.319818 2.521077 0.043765
v -0.319818 2.521077 -0.059748
v -0.160382 2.546636 0.147277
v -0.160382 2.546636 0.043765
v -0.160382 2.546636 -0.059748
v -1.274389 1.827333 -0.072094
v -1.274389 1.827333 0.031418
v -1.274389 1.827333 0.134931
v -1.355673 1.670389 -0.079178
v -1.355673 1.670389 0.024334
v -1.355673 1.670389 0.127847
v -1.418780 1.517283 -0.086262
v -1.418780 1.517283 0.017250
v -1.418780 1.517283 0.120763
v -1.491552 1.260306 -0.095876
v -1.491552 1.260306 0.007636
v -1.491552 1.260306 0.111149
v -1.505803 1.160526 -0.097799
v -1.505803 1.160526 0.005713
v -1.505803 1.160526 0.109226
v -1.511054 1.072767 -0.098508
v -1.511054 1.072767 0.005005
v -1.511054 1.072767 0.108517
v 1.057570 2.113878 0.144545
v 0.925589 2.232553 0.146468
v 0.782541 2.333217 0.147176
v 1.057570 2.113878 0.041032
v 0.925589 2.232554 0.042955
v 0.782541 2.333217 0.043664
v 1.057571 2.113878 -0.062480
v 0.925589 2.232554 -0.060558
v 0.782541 2.333217 -0.059849
v 0.477362 2.477484 0.147277
v 0.319818 2.521077 0.147277
v 0.160382 2.546636 0.147277
v 0.477362 2.477484 0.043765
v 0.319818 2.521077 0.043765
v 0.160382 2.546636 0.043765
v 0.477362 2.477484 -0.059748
v 0.319818 2.521077 -0.059748
v 0.160382 2.546636 -0.059748
v 1.274389 1.827333 -0.072094
v 1.355673 1.670389 -0.079178
v 1.418780 1.517283 -0.086262
v 1.274390 1.827333 0.031418
v 1.355673 1.670389 0.024334
v 1.418780 1.517283 0.017250
v 1.274389 1.827333 0.134931
v 1.355673 1.670388 0.127847
v 1.418780 1.517283 0.120763
v 1.491552 1.260307 -0.095876
v 1.505803 1.160527 -0.097799
v 1.511054 1.072767 -0.098508
v 1.491552 1.260306 0.007636
v 1.505803 1.160527 0.005713
v 1.511054 1.072767 0.005005
v 1.491552 1.260306 0.111149
v 1.505803 1.160527 0.109226
v 1.511054 1.072767 0.108517
v -1.209736 2.004573 0.244313
v -1.209876 2.004388 -0.169737
v -0.650777 2.454703 0.250790
v -0.650780 2.454702 -0.163261
v -1.506009 1.389996 0.218406
v -1.506062 1.389807 -0.195645
v -1.555652 0.991419 0.211929
v -1.555652 0.991420 -0.202122
v 1.209736 2.004573 0.244313
v 1.209876 2.004388 -0.169737
v 0.650778 2.454703 0.250790
v 0.650780 2.454702 -0.163261
v 0.000000 2.598825 0.250790
v 0.000000 2.598825 -0.163261
v 1.506010 1.389996 0.218406
v 1.506062 1.389807 -0.195645
v 1.555652 0.991419 0.211929
v 1.555652 0.991419 -0.202122
v -0.805679 2.370466 -0.163362
v -0.952938 2.266829 -0.164070
v -1.088937 2.144521 -0.165993
v -1.088842 2.144617 0.248058
v -0.952891 2.266867 0.249981
v -0.805663 2.370475 0.250689
v -0.164997 2.590242 -0.163261
v -0.329149 2.563922 -0.163261
v -0.491437 2.519014 -0.163261
v -0.491437 2.519014 0.250790
v -0.329149 2.563922 0.250790
v -0.164997 2.590242 0.250790
v -1.459980 1.532295 -0.189775
v -1.395500 1.688734 -0.182691
v -1.312270 1.849421 -0.175607
v -1.312138 1.849645 0.238444
v -1.395398 1.688955 0.231360
v -1.459905 1.532501 0.224275
v -1.555652 0.991420 -0.098609
v -1.555652 0.991420 0.004904
v -1.555652 0.991420 0.108416
v -1.554878 1.074270 -0.202020
v -1.549435 1.164902 -0.201312
v -1.534655 1.268367 -0.199389
v -1.534626 1.268516 0.214661
v -1.549427 1.164977 0.212739
v -1.554878 1.074286 0.212030
v 0.805679 2.370466 -0.163362
v 0.952938 2.266829 -0.164070
v 1.088937 2.144520 -0.165993
v 1.088842 2.144617 0.248058
v 0.952891 2.266867 0.249981
v 0.805663 2.370475 0.250689
v 0.164997 2.590242 -0.163261
v 0.329150 2.563922 -0.163261
v 0.491437 2.519014 -0.163261
v 0.491437 2.519014 0.250790
v 0.329150 2.563922 0.250790
v 0.164997 2.590242 0.250790
v 1.459981 1.532295 -0.189775
v 1.395501 1.688734 -0.182691
v 1.312270 1.849421 -0.175607
v 1.312138 1.849645 0.238444
v 1.395398 1.688955 0.231359
v 1.459905 1.532500 0.224275
v 1.555652 0.991419 -0.098609
v 1.555652 0.991419 0.004904
v 1.555652 0.991419 0.108416
v 1.554878 1.074270 -0.202020
v 1.549435 1.164902 -0.201312
v 1.534655 1.268367 -0.199389
v 1.534627 1.268515 0.214661
v 1.549427 1.164977 0.212738
v 1.554878 1.074286 0.212030
vn 0.7142 -0.6999 -0.0000
vn 0.6232 -0.7821 -0.0000
vn 0.5275 -0.8496 -0.0000
vn 0.7957 -0.6057 -0.0000
vn 0.7973 -0.6036 -0.0000
vn 0.7131 -0.7010 -0.0000
vn 0.7989 -0.6015 -0.0000
vn 0.7153 -0.6988 -0.0000
vn 0.6237 -0.7817 -0.0000
vn 0.5277 -0.8495 -0.0000
vn 0.4267 -0.9044 -0.0000
vn 0.5273 -0.8497 -0.0000
vn 0.6226 -0.7825 -0.0000
vn 0.3210 -0.9471 -0.0000
vn 0.2128 -0.9771 -0.0000
vn 0.1053 -0.9944 -0.0000
vn -0.0000 -1.0000 -0.0000
vn 0.8624 -0.5063 -0.0000
vn 0.9071 -0.4209 -0.0000
vn 0.9387 -0.3447 -0.0000
vn 0.8639 -0.5037 -0.0000
vn 0.8609 -0.5088 -0.0000
vn 0.9059 -0.4234 -0.0000
vn 0.9379 -0.3470 -0.0000
vn 0.9626 -0.2709 -0.0000
vn 0.9632 -0.2688 -0.0000
vn 0.9396 -0.3423 -0.0000
vn 0.9638 -0.2666 -0.0000
vn 0.9083 -0.4184 -0.0000
vn 0.9826 -0.1855 -0.0000
vn 0.9949 -0.1006 -0.0000
vn 0.9994 -0.0345 -0.0000
vn 0.9830 -0.1838 -0.0000
vn 0.9823 -0.1872 -0.0000
vn 0.9948 -0.1015 -0.0000
vn 0.9994 -0.0346 -0.0000
vn 1.0000 -0.0092 -0.0000
vn 0.9994 -0.0343 -0.0000
vn 0.9950 -0.0998 -0.0000
vn -0.7142 -0.6999 -0.0000
vn -0.6232 -0.7821 -0.0000
vn -0.5275 -0.8496 -0.0000
vn -0.7957 -0.6057 -0.0000
vn -0.7131 -0.7010 -0.0000
vn -0.7973 -0.6036 -0.0000
vn -0.6226 -0.7825 -0.0000
vn -0.5273 -0.8497 -0.0000
vn -0.4267 -0.9044 -0.0000
vn -0.5277 -0.8495 -0.0000
vn -0.6237 -0.7817 -0.0000
vn -0.7153 -0.6988 -0.0000
vn -0.7989 -0.6015 -0.0000
vn -0.3210 -0.9471 -0.0000
vn -0.2128 -0.9771 -0.0000
vn -0.1053 -0.9944 -0.0000
vn -0.8624 -0.5063 -0.0000
vn -0.9071 -0.4209 -0.0000
vn -0.9387 -0.3447 -0.0000
vn -0.8639 -0.5037 -0.0000
vn -0.9083 -0.4184 -0.0000
vn -0.9396 -0.3423 -0.0000
vn -0.9638 -0.2666 -0.0000
vn -0.9632 -0.2688 -0.0000
vn -0.9626 -0.2709 -0.0000
vn -0.9379 -0.3470 -0.0000
vn -0.9059 -0.4234 -0.0000
vn -0.8609 -0.5088 -0.0000
vn -0.9826 -0.1855 -0.0000
vn -0.9949 -0.1006 -0.0000
vn -0.9994 -0.0345 -0.0000
vn -0.9830 -0.1838 -0.0000
vn -0.9950 -0.0998 -0.0000
vn -0.9994 -0.0343 -0.0000
vn -1.0000 -0.0092 -0.0000
vn -0.9994 -0.0346 -0.0000
vn -0.9948 -0.1015 -0.0000
vn -0.9823 -0.1872 -0.0000
vn 0.0003 0.0001 -1.0000
vn 0.0019 0.0013 -1.0000
vn 0.0056 0.0047 -1.0000
vn 0.0106 0.0114 -0.9999
vn 0.0155 0.0211 -0.9997
vn 0.0156 0.0211 -0.9997
vn -0.0157 -0.0211 0.9997
vn -0.0107 -0.0113 0.9999
vn -0.0157 -0.0210 0.9997
vn -0.0056 -0.0047 1.0000
vn -0.0019 -0.0013 1.0000
vn -0.0003 -0.0001 1.0000
vn -0.0000 -0.0000 -1.0000
vn -0.0000 -0.0000 1.0000
vn 0.0141 0.0384 -0.9992
vn 0.0095 0.0337 -0.9994
vn 0.0172 0.0371 -0.9992
vn 0.0180 0.0309 -0.9994
vn -0.0182 -0.0308 0.9994
vn -0.0174 -0.0370 0.9992
vn -0.0143 -0.0383 0.9992
vn -0.0096 -0.0337 0.9994
vn -0.0092 -1.0000 -0.0000
vn 0.0003 0.0046 -1.0000
vn -0.0000 0.0012 -1.0000
vn 0.0016 0.0132 -0.9999
vn 0.0048 0.0241 -0.9997
vn -0.0048 -0.0241 0.9997
vn -0.0016 -0.0132 0.9999
vn -0.0003 -0.0046 1.0000
vn -0.0000 -0.0012 1.0000
vn -0.0019 0.0013 -1.0000
vn -0.0003 0.0001 -1.0000
vn -0.0056 0.0047 -1.0000
vn -0.0106 0.0114 -0.9999
vn -0.0155 0.0211 -0.9997
vn -0.0156 0.0211 -0.9997
vn 0.0107 -0.0113 0.9999
vn 0.0157 -0.0211 0.9997
vn 0.0157 -0.0210 0.9997
vn 0.0056 -0.0047 1.0000
vn 0.0019 -0.0013 1.0000
vn 0.0003 -0.0001 1.0000
vn -0.0095 0.0337 -0.9994
vn -0.0141 0.0384 -0.9992
vn -0.0172 0.0371 -0.9992
vn -0.0180 0.0309 -0.9994
vn 0.0182 -0.0308 0.9994
vn 0.0174 -0.0370 0.9992
vn 0.0143 -0.0383 0.9992
vn 0.0096 -0.0337 0.9994
vn 0.0092 -1.0000 -0.0000
vn -0.0003 0.0046 -1.0000
vn -0.0016 0.0132 -0.9999
vn -0.0048 0.0241 -0.9997
vn 0.0048 -0.0241 0.9997
vn 0.0016 -0.0132 0.9999
vn 0.0003 -0.0046 1.0000
s 1
usemtl glossy_30%_dark
f 94//1 95//1 98//2 97//2
f 95//1 96//1 99//2 98//2
f 97//2 98//2 101//3 100//3
f 98//2 99//2 102//3 101//3
f 1//4 21//5 94//1 25//6
f 21//5 20//5 95//1 94//1
f 20//5 19//5 96//1 95//1
f 19//5 2//7 24//8 96//1
f 96//1 24//8 23//9 99//2
f 99//2 23//9 22//10 102//3
f 102//3 22//10 4//11 31//11
f 101//3 102//3 31//11 32//11
f 100//3 101//3 32//11 33//11
f 27//12 100//3 33//11 3//11
f 26//13 97//2 100//3 27//12
f 25//6 94//1 97//2 26//13
f 103//14 104//14 107//15 106//15
f 104//14 105//14 108//15 107//15
f 106//15 107//15 110//16 109//16
f 107//15 108//15 111//16 110//16
f 3//11 33//11 103//14 34//14
f 33//11 32//11 104//14 103//14
f 32//11 31//11 105//14 104//14
f 31//11 4//11 30//14 105//14
f 105//14 30//14 29//15 108//15
f 108//15 29//15 28//16 111//16
f 111//16 28//16 14//17 37//17
f 110//16 111//16 37//17 38//17
f 109//16 110//16 38//17 39//17
f 36//16 109//16 39//17 13//17
f 35//15 106//15 109//16 36//16
f 34//14 103//14 106//15 35//15
f 112//18 113//18 116//19 115//19
f 113//18 114//18 117//19 116//19
f 115//19 116//19 119//20 118//20
f 116//19 117//19 120//20 119//20
f 2//7 19//5 112//18 45//21
f 19//5 20//5 113//18 112//18
f 20//5 21//5 114//18 113//18
f 21//5 1//4 46//22 114//18
f 114//18 46//22 47//23 117//19
f 117//19 47//23 48//24 120//20
f 120//20 48//24 5//25 42//26
f 119//20 120//20 42//26 41//26
f 118//20 119//20 41//26 40//26
f 43//27 118//20 40//26 6//28
f 44//29 115//19 118//20 43//27
f 45//21 112//18 115//19 44//29
f 121//30 122//30 125//31 124//31
f 122//30 123//30 126//31 125//31
f 124//31 125//31 128//32 127//32
f 125//31 126//31 129//32 128//32
f 6//28 40//26 121//30 54//33
f 40//26 41//26 122//30 121//30
f 41//26 42//26 123//30 122//30
f 42//26 5//25 55//34 123//30
f 123//30 55//34 56//35 126//31
f 126//31 56//35 57//36 129//32
f 129//32 57//36 7//37 51//37
f 128//32 129//32 51//37 50//37
f 127//32 128//32 50//37 49//37
f 52//38 127//32 49//37 8//37
f 53//39 124//31 127//32 52//38
f 54//33 121//30 124//31 53//39
f 130//40 131//41 134//41 133//40
f 131//41 132//42 135//42 134//41
f 133//40 134//41 137//41 136//40
f 134//41 135//42 138//42 137//41
f 9//43 64//44 130//40 60//45
f 64//44 65//46 131//41 130//40
f 65//46 66//47 132//42 131//41
f 66//47 11//48 72//48 132//42
f 132//42 72//48 71//48 135//42
f 135//42 71//48 70//48 138//42
f 138//42 70//48 12//48 61//49
f 137//41 138//42 61//49 62//50
f 136//40 137//41 62//50 63//51
f 58//45 136//40 63//51 10//52
f 59//45 133//40 136//40 58//45
f 60//45 130//40 133//40 59//45
f 139//53 140//54 143//54 142//53
f 140//54 141//55 144//55 143//54
f 142//53 143//54 146//54 145//53
f 143//54 144//55 147//55 146//54
f 11//48 73//53 139//53 72//48
f 73//53 74//54 140//54 139//53
f 74//54 75//55 141//55 140//54
f 75//55 13//17 39//17 141//55
f 141//55 39//17 38//17 144//55
f 144//55 38//17 37//17 147//55
f 147//55 37//17 14//17 67//55
f 146//54 147//55 67//55 68//54
f 145//53 146//54 68//54 69//53
f 70//48 145//53 69//53 12//48
f 71//48 142//53 145//53 70//48
f 72//48 139//53 142//53 71//48
f 148//56 149//57 152//57 151//56
f 149//57 150//58 153//58 152//57
f 151//56 152//57 155//57 154//56
f 152//57 153//58 156//58 155//57
f 10//52 81//59 148//56 58//45
f 81//59 80//60 149//57 148//56
f 80//60 79//61 150//58 149//57
f 79//61 16//62 76//63 150//58
f 150//58 76//63 77//63 153//58
f 153//58 77//63 78//63 156//58
f 156//58 78//63 15//64 84//65
f 155//57 156//58 84//65 83//66
f 154//56 155//57 83//66 82//67
f 60//45 154//56 82//67 9//43
f 59//45 151//56 154//56 60//45
f 58//45 148//56 151//56 59//45
f 157//68 158//69 161//69 160//68
f 158//69 159//70 162//70 161//69
f 160//68 161//69 164//69 163//68
f 161//69 162//70 165//70 164//69
f 16//62 90//71 157//68 76//63
f 90//71 89//72 158//69 157//68
f 89//72 88//73 159//70 158//69
f 88//73 18//74 85//74 159//70
f 159//70 85//74 86//74 162//70
f 162//70 86//74 87//74 165//70
f 165//70 87//74 17//74 93//75
f 164//69 165//70 93//75 92//76
f 163//68 164//69 92//76 91//77
f 78//63 163//68 91//77 15//64
f 77//63 160//68 163//68 78//63
f 76//63 157//68 160//68 77//63
f 4//78 22//79 184//79 169//78
f 22//79 23//80 185//80 184//79
f 23//80 24//81 186//81 185//80
f 24//81 2//82 167//83 186//81
f 1//84 25//85 187//85 166//86
f 25//85 26//87 188//87 187//85
f 26//87 27//88 189//88 188//87
f 27//88 3//89 168//89 189//88
f 14//90 28//90 190//90 179//90
f 28//90 29//90 191//90 190//90
f 29//90 30//90 192//90 191//90
f 30//90 4//78 169//78 192//90
f 3//89 34//91 193//91 168//89
f 34//91 35//91 194//91 193//91
f 35//91 36//91 195//91 194//91
f 36//91 13//91 178//91 195//91
f 43//92 6//93 171//93 196//92
f 44//94 43//92 196//92 197//94
f 45//95 44//94 197//94 198//95
f 2//82 45//95 198//95 167//83
f 46//96 1//84 166//86 199//96
f 47//97 46//96 199//96 200//97
f 48//98 47//97 200//97 201//98
f 5//99 48//98 201//98 170//99
f 8//100 49//100 202//100 173//100
f 49//100 50//100 203//100 202//100
f 50//100 51//100 204//100 203//100
f 51//100 7//100 172//100 204//100
f 52//101 8//102 173//102 205//101
f 53//103 52//101 205//101 206//103
f 54//104 53//103 206//103 207//104
f 6//93 54//104 207//104 171//93
f 55//105 5//99 170//99 208//105
f 56//106 55//105 208//105 209//106
f 57//107 56//106 209//106 210//107
f 7//108 57//107 210//107 172//108
f 61//109 12//110 177//110 211//109
f 62//111 61//109 211//109 212//111
f 63//112 62//111 212//111 213//112
f 10//113 63//112 213//112 175//114
f 64//115 9//116 174//117 214//115
f 65//118 64//115 214//115 215//118
f 66//119 65//118 215//118 216//119
f 11//120 66//119 216//119 176//120
f 67//90 14//90 179//90 217//90
f 68//90 67//90 217//90 218//90
f 69//90 68//90 218//90 219//90
f 12//110 69//90 219//90 177//110
f 73//91 11//120 176//120 220//91
f 74//91 73//91 220//91 221//91
f 75//91 74//91 221//91 222//91
f 13//91 75//91 222//91 178//91
f 16//121 79//122 223//122 181//121
f 79//122 80//123 224//123 223//122
f 80//123 81//124 225//124 224//123
f 81//124 10//113 175//114 225//124
f 9//116 82//125 226//125 174//117
f 82//125 83//126 227//126 226//125
f 83//126 84//127 228//127 227//126
f 84//127 15//128 180//128 228//127
f 85//129 18//129 183//129 229//129
f 86//129 85//129 229//129 230//129
f 87//129 86//129 230//129 231//129
f 17//129 87//129 231//129 182//129
f 18//102 88//130 232//130 183//102
f 88//130 89//131 233//131 232//130
f 89//131 90//132 234//132 233//131
f 90//132 16//121 181//121 234//132
f 15//128 91//133 235//133 180//128
f 91//133 92//134 236//134 235//133
f 92//134 93//135 237//135 236//134
f 93//135 17//108 182//108 237//135
