# Blender 3.4.0
# www.blender.org
mtllib Plane_243.mtl
o Plane.243
v 0.158019 1.636825 0.076076
v 0.160288 1.636825 0.076076
v 0.158019 1.639140 0.076076
v 0.160288 1.639140 0.076076
v 0.157711 1.637982 0.076138
v 0.159154 1.636511 0.076138
v 0.160597 1.637982 0.076138
v 0.159154 1.639454 0.076138
v 0.159154 1.637982 0.076261
v 0.158019 1.636825 0.075706
v 0.160288 1.636825 0.075706
v 0.158019 1.639140 0.075706
v 0.160288 1.639140 0.075706
v 0.157711 1.637982 0.075644
v 0.159154 1.636511 0.075644
v 0.160597 1.637982 0.075644
v 0.159154 1.639454 0.075644
v 0.159154 1.637982 0.075520
v 0.157738 1.637617 0.076136
v 0.157813 1.637281 0.076127
v 0.157920 1.637003 0.076104
v 0.159512 1.636539 0.076136
v 0.159841 1.636615 0.076127
v 0.160114 1.636724 0.076104
v 0.160569 1.638348 0.076136
v 0.160495 1.638684 0.076127
v 0.160388 1.638962 0.076104
v 0.158796 1.639426 0.076136
v 0.158466 1.639350 0.076127
v 0.158193 1.639241 0.076104
v 0.157920 1.638962 0.076104
v 0.157813 1.638684 0.076127
v 0.157738 1.638348 0.076136
v 0.158193 1.636724 0.076104
v 0.158466 1.636615 0.076127
v 0.158796 1.636539 0.076136
v 0.160388 1.637003 0.076104
v 0.160495 1.637281 0.076127
v 0.160569 1.637617 0.076136
v 0.160114 1.639241 0.076104
v 0.159841 1.639350 0.076127
v 0.159512 1.639426 0.076136
v 0.159154 1.638419 0.076259
v 0.159154 1.638829 0.076246
v 0.159154 1.639183 0.076209
v 0.159154 1.636782 0.076209
v 0.159154 1.637136 0.076246
v 0.159154 1.637546 0.076259
v 0.158725 1.637982 0.076259
v 0.158324 1.637982 0.076246
v 0.157977 1.637982 0.076209
v 0.160331 1.637982 0.076209
v 0.159983 1.637982 0.076246
v 0.159582 1.637982 0.076259
v 0.157738 1.637617 0.075645
v 0.157813 1.637281 0.075654
v 0.157920 1.637003 0.075677
v 0.159512 1.636539 0.075645
v 0.159841 1.636615 0.075654
v 0.160114 1.636724 0.075677
v 0.160569 1.638348 0.075645
v 0.160495 1.638684 0.075654
v 0.160388 1.638962 0.075677
v 0.158796 1.639426 0.075645
v 0.158466 1.639350 0.075654
v 0.158193 1.639241 0.075677
v 0.157920 1.638962 0.075677
v 0.157813 1.638684 0.075654
v 0.157738 1.638348 0.075645
v 0.158193 1.636724 0.075677
v 0.158466 1.636615 0.075654
v 0.158796 1.636539 0.075645
v 0.160388 1.637003 0.075677
v 0.160495 1.637281 0.075654
v 0.160569 1.637617 0.075645
v 0.160114 1.639241 0.075677
v 0.159841 1.639350 0.075654
v 0.159512 1.639426 0.075645
v 0.159154 1.638419 0.075522
v 0.159154 1.638829 0.075536
v 0.159154 1.639183 0.075572
v 0.159154 1.636782 0.075572
v 0.159154 1.637136 0.075536
v 0.159154 1.637546 0.075522
v 0.158725 1.637982 0.075522
v 0.158324 1.637982 0.075536
v 0.157977 1.637982 0.075572
v 0.160331 1.637982 0.075572
v 0.159983 1.637982 0.075536
v 0.159582 1.637982 0.075522
v 0.157979 1.636784 0.076001
v 0.157960 1.636764 0.075891
v 0.157979 1.636784 0.075781
v 0.160328 1.636784 0.076001
v 0.160348 1.636764 0.075891
v 0.160328 1.636784 0.075781
v 0.157979 1.639181 0.076001
v 0.157960 1.639201 0.075891
v 0.157979 1.639181 0.075781
v 0.160328 1.639181 0.076001
v 0.160348 1.639201 0.075891
v 0.160328 1.639181 0.075781
v 0.157549 1.637982 0.076026
v 0.157494 1.637982 0.075891
v 0.157549 1.637982 0.075756
v 0.159154 1.636345 0.076026
v 0.159154 1.636290 0.075891
v 0.159154 1.636345 0.075756
v 0.160759 1.637982 0.076026
v 0.160813 1.637982 0.075891
v 0.160759 1.637982 0.075756
v 0.159154 1.639620 0.076026
v 0.159154 1.639675 0.075891
v 0.159154 1.639620 0.075756
v 0.159574 1.638412 0.076257
v 0.159968 1.638393 0.076244
v 0.160309 1.638369 0.076207
v 0.159556 1.638813 0.076244
v 0.159931 1.638775 0.076231
v 0.160252 1.638726 0.076196
v 0.159532 1.639161 0.076207
v 0.159882 1.639102 0.076196
v 0.160175 1.639025 0.076164
v 0.157999 1.638369 0.076207
v 0.158339 1.638393 0.076244
v 0.158733 1.638412 0.076257
v 0.158056 1.638726 0.076196
v 0.158377 1.638775 0.076231
v 0.158752 1.638813 0.076244
v 0.158132 1.639025 0.076164
v 0.158425 1.639102 0.076196
v 0.158775 1.639161 0.076207
v 0.158132 1.636940 0.076164
v 0.158425 1.636863 0.076196
v 0.158775 1.636804 0.076207
v 0.158056 1.637239 0.076196
v 0.158377 1.637190 0.076231
v 0.158752 1.637151 0.076244
v 0.157999 1.637596 0.076207
v 0.158339 1.637572 0.076244
v 0.158733 1.637553 0.076257
v 0.159532 1.636804 0.076207
v 0.159882 1.636863 0.076196
v 0.160175 1.636940 0.076164
v 0.159556 1.637151 0.076244
v 0.159931 1.637190 0.076231
v 0.160252 1.637239 0.076196
v 0.159574 1.637553 0.076257
v 0.159968 1.637572 0.076244
v 0.160309 1.637596 0.076207
v 0.159574 1.638412 0.075524
v 0.159556 1.638813 0.075538
v 0.159532 1.639161 0.075574
v 0.159968 1.638393 0.075538
v 0.159931 1.638775 0.075551
v 0.159882 1.639102 0.075586
v 0.160309 1.638369 0.075574
v 0.160252 1.638726 0.075586
v 0.160175 1.639025 0.075617
v 0.157999 1.638369 0.075574
v 0.158056 1.638726 0.075586
v 0.158132 1.639025 0.075617
v 0.158339 1.638393 0.075538
v 0.158377 1.638775 0.075551
v 0.158425 1.639102 0.075586
v 0.158733 1.638412 0.075524
v 0.158752 1.638813 0.075538
v 0.158775 1.639161 0.075574
v 0.158132 1.636940 0.075617
v 0.158056 1.637239 0.075586
v 0.157999 1.637596 0.075574
v 0.158425 1.636863 0.075586
v 0.158377 1.637190 0.075551
v 0.158339 1.637572 0.075538
v 0.158775 1.636804 0.075574
v 0.158752 1.637151 0.075538
v 0.158733 1.637553 0.075524
v 0.159532 1.636804 0.075574
v 0.159556 1.637151 0.075538
v 0.159574 1.637553 0.075524
v 0.159882 1.636863 0.075586
v 0.159931 1.637190 0.075551
v 0.159968 1.637572 0.075538
v 0.160175 1.636940 0.075617
v 0.160252 1.637239 0.075586
v 0.160309 1.637596 0.075574
v 0.157801 1.637016 0.076009
v 0.157667 1.637301 0.076020
v 0.157580 1.637630 0.076025
v 0.157764 1.637012 0.075891
v 0.157619 1.637305 0.075891
v 0.157527 1.637634 0.075891
v 0.157801 1.637016 0.075773
v 0.157667 1.637301 0.075762
v 0.157580 1.637630 0.075756
v 0.160101 1.636603 0.076009
v 0.159822 1.636466 0.076020
v 0.159499 1.636377 0.076025
v 0.160105 1.636565 0.075891
v 0.159818 1.636417 0.075891
v 0.159496 1.636323 0.075891
v 0.160101 1.636603 0.075773
v 0.159822 1.636466 0.075762
v 0.159499 1.636377 0.075756
v 0.160506 1.638949 0.076009
v 0.160641 1.638664 0.076020
v 0.160728 1.638335 0.076025
v 0.160543 1.638953 0.075891
v 0.160689 1.638660 0.075891
v 0.160781 1.638331 0.075891
v 0.160506 1.638949 0.075773
v 0.160641 1.638664 0.075762
v 0.160728 1.638335 0.075756
v 0.158206 1.639362 0.076009
v 0.158485 1.639499 0.076020
v 0.158808 1.639588 0.076025
v 0.158203 1.639400 0.075891
v 0.158489 1.639548 0.075891
v 0.158812 1.639642 0.075891
v 0.158206 1.639362 0.075773
v 0.158485 1.639499 0.075762
v 0.158808 1.639588 0.075756
v 0.157580 1.638335 0.076025
v 0.157667 1.638664 0.076020
v 0.157801 1.638949 0.076009
v 0.157527 1.638331 0.075891
v 0.157619 1.638660 0.075891
v 0.157764 1.638953 0.075891
v 0.157580 1.638335 0.075756
v 0.157667 1.638664 0.075762
v 0.157801 1.638949 0.075773
v 0.158808 1.636377 0.076025
v 0.158485 1.636466 0.076020
v 0.158206 1.636603 0.076009
v 0.158812 1.636323 0.075891
v 0.158489 1.636417 0.075891
v 0.158203 1.636565 0.075891
v 0.158808 1.636377 0.075756
v 0.158485 1.636466 0.075762
v 0.158206 1.636603 0.075773
v 0.160728 1.637630 0.076025
v 0.160641 1.637301 0.076020
v 0.160506 1.637016 0.076009
v 0.160781 1.637634 0.075891
v 0.160689 1.637305 0.075891
v 0.160543 1.637012 0.075891
v 0.160728 1.637630 0.075756
v 0.160641 1.637301 0.075762
v 0.160506 1.637016 0.075773
v 0.159499 1.639588 0.076025
v 0.159822 1.639499 0.076020
v 0.160101 1.639362 0.076009
v 0.159496 1.639642 0.075891
v 0.159818 1.639548 0.075891
v 0.160105 1.639400 0.075891
v 0.159499 1.639588 0.075756
v 0.159822 1.639499 0.075762
v 0.160101 1.639362 0.075773
vn 0.0371 0.0363 0.9987
vn 0.1129 0.0478 0.9925
vn 0.0487 0.1107 0.9927
vn 0.1339 0.1312 0.9823
vn 0.0046 0.0045 1.0000
vn 0.0340 0.0054 0.9994
vn 0.1061 0.0093 0.9943
vn 0.2618 0.0210 0.9649
vn 0.2755 0.0814 0.9579
vn 0.3053 0.1847 0.9342
vn 0.3422 0.3355 0.8777
vn 0.1886 0.2996 0.9352
vn 0.0831 0.2704 0.9591
vn 0.0214 0.2570 0.9662
vn 0.0095 0.1040 0.9945
vn 0.0055 0.0333 0.9994
vn -0.1129 0.0478 0.9925
vn -0.0371 0.0363 0.9987
vn -0.1339 0.1312 0.9823
vn -0.0487 0.1107 0.9927
vn -0.2618 0.0210 0.9649
vn -0.1061 0.0093 0.9943
vn -0.0340 0.0054 0.9994
vn -0.0046 0.0045 1.0000
vn -0.0055 0.0333 0.9994
vn -0.0095 0.1040 0.9945
vn -0.0214 0.2570 0.9662
vn -0.0831 0.2704 0.9591
vn -0.1886 0.2996 0.9352
vn -0.3422 0.3355 0.8777
vn -0.3053 0.1847 0.9342
vn -0.2755 0.0814 0.9579
vn -0.1339 -0.1312 0.9823
vn -0.0487 -0.1107 0.9927
vn -0.1129 -0.0478 0.9925
vn -0.0371 -0.0363 0.9987
vn -0.3422 -0.3355 0.8777
vn -0.1886 -0.2996 0.9352
vn -0.0831 -0.2704 0.9591
vn -0.0214 -0.2570 0.9662
vn -0.0095 -0.1040 0.9945
vn -0.0055 -0.0333 0.9994
vn -0.0046 -0.0045 1.0000
vn -0.0340 -0.0054 0.9994
vn -0.1061 -0.0093 0.9943
vn -0.2618 -0.0210 0.9649
vn -0.2755 -0.0814 0.9579
vn -0.3053 -0.1847 0.9342
vn 0.0487 -0.1107 0.9927
vn 0.1339 -0.1312 0.9823
vn 0.0371 -0.0363 0.9987
vn 0.1129 -0.0478 0.9925
vn 0.0214 -0.2570 0.9662
vn 0.0831 -0.2704 0.9591
vn 0.1886 -0.2996 0.9352
vn 0.3422 -0.3355 0.8777
vn 0.3053 -0.1847 0.9342
vn 0.2755 -0.0814 0.9579
vn 0.2618 -0.0210 0.9649
vn 0.1061 -0.0093 0.9943
vn 0.0340 -0.0054 0.9994
vn 0.0046 -0.0045 1.0000
vn 0.0055 -0.0333 0.9994
vn 0.0095 -0.1040 0.9945
vn 0.0371 0.0363 -0.9987
vn 0.0487 0.1107 -0.9927
vn 0.1129 0.0478 -0.9925
vn 0.1339 0.1312 -0.9823
vn 0.0046 0.0045 -1.0000
vn 0.0055 0.0333 -0.9994
vn 0.0095 0.1040 -0.9945
vn 0.0214 0.2570 -0.9662
vn 0.0831 0.2704 -0.9591
vn 0.1886 0.2996 -0.9352
vn 0.3422 0.3355 -0.8777
vn 0.3053 0.1847 -0.9342
vn 0.2755 0.0814 -0.9579
vn 0.2618 0.0210 -0.9649
vn 0.1061 0.0093 -0.9943
vn 0.0340 0.0054 -0.9994
vn -0.1129 0.0478 -0.9925
vn -0.1339 0.1312 -0.9823
vn -0.0371 0.0363 -0.9987
vn -0.0487 0.1107 -0.9927
vn -0.2618 0.0210 -0.9649
vn -0.2755 0.0814 -0.9579
vn -0.3053 0.1847 -0.9342
vn -0.3422 0.3355 -0.8777
vn -0.1886 0.2996 -0.9352
vn -0.0831 0.2704 -0.9591
vn -0.0214 0.2570 -0.9662
vn -0.0095 0.1040 -0.9945
vn -0.0055 0.0333 -0.9994
vn -0.0046 0.0045 -1.0000
vn -0.0340 0.0054 -0.9994
vn -0.1061 0.0093 -0.9943
vn -0.1339 -0.1312 -0.9823
vn -0.1129 -0.0478 -0.9925
vn -0.0487 -0.1107 -0.9927
vn -0.0371 -0.0363 -0.9987
vn -0.3422 -0.3355 -0.8777
vn -0.3053 -0.1847 -0.9342
vn -0.2755 -0.0814 -0.9579
vn -0.2618 -0.0210 -0.9649
vn -0.1061 -0.0093 -0.9943
vn -0.0340 -0.0054 -0.9994
vn -0.0046 -0.0045 -1.0000
vn -0.0055 -0.0333 -0.9994
vn -0.0095 -0.1040 -0.9945
vn -0.0214 -0.2570 -0.9662
vn -0.0831 -0.2704 -0.9591
vn -0.1886 -0.2996 -0.9352
vn 0.0487 -0.1107 -0.9927
vn 0.0371 -0.0363 -0.9987
vn 0.1339 -0.1312 -0.9823
vn 0.1129 -0.0478 -0.9925
vn 0.0214 -0.2570 -0.9662
vn 0.0095 -0.1040 -0.9945
vn 0.0055 -0.0333 -0.9994
vn 0.0046 -0.0045 -1.0000
vn 0.0340 -0.0054 -0.9994
vn 0.1061 -0.0093 -0.9943
vn 0.2618 -0.0210 -0.9649
vn 0.2755 -0.0814 -0.9579
vn 0.3053 -0.1847 -0.9342
vn 0.3422 -0.3355 -0.8777
vn 0.1886 -0.2996 -0.9352
vn 0.0831 -0.2704 -0.9591
vn -0.8576 -0.4215 0.2948
vn -0.9071 -0.2497 0.3390
vn -0.8576 -0.4215 -0.2948
vn -0.9071 -0.2497 -0.3390
vn -0.6091 -0.4693 0.6393
vn -0.6037 -0.3036 0.7371
vn -0.5864 -0.1596 0.7942
vn -0.5715 -0.0489 0.8192
vn -0.9266 -0.0842 0.3665
vn -0.9266 -0.0842 -0.3665
vn -0.5715 -0.0489 -0.8192
vn -0.5864 -0.1596 -0.7942
vn -0.6037 -0.3036 -0.7371
vn -0.6091 -0.4693 -0.6393
vn -0.7618 -0.5968 -0.2519
vn -0.7618 -0.5968 0.2519
vn 0.4346 -0.8499 0.2980
vn 0.2585 -0.9026 0.3441
vn 0.4346 -0.8499 -0.2980
vn 0.2585 -0.9026 -0.3441
vn 0.4800 -0.5988 0.6411
vn 0.3113 -0.5950 0.7410
vn 0.1638 -0.5784 0.7991
vn 0.0502 -0.5638 0.8244
vn 0.0874 -0.9238 0.3727
vn 0.0874 -0.9238 -0.3727
vn 0.0502 -0.5638 -0.8244
vn 0.1638 -0.5784 -0.7991
vn 0.3113 -0.5950 -0.7410
vn 0.4800 -0.5988 -0.6411
vn 0.6112 -0.7499 -0.2530
vn 0.6112 -0.7499 0.2530
vn 0.8576 0.4215 0.2948
vn 0.9071 0.2497 0.3390
vn 0.8576 0.4215 -0.2948
vn 0.9071 0.2497 -0.3390
vn 0.6091 0.4693 0.6393
vn 0.6037 0.3036 0.7371
vn 0.5864 0.1596 0.7942
vn 0.5715 0.0489 0.8192
vn 0.9266 0.0842 0.3665
vn 0.9266 0.0842 -0.3665
vn 0.5715 0.0489 -0.8192
vn 0.5864 0.1596 -0.7942
vn 0.6037 0.3036 -0.7371
vn 0.6091 0.4693 -0.6393
vn 0.7618 0.5968 -0.2519
vn 0.7618 0.5968 0.2519
vn -0.4346 0.8499 0.2980
vn -0.2585 0.9026 0.3441
vn -0.4346 0.8499 -0.2980
vn -0.2585 0.9026 -0.3441
vn -0.4800 0.5988 0.6411
vn -0.3113 0.5950 0.7410
vn -0.1638 0.5784 0.7991
vn -0.0502 0.5638 0.8244
vn -0.0874 0.9238 0.3727
vn -0.0874 0.9238 -0.3727
vn -0.0502 0.5638 -0.8244
vn -0.1638 0.5784 -0.7991
vn -0.3113 0.5950 -0.7410
vn -0.4800 0.5988 -0.6411
vn -0.6112 0.7499 -0.2530
vn -0.6112 0.7499 0.2530
vn -0.9071 0.2497 0.3390
vn -0.8576 0.4215 0.2948
vn -0.9071 0.2497 -0.3390
vn -0.8576 0.4215 -0.2948
vn -0.5715 0.0489 0.8192
vn -0.5864 0.1596 0.7942
vn -0.6037 0.3036 0.7371
vn -0.6091 0.4693 0.6393
vn -0.7618 0.5968 0.2519
vn -0.7618 0.5968 -0.2519
vn -0.6091 0.4693 -0.6393
vn -0.6037 0.3036 -0.7371
vn -0.5864 0.1596 -0.7942
vn -0.5715 0.0489 -0.8192
vn -0.9266 0.0842 -0.3665
vn -0.9266 0.0842 0.3665
vn -0.2585 -0.9026 0.3441
vn -0.4346 -0.8499 0.2980
vn -0.2585 -0.9026 -0.3441
vn -0.4346 -0.8499 -0.2980
vn -0.0502 -0.5638 0.8244
vn -0.1638 -0.5784 0.7991
vn -0.3113 -0.5950 0.7410
vn -0.4800 -0.5988 0.6411
vn -0.6112 -0.7499 0.2530
vn -0.6112 -0.7499 -0.2530
vn -0.4800 -0.5988 -0.6411
vn -0.3113 -0.5950 -0.7410
vn -0.1638 -0.5784 -0.7991
vn -0.0502 -0.5638 -0.8244
vn -0.0874 -0.9238 -0.3727
vn -0.0874 -0.9238 0.3727
vn 0.9071 -0.2497 0.3390
vn 0.8576 -0.4215 0.2948
vn 0.9071 -0.2497 -0.3390
vn 0.8576 -0.4215 -0.2948
vn 0.5715 -0.0489 0.8192
vn 0.5864 -0.1596 0.7942
vn 0.6037 -0.3036 0.7371
vn 0.6091 -0.4693 0.6393
vn 0.7618 -0.5968 0.2519
vn 0.7618 -0.5968 -0.2519
vn 0.6091 -0.4693 -0.6393
vn 0.6037 -0.3036 -0.7371
vn 0.5864 -0.1596 -0.7942
vn 0.5715 -0.0489 -0.8192
vn 0.9266 -0.0842 -0.3665
vn 0.9266 -0.0842 0.3665
vn 0.2585 0.9026 0.3441
vn 0.4346 0.8499 0.2980
vn 0.2585 0.9026 -0.3441
vn 0.4346 0.8499 -0.2980
vn 0.0502 0.5638 0.8244
vn 0.1638 0.5784 0.7991
vn 0.3113 0.5950 0.7410
vn 0.4800 0.5988 0.6411
vn 0.6112 0.7499 0.2530
vn 0.6112 0.7499 -0.2530
vn 0.4800 0.5988 -0.6411
vn 0.3113 0.5950 -0.7410
vn 0.1638 0.5784 -0.7991
vn 0.0502 0.5638 -0.8244
vn 0.0874 0.9238 -0.3727
vn 0.0874 0.9238 0.3727
s 0
usemtl light_warm
f 115//1 116//1 119//1 118//1
f 116//2 117//2 120//2 119//2
f 118//3 119//3 122//3 121//3
f 119//4 120//4 123//4 122//4
f 9//5 54//5 115//5 43//5
f 54//6 53//6 116//6 115//6
f 53//7 52//7 117//7 116//7
f 52//8 7//8 25//8 117//8
f 117//9 25//9 26//9 120//9
f 120//10 26//10 27//10 123//10
f 123//11 27//11 4//11 40//11
f 122//12 123//12 40//12 41//12
f 121//13 122//13 41//13 42//13
f 45//14 121//14 42//14 8//14
f 44//15 118//15 121//15 45//15
f 43//16 115//16 118//16 44//16
f 124//17 125//17 128//17 127//17
f 125//18 126//18 129//18 128//18
f 127//19 128//19 131//19 130//19
f 128//20 129//20 132//20 131//20
f 5//21 51//21 124//21 33//21
f 51//22 50//22 125//22 124//22
f 50//23 49//23 126//23 125//23
f 49//24 9//24 43//24 126//24
f 126//25 43//25 44//25 129//25
f 129//26 44//26 45//26 132//26
f 132//27 45//27 8//27 28//27
f 131//28 132//28 28//28 29//28
f 130//29 131//29 29//29 30//29
f 31//30 130//30 30//30 3//30
f 32//31 127//31 130//31 31//31
f 33//32 124//32 127//32 32//32
f 133//33 134//33 137//33 136//33
f 134//34 135//34 138//34 137//34
f 136//35 137//35 140//35 139//35
f 137//36 138//36 141//36 140//36
f 1//37 34//37 133//37 21//37
f 34//38 35//38 134//38 133//38
f 35//39 36//39 135//39 134//39
f 36//40 6//40 46//40 135//40
f 135//41 46//41 47//41 138//41
f 138//42 47//42 48//42 141//42
f 141//43 48//43 9//43 49//43
f 140//44 141//44 49//44 50//44
f 139//45 140//45 50//45 51//45
f 19//46 139//46 51//46 5//46
f 20//47 136//47 139//47 19//47
f 21//48 133//48 136//48 20//48
f 142//49 143//49 146//49 145//49
f 143//50 144//50 147//50 146//50
f 145//51 146//51 149//51 148//51
f 146//52 147//52 150//52 149//52
f 6//53 22//53 142//53 46//53
f 22//54 23//54 143//54 142//54
f 23//55 24//55 144//55 143//55
f 24//56 2//56 37//56 144//56
f 144//57 37//57 38//57 147//57
f 147//58 38//58 39//58 150//58
f 150//59 39//59 7//59 52//59
f 149//60 150//60 52//60 53//60
f 148//61 149//61 53//61 54//61
f 48//62 148//62 54//62 9//62
f 47//63 145//63 148//63 48//63
f 46//64 142//64 145//64 47//64
f 151//65 152//65 155//65 154//65
f 152//66 153//66 156//66 155//66
f 154//67 155//67 158//67 157//67
f 155//68 156//68 159//68 158//68
f 18//69 79//69 151//69 90//69
f 79//70 80//70 152//70 151//70
f 80//71 81//71 153//71 152//71
f 81//72 17//72 78//72 153//72
f 153//73 78//73 77//73 156//73
f 156//74 77//74 76//74 159//74
f 159//75 76//75 13//75 63//75
f 158//76 159//76 63//76 62//76
f 157//77 158//77 62//77 61//77
f 88//78 157//78 61//78 16//78
f 89//79 154//79 157//79 88//79
f 90//80 151//80 154//80 89//80
f 160//81 161//81 164//81 163//81
f 161//82 162//82 165//82 164//82
f 163//83 164//83 167//83 166//83
f 164//84 165//84 168//84 167//84
f 14//85 69//85 160//85 87//85
f 69//86 68//86 161//86 160//86
f 68//87 67//87 162//87 161//87
f 67//88 12//88 66//88 162//88
f 162//89 66//89 65//89 165//89
f 165//90 65//90 64//90 168//90
f 168//91 64//91 17//91 81//91
f 167//92 168//92 81//92 80//92
f 166//93 167//93 80//93 79//93
f 85//94 166//94 79//94 18//94
f 86//95 163//95 166//95 85//95
f 87//96 160//96 163//96 86//96
f 169//97 170//97 173//97 172//97
f 170//98 171//98 174//98 173//98
f 172//99 173//99 176//99 175//99
f 173//100 174//100 177//100 176//100
f 10//101 57//101 169//101 70//101
f 57//102 56//102 170//102 169//102
f 56//103 55//103 171//103 170//103
f 55//104 14//104 87//104 171//104
f 171//105 87//105 86//105 174//105
f 174//106 86//106 85//106 177//106
f 177//107 85//107 18//107 84//107
f 176//108 177//108 84//108 83//108
f 175//109 176//109 83//109 82//109
f 72//110 175//110 82//110 15//110
f 71//111 172//111 175//111 72//111
f 70//112 169//112 172//112 71//112
f 178//113 179//113 182//113 181//113
f 179//114 180//114 183//114 182//114
f 181//115 182//115 185//115 184//115
f 182//116 183//116 186//116 185//116
f 15//117 82//117 178//117 58//117
f 82//118 83//118 179//118 178//118
f 83//119 84//119 180//119 179//119
f 84//120 18//120 90//120 180//120
f 180//121 90//121 89//121 183//121
f 183//122 89//122 88//122 186//122
f 186//123 88//123 16//123 75//123
f 185//124 186//124 75//124 74//124
f 184//125 185//125 74//125 73//125
f 60//126 184//126 73//126 11//126
f 59//127 181//127 184//127 60//127
f 58//128 178//128 181//128 59//128
f 187//129 188//129 191//129 190//129
f 188//130 189//130 192//130 191//130
f 190//131 191//131 194//131 193//131
f 191//132 192//132 195//132 194//132
f 1//133 21//133 187//133 91//133
f 21//134 20//134 188//134 187//134
f 20//135 19//135 189//135 188//135
f 19//136 5//136 103//136 189//136
f 189//137 103//137 104//137 192//137
f 192//138 104//138 105//138 195//138
f 195//139 105//139 14//139 55//139
f 194//140 195//140 55//140 56//140
f 193//141 194//141 56//141 57//141
f 93//142 193//142 57//142 10//142
f 92//143 190//143 193//143 93//143
f 91//144 187//144 190//144 92//144
f 196//145 197//145 200//145 199//145
f 197//146 198//146 201//146 200//146
f 199//147 200//147 203//147 202//147
f 200//148 201//148 204//148 203//148
f 2//149 24//149 196//149 94//149
f 24//150 23//150 197//150 196//150
f 23//151 22//151 198//151 197//151
f 22//152 6//152 106//152 198//152
f 198//153 106//153 107//153 201//153
f 201//154 107//154 108//154 204//154
f 204//155 108//155 15//155 58//155
f 203//156 204//156 58//156 59//156
f 202//157 203//157 59//157 60//157
f 96//158 202//158 60//158 11//158
f 95//159 199//159 202//159 96//159
f 94//160 196//160 199//160 95//160
f 205//161 206//161 209//161 208//161
f 206//162 207//162 210//162 209//162
f 208//163 209//163 212//163 211//163
f 209//164 210//164 213//164 212//164
f 4//165 27//165 205//165 100//165
f 27//166 26//166 206//166 205//166
f 26//167 25//167 207//167 206//167
f 25//168 7//168 109//168 207//168
f 207//169 109//169 110//169 210//169
f 210//170 110//170 111//170 213//170
f 213//171 111//171 16//171 61//171
f 212//172 213//172 61//172 62//172
f 211//173 212//173 62//173 63//173
f 102//174 211//174 63//174 13//174
f 101//175 208//175 211//175 102//175
f 100//176 205//176 208//176 101//176
f 214//177 215//177 218//177 217//177
f 215//178 216//178 219//178 218//178
f 217//179 218//179 221//179 220//179
f 218//180 219//180 222//180 221//180
f 3//181 30//181 214//181 97//181
f 30//182 29//182 215//182 214//182
f 29//183 28//183 216//183 215//183
f 28//184 8//184 112//184 216//184
f 216//185 112//185 113//185 219//185
f 219//186 113//186 114//186 222//186
f 222//187 114//187 17//187 64//187
f 221//188 222//188 64//188 65//188
f 220//189 221//189 65//189 66//189
f 99//190 220//190 66//190 12//190
f 98//191 217//191 220//191 99//191
f 97//192 214//192 217//192 98//192
f 223//193 224//193 227//193 226//193
f 224//194 225//194 228//194 227//194
f 226//195 227//195 230//195 229//195
f 227//196 228//196 231//196 230//196
f 5//197 33//197 223//197 103//197
f 33//198 32//198 224//198 223//198
f 32//199 31//199 225//199 224//199
f 31//200 3//200 97//200 225//200
f 225//201 97//201 98//201 228//201
f 228//202 98//202 99//202 231//202
f 231//203 99//203 12//203 67//203
f 230//204 231//204 67//204 68//204
f 229//205 230//205 68//205 69//205
f 105//206 229//206 69//206 14//206
f 104//207 226//207 229//207 105//207
f 103//208 223//208 226//208 104//208
f 232//209 233//209 236//209 235//209
f 233//210 234//210 237//210 236//210
f 235//211 236//211 239//211 238//211
f 236//212 237//212 240//212 239//212
f 6//213 36//213 232//213 106//213
f 36//214 35//214 233//214 232//214
f 35//215 34//215 234//215 233//215
f 34//216 1//216 91//216 234//216
f 234//217 91//217 92//217 237//217
f 237//218 92//218 93//218 240//218
f 240//219 93//219 10//219 70//219
f 239//220 240//220 70//220 71//220
f 238//221 239//221 71//221 72//221
f 108//222 238//222 72//222 15//222
f 107//223 235//223 238//223 108//223
f 106//224 232//224 235//224 107//224
f 241//225 242//225 245//225 244//225
f 242//226 243//226 246//226 245//226
f 244//227 245//227 248//227 247//227
f 245//228 246//228 249//228 248//228
f 7//229 39//229 241//229 109//229
f 39//230 38//230 242//230 241//230
f 38//231 37//231 243//231 242//231
f 37//232 2//232 94//232 243//232
f 243//233 94//233 95//233 246//233
f 246//234 95//234 96//234 249//234
f 249//235 96//235 11//235 73//235
f 248//236 249//236 73//236 74//236
f 247//237 248//237 74//237 75//237
f 111//238 247//238 75//238 16//238
f 110//239 244//239 247//239 111//239
f 109//240 241//240 244//240 110//240
f 250//241 251//241 254//241 253//241
f 251//242 252//242 255//242 254//242
f 253//243 254//243 257//243 256//243
f 254//244 255//244 258//244 257//244
f 8//245 42//245 250//245 112//245
f 42//246 41//246 251//246 250//246
f 41//247 40//247 252//247 251//247
f 40//248 4//248 100//248 252//248
f 252//249 100//249 101//249 255//249
f 255//250 101//250 102//250 258//250
f 258//251 102//251 13//251 76//251
f 257//252 258//252 76//252 77//252
f 256//253 257//253 77//253 78//253
f 114//254 256//254 78//254 17//254
f 113//255 253//255 256//255 114//255
f 112//256 250//256 253//256 113//256
