# Blender 3.4.0
# www.blender.org
mtllib _scaffold_000.mtl
o !scaffold.000
v 7.673193 4.435922 9.776011
v 6.561788 4.435922 9.659769
v 6.303739 4.429787 12.126998
v 7.415144 4.429787 12.243240
v 7.673183 4.475657 9.776109
v 6.561778 4.475657 9.659866
v 6.303729 4.469522 12.127095
v 7.415134 4.469522 12.243338
v 6.492816 4.474018 10.319212
v 6.492826 4.434282 10.319115
v 7.604222 4.474018 10.435454
v 7.604232 4.434282 10.435357
v 8.295455 4.435922 9.841094
v 8.295444 4.475657 9.841191
v 8.226483 4.474018 10.500537
v 8.226494 4.434282 10.500440
v 7.672988 5.232488 9.777970
v 6.561583 5.232488 9.661728
v 6.303535 5.226353 12.128957
v 7.414940 5.226353 12.245199
v 7.672978 5.272223 9.778069
v 6.561573 5.272224 9.661826
v 6.303524 5.266089 12.129055
v 7.414929 5.266089 12.245297
v 7.128692 5.263882 9.715468
v 7.128914 4.398393 9.713340
v 7.604017 5.270584 10.437414
v 7.604027 5.230848 10.437316
v 8.295250 5.232488 9.843053
v 8.295240 5.272223 9.843151
v 8.226278 5.270584 10.502497
v 8.226289 5.230848 10.502398
v 7.668808 5.232698 9.787919
v 6.570617 5.232699 9.673059
v 6.315636 5.226637 12.110954
v 7.405885 5.226637 12.224984
v 7.668798 5.271962 9.788015
v 6.570606 5.271962 9.673156
v 6.315626 5.265900 12.111052
v 7.405874 5.265900 12.225080
v 7.107033 5.263882 9.713203
v 7.107255 4.398393 9.711074
v 7.592713 5.270342 10.438692
v 7.592724 5.231079 10.438595
v 8.283672 5.232698 9.852228
v 8.283662 5.271962 9.852324
v 8.215521 5.270342 10.503831
v 8.215530 5.231079 10.503735
v 7.126529 5.263831 9.736143
v 7.126752 4.398341 9.734015
v 7.104870 5.263831 9.733878
v 7.105093 4.398341 9.731750
v 6.593307 5.263882 9.659472
v 6.593530 4.398393 9.657343
v 6.571648 5.263882 9.657207
v 6.571871 4.398393 9.655078
v 6.591145 5.263831 9.680147
v 6.591367 4.398341 9.678019
v 6.569486 5.263831 9.677882
v 6.569708 4.398341 9.675754
v 8.296503 5.263882 9.837610
v 8.296726 4.398392 9.835482
v 8.274844 5.263882 9.835345
v 8.275067 4.398392 9.833216
v 8.294341 5.263831 9.858286
v 8.294563 4.398341 9.856156
v 8.272682 5.263831 9.856020
v 8.272904 4.398341 9.853891
v 7.717245 5.263882 9.777025
v 7.717468 4.398392 9.774897
v 7.695586 5.263882 9.774760
v 7.695809 4.398392 9.772632
v 7.715083 5.263831 9.797701
v 7.715305 4.398341 9.795571
v 7.693424 5.263831 9.795435
v 7.693646 4.398341 9.793306
v 8.230208 5.262306 10.471462
v 8.230431 4.396816 10.469334
v 8.208549 5.262306 10.469197
v 8.208773 4.396816 10.467069
v 8.228046 5.262255 10.492138
v 8.228269 4.396765 10.490008
v 8.206388 5.262255 10.489872
v 8.206610 4.396765 10.487743
v 7.614875 5.262074 10.501535
v 7.615098 4.396584 10.499407
v 7.593217 5.262074 10.499270
v 7.593440 4.396584 10.497142
v 7.612713 5.262022 10.522211
v 7.612936 4.396533 10.520082
v 7.591054 5.262022 10.519945
v 7.591277 4.396533 10.517817
v 7.493109 5.259179 11.665759
v 7.493331 4.393689 11.663630
v 7.471450 5.259179 11.663493
v 7.471673 4.393689 11.661365
v 7.490946 5.259128 11.686434
v 7.491169 4.393638 11.684305
v 7.469288 5.259128 11.684169
v 7.469511 4.393638 11.682039
v 7.564260 5.260870 10.985470
v 7.564483 4.395380 10.983341
v 7.542602 5.260870 10.983205
v 7.542825 4.395380 10.981076
v 7.562098 5.260819 11.006145
v 7.562321 4.395329 11.004017
v 7.540440 5.260819 11.003881
v 7.540662 4.395329 11.001751
v 7.369555 5.257747 12.235005
v 7.369778 4.392257 12.232877
v 7.347897 5.257747 12.232740
v 7.348119 4.392257 12.230612
v 7.367393 5.257696 12.255680
v 7.367615 4.392206 12.253551
v 7.345734 5.257696 12.253415
v 7.345957 4.392206 12.251287
v 6.388772 5.257747 12.132425
v 6.388995 4.392257 12.130296
v 6.367114 5.257747 12.130159
v 6.367337 4.392257 12.128031
v 6.386610 5.257696 12.153100
v 6.386833 4.392206 12.150971
v 6.364952 5.257696 12.150835
v 6.365174 4.392206 12.148706
v 6.863086 5.257747 12.182034
v 6.863308 4.392257 12.179905
v 6.841427 5.257747 12.179769
v 6.841650 4.392257 12.177639
v 6.860923 5.257696 12.202708
v 6.861145 4.392206 12.200580
v 6.839264 5.257696 12.200443
v 6.839487 4.392206 12.198315
v 7.472414 5.227719 11.695683
v 7.472404 5.267455 11.695780
v 7.462676 5.227987 11.682000
v 7.462666 5.267250 11.682096
v 7.603888 4.263901 10.438648
v 7.603898 4.224165 10.438551
v 8.226150 4.263901 10.503731
v 8.226160 4.224165 10.503633
v 7.572387 4.263152 10.739832
v 7.572397 4.223416 10.739735
v 8.194649 4.263152 10.804915
v 8.194658 4.223416 10.804817
v 8.087476 3.005744 11.829600
v 8.087466 3.045479 11.829699
v 7.465214 3.005744 11.764518
v 7.465204 3.045479 11.764616
v 8.118977 3.006493 11.528417
v 8.118967 3.046228 11.528514
v 7.496715 3.006493 11.463334
v 7.496705 3.046228 11.463431
v 7.517601 3.279408 11.263644
v 7.517611 3.239673 11.263546
v 8.139863 3.279408 11.328727
v 8.139874 3.239673 11.328629
v 7.486100 3.278660 11.564828
v 7.486110 3.238924 11.564731
v 8.108362 3.278659 11.629910
v 8.108372 3.238924 11.629813
v 8.129655 3.477284 11.426328
v 8.129644 3.517020 11.426425
v 7.507393 3.477284 11.361245
v 7.507382 3.517020 11.361342
v 8.161156 3.478033 11.125144
v 8.161145 3.517768 11.125241
v 7.538894 3.478033 11.060061
v 7.538883 3.517769 11.060159
v 7.560938 3.771659 10.849291
v 7.560948 3.731924 10.849194
v 8.183200 3.771659 10.914373
v 8.183210 3.731924 10.914276
v 7.529437 3.770910 11.150475
v 7.529448 3.731175 11.150377
v 8.151699 3.770910 11.215558
v 8.151710 3.731174 11.215460
v 8.172606 3.964355 11.015673
v 8.172595 4.004090 11.015770
v 7.550344 3.964355 10.950590
v 7.550333 4.004090 10.950687
v 8.204106 3.965104 10.714488
v 8.204096 4.004839 10.714586
v 7.581844 3.965104 10.649405
v 7.581834 4.004839 10.649504
v 8.097824 2.739291 11.730665
v 8.246787 4.465259 10.306410
v 8.218830 4.464594 10.573714
v 8.069866 2.738626 11.997970
v 8.131531 2.739291 11.734191
v 8.280494 4.465259 10.309936
v 8.252537 4.464594 10.577240
v 8.103573 2.738626 12.001495
v 7.435356 2.731144 11.661357
v 7.584320 4.457112 10.237103
v 7.556362 4.456447 10.504406
v 7.407398 2.730479 11.928661
v 7.469062 2.731144 11.664883
v 7.618026 4.457112 10.240627
v 7.590069 4.456447 10.507932
v 7.441105 2.730479 11.932187
v 8.037487 2.725335 12.307551
v 8.037477 2.765071 12.307649
v 7.415225 2.725335 12.242468
v 7.415215 2.765071 12.242566
v 8.098869 2.726794 11.720669
v 8.098859 2.766530 11.720766
v 7.476607 2.726794 11.655586
v 7.476597 2.766530 11.655684
v 8.210944 5.270197 10.658356
v 8.216259 5.230509 10.639249
v 8.200015 5.269958 10.658388
v 8.205330 5.230742 10.639282
v 8.061418 3.593430 12.006313
v 8.066732 3.553742 11.987206
v 8.050488 3.593191 12.006345
v 8.055803 3.553976 11.987240
v 8.033218 3.592768 12.272577
v 8.033228 3.553032 12.272480
v 8.022289 3.592529 12.272610
v 8.022299 3.553266 12.272513
v 8.204254 5.106023 10.719615
v 8.204476 4.240533 10.717486
v 8.182595 5.106023 10.717350
v 8.182817 4.240533 10.715221
v 8.202091 5.105971 10.740291
v 8.202314 4.240481 10.738161
v 8.180433 5.105971 10.738025
v 8.180655 4.240481 10.735896
v 8.180956 4.840836 10.942368
v 8.181179 3.975346 10.940238
v 8.159298 4.840836 10.940102
v 8.159520 3.975346 10.937973
v 8.178794 4.840785 10.963042
v 8.179016 3.975295 10.960914
v 8.157135 4.840785 10.960777
v 8.157358 3.975295 10.958649
v 8.159700 4.587373 11.145600
v 8.159923 3.721883 11.143472
v 8.138041 4.587373 11.143335
v 8.138264 3.721883 11.141206
v 8.157537 4.587321 11.166275
v 8.157760 3.721832 11.164146
v 8.135879 4.587321 11.164010
v 8.136102 3.721832 11.161881
v 8.137858 4.337788 11.354427
v 8.138082 3.472298 11.352299
v 8.116199 4.337788 11.352162
v 8.116423 3.472298 11.350034
v 8.135696 4.337736 11.375103
v 8.135919 3.472246 11.372974
v 8.114038 4.337736 11.372837
v 8.114260 3.472246 11.370708
v 8.119228 4.096062 11.532557
v 8.119451 3.230572 11.530428
v 8.097569 4.096062 11.530292
v 8.097792 3.230572 11.528162
v 8.117065 4.096011 11.553231
v 8.117289 3.230521 11.551103
v 8.095407 4.096011 11.550966
v 8.095630 3.230521 11.548838
v 8.095349 3.817757 11.760861
v 8.095551 3.032959 11.758931
v 8.073690 3.817757 11.758596
v 8.073893 3.032959 11.756666
v 8.093187 3.817706 11.781536
v 8.093389 3.032907 11.779606
v 8.071528 3.817706 11.779271
v 8.071730 3.032907 11.777341
v 8.034263 3.592713 12.294853
v 8.034273 3.552978 12.294755
v 8.023334 3.592474 12.294886
v 8.023344 3.553211 12.294788
v 7.380323 3.592517 12.210440
v 7.380333 3.553253 12.210343
v 7.381368 3.592462 12.232716
v 7.381378 3.553199 12.232619
v 7.358732 4.502267 12.270180
v 7.389935 4.502267 12.273443
v 7.364041 4.502394 12.219423
v 7.395244 4.502394 12.222687
v 7.357796 2.754197 12.267683
v 7.391368 2.754197 12.271194
v 7.363508 2.754333 12.213073
v 7.397079 2.754333 12.216584
v 6.333908 4.502268 12.162993
v 6.365111 4.502268 12.166257
v 6.339217 4.502394 12.112236
v 6.370420 4.502394 12.115499
v 6.332972 2.754197 12.160496
v 6.366544 2.754197 12.164007
v 6.338684 2.754333 12.105886
v 6.372255 2.754333 12.109398
v 7.467359 4.504850 11.231588
v 7.498562 4.504850 11.234852
v 7.472668 4.504976 11.180831
v 7.503871 4.504976 11.184094
v 7.466423 2.756780 11.229091
v 7.499995 2.756780 11.232602
v 7.472135 2.756915 11.174480
v 7.505706 2.756915 11.177992
v 6.442535 4.504850 11.124401
v 6.473738 4.504850 11.127665
v 6.447844 4.504976 11.073644
v 6.479047 4.504976 11.076907
v 6.441599 2.756780 11.121904
v 6.475171 2.756780 11.125416
v 6.447310 2.756915 11.067294
v 6.480882 2.756915 11.070806
v 7.618481 4.508443 9.786699
v 7.649684 4.508443 9.789963
v 7.623789 4.508569 9.735942
v 7.654993 4.508569 9.739205
v 7.617544 2.760372 9.784203
v 7.651116 2.760372 9.787713
v 7.623256 2.760508 9.729592
v 7.656828 2.760508 9.733104
v 6.593657 4.508443 9.679512
v 6.624860 4.508443 9.682776
v 6.598965 4.508569 9.628756
v 6.630168 4.508569 9.632019
v 6.592721 2.760372 9.677015
v 6.626292 2.760372 9.680527
v 6.598432 2.760508 9.622405
v 6.632004 2.760508 9.625916
v 8.244570 4.508443 9.852182
v 8.275773 4.508443 9.855446
v 8.249879 4.508569 9.801425
v 8.281082 4.508569 9.804688
v 8.243633 2.760372 9.849685
v 8.277205 2.760372 9.853196
v 8.249346 2.760508 9.795075
v 8.282917 2.760508 9.798586
v 8.178141 4.506864 10.487322
v 8.209344 4.506864 10.490585
v 8.183449 4.506989 10.436564
v 8.214652 4.506989 10.439828
v 8.177204 2.758793 10.484824
v 8.210775 2.758793 10.488336
v 8.182916 2.758929 10.430214
v 8.216488 2.758929 10.433725
v 6.592772 4.372130 11.750909
v 7.210186 4.372130 11.815484
v 6.697814 4.374628 10.746582
v 7.315229 4.374628 10.811157
v 6.592755 4.434801 11.751062
v 7.210171 4.434801 11.815639
v 6.697798 4.437298 10.746736
v 7.315214 4.437298 10.811312
v 7.571133 4.867239 10.996787
v 7.549475 4.867239 10.994522
v 7.551637 4.867290 10.973846
v 7.573296 4.867290 10.976112
v 7.547711 5.221268 10.975758
v 7.537077 5.221041 10.970634
v 7.547721 5.181532 10.975659
v 7.537088 5.181778 10.970536
vn 0.1040 0.0025 -0.9946
vn -0.9946 -0.0000 -0.1040
vn -0.1040 -0.0025 0.9946
vn 0.0003 -1.0000 -0.0025
vn -0.0003 1.0000 0.0025
vn 0.9946 -0.0000 0.1040
vn -0.0367 0.9955 0.0879
vn -0.0021 -0.9998 0.0203
vn 0.0015 -0.9999 -0.0147
vn 0.0010 1.0000 -0.0098
vn -0.0220 -0.9997 -0.0048
vn -0.0026 0.9997 0.0252
vn -0.0225 0.9997 0.0001
vn 0.1040 0.0260 -0.9942
vn -0.9944 0.0170 -0.1040
vn -0.1040 -0.0260 0.9942
vn 0.9944 0.0204 0.1041
vn -0.0770 -0.9954 0.0562
vn -0.0801 0.6385 0.7654
vn 0.0801 -0.6385 -0.7654
vn -0.0222 0.9998 0.0003
vn -0.0114 0.6271 0.7788
vn -0.0216 -0.9998 -0.0041
vn -0.9950 -0.0459 -0.0883
vn 0.9952 0.0459 0.0864
vn -0.0219 0.9998 0.0002
vn -0.0157 -0.6256 -0.7800
vn -0.9840 -0.0499 -0.1713
vn 0.9841 0.0496 0.1708
vn -0.0219 0.9998 0.0035
vn -0.0214 -0.9998 -0.0050
vn -0.9930 -0.0402 -0.1112
vn 0.9930 0.0397 0.1112
vn 0.0030 -0.0025 1.0000
vn -0.0213 -0.9998 -0.0014
vn 0.9989 0.0004 -0.0468
vn -0.9989 -0.0004 0.0468
vn -0.0964 -0.0025 0.9953
vn 0.0964 0.0025 -0.9953
vn 0.1040 0.0036 -0.9946
vn -0.9946 0.0007 -0.1040
vn 0.9946 0.0007 0.1040
vn -0.1040 -0.0014 0.9946
vn 0.9944 -0.0170 0.1040
vn -0.1040 0.0172 0.9944
vn -0.9944 -0.0204 -0.1041
vn 0.1040 -0.0172 -0.9944
vn -0.0054 -0.9957 -0.0923
vn 0.0349 0.9975 -0.0607
s 0
usemtl jersey.000
f 5//1 1//1 2//1 6//1
f 9//2 10//2 3//2 7//2
f 7//3 3//3 4//3 8//3
f 12//3 16//3 15//3 11//3
f 12//4 4//4 3//4 10//4
f 11//5 5//5 6//5 9//5
f 8//5 11//5 9//5 7//5
f 1//4 12//4 10//4 2//4
f 8//6 4//6 12//6 11//6
f 6//2 2//2 10//2 9//2
f 15//6 16//6 13//6 14//6
f 1//4 13//4 16//4 12//4
f 11//5 15//5 14//5 5//5
f 5//1 14//1 13//1 1//1
f 138//1 137//1 139//1 140//1
f 142//3 144//3 143//3 141//3
f 137//5 141//5 143//5 139//5
f 140//4 144//4 142//4 138//4
f 139//6 143//6 144//6 140//6
f 138//2 142//2 141//2 137//2
f 151//2 147//2 148//2 152//2
f 150//6 146//6 145//6 149//6
f 149//4 145//4 147//4 151//4
f 152//5 148//5 146//5 150//5
f 147//3 145//3 146//3 148//3
f 151//1 152//1 150//1 149//1
f 154//1 153//1 155//1 156//1
f 158//3 160//3 159//3 157//3
f 153//5 157//5 159//5 155//5
f 156//4 160//4 158//4 154//4
f 155//6 159//6 160//6 156//6
f 154//2 158//2 157//2 153//2
f 167//2 163//2 164//2 168//2
f 166//6 162//6 161//6 165//6
f 165//4 161//4 163//4 167//4
f 168//5 164//5 162//5 166//5
f 163//3 161//3 162//3 164//3
f 167//1 168//1 166//1 165//1
f 170//1 169//1 171//1 172//1
f 174//3 176//3 175//3 173//3
f 169//5 173//5 175//5 171//5
f 172//4 176//4 174//4 170//4
f 171//6 175//6 176//6 172//6
f 170//2 174//2 173//2 169//2
f 183//2 179//2 180//2 184//2
f 182//6 178//6 177//6 181//6
f 181//4 177//4 179//4 183//4
f 184//5 180//5 178//5 182//5
f 179//3 177//3 178//3 180//3
f 183//1 184//1 182//1 181//1
f 187//2 186//2 185//2 188//2
f 191//6 192//6 189//6 190//6
f 188//19 192//19 191//19 187//19
f 185//4 189//4 192//4 188//4
f 187//5 191//5 190//5 186//5
f 186//20 190//20 189//20 185//20
f 195//2 194//2 193//2 196//2
f 199//6 200//6 197//6 198//6
f 196//19 200//19 199//19 195//19
f 193//4 197//4 200//4 196//4
f 195//5 199//5 198//5 194//5
f 194//20 198//20 197//20 193//20
f 207//2 203//2 204//2 208//2
f 206//6 202//6 201//6 205//6
f 205//4 201//4 203//4 207//4
f 208//5 204//5 202//5 206//5
f 203//3 201//3 202//3 204//3
f 207//1 208//1 206//1 205//1
f 280//5 279//5 277//5 278//5
f 284//4 282//4 281//4 283//4
f 280//40 284//40 283//40 279//40
f 279//41 283//41 281//41 277//41
f 278//42 282//42 284//42 280//42
f 277//43 281//43 282//43 278//43
f 288//5 287//5 285//5 286//5
f 292//4 290//4 289//4 291//4
f 288//40 292//40 291//40 287//40
f 287//41 291//41 289//41 285//41
f 286//42 290//42 292//42 288//42
f 285//43 289//43 290//43 286//43
f 296//5 295//5 293//5 294//5
f 300//4 298//4 297//4 299//4
f 296//40 300//40 299//40 295//40
f 295//41 299//41 297//41 293//41
f 294//42 298//42 300//42 296//42
f 293//43 297//43 298//43 294//43
f 304//5 303//5 301//5 302//5
f 308//4 306//4 305//4 307//4
f 304//40 308//40 307//40 303//40
f 303//41 307//41 305//41 301//41
f 302//42 306//42 308//42 304//42
f 301//43 305//43 306//43 302//43
f 312//5 311//5 309//5 310//5
f 316//4 314//4 313//4 315//4
f 312//40 316//40 315//40 311//40
f 311//41 315//41 313//41 309//41
f 310//42 314//42 316//42 312//42
f 309//43 313//43 314//43 310//43
f 320//5 319//5 317//5 318//5
f 324//4 322//4 321//4 323//4
f 320//40 324//40 323//40 319//40
f 319//41 323//41 321//41 317//41
f 318//42 322//42 324//42 320//42
f 317//43 321//43 322//43 318//43
f 328//5 327//5 325//5 326//5
f 332//4 330//4 329//4 331//4
f 328//40 332//40 331//40 327//40
f 327//41 331//41 329//41 325//41
f 326//42 330//42 332//42 328//42
f 325//43 329//43 330//43 326//43
f 336//5 335//5 333//5 334//5
f 340//4 338//4 337//4 339//4
f 336//40 340//40 339//40 335//40
f 335//41 339//41 337//41 333//41
f 334//42 338//42 340//42 336//42
f 333//43 337//43 338//43 334//43
usemtl steel.003
f 21//1 17//1 18//1 22//1
f 53//5 55//5 59//5 57//5
f 23//3 19//3 20//3 24//3
f 54//1 56//1 55//1 53//1
f 353//6 355//6 28//6 27//6
f 55//2 56//2 60//2 59//2
f 31//6 32//6 29//6 30//6
f 21//1 30//1 29//1 17//1
f 37//3 38//3 34//3 33//3
f 41//2 42//2 52//2 51//2
f 39//1 40//1 36//1 35//1
f 58//3 57//3 59//3 60//3
f 354//2 43//2 44//2 356//2
f 25//5 41//5 51//5 49//5
f 47//2 46//2 45//2 48//2
f 37//3 33//3 45//3 46//3
f 353//7 27//7 43//7 354//7
f 26//6 25//6 49//6 50//6
f 17//8 29//8 45//8 33//8
f 20//9 19//9 35//9 36//9
f 56//4 54//4 58//4 60//4
f 23//10 24//10 40//10 39//10
f 29//11 32//11 48//11 45//11
f 18//8 17//8 33//8 34//8
f 21//12 22//12 38//12 37//12
f 42//4 26//4 50//4 52//4
f 30//12 21//12 37//12 46//12
f 54//6 53//6 57//6 58//6
f 50//3 49//3 51//3 52//3
f 31//13 30//13 46//13 47//13
f 26//1 42//1 41//1 25//1
f 61//5 63//5 67//5 65//5
f 62//1 64//1 63//1 61//1
f 63//2 64//2 68//2 67//2
f 66//3 65//3 67//3 68//3
f 64//4 62//4 66//4 68//4
f 62//6 61//6 65//6 66//6
f 69//5 71//5 75//5 73//5
f 70//1 72//1 71//1 69//1
f 71//2 72//2 76//2 75//2
f 74//3 73//3 75//3 76//3
f 72//4 70//4 74//4 76//4
f 70//6 69//6 73//6 74//6
f 77//5 79//5 83//5 81//5
f 78//1 80//1 79//1 77//1
f 79//2 80//2 84//2 83//2
f 82//3 81//3 83//3 84//3
f 80//4 78//4 82//4 84//4
f 78//6 77//6 81//6 82//6
f 85//5 87//5 91//5 89//5
f 86//1 88//1 87//1 85//1
f 87//2 88//2 92//2 91//2
f 90//3 89//3 91//3 92//3
f 88//4 86//4 90//4 92//4
f 86//6 85//6 89//6 90//6
f 93//5 95//5 99//5 97//5
f 94//1 96//1 95//1 93//1
f 95//2 96//2 100//2 99//2
f 98//3 97//3 99//3 100//3
f 96//4 94//4 98//4 100//4
f 94//6 93//6 97//6 98//6
f 101//5 103//5 107//5 105//5
f 352//14 351//14 103//14 101//14
f 351//15 104//15 108//15 350//15
f 349//16 105//16 107//16 350//16
f 104//4 102//4 106//4 108//4
f 352//17 101//17 105//17 349//17
f 109//5 111//5 115//5 113//5
f 110//1 112//1 111//1 109//1
f 111//2 112//2 116//2 115//2
f 114//3 113//3 115//3 116//3
f 112//4 110//4 114//4 116//4
f 110//6 109//6 113//6 114//6
f 117//5 119//5 123//5 121//5
f 118//1 120//1 119//1 117//1
f 119//2 120//2 124//2 123//2
f 122//3 121//3 123//3 124//3
f 120//4 118//4 122//4 124//4
f 118//6 117//6 121//6 122//6
f 125//5 127//5 131//5 129//5
f 126//1 128//1 127//1 125//1
f 127//2 128//2 132//2 131//2
f 130//3 129//3 131//3 132//3
f 128//4 126//4 130//4 132//4
f 126//6 125//6 129//6 130//6
f 355//18 133//18 135//18 356//18
f 47//21 211//21 209//21 31//21
f 211//22 215//22 213//22 209//22
f 32//23 210//23 212//23 48//23
f 48//24 212//24 211//24 47//24
f 31//25 209//25 210//25 32//25
f 215//26 219//26 217//26 213//26
f 210//27 214//27 216//27 212//27
f 212//28 216//28 215//28 211//28
f 209//29 213//29 214//29 210//29
f 219//30 271//30 269//30 217//30
f 214//31 218//31 220//31 216//31
f 216//32 220//32 219//32 215//32
f 213//33 217//33 218//33 214//33
f 221//5 223//5 227//5 225//5
f 222//1 224//1 223//1 221//1
f 223//2 224//2 228//2 227//2
f 226//3 225//3 227//3 228//3
f 224//4 222//4 226//4 228//4
f 222//6 221//6 225//6 226//6
f 229//5 231//5 235//5 233//5
f 230//1 232//1 231//1 229//1
f 231//2 232//2 236//2 235//2
f 234//3 233//3 235//3 236//3
f 232//4 230//4 234//4 236//4
f 230//6 229//6 233//6 234//6
f 237//5 239//5 243//5 241//5
f 238//1 240//1 239//1 237//1
f 239//2 240//2 244//2 243//2
f 242//3 241//3 243//3 244//3
f 240//4 238//4 242//4 244//4
f 238//6 237//6 241//6 242//6
f 245//5 247//5 251//5 249//5
f 246//1 248//1 247//1 245//1
f 247//2 248//2 252//2 251//2
f 250//3 249//3 251//3 252//3
f 248//4 246//4 250//4 252//4
f 246//6 245//6 249//6 250//6
f 253//5 255//5 259//5 257//5
f 254//1 256//1 255//1 253//1
f 255//2 256//2 260//2 259//2
f 258//3 257//3 259//3 260//3
f 256//4 254//4 258//4 260//4
f 254//6 253//6 257//6 258//6
f 261//5 263//5 267//5 265//5
f 262//1 264//1 263//1 261//1
f 263//2 264//2 268//2 267//2
f 266//3 265//3 267//3 268//3
f 264//4 262//4 266//4 268//4
f 262//6 261//6 265//6 266//6
f 270//34 269//34 271//34 272//34
f 218//35 270//35 272//35 220//35
f 272//4 276//4 274//4 220//4
f 217//36 269//36 270//36 218//36
f 274//37 276//37 275//37 273//37
f 219//5 273//5 275//5 271//5
f 271//38 275//38 276//38 272//38
f 220//39 274//39 273//39 219//39
f 102//44 352//44 349//44 106//44
f 106//45 349//45 350//45 108//45
f 103//46 351//46 350//46 107//46
f 102//47 104//47 351//47 352//47
f 28//48 355//48 356//48 44//48
f 134//49 353//49 354//49 136//49
f 136//2 354//2 356//2 135//2
f 134//6 133//6 355//6 353//6
usemtl 
f 342//4 341//4 343//4 344//4
f 346//5 348//5 347//5 345//5
f 343//1 347//1 348//1 344//1
f 344//6 348//6 346//6 342//6
f 342//3 346//3 345//3 341//3
f 341//2 345//2 347//2 343//2
