# Blender 3.4.0
# www.blender.org
mtllib boatback_009.mtl
o boatback.009
v -0.840829 7.907179 10.789747
v -0.836089 4.311310 10.744438
v -0.981370 7.914165 12.133422
v -0.978805 4.318405 12.108909
v -0.983074 4.318618 12.149727
v -0.985574 7.914375 12.173617
v -0.882184 7.909235 11.185128
v -0.885186 4.313751 11.213840
v -0.866961 7.908478 11.039585
v -0.875690 4.313279 11.123051
v -0.836719 4.789024 10.750458
v -0.979146 4.796105 12.112165
v -0.983406 4.796317 12.152901
v -0.884787 4.791414 11.210025
v -0.867093 4.790534 11.040854
v -0.836383 4.533713 10.747240
v -0.978964 4.540801 12.110425
v -0.983229 4.541013 12.151204
v -0.885000 4.536130 11.212064
v -0.871520 4.544769 11.083182
v -0.981006 7.403703 12.129942
v -0.985219 7.403913 12.170226
v -0.882610 7.398811 11.189204
v -0.866068 7.397989 11.031050
v -0.840156 7.396701 10.783315
v -0.924180 4.313279 11.117979
v -0.933676 4.313751 11.208768
v -0.931099 7.398811 11.184133
v -0.930673 7.909235 11.180057
v -0.915450 7.908478 11.034513
v -0.914557 7.397989 11.025978
v -0.933490 4.536130 11.206992
v -0.933277 4.791414 11.204953
v -0.920010 4.544769 11.078111
v -0.915582 4.790534 11.035783
v -1.081052 7.914375 12.163631
v -1.076848 7.914165 12.123436
v -1.076484 7.403703 12.119956
v -1.074284 4.318405 12.098923
v -1.078553 4.318618 12.139740
v -1.080698 7.403913 12.160239
v -1.074442 4.540801 12.100438
v -1.074624 4.796105 12.102179
v -1.078708 4.541013 12.141217
v -1.078885 4.796317 12.142914
v -0.981302 7.819554 12.132777
v -0.985508 7.819763 12.172989
v -0.882263 7.814631 11.185884
v -0.866795 7.813861 11.038003
v -0.840704 7.812564 10.788555
v -0.930752 7.814631 11.180812
v -0.915285 7.813861 11.032931
v -1.076781 7.819554 12.122790
v -1.080987 7.819763 12.163002
v -0.983122 4.386933 12.150180
vn -0.9946 -0.0000 -0.1040
vn 0.1040 0.0069 -0.9946
vn 0.1025 -0.1706 -0.9800
vn -0.1040 0.0080 0.9945
vn 0.0005 1.0000 -0.0051
vn -0.0005 -1.0000 0.0051
vn 0.1040 -0.0038 -0.9946
vn 0.1040 0.0168 -0.9944
vn -0.1040 -0.0067 0.9946
vt 0.168769 0.206642
vt 0.928021 0.162980
vt 0.000000 0.000000
vt 0.176240 0.559690
vt 0.000000 0.000000
vt 0.935593 0.521516
vt 0.000000 0.000000
vt 0.935820 0.532242
vt 0.000000 0.000000
vt 0.176463 0.570251
vt 0.000000 0.000000
vt 0.170967 0.310527
vt 0.930626 0.286323
vt 0.000000 0.000000
vt 0.000000 0.000000
vt 0.170158 0.272286
vt 0.000000 0.000000
vt 0.930122 0.262467
vt 0.827154 0.168781
vt 0.834712 0.526588
vt 0.834939 0.537291
vt 0.829705 0.289538
vt 0.828766 0.245086
vt 0.881062 0.165681
vt 0.888628 0.523878
vt 0.888854 0.534593
vt 0.883642 0.287820
vt 0.880960 0.254036
vt 0.284039 0.554271
vt 0.284263 0.564855
vt 0.278810 0.307091
vt 0.277931 0.265536
vt 0.276554 0.200443
vt 0.000000 0.000000
vt 0.930122 0.262467
vt 0.930626 0.286323
vt 0.000000 0.000000
vt 0.278810 0.307091
vt 0.000000 0.000000
vt 0.170967 0.310527
vt 0.000000 0.000000
vt 0.170158 0.272286
vt 0.277931 0.265536
vt 0.883642 0.287820
vt 0.829705 0.289538
vt 0.880960 0.254036
vt 0.828766 0.245086
vt 0.000000 0.000000
vt 0.176463 0.570251
vt 0.000000 0.000000
vt 0.176240 0.559690
vt 0.284039 0.554271
vt 0.000000 0.000000
vt 0.935593 0.521516
vt 0.000000 0.000000
vt 0.935820 0.532242
vt 0.284263 0.564855
vt 0.888628 0.523878
vt 0.834712 0.526588
vt 0.888854 0.534593
vt 0.834939 0.537291
vt 0.196220 0.558685
vt 0.196444 0.569251
vt 0.190955 0.309890
vt 0.190133 0.271035
vt 0.188746 0.205493
vt 0.190955 0.309890
vt 0.190133 0.271035
vt 0.196220 0.558685
vt 0.196444 0.569251
vt 0.921393 0.532964
s 0
usemtl boatback
f 19/27/1 8/13/1 4/6/1 17/25/1
f 21/29/2 12/20/2 43/59/2 38/52/2
f 15/23/3 20/28/3 34/46/3 35/47/3
f 16/24/1 2/2/1 10/18/1 20/28/1
f 25/33/1 11/19/1 15/23/1 24/32/1
f 8/13/4 19/27/4 32/44/4 27/36/4
f 12/20/2 17/25/2 42/58/2 43/59/2
f 23/31/1 14/22/1 12/20/1 21/29/1
f 11/19/1 16/24/1 20/28/1 15/23/1
f 14/22/4 23/31/4 28/38/4 33/45/4
f 6/9/5 3/3/5 37/50/5 36/48/5
f 14/22/1 19/27/1 17/25/1 12/20/1
f 48/64/1 23/31/1 21/29/1 46/62/1
f 4/5/6 5/7/6 40/55/6 39/53/6
f 19/27/4 14/22/4 33/45/4 32/44/4
f 50/66/1 25/33/1 24/32/1 49/65/1
f 34/46/1 26/35/1 27/36/1 32/44/1
f 31/43/1 35/47/1 33/45/1 28/38/1
f 35/47/1 34/46/1 32/44/1 33/45/1
f 52/68/1 31/43/1 28/38/1 51/67/1
f 10/17/6 8/14/6 27/37/6 26/34/6
f 24/32/7 15/23/7 35/47/7 31/43/7
f 20/28/3 10/18/3 26/35/3 34/46/3
f 49/65/8 24/32/8 31/43/8 52/68/8
f 48/64/4 7/12/4 29/40/4 51/67/4
f 7/11/5 9/15/5 30/41/5 29/39/5
f 42/58/1 39/54/1 40/56/1 44/60/1
f 38/52/1 43/59/1 45/61/1 41/57/1
f 43/59/1 42/58/1 44/60/1 45/61/1
f 53/69/1 38/52/1 41/57/1 54/70/1
f 17/25/2 4/6/2 39/54/2 42/58/2
f 18/26/9 13/21/9 45/61/9 44/60/9
f 47/63/9 6/10/9 36/49/9 54/70/9
f 13/21/9 22/30/9 41/57/9 45/61/9
f 46/62/2 21/29/2 38/52/2 53/69/2
f 5/8/9 55/71/9 18/26/9 44/60/9 40/56/9
f 3/4/2 46/62/2 53/69/2 37/51/2
f 22/30/9 47/63/9 54/70/9 41/57/9
f 37/51/1 53/69/1 54/70/1 36/49/1
f 23/31/4 48/64/4 51/67/4 28/38/4
f 9/16/8 49/65/8 52/68/8 30/42/8
f 30/42/1 52/68/1 51/67/1 29/40/1
f 1/1/1 50/66/1 49/65/1 9/16/1
f 7/12/1 48/64/1 46/62/1 3/4/1
