# Blender 3.4.0
# www.blender.org
mtllib boatback_022.mtl
o boatback.022
v 5.914378 11.849468 8.423809
v 5.519614 11.811528 12.281796
v 5.905433 12.779643 8.420667
v 5.527671 12.762898 12.279337
v 5.524819 12.804136 12.278278
v 5.871593 12.819288 8.420438
v 5.888879 12.245543 8.425564
v 5.515818 12.283913 12.278789
v 5.914604 12.099952 8.425627
v 5.528458 12.192271 12.281591
v 5.615820 11.815742 11.776625
v 5.573614 12.765083 11.766346
v 5.579782 12.805865 11.767502
v 5.612844 12.278409 11.773230
v 5.604325 12.108221 11.773098
v 5.545166 11.813336 12.045051
v 5.558553 12.763761 12.042066
v 5.550953 12.804810 12.040967
v 5.561636 12.281083 12.044415
v 5.554904 12.151870 12.032654
v 5.859606 12.775940 8.973649
v 5.827805 12.816159 8.972116
v 5.856733 12.251999 8.970972
v 5.833025 12.091070 8.976081
v 5.837240 11.842775 8.974325
v 5.479702 12.192442 12.276123
v 5.472519 12.283879 12.274515
v 5.789463 12.250948 8.968906
v 5.820105 12.247173 8.414263
v 5.852807 12.099751 8.420465
v 5.777989 12.093055 8.964732
v 5.517817 12.281252 12.039671
v 5.569901 12.278168 11.770241
v 5.530115 12.151466 12.031936
v 5.565117 12.108695 11.768215
v 5.779828 12.820009 8.409794
v 5.788522 12.778835 8.413032
v 5.768865 12.774549 8.969648
v 5.433889 12.762958 12.269751
v 5.418979 12.804042 12.267467
v 5.736314 12.815700 8.966334
v 5.447780 12.764028 12.029661
v 5.503030 12.764338 11.762321
v 5.449641 12.804940 12.030085
v 5.513021 12.805278 11.763625
v 5.913065 12.777899 8.528191
v 5.857830 12.819156 8.520758
v 5.895097 12.246302 8.529160
v 5.890470 12.099253 8.523601
v 5.874336 11.847780 8.525179
v 5.835165 12.246768 8.522173
v 5.852456 12.097278 8.526498
v 5.792654 12.778055 8.516507
v 5.760098 12.819696 8.510694
v 5.536880 12.804184 12.206340
v 5.719706 11.830435 10.370839
v 5.777873 12.261070 10.389376
v 5.754627 12.097409 10.385160
v 5.698647 12.263426 10.375759
v 5.670719 12.100355 10.366842
v 5.673544 11.821994 11.077858
v 5.647019 12.978170 11.067917
v 5.672153 13.019171 11.070171
v 5.689545 12.271842 11.074295
v 5.672627 12.103088 11.077558
v 5.631122 12.271387 11.070579
v 5.658370 12.103445 11.076167
v 5.563984 12.978883 11.058251
v 5.564109 13.019697 11.058243
v 5.794183 12.980280 9.683489
v 5.793708 13.024315 9.671487
v 5.793884 12.254391 9.685759
v 5.769051 12.096085 9.673197
v 5.752110 12.256078 9.676003
v 5.753385 12.094947 9.673631
v 5.685878 12.983828 9.662608
v 5.693338 13.024011 9.663732
v 5.784874 11.834653 9.680069
v 5.670802 13.044616 10.850293
v 5.789230 13.044829 9.902113
v 5.778005 12.576603 10.388315
v 5.728874 13.106119 10.371561
v 5.760351 13.089366 9.887391
v 5.694024 13.083516 10.858912
v 5.742052 13.144937 10.378967
v 5.666067 13.048899 9.878364
v 5.601437 13.043613 10.848072
v 5.644786 13.105654 10.366683
v 5.686060 13.087246 9.886309
v 5.617811 13.085135 10.848830
v 5.639777 13.147271 10.363617
v 6.066816 11.848098 8.443702
v 5.674886 11.811648 12.297318
v 6.000260 12.884602 8.517741
v 5.611508 12.870114 12.200405
v 5.526789 12.674616 12.173650
v 5.900166 12.687992 8.530396
v 5.961576 12.140164 8.514926
v 5.618763 12.178244 12.204798
v 5.982915 12.204765 8.520357
v 5.610291 12.296909 12.192074
v 5.728100 11.816683 11.784810
v 5.682680 12.888644 11.789987
v 5.571583 12.623131 11.750248
v 5.688534 12.148539 11.781831
v 5.702765 12.235724 11.773127
v 5.698601 11.814202 12.057902
v 5.653048 12.894215 12.049749
v 5.550426 12.620896 12.041729
v 5.645050 12.151533 12.053113
v 5.656078 12.280971 12.027731
v 5.938838 12.901051 8.964057
v 5.837380 12.633723 8.990347
v 5.959815 12.121771 8.983612
v 5.965978 12.223042 8.980963
v 5.986993 11.843077 8.986224
v 5.563635 12.291457 12.192362
v 5.562109 12.177618 12.198083
v 5.912679 12.121914 8.978514
v 5.947556 12.139710 8.517145
v 5.914252 12.205610 8.510429
v 5.916882 12.223170 8.977492
v 5.596983 12.151525 12.048113
v 5.632283 12.148738 11.775568
v 5.602521 12.280871 12.022615
v 5.632163 12.241121 11.765435
v 5.872537 12.713252 8.504357
v 5.910365 12.884021 8.511147
v 5.870616 12.909617 8.961334
v 5.517878 12.869962 12.190654
v 5.521017 12.698456 12.191997
v 5.839994 12.693606 8.981019
v 5.554492 12.894186 12.039723
v 5.591897 12.898613 11.780953
v 5.568855 12.674703 12.043589
v 5.604722 12.681549 11.760204
v 6.004571 12.909404 8.532091
v 5.892637 12.634314 8.527409
v 5.997064 12.116938 8.538354
v 6.002217 12.229578 8.534026
v 6.035520 11.847955 8.539614
v 5.960903 12.117769 8.532429
v 5.966120 12.229286 8.531489
v 5.882856 12.909273 8.520651
v 5.881864 12.689311 8.522593
v 5.533266 12.620099 12.207314
v 5.881353 11.828525 10.393262
v 5.833335 12.134382 10.385974
v 5.825965 12.231041 10.378884
v 5.784415 12.135471 10.377281
v 5.777235 12.230876 10.374718
v 5.838368 11.822273 11.091105
v 5.757279 13.105036 11.101374
v 5.668299 12.839971 11.037241
v 5.761673 12.141726 11.083071
v 5.784307 12.234656 11.080973
v 5.709502 12.142148 11.076557
v 5.726582 12.234820 11.075562
v 5.662444 13.103911 11.095661
v 5.702949 12.891150 11.054309
v 5.913663 13.108450 9.663549
v 5.799618 12.844031 9.712574
v 5.902276 12.127411 9.687818
v 5.888449 12.226323 9.680233
v 5.846684 12.126819 9.683442
v 5.832261 12.227160 9.672841
v 5.822763 13.108071 9.656192
v 5.793859 12.898206 9.695848
v 5.935308 11.835177 9.688858
v 5.780494 13.175148 10.879766
v 5.879176 13.178491 9.881155
v 5.880716 12.579535 10.389495
v 5.826003 13.240706 10.378417
v 5.763490 12.907782 9.913275
v 5.701355 12.902111 10.836039
v 5.739744 12.962248 10.375736
v 5.788381 13.172672 9.875659
v 5.687704 13.168753 10.872303
v 5.759666 13.230501 10.378011
v 5.773299 12.957823 9.908417
v 5.693799 12.952877 10.840694
v 5.756504 13.011254 10.380070
vn 0.9870 -0.0087 0.1605
vn -0.0260 0.9569 0.2893
vn 0.0151 0.9869 -0.1605
vn 0.9938 -0.0238 0.1083
vn 0.9957 0.0221 0.0900
vn -0.0027 -0.9999 0.0111
vn -0.0029 1.0000 0.0026
vn 0.9908 0.0692 0.1167
vn 0.9752 0.0083 0.2211
vn -0.0064 -1.0000 0.0048
vn -0.0873 -0.0032 0.9962
vn 0.9918 0.0444 0.1201
vn 0.9945 -0.0198 0.1030
vn 0.1016 -0.0185 -0.9947
vn -0.0001 -0.9999 0.0106
vn 0.9943 -0.0238 0.1039
vn 0.9788 0.0810 0.1882
vn 0.9917 0.0672 0.1095
vn 0.9870 0.0196 0.1595
vn 0.9907 0.0188 0.1345
vn 0.1052 -0.0126 -0.9944
vn 0.0162 0.9999 -0.0056
vn 0.0104 0.9869 -0.1612
vn -0.0011 0.9999 0.0138
vn -0.0168 -0.9999 0.0034
vn -0.1251 -0.0037 0.9921
vn 0.9830 0.1585 0.0924
vn 0.9915 -0.1233 0.0413
vn 0.9660 -0.1444 0.2145
vn 0.7827 0.6206 0.0461
vn 0.0012 1.0000 0.0042
vn 0.0029 -1.0000 -0.0021
vn -0.0063 -1.0000 -0.0033
vn -0.0163 -0.9584 0.2849
vn -0.0063 1.0000 0.0055
vn -0.0006 -1.0000 -0.0034
vn -0.0037 0.9999 0.0122
vn 0.0002 -1.0000 -0.0077
vn 0.8898 0.4509 0.0703
vn 0.0038 -0.9999 0.0115
vn -0.0221 0.9997 0.0129
vn 0.9844 0.1634 -0.0655
vn 0.9515 -0.0312 0.3060
vn 0.9973 -0.0327 -0.0656
vn -0.0009 -0.9598 0.2807
vn 0.0188 0.9998 -0.0035
vn 0.9916 -0.0849 0.0977
vn -0.0153 -0.9998 0.0118
vn 0.0236 -0.9565 -0.2908
vn 0.9977 -0.0369 0.0565
vn 0.9997 -0.0003 0.0228
vn 0.0062 -0.9999 0.0102
vn 0.0265 -0.9569 -0.2891
vn 0.9264 -0.3420 0.1574
vn 0.0344 0.9994 -0.0039
vn 0.9984 -0.0026 0.0568
vn 0.0855 0.9561 -0.2804
vn 0.9938 -0.0640 0.0909
vn 0.9882 0.0500 0.1445
vn 0.0452 0.9595 -0.2781
vn 0.9958 0.0400 0.0827
vn 0.9959 -0.0026 0.0900
vn 0.9985 -0.0328 0.0439
vn 0.0126 0.9999 -0.0041
vn 0.9556 0.2947 -0.0019
vn 0.9692 -0.1956 0.1499
vn -0.0350 -0.9994 0.0083
vn 0.9866 0.0957 0.1320
vn 0.9888 0.0954 0.1147
vn -0.0122 -0.9930 0.1177
vn -0.0038 -0.9919 -0.1273
vn 0.9897 -0.1339 0.0497
vn 0.9778 -0.1888 0.0912
vn -0.0153 0.9919 0.1260
vn 0.0338 0.9923 -0.1194
vn -0.0244 0.9568 0.2899
vn -0.9758 -0.0007 -0.2189
vn -0.0220 -0.9551 -0.2955
vn -0.0581 -0.9862 0.1551
vn -0.9774 -0.1333 -0.1638
vn -0.9858 -0.0977 -0.1368
vn 0.0130 0.9854 -0.1698
vn -0.0520 -0.9986 -0.0045
vn -0.9943 -0.0043 -0.1065
vn -0.9873 -0.0821 -0.1359
vn -0.0037 1.0000 -0.0078
vn -0.2450 0.1074 0.9636
vn -0.9906 0.0019 -0.1364
vn -0.9931 -0.0104 -0.1166
vn -0.0661 0.0835 -0.9943
vn 0.0029 0.9999 -0.0102
vn -0.9928 -0.0722 -0.0951
vn 0.9744 0.0005 0.2247
vn 0.9889 -0.0832 0.1230
vn 0.9925 -0.0046 0.1220
vn 0.9932 -0.0430 0.1084
vn 0.0664 -0.0769 -0.9948
vn -0.0433 -0.9991 -0.0002
vn 0.0507 -0.9945 0.0918
vn 0.0029 -0.9999 -0.0139
vn -0.0534 0.6159 0.7860
vn -0.0928 0.0013 0.9957
vn 0.9614 0.0467 0.2713
vn 0.9837 0.1005 0.1493
vn 0.9893 0.0564 0.1349
vn 0.9958 -0.0692 0.0603
vn 0.0168 -0.9879 -0.1540
vn 0.9022 -0.4233 0.0828
vn -0.3761 0.1702 0.9108
vn 0.9981 0.0383 0.0472
vn -0.0434 -0.9990 -0.0130
vn 0.9757 -0.0432 0.2148
vn -0.0740 -0.4568 0.8865
vn 0.9911 0.0832 0.1041
vn 0.8311 -0.0894 0.5490
vn 0.0129 0.9999 -0.0088
vn -0.1067 -0.4707 0.8758
vn 0.4856 0.0392 -0.8733
vn -0.9860 -0.1494 -0.0743
vn -0.6887 0.0223 0.7247
vn 0.9903 -0.0097 0.1387
vn -0.0070 -1.0000 0.0054
vn 0.9900 0.1148 0.0822
vn 0.0162 0.9998 -0.0083
vn 0.9673 -0.2529 -0.0198
vn -0.9881 -0.1297 -0.0822
vn -0.9976 0.0194 -0.0661
vn 0.0068 0.9999 -0.0089
vn 0.8541 -0.5188 -0.0386
vn 0.9861 -0.0770 0.1475
vn -0.0005 -1.0000 0.0054
vn 0.9947 -0.0507 0.0896
vn 0.0116 -0.9551 0.2961
vn -0.9891 -0.1346 -0.0601
vn -0.9892 0.0185 -0.1456
vn -0.0668 -0.9589 0.2756
vn -0.9918 -0.0890 -0.0917
vn -0.9983 -0.0069 -0.0578
vn 0.9927 0.0565 0.1064
vn -0.0096 -0.9999 0.0041
vn 0.9871 -0.1239 0.1012
vn 0.9932 0.0970 0.0647
vn 0.0061 0.9999 -0.0107
vn -0.9914 -0.0837 -0.1009
vn -0.9919 -0.0837 -0.0956
vn 0.9635 -0.2581 0.0716
vn 0.9904 -0.1000 0.0958
vn 0.9902 -0.0028 0.1393
vn 0.9980 -0.0379 0.0510
vn 0.1086 -0.9876 -0.1135
vn 0.0959 -0.9873 0.1264
vn 0.0583 -0.9571 -0.2839
vn 0.0038 0.9999 0.0107
vn -0.2414 -0.1326 -0.9613
vn 0.7570 -0.5046 0.4152
vn -0.9957 -0.0071 -0.0924
vn -0.9918 0.0494 -0.1179
vn -0.0024 0.9999 0.0108
vn -0.0050 1.0000 0.0079
vn -0.8784 -0.3102 -0.3637
vn -0.9916 0.0104 -0.1289
vn -0.9877 -0.1256 -0.0926
vn -0.7434 0.0332 0.6680
vn -0.0074 0.9999 0.0077
vn -0.3899 -0.1707 0.9049
vn -0.9957 0.0277 -0.0879
vn 0.6536 0.1699 0.7375
vn -0.7143 0.2230 -0.6633
vn -0.0040 1.0000 0.0087
vn -0.9875 -0.0522 -0.1486
vn -0.9990 -0.0050 -0.0435
vn 0.0036 1.0000 0.0081
vn -0.9955 0.0108 -0.0939
vn 0.6546 -0.5954 -0.4659
vn -0.0035 0.9999 0.0111
vn -0.9982 -0.0485 -0.0362
vn 0.0027 0.9999 0.0103
vn -0.7324 -0.3876 0.5598
vn -0.6335 -0.0001 -0.7738
vt 0.168769 0.206642
vt 0.928021 0.162980
vt 0.176240 0.559690
vt 0.000000 0.000000
vt 0.000000 0.000000
vt 0.935593 0.521516
vt 0.000000 0.000000
vt 0.935820 0.532242
vt 0.176463 0.570251
vt 0.000000 0.000000
vt 0.170967 0.310527
vt 0.000000 0.000000
vt 0.000000 0.000000
vt 0.930626 0.286323
vt 0.170158 0.272286
vt 0.000000 0.000000
vt 0.930122 0.262467
vt 0.000000 0.000000
vt 0.827154 0.168781
vt 0.834712 0.526588
vt 0.834939 0.537291
vt 0.829705 0.289538
vt 0.828766 0.245086
vt 0.881062 0.165681
vt 0.888628 0.523878
vt 0.888854 0.534593
vt 0.883642 0.287820
vt 0.880960 0.254036
vt 0.284039 0.554271
vt 0.284263 0.564855
vt 0.278810 0.307091
vt 0.277931 0.265536
vt 0.276554 0.200443
vt 0.000000 0.000000
vt 0.930122 0.262467
vt 0.930626 0.286323
vt 0.000000 0.000000
vt 0.278810 0.307091
vt 0.000000 0.000000
vt 0.170967 0.310527
vt 0.000000 0.000000
vt 0.170158 0.272286
vt 0.277931 0.265536
vt 0.883642 0.287820
vt 0.829705 0.289538
vt 0.880960 0.254036
vt 0.828766 0.245086
vt 0.000000 0.000000
vt 0.176463 0.570251
vt 0.000000 0.000000
vt 0.176240 0.559690
vt 0.284039 0.554271
vt 0.000000 0.000000
vt 0.935593 0.521516
vt 0.000000 0.000000
vt 0.935820 0.532242
vt 0.284263 0.564855
vt 0.888628 0.523878
vt 0.834712 0.526588
vt 0.888854 0.534593
vt 0.834939 0.537291
vt 0.196220 0.558685
vt 0.196444 0.569251
vt 0.190955 0.309890
vt 0.190133 0.271035
vt 0.188746 0.205493
vt 0.190955 0.309890
vt 0.190133 0.271035
vt 0.196220 0.558685
vt 0.196444 0.569251
vt 0.921393 0.532964
vt 0.551854 0.184612
vt 0.554258 0.298315
vt 0.553348 0.255311
vt 0.554257 0.298315
vt 0.553348 0.255311
vt 0.689504 0.176696
vt 0.697044 0.533508
vt 0.697270 0.544182
vt 0.691981 0.293927
vt 0.691057 0.250199
vt 0.691981 0.293927
vt 0.691057 0.250199
vt 0.697044 0.533508
vt 0.697270 0.544182
vt 0.421708 0.547350
vt 0.421932 0.557964
vt 0.416534 0.302703
vt 0.415640 0.260424
vt 0.416534 0.302703
vt 0.415640 0.260424
vt 0.421708 0.547350
vt 0.421932 0.557964
vt 0.414204 0.192528
vt 0.654306 0.535657
vt 0.474905 0.544676
vt 0.464535 0.545197
vt 0.556000 0.380752
vt 0.562439 0.540275
vt 0.559376 0.540429
vt 0.464760 0.555821
vt 0.654532 0.546322
vt 0.559601 0.551073
vt 0.464500 0.545199
vt 0.654339 0.535655
vt 0.559376 0.540429
vt 0.464724 0.555822
vt 0.654564 0.546320
vt 0.559489 0.545751
vt 0.168769 0.206642
vt 0.928021 0.162980
vt 0.176240 0.559690
vt 0.000000 0.000000
vt 0.000000 0.000000
vt 0.935593 0.521516
vt 0.000000 0.000000
vt 0.935820 0.532242
vt 0.176463 0.570251
vt 0.000000 0.000000
vt 0.170967 0.310527
vt 0.000000 0.000000
vt 0.000000 0.000000
vt 0.930626 0.286323
vt 0.170158 0.272286
vt 0.000000 0.000000
vt 0.930122 0.262467
vt 0.000000 0.000000
vt 0.827154 0.168781
vt 0.834712 0.526588
vt 0.834939 0.537291
vt 0.829705 0.289538
vt 0.828766 0.245086
vt 0.881062 0.165681
vt 0.888628 0.523878
vt 0.888854 0.534593
vt 0.883642 0.287820
vt 0.880960 0.254036
vt 0.284039 0.554271
vt 0.284263 0.564855
vt 0.278810 0.307091
vt 0.277931 0.265536
vt 0.276554 0.200443
vt 0.000000 0.000000
vt 0.930122 0.262467
vt 0.930626 0.286323
vt 0.000000 0.000000
vt 0.278810 0.307091
vt 0.000000 0.000000
vt 0.170967 0.310527
vt 0.000000 0.000000
vt 0.170158 0.272286
vt 0.277931 0.265536
vt 0.883642 0.287820
vt 0.829705 0.289538
vt 0.880960 0.254036
vt 0.828766 0.245086
vt 0.000000 0.000000
vt 0.176463 0.570251
vt 0.000000 0.000000
vt 0.176240 0.559690
vt 0.284039 0.554271
vt 0.000000 0.000000
vt 0.935593 0.521516
vt 0.000000 0.000000
vt 0.935820 0.532242
vt 0.284263 0.564855
vt 0.888628 0.523878
vt 0.834712 0.526588
vt 0.888854 0.534593
vt 0.834939 0.537291
vt 0.196220 0.558685
vt 0.196444 0.569251
vt 0.190955 0.309890
vt 0.190133 0.271035
vt 0.188746 0.205493
vt 0.190955 0.309890
vt 0.190133 0.271035
vt 0.196220 0.558685
vt 0.196444 0.569251
vt 0.921393 0.532964
vt 0.551854 0.184612
vt 0.554258 0.298315
vt 0.553348 0.255311
vt 0.554257 0.298315
vt 0.553348 0.255311
vt 0.689504 0.176696
vt 0.697044 0.533508
vt 0.697270 0.544182
vt 0.691981 0.293927
vt 0.691057 0.250199
vt 0.691981 0.293927
vt 0.691057 0.250199
vt 0.697044 0.533508
vt 0.697270 0.544182
vt 0.421708 0.547350
vt 0.421932 0.557964
vt 0.416534 0.302703
vt 0.415640 0.260424
vt 0.416534 0.302703
vt 0.415640 0.260424
vt 0.421708 0.547350
vt 0.421932 0.557964
vt 0.414204 0.192528
vt 0.654306 0.535657
vt 0.474905 0.544676
vt 0.464535 0.545197
vt 0.556000 0.380752
vt 0.562439 0.540275
vt 0.559376 0.540429
vt 0.464760 0.555821
vt 0.654532 0.546322
vt 0.559601 0.551073
vt 0.464500 0.545199
vt 0.654339 0.535655
vt 0.559376 0.540429
vt 0.464724 0.555822
vt 0.654564 0.546320
vt 0.559489 0.545751
s 0
usemtl boatback
f 19/27/1 17/25/1 4/6/1 8/14/1
f 62/78/2 68/84/2 43/59/2 12/20/2
f 15/23/3 35/47/3 34/46/3 20/28/3
f 16/24/4 20/28/4 10/17/4 2/2/4
f 61/77/5 65/81/5 15/23/5 11/19/5
f 8/14/6 27/36/6 32/44/6 19/27/6
f 12/20/7 43/59/7 42/58/7 17/25/7
f 64/80/8 62/78/8 12/20/8 14/22/8
f 11/19/9 15/23/9 20/28/9 16/24/9
f 72/88/10 74/90/10 28/38/10 23/31/10
f 6/10/11 36/48/11 37/50/11 3/4/11
f 14/22/12 12/20/12 17/25/12 19/27/12
f 48/64/13 46/62/13 21/29/13 23/31/13
f 4/5/14 39/53/14 40/55/14 5/7/14
f 19/27/15 32/44/15 33/45/15 14/22/15
f 50/66/16 49/65/16 24/32/16 25/33/16
f 34/46/17 32/44/17 27/36/17 26/35/17
f 67/83/18 66/82/18 33/45/18 35/47/18
f 35/47/19 33/45/19 32/44/19 34/46/19
f 52/68/20 51/67/20 28/38/20 31/43/20
f 10/18/21 26/34/21 27/37/21 8/13/21
f 65/81/22 67/83/22 35/47/22 15/23/22
f 20/28/23 34/46/23 26/35/23 10/17/23
f 49/65/24 52/68/24 31/43/24 24/32/24
f 48/64/25 51/67/25 29/40/25 7/11/25
f 7/12/26 29/39/26 30/41/26 9/16/26
f 42/58/27 44/60/27 40/56/27 39/54/27
f 68/84/28 69/85/28 45/61/28 43/59/28
f 43/59/29 45/61/29 44/60/29 42/58/29
f 53/69/30 54/70/30 41/57/30 38/52/30
f 17/25/31 42/58/31 39/54/31 4/6/31
f 18/26/32 44/60/32 45/61/32 13/21/32
f 47/63/33 54/70/33 36/49/33 6/9/33
f 71/87/34 77/93/34 41/57/34 22/30/34
f 46/62/35 53/69/35 38/52/35 21/29/35
f 5/8/36 40/56/36 44/60/36 18/26/36 55/71/36
f 3/3/37 37/51/37 53/69/37 46/62/37
f 22/30/38 41/57/38 54/70/38 47/63/38
f 37/51/39 36/49/39 54/70/39 53/69/39
f 23/31/40 28/38/40 51/67/40 48/64/40
f 9/15/41 30/42/41 52/68/41 49/65/41
f 30/42/42 29/40/42 51/67/42 52/68/42
f 1/1/43 9/15/43 49/65/43 50/66/43
f 7/11/44 3/3/44 46/62/44 48/64/44
f 83/101/45 89/107/45 77/93/45 71/87/45
f 73/89/46 75/91/46 60/76/46 58/74/46
f 75/91/47 74/90/47 59/75/47 60/76/47
f 64/80/48 66/82/48 59/75/48 57/73/48
f 63/79/49 69/85/49 90/108/49 84/102/49
f 78/94/50 73/89/50 58/74/50 56/72/50
f 72/88/51 70/86/51 80/97/51 81/98/51 57/73/51
f 14/22/52 33/45/52 66/82/52 64/80/52
f 13/21/53 45/61/53 69/85/53 63/79/53
f 76/92/54 77/93/54 89/107/54 86/104/54
f 58/74/55 60/76/55 67/83/55 65/81/55
f 60/76/56 59/75/56 66/82/56 67/83/56
f 70/86/57 76/92/57 86/104/57 80/97/57
f 56/72/58 58/74/58 65/81/58 61/77/58
f 57/73/59 81/98/59 79/95/59 62/78/59 64/80/59
f 21/29/60 38/52/60 76/92/60 70/86/60
f 25/33/61 24/32/61 73/89/61 78/94/61
f 23/31/62 21/29/62 70/86/62 72/88/62
f 31/43/63 28/38/63 74/90/63 75/91/63
f 24/32/64 31/43/64 75/91/64 73/89/64
f 38/52/65 41/57/65 77/93/65 76/92/65
f 87/105/66 90/108/66 69/85/66 68/84/66
f 57/73/67 59/75/67 74/90/67 72/88/67
f 79/95/68 81/98/68 82/99/68
f 82/99/69 81/98/69 80/96/69
f 83/101/70 85/103/70 91/109/70 89/107/70
f 85/103/71 84/102/71 90/108/71 91/109/71
f 87/105/72 88/106/72 91/109/72 90/108/72
f 88/106/73 86/104/73 89/107/73 91/109/73
f 79/95/74 82/100/74 88/106/74 87/105/74
f 82/100/75 80/97/75 86/104/75 88/106/75
f 79/95/76 87/105/76 68/84/76 62/78/76
f 110/136/77 99/123/77 95/115/77 108/134/77
f 153/187/78 103/129/78 134/168/78 159/193/78
f 106/132/79 111/137/79 125/155/79 126/156/79
f 107/133/80 93/111/80 101/126/80 111/137/80
f 152/186/81 102/128/81 106/132/81 156/190/81
f 99/123/82 110/136/82 123/153/82 118/145/82
f 103/129/83 108/134/83 133/167/83 134/168/83
f 155/189/84 105/131/84 103/129/84 153/187/84
f 102/128/85 107/133/85 111/137/85 106/132/85
f 163/197/86 114/140/86 119/147/86 165/199/86
f 97/119/87 94/113/87 128/159/87 127/157/87
f 105/131/88 110/136/88 108/134/88 103/129/88
f 139/173/89 114/140/89 112/138/89 137/171/89
f 95/114/90 96/116/90 131/164/90 130/162/90
f 110/136/91 105/131/91 124/154/91 123/153/91
f 141/175/92 116/142/92 115/141/92 140/174/92
f 125/155/93 117/144/93 118/145/93 123/153/93
f 158/192/94 126/156/94 124/154/94 157/191/94
f 126/156/95 125/155/95 123/153/95 124/154/95
f 143/177/96 122/152/96 119/147/96 142/176/96
f 101/127/97 99/122/97 118/146/97 117/143/97
f 156/190/98 106/132/98 126/156/98 158/192/98
f 111/137/99 101/126/99 117/144/99 125/155/99
f 140/174/100 115/141/100 122/152/100 143/177/100
f 139/173/101 98/120/101 120/149/101 142/176/101
f 98/121/102 100/125/102 121/150/102 120/148/102
f 133/167/103 130/163/103 131/165/103 135/169/103
f 159/193/104 134/168/104 136/170/104 160/194/104
f 134/168/105 133/167/105 135/169/105 136/170/105
f 144/178/106 129/161/106 132/166/106 145/179/106
f 108/134/107 95/115/107 130/163/107 133/167/107
f 109/135/108 104/130/108 136/170/108 135/169/108
f 138/172/109 97/118/109 127/158/109 145/179/109
f 162/196/110 113/139/110 132/166/110 168/202/110
f 137/171/111 112/138/111 129/161/111 144/178/111
f 96/117/112 146/180/112 109/135/112 135/169/112 131/165/112
f 94/112/113 137/171/113 144/178/113 128/160/113
f 113/139/114 138/172/114 145/179/114 132/166/114
f 128/160/115 144/178/115 145/179/115 127/158/115
f 114/140/116 139/173/116 142/176/116 119/147/116
f 100/124/117 140/174/117 143/177/117 121/151/117
f 121/151/118 143/177/118 142/176/118 120/149/118
f 92/110/119 141/175/119 140/174/119 100/124/119
f 98/120/120 139/173/120 137/171/120 94/112/120
f 174/210/121 162/196/121 168/202/121 180/216/121
f 164/198/122 149/183/122 151/185/122 166/200/122
f 166/200/123 151/185/123 150/184/123 165/199/123
f 155/189/124 148/182/124 150/184/124 157/191/124
f 154/188/125 175/211/125 181/217/125 160/194/125
f 169/203/126 147/181/126 149/183/126 164/198/126
f 163/197/127 148/182/127 172/207/127 171/206/127 161/195/127
f 105/131/128 155/189/128 157/191/128 124/154/128
f 104/130/129 154/188/129 160/194/129 136/170/129
f 167/201/130 177/213/130 180/216/130 168/202/130
f 149/183/131 156/190/131 158/192/131 151/185/131
f 151/185/132 158/192/132 157/191/132 150/184/132
f 161/195/133 171/206/133 177/213/133 167/201/133
f 147/181/134 152/186/134 156/190/134 149/183/134
f 148/182/135 155/189/135 153/187/135 170/204/135 172/207/135
f 112/138/136 161/195/136 167/201/136 129/161/136
f 116/142/137 169/203/137 164/198/137 115/141/137
f 114/140/138 163/197/138 161/195/138 112/138/138
f 122/152/139 166/200/139 165/199/139 119/147/139
f 115/141/140 164/198/140 166/200/140 122/152/140
f 129/161/141 167/201/141 168/202/141 132/166/141
f 178/214/142 159/193/142 160/194/142 181/217/142
f 148/182/143 163/197/143 165/199/143 150/184/143
f 170/204/144 173/208/144 172/207/144
f 173/208/145 171/205/145 172/207/145
f 174/210/146 180/216/146 182/218/146 176/212/146
f 176/212/147 182/218/147 181/217/147 175/211/147
f 178/214/148 181/217/148 182/218/148 179/215/148
f 179/215/149 182/218/149 180/216/149 177/213/149
f 170/204/150 178/214/150 179/215/150 173/209/150
f 173/209/151 179/215/151 177/213/151 171/206/151
f 170/204/152 153/187/152 159/193/152 178/214/152
f 56/72/153 61/77/153 152/186/153 147/181/153
f 2/2/154 10/17/154 101/126/154 93/111/154
f 4/5/155 5/7/155 96/116/155 95/114/155
f 84/102/156 85/103/156 176/212/156 175/211/156
f 13/21/157 63/79/157 154/188/157 104/130/157
f 50/66/158 25/33/158 116/142/158 141/175/158
f 61/77/159 11/19/159 102/128/159 152/186/159
f 47/63/160 6/9/160 97/118/160 138/172/160
f 63/79/161 84/102/161 175/211/161 154/188/161
f 22/30/162 47/63/162 138/172/162 113/139/162
f 3/3/163 7/11/163 98/120/163 94/112/163
f 11/19/164 16/24/164 107/133/164 102/128/164
f 9/15/165 1/1/165 92/110/165 100/124/165
f 18/26/166 13/21/166 104/130/166 109/135/166
f 10/18/167 8/13/167 99/122/167 101/127/167
f 5/8/168 55/71/168 146/180/168 96/117/168
f 16/24/169 2/2/169 93/111/169 107/133/169
f 83/101/170 71/87/170 162/196/170 174/210/170
f 85/103/171 83/101/171 174/210/171 176/212/171
f 78/94/172 56/72/172 147/181/172 169/203/172
f 55/71/173 18/26/173 109/135/173 146/180/173
f 6/10/174 3/4/174 94/113/174 97/119/174
f 25/33/175 78/94/175 169/203/175 116/142/175
f 71/87/176 22/30/176 113/139/176 162/196/176
f 1/1/177 50/66/177 141/175/177 92/110/177
f 7/12/178 9/16/178 100/125/178 98/121/178
f 8/14/179 4/6/179 95/115/179 99/123/179
