# Blender 3.4.0
# www.blender.org
mtllib boatback_011.mtl
o boatback.011
v -1.033279 6.298007 12.163795
v -1.163858 6.292613 12.150125
v -1.077564 7.808803 12.162920
v -1.782183 7.783022 12.089160
v -1.208161 7.804025 12.149249
v -1.190962 7.217278 12.149589
v -1.199169 7.497237 12.149426
v -1.779932 7.706245 12.089205
v -1.647745 7.787941 12.103233
v -1.868603 7.779860 12.080113
v -1.082491 7.976899 12.162823
v -1.212985 7.968591 12.149154
v -1.930189 7.918343 12.074017
v -1.994366 7.906094 12.067274
v -2.027656 7.917433 12.063821
v -1.890813 7.943705 12.078198
v -1.784904 7.875835 12.089107
v -1.027957 6.298133 12.112914
v -1.072242 7.808930 12.112039
v -1.158537 6.292739 12.099243
v -1.077169 7.977026 12.111941
v -1.774611 7.706371 12.038323
v -1.776861 7.783149 12.038279
v -1.202840 7.804151 12.098368
v -1.193847 7.497364 12.098545
v -1.863281 7.779987 12.029232
v -1.185641 7.217404 12.098707
v -1.642423 7.788068 12.052352
v -1.207663 7.968718 12.098272
v -1.885492 7.943831 12.027317
v -1.924868 7.918469 12.023135
v -1.989045 7.906220 12.016393
v -2.022334 7.917560 12.012939
v -1.779582 7.875961 12.038225
vn 0.1040 0.0025 -0.9946
vn -0.1040 -0.0025 0.9946
vn 0.5366 -0.8421 0.0540
vn 0.9941 0.0292 0.1040
vn -0.9941 -0.0292 -0.1040
vn 0.1857 -0.9825 0.0170
vn -0.0411 0.9992 -0.0018
vn -0.3189 -0.9471 -0.0357
vn 0.0631 -0.9980 0.0041
vn 0.6331 0.7710 0.0681
vn -0.5387 -0.8405 -0.0584
vn -0.5344 -0.8432 -0.0580
vn 0.6485 0.7580 0.0697
vt 0.176463 0.570251
vt 0.196444 0.569251
vt 0.182481 0.854637
vt 0.290293 0.849869
vt 0.202464 0.853753
vt 0.200127 0.743306
vt 0.201242 0.796005
vt 0.289987 0.835416
vt 0.269723 0.850779
vt 0.303516 0.849284
vt 0.183151 0.886279
vt 0.203119 0.884731
vt 0.312869 0.875358
vt 0.322692 0.873061
vt 0.327782 0.875199
vt 0.306832 0.880128
vt 0.290663 0.867340
vt 0.176463 0.570251
vt 0.182481 0.854637
vt 0.196444 0.569251
vt 0.183151 0.886279
vt 0.289987 0.835416
vt 0.290293 0.849869
vt 0.202464 0.853753
vt 0.201242 0.796005
vt 0.303516 0.849284
vt 0.200127 0.743306
vt 0.269723 0.850779
vt 0.203119 0.884731
vt 0.306832 0.880128
vt 0.312869 0.875358
vt 0.322692 0.873061
vt 0.327782 0.875199
vt 0.290663 0.867340
s 0
usemtl boatback
f 4/4/1 10/10/1 15/15/1 14/14/1 13/13/1 16/16/1 17/17/1
f 3/3/1 5/5/1 12/12/1 11/11/1
f 1/1/1 2/2/1 6/6/1 7/7/1 5/5/1 3/3/1
f 6/6/1 8/8/1 4/4/1 9/9/1 7/7/1
f 8/8/1 10/10/1 4/4/1
f 17/17/1 9/9/1 4/4/1
f 23/23/2 34/34/2 30/30/2 31/31/2 32/32/2 33/33/2 26/26/2
f 19/19/2 21/21/2 29/29/2 24/24/2
f 18/18/2 19/19/2 24/24/2 25/25/2 27/27/2 20/20/2
f 27/27/2 25/25/2 28/28/2 23/23/2 22/22/2
f 22/22/2 23/23/2 26/26/2
f 34/34/2 23/23/2 28/28/2
f 13/13/3 31/31/3 30/30/3 16/16/3
f 2/2/4 20/20/4 27/27/4 6/6/4
f 3/3/5 19/19/5 18/18/5 1/1/5
f 14/14/6 32/32/6 31/31/6 13/13/6
f 1/1/7 18/18/7 20/20/7 2/2/7
f 15/15/8 33/33/8 32/32/8 14/14/8
f 11/11/5 21/21/5 19/19/5 3/3/5
f 12/12/9 29/29/9 21/21/9 11/11/9
f 6/6/10 27/27/10 22/22/10 8/8/10
f 9/9/11 28/28/11 25/25/11 7/7/11
f 7/7/4 25/25/4 24/24/4 5/5/4
f 16/16/12 30/30/12 34/34/12 17/17/12
f 8/8/10 22/22/10 26/26/10 10/10/10
f 17/17/12 34/34/12 28/28/12 9/9/12
f 5/5/4 24/24/4 29/29/4 12/12/4
f 10/10/13 26/26/13 33/33/13 15/15/13
