# Blender 3.4.0
# www.blender.org
mtllib boatback_012.mtl
o boatback.012
v -0.520826 6.310190 7.264131
v -0.651405 6.304796 7.250461
v -0.565110 7.820986 7.263256
v -1.269730 7.795206 7.189496
v -0.695708 7.816208 7.249585
v -0.678509 7.229461 7.249925
v -0.686715 7.509420 7.249763
v -1.267479 7.718428 7.189540
v -1.135291 7.800125 7.203569
v -1.356149 7.792044 7.180449
v -0.570038 7.989082 7.263158
v -0.700532 7.980774 7.249489
v -1.417736 7.930526 7.174352
v -1.481913 7.918277 7.167610
v -1.515202 7.929616 7.164156
v -1.378360 7.955888 7.178534
v -1.272450 7.888018 7.189442
v -0.515504 6.310316 7.213250
v -0.559789 7.821113 7.212374
v -0.646083 6.304923 7.199579
v -0.564716 7.989209 7.212277
v -1.262157 7.718554 7.138659
v -1.264408 7.795332 7.138614
v -0.690386 7.816334 7.198703
v -0.681394 7.509547 7.198881
v -1.350828 7.792171 7.129568
v -0.673187 7.229587 7.199043
v -1.129969 7.800251 7.152688
v -0.695210 7.980901 7.198608
v -1.373038 7.956014 7.127652
v -1.412414 7.930652 7.123471
v -1.476591 7.918403 7.116728
v -1.509881 7.929743 7.113275
v -1.267128 7.888144 7.138561
vn 0.1040 0.0025 -0.9946
vn -0.1040 -0.0025 0.9946
vn 0.5366 -0.8421 0.0540
vn 0.9941 0.0292 0.1040
vn -0.9941 -0.0292 -0.1040
vn 0.1857 -0.9825 0.0170
vn -0.0411 0.9992 -0.0018
vn -0.3189 -0.9471 -0.0357
vn 0.0631 -0.9980 0.0041
vn 0.6331 0.7710 0.0681
vn -0.5387 -0.8405 -0.0584
vn -0.5344 -0.8432 -0.0580
vn 0.6485 0.7580 0.0697
vt 0.176463 0.570251
vt 0.196444 0.569251
vt 0.182481 0.854637
vt 0.290293 0.849869
vt 0.202464 0.853753
vt 0.200127 0.743306
vt 0.201242 0.796005
vt 0.289987 0.835416
vt 0.269723 0.850779
vt 0.303516 0.849284
vt 0.183151 0.886279
vt 0.203119 0.884731
vt 0.312869 0.875358
vt 0.322692 0.873061
vt 0.327782 0.875199
vt 0.306832 0.880128
vt 0.290663 0.867340
vt 0.176463 0.570251
vt 0.182481 0.854637
vt 0.196444 0.569251
vt 0.183151 0.886279
vt 0.289987 0.835416
vt 0.290293 0.849869
vt 0.202464 0.853753
vt 0.201242 0.796005
vt 0.303516 0.849284
vt 0.200127 0.743306
vt 0.269723 0.850779
vt 0.203119 0.884731
vt 0.306832 0.880128
vt 0.312869 0.875358
vt 0.322692 0.873061
vt 0.327782 0.875199
vt 0.290663 0.867340
s 0
usemtl boatback
f 4/4/1 10/10/1 15/15/1 14/14/1 13/13/1 16/16/1 17/17/1
f 3/3/1 5/5/1 12/12/1 11/11/1
f 1/1/1 2/2/1 6/6/1 7/7/1 5/5/1 3/3/1
f 6/6/1 8/8/1 4/4/1 9/9/1 7/7/1
f 8/8/1 10/10/1 4/4/1
f 17/17/1 9/9/1 4/4/1
f 23/23/2 34/34/2 30/30/2 31/31/2 32/32/2 33/33/2 26/26/2
f 19/19/2 21/21/2 29/29/2 24/24/2
f 18/18/2 19/19/2 24/24/2 25/25/2 27/27/2 20/20/2
f 27/27/2 25/25/2 28/28/2 23/23/2 22/22/2
f 22/22/2 23/23/2 26/26/2
f 34/34/2 23/23/2 28/28/2
f 13/13/3 31/31/3 30/30/3 16/16/3
f 2/2/4 20/20/4 27/27/4 6/6/4
f 3/3/5 19/19/5 18/18/5 1/1/5
f 14/14/6 32/32/6 31/31/6 13/13/6
f 1/1/7 18/18/7 20/20/7 2/2/7
f 15/15/8 33/33/8 32/32/8 14/14/8
f 11/11/5 21/21/5 19/19/5 3/3/5
f 12/12/9 29/29/9 21/21/9 11/11/9
f 6/6/10 27/27/10 22/22/10 8/8/10
f 9/9/11 28/28/11 25/25/11 7/7/11
f 7/7/4 25/25/4 24/24/4 5/5/4
f 16/16/12 30/30/12 34/34/12 17/17/12
f 8/8/10 22/22/10 26/26/10 10/10/10
f 17/17/12 34/34/12 28/28/12 9/9/12
f 5/5/4 24/24/4 29/29/4 12/12/4
f 10/10/13 26/26/13 33/33/13 15/15/13
