# Blender 3.4.0
# www.blender.org
mtllib boatback_015.mtl
o boatback.015
v 4.056149 7.578214 7.743229
v 3.548631 7.570668 12.679280
v 4.046509 8.508746 7.746730
v 3.556008 8.522394 12.683328
v 3.553145 8.563643 12.682380
v 4.012541 8.548433 7.747726
v 4.030199 7.974483 7.749296
v 3.544525 8.043221 12.679235
v 4.056119 7.828813 7.747497
v 3.557197 7.951554 12.681732
v 3.659737 7.570865 12.031651
v 3.616926 8.520542 12.027154
v 3.623046 8.561344 12.028770
v 3.656472 8.033693 12.031012
v 3.648070 7.863443 12.029763
v 3.581106 7.570610 12.376336
v 3.593845 8.521380 12.379551
v 3.586221 8.562445 12.378689
v 3.597264 8.038526 12.378697
v 3.590956 7.909174 12.362870
v 3.984552 8.509391 8.453938
v 3.952666 8.549641 8.453215
v 3.982175 7.985221 8.446520
v 3.958380 7.824287 8.452471
v 3.962859 7.575875 8.448172
v 3.508451 7.951723 12.676164
v 3.501219 8.043190 12.675032
v 3.914762 7.984208 8.445820
v 3.961543 7.976082 7.736872
v 3.994284 7.828622 7.742692
v 3.903503 7.826229 8.439591
v 3.553448 8.038693 12.373910
v 3.613486 8.033464 12.028438
v 3.566113 7.908785 12.362667
v 3.608885 7.863912 12.024668
v 3.920806 8.549147 7.736798
v 3.929466 8.507975 7.740359
v 3.893653 8.508043 8.451445
v 3.462220 8.522455 12.673802
v 3.447297 8.563550 12.671639
v 3.861066 8.549211 8.448478
v 3.483096 8.521643 12.366921
v 3.546245 8.519821 12.024052
v 3.484917 8.562572 12.367727
v 3.556195 8.560781 12.025747
v 4.051056 8.507833 7.883757
v 3.995835 8.549094 7.876187
v 4.033439 7.976045 7.881369
v 4.029078 7.828897 7.873258
v 4.013055 7.577349 7.873779
v 3.973527 7.976505 7.874186
v 3.990868 7.826975 7.878041
v 3.930619 8.507998 7.872326
v 3.898098 8.549636 7.866170
v 3.567323 8.563120 12.590199
v 3.804587 7.574516 10.234201
v 3.862042 8.005422 10.259540
v 3.838981 7.841681 10.253554
v 3.782968 8.007736 10.244467
v 3.755347 7.844553 10.232620
v 3.737841 7.571623 11.138018
v 3.710581 8.728209 11.135111
v 3.735693 8.769222 11.137582
v 3.753627 8.021610 11.136515
v 3.736702 7.852829 11.139853
v 3.695136 8.021174 11.133456
v 3.722441 7.853187 11.138493
v 3.627574 8.728913 11.125180
v 3.627666 8.769744 11.125483
v 3.898233 8.719402 9.363574
v 3.898068 8.763361 9.348609
v 3.898459 7.993239 9.360819
v 3.874043 7.834792 9.344266
v 3.856839 7.994885 9.349586
v 3.858318 7.833670 9.345265
v 3.790201 8.722877 9.340078
v 3.797619 8.763079 9.341611
v 3.889929 7.573296 9.350544
v 3.740676 8.792964 10.857133
v 3.886888 8.785686 9.643306
v 3.861948 8.321074 10.260643
v 3.812721 8.850711 10.244804
v 3.858311 8.830150 9.625695
v 3.763688 8.831928 10.867766
v 3.825693 8.889591 10.254181
v 3.764036 8.789673 9.616583
v 3.671167 8.792000 10.856297
v 3.728520 8.850276 10.241007
v 3.783829 8.828081 9.626445
v 3.687534 8.833531 10.857115
v 3.723551 8.891891 10.237562
v 4.208474 7.576875 7.764204
v 3.703923 7.570783 12.694605
v 4.138730 8.614427 7.868727
v 3.642294 8.628969 12.580977
v 3.558252 8.433252 12.547749
v 4.038127 8.417919 7.886242
v 4.100618 7.869700 7.860447
v 3.650008 7.936849 12.580980
v 4.121811 7.934352 7.867266
v 3.641782 8.055470 12.565907
v 3.772119 7.571779 12.038860
v 3.725537 8.644248 12.055141
v 3.615470 8.378408 12.005556
v 3.732249 7.903776 12.038791
v 3.746703 7.990918 12.027946
v 3.734634 7.571451 12.388312
v 3.688297 8.651871 12.387643
v 3.585821 8.378464 12.378242
v 3.680783 7.908923 12.386377
v 3.692474 8.038205 12.354667
v 4.064200 8.634413 8.440378
v 3.961892 8.367266 8.474789
v 4.085310 7.854955 8.458658
v 4.091485 7.956241 8.455887
v 4.112721 7.576148 8.459033
v 3.594980 8.050056 12.567582
v 3.593377 7.936217 12.574042
v 4.038178 7.855097 8.453514
v 4.086492 7.869274 7.863681
v 4.053226 7.935176 7.856586
v 4.042341 7.956383 8.452877
v 3.632717 7.908916 12.381384
v 3.676008 7.903973 12.032423
v 3.638903 8.038110 12.349684
v 3.676106 7.996315 12.020212
v 4.011147 8.443007 7.854000
v 4.048754 8.613867 7.862905
v 3.995842 8.643018 8.438942
v 3.548662 8.628817 12.571236
v 3.551912 8.457251 12.571522
v 3.964735 8.427098 8.463273
v 3.589733 8.651844 12.377695
v 3.634733 8.654224 12.046314
v 3.604207 8.432290 12.380503
v 3.648373 8.436900 12.017764
v 4.142619 8.639347 7.887115
v 4.030706 8.364201 7.882229
v 4.135554 7.846618 7.889146
v 4.140756 7.959266 7.884351
v 4.174309 7.577505 7.887544
v 4.099455 7.847433 7.882634
v 4.104623 7.958983 7.882154
v 4.020867 8.639227 7.876030
v 4.019995 8.419191 7.876821
v 3.563819 8.378971 12.590111
v 3.966075 7.572648 10.258134
v 3.917874 7.878611 10.252604
v 3.910608 7.975259 10.244521
v 3.869056 7.879672 10.242931
v 3.861850 7.975101 10.240611
v 3.902781 7.571871 11.150162
v 3.820104 8.855295 11.175620
v 3.732925 8.589696 11.094257
v 3.825826 7.891453 11.144617
v 3.848513 7.984385 11.142008
v 3.773685 7.891866 11.137813
v 3.790770 7.984554 11.136772
v 3.725148 8.854203 11.171062
v 3.767145 8.641000 11.115442
v 4.018546 8.847371 9.335664
v 3.902954 8.583322 9.399483
v 4.007223 7.866136 9.359322
v 3.993492 7.965040 9.350811
v 3.951590 7.865555 9.355340
v 3.937348 7.965865 9.343006
v 3.927585 8.847009 9.328897
v 3.897616 8.637392 9.378720
v 4.040563 7.573767 9.357416
v 3.849741 8.923689 10.892601
v 3.977603 8.919165 9.614993
v 3.964933 8.323931 10.259200
v 3.909835 8.985327 10.251798
v 3.860860 8.648691 9.657229
v 3.771850 8.650266 10.836942
v 3.823621 8.706806 10.248698
v 3.886697 8.913375 9.610558
v 3.756891 8.917308 10.885708
v 3.843318 8.975168 10.253119
v 3.870798 8.698707 9.651134
v 3.764096 8.701095 10.843499
v 3.840266 8.755852 10.254128
vn 0.9889 -0.0091 0.1483
vn -0.0192 0.9742 0.2248
vn 0.0121 0.9912 -0.1320
vn 0.9939 -0.0238 0.1075
vn 0.9954 0.0222 0.0929
vn -0.0031 -0.9999 0.0147
vn -0.0022 1.0000 -0.0041
vn 0.9911 0.0691 0.1134
vn 0.9806 0.0076 0.1959
vn -0.0069 -0.9999 0.0097
vn -0.0826 -0.0119 0.9965
vn 0.9922 0.0443 0.1163
vn 0.9944 -0.0198 0.1033
vn 0.1010 -0.0158 -0.9948
vn -0.0005 -0.9999 0.0144
vn 0.9943 -0.0237 0.1041
vn 0.9822 0.0805 0.1694
vn 0.9919 0.0671 0.1078
vn 0.9889 0.0192 0.1473
vn 0.9916 0.0186 0.1278
vn 0.1055 -0.0082 -0.9944
vn 0.0167 0.9998 -0.0101
vn 0.0074 0.9911 -0.1326
vn -0.0002 1.0000 0.0047
vn -0.0173 -0.9998 0.0083
vn -0.1310 -0.0126 0.9913
vn 0.9829 0.1585 0.0937
vn 0.9908 -0.1230 0.0556
vn 0.9707 -0.1454 0.1913
vn 0.7824 0.6207 0.0501
vn 0.0019 1.0000 -0.0028
vn 0.0022 -1.0000 0.0045
vn -0.0070 -1.0000 0.0034
vn -0.0106 -0.9727 0.2318
vn -0.0055 1.0000 -0.0019
vn -0.0013 -1.0000 0.0034
vn -0.0028 1.0000 0.0034
vn -0.0006 -1.0000 0.0001
vn 0.8896 0.4509 0.0725
vn 0.0034 -0.9999 0.0152
vn -0.0211 0.9998 0.0035
vn 0.9858 0.1652 -0.0302
vn 0.9641 -0.0327 0.2637
vn 0.9991 -0.0318 -0.0288
vn 0.0049 -0.9735 0.2288
vn 0.0193 0.9998 -0.0084
vn 0.9914 -0.0849 0.0995
vn -0.0156 -0.9998 0.0150
vn 0.0167 -0.9739 -0.2262
vn 0.9971 -0.0366 0.0671
vn 0.9992 0.0002 0.0405
vn 0.0058 -0.9999 0.0142
vn 0.0197 -0.9742 -0.2247
vn 0.9280 -0.3425 0.1465
vn 0.0349 0.9994 -0.0084
vn 0.9977 -0.0023 0.0671
vn 0.0807 0.9706 -0.2268
vn 0.9935 -0.0639 0.0941
vn 0.9895 0.0498 0.1354
vn 0.0399 0.9734 -0.2258
vn 0.9954 0.0401 0.0871
vn 0.9957 -0.0025 0.0931
vn 0.9978 -0.0325 0.0572
vn 0.0131 0.9999 -0.0090
vn 0.9551 0.2957 0.0183
vn 0.9705 -0.1959 0.1406
vn -0.0354 -0.9993 0.0118
vn 0.9875 0.0955 0.1252
vn 0.9892 0.0953 0.1117
vn -0.0101 -0.9951 0.0982
vn -0.0074 -0.9955 -0.0943
vn 0.9891 -0.1336 0.0622
vn 0.9775 -0.1887 0.0948
vn -0.0119 0.9956 0.0928
vn 0.0317 0.9946 -0.0991
vn -0.0176 0.9741 0.2254
vn -0.9810 -0.0000 -0.1941
vn -0.0299 -0.9725 -0.2309
vn -0.0553 -0.9904 0.1268
vn -0.9797 -0.1330 -0.1498
vn -0.9868 -0.0975 -0.1289
vn 0.0098 0.9902 -0.1394
vn -0.0526 -0.9986 0.0014
vn -0.9944 -0.0043 -0.1060
vn -0.9883 -0.0818 -0.1284
vn -0.0032 0.9999 -0.0123
vn -0.2824 0.1285 0.9506
vn -0.9916 0.0021 -0.1294
vn -0.9934 -0.0103 -0.1138
vn -0.1116 0.1131 -0.9873
vn 0.0033 0.9999 -0.0140
vn -0.9927 -0.0722 -0.0966
vn 0.9800 -0.0002 0.1988
vn 0.9894 -0.0833 0.1193
vn 0.9930 -0.0047 0.1181
vn 0.9933 -0.0430 0.1077
vn 0.0559 -0.0905 -0.9943
vn -0.0438 -0.9990 0.0050
vn 0.0520 -0.9955 0.0792
vn 0.0019 -1.0000 -0.0047
vn -0.0406 0.7063 0.7067
vn -0.0897 -0.0062 0.9960
vn 0.9708 0.0459 0.2355
vn 0.9852 0.1002 0.1387
vn 0.9902 0.0562 0.1278
vn 0.9951 -0.0690 0.0702
vn 0.0127 -0.9933 -0.1151
vn 0.9018 -0.4231 0.0879
vn -0.4400 0.2040 0.8745
vn 0.9975 0.0387 0.0594
vn -0.0442 -0.9990 -0.0051
vn 0.9806 -0.0440 0.1912
vn -0.0646 -0.5519 0.8314
vn 0.9911 0.0832 0.1035
vn 0.8779 -0.0962 0.4691
vn 0.0133 0.9998 -0.0127
vn -0.1035 -0.5664 0.8176
vn 0.5669 0.0547 -0.8220
vn -0.9855 -0.1495 -0.0796
vn -0.7718 0.0201 0.6356
vn 0.9913 -0.0100 0.1312
vn -0.0075 -0.9999 0.0102
vn 0.9896 0.1149 0.0861
vn 0.0166 0.9998 -0.0123
vn 0.9675 -0.2529 0.0079
vn -0.9878 -0.1298 -0.0860
vn -0.9970 0.0192 -0.0745
vn 0.0072 0.9999 -0.0129
vn 0.8542 -0.5199 -0.0078
vn 0.9874 -0.0772 0.1385
vn -0.0010 -0.9999 0.0103
vn 0.9944 -0.0506 0.0930
vn 0.0179 -0.9702 0.2416
vn -0.9885 -0.1349 -0.0686
vn -0.9904 0.0188 -0.1367
vn -0.0618 -0.9728 0.2233
vn -0.9916 -0.0890 -0.0938
vn -0.9977 -0.0072 -0.0678
vn 0.9928 0.0564 0.1055
vn -0.0101 -0.9999 0.0091
vn 0.9870 -0.1238 0.1024
vn 0.9926 0.0972 0.0726
vn 0.0065 0.9999 -0.0143
vn -0.9914 -0.0837 -0.1010
vn -0.9918 -0.0837 -0.0968
vn 0.9629 -0.2579 0.0795
vn 0.9901 -0.0999 0.0981
vn 0.9913 -0.0030 0.1316
vn 0.9973 -0.0375 0.0628
vn 0.1057 -0.9911 -0.0808
vn 0.0981 -0.9894 0.1075
vn 0.0522 -0.9742 -0.2197
vn 0.0047 1.0000 0.0024
vn -0.3233 -0.1561 -0.9333
vn 0.7800 -0.5169 0.3528
vn -0.9955 -0.0072 -0.0949
vn -0.9921 0.0495 -0.1152
vn -0.0016 1.0000 0.0023
vn -0.0042 1.0000 -0.0000
vn -0.8984 -0.3133 -0.3077
vn -0.9923 0.0105 -0.1235
vn -0.9876 -0.1257 -0.0942
vn -0.8198 0.0323 0.5717
vn -0.0066 1.0000 -0.0003
vn -0.4540 -0.2172 0.8641
vn -0.9954 0.0275 -0.0916
vn 0.7363 0.1825 0.6516
vn -0.7802 0.2429 -0.5765
vn -0.0032 1.0000 0.0007
vn -0.9890 -0.0519 -0.1385
vn -0.9984 -0.0054 -0.0567
vn 0.0044 1.0000 0.0003
vn -0.9953 0.0107 -0.0962
vn 0.6833 -0.6300 -0.3691
vn -0.0026 1.0000 0.0025
vn -0.9975 -0.0490 -0.0507
vn 0.0036 1.0000 0.0020
vn -0.7793 -0.4247 0.4608
vn -0.7228 0.0047 -0.6910
vt 0.168769 0.206642
vt 0.928021 0.162980
vt 0.176240 0.559690
vt 0.000000 0.000000
vt 0.000000 0.000000
vt 0.935593 0.521516
vt 0.000000 0.000000
vt 0.935820 0.532242
vt 0.176463 0.570251
vt 0.000000 0.000000
vt 0.170967 0.310527
vt 0.000000 0.000000
vt 0.000000 0.000000
vt 0.930626 0.286323
vt 0.170158 0.272286
vt 0.000000 0.000000
vt 0.930122 0.262467
vt 0.000000 0.000000
vt 0.827154 0.168781
vt 0.834712 0.526588
vt 0.834939 0.537291
vt 0.829705 0.289538
vt 0.828766 0.245086
vt 0.881062 0.165681
vt 0.888628 0.523878
vt 0.888854 0.534593
vt 0.883642 0.287820
vt 0.880960 0.254036
vt 0.284039 0.554271
vt 0.284263 0.564855
vt 0.278810 0.307091
vt 0.277931 0.265536
vt 0.276554 0.200443
vt 0.000000 0.000000
vt 0.930122 0.262467
vt 0.930626 0.286323
vt 0.000000 0.000000
vt 0.278810 0.307091
vt 0.000000 0.000000
vt 0.170967 0.310527
vt 0.000000 0.000000
vt 0.170158 0.272286
vt 0.277931 0.265536
vt 0.883642 0.287820
vt 0.829705 0.289538
vt 0.880960 0.254036
vt 0.828766 0.245086
vt 0.000000 0.000000
vt 0.176463 0.570251
vt 0.000000 0.000000
vt 0.176240 0.559690
vt 0.284039 0.554271
vt 0.000000 0.000000
vt 0.935593 0.521516
vt 0.000000 0.000000
vt 0.935820 0.532242
vt 0.284263 0.564855
vt 0.888628 0.523878
vt 0.834712 0.526588
vt 0.888854 0.534593
vt 0.834939 0.537291
vt 0.196220 0.558685
vt 0.196444 0.569251
vt 0.190955 0.309890
vt 0.190133 0.271035
vt 0.188746 0.205493
vt 0.190955 0.309890
vt 0.190133 0.271035
vt 0.196220 0.558685
vt 0.196444 0.569251
vt 0.921393 0.532964
vt 0.551854 0.184612
vt 0.554258 0.298315
vt 0.553348 0.255311
vt 0.554257 0.298315
vt 0.553348 0.255311
vt 0.689504 0.176696
vt 0.697044 0.533508
vt 0.697270 0.544182
vt 0.691981 0.293927
vt 0.691057 0.250199
vt 0.691981 0.293927
vt 0.691057 0.250199
vt 0.697044 0.533508
vt 0.697270 0.544182
vt 0.421708 0.547350
vt 0.421932 0.557964
vt 0.416534 0.302703
vt 0.415640 0.260424
vt 0.416534 0.302703
vt 0.415640 0.260424
vt 0.421708 0.547350
vt 0.421932 0.557964
vt 0.414204 0.192528
vt 0.654306 0.535657
vt 0.474905 0.544676
vt 0.464535 0.545197
vt 0.556000 0.380752
vt 0.562439 0.540275
vt 0.559376 0.540429
vt 0.464760 0.555821
vt 0.654532 0.546322
vt 0.559601 0.551073
vt 0.464500 0.545199
vt 0.654339 0.535655
vt 0.559376 0.540429
vt 0.464724 0.555822
vt 0.654564 0.546320
vt 0.559489 0.545751
vt 0.168769 0.206642
vt 0.928021 0.162980
vt 0.176240 0.559690
vt 0.000000 0.000000
vt 0.000000 0.000000
vt 0.935593 0.521516
vt 0.000000 0.000000
vt 0.935820 0.532242
vt 0.176463 0.570251
vt 0.000000 0.000000
vt 0.170967 0.310527
vt 0.000000 0.000000
vt 0.000000 0.000000
vt 0.930626 0.286323
vt 0.170158 0.272286
vt 0.000000 0.000000
vt 0.930122 0.262467
vt 0.000000 0.000000
vt 0.827154 0.168781
vt 0.834712 0.526588
vt 0.834939 0.537291
vt 0.829705 0.289538
vt 0.828766 0.245086
vt 0.881062 0.165681
vt 0.888628 0.523878
vt 0.888854 0.534593
vt 0.883642 0.287820
vt 0.880960 0.254036
vt 0.284039 0.554271
vt 0.284263 0.564855
vt 0.278810 0.307091
vt 0.277931 0.265536
vt 0.276554 0.200443
vt 0.000000 0.000000
vt 0.930122 0.262467
vt 0.930626 0.286323
vt 0.000000 0.000000
vt 0.278810 0.307091
vt 0.000000 0.000000
vt 0.170967 0.310527
vt 0.000000 0.000000
vt 0.170158 0.272286
vt 0.277931 0.265536
vt 0.883642 0.287820
vt 0.829705 0.289538
vt 0.880960 0.254036
vt 0.828766 0.245086
vt 0.000000 0.000000
vt 0.176463 0.570251
vt 0.000000 0.000000
vt 0.176240 0.559690
vt 0.284039 0.554271
vt 0.000000 0.000000
vt 0.935593 0.521516
vt 0.000000 0.000000
vt 0.935820 0.532242
vt 0.284263 0.564855
vt 0.888628 0.523878
vt 0.834712 0.526588
vt 0.888854 0.534593
vt 0.834939 0.537291
vt 0.196220 0.558685
vt 0.196444 0.569251
vt 0.190955 0.309890
vt 0.190133 0.271035
vt 0.188746 0.205493
vt 0.190955 0.309890
vt 0.190133 0.271035
vt 0.196220 0.558685
vt 0.196444 0.569251
vt 0.921393 0.532964
vt 0.551854 0.184612
vt 0.554258 0.298315
vt 0.553348 0.255311
vt 0.554257 0.298315
vt 0.553348 0.255311
vt 0.689504 0.176696
vt 0.697044 0.533508
vt 0.697270 0.544182
vt 0.691981 0.293927
vt 0.691057 0.250199
vt 0.691981 0.293927
vt 0.691057 0.250199
vt 0.697044 0.533508
vt 0.697270 0.544182
vt 0.421708 0.547350
vt 0.421932 0.557964
vt 0.416534 0.302703
vt 0.415640 0.260424
vt 0.416534 0.302703
vt 0.415640 0.260424
vt 0.421708 0.547350
vt 0.421932 0.557964
vt 0.414204 0.192528
vt 0.654306 0.535657
vt 0.474905 0.544676
vt 0.464535 0.545197
vt 0.556000 0.380752
vt 0.562439 0.540275
vt 0.559376 0.540429
vt 0.464760 0.555821
vt 0.654532 0.546322
vt 0.559601 0.551073
vt 0.464500 0.545199
vt 0.654339 0.535655
vt 0.559376 0.540429
vt 0.464724 0.555822
vt 0.654564 0.546320
vt 0.559489 0.545751
s 0
usemtl boatback
f 19/27/1 17/25/1 4/6/1 8/14/1
f 62/78/2 68/84/2 43/59/2 12/20/2
f 15/23/3 35/47/3 34/46/3 20/28/3
f 16/24/4 20/28/4 10/17/4 2/2/4
f 61/77/5 65/81/5 15/23/5 11/19/5
f 8/14/6 27/36/6 32/44/6 19/27/6
f 12/20/7 43/59/7 42/58/7 17/25/7
f 64/80/8 62/78/8 12/20/8 14/22/8
f 11/19/9 15/23/9 20/28/9 16/24/9
f 72/88/10 74/90/10 28/38/10 23/31/10
f 6/10/11 36/48/11 37/50/11 3/4/11
f 14/22/12 12/20/12 17/25/12 19/27/12
f 48/64/13 46/62/13 21/29/13 23/31/13
f 4/5/14 39/53/14 40/55/14 5/7/14
f 19/27/15 32/44/15 33/45/15 14/22/15
f 50/66/16 49/65/16 24/32/16 25/33/16
f 34/46/17 32/44/17 27/36/17 26/35/17
f 67/83/18 66/82/18 33/45/18 35/47/18
f 35/47/19 33/45/19 32/44/19 34/46/19
f 52/68/20 51/67/20 28/38/20 31/43/20
f 10/18/21 26/34/21 27/37/21 8/13/21
f 65/81/22 67/83/22 35/47/22 15/23/22
f 20/28/23 34/46/23 26/35/23 10/17/23
f 49/65/24 52/68/24 31/43/24 24/32/24
f 48/64/25 51/67/25 29/40/25 7/11/25
f 7/12/26 29/39/26 30/41/26 9/16/26
f 42/58/27 44/60/27 40/56/27 39/54/27
f 68/84/28 69/85/28 45/61/28 43/59/28
f 43/59/29 45/61/29 44/60/29 42/58/29
f 53/69/30 54/70/30 41/57/30 38/52/30
f 17/25/31 42/58/31 39/54/31 4/6/31
f 18/26/32 44/60/32 45/61/32 13/21/32
f 47/63/33 54/70/33 36/49/33 6/9/33
f 71/87/34 77/93/34 41/57/34 22/30/34
f 46/62/35 53/69/35 38/52/35 21/29/35
f 5/8/36 40/56/36 44/60/36 18/26/36 55/71/36
f 3/3/37 37/51/37 53/69/37 46/62/37
f 22/30/38 41/57/38 54/70/38 47/63/38
f 37/51/39 36/49/39 54/70/39 53/69/39
f 23/31/40 28/38/40 51/67/40 48/64/40
f 9/15/41 30/42/41 52/68/41 49/65/41
f 30/42/42 29/40/42 51/67/42 52/68/42
f 1/1/43 9/15/43 49/65/43 50/66/43
f 7/11/44 3/3/44 46/62/44 48/64/44
f 83/101/45 89/107/45 77/93/45 71/87/45
f 73/89/46 75/91/46 60/76/46 58/74/46
f 75/91/47 74/90/47 59/75/47 60/76/47
f 64/80/48 66/82/48 59/75/48 57/73/48
f 63/79/49 69/85/49 90/108/49 84/102/49
f 78/94/50 73/89/50 58/74/50 56/72/50
f 72/88/51 70/86/51 80/97/51 81/98/51 57/73/51
f 14/22/52 33/45/52 66/82/52 64/80/52
f 13/21/53 45/61/53 69/85/53 63/79/53
f 76/92/54 77/93/54 89/107/54 86/104/54
f 58/74/55 60/76/55 67/83/55 65/81/55
f 60/76/56 59/75/56 66/82/56 67/83/56
f 70/86/57 76/92/57 86/104/57 80/97/57
f 56/72/58 58/74/58 65/81/58 61/77/58
f 57/73/59 81/98/59 79/95/59 62/78/59 64/80/59
f 21/29/60 38/52/60 76/92/60 70/86/60
f 25/33/61 24/32/61 73/89/61 78/94/61
f 23/31/62 21/29/62 70/86/62 72/88/62
f 31/43/63 28/38/63 74/90/63 75/91/63
f 24/32/64 31/43/64 75/91/64 73/89/64
f 38/52/65 41/57/65 77/93/65 76/92/65
f 87/105/66 90/108/66 69/85/66 68/84/66
f 57/73/67 59/75/67 74/90/67 72/88/67
f 79/95/68 81/98/68 82/99/68
f 82/99/69 81/98/69 80/96/69
f 83/101/70 85/103/70 91/109/70 89/107/70
f 85/103/71 84/102/71 90/108/71 91/109/71
f 87/105/72 88/106/72 91/109/72 90/108/72
f 88/106/73 86/104/73 89/107/73 91/109/73
f 79/95/74 82/100/74 88/106/74 87/105/74
f 82/100/75 80/97/75 86/104/75 88/106/75
f 79/95/76 87/105/76 68/84/76 62/78/76
f 110/136/77 99/123/77 95/115/77 108/134/77
f 153/187/78 103/129/78 134/168/78 159/193/78
f 106/132/79 111/137/79 125/155/79 126/156/79
f 107/133/80 93/111/80 101/126/80 111/137/80
f 152/186/81 102/128/81 106/132/81 156/190/81
f 99/123/82 110/136/82 123/153/82 118/145/82
f 103/129/83 108/134/83 133/167/83 134/168/83
f 155/189/84 105/131/84 103/129/84 153/187/84
f 102/128/85 107/133/85 111/137/85 106/132/85
f 163/197/86 114/140/86 119/147/86 165/199/86
f 97/119/87 94/113/87 128/159/87 127/157/87
f 105/131/88 110/136/88 108/134/88 103/129/88
f 139/173/89 114/140/89 112/138/89 137/171/89
f 95/114/90 96/116/90 131/164/90 130/162/90
f 110/136/91 105/131/91 124/154/91 123/153/91
f 141/175/92 116/142/92 115/141/92 140/174/92
f 125/155/93 117/144/93 118/145/93 123/153/93
f 158/192/94 126/156/94 124/154/94 157/191/94
f 126/156/95 125/155/95 123/153/95 124/154/95
f 143/177/96 122/152/96 119/147/96 142/176/96
f 101/127/97 99/122/97 118/146/97 117/143/97
f 156/190/98 106/132/98 126/156/98 158/192/98
f 111/137/99 101/126/99 117/144/99 125/155/99
f 140/174/100 115/141/100 122/152/100 143/177/100
f 139/173/101 98/120/101 120/149/101 142/176/101
f 98/121/102 100/125/102 121/150/102 120/148/102
f 133/167/103 130/163/103 131/165/103 135/169/103
f 159/193/104 134/168/104 136/170/104 160/194/104
f 134/168/105 133/167/105 135/169/105 136/170/105
f 144/178/106 129/161/106 132/166/106 145/179/106
f 108/134/107 95/115/107 130/163/107 133/167/107
f 109/135/108 104/130/108 136/170/108 135/169/108
f 138/172/109 97/118/109 127/158/109 145/179/109
f 162/196/110 113/139/110 132/166/110 168/202/110
f 137/171/111 112/138/111 129/161/111 144/178/111
f 96/117/112 146/180/112 109/135/112 135/169/112 131/165/112
f 94/112/113 137/171/113 144/178/113 128/160/113
f 113/139/114 138/172/114 145/179/114 132/166/114
f 128/160/115 144/178/115 145/179/115 127/158/115
f 114/140/116 139/173/116 142/176/116 119/147/116
f 100/124/117 140/174/117 143/177/117 121/151/117
f 121/151/118 143/177/118 142/176/118 120/149/118
f 92/110/119 141/175/119 140/174/119 100/124/119
f 98/120/120 139/173/120 137/171/120 94/112/120
f 174/210/121 162/196/121 168/202/121 180/216/121
f 164/198/122 149/183/122 151/185/122 166/200/122
f 166/200/123 151/185/123 150/184/123 165/199/123
f 155/189/124 148/182/124 150/184/124 157/191/124
f 154/188/125 175/211/125 181/217/125 160/194/125
f 169/203/126 147/181/126 149/183/126 164/198/126
f 163/197/127 148/182/127 172/207/127 171/206/127 161/195/127
f 105/131/128 155/189/128 157/191/128 124/154/128
f 104/130/129 154/188/129 160/194/129 136/170/129
f 167/201/130 177/213/130 180/216/130 168/202/130
f 149/183/131 156/190/131 158/192/131 151/185/131
f 151/185/132 158/192/132 157/191/132 150/184/132
f 161/195/133 171/206/133 177/213/133 167/201/133
f 147/181/134 152/186/134 156/190/134 149/183/134
f 148/182/135 155/189/135 153/187/135 170/204/135 172/207/135
f 112/138/136 161/195/136 167/201/136 129/161/136
f 116/142/137 169/203/137 164/198/137 115/141/137
f 114/140/138 163/197/138 161/195/138 112/138/138
f 122/152/139 166/200/139 165/199/139 119/147/139
f 115/141/140 164/198/140 166/200/140 122/152/140
f 129/161/141 167/201/141 168/202/141 132/166/141
f 178/214/142 159/193/142 160/194/142 181/217/142
f 148/182/143 163/197/143 165/199/143 150/184/143
f 170/204/144 173/208/144 172/207/144
f 173/208/145 171/205/145 172/207/145
f 174/210/146 180/216/146 182/218/146 176/212/146
f 176/212/147 182/218/147 181/217/147 175/211/147
f 178/214/148 181/217/148 182/218/148 179/215/148
f 179/215/149 182/218/149 180/216/149 177/213/149
f 170/204/150 178/214/150 179/215/150 173/209/150
f 173/209/151 179/215/151 177/213/151 171/206/151
f 170/204/152 153/187/152 159/193/152 178/214/152
f 56/72/153 61/77/153 152/186/153 147/181/153
f 2/2/154 10/17/154 101/126/154 93/111/154
f 4/5/155 5/7/155 96/116/155 95/114/155
f 84/102/156 85/103/156 176/212/156 175/211/156
f 13/21/157 63/79/157 154/188/157 104/130/157
f 50/66/158 25/33/158 116/142/158 141/175/158
f 61/77/159 11/19/159 102/128/159 152/186/159
f 47/63/160 6/9/160 97/118/160 138/172/160
f 63/79/161 84/102/161 175/211/161 154/188/161
f 22/30/162 47/63/162 138/172/162 113/139/162
f 3/3/163 7/11/163 98/120/163 94/112/163
f 11/19/164 16/24/164 107/133/164 102/128/164
f 9/15/165 1/1/165 92/110/165 100/124/165
f 18/26/166 13/21/166 104/130/166 109/135/166
f 10/18/167 8/13/167 99/122/167 101/127/167
f 5/8/168 55/71/168 146/180/168 96/117/168
f 16/24/169 2/2/169 93/111/169 107/133/169
f 83/101/170 71/87/170 162/196/170 174/210/170
f 85/103/171 83/101/171 174/210/171 176/212/171
f 78/94/172 56/72/172 147/181/172 169/203/172
f 55/71/173 18/26/173 109/135/173 146/180/173
f 6/10/174 3/4/174 94/113/174 97/119/174
f 25/33/175 78/94/175 169/203/175 116/142/175
f 71/87/176 22/30/176 113/139/176 162/196/176
f 1/1/177 50/66/177 141/175/177 92/110/177
f 7/12/178 9/16/178 100/125/178 98/121/178
f 8/14/179 4/6/179 95/115/179 99/123/179
