# Blender 3.4.0
# www.blender.org
mtllib boxes_001.mtl
o boxes.001
v 16.513008 7.573976 -16.844261
v 16.512907 7.984369 -16.839752
v 16.515429 8.061037 -16.952469
v 16.515631 8.480453 -16.961489
v 17.554562 8.480453 -16.938238
v 17.554359 8.061037 -16.929218
v 17.551838 7.984369 -16.816502
v 17.551939 7.573976 -16.821011
v 17.553249 7.533387 -16.879625
v 17.552443 7.064365 -16.843555
v 17.553148 6.965148 -16.875116
v 17.532949 6.677931 -16.891577
v 17.556953 6.751775 -17.964207
v 17.577568 6.279655 -17.966221
v 17.468388 6.279655 -13.087640
v 17.468388 6.580535 -13.087640
v 17.467215 6.632975 -13.035213
v 17.447117 7.411675 -13.056231
v 17.474663 7.411674 -14.287105
v 17.475584 8.043003 -14.328219
v 17.484810 8.043001 -14.740478
v 17.485729 8.499580 -14.781592
v 17.531527 8.499580 -16.827980
v 16.493744 7.533466 -16.883202
v 16.513512 7.064365 -16.866806
v 16.514217 6.965148 -16.898367
v 16.535133 6.677931 -16.913908
v 16.559139 6.751775 -17.986536
v 16.538635 6.279655 -17.989471
v 16.429457 6.279655 -13.110890
v 16.429457 6.580535 -13.110890
v 16.428284 6.632975 -13.058464
v 16.449301 7.411675 -13.078562
v 16.476847 7.411674 -14.309435
v 16.477768 8.043003 -14.350551
v 16.486994 8.043001 -14.762808
v 16.487913 8.499580 -14.803923
v 16.533710 8.499580 -16.850311
v 17.553047 6.676519 -16.870607
v 17.577971 6.753187 -17.984255
v 17.467215 7.411675 -13.035213
v 17.495682 7.411674 -14.307202
v 17.495682 8.043003 -14.307202
v 17.505827 8.043001 -14.760575
v 17.505827 8.499580 -14.760575
v 17.552544 8.499580 -16.848078
v 16.494442 6.677901 -16.914385
v 16.518467 6.751805 -17.987879
v 16.428284 7.411675 -13.058464
v 16.456749 7.411674 -14.330453
v 16.456749 8.043003 -14.330453
v 16.466896 8.043001 -14.783826
v 16.466896 8.499580 -14.783826
v 16.513613 8.499580 -16.871328
v 17.532978 6.603834 -16.892849
v 17.556982 6.677678 -17.965477
v 17.447145 7.337578 -13.057504
v 17.474691 7.337578 -14.288377
v 17.475613 7.968906 -14.329492
v 17.484838 7.968904 -14.741750
v 17.485758 8.425484 -14.782865
v 17.531555 8.425484 -16.829252
v 16.535162 6.603834 -16.915180
v 16.559166 6.677678 -17.987808
v 16.449329 7.337578 -13.079834
v 16.476875 7.337578 -14.310707
v 16.477797 7.968906 -14.351823
v 16.487022 7.968904 -14.764080
v 16.487942 8.425484 -14.805196
v 16.533739 8.425484 -16.851583
v 16.463371 6.279655 -14.626358
v 16.446991 7.541699 -14.794091
v 16.466314 7.100192 -14.757861
v 16.465473 7.081401 -14.720288
v 16.465334 6.661736 -14.714026
v 16.463583 6.658604 -14.635750
v 16.074518 7.064365 -16.876629
v 16.075224 6.965148 -16.908192
v 16.094999 7.533466 -16.892124
v 16.095697 6.677901 -16.923309
v 16.119722 6.751805 -17.996803
v 16.099644 6.279655 -17.999296
v 16.024378 6.279655 -14.636182
v 16.048246 7.541699 -14.803015
v 16.027321 7.100192 -14.767685
v 16.026482 7.081401 -14.730113
v 16.026340 6.661736 -14.723850
v 16.024590 6.658604 -14.645575
v 16.514116 6.676519 -16.893858
v 16.539040 6.753187 -18.007505
v 16.514318 7.533387 -16.902876
v 16.466665 7.541779 -14.773517
v 16.075125 6.676519 -16.903683
v 16.100046 6.753187 -18.017330
v 16.075325 7.533387 -16.912699
v 16.027672 7.541779 -14.783340
v 16.494509 6.585512 -16.917377
v 16.518534 6.659415 -17.990871
v 16.493811 7.441077 -16.886194
v 16.447058 7.449309 -14.797084
v 16.095764 6.585512 -16.926302
v 16.119789 6.659415 -17.999796
v 16.095066 7.441077 -16.895117
v 16.048313 7.449310 -14.806007
v 17.518742 8.499580 -15.337609
v 17.518576 8.038306 -15.330224
vn 0.0224 0.0172 -0.9996
vn -0.0224 0.0156 0.9996
vn -0.9997 -0.0000 -0.0224
vn 0.9997 -0.0000 0.0224
vn 0.0224 -0.0000 -0.9997
vn -0.0224 0.0215 0.9995
vn -0.0224 0.0381 0.9990
vn -0.0126 0.8269 0.5622
vn -0.0000 1.0000 -0.0000
vn -0.0224 -0.0110 0.9997
vn -0.0224 -0.0172 0.9996
vn -0.0127 -0.8222 0.5691
vn -0.0046 -0.9782 0.2074
vn 0.0158 0.7071 -0.7069
vn -0.0223 0.0767 0.9968
vn -0.0213 -0.3032 0.9527
vn 0.0015 -0.9976 -0.0686
vn -0.0000 -1.0000 -0.0000
vn 0.0224 -0.0354 -0.9991
vn 0.0224 -0.0248 -0.9994
vn 0.0100 -0.8944 -0.4471
vn 0.0224 0.0324 -0.9992
vn 0.0224 -0.0149 -0.9996
vn 0.0009 -0.9992 -0.0400
vn -0.0001 -1.0000 0.0039
vn 0.0015 -0.9976 -0.0687
vn -0.0224 -0.0324 0.9992
vt 0.878534 0.573592
vt 0.877535 0.749639
vt 0.902509 0.782527
vt 0.904508 0.962444
vt 0.904508 0.962444
vt 0.902509 0.782527
vt 0.877535 0.749639
vt 0.878534 0.573592
vt 0.891521 0.556181
vt 0.883529 0.354984
vt 0.890522 0.312423
vt 0.438082 0.743698
vt 0.339869 0.743698
vt 1.132275 0.018366
vt 0.051342 0.018366
vt 0.528049 0.063986
vt 0.529032 0.185633
vt 0.051342 0.147435
vt 0.039726 0.169930
vt 0.529203 0.206834
vt 0.789260 0.743698
vt 0.676556 0.743698
vt 0.672792 0.743698
vt 0.635044 0.743698
vt 0.631280 0.743698
vt 0.443905 0.743698
vt 0.887062 0.556215
vt 0.883529 0.354984
vt 0.890522 0.312423
vt 0.438082 0.566767
vt 0.339869 0.566767
vt 1.132275 0.018366
vt 0.051342 0.018366
vt 0.407561 0.068435
vt 0.408545 0.190081
vt 0.051342 0.147435
vt 0.039726 0.169930
vt 0.408716 0.211282
vt 0.789260 0.566768
vt 0.676556 0.566767
vt 0.672791 0.566767
vt 0.635044 0.566767
vt 0.631280 0.566767
vt 0.443905 0.566767
vt 0.889523 0.188609
vt 0.439960 0.747344
vt 1.136270 0.221498
vt 0.337991 0.747343
vt 0.039726 0.503970
vt 0.531748 0.521663
vt 0.791142 0.747344
vt 0.321557 0.503970
vt 0.531748 0.521663
vt 0.674674 0.747344
vt 0.321557 0.774791
vt 0.533811 0.776909
vt 0.674674 0.747344
vt 0.533811 0.776908
vt 0.633162 0.747344
vt 0.422009 0.774791
vt 0.535303 0.961504
vt 0.633162 0.747344
vt 0.422009 0.970650
vt 0.884531 0.970650
vt 0.442023 0.747344
vt 0.438122 0.563122
vt 0.339829 0.563122
vt 0.039726 0.503970
vt 0.411260 0.526111
vt 0.791142 0.563122
vt 0.321557 0.503970
vt 0.411260 0.526111
vt 0.674674 0.563122
vt 0.321557 0.774791
vt 0.413323 0.781357
vt 0.674674 0.563122
vt 0.422009 0.774791
vt 0.413323 0.781357
vt 0.633162 0.563122
vt 0.422009 0.970650
vt 0.414816 0.965952
vt 0.633162 0.563122
vt 0.884531 0.970650
vt 0.442023 0.563122
vt 0.438082 0.743698
vt 0.339869 0.743698
vt 0.789260 0.743698
vt 0.676556 0.743698
vt 0.672792 0.743698
vt 0.635044 0.743698
vt 0.631280 0.743698
vt 0.443905 0.743698
vt 0.438082 0.566767
vt 0.339869 0.566767
vt 0.789260 0.566768
vt 0.676556 0.566767
vt 0.672791 0.566767
vt 0.635044 0.566767
vt 0.631280 0.566767
vt 0.443905 0.566767
vt 0.294414 -0.071376
vt 0.387119 0.018366
vt 0.424185 0.559746
vt 0.294414 0.328172
vt 0.416257 0.370351
vt 0.407932 0.362292
vt 0.294414 0.319022
vt 0.294414 0.114672
vt 0.406543 0.182266
vt 0.294414 0.113147
vt 0.389200 0.180924
vt 0.883529 0.354984
vt 0.890522 0.312423
vt 0.887062 0.556215
vt 0.438122 0.563122
vt 0.339829 0.563122
vt 1.132275 0.018366
vt 0.184005 -0.071376
vt 0.387119 0.018366
vt 0.424185 0.559746
vt 0.184005 0.328172
vt 0.416257 0.370351
vt 0.407932 0.362292
vt 0.184005 0.319022
vt 0.184005 0.114672
vt 0.406543 0.182266
vt 0.184005 0.113147
vt 0.389200 0.180924
vt 0.889523 0.188609
vt 0.439960 0.563122
vt 1.136270 0.221498
vt 0.337991 0.563122
vt 0.891521 0.556181
vt 0.294414 0.543195
vt 0.419726 0.559780
vt 0.889523 0.188609
vt 0.439960 0.563122
vt 1.136270 0.221498
vt 0.337991 0.563122
vt 0.891521 0.556181
vt 0.184005 0.543195
vt 0.419726 0.559780
vt 0.355232 0.740426
vt 0.438122 0.563122
vt 0.339829 0.563122
vt 0.152127 0.740426
vt 0.361132 0.740426
vt 0.887062 0.556215
vt 0.756392 0.740426
vt 0.424185 0.559746
vt 0.355232 0.594326
vt 0.438122 0.563122
vt 0.152127 0.594326
vt 0.339829 0.563122
vt 0.361132 0.594327
vt 0.887062 0.556215
vt 0.756392 0.594327
vt 0.424185 0.559746
vt 0.580327 0.747344
vt 0.549861 0.970650
vt 0.548223 0.772777
s 0
usemtl boxes
f 38/44/1 23/26/1 62/92/1 70/100/1
f 39/45/2 11/11/2 26/29/2 89/129/2
f 17/19/3 41/49/3 42/52/3 43/55/3 44/60/3 106/161/3 105/160/3 46/64/3 5/5/3 6/6/3 7/7/3 8/8/3 9/9/3 10/10/3 11/11/3 39/45/3 40/47/3 14/14/3 15/15/3 16/18/3
f 32/37/4 31/36/4 30/33/4 71/102/4 76/111/4 75/109/4 74/106/4 73/105/4 92/135/4 91/133/4 1/1/4 2/2/4 3/3/4 4/4/4 54/83/4 53/80/4 52/77/4 51/74/4 50/71/4 49/68/4
f 43/56/5 42/53/5 50/72/5 51/75/5
f 13/13/4 12/12/4 55/85/4 56/86/4
f 6/6/6 5/5/6 4/4/6 3/3/6
f 37/43/3 38/44/3 70/100/3 69/99/3
f 14/14/7 40/47/7 90/131/7 29/32/7
f 7/7/8 6/6/8 3/3/8 2/2/8
f 45/61/5 44/58/5 52/78/5 53/81/5
f 15/15/9 14/14/9 29/32/9 71/102/9 30/33/9
f 8/8/10 7/7/10 2/2/10 1/1/10
f 22/25/11 37/43/11 69/99/11 61/91/11
f 16/17/5 15/16/5 30/34/5 31/35/5
f 9/9/12 8/8/12 1/1/12 91/133/12
f 5/5/13 46/64/13 54/83/13 4/4/13
f 17/19/14 16/18/14 31/36/14 32/37/14
f 10/10/15 9/9/15 91/133/15 25/28/15
f 41/50/5 17/20/5 32/38/5 49/69/5
f 11/11/16 10/10/16 25/28/16 26/29/16
f 12/12/17 13/13/17 40/48/17 39/46/17
f 18/21/18 19/22/18 42/54/18 41/51/18
f 20/23/18 21/24/18 44/59/18 43/57/18
f 22/25/18 23/26/18 46/65/18 105/159/18 45/62/18
f 28/31/17 27/30/17 89/130/17 90/132/17
f 34/40/18 33/39/18 49/70/18 50/73/18
f 36/42/18 35/41/18 51/76/18 52/79/18
f 38/44/18 37/43/18 53/82/18 54/84/18
f 33/39/18 18/21/18 41/51/18 49/70/18
f 19/22/18 34/40/18 50/73/18 42/54/18
f 27/30/17 12/12/17 39/46/17 89/130/17
f 35/41/18 20/23/18 43/57/18 51/76/18
f 13/13/17 28/31/17 90/132/17 40/48/17
f 21/24/18 36/42/18 52/79/18 44/59/18
f 37/43/18 22/25/18 45/62/18 53/82/18
f 23/26/18 38/44/18 54/84/18 46/65/18
f 58/88/18 57/87/18 65/95/18 66/96/18
f 56/86/17 55/85/17 63/93/17 64/94/17
f 60/90/18 59/89/18 67/97/18 68/98/18
f 62/92/18 61/91/18 69/99/18 70/100/18
f 18/21/11 33/39/11 65/95/11 57/87/11
f 19/22/4 18/21/4 57/87/4 58/88/4
f 34/40/1 19/22/1 58/88/1 66/96/1
f 21/24/4 20/23/4 59/89/4 60/90/4
f 12/12/11 27/30/11 63/93/11 55/85/11
f 23/26/4 22/25/4 61/91/4 62/92/4
f 20/23/11 35/41/11 67/97/11 59/89/11
f 27/30/3 28/31/3 64/94/3 63/93/3
f 28/31/1 13/13/1 56/86/1 64/94/1
f 33/39/3 34/40/3 66/96/3 65/95/3
f 36/42/1 21/24/1 60/90/1 68/98/1
f 35/41/3 36/42/3 68/98/3 67/97/3
f 95/140/4 96/142/4 85/122/4 86/123/4 87/126/4 88/128/4 83/119/4 82/117/4 94/138/4 93/136/4 78/113/4 77/112/4
f 92/134/19 73/104/19 85/121/19 96/141/19
f 25/28/15 91/133/15 95/140/15 77/112/15
f 76/110/20 71/101/20 83/118/20 88/127/20
f 89/129/2 26/29/2 78/113/2 93/136/2
f 73/105/21 74/106/21 86/123/21 85/122/21
f 71/102/9 29/32/9 82/117/9 83/119/9
f 81/116/22 48/67/22 98/145/22 102/154/22
f 74/107/23 75/108/23 87/125/23 86/124/23
f 48/67/4 47/66/4 97/144/4 98/145/4
f 29/32/7 90/131/7 94/138/7 82/117/7
f 26/29/16 25/28/16 77/112/16 78/113/16
f 75/109/24 76/111/24 88/128/24 87/126/24
f 47/66/17 48/67/17 90/132/17 89/130/17
f 72/103/25 24/27/25 91/133/25 92/135/25
f 81/116/17 80/115/17 93/137/17 94/139/17
f 79/114/25 84/120/25 96/142/25 95/140/25
f 84/120/25 72/103/25 92/135/25 96/142/25
f 24/27/25 79/114/25 95/140/25 91/133/25
f 80/115/17 47/66/17 89/130/17 93/137/17
f 48/67/26 81/116/26 94/139/26 90/132/26
f 98/146/17 97/143/17 101/151/17 102/153/17
f 99/147/25 100/149/25 104/157/25 103/155/25
f 79/114/22 24/27/22 99/148/22 103/156/22
f 84/120/3 79/114/3 103/156/3 104/158/3
f 24/27/4 72/103/4 100/150/4 99/148/4
f 47/66/27 80/115/27 101/152/27 97/144/27
f 72/103/27 84/120/27 104/158/27 100/150/27
f 80/115/3 81/116/3 102/154/3 101/152/3
f 105/160/3 106/161/3 44/60/3 45/63/3
