# Blender 3.4.0
# www.blender.org
mtllib Cube_011.mtl
o Cube.011
v -0.578546 5.621714 7.853847
v -0.539891 5.476944 7.857530
v -2.700863 5.614452 7.631859
v -2.662209 5.469682 7.635541
v -2.585400 5.125503 7.617296
v -2.619962 5.270857 7.614043
v -0.463347 5.098887 7.839177
v -0.497909 5.244241 7.835923
v -2.581704 5.125591 7.581959
v -2.616266 5.270945 7.578705
v -0.494213 5.244328 7.800586
v -0.459651 5.098975 7.803840
v -2.479036 4.653609 7.627247
v -2.513604 4.822811 7.624053
v -0.356981 4.622627 7.849117
v -0.391549 4.791829 7.845922
v -2.475340 4.653697 7.591910
v -2.509908 4.822899 7.588716
v -0.387853 4.791916 7.810585
v -0.353285 4.622715 7.813780
v -2.345998 4.476180 7.635396
v -2.273868 4.453295 7.642883
v -2.684602 5.711726 7.603055
v -2.612472 5.688842 7.610542
v -2.343404 4.476242 7.610593
v -2.271274 4.453357 7.618080
v -2.609877 5.688904 7.585740
v -2.682008 5.711788 7.578253
v -1.075826 4.433312 7.766411
v -1.020149 4.398011 7.772146
v -1.109913 5.541800 7.765603
v -1.054237 5.506498 7.771338
v -1.073589 4.433366 7.745021
v -1.017912 4.398065 7.750757
v -1.051999 5.506552 7.749949
v -1.107677 5.541853 7.744214
v -0.840881 4.335603 7.792861
v -0.770570 4.334765 7.800212
v -0.871730 5.567366 7.792699
v -0.801419 5.566529 7.800050
v -0.838205 4.335667 7.767276
v -0.767895 4.334829 7.774628
v -0.798743 5.566592 7.774466
v -0.869054 5.567430 7.767114
v -0.575527 5.621786 7.824979
v -0.536872 5.477016 7.828662
v -2.659190 5.469754 7.606674
v -2.697844 5.614524 7.602991
v -1.489535 4.615885 7.749896
v -1.454771 4.593844 7.753477
v -1.510818 5.307991 7.749392
v -1.476055 5.285950 7.752973
v -1.488138 4.615918 7.736541
v -1.453375 4.593877 7.740122
v -1.474658 5.285983 7.739618
v -1.509421 5.308024 7.736037
v -2.222409 5.640140 7.679382
v -2.137470 5.676623 7.688356
v -2.032238 4.404373 7.696200
v -1.947299 4.440856 7.705174
v -2.220343 5.640189 7.659625
v -2.135404 5.676672 7.668600
v -1.945233 4.440905 7.685418
v -2.030172 4.404422 7.676443
v -1.519693 5.618494 7.755405
v -1.481038 5.473724 7.759089
v -1.516673 5.618566 7.726538
v -1.478019 5.473795 7.730221
v -1.520853 5.581455 7.766504
v -1.517834 5.581527 7.737637
v -1.482199 5.436685 7.770186
v -1.479180 5.436757 7.741319
vn 0.1040 0.0025 -0.9946
vn -0.1040 -0.0025 0.9946
vn -0.9673 -0.2323 -0.1018
vn 0.0121 0.9999 0.0038
vn 0.9673 0.2323 0.1018
vn -0.0121 -0.9999 -0.0038
vn -0.9742 -0.2010 -0.1024
vn 0.0142 0.9999 0.0040
vn 0.9742 0.2010 0.1024
vn -0.0142 -0.9999 -0.0040
vn 0.2991 0.9536 0.0337
vn -0.9588 -0.2654 -0.1009
vn -0.2991 -0.9536 -0.0337
vn 0.9588 0.2654 0.1009
vn 0.5303 0.8458 0.0576
vn -0.9941 -0.0306 -0.1040
vn -0.5303 -0.8458 -0.0576
vn 0.9941 0.0306 0.1041
vn 0.0115 0.9999 0.0037
vn -0.9943 -0.0249 -0.1041
vn -0.0115 -0.9999 -0.0037
vn 0.9943 0.0249 0.1041
vn -0.0273 -0.9996 -0.0053
vn -0.9606 -0.2590 -0.1011
vn -0.0036 1.0000 0.0021
vn 0.9606 0.2590 0.1011
vn 0.5304 0.8458 0.0576
vn 0.9941 0.0306 0.1040
vn -0.3909 0.9196 -0.0386
vn 0.9829 0.1527 0.1032
vn 0.3909 -0.9196 0.0386
vn -0.9829 -0.1527 -0.1032
vn -0.9687 -0.0429 -0.2444
vn -0.8305 -0.1358 -0.5402
vn -0.9946 -0.0000 -0.1040
vn 0.0036 -1.0000 -0.0021
vn 0.8305 0.1358 0.5402
vn 0.6636 0.1956 0.7221
vn 0.9687 0.0429 0.2444
vn -0.6636 -0.1956 -0.7221
vn 0.1135 0.0050 -0.9935
vn -0.1135 -0.0050 0.9935
vn 0.0273 0.9996 0.0053
vn 0.9946 -0.0000 0.1040
vt 0.597203 0.396438
vt 0.595854 0.381446
vt 0.670354 0.395528
vt 0.669004 0.380536
vt 0.518044 0.371463
vt 0.516832 0.356410
vt 0.592039 0.374161
vt 0.590834 0.359109
vt 0.518044 0.371463
vt 0.516832 0.356410
vt 0.590834 0.359109
vt 0.592039 0.374162
vt 0.520755 0.339286
vt 0.519543 0.331201
vt 0.594695 0.340702
vt 0.593496 0.332618
vt 0.520755 0.339286
vt 0.519543 0.331201
vt 0.593496 0.332618
vt 0.594695 0.340702
vt 0.554491 0.283719
vt 0.556708 0.285142
vt 0.528782 0.365749
vt 0.531011 0.367173
vt 0.554491 0.283719
vt 0.556708 0.285142
vt 0.531011 0.367173
vt 0.528782 0.365749
vt 0.587034 0.285184
vt 0.589239 0.286606
vt 0.561492 0.367234
vt 0.563707 0.368656
vt 0.587034 0.285184
vt 0.589239 0.286606
vt 0.563707 0.368656
vt 0.561492 0.367234
vt 0.546946 0.282277
vt 0.548689 0.278892
vt 0.563789 0.374992
vt 0.565527 0.371607
vt 0.546946 0.282277
vt 0.548689 0.278892
vt 0.565527 0.371607
vt 0.563789 0.374992
vt 0.597203 0.396438
vt 0.595854 0.381446
vt 0.669004 0.380536
vt 0.670354 0.395528
vt 0.587034 0.285184
vt 0.589239 0.286606
vt 0.561492 0.367234
vt 0.563707 0.368656
vt 0.587034 0.285184
vt 0.589239 0.286606
vt 0.563707 0.368656
vt 0.561492 0.367234
vt 0.520755 0.339286
vt 0.519543 0.331201
vt 0.594695 0.340702
vt 0.593496 0.332618
vt 0.520755 0.339286
vt 0.519543 0.331201
vt 0.593496 0.332618
vt 0.594695 0.340702
vt 0.629642 0.396034
vt 0.628293 0.381042
vt 0.629642 0.396034
vt 0.628293 0.381042
vt 0.629642 0.396034
vt 0.629642 0.396034
vt 0.628293 0.381042
vt 0.628293 0.381042
s 1
usemtl random_pier
f 65/65/1 1/1/1 2/2/1 66/66/1
f 7/7/1 5/5/1 6/6/1 8/8/1
f 12/12/2 11/11/2 10/10/2 9/9/2
f 7/7/3 8/8/3 11/11/3 12/12/3
f 5/5/4 7/7/4 12/12/4 9/9/4
f 6/6/5 5/5/5 9/9/5 10/10/5
f 8/8/6 6/6/6 10/10/6 11/11/6
f 15/15/1 13/13/1 14/14/1 16/16/1
f 20/20/2 19/19/2 18/18/2 17/17/2
f 15/15/7 16/16/7 19/19/7 20/20/7
f 13/13/8 15/15/8 20/20/8 17/17/8
f 14/14/9 13/13/9 17/17/9 18/18/9
f 16/16/10 14/14/10 18/18/10 19/19/10
f 23/23/2 21/21/2 22/22/2 24/24/2
f 28/28/1 27/27/1 26/26/1 25/25/1
f 23/23/11 24/24/11 27/27/11 28/28/11
f 21/21/12 23/23/12 28/28/12 25/25/12
f 22/22/13 21/21/13 25/25/13 26/26/13
f 24/24/14 22/22/14 26/26/14 27/27/14
f 31/31/2 29/29/2 30/30/2 32/32/2
f 36/36/1 35/35/1 34/34/1 33/33/1
f 31/31/15 32/32/15 35/35/15 36/36/15
f 29/29/16 31/31/16 36/36/16 33/33/16
f 30/30/17 29/29/17 33/33/17 34/34/17
f 32/32/18 30/30/18 34/34/18 35/35/18
f 39/39/2 37/37/2 38/38/2 40/40/2
f 44/44/1 43/43/1 42/42/1 41/41/1
f 39/39/19 40/40/19 43/43/19 44/44/19
f 37/37/20 39/39/20 44/44/20 41/41/20
f 38/38/21 37/37/21 41/41/21 42/42/21
f 40/40/22 38/38/22 42/42/22 43/43/22
f 67/67/2 68/68/2 46/46/2 45/45/2
f 69/69/23 3/3/23 48/48/23 70/70/23
f 2/2/24 1/1/24 45/45/24 46/46/24
f 66/66/25 2/2/25 46/46/25 68/68/25
f 3/3/26 4/4/26 47/47/26 48/48/26
f 51/51/2 49/49/2 50/50/2 52/52/2
f 56/56/1 55/55/1 54/54/1 53/53/1
f 51/51/27 52/52/27 55/55/27 56/56/27
f 49/49/16 51/51/16 56/56/16 53/53/16
f 50/50/17 49/49/17 53/53/17 54/54/17
f 52/52/28 50/50/28 54/54/28 55/55/28
f 59/59/1 57/57/1 58/58/1 60/60/1
f 64/64/2 63/63/2 62/62/2 61/61/2
f 59/59/29 60/60/29 63/63/29 64/64/29
f 57/57/30 59/59/30 64/64/30 61/61/30
f 58/58/31 57/57/31 61/61/31 62/62/31
f 60/60/32 58/58/32 62/62/32 63/63/32
f 71/71/33 66/66/34 68/68/35 72/72/35
f 1/1/36 65/65/36 67/67/36 45/45/36
f 70/70/37 72/72/38 68/68/38 67/67/39
f 69/69/40 65/65/40 66/66/34 71/71/33
f 3/3/41 69/69/41 71/71/41 4/4/41
f 48/48/42 47/47/42 72/72/42 70/70/42
f 4/4/43 71/71/43 72/72/43 47/47/43
f 65/65/44 69/69/44 70/70/37 67/67/39
