# Blender 3.4.0
# www.blender.org
mtllib Cube_043.mtl
o Cube.043
v 8.600086 5.475966 10.501553
v 8.554194 5.335315 10.529557
v 8.786467 5.473396 8.698952
v 8.740575 5.332745 8.726956
v 8.605338 5.006793 8.775611
v 8.651037 5.148004 8.751101
v 8.409050 4.976468 10.576859
v 8.454749 5.117678 10.552349
v 8.566431 5.018683 8.771572
v 8.612130 5.159894 8.747062
v 8.415842 5.129568 10.548309
v 8.370143 4.988358 10.572819
v 8.457494 4.548364 8.850222
v 8.510187 4.712730 8.826501
v 8.259925 4.513798 10.651325
v 8.312618 4.678164 10.627604
v 8.418587 4.560254 8.846182
v 8.471280 4.724621 8.822461
v 8.273711 4.690055 10.623566
v 8.221018 4.525688 10.647285
v 8.387887 4.377561 8.956222
v 8.374768 4.355188 9.016716
v 8.780325 5.577981 8.709822
v 8.767207 5.555608 8.770315
v 8.360578 4.385906 8.953386
v 8.347460 4.363533 9.013880
v 8.739899 5.563954 8.767480
v 8.753016 5.586327 8.706986
v 8.260632 4.333825 10.033129
v 8.245333 4.299430 10.079237
v 8.588758 5.410229 10.041104
v 8.573460 5.375834 10.087212
v 8.237081 4.341022 10.030684
v 8.221783 4.306628 10.076792
v 8.549910 5.383032 10.084766
v 8.565207 5.417426 10.038659
v 8.213398 4.237752 10.229826
v 8.206907 4.236791 10.289509
v 8.577392 5.433849 10.244658
v 8.570901 5.432888 10.304340
v 8.185228 4.246361 10.226901
v 8.178738 4.245400 10.286584
v 8.542732 5.441497 10.301415
v 8.549223 5.442458 10.241733
v 8.568302 5.485680 10.498252
v 8.522410 5.345028 10.526257
v 8.708791 5.342458 8.723657
v 8.754683 5.483110 8.695652
v 8.379344 4.503278 9.693159
v 8.369792 4.481803 9.721948
v 8.584217 5.175352 9.698139
v 8.574665 5.153877 9.726927
v 8.364640 4.507772 9.691633
v 8.355088 4.486297 9.720421
v 8.559960 5.158371 9.725400
v 8.569512 5.179846 9.696612
v 8.748713 5.498182 9.105611
v 8.751868 5.533428 9.178961
v 8.369396 4.297860 9.225950
v 8.372552 4.333106 9.299299
v 8.726960 5.504829 9.103353
v 8.730115 5.540075 9.176702
v 8.350799 4.339754 9.297041
v 8.347643 4.304508 9.223692
v 8.682737 5.474827 9.702185
v 8.636845 5.334175 9.730189
v 8.650953 5.484540 9.698885
v 8.605061 5.343888 9.726890
v 8.684201 5.435124 9.702239
v 8.652417 5.444838 9.698939
v 8.638309 5.294472 9.730244
v 8.606525 5.304186 9.726944
vn -0.9517 0.2908 -0.0988
vn 0.9517 -0.2908 0.0988
vn 0.0454 -0.1851 -0.9817
vn 0.2874 0.9566 0.0474
vn -0.0454 0.1851 0.9817
vn -0.2874 -0.9566 -0.0474
vn 0.0536 -0.1594 -0.9857
vn 0.2872 0.9566 0.0499
vn -0.0536 0.1594 0.9857
vn -0.2872 -0.9566 -0.0499
vn 0.2337 0.8944 0.3814
vn 0.0365 -0.2124 -0.9765
vn -0.2337 -0.8944 -0.3814
vn -0.0365 0.2124 0.9765
vn 0.1682 0.7626 0.6247
vn 0.0966 -0.0221 -0.9951
vn -0.1682 -0.7626 -0.6247
vn -0.0966 0.0221 0.9951
vn 0.2875 0.9566 0.0467
vn 0.0980 -0.0175 -0.9950
vn -0.2875 -0.9566 -0.0467
vn -0.0980 0.0175 0.9950
vn -0.2854 -0.9562 -0.0656
vn 0.0382 -0.2071 -0.9776
vn 0.2894 0.9568 0.0286
vn -0.0382 0.2071 0.9776
vn 0.3047 0.8533 -0.4231
vn -0.0661 0.1202 0.9905
vn -0.3047 -0.8533 0.4231
vn 0.0661 -0.1202 -0.9905
vn -0.0075 -0.0016 -1.0000
vn -0.2715 -0.0113 -0.9624
vn 0.1040 0.0025 -0.9946
vn -0.2894 -0.9568 -0.0286
vn 0.2715 0.0113 0.9624
vn 0.4781 0.0188 0.8781
vn 0.0075 0.0016 1.0000
vn -0.4781 -0.0188 -0.8781
vn -0.9521 0.2936 -0.0858
vn 0.9521 -0.2936 0.0858
vn 0.2854 0.9562 0.0656
vn -0.1040 -0.0025 0.9946
vt 0.597203 0.396438
vt 0.595854 0.381446
vt 0.670354 0.395528
vt 0.669004 0.380536
vt 0.518044 0.371463
vt 0.516832 0.356410
vt 0.592039 0.374161
vt 0.590834 0.359109
vt 0.518044 0.371463
vt 0.516832 0.356410
vt 0.590834 0.359109
vt 0.592039 0.374162
vt 0.520755 0.339286
vt 0.519543 0.331201
vt 0.594695 0.340702
vt 0.593496 0.332618
vt 0.520755 0.339286
vt 0.519543 0.331201
vt 0.593496 0.332618
vt 0.594695 0.340702
vt 0.554491 0.283719
vt 0.556708 0.285142
vt 0.528782 0.365749
vt 0.531011 0.367173
vt 0.554491 0.283719
vt 0.556708 0.285142
vt 0.531011 0.367173
vt 0.528782 0.365749
vt 0.587034 0.285184
vt 0.589239 0.286606
vt 0.561492 0.367234
vt 0.563707 0.368656
vt 0.587034 0.285184
vt 0.589239 0.286606
vt 0.563707 0.368656
vt 0.561492 0.367234
vt 0.546946 0.282277
vt 0.548689 0.278892
vt 0.563789 0.374992
vt 0.565527 0.371607
vt 0.546946 0.282277
vt 0.548689 0.278892
vt 0.565527 0.371607
vt 0.563789 0.374992
vt 0.597203 0.396438
vt 0.595854 0.381446
vt 0.669004 0.380536
vt 0.670354 0.395528
vt 0.587034 0.285184
vt 0.589239 0.286606
vt 0.561492 0.367234
vt 0.563707 0.368656
vt 0.587034 0.285184
vt 0.589239 0.286606
vt 0.563707 0.368656
vt 0.561492 0.367234
vt 0.520755 0.339286
vt 0.519543 0.331201
vt 0.594695 0.340702
vt 0.593496 0.332618
vt 0.520755 0.339286
vt 0.519543 0.331201
vt 0.593496 0.332618
vt 0.594695 0.340702
vt 0.629642 0.396034
vt 0.628293 0.381042
vt 0.629642 0.396034
vt 0.628293 0.381042
vt 0.629642 0.396034
vt 0.629642 0.396034
vt 0.628293 0.381042
vt 0.628293 0.381042
s 1
usemtl random_pier
f 65/65/1 66/66/1 2/2/1 1/1/1
f 7/7/1 8/8/1 6/6/1 5/5/1
f 12/12/2 9/9/2 10/10/2 11/11/2
f 7/7/3 12/12/3 11/11/3 8/8/3
f 5/5/4 9/9/4 12/12/4 7/7/4
f 6/6/5 10/10/5 9/9/5 5/5/5
f 8/8/6 11/11/6 10/10/6 6/6/6
f 15/15/1 16/16/1 14/14/1 13/13/1
f 20/20/2 17/17/2 18/18/2 19/19/2
f 15/15/7 20/20/7 19/19/7 16/16/7
f 13/13/8 17/17/8 20/20/8 15/15/8
f 14/14/9 18/18/9 17/17/9 13/13/9
f 16/16/10 19/19/10 18/18/10 14/14/10
f 23/23/2 24/24/2 22/22/2 21/21/2
f 28/28/1 25/25/1 26/26/1 27/27/1
f 23/23/11 28/28/11 27/27/11 24/24/11
f 21/21/12 25/25/12 28/28/12 23/23/12
f 22/22/13 26/26/13 25/25/13 21/21/13
f 24/24/14 27/27/14 26/26/14 22/22/14
f 31/31/2 32/32/2 30/30/2 29/29/2
f 36/36/1 33/33/1 34/34/1 35/35/1
f 31/31/15 36/36/15 35/35/15 32/32/15
f 29/29/16 33/33/16 36/36/16 31/31/16
f 30/30/17 34/34/17 33/33/17 29/29/17
f 32/32/18 35/35/18 34/34/18 30/30/18
f 39/39/2 40/40/2 38/38/2 37/37/2
f 44/44/1 41/41/1 42/42/1 43/43/1
f 39/39/19 44/44/19 43/43/19 40/40/19
f 37/37/20 41/41/20 44/44/20 39/39/20
f 38/38/21 42/42/21 41/41/21 37/37/21
f 40/40/22 43/43/22 42/42/22 38/38/22
f 67/67/2 45/45/2 46/46/2 68/68/2
f 69/69/23 70/70/23 48/48/23 3/3/23
f 2/2/24 46/46/24 45/45/24 1/1/24
f 66/66/25 68/68/25 46/46/25 2/2/25
f 3/3/26 48/48/26 47/47/26 4/4/26
f 51/51/2 52/52/2 50/50/2 49/49/2
f 56/56/1 53/53/1 54/54/1 55/55/1
f 51/51/15 56/56/15 55/55/15 52/52/15
f 49/49/16 53/53/16 56/56/16 51/51/16
f 50/50/17 54/54/17 53/53/17 49/49/17
f 52/52/18 55/55/18 54/54/18 50/50/18
f 59/59/1 60/60/1 58/58/1 57/57/1
f 64/64/2 61/61/2 62/62/2 63/63/2
f 59/59/27 64/64/27 63/63/27 60/60/27
f 57/57/28 61/61/28 64/64/28 59/59/28
f 58/58/29 62/62/29 61/61/29 57/57/29
f 60/60/30 63/63/30 62/62/30 58/58/30
f 71/71/31 72/72/33 68/68/33 66/66/32
f 1/1/34 45/45/34 67/67/34 65/65/34
f 70/70/35 67/67/37 68/68/36 72/72/36
f 69/69/38 71/71/31 66/66/32 65/65/38
f 3/3/39 4/4/39 71/71/39 69/69/39
f 48/48/40 70/70/40 72/72/40 47/47/40
f 4/4/41 47/47/41 72/72/41 71/71/41
f 65/65/42 67/67/37 70/70/35 69/69/42
