# Blender 3.4.0
# www.blender.org
mtllib Cube_016.mtl
o Cube.016
v -2.865270 5.608468 9.300390
v -2.826789 5.469874 9.337225
v -2.674662 5.606001 7.498233
v -2.636181 5.467407 7.535067
v -2.519045 5.145243 7.610126
v -2.558058 5.284387 7.576752
v -2.699825 5.115296 9.412997
v -2.738838 5.254439 9.379622
v -2.485238 5.155576 7.613688
v -2.524251 5.294720 7.580314
v -2.705031 5.264772 9.383184
v -2.666018 5.125629 9.416559
v -2.391868 4.693523 7.713518
v -2.437785 4.855484 7.679478
v -2.571384 4.659398 9.516511
v -2.617301 4.821359 9.482471
v -2.358061 4.703856 7.717080
v -2.403978 4.865817 7.683040
v -2.583494 4.831692 9.486032
v -2.537577 4.669731 9.520073
v -2.347223 4.525011 7.831474
v -2.347004 4.502964 7.893363
v -2.674869 5.707864 7.509717
v -2.674650 5.685817 7.571606
v -2.323494 4.532263 7.833974
v -2.323275 4.510216 7.895863
v -2.650921 5.693069 7.574106
v -2.651140 5.715117 7.512217
v -2.445981 4.481810 8.911363
v -2.440706 4.447917 8.959623
v -2.763888 5.542453 8.851730
v -2.758612 5.508560 8.899991
v -2.425518 4.488064 8.913519
v -2.420242 4.454172 8.961780
v -2.738149 5.514815 8.902146
v -2.743424 5.548707 8.853886
v -2.440587 4.387218 9.113567
v -2.446590 4.386269 9.173302
v -2.794473 5.565802 9.053272
v -2.800476 5.564853 9.113007
v -2.416111 4.394700 9.116146
v -2.422113 4.393751 9.175879
v -2.775999 5.572334 9.115585
v -2.769997 5.573283 9.055851
v -2.837653 5.616910 9.303300
v -2.799171 5.478316 9.340135
v -2.608563 5.475849 7.537977
v -2.647045 5.614443 7.501143
v -2.487244 4.649812 8.554658
v -2.483950 4.628651 8.584790
v -2.685735 5.312046 8.517426
v -2.682441 5.290884 8.547558
v -2.474467 4.653718 8.556004
v -2.471174 4.632556 8.586137
v -2.669665 5.294789 8.548903
v -2.672959 5.315951 8.518771
v -2.722127 5.630309 7.903875
v -2.740235 5.665036 7.974999
v -2.381236 4.447558 8.099585
v -2.399343 4.482285 8.170708
v -2.703226 5.636086 7.905867
v -2.721333 5.670814 7.976991
v -2.380442 4.488062 8.172699
v -2.362335 4.453335 8.101575
v -2.780745 5.607374 8.501220
v -2.742264 5.468781 8.538054
v -2.753127 5.615816 8.504129
v -2.714646 5.477222 8.540963
v -2.780735 5.568691 8.501124
v -2.753117 5.577132 8.504034
v -2.742254 5.430097 8.537959
v -2.714636 5.438539 8.540869
vn 0.9515 0.2908 0.1002
vn -0.9515 -0.2908 -0.1002
vn 0.1595 -0.1877 -0.9692
vn -0.2910 0.9566 -0.0133
vn -0.1595 0.1877 0.9692
vn 0.2910 -0.9566 0.0133
vn 0.1522 -0.1618 -0.9750
vn -0.2912 0.9566 -0.0109
vn -0.1522 0.1618 0.9750
vn 0.2912 -0.9566 0.0109
vn -0.3076 0.8960 0.3203
vn 0.1672 -0.2154 -0.9621
vn 0.3076 -0.8960 -0.3203
vn -0.1672 0.2154 0.9621
vn -0.2944 0.7666 0.5706
vn 0.1115 -0.0224 -0.9935
vn 0.2944 -0.7666 -0.5706
vn -0.1115 0.0224 0.9935
vn -0.2909 0.9566 -0.0140
vn 0.1101 -0.0178 -0.9938
vn 0.2909 -0.9566 0.0140
vn -0.1101 0.0178 0.9938
vn 0.2927 -0.9562 -0.0046
vn 0.1657 -0.2101 -0.9635
vn -0.2891 0.9568 -0.0319
vn -0.1657 0.2101 0.9635
vn -0.2119 0.8559 -0.4718
vn -0.1408 0.1220 0.9825
vn 0.2119 -0.8559 0.4718
vn 0.1408 -0.1220 -0.9825
vn 0.2291 0.0025 -0.9734
vn 0.5054 0.0023 -0.8629
vn 0.1040 0.0025 -0.9946
vn 0.2891 -0.9568 0.0319
vn -0.5054 -0.0023 0.8629
vn -0.6951 -0.0019 0.7189
vn -0.2291 -0.0025 0.9734
vn 0.6951 0.0019 -0.7189
vn 0.9495 0.2932 0.1113
vn -0.9495 -0.2932 -0.1113
vn -0.2927 0.9562 0.0046
vn -0.1040 -0.0025 0.9946
vt 0.597203 0.396438
vt 0.595854 0.381446
vt 0.670354 0.395528
vt 0.669004 0.380536
vt 0.518044 0.371463
vt 0.516832 0.356410
vt 0.592039 0.374161
vt 0.590834 0.359109
vt 0.518044 0.371463
vt 0.516832 0.356410
vt 0.590834 0.359109
vt 0.592039 0.374162
vt 0.520755 0.339286
vt 0.519543 0.331201
vt 0.594695 0.340702
vt 0.593496 0.332618
vt 0.520755 0.339286
vt 0.519543 0.331201
vt 0.593496 0.332618
vt 0.594695 0.340702
vt 0.554491 0.283719
vt 0.556708 0.285142
vt 0.528782 0.365749
vt 0.531011 0.367173
vt 0.554491 0.283719
vt 0.556708 0.285142
vt 0.531011 0.367173
vt 0.528782 0.365749
vt 0.587034 0.285184
vt 0.589239 0.286606
vt 0.561492 0.367234
vt 0.563707 0.368656
vt 0.587034 0.285184
vt 0.589239 0.286606
vt 0.563707 0.368656
vt 0.561492 0.367234
vt 0.546946 0.282277
vt 0.548689 0.278892
vt 0.563789 0.374992
vt 0.565527 0.371607
vt 0.546946 0.282277
vt 0.548689 0.278892
vt 0.565527 0.371607
vt 0.563789 0.374992
vt 0.597203 0.396438
vt 0.595854 0.381446
vt 0.669004 0.380536
vt 0.670354 0.395528
vt 0.587034 0.285184
vt 0.589239 0.286606
vt 0.561492 0.367234
vt 0.563707 0.368656
vt 0.587034 0.285184
vt 0.589239 0.286606
vt 0.563707 0.368656
vt 0.561492 0.367234
vt 0.520755 0.339286
vt 0.519543 0.331201
vt 0.594695 0.340702
vt 0.593496 0.332618
vt 0.520755 0.339286
vt 0.519543 0.331201
vt 0.593496 0.332618
vt 0.594695 0.340702
vt 0.629642 0.396034
vt 0.628293 0.381042
vt 0.629642 0.396034
vt 0.628293 0.381042
vt 0.629642 0.396034
vt 0.629642 0.396034
vt 0.628293 0.381042
vt 0.628293 0.381042
s 1
usemtl random_pier
f 65/65/1 1/1/1 2/2/1 66/66/1
f 7/7/1 5/5/1 6/6/1 8/8/1
f 12/12/2 11/11/2 10/10/2 9/9/2
f 7/7/3 8/8/3 11/11/3 12/12/3
f 5/5/4 7/7/4 12/12/4 9/9/4
f 6/6/5 5/5/5 9/9/5 10/10/5
f 8/8/6 6/6/6 10/10/6 11/11/6
f 15/15/1 13/13/1 14/14/1 16/16/1
f 20/20/2 19/19/2 18/18/2 17/17/2
f 15/15/7 16/16/7 19/19/7 20/20/7
f 13/13/8 15/15/8 20/20/8 17/17/8
f 14/14/9 13/13/9 17/17/9 18/18/9
f 16/16/10 14/14/10 18/18/10 19/19/10
f 23/23/2 21/21/2 22/22/2 24/24/2
f 28/28/1 27/27/1 26/26/1 25/25/1
f 23/23/11 24/24/11 27/27/11 28/28/11
f 21/21/12 23/23/12 28/28/12 25/25/12
f 22/22/13 21/21/13 25/25/13 26/26/13
f 24/24/14 22/22/14 26/26/14 27/27/14
f 31/31/2 29/29/2 30/30/2 32/32/2
f 36/36/1 35/35/1 34/34/1 33/33/1
f 31/31/15 32/32/15 35/35/15 36/36/15
f 29/29/16 31/31/16 36/36/16 33/33/16
f 30/30/17 29/29/17 33/33/17 34/34/17
f 32/32/18 30/30/18 34/34/18 35/35/18
f 39/39/2 37/37/2 38/38/2 40/40/2
f 44/44/1 43/43/1 42/42/1 41/41/1
f 39/39/19 40/40/19 43/43/19 44/44/19
f 37/37/20 39/39/20 44/44/20 41/41/20
f 38/38/21 37/37/21 41/41/21 42/42/21
f 40/40/22 38/38/22 42/42/22 43/43/22
f 67/67/2 68/68/2 46/46/2 45/45/2
f 69/69/23 3/3/23 48/48/23 70/70/23
f 2/2/24 1/1/24 45/45/24 46/46/24
f 66/66/25 2/2/25 46/46/25 68/68/25
f 3/3/26 4/4/26 47/47/26 48/48/26
f 51/51/2 49/49/2 50/50/2 52/52/2
f 56/56/1 55/55/1 54/54/1 53/53/1
f 51/51/15 52/52/15 55/55/15 56/56/15
f 49/49/16 51/51/16 56/56/16 53/53/16
f 50/50/17 49/49/17 53/53/17 54/54/17
f 52/52/18 50/50/18 54/54/18 55/55/18
f 59/59/1 57/57/1 58/58/1 60/60/1
f 64/64/2 63/63/2 62/62/2 61/61/2
f 59/59/27 60/60/27 63/63/27 64/64/27
f 57/57/28 59/59/28 64/64/28 61/61/28
f 58/58/29 57/57/29 61/61/29 62/62/29
f 60/60/30 58/58/30 62/62/30 63/63/30
f 71/71/31 66/66/32 68/68/33 72/72/33
f 1/1/34 65/65/34 67/67/34 45/45/34
f 70/70/35 72/72/36 68/68/36 67/67/37
f 69/69/38 65/65/38 66/66/32 71/71/31
f 3/3/39 69/69/39 71/71/39 4/4/39
f 48/48/40 47/47/40 72/72/40 70/70/40
f 4/4/41 71/71/41 72/72/41 47/47/41
f 65/65/42 69/69/42 70/70/35 67/67/37
