# Blender 3.4.0
# www.blender.org
mtllib Cube_1490.mtl
o Cube.1490
v 1.008019 8.226278 13.068660
v 1.036543 8.227285 13.059123
v 1.046129 8.225078 13.087564
v 1.017605 8.224071 13.097100
v 1.001074 9.051586 13.135056
v 1.029598 9.052593 13.125520
v 1.039185 9.050385 13.153959
v 1.010661 9.049378 13.163496
v 1.296895 9.633541 14.077972
v 1.323413 9.634478 14.069106
v 1.323179 9.662363 14.071349
v 1.296661 9.661427 14.080215
v 0.705890 9.769622 12.324666
v 0.732407 9.770558 12.315800
v 0.732173 9.798444 12.318043
v 0.705655 9.797507 12.326909
v 1.005766 9.051438 13.137383
v 1.027267 9.052197 13.130195
v 1.034493 9.050533 13.151632
v 1.012992 9.049774 13.158821
v 1.000380 9.691552 13.188881
v 1.021881 9.692311 13.181692
v 1.029107 9.690648 13.203130
v 1.007606 9.689888 13.210318
v 0.739788 9.774500 12.383785
v 0.747758 9.774176 12.388644
v 0.747680 9.783485 12.389393
v 0.739710 9.783810 12.384534
v 1.062697 9.819584 11.857161
v 1.070667 9.819260 11.862020
v 1.070589 9.828569 11.862769
v 1.062619 9.828894 11.857910
v 0.820067 9.756015 12.621944
v 0.828037 9.755692 12.626803
v 0.827959 9.765001 12.627552
v 0.819989 9.765326 12.622693
v 1.142976 9.801099 12.095320
v 1.150946 9.800776 12.100180
v 1.150868 9.810085 12.100928
v 1.142898 9.810410 12.096069
v 0.901641 9.737232 12.863945
v 0.909611 9.736909 12.868804
v 0.909533 9.746219 12.869553
v 0.901563 9.746542 12.864694
v 1.224550 9.782316 12.337320
v 1.232520 9.781993 12.342180
v 1.232442 9.791303 12.342929
v 1.224472 9.791626 12.338070
v 1.069968 9.698475 13.363311
v 1.077938 9.698151 13.368170
v 1.077860 9.707460 13.368919
v 1.069890 9.707785 13.364059
v 1.392877 9.743559 12.836687
v 1.400847 9.743235 12.841546
v 1.400768 9.752544 12.842295
v 1.392798 9.752869 12.837436
v 1.163195 9.677010 13.639883
v 1.171165 9.676685 13.644742
v 1.171087 9.685995 13.645492
v 1.163117 9.686319 13.640632
v 1.486104 9.722093 13.113259
v 1.494074 9.721769 13.118118
v 1.493996 9.731079 13.118867
v 1.486026 9.731403 13.114008
v 1.255127 9.655842 13.912614
v 1.263097 9.655518 13.917473
v 1.263019 9.664827 13.918222
v 1.255049 9.665152 13.913363
v 1.578036 9.700926 13.385990
v 1.586006 9.700602 13.390849
v 1.585928 9.709911 13.391598
v 1.577958 9.710236 13.386739
v 0.736748 9.774392 12.384801
v 0.733337 9.773666 12.393466
v 0.733259 9.782976 12.394215
v 0.736670 9.783702 12.385550
v 0.160181 9.787714 12.158908
v 0.156769 9.786988 12.167573
v 0.156691 9.796298 12.168322
v 0.160102 9.797024 12.159657
v 0.817027 9.755908 12.622960
v 0.813616 9.755182 12.631625
v 0.813538 9.764492 12.632374
v 0.816949 9.765218 12.623710
v 0.240460 9.769230 12.397068
v 0.237048 9.768503 12.405732
v 0.236970 9.777814 12.406481
v 0.240381 9.778540 12.397817
v 0.898601 9.737125 12.864961
v 0.895190 9.736400 12.873626
v 0.895111 9.745709 12.874374
v 0.898523 9.746435 12.865710
v 0.322033 9.750447 12.639069
v 0.318622 9.749722 12.647733
v 0.318544 9.759031 12.648481
v 0.321955 9.759757 12.639817
v 0.978880 9.718641 13.103121
v 0.975469 9.717915 13.111785
v 0.975390 9.727224 13.112534
v 0.978802 9.727951 13.103869
v 0.402312 9.731962 12.877228
v 0.398901 9.731236 12.885892
v 0.398822 9.740546 12.886641
v 0.402234 9.741272 12.877976
v 1.066928 9.698367 13.364327
v 1.063516 9.697641 13.372992
v 1.063438 9.706951 13.373741
v 1.066849 9.707678 13.365076
v 0.491110 9.622607 13.131268
v 0.487698 9.621881 13.139933
v 0.487620 9.631191 13.140681
v 0.491031 9.631917 13.132017
v 1.160155 9.676902 13.640900
v 1.156744 9.676176 13.649564
v 1.156665 9.685486 13.650312
v 1.160077 9.686212 13.641648
v 0.583587 9.690224 13.415007
v 0.580176 9.689498 13.423671
v 0.580097 9.698808 13.424420
v 0.583509 9.699533 13.415755
v 1.252087 9.655734 13.913630
v 1.248676 9.655008 13.922295
v 1.248598 9.664318 13.923043
v 1.252009 9.665044 13.914379
v 0.675520 9.669056 13.687737
v 0.672108 9.668330 13.696402
v 0.672030 9.677640 13.697151
v 0.675441 9.678366 13.688486
v 1.203581 8.950687 13.086981
v 1.203844 8.919363 13.084461
v 1.191780 8.574262 13.061744
v 1.188727 8.937089 13.090933
v 1.192270 8.570363 13.110256
v 1.189217 8.933190 13.139446
v 1.164060 8.566947 13.149772
v 1.161007 8.929773 13.178962
v 1.117925 8.565317 13.165196
v 1.114872 8.928144 13.194386
v 1.071488 8.566098 13.150639
v 1.068435 8.928925 13.179828
v 1.042485 8.568990 13.111658
v 1.039433 8.931817 13.140848
v 1.041996 8.572888 13.063146
v 1.038943 8.935716 13.092335
v 1.070206 8.576305 13.023629
v 1.067153 8.939132 13.052819
v 1.116340 8.577934 13.008205
v 1.113287 8.940762 13.037395
v 1.162777 8.577154 13.022763
v 1.159724 8.939981 13.051952
v 1.204432 8.914683 13.142699
v 1.204169 8.946007 13.145220
v 1.170567 8.910582 13.190136
v 1.170304 8.941906 13.192657
v 1.115185 8.908626 13.208653
v 1.114921 8.939950 13.211173
v 1.059439 8.909563 13.191176
v 1.059175 8.940887 13.193697
v 1.024622 8.913034 13.144382
v 1.024359 8.944359 13.146902
v 1.024034 8.917715 13.086144
v 1.023771 8.949039 13.088664
v 1.057899 8.921816 13.038707
v 1.057636 8.953140 13.041227
v 1.113282 8.923772 13.020190
v 1.113018 8.955096 13.022711
v 1.169028 8.922834 13.037667
v 1.168764 8.954159 13.040187
v 1.197176 8.950461 13.089123
v 1.197722 8.946115 13.143198
v 1.166277 8.942307 13.187244
v 1.114853 8.940492 13.204438
v 1.063092 8.941361 13.188210
v 1.030764 8.944585 13.144761
v 1.030218 8.948931 13.090686
v 1.061662 8.952739 13.046638
v 1.113086 8.954555 13.029446
v 1.164848 8.953685 13.045673
v 1.198516 8.791237 13.076313
v 1.199062 8.786891 13.130388
v 1.167617 8.783083 13.174435
v 1.116193 8.781267 13.191628
v 1.064431 8.782137 13.175401
v 1.032104 8.785360 13.131951
v 1.031557 8.789706 13.077876
v 1.063002 8.793514 13.033830
v 1.114426 8.795330 13.016636
v 1.166188 8.794460 13.032864
v 0.912978 8.229271 13.021520
v 1.083770 8.235302 12.964417
v 1.141170 8.222085 13.134704
v 0.970378 8.216054 13.191806
v 0.912854 8.243969 13.022702
v 1.083646 8.249999 12.965600
v 1.141046 8.236783 13.135886
v 0.970255 8.230752 13.192988
v 0.986865 8.246091 13.004060
v 1.013332 8.247025 12.995211
v 1.067035 8.234660 13.154529
v 1.040568 8.233726 13.163378
v 1.010318 8.593257 13.104540
v 1.032981 8.594057 13.096962
v 1.037647 8.592983 13.110806
v 1.014984 8.592183 13.118382
v 0.983036 9.742962 13.184584
v 1.029858 9.744616 13.168929
v 1.045595 9.740992 13.215612
v 0.998772 9.739338 13.231267
v 0.985240 9.481037 13.163511
v 1.032062 9.482691 13.147857
v 1.047799 9.479068 13.194541
v 1.000976 9.477414 13.210196
v 0.987729 9.185298 13.139719
v 1.034551 9.186952 13.124064
v 1.050287 9.183329 13.170749
v 1.003465 9.181675 13.186403
v 0.989501 8.974634 13.122771
v 1.036323 8.976288 13.107117
v 1.052060 8.972664 13.153801
v 1.005237 8.971011 13.169456
v 1.008019 8.226278 13.068660
v 1.008019 8.226278 13.068660
v 1.001074 9.051586 13.135056
v 1.001074 9.051586 13.135056
v 1.029598 9.052593 13.125520
v 1.029598 9.052593 13.125520
v 1.036543 8.227285 13.059123
v 1.036543 8.227285 13.059123
v 1.039185 9.050385 13.153959
v 1.039185 9.050385 13.153959
v 1.046129 8.225078 13.087564
v 1.046129 8.225078 13.087564
v 1.010661 9.049378 13.163496
v 1.010661 9.049378 13.163496
v 1.017605 8.224071 13.097100
v 1.017605 8.224071 13.097100
v 1.296895 9.633541 14.077972
v 1.296895 9.633541 14.077972
v 0.705890 9.769622 12.324666
v 0.705890 9.769622 12.324666
v 0.732407 9.770558 12.315800
v 0.732407 9.770558 12.315800
v 1.323413 9.634478 14.069106
v 1.323413 9.634478 14.069106
v 0.732173 9.798444 12.318043
v 0.732173 9.798444 12.318043
v 1.323179 9.662363 14.071349
v 1.323179 9.662363 14.071349
v 0.705655 9.797507 12.326909
v 0.705655 9.797507 12.326909
v 1.296661 9.661427 14.080215
v 1.296661 9.661427 14.080215
v 1.005766 9.051438 13.137383
v 1.005766 9.051438 13.137383
v 1.027267 9.052197 13.130195
v 1.027267 9.052197 13.130195
v 1.034493 9.050533 13.151632
v 1.034493 9.050533 13.151632
v 1.012992 9.049774 13.158821
v 1.012992 9.049774 13.158821
v 1.000380 9.691552 13.188881
v 1.000380 9.691552 13.188881
v 1.021881 9.692311 13.181692
v 1.021881 9.692311 13.181692
v 1.029107 9.690648 13.203130
v 1.029107 9.690648 13.203130
v 1.007606 9.689888 13.210318
v 1.007606 9.689888 13.210318
v 0.739788 9.774500 12.383785
v 0.739788 9.774500 12.383785
v 1.062697 9.819584 11.857161
v 1.062697 9.819584 11.857161
v 1.070667 9.819260 11.862020
v 1.070667 9.819260 11.862020
v 0.747758 9.774176 12.388644
v 0.747758 9.774176 12.388644
v 1.070589 9.828569 11.862769
v 1.070589 9.828569 11.862769
v 0.747680 9.783485 12.389393
v 0.747680 9.783485 12.389393
v 1.062619 9.828894 11.857910
v 1.062619 9.828894 11.857910
v 0.739710 9.783810 12.384534
v 0.739710 9.783810 12.384534
v 0.820067 9.756015 12.621944
v 0.820067 9.756015 12.621944
v 1.142976 9.801099 12.095320
v 1.142976 9.801099 12.095320
v 1.150946 9.800776 12.100180
v 1.150946 9.800776 12.100180
v 0.828037 9.755692 12.626803
v 0.828037 9.755692 12.626803
v 1.150868 9.810085 12.100928
v 1.150868 9.810085 12.100928
v 0.827959 9.765001 12.627552
v 0.827959 9.765001 12.627552
v 1.142898 9.810410 12.096069
v 1.142898 9.810410 12.096069
v 0.819989 9.765326 12.622693
v 0.819989 9.765326 12.622693
v 0.901641 9.737232 12.863945
v 0.901641 9.737232 12.863945
v 1.224550 9.782316 12.337320
v 1.224550 9.782316 12.337320
v 1.232520 9.781993 12.342180
v 1.232520 9.781993 12.342180
v 0.909611 9.736909 12.868804
v 0.909611 9.736909 12.868804
v 1.232442 9.791303 12.342929
v 1.232442 9.791303 12.342929
v 0.909533 9.746219 12.869553
v 0.909533 9.746219 12.869553
v 1.224472 9.791626 12.338070
v 1.224472 9.791626 12.338070
v 0.901563 9.746542 12.864694
v 0.901563 9.746542 12.864694
v 1.069968 9.698475 13.363311
v 1.069968 9.698475 13.363311
v 1.392877 9.743559 12.836687
v 1.392877 9.743559 12.836687
v 1.400847 9.743235 12.841546
v 1.400847 9.743235 12.841546
v 1.077938 9.698151 13.368170
v 1.077938 9.698151 13.368170
v 1.400768 9.752544 12.842295
v 1.400768 9.752544 12.842295
v 1.077860 9.707460 13.368919
v 1.077860 9.707460 13.368919
v 1.392798 9.752869 12.837436
v 1.392798 9.752869 12.837436
v 1.069890 9.707785 13.364059
v 1.069890 9.707785 13.364059
v 1.163195 9.677010 13.639883
v 1.163195 9.677010 13.639883
v 1.486104 9.722093 13.113259
v 1.486104 9.722093 13.113259
v 1.494074 9.721769 13.118118
v 1.494074 9.721769 13.118118
v 1.171165 9.676685 13.644742
v 1.171165 9.676685 13.644742
v 1.493996 9.731079 13.118867
v 1.493996 9.731079 13.118867
v 1.171087 9.685995 13.645492
v 1.171087 9.685995 13.645492
v 1.486026 9.731403 13.114008
v 1.486026 9.731403 13.114008
v 1.163117 9.686319 13.640632
v 1.163117 9.686319 13.640632
v 1.255127 9.655842 13.912614
v 1.255127 9.655842 13.912614
v 1.578036 9.700926 13.385990
v 1.578036 9.700926 13.385990
v 1.586006 9.700602 13.390849
v 1.586006 9.700602 13.390849
v 1.263097 9.655518 13.917473
v 1.263097 9.655518 13.917473
v 1.585928 9.709911 13.391598
v 1.585928 9.709911 13.391598
v 1.263019 9.664827 13.918222
v 1.263019 9.664827 13.918222
v 1.577958 9.710236 13.386739
v 1.577958 9.710236 13.386739
v 1.255049 9.665152 13.913363
v 1.255049 9.665152 13.913363
v 0.736748 9.774392 12.384801
v 0.736748 9.774392 12.384801
v 0.160181 9.787714 12.158908
v 0.160181 9.787714 12.158908
v 0.156769 9.786988 12.167573
v 0.156769 9.786988 12.167573
v 0.733337 9.773666 12.393466
v 0.733337 9.773666 12.393466
v 0.156691 9.796298 12.168322
v 0.156691 9.796298 12.168322
v 0.733259 9.782976 12.394215
v 0.733259 9.782976 12.394215
v 0.160102 9.797024 12.159657
v 0.160102 9.797024 12.159657
v 0.736670 9.783702 12.385550
v 0.736670 9.783702 12.385550
v 0.817027 9.755908 12.622960
v 0.817027 9.755908 12.622960
v 0.240460 9.769230 12.397068
v 0.240460 9.769230 12.397068
v 0.237048 9.768503 12.405732
v 0.237048 9.768503 12.405732
v 0.813616 9.755182 12.631625
v 0.813616 9.755182 12.631625
v 0.236970 9.777814 12.406481
v 0.236970 9.777814 12.406481
v 0.813538 9.764492 12.632374
v 0.813538 9.764492 12.632374
v 0.240381 9.778540 12.397817
v 0.240381 9.778540 12.397817
v 0.816949 9.765218 12.623710
v 0.816949 9.765218 12.623710
v 0.898601 9.737125 12.864961
v 0.898601 9.737125 12.864961
v 0.322033 9.750447 12.639069
v 0.322033 9.750447 12.639069
v 0.318622 9.749722 12.647733
v 0.318622 9.749722 12.647733
v 0.895190 9.736400 12.873626
v 0.895190 9.736400 12.873626
v 0.318544 9.759031 12.648481
v 0.318544 9.759031 12.648481
v 0.895111 9.745709 12.874374
v 0.895111 9.745709 12.874374
v 0.321955 9.759757 12.639817
v 0.321955 9.759757 12.639817
v 0.898523 9.746435 12.865710
v 0.898523 9.746435 12.865710
v 0.978880 9.718641 13.103121
v 0.978880 9.718641 13.103121
v 0.402312 9.731962 12.877228
v 0.402312 9.731962 12.877228
v 0.398901 9.731236 12.885892
v 0.398901 9.731236 12.885892
v 0.975469 9.717915 13.111785
v 0.975469 9.717915 13.111785
v 0.398822 9.740546 12.886641
v 0.398822 9.740546 12.886641
v 0.975390 9.727224 13.112534
v 0.975390 9.727224 13.112534
v 0.402234 9.741272 12.877976
v 0.402234 9.741272 12.877976
v 0.978802 9.727951 13.103869
v 0.978802 9.727951 13.103869
v 1.066928 9.698367 13.364327
v 1.066928 9.698367 13.364327
v 0.491110 9.622607 13.131268
v 0.491110 9.622607 13.131268
v 0.487698 9.621881 13.139933
v 0.487698 9.621881 13.139933
v 1.063516 9.697641 13.372992
v 1.063516 9.697641 13.372992
v 0.487620 9.631191 13.140681
v 0.487620 9.631191 13.140681
v 1.063438 9.706951 13.373741
v 1.063438 9.706951 13.373741
v 0.491031 9.631917 13.132017
v 0.491031 9.631917 13.132017
v 1.066849 9.707678 13.365076
v 1.066849 9.707678 13.365076
v 1.160155 9.676902 13.640900
v 1.160155 9.676902 13.640900
v 0.583587 9.690224 13.415007
v 0.583587 9.690224 13.415007
v 0.580176 9.689498 13.423671
v 0.580176 9.689498 13.423671
v 1.156744 9.676176 13.649564
v 1.156744 9.676176 13.649564
v 0.580097 9.698808 13.424420
v 0.580097 9.698808 13.424420
v 1.156665 9.685486 13.650312
v 1.156665 9.685486 13.650312
v 0.583509 9.699533 13.415755
v 0.583509 9.699533 13.415755
v 1.160077 9.686212 13.641648
v 1.160077 9.686212 13.641648
v 1.252087 9.655734 13.913630
v 1.252087 9.655734 13.913630
v 0.675520 9.669056 13.687737
v 0.675520 9.669056 13.687737
v 0.672108 9.668330 13.696402
v 0.672108 9.668330 13.696402
v 1.248676 9.655008 13.922295
v 1.248676 9.655008 13.922295
v 0.672030 9.677640 13.697151
v 0.672030 9.677640 13.697151
v 1.248598 9.664318 13.923043
v 1.248598 9.664318 13.923043
v 0.675441 9.678366 13.688486
v 0.675441 9.678366 13.688486
v 1.252009 9.665044 13.914379
v 1.252009 9.665044 13.914379
v 1.024034 8.917715 13.086144
v 1.057899 8.921816 13.038707
v 1.191780 8.574262 13.061744
v 1.192270 8.570363 13.110256
v 1.114921 8.939950 13.211173
v 1.170304 8.941906 13.192657
v 1.189217 8.933190 13.139446
v 1.188727 8.937089 13.090933
v 1.023771 8.949039 13.088664
v 1.024359 8.944359 13.146902
v 1.164060 8.566947 13.149772
v 1.170567 8.910582 13.190136
v 1.115185 8.908626 13.208653
v 1.161007 8.929773 13.178962
v 1.024622 8.913034 13.144382
v 1.117925 8.565317 13.165196
v 1.114872 8.928144 13.194386
v 1.071488 8.566098 13.150639
v 1.204169 8.946007 13.145220
v 1.068435 8.928925 13.179828
v 1.059175 8.940887 13.193697
v 1.042485 8.568990 13.111658
v 1.204432 8.914683 13.142699
v 1.039433 8.931817 13.140848
v 1.059439 8.909563 13.191176
v 1.041996 8.572888 13.063146
v 1.038943 8.935716 13.092335
v 1.070206 8.576305 13.023629
v 1.067153 8.939132 13.052819
v 1.116340 8.577934 13.008205
v 1.203581 8.950687 13.086981
v 1.113287 8.940762 13.037395
v 1.162777 8.577154 13.022763
v 1.203844 8.919363 13.084461
v 1.159724 8.939981 13.051952
v 1.057636 8.953140 13.041227
v 1.113282 8.923772 13.020190
v 1.113018 8.955096 13.022711
v 1.169028 8.922834 13.037667
v 1.168764 8.954159 13.040187
v 1.114853 8.940492 13.204438
v 1.166277 8.942307 13.187244
v 1.030218 8.948931 13.090686
v 1.030764 8.944585 13.144761
v 1.197722 8.946115 13.143198
v 1.063092 8.941361 13.188210
v 1.197176 8.950461 13.089123
v 1.061662 8.952739 13.046638
v 1.113086 8.954555 13.029446
v 1.164848 8.953685 13.045673
v 1.116193 8.781267 13.191628
v 1.167617 8.783083 13.174435
v 1.031557 8.789706 13.077876
v 1.032104 8.785360 13.131951
v 1.199062 8.786891 13.130388
v 1.064431 8.782137 13.175401
v 1.198516 8.791237 13.076313
v 1.063002 8.793514 13.033830
v 1.114426 8.795330 13.016636
v 1.166188 8.794460 13.032864
v 1.083770 8.235302 12.964417
v 1.083770 8.235302 12.964417
v 0.912978 8.229271 13.021520
v 0.912978 8.229271 13.021520
v 1.141170 8.222085 13.134704
v 1.141170 8.222085 13.134704
v 0.970378 8.216054 13.191806
v 0.970378 8.216054 13.191806
v 1.083646 8.249999 12.965600
v 1.083646 8.249999 12.965600
v 0.912854 8.243969 13.022702
v 0.912854 8.243969 13.022702
v 1.141046 8.236783 13.135886
v 1.141046 8.236783 13.135886
v 0.970255 8.230752 13.192988
v 0.970255 8.230752 13.192988
v 1.013332 8.247025 12.995211
v 1.013332 8.247025 12.995211
v 0.986865 8.246091 13.004060
v 0.986865 8.246091 13.004060
v 1.067035 8.234660 13.154529
v 1.067035 8.234660 13.154529
v 1.040568 8.233726 13.163378
v 1.040568 8.233726 13.163378
v 1.032981 8.594057 13.096962
v 1.032981 8.594057 13.096962
v 1.010318 8.593257 13.104540
v 1.010318 8.593257 13.104540
v 1.037647 8.592983 13.110806
v 1.037647 8.592983 13.110806
v 1.014984 8.592183 13.118382
v 1.014984 8.592183 13.118382
v 0.983036 9.742962 13.184584
v 0.983036 9.742962 13.184584
v 1.029858 9.744616 13.168929
v 1.029858 9.744616 13.168929
v 1.045595 9.740992 13.215612
v 1.045595 9.740992 13.215612
v 0.998772 9.739338 13.231267
v 0.998772 9.739338 13.231267
v 0.985240 9.481037 13.163511
v 0.985240 9.481037 13.163511
v 1.032062 9.482691 13.147857
v 1.032062 9.482691 13.147857
v 1.047799 9.479068 13.194541
v 1.047799 9.479068 13.194541
v 1.000976 9.477414 13.210196
v 1.000976 9.477414 13.210196
v 0.987729 9.185298 13.139719
v 0.987729 9.185298 13.139719
v 1.034551 9.186952 13.124064
v 1.034551 9.186952 13.124064
v 1.050287 9.183329 13.170749
v 1.050287 9.183329 13.170749
v 1.003465 9.181675 13.186403
v 1.003465 9.181675 13.186403
v 0.989501 8.974634 13.122771
v 0.989501 8.974634 13.122771
v 1.036323 8.976288 13.107117
v 1.036323 8.976288 13.107117
v 1.052060 8.972664 13.153801
v 1.052060 8.972664 13.153801
v 1.005237 8.971011 13.169456
v 1.005237 8.971011 13.169456
vn -0.3186 0.0733 -0.9451
vn 0.9479 0.0335 -0.3169
vn 0.3186 -0.0733 0.9451
vn -0.9479 -0.0335 0.3169
vn 0.0084 -0.9967 -0.0802
vn -0.0084 0.9967 0.0802
vn 0.8533 -0.0347 0.5203
vn -0.8533 0.0347 -0.5203
vn -0.5213 -0.0728 0.8502
vn 0.5213 0.0728 -0.8502
vn -0.3652 -0.0777 0.9277
vn 0.3652 0.0777 -0.9277
vn 0.9309 -0.0215 0.3647
vn -0.9309 0.0215 -0.3647
vn 0.1412 -0.9896 -0.0273
vn -0.1412 0.9896 0.0273
vn 0.5959 -0.0594 0.8009
vn 0.0101 -0.0801 0.9967
vn 0.9541 -0.0160 0.2991
vn 0.5796 0.0702 -0.8119
vn -0.5796 -0.0702 0.8119
vn -0.0101 0.0801 -0.9967
vn -0.5959 0.0594 -0.8009
vn -0.9541 0.0160 -0.2991
vn 0.9479 0.0278 -0.3174
vn -0.3095 -0.1401 -0.9405
vn -0.9478 -0.0391 0.3164
vn 0.3131 -0.2835 0.9064
s 1
usemtl steel.001
f 223//1 225//1 227//1 221//1
f 226//2 229//2 231//2 228//2
f 230//3 233//3 235//3 232//3
f 234//4 224//4 222//4 236//4
f 1//5 2//5 3//5 4//5
f 5//6 8//6 259//6 253//6
f 239//5 241//5 243//5 237//5
f 242//2 245//2 247//2 244//2
f 246//6 249//6 251//6 248//6
f 250//4 240//4 238//4 252//4
f 9//3 10//3 11//3 12//3
f 16//1 15//1 14//1 13//1
f 254//4 260//4 268//4 262//4
f 8//6 7//6 257//6 259//6
f 7//6 6//6 255//6 257//6
f 6//6 5//6 253//6 255//6
f 267//6 265//6 263//6 261//6
f 20//3 258//3 266//3 24//3
f 19//2 256//2 264//2 23//2
f 18//1 17//1 21//1 22//1
f 271//5 273//5 275//5 269//5
f 274//7 277//7 279//7 276//7
f 278//6 281//6 283//6 280//6
f 282//8 272//8 270//8 284//8
f 25//9 26//9 27//9 28//9
f 32//10 31//10 30//10 29//10
f 287//5 289//5 291//5 285//5
f 290//7 293//7 295//7 292//7
f 294//6 297//6 299//6 296//6
f 298//8 288//8 286//8 300//8
f 33//9 34//9 35//9 36//9
f 40//10 39//10 38//10 37//10
f 303//5 305//5 307//5 301//5
f 306//7 309//7 311//7 308//7
f 310//6 313//6 315//6 312//6
f 314//8 304//8 302//8 316//8
f 41//9 42//9 43//9 44//9
f 48//10 47//10 46//10 45//10
f 319//5 321//5 323//5 317//5
f 322//7 325//7 327//7 324//7
f 326//6 329//6 331//6 328//6
f 330//8 320//8 318//8 332//8
f 49//9 50//9 51//9 52//9
f 56//10 55//10 54//10 53//10
f 335//5 337//5 339//5 333//5
f 338//7 341//7 343//7 340//7
f 342//6 345//6 347//6 344//6
f 346//8 336//8 334//8 348//8
f 57//9 58//9 59//9 60//9
f 64//10 63//10 62//10 61//10
f 351//5 353//5 355//5 349//5
f 354//7 357//7 359//7 356//7
f 358//6 361//6 363//6 360//6
f 362//8 352//8 350//8 364//8
f 65//9 66//9 67//9 68//9
f 72//10 71//10 70//10 69//10
f 367//5 365//5 371//5 369//5
f 370//11 372//11 375//11 373//11
f 374//6 376//6 379//6 377//6
f 378//12 380//12 366//12 368//12
f 73//13 76//13 75//13 74//13
f 80//14 77//14 78//14 79//14
f 383//5 381//5 387//5 385//5
f 386//11 388//11 391//11 389//11
f 390//6 392//6 395//6 393//6
f 394//12 396//12 382//12 384//12
f 81//13 84//13 83//13 82//13
f 88//14 85//14 86//14 87//14
f 399//5 397//5 403//5 401//5
f 402//11 404//11 407//11 405//11
f 406//6 408//6 411//6 409//6
f 410//12 412//12 398//12 400//12
f 89//13 92//13 91//13 90//13
f 96//14 93//14 94//14 95//14
f 415//5 413//5 419//5 417//5
f 418//11 420//11 423//11 421//11
f 422//6 424//6 427//6 425//6
f 426//12 428//12 414//12 416//12
f 97//13 100//13 99//13 98//13
f 104//14 101//14 102//14 103//14
f 431//15 429//15 435//15 433//15
f 434//11 436//11 439//11 437//11
f 438//16 440//16 443//16 441//16
f 442//12 444//12 430//12 432//12
f 105//13 108//13 107//13 106//13
f 112//14 109//14 110//14 111//14
f 447//5 445//5 451//5 449//5
f 450//11 452//11 455//11 453//11
f 454//6 456//6 459//6 457//6
f 458//12 460//12 446//12 448//12
f 113//13 116//13 115//13 114//13
f 120//14 117//14 118//14 119//14
f 463//5 461//5 467//5 465//5
f 466//11 468//11 471//11 469//11
f 470//6 472//6 475//6 473//6
f 474//12 476//12 462//12 464//12
f 121//13 124//13 123//13 122//13
f 128//14 125//14 126//14 127//14
f 152//5 521//5 523//5 129//5
f 478//17 513//18 514//18 512//17
f 479//2 484//2 483//19 480//19
f 158//5 522//5 517//5 156//5
f 477//19 478//17 512//17 485//19
f 480//19 483//19 490//17 487//17
f 166//5 525//5 524//5 164//5
f 491//2 477//19 485//19 486//2
f 487//17 490//17 493//18 492//18
f 516//5 526//5 525//5 166//5
f 501//20 491//2 486//2 497//20
f 492//18 493//18 496//21 494//21
f 169//2 179//2 188//20 178//20
f 489//22 501//20 497//20 481//22
f 494//21 496//21 500//4 498//4
f 130//6 515//6 165//6 163//6 161//6 159//6 157//6 155//6 488//6 499//6
f 153//23 489//22 481//22 482//23
f 498//4 500//4 503//24 502//24
f 513//18 167//21 168//21 514//18
f 151//24 153//23 482//23 495//24
f 502//24 503//24 505//23 504//23
f 167//21 510//4 507//4 168//21
f 510//4 151//24 495//24 507//4
f 504//23 505//23 508//22 506//22
f 134//6 132//6 511//6 148//6 146//6 144//6 142//6 140//6 138//6 136//6
f 509//20 150//20 484//2 479//2
f 506//22 508//22 150//20 509//20
f 164//5 524//5 519//5 162//5
f 129//5 523//5 526//5 516//5
f 131//5 133//5 135//5 137//5 139//5 141//5 143//5 145//5 147//5 149//5
f 160//5 520//5 522//5 158//5
f 154//5 518//5 521//5 152//5
f 162//5 519//5 520//5 160//5
f 156//5 517//5 518//5 154//5
f 531//5 528//5 527//5 532//5 530//5 529//5 534//5 535//5 536//5 533//5
f 178//20 188//20 187//22 177//22
f 177//22 187//22 186//23 176//23
f 176//23 186//23 185//24 175//24
f 170//19 180//19 179//2 169//2
f 173//21 183//21 182//18 172//18
f 174//4 184//4 183//21 173//21
f 171//17 181//17 180//19 170//19
f 175//24 185//24 184//4 174//4
f 172//18 182//18 181//17 171//17
f 539//6 543//6 541//6 537//6
f 547//5 545//5 549//5 551//5
f 544//2 540//2 548//2 552//2
f 542//1 192//1 196//1 550//1
f 538//4 191//4 195//4 546//4
f 189//3 190//3 194//3 193//3
f 555//6 559//6 557//6 553//6
f 563//5 561//5 565//5 567//5
f 560//25 556//25 564//25 568//25
f 558//26 200//26 204//26 566//26
f 554//27 199//27 203//27 562//27
f 197//28 198//28 202//28 201//28
f 575//5 569//5 571//5 573//5
f 583//6 581//6 579//6 577//6
f 570//2 576//2 584//2 578//2
f 208//1 574//1 582//1 212//1
f 207//4 572//4 580//4 211//4
f 206//3 205//3 209//3 210//3
f 591//5 585//5 587//5 589//5
f 599//6 597//6 595//6 593//6
f 586//2 592//2 600//2 594//2
f 216//1 590//1 598//1 220//1
f 215//4 588//4 596//4 219//4
f 214//3 213//3 217//3 218//3
