# Blender 3.4.0
# www.blender.org
mtllib Cube_040.mtl
o Cube.040
v 6.356401 5.432705 8.565598
v 6.311503 5.287935 8.560542
v 8.825960 5.425444 8.823868
v 8.781062 5.280673 8.818812
v 8.692308 4.936369 8.834096
v 8.732444 5.081723 8.838655
v 6.223076 4.909753 8.575771
v 6.263212 5.055107 8.580331
v 8.688612 4.936281 8.869433
v 8.728747 5.081635 8.873993
v 6.259516 5.055019 8.615668
v 6.219380 4.909665 8.611109
v 8.568804 4.464475 8.820005
v 8.608933 4.633677 8.824623
v 6.099572 4.433493 8.561670
v 6.139702 4.602695 8.566288
v 8.565108 4.464387 8.855343
v 8.605238 4.633589 8.859961
v 6.136006 4.602607 8.601625
v 6.095877 4.433405 8.597008
v 8.414188 4.287019 8.808718
v 8.330270 4.264135 8.799884
v 8.807504 5.522566 8.852925
v 8.723585 5.499682 8.844091
v 8.411594 4.286958 8.833521
v 8.327676 4.264073 8.824687
v 8.720991 5.499620 8.868895
v 8.804910 5.522504 8.877728
v 6.936255 4.244143 8.655760
v 6.871487 4.208843 8.648898
v 6.975302 5.352631 8.662599
v 6.910535 5.317330 8.655737
v 6.934017 4.244091 8.677149
v 6.869250 4.208789 8.670287
v 6.908298 5.317277 8.677126
v 6.973064 5.352578 8.683988
v 6.662888 4.146444 8.624805
v 6.581074 4.145607 8.616246
v 6.698098 5.378208 8.631549
v 6.616284 5.377371 8.622991
v 6.660212 4.146381 8.650390
v 6.578398 4.145544 8.641830
v 6.613608 5.377307 8.648575
v 6.695422 5.378144 8.657133
v 6.353382 5.432633 8.594465
v 6.308484 5.287864 8.589410
v 8.778043 5.280602 8.847680
v 8.822941 5.425372 8.852736
v 7.417104 4.426846 8.680205
v 7.376665 4.404805 8.675920
v 7.441483 5.118951 8.684475
v 7.401045 5.096910 8.680191
v 7.415707 4.426812 8.693560
v 7.375268 4.404771 8.689276
v 7.399648 5.096878 8.693545
v 7.440087 5.118918 8.697829
v 8.269255 5.451118 8.768288
v 8.170398 5.487601 8.758039
v 8.048656 4.215351 8.742142
v 7.949800 4.251834 8.731894
v 8.267189 5.451068 8.788045
v 8.168332 5.487552 8.777797
v 7.947734 4.251785 8.751650
v 8.046591 4.215302 8.761899
v 7.451533 5.429485 8.680128
v 7.406635 5.284715 8.675073
v 7.448514 5.429413 8.708996
v 7.403616 5.284643 8.703940
v 7.452713 5.392502 8.668848
v 7.449694 5.392430 8.697716
v 7.407815 5.247731 8.663793
v 7.404796 5.247660 8.692660
vn -0.1040 -0.0025 0.9946
vn 0.1040 0.0025 -0.9946
vn 0.9583 -0.2677 0.0996
vn -0.0109 0.9999 0.0013
vn -0.9583 0.2677 -0.0996
vn 0.0109 -0.9999 -0.0013
vn 0.9675 -0.2322 0.1006
vn -0.0127 0.9999 0.0012
vn -0.9675 0.2322 -0.1006
vn 0.0127 -0.9999 -0.0012
vn -0.2606 0.9651 -0.0249
vn 0.9472 -0.3051 0.0983
vn 0.2606 -0.9651 0.0249
vn -0.9472 0.3051 -0.0983
vn -0.4742 0.8792 -0.0474
vn 0.9940 -0.0357 0.1039
vn 0.4742 -0.8792 0.0474
vn -0.9940 0.0357 -0.1039
vn -0.0104 0.9999 0.0014
vn 0.9942 -0.0290 0.1039
vn 0.0104 -0.9999 -0.0014
vn -0.9942 0.0290 -0.1039
vn 0.0240 -0.9997 -0.0000
vn 0.9495 -0.2979 0.0986
vn 0.0027 1.0000 0.0028
vn -0.9495 0.2979 -0.0986
vn 0.3425 0.9387 0.0382
vn -0.9789 0.1769 -0.1019
vn -0.3425 -0.9387 -0.0382
vn 0.9789 -0.1769 0.1019
vn 0.9626 -0.0505 0.2663
vn 0.7924 -0.1547 0.5901
vn 0.9946 -0.0000 0.1040
vn -0.0027 -1.0000 -0.0028
vn -0.7924 0.1547 -0.5901
vn -0.6053 0.2145 -0.7665
vn -0.9626 0.0505 -0.2663
vn 0.6053 -0.2145 0.7665
vn -0.1122 0.0001 0.9937
vn 0.1122 -0.0001 -0.9937
vn -0.0240 0.9997 -0.0000
vn -0.9946 -0.0000 -0.1040
vt 0.597203 0.396438
vt 0.595854 0.381446
vt 0.670354 0.395528
vt 0.669004 0.380536
vt 0.518044 0.371463
vt 0.516832 0.356410
vt 0.592039 0.374161
vt 0.590834 0.359109
vt 0.518044 0.371463
vt 0.516832 0.356410
vt 0.590834 0.359109
vt 0.592039 0.374162
vt 0.520755 0.339286
vt 0.519543 0.331201
vt 0.594695 0.340702
vt 0.593496 0.332618
vt 0.520755 0.339286
vt 0.519543 0.331201
vt 0.593496 0.332618
vt 0.594695 0.340702
vt 0.554491 0.283719
vt 0.556708 0.285142
vt 0.528782 0.365749
vt 0.531011 0.367173
vt 0.554491 0.283719
vt 0.556708 0.285142
vt 0.531011 0.367173
vt 0.528782 0.365749
vt 0.587034 0.285184
vt 0.589239 0.286606
vt 0.561492 0.367234
vt 0.563707 0.368656
vt 0.587034 0.285184
vt 0.589239 0.286606
vt 0.563707 0.368656
vt 0.561492 0.367234
vt 0.546946 0.282277
vt 0.548689 0.278892
vt 0.563789 0.374992
vt 0.565527 0.371607
vt 0.546946 0.282277
vt 0.548689 0.278892
vt 0.565527 0.371607
vt 0.563789 0.374992
vt 0.597203 0.396438
vt 0.595854 0.381446
vt 0.669004 0.380536
vt 0.670354 0.395528
vt 0.587034 0.285184
vt 0.589239 0.286606
vt 0.561492 0.367234
vt 0.563707 0.368656
vt 0.587034 0.285184
vt 0.589239 0.286606
vt 0.563707 0.368656
vt 0.561492 0.367234
vt 0.520755 0.339286
vt 0.519543 0.331201
vt 0.594695 0.340702
vt 0.593496 0.332618
vt 0.520755 0.339286
vt 0.519543 0.331201
vt 0.593496 0.332618
vt 0.594695 0.340702
vt 0.629642 0.396034
vt 0.628293 0.381042
vt 0.629642 0.396034
vt 0.628293 0.381042
vt 0.629642 0.396034
vt 0.629642 0.396034
vt 0.628293 0.381042
vt 0.628293 0.381042
s 1
usemtl random_pier
f 65/65/1 1/1/1 2/2/1 66/66/1
f 7/7/1 5/5/1 6/6/1 8/8/1
f 12/12/2 11/11/2 10/10/2 9/9/2
f 7/7/3 8/8/3 11/11/3 12/12/3
f 5/5/4 7/7/4 12/12/4 9/9/4
f 6/6/5 5/5/5 9/9/5 10/10/5
f 8/8/6 6/6/6 10/10/6 11/11/6
f 15/15/1 13/13/1 14/14/1 16/16/1
f 20/20/2 19/19/2 18/18/2 17/17/2
f 15/15/7 16/16/7 19/19/7 20/20/7
f 13/13/8 15/15/8 20/20/8 17/17/8
f 14/14/9 13/13/9 17/17/9 18/18/9
f 16/16/10 14/14/10 18/18/10 19/19/10
f 23/23/2 21/21/2 22/22/2 24/24/2
f 28/28/1 27/27/1 26/26/1 25/25/1
f 23/23/11 24/24/11 27/27/11 28/28/11
f 21/21/12 23/23/12 28/28/12 25/25/12
f 22/22/13 21/21/13 25/25/13 26/26/13
f 24/24/14 22/22/14 26/26/14 27/27/14
f 31/31/2 29/29/2 30/30/2 32/32/2
f 36/36/1 35/35/1 34/34/1 33/33/1
f 31/31/15 32/32/15 35/35/15 36/36/15
f 29/29/16 31/31/16 36/36/16 33/33/16
f 30/30/17 29/29/17 33/33/17 34/34/17
f 32/32/18 30/30/18 34/34/18 35/35/18
f 39/39/2 37/37/2 38/38/2 40/40/2
f 44/44/1 43/43/1 42/42/1 41/41/1
f 39/39/19 40/40/19 43/43/19 44/44/19
f 37/37/20 39/39/20 44/44/20 41/41/20
f 38/38/21 37/37/21 41/41/21 42/42/21
f 40/40/22 38/38/22 42/42/22 43/43/22
f 67/67/2 68/68/2 46/46/2 45/45/2
f 69/69/23 3/3/23 48/48/23 70/70/23
f 2/2/24 1/1/24 45/45/24 46/46/24
f 66/66/25 2/2/25 46/46/25 68/68/25
f 3/3/26 4/4/26 47/47/26 48/48/26
f 51/51/2 49/49/2 50/50/2 52/52/2
f 56/56/1 55/55/1 54/54/1 53/53/1
f 51/51/15 52/52/15 55/55/15 56/56/15
f 49/49/16 51/51/16 56/56/16 53/53/16
f 50/50/17 49/49/17 53/53/17 54/54/17
f 52/52/18 50/50/18 54/54/18 55/55/18
f 59/59/1 57/57/1 58/58/1 60/60/1
f 64/64/2 63/63/2 62/62/2 61/61/2
f 59/59/27 60/60/27 63/63/27 64/64/27
f 57/57/28 59/59/28 64/64/28 61/61/28
f 58/58/29 57/57/29 61/61/29 62/62/29
f 60/60/30 58/58/30 62/62/30 63/63/30
f 71/71/31 66/66/32 68/68/33 72/72/33
f 1/1/34 65/65/34 67/67/34 45/45/34
f 70/70/35 72/72/36 68/68/36 67/67/37
f 69/69/38 65/65/38 66/66/32 71/71/31
f 3/3/39 69/69/39 71/71/39 4/4/39
f 48/48/40 47/47/40 72/72/40 70/70/40
f 4/4/41 71/71/41 72/72/41 47/47/41
f 65/65/42 69/69/42 70/70/35 67/67/37
