# Blender 3.4.0
# www.blender.org
mtllib Cube_056.mtl
o Cube.056
v -6.568102 2.564682 -7.885801
v -6.566260 2.564682 -7.873607
v -6.553482 2.564682 -7.867235
v -6.539375 2.564682 -7.871518
v -6.534574 2.564682 -7.883204
v -6.542702 2.564682 -7.893472
v -6.557625 2.564682 -7.894625
v -6.555374 2.524691 -7.887110
v -6.554497 2.527702 -7.874801
v -6.543859 2.534469 -7.868239
v -6.531464 2.539895 -7.872383
v -6.526651 2.539895 -7.884096
v -6.533050 2.534469 -7.894548
v -6.545833 2.527702 -7.895889
v -6.524224 2.495416 -7.881860
v -6.525708 2.500632 -7.869911
v -6.520338 2.512352 -7.864243
v -6.512158 2.521750 -7.869127
v -6.507334 2.521750 -7.880869
v -6.509496 2.512352 -7.890631
v -6.517011 2.500632 -7.891077
v -6.483005 2.484700 -7.871448
v -6.487611 2.490723 -7.860237
v -6.489225 2.504256 -7.856308
v -6.486633 2.515109 -7.862616
v -6.481799 2.515109 -7.874382
v -6.478356 2.504256 -7.882761
v -6.478889 2.490723 -7.881467
v -6.442838 2.495416 -7.858472
v -6.450482 2.500632 -7.848207
v -6.458902 2.512352 -7.846450
v -6.461760 2.521750 -7.854520
v -6.456921 2.521750 -7.866299
v -6.448019 2.512352 -7.872939
v -6.441745 2.500632 -7.869472
v -6.414562 2.524691 -7.846231
v -6.424332 2.527702 -7.836893
v -6.437535 2.534469 -7.837212
v -6.444230 2.539895 -7.846943
v -6.439391 2.539895 -7.858720
v -6.426654 2.534469 -7.863694
v -6.415598 2.527702 -7.858151
v -6.405736 2.564682 -7.838038
v -6.416156 2.564682 -7.829356
v -6.430840 2.564682 -7.831089
v -6.438734 2.564682 -7.841928
v -6.433902 2.564682 -7.853688
v -6.419979 2.564682 -7.857526
v -6.407440 2.564682 -7.850571
v -6.418641 2.604672 -7.836301
v -6.428070 2.601661 -7.827795
v -6.440565 2.594894 -7.829838
v -6.446713 2.589468 -7.840897
v -6.441893 2.589468 -7.852631
v -6.429732 2.594894 -7.856203
v -6.419383 2.601661 -7.848938
v -6.449757 2.633947 -7.841634
v -6.456830 2.628731 -7.832756
v -6.464066 2.617012 -7.833882
v -6.466006 2.607613 -7.844185
v -6.461197 2.607613 -7.855890
v -6.453266 2.617012 -7.860168
v -6.448175 2.628731 -7.853822
v -6.490765 2.644663 -7.852559
v -6.494746 2.638640 -7.842869
v -6.495058 2.625107 -7.842112
v -6.491449 2.614254 -7.850895
v -6.486650 2.614254 -7.862576
v -6.484285 2.625107 -7.868332
v -6.486117 2.638640 -7.863872
v -6.530754 2.633947 -7.865967
v -6.531723 2.628731 -7.855268
v -6.525279 2.617012 -7.852216
v -6.516254 2.607613 -7.859158
v -6.511460 2.607613 -7.870826
v -6.514520 2.617012 -7.878403
v -6.523108 2.628731 -7.876238
v -6.559065 2.604672 -7.878125
v -6.557903 2.601661 -7.866511
v -6.546666 2.594894 -7.861406
v -6.533798 2.589468 -7.866702
v -6.529003 2.589468 -7.878373
v -6.535905 2.594894 -7.887599
v -6.549285 2.601661 -7.887486
v -6.495769 2.486583 -7.840382
v -6.512377 2.486583 -7.849782
v -6.503924 2.452275 -7.820530
v -6.504696 2.475841 -7.818653
v -6.532481 2.452275 -7.836726
v -6.533237 2.475841 -7.834888
v -6.547577 2.452275 -7.862720
v -6.548328 2.475841 -7.860892
v -6.545218 2.452275 -7.891426
v -6.545977 2.475841 -7.889579
v -6.526033 2.452275 -7.915158
v -6.526809 2.475841 -7.913271
v -6.495112 2.452275 -7.927681
v -6.495909 2.475841 -7.925741
v -6.460691 2.452275 -7.925759
v -6.461510 2.475841 -7.923766
v -6.431993 2.452275 -7.909908
v -6.432828 2.475841 -7.907875
v -6.416755 2.452275 -7.884257
v -6.417598 2.475841 -7.882205
v -6.419115 2.452275 -7.855550
v -6.419952 2.475841 -7.853512
v -6.438441 2.452275 -7.831474
v -6.439261 2.475841 -7.829478
v -6.469504 2.452275 -7.818606
v -6.470299 2.475841 -7.816670
v -6.521168 2.486583 -7.864863
v -6.519801 2.486583 -7.881541
v -6.508641 2.486583 -7.895351
v -6.490663 2.486583 -7.902634
v -6.470666 2.486583 -7.901478
v -6.454010 2.486583 -7.892193
v -6.445173 2.486583 -7.877226
v -6.446542 2.486583 -7.860545
v -6.457748 2.486583 -7.846619
v -6.475773 2.486583 -7.839223
v -6.491290 2.509829 -7.851283
v -6.479732 2.509829 -7.850594
v -6.469319 2.509829 -7.854837
v -6.462849 2.509829 -7.862863
v -6.462060 2.509829 -7.872506
v -6.467164 2.509829 -7.881183
v -6.476787 2.509829 -7.886581
v -6.488346 2.509829 -7.887269
v -6.498743 2.509829 -7.883062
v -6.505197 2.509829 -7.875075
v -6.505986 2.509829 -7.865433
v -6.500897 2.509829 -7.856719
v -6.494767 2.452275 -7.842819
v -6.511610 2.452275 -7.852311
v -6.520520 2.452275 -7.867582
v -6.519129 2.452275 -7.884497
v -6.507807 2.452275 -7.898525
v -6.489572 2.452275 -7.905951
v -6.469291 2.452275 -7.904827
v -6.452398 2.452275 -7.895456
v -6.443439 2.452275 -7.880305
v -6.444830 2.452275 -7.863390
v -6.456201 2.452275 -7.849242
v -6.474486 2.452275 -7.841696
v -6.492802 2.372104 -7.847602
v -6.509671 2.372104 -7.857031
v -6.518590 2.372104 -7.872281
v -6.517189 2.372104 -7.889218
v -6.505843 2.372104 -7.903306
v -6.487574 2.372104 -7.910813
v -6.467259 2.372104 -7.909771
v -6.450341 2.372104 -7.900464
v -6.441369 2.372104 -7.885342
v -6.442768 2.372104 -7.868410
v -6.454164 2.372104 -7.854200
v -6.472485 2.372104 -7.846567
vn -0.9419 -0.3043 0.1419
vn -0.8358 -0.5167 0.1857
vn -0.8481 -0.4976 0.1820
vn -0.4430 -0.1202 0.8884
vn -0.4162 -0.2059 0.8856
vn -0.4117 -0.2132 0.8860
vn -0.4431 -0.1194 0.8885
vn 0.2891 -0.1018 0.9519
vn 0.2413 0.1763 0.9543
vn 0.2214 0.2193 0.9502
vn 0.2897 -0.0842 0.9534
vn 0.8903 0.2714 0.3658
vn 0.7803 0.0979 -0.6176
vn 0.6792 0.3934 -0.6195
vn 0.6831 0.3877 -0.6189
vn 0.7791 0.1128 -0.6167
vn 0.0764 0.1145 -0.9905
vn 0.1034 0.0027 -0.9946
vn 0.0967 0.0162 -0.9952
vn 0.0765 0.1177 -0.9901
vn -0.6348 -0.1771 -0.7521
vn -0.5412 -0.4160 -0.7308
vn -0.5698 -0.3546 -0.7413
vn -0.5096 -0.8100 0.2902
vn -0.5271 -0.8009 0.2841
vn -0.3514 -0.2728 0.8956
vn -0.3451 -0.2764 0.8969
vn 0.0617 0.4169 0.9069
vn 0.0252 0.4432 0.8961
vn 0.6372 0.7249 0.2618
vn 0.4738 0.8588 0.1947
vn 0.4321 0.8842 0.1775
vn 0.4683 0.5826 -0.6643
vn 0.4723 0.5806 -0.6632
vn 0.1773 -0.0755 -0.9813
vn 0.1655 -0.0679 -0.9839
vn -0.2491 -0.7462 -0.6174
vn -0.2990 -0.7108 -0.6367
vn -0.1117 -0.8938 0.4344
vn -0.1368 -0.8949 0.4248
vn -0.2638 -0.2978 0.9175
vn -0.2658 -0.2978 0.9169
vn -0.2311 0.5295 0.8162
vn -0.2437 0.5301 0.8122
vn 0.0155 0.9999 0.0063
vn -0.0162 0.9998 -0.0067
vn 0.2199 0.6388 -0.7373
vn 0.2074 0.6382 -0.7414
vn 0.2753 -0.1021 -0.9559
vn 0.2743 -0.1021 -0.9562
vn 0.1502 -0.8733 -0.4634
vn 0.1226 -0.8720 -0.4740
vn 0.2589 -0.7693 0.5841
vn 0.2383 -0.7824 0.5754
vn -0.1828 -0.2722 0.9447
vn -0.1904 -0.2771 0.9418
vn -0.5450 0.4448 0.7107
vn -0.5231 0.4583 0.7186
vn -0.4496 0.8739 -0.1847
vn -0.4576 0.8690 -0.1880
vn -0.0159 0.5663 -0.8240
vn -0.0357 0.5534 -0.8321
vn 0.3761 -0.0726 -0.9237
vn 0.3868 -0.0657 -0.9198
vn 0.5640 -0.7664 -0.3074
vn 0.5764 -0.7590 -0.3027
vn 0.5261 -0.4762 0.7046
vn 0.5246 -0.4789 0.7039
vn -0.1312 -0.2090 0.9691
vn -0.1346 -0.2159 0.9671
vn -0.7548 0.1933 0.6268
vn -0.7382 0.2280 0.6348
vn -0.6372 0.7249 -0.2618
vn -0.1944 0.3741 -0.9068
vn -0.2010 0.3616 -0.9104
vn 0.4545 0.0123 -0.8907
vn 0.4605 0.0245 -0.8873
vn 0.7461 -0.6273 -0.2233
vn 0.6140 -0.2860 0.7357
vn -0.1160 -0.1280 0.9850
vn -0.1161 -0.1255 0.9853
vn -0.8026 -0.1176 0.5848
vn -0.8042 -0.1001 0.5859
vn -0.8903 0.2714 -0.3658
vn -0.2645 0.0948 -0.9597
vn -0.2641 0.1125 -0.9579
vn 0.4806 0.1312 -0.8671
vn 0.4805 0.1328 -0.8669
vn 0.9733 -0.1877 -0.1321
vn 0.6301 0.1707 0.7575
vn 0.5643 0.3483 0.7484
vn 0.5347 0.4112 0.7382
vn -0.1376 -0.0431 0.9895
vn -0.1436 -0.0321 0.9891
vn -0.7014 -0.4027 0.5881
vn -0.6986 -0.4069 0.5886
vn -0.8903 -0.2714 -0.3658
vn -0.1946 -0.1973 -0.9608
vn -0.2145 -0.1553 -0.9643
vn 0.4452 0.2429 -0.8619
vn 0.4500 0.2352 -0.8615
vn 0.9421 0.3098 -0.1286
vn 0.8490 0.5005 -0.1693
vn 0.8354 0.5215 -0.1735
vn 0.2895 0.7068 0.6455
vn 0.2406 0.7410 0.6269
vn -0.1981 0.0287 0.9798
vn -0.2077 0.0350 0.9776
vn -0.4840 -0.5991 0.6378
vn -0.4803 -0.6010 0.6389
vn -0.6372 -0.7249 -0.2618
vn -0.4328 -0.8838 -0.1778
vn -0.4733 -0.8591 -0.1945
vn -0.0027 -0.4128 -0.9108
vn -0.0378 -0.3878 -0.9210
vn 0.3667 0.3143 -0.8757
vn 0.3735 0.3106 -0.8741
vn 0.5290 0.8029 -0.2749
vn 0.5127 0.8114 -0.2808
vn -0.1332 0.8654 0.4830
vn -0.1574 0.8665 0.4738
vn -0.2872 0.0600 0.9560
vn -0.2876 0.0600 0.9559
vn -0.2106 -0.6565 0.7243
vn -0.2227 -0.6572 0.7200
vn 0.0150 -0.9999 0.0061
vn -0.0145 -0.9999 -0.0060
vn 0.2542 -0.4959 -0.8304
vn 0.2437 -0.4954 -0.8338
vn 0.2713 0.3345 -0.9025
vn 0.2687 0.3344 -0.9033
vn 0.1394 0.8968 -0.4199
vn 0.1167 0.8958 -0.4288
vn -0.5797 0.7519 0.3140
vn -0.5660 0.7601 0.3193
vn -0.3744 0.0348 0.9266
vn -0.3662 0.0400 0.9297
vn 0.0440 -0.5663 0.8230
vn 0.0238 -0.5796 0.8146
vn 0.4572 -0.8693 0.1878
vn 0.4499 -0.8737 0.1849
vn 0.5168 -0.4287 -0.7410
vn 0.5382 -0.4155 -0.7333
vn 0.1778 0.3042 -0.9359
vn 0.1683 0.2978 -0.9397
vn -0.2376 0.7834 -0.5743
vn -0.2577 0.7707 -0.5828
vn -0.7457 0.6230 0.2362
vn -0.4296 -0.0339 0.9024
vn -0.4252 -0.0246 0.9047
vn 0.2200 -0.3633 0.9053
vn 0.2127 -0.3768 0.9016
vn 0.6372 -0.7249 0.2618
vn 0.7180 -0.2129 -0.6627
vn 0.7334 -0.1807 -0.6553
vn 0.1053 0.2257 -0.9685
vn 0.1008 0.2171 -0.9709
vn -0.5269 0.4769 -0.7035
vn -0.5295 0.4724 -0.7046
vn -0.9705 0.1912 0.1467
vn 0.8903 -0.2714 0.3658
vn -0.6177 0.2808 -0.7346
vn -0.6248 0.4899 0.6079
vn -0.2584 0.4503 0.8547
vn -0.2454 0.4497 0.8588
vn -0.5975 0.4855 0.6382
vn -0.2387 0.9204 -0.3098
vn -0.3414 0.9306 -0.1321
vn -0.3378 0.9303 -0.1432
vn -0.2248 0.9192 -0.3233
vn -0.2802 -0.0855 0.9561
vn -0.2831 -0.0856 0.9553
vn -0.4921 -0.0843 0.8664
vn 0.1561 0.4552 0.8766
vn 0.5331 0.5054 0.6785
vn 0.4951 0.4983 0.7117
vn 0.1342 0.4537 0.8810
vn 0.1184 0.9127 -0.3910
vn -0.0698 0.9106 -0.4073
vn -0.0633 0.9105 -0.4087
vn 0.1071 0.9122 -0.3954
vn -0.8629 -0.0666 0.5010
vn 0.7776 0.6017 -0.1825
vn 0.5686 0.5921 -0.5711
vn 0.5562 0.5912 -0.5841
vn 0.7800 0.6015 -0.1728
vn 0.3497 0.9336 -0.0780
vn 0.2710 0.9247 -0.2674
vn 0.2583 0.9234 -0.2838
vn 0.3485 0.9335 -0.0847
vn -0.9963 -0.0255 -0.0818
vn 0.2442 0.9182 0.3119
vn 0.3417 0.9308 0.1296
vn 0.3371 0.9301 0.1459
vn 0.2282 0.9167 0.3281
vn -0.7773 0.0245 -0.6286
vn -0.6057 0.0440 -0.7945
vn -0.5836 0.0461 -0.8108
vn 0.2372 0.5678 -0.7883
vn -0.1342 0.5558 -0.8204
vn -0.1361 0.5558 -0.8201
vn 0.2221 0.5669 -0.7932
vn -0.3569 0.9310 0.0765
vn -0.3551 0.9307 0.0874
vn -0.1702 0.0752 -0.9825
vn -0.1553 0.0760 -0.9849
vn -0.4951 0.5614 -0.6630
vn -0.7642 0.5661 -0.3091
vn -0.7670 0.5660 -0.3024
vn -0.4898 0.5613 -0.6671
vn 0.2745 0.0904 -0.9573
vn 0.2776 0.0904 -0.9564
vn -0.8230 0.5418 0.1709
vn -0.8166 0.5385 0.2076
vn 0.4820 0.0914 -0.8714
vn 0.7707 0.5693 0.2863
vn 0.7562 0.5637 0.3323
vn 0.8575 0.0747 -0.5091
vn -0.2805 0.9207 0.2712
vn -0.1229 0.9087 0.3990
vn -0.1115 0.9082 0.4034
vn -0.2670 0.9194 0.2890
vn 0.9962 0.0284 0.0818
vn -0.0000 1.0000 -0.0000
vn 0.0731 0.9071 0.4145
vn 0.0650 0.9069 0.4164
vn 0.7794 -0.0262 0.6259
vn 0.5875 -0.0476 0.8078
vn 0.6107 -0.0454 0.7905
vn 0.1589 -0.0753 0.9844
vn 0.1742 -0.0747 0.9819
vn -0.0000 -1.0000 -0.0000
vn -0.9964 -0.0192 -0.0822
vn 0.7796 -0.0190 0.6259
vn 0.5914 -0.0346 0.8056
vn 0.6083 -0.0334 0.7930
vn 0.2736 0.0661 -0.9596
vn 0.4825 0.0665 -0.8734
vn 0.2760 0.0661 -0.9589
vn -0.7784 0.0182 -0.6275
vn -0.6053 0.0327 -0.7953
vn -0.5889 0.0339 -0.8075
vn 0.1634 -0.0557 0.9850
vn 0.1746 -0.0553 0.9831
vn -0.2791 -0.0641 0.9581
vn -0.4884 -0.0635 0.8703
vn -0.2768 -0.0641 0.9588
vn 0.8591 0.0540 -0.5089
vn -0.1721 0.0554 -0.9835
vn -0.1610 0.0558 -0.9854
vn -0.8624 -0.0504 0.5038
vn 0.9964 0.0205 0.0821
vt 0.500000 0.571429
vt 0.500000 0.714286
vt 0.500000 0.857143
vt 0.500000 1.000000
vt 0.500000 -0.000000
vt 0.500000 0.142857
vt 0.500000 0.285714
vt 0.500000 0.428571
vt 0.583333 0.571429
vt 0.583333 0.714286
vt 0.583333 0.857143
vt 0.583333 1.000000
vt 0.583333 -0.000000
vt 0.583333 0.142857
vt 0.583333 0.285714
vt 0.583333 0.428571
vt 0.666667 0.571429
vt 0.666667 0.714286
vt 0.666667 0.857143
vt 0.666667 1.000000
vt 0.666667 -0.000000
vt 0.666667 0.142857
vt 0.666667 0.285714
vt 0.666667 0.428571
vt 0.750000 0.571429
vt 0.750000 0.714286
vt 0.750000 0.857143
vt 0.750000 1.000000
vt 0.750000 -0.000000
vt 0.750000 0.142857
vt 0.750000 0.285714
vt 0.750000 0.428571
vt 0.833333 0.571429
vt 0.833333 0.714286
vt 0.833333 0.857143
vt 0.833333 1.000000
vt 0.833333 -0.000000
vt 0.833333 0.142857
vt 0.833333 0.285714
vt 0.833333 0.428571
vt 0.916667 0.571429
vt 0.916667 0.714286
vt 0.916667 0.857143
vt 0.916667 1.000000
vt 0.916667 -0.000000
vt 0.916667 0.142857
vt 0.916667 0.285714
vt 0.916667 0.428571
vt 1.000000 0.571429
vt 0.000000 0.571429
vt 1.000000 0.714286
vt 0.000000 0.714286
vt 1.000000 0.857143
vt 0.000000 0.857143
vt 1.000000 1.000000
vt 1.000000 -0.000000
vt 0.000000 1.000000
vt 0.000000 -0.000000
vt 1.000000 0.142857
vt 0.000000 0.142857
vt 1.000000 0.285714
vt 0.000000 0.285714
vt 1.000000 0.428571
vt 0.000000 0.428571
vt 0.083333 0.571429
vt 0.083333 0.714286
vt 0.083333 0.857143
vt 0.083333 1.000000
vt 0.083333 -0.000000
vt 0.083333 0.142857
vt 0.083333 0.285714
vt 0.083333 0.428571
vt 0.166667 0.571429
vt 0.166667 0.714286
vt 0.166667 0.857143
vt 0.166667 1.000000
vt 0.166667 -0.000000
vt 0.166667 0.142857
vt 0.166667 0.285714
vt 0.166667 0.428571
vt 0.250000 0.571429
vt 0.250000 0.714286
vt 0.250000 0.857143
vt 0.250000 1.000000
vt 0.250000 -0.000000
vt 0.250000 0.142857
vt 0.250000 0.285714
vt 0.250000 0.428571
vt 0.333333 0.571429
vt 0.333333 0.714286
vt 0.333333 0.857143
vt 0.333333 1.000000
vt 0.333333 -0.000000
vt 0.333333 0.142857
vt 0.333333 0.285714
vt 0.333333 0.428571
vt 0.416667 0.571429
vt 0.416667 0.714286
vt 0.416667 0.857143
vt 0.416667 1.000000
vt 0.416667 -0.000000
vt 0.416667 0.142857
vt 0.416667 0.285714
vt 0.416667 0.428571
vt 1.000000 1.000000
vt 0.000000 1.000000
vt 0.916667 1.000000
vt 1.000000 0.500000
vt 0.000000 0.500000
vt 1.000000 1.000000
vt 0.000000 1.000000
vt 0.916667 0.500000
vt 0.916667 1.000000
vt 0.833333 0.500000
vt 0.833333 1.000000
vt 0.750000 0.500000
vt 0.750000 1.000000
vt 0.666667 0.500000
vt 0.666667 1.000000
vt 0.583333 0.500000
vt 0.583333 1.000000
vt 0.500000 0.500000
vt 0.500000 1.000000
vt 0.416667 0.500000
vt 0.416667 1.000000
vt 0.333333 0.500000
vt 0.333333 1.000000
vt 0.250000 0.500000
vt 0.250000 1.000000
vt 0.166667 0.500000
vt 0.166667 1.000000
vt 0.083333 0.500000
vt 0.083333 1.000000
vt 0.833333 1.000000
vt 0.750000 1.000000
vt 0.666667 1.000000
vt 0.583333 1.000000
vt 0.500000 1.000000
vt 0.416667 1.000000
vt 0.333333 1.000000
vt 0.250000 1.000000
vt 0.166667 1.000000
vt 0.083333 1.000000
vt 1.000000 1.000000
vt 0.000000 1.000000
vt 0.250000 0.490000
vt 0.083333 1.000000
vt 0.130000 0.457846
vt 0.042154 0.370000
vt 0.166667 1.000000
vt 0.010000 0.250000
vt 0.250000 1.000000
vt 0.333333 1.000000
vt 0.042154 0.130000
vt 0.416667 1.000000
vt 0.130000 0.042154
vt 0.500000 1.000000
vt 0.250000 0.010000
vt 0.370000 0.042154
vt 0.583333 1.000000
vt 0.457846 0.130000
vt 0.666667 1.000000
vt 0.490000 0.250000
vt 0.750000 1.000000
vt 0.457846 0.370000
vt 0.833333 1.000000
vt 0.916667 1.000000
vt 0.370000 0.457846
vt 1.000000 0.500000
vt 0.000000 0.500000
vt 0.916667 0.500000
vt 0.833333 0.500000
vt 0.750000 0.500000
vt 0.666667 0.500000
vt 0.583333 0.500000
vt 0.500000 0.500000
vt 0.416667 0.500000
vt 0.333333 0.500000
vt 0.250000 0.500000
vt 0.166667 0.500000
vt 0.083333 0.500000
vt 0.750000 0.490000
vt 1.000000 0.500000
vt 0.000000 0.500000
vt 0.870000 0.457846
vt 0.916667 0.500000
vt 0.957846 0.370000
vt 0.833333 0.500000
vt 0.990000 0.250000
vt 0.750000 0.500000
vt 0.957846 0.130000
vt 0.666667 0.500000
vt 0.870000 0.042154
vt 0.583333 0.500000
vt 0.750000 0.010000
vt 0.500000 0.500000
vt 0.630000 0.042154
vt 0.416667 0.500000
vt 0.542154 0.130000
vt 0.333333 0.500000
vt 0.510000 0.250000
vt 0.250000 0.500000
vt 0.542154 0.370000
vt 0.166667 0.500000
vt 0.630000 0.457846
vt 0.083333 0.500000
s 1
usemtl Material.032
f 1/1/1 8/9/2 9/10/3 2/2/1
f 2/2/4 9/10/5 10/11/6 3/3/7
f 3/3/8 10/11/9 11/12/10 4/4/11
f 4/5/12 11/13/12 12/14/12 5/6/12
f 5/6/13 12/14/14 13/15/15 6/7/16
f 6/7/17 13/15/18 14/16/19 7/8/20
f 7/8/21 14/16/22 8/9/23 1/1/21
f 8/9/2 15/17/24 16/18/25 9/10/3
f 9/10/5 16/18/26 17/19/27 10/11/6
f 10/11/9 17/19/28 18/20/29 11/12/10
f 11/13/30 18/21/31 19/22/32 12/14/30
f 12/14/14 19/22/33 20/23/34 13/15/15
f 13/15/18 20/23/35 21/24/36 14/16/19
f 14/16/22 21/24/37 15/17/38 8/9/23
f 15/17/24 22/25/39 23/26/40 16/18/25
f 16/18/26 23/26/41 24/27/42 17/19/27
f 17/19/28 24/27/43 25/28/44 18/20/29
f 18/21/31 25/29/45 26/30/46 19/22/32
f 19/22/33 26/30/47 27/31/48 20/23/34
f 20/23/35 27/31/49 28/32/50 21/24/36
f 21/24/37 28/32/51 22/25/52 15/17/38
f 22/25/39 29/33/53 30/34/54 23/26/40
f 23/26/41 30/34/55 31/35/56 24/27/42
f 24/27/43 31/35/57 32/36/58 25/28/44
f 25/29/45 32/37/59 33/38/60 26/30/46
f 26/30/47 33/38/61 34/39/62 27/31/48
f 27/31/49 34/39/63 35/40/64 28/32/50
f 28/32/51 35/40/65 29/33/66 22/25/52
f 29/33/53 36/41/67 37/42/68 30/34/54
f 30/34/55 37/42/69 38/43/70 31/35/56
f 31/35/57 38/43/71 39/44/72 32/36/58
f 32/37/59 39/45/73 40/46/73 33/38/60
f 33/38/61 40/46/74 41/47/75 34/39/62
f 34/39/63 41/47/76 42/48/77 35/40/64
f 35/40/65 42/48/78 36/41/78 29/33/66
f 36/41/67 43/49/79 44/51/79 37/42/68
f 37/42/69 44/51/80 45/53/81 38/43/70
f 38/43/71 45/53/82 46/55/83 39/44/72
f 39/45/84 46/56/84 47/59/84 40/46/84
f 40/46/74 47/59/85 48/61/86 41/47/75
f 41/47/76 48/61/87 49/63/88 42/48/77
f 42/48/89 49/63/89 43/49/89 36/41/89
f 43/50/90 50/65/91 51/66/92 44/52/90
f 44/52/80 51/66/93 52/67/94 45/54/81
f 45/54/82 52/67/95 53/68/96 46/57/83
f 46/58/97 53/69/97 54/70/97 47/60/97
f 47/60/85 54/70/98 55/71/99 48/62/86
f 48/62/87 55/71/100 56/72/101 49/64/88
f 49/64/102 56/72/103 50/65/104 43/50/102
f 50/65/91 57/73/105 58/74/106 51/66/92
f 51/66/93 58/74/107 59/75/108 52/67/94
f 52/67/95 59/75/109 60/76/110 53/68/96
f 53/69/111 60/77/112 61/78/113 54/70/111
f 54/70/98 61/78/114 62/79/115 55/71/99
f 55/71/100 62/79/116 63/80/117 56/72/101
f 56/72/103 63/80/118 57/73/119 50/65/104
f 57/73/105 64/81/120 65/82/121 58/74/106
f 58/74/107 65/82/122 66/83/123 59/75/108
f 59/75/109 66/83/124 67/84/125 60/76/110
f 60/77/112 67/85/126 68/86/127 61/78/113
f 61/78/114 68/86/128 69/87/129 62/79/115
f 62/79/116 69/87/130 70/88/131 63/80/117
f 63/80/118 70/88/132 64/81/133 57/73/119
f 64/81/120 71/89/134 72/90/135 65/82/121
f 65/82/122 72/90/136 73/91/137 66/83/123
f 66/83/124 73/91/138 74/92/139 67/84/125
f 67/85/126 74/93/140 75/94/141 68/86/127
f 68/86/128 75/94/142 76/95/143 69/87/129
f 69/87/130 76/95/144 77/96/145 70/88/131
f 70/88/132 77/96/146 71/89/147 64/81/133
f 71/89/134 78/97/148 79/98/148 72/90/135
f 72/90/136 79/98/149 80/99/150 73/91/137
f 73/91/138 80/99/151 81/100/152 74/92/139
f 74/93/140 81/101/153 82/102/153 75/94/141
f 75/94/142 82/102/154 83/103/155 76/95/143
f 76/95/144 83/103/156 84/104/157 77/96/145
f 77/96/146 84/104/158 78/97/159 71/89/147
f 78/97/160 1/1/160 2/2/160 79/98/160
f 79/98/149 2/2/4 3/3/7 80/99/150
f 80/99/151 3/3/8 4/4/11 81/100/152
f 81/101/161 4/5/161 5/6/161 82/102/161
f 82/102/154 5/6/13 6/7/16 83/103/155
f 83/103/156 6/7/17 7/8/20 84/104/157
f 84/104/158 7/8/162 1/1/162 78/97/159
f 86/107/163 85/105/164 121/144/165 132/167/166
f 96/119/167 94/117/168 112/135/169 113/136/170
f 87/108/171 88/110/172 90/113/173 89/112/173
f 120/143/174 119/142/175 123/150/176 122/147/177
f 100/123/178 98/121/179 114/137/180 115/138/181
f 89/112/182 90/113/182 92/115/182 91/114/182
f 117/140/183 116/139/184 126/155/185 125/153/186
f 104/127/187 102/125/188 116/139/189 117/140/190
f 91/114/191 92/115/191 94/117/191 93/116/191
f 85/106/164 120/143/174 122/147/177 121/145/165
f 108/131/192 106/129/193 118/141/194 119/142/195
f 93/116/196 94/117/196 96/119/197 95/118/198
f 115/138/199 114/137/200 128/160/201 127/157/202
f 94/117/168 92/115/203 111/134/204 112/135/169
f 95/118/198 96/119/197 98/121/205 97/120/206
f 113/136/207 112/135/208 130/164/209 129/162/210
f 98/121/179 96/119/167 113/136/170 114/137/180
f 97/120/206 98/121/205 100/123/211 99/122/212
f 111/134/213 86/107/163 132/167/166 131/166/214
f 102/125/188 100/123/178 115/138/181 116/139/189
f 99/122/212 100/123/211 102/125/215 101/124/215
f 118/141/216 117/140/183 125/153/186 124/152/217
f 106/129/193 104/127/187 117/140/190 118/141/194
f 101/124/218 102/125/218 104/127/218 103/126/218
f 116/139/184 115/138/199 127/157/202 126/155/185
f 90/113/219 88/110/220 85/105/221 86/107/222
f 103/126/223 104/127/223 106/129/223 105/128/223
f 132/168/224 121/146/224 122/148/224 123/149/224 124/151/224 125/154/224 126/156/224 127/158/224 128/159/224 129/161/224 130/163/224 131/165/224
f 110/133/225 108/131/192 119/142/195 120/143/226
f 105/128/227 106/129/227 108/131/228 107/130/229
f 88/111/220 110/133/225 120/143/226 85/106/221
f 114/137/200 113/136/207 129/162/210 128/160/201
f 107/130/229 108/131/228 110/133/230 109/132/231
f 119/142/175 118/141/216 124/152/217 123/150/176
f 92/115/203 90/113/219 86/107/222 111/134/204
f 109/132/231 110/133/230 88/111/172 87/109/171
f 105/128/232 107/130/232 143/180/232 142/179/232
f 112/135/208 111/134/213 131/166/214 130/164/209
f 135/172/233 136/173/233 148/190/233 147/188/233
f 101/124/232 103/126/232 141/178/232 140/177/232
f 97/120/232 99/122/232 139/176/232 138/175/232
f 87/108/232 89/112/232 134/171/232 133/169/232
f 93/116/232 95/118/232 137/174/232 136/173/232
f 89/112/232 91/114/232 135/172/232 134/171/232
f 107/130/232 109/132/232 144/181/232 143/180/232
f 103/126/232 105/128/232 142/179/232 141/178/232
f 99/122/232 101/124/232 140/177/232 139/176/232
f 109/132/232 87/109/232 133/170/232 144/181/232
f 95/118/232 97/120/232 138/175/232 137/174/232
f 91/114/232 93/116/232 136/173/232 135/172/232
f 145/182/232 146/185/232 147/187/232 148/189/232 149/191/232 150/193/232 151/195/232 152/197/232 153/199/232 154/201/232 155/203/232 156/205/232
f 142/179/234 143/180/235 155/204/236 154/202/234
f 139/176/237 140/177/238 152/198/238 151/196/239
f 136/173/240 137/174/241 149/192/242 148/190/240
f 143/180/235 144/181/243 156/206/244 155/204/236
f 133/169/245 134/171/246 146/186/246 145/183/247
f 140/177/248 141/178/248 153/200/248 152/198/248
f 137/174/241 138/175/249 150/194/250 149/192/242
f 144/181/243 133/170/245 145/184/247 156/206/244
f 134/171/251 135/172/251 147/188/251 146/186/251
f 141/178/252 142/179/252 154/202/252 153/200/252
f 138/175/249 139/176/237 151/196/239 150/194/250
