# Blender 3.4.0
# www.blender.org
mtllib Cube_010.mtl
o Cube.010
v 1.188967 2.829364 11.159358
v 1.188941 2.930342 11.159606
v 1.278075 2.831483 10.307370
v 1.278049 2.932461 10.307619
v 4.108865 2.829364 11.464748
v 4.108839 2.930342 11.464997
v 4.197974 2.831483 10.612761
v 4.197948 2.932461 10.613009
v 1.503574 2.974118 10.822268
v 1.503474 3.365484 10.823232
v 1.516052 2.974414 10.702970
v 1.515951 3.365781 10.703932
v 1.912432 2.974118 10.865031
v 1.912331 3.365484 10.865993
v 1.924909 2.974414 10.745731
v 1.924809 3.365781 10.746695
v 3.446133 2.981678 11.023130
v 3.446037 3.357935 11.024056
v 3.458129 2.981964 10.908438
v 3.458032 3.358220 10.909363
v 3.839206 2.981678 11.064242
v 3.839109 3.357935 11.065167
v 3.851202 2.981964 10.949549
v 3.851105 3.358220 10.950474
v 3.601551 2.950528 10.994823
v 3.601236 4.178133 10.997843
v 3.604342 2.950594 10.968137
v 3.604027 4.178200 10.971156
v 3.693010 2.950528 11.004389
v 3.692694 4.178133 11.007408
v 3.695801 2.950594 10.977702
v 3.695485 4.178200 10.980722
v 2.622278 2.949600 11.269464
v 2.621962 4.177206 11.272483
v 2.625069 2.949667 11.242777
v 2.624753 4.177272 11.245796
v 2.713736 2.949600 11.279029
v 2.713420 4.177206 11.282048
v 2.716527 2.949667 11.252342
v 2.716211 4.177272 11.255362
v 2.792963 2.949600 11.287315
v 2.792647 4.177206 11.290335
v 2.795754 2.949667 11.260629
v 2.795438 4.177272 11.263648
v 2.884421 2.949600 11.296881
v 2.884105 4.177206 11.299900
v 2.887212 2.949667 11.270194
v 2.886896 4.177272 11.273213
v 2.552777 3.059636 10.961885
v 2.552675 3.454448 10.962856
v 2.571393 3.060079 10.783891
v 2.571291 3.454890 10.784863
v 3.162791 3.059636 11.025686
v 3.162689 3.454448 11.026657
v 3.181407 3.060079 10.847692
v 3.181305 3.454890 10.848663
v 4.624949 3.059636 11.178613
v 4.624848 3.454448 11.179584
v 4.643566 3.060079 11.000619
v 4.643464 3.454890 11.001590
v 5.234964 3.059636 11.242414
v 5.234862 3.454448 11.243385
v 5.253580 3.060079 11.064420
v 5.253479 3.454890 11.065391
v 4.626363 2.825882 11.106648
v 4.626127 3.742749 11.108904
v 4.630179 2.825973 11.070168
v 4.629943 3.742840 11.072423
v 4.751390 2.825882 11.119725
v 4.751154 3.742749 11.121981
v 4.755205 2.825973 11.083244
v 4.754970 3.742840 11.085499
v 3.813052 2.600072 11.021023
v 3.812816 3.516940 11.023278
v 3.816868 2.600163 10.984542
v 3.816632 3.517030 10.986797
v 4.235272 2.600072 11.065183
v 4.235036 3.516940 11.067438
v 4.239087 2.600163 11.028702
v 4.238852 3.517030 11.030957
v 2.300450 3.900612 10.474945
v 2.300214 4.817479 10.477201
v 2.304266 3.900702 10.438464
v 2.304030 4.817570 10.440720
v 4.001502 3.900612 10.652858
v 4.001266 4.817479 10.655112
v 4.005318 3.900702 10.616376
v 4.005082 4.817570 10.618631
v 1.379971 2.949600 11.139531
v 1.379656 4.177206 11.142550
v 1.382762 2.949667 11.112844
v 1.382447 4.177272 11.115864
v 1.471430 2.949600 11.149096
v 1.471114 4.177206 11.152116
v 1.474221 2.949667 11.122410
v 1.473905 4.177272 11.125430
v 1.550656 2.949600 11.157383
v 1.550341 4.177206 11.160402
v 1.553447 2.949667 11.130696
v 1.553132 4.177272 11.133716
v 1.642115 2.949600 11.166948
v 1.641799 4.177206 11.169968
v 1.644906 2.949667 11.140262
v 1.644590 4.177272 11.143282
vn -0.9946 -0.0000 -0.1040
vn 0.1040 0.0025 -0.9946
vn 0.9946 -0.0000 0.1040
vn -0.1040 -0.0025 0.9946
vn 0.0003 -1.0000 -0.0025
vn -0.0003 1.0000 0.0025
vt 0.375000 0.000000
vt 0.375000 1.000000
vt 0.125000 0.750000
vt 0.625000 0.000000
vt 0.625000 1.000000
vt 0.875000 0.750000
vt 0.375000 0.250000
vt 0.125000 0.500000
vt 0.625000 0.250000
vt 0.875000 0.500000
vt 0.375000 0.750000
vt 0.625000 0.750000
vt 0.375000 0.500000
vt 0.625000 0.500000
vt 0.375000 0.000000
vt 0.375000 1.000000
vt 0.125000 0.750000
vt 0.625000 0.000000
vt 0.625000 1.000000
vt 0.875000 0.750000
vt 0.375000 0.250000
vt 0.125000 0.500000
vt 0.625000 0.250000
vt 0.875000 0.500000
vt 0.375000 0.750000
vt 0.625000 0.750000
vt 0.375000 0.500000
vt 0.625000 0.500000
vt 0.375000 0.000000
vt 0.375000 1.000000
vt 0.125000 0.750000
vt 0.625000 0.000000
vt 0.625000 1.000000
vt 0.875000 0.750000
vt 0.375000 0.250000
vt 0.125000 0.500000
vt 0.625000 0.250000
vt 0.875000 0.500000
vt 0.375000 0.750000
vt 0.625000 0.750000
vt 0.375000 0.500000
vt 0.625000 0.500000
vt 0.375000 0.000000
vt 0.375000 1.000000
vt 0.125000 0.750000
vt 0.625000 0.000000
vt 0.625000 1.000000
vt 0.875000 0.750000
vt 0.375000 0.250000
vt 0.125000 0.500000
vt 0.625000 0.250000
vt 0.875000 0.500000
vt 0.375000 0.750000
vt 0.625000 0.750000
vt 0.375000 0.500000
vt 0.625000 0.500000
vt 0.375000 0.000000
vt 0.375000 1.000000
vt 0.125000 0.750000
vt 0.625000 0.000000
vt 0.625000 1.000000
vt 0.875000 0.750000
vt 0.375000 0.250000
vt 0.125000 0.500000
vt 0.625000 0.250000
vt 0.875000 0.500000
vt 0.375000 0.750000
vt 0.625000 0.750000
vt 0.375000 0.500000
vt 0.625000 0.500000
vt 0.375000 0.000000
vt 0.375000 1.000000
vt 0.125000 0.750000
vt 0.625000 0.000000
vt 0.625000 1.000000
vt 0.875000 0.750000
vt 0.375000 0.250000
vt 0.125000 0.500000
vt 0.625000 0.250000
vt 0.875000 0.500000
vt 0.375000 0.750000
vt 0.625000 0.750000
vt 0.375000 0.500000
vt 0.625000 0.500000
vt 0.375000 0.000000
vt 0.375000 1.000000
vt 0.125000 0.750000
vt 0.625000 0.000000
vt 0.625000 1.000000
vt 0.875000 0.750000
vt 0.375000 0.250000
vt 0.125000 0.500000
vt 0.625000 0.250000
vt 0.875000 0.500000
vt 0.375000 0.750000
vt 0.625000 0.750000
vt 0.375000 0.500000
vt 0.625000 0.500000
vt 0.375000 0.000000
vt 0.375000 1.000000
vt 0.125000 0.750000
vt 0.625000 0.000000
vt 0.625000 1.000000
vt 0.875000 0.750000
vt 0.375000 0.250000
vt 0.125000 0.500000
vt 0.625000 0.250000
vt 0.875000 0.500000
vt 0.375000 0.750000
vt 0.625000 0.750000
vt 0.375000 0.500000
vt 0.625000 0.500000
vt 0.375000 0.000000
vt 0.375000 1.000000
vt 0.125000 0.750000
vt 0.625000 0.000000
vt 0.625000 1.000000
vt 0.875000 0.750000
vt 0.375000 0.250000
vt 0.125000 0.500000
vt 0.625000 0.250000
vt 0.875000 0.500000
vt 0.375000 0.750000
vt 0.625000 0.750000
vt 0.375000 0.500000
vt 0.625000 0.500000
vt 0.375000 0.000000
vt 0.375000 1.000000
vt 0.125000 0.750000
vt 0.625000 0.000000
vt 0.625000 1.000000
vt 0.875000 0.750000
vt 0.375000 0.250000
vt 0.125000 0.500000
vt 0.625000 0.250000
vt 0.875000 0.500000
vt 0.375000 0.750000
vt 0.625000 0.750000
vt 0.375000 0.500000
vt 0.625000 0.500000
vt 0.375000 0.000000
vt 0.375000 1.000000
vt 0.125000 0.750000
vt 0.625000 0.000000
vt 0.625000 1.000000
vt 0.875000 0.750000
vt 0.375000 0.250000
vt 0.125000 0.500000
vt 0.625000 0.250000
vt 0.875000 0.500000
vt 0.375000 0.750000
vt 0.625000 0.750000
vt 0.375000 0.500000
vt 0.625000 0.500000
vt 0.375000 0.000000
vt 0.375000 1.000000
vt 0.125000 0.750000
vt 0.625000 0.000000
vt 0.625000 1.000000
vt 0.875000 0.750000
vt 0.375000 0.250000
vt 0.125000 0.500000
vt 0.625000 0.250000
vt 0.875000 0.500000
vt 0.375000 0.750000
vt 0.625000 0.750000
vt 0.375000 0.500000
vt 0.625000 0.500000
vt 0.375000 0.000000
vt 0.375000 1.000000
vt 0.125000 0.750000
vt 0.625000 0.000000
vt 0.625000 1.000000
vt 0.875000 0.750000
vt 0.375000 0.250000
vt 0.125000 0.500000
vt 0.625000 0.250000
vt 0.875000 0.500000
vt 0.375000 0.750000
vt 0.625000 0.750000
vt 0.375000 0.500000
vt 0.625000 0.500000
s 0
f 1/1/1 2/4/1 4/9/1 3/7/1
f 3/7/2 4/9/2 8/14/2 7/13/2
f 7/13/3 8/14/3 6/12/3 5/11/3
f 5/11/4 6/12/4 2/5/4 1/2/4
f 3/8/5 7/13/5 5/11/5 1/3/5
f 8/14/6 4/10/6 2/6/6 6/12/6
f 9/15/1 10/18/1 12/23/1 11/21/1
f 11/21/2 12/23/2 16/28/2 15/27/2
f 15/27/3 16/28/3 14/26/3 13/25/3
f 13/25/4 14/26/4 10/19/4 9/16/4
f 11/22/5 15/27/5 13/25/5 9/17/5
f 16/28/6 12/24/6 10/20/6 14/26/6
f 17/29/1 18/32/1 20/37/1 19/35/1
f 19/35/2 20/37/2 24/42/2 23/41/2
f 23/41/3 24/42/3 22/40/3 21/39/3
f 21/39/4 22/40/4 18/33/4 17/30/4
f 19/36/5 23/41/5 21/39/5 17/31/5
f 24/42/6 20/38/6 18/34/6 22/40/6
f 25/43/1 26/46/1 28/51/1 27/49/1
f 27/49/2 28/51/2 32/56/2 31/55/2
f 31/55/3 32/56/3 30/54/3 29/53/3
f 29/53/4 30/54/4 26/47/4 25/44/4
f 27/50/5 31/55/5 29/53/5 25/45/5
f 32/56/6 28/52/6 26/48/6 30/54/6
f 33/57/1 34/60/1 36/65/1 35/63/1
f 35/63/2 36/65/2 40/70/2 39/69/2
f 39/69/3 40/70/3 38/68/3 37/67/3
f 37/67/4 38/68/4 34/61/4 33/58/4
f 35/64/5 39/69/5 37/67/5 33/59/5
f 40/70/6 36/66/6 34/62/6 38/68/6
f 41/71/1 42/74/1 44/79/1 43/77/1
f 43/77/2 44/79/2 48/84/2 47/83/2
f 47/83/3 48/84/3 46/82/3 45/81/3
f 45/81/4 46/82/4 42/75/4 41/72/4
f 43/78/5 47/83/5 45/81/5 41/73/5
f 48/84/6 44/80/6 42/76/6 46/82/6
f 49/85/1 50/88/1 52/93/1 51/91/1
f 51/91/2 52/93/2 56/98/2 55/97/2
f 55/97/3 56/98/3 54/96/3 53/95/3
f 53/95/4 54/96/4 50/89/4 49/86/4
f 51/92/5 55/97/5 53/95/5 49/87/5
f 56/98/6 52/94/6 50/90/6 54/96/6
f 57/99/1 58/102/1 60/107/1 59/105/1
f 59/105/2 60/107/2 64/112/2 63/111/2
f 63/111/3 64/112/3 62/110/3 61/109/3
f 61/109/4 62/110/4 58/103/4 57/100/4
f 59/106/5 63/111/5 61/109/5 57/101/5
f 64/112/6 60/108/6 58/104/6 62/110/6
f 65/113/1 66/116/1 68/121/1 67/119/1
f 67/119/2 68/121/2 72/126/2 71/125/2
f 71/125/3 72/126/3 70/124/3 69/123/3
f 69/123/4 70/124/4 66/117/4 65/114/4
f 67/120/5 71/125/5 69/123/5 65/115/5
f 72/126/6 68/122/6 66/118/6 70/124/6
f 73/127/1 74/130/1 76/135/1 75/133/1
f 75/133/2 76/135/2 80/140/2 79/139/2
f 79/139/3 80/140/3 78/138/3 77/137/3
f 77/137/4 78/138/4 74/131/4 73/128/4
f 75/134/5 79/139/5 77/137/5 73/129/5
f 80/140/6 76/136/6 74/132/6 78/138/6
f 81/141/1 82/144/1 84/149/1 83/147/1
f 83/147/2 84/149/2 88/154/2 87/153/2
f 87/153/3 88/154/3 86/152/3 85/151/3
f 85/151/4 86/152/4 82/145/4 81/142/4
f 83/148/5 87/153/5 85/151/5 81/143/5
f 88/154/6 84/150/6 82/146/6 86/152/6
f 89/155/1 90/158/1 92/163/1 91/161/1
f 91/161/2 92/163/2 96/168/2 95/167/2
f 95/167/3 96/168/3 94/166/3 93/165/3
f 93/165/4 94/166/4 90/159/4 89/156/4
f 91/162/5 95/167/5 93/165/5 89/157/5
f 96/168/6 92/164/6 90/160/6 94/166/6
f 97/169/1 98/172/1 100/177/1 99/175/1
f 99/175/2 100/177/2 104/182/2 103/181/2
f 103/181/3 104/182/3 102/180/3 101/179/3
f 101/179/4 102/180/4 98/173/4 97/170/4
f 99/176/5 103/181/5 101/179/5 97/171/5
f 104/182/6 100/178/6 98/174/6 102/180/6
