# Blender 3.4.0
# www.blender.org
mtllib Cube_046.mtl
o Cube.046
v -1.594978 10.411226 11.241592
v -1.556324 10.266457 11.245275
v -3.717296 10.403965 11.019605
v -3.678642 10.259194 11.023287
v -3.601832 9.915015 11.005042
v -3.636394 10.060369 11.001789
v -1.479780 9.888399 11.226923
v -1.514341 10.033753 11.223669
v -3.598136 9.915103 10.969705
v -3.632698 10.060456 10.966452
v -1.510646 10.033841 11.188332
v -1.476084 9.888487 11.191586
v -3.495468 9.443122 11.014994
v -3.530036 9.612324 11.011799
v -1.373413 9.412139 11.236863
v -1.407982 9.581341 11.233668
v -3.491772 9.443210 10.979656
v -3.526340 9.612411 10.976461
v -1.404286 9.581429 11.198331
v -1.369718 9.412227 11.201526
v -3.362431 9.265692 11.023142
v -3.290300 9.242807 11.030629
v -3.701034 10.501238 10.990801
v -3.628904 10.478354 10.998288
v -3.359837 9.265754 10.998339
v -3.287706 9.242869 11.005826
v -3.626310 10.478416 10.973486
v -3.698440 10.501300 10.965999
v -2.092259 9.222825 11.154157
v -2.036582 9.187524 11.159892
v -2.126346 10.331312 11.153349
v -2.070669 10.296011 11.159084
v -2.090022 9.222878 11.132768
v -2.034344 9.187576 11.138502
v -2.068432 10.296064 11.137695
v -2.124109 10.331366 11.131960
v -1.857314 9.125114 11.180607
v -1.787003 9.124278 11.187958
v -1.888162 10.356878 11.180445
v -1.817852 10.356041 11.187797
v -1.854638 9.125178 11.155023
v -1.784327 9.124341 11.162374
v -1.815176 10.356105 11.162211
v -1.885486 10.356942 11.154860
v -1.591959 10.411298 11.212725
v -1.553305 10.266528 11.216408
v -3.675622 10.259266 10.994419
v -3.714277 10.404037 10.990737
v -2.505967 9.405397 11.137642
v -2.471204 9.383356 11.141223
v -2.527250 10.097503 11.137137
v -2.492487 10.075462 11.140718
v -2.504570 9.405430 11.124288
v -2.469807 9.383389 11.127869
v -2.491090 10.075496 11.127364
v -2.525853 10.097536 11.123783
v -3.238842 10.429651 11.067128
v -3.153903 10.466135 11.076102
v -3.048671 9.193885 11.083946
v -2.963731 9.230369 11.092920
v -3.236776 10.429701 11.047371
v -3.151836 10.466185 11.056345
v -2.961665 9.230417 11.073163
v -3.046604 9.193933 11.064189
v -2.536125 10.408006 11.143151
v -2.497471 10.263236 11.146834
v -2.533106 10.408078 11.114284
v -2.494452 10.263308 11.117967
v -2.537286 10.370967 11.154250
v -2.534267 10.371038 11.125382
v -2.498631 10.226197 11.157932
v -2.495612 10.226269 11.129065
vn 0.1040 0.0025 -0.9946
vn -0.1040 -0.0025 0.9946
vn -0.9673 -0.2323 -0.1018
vn 0.0121 0.9999 0.0038
vn 0.9673 0.2323 0.1018
vn -0.0121 -0.9999 -0.0038
vn -0.9742 -0.2010 -0.1024
vn 0.0142 0.9999 0.0040
vn 0.9742 0.2010 0.1024
vn -0.0142 -0.9999 -0.0040
vn 0.2991 0.9536 0.0337
vn -0.9588 -0.2654 -0.1009
vn -0.2991 -0.9536 -0.0337
vn 0.9588 0.2654 0.1009
vn 0.5303 0.8458 0.0576
vn -0.9941 -0.0306 -0.1040
vn -0.5303 -0.8458 -0.0576
vn 0.9941 0.0306 0.1041
vn 0.0115 0.9999 0.0037
vn -0.9943 -0.0249 -0.1041
vn -0.0115 -0.9999 -0.0037
vn 0.9943 0.0249 0.1041
vn -0.0273 -0.9996 -0.0053
vn -0.9606 -0.2590 -0.1011
vn -0.0036 1.0000 0.0021
vn 0.9606 0.2590 0.1011
vn 0.5304 0.8458 0.0576
vn 0.9941 0.0306 0.1040
vn -0.3909 0.9196 -0.0386
vn 0.9829 0.1527 0.1032
vn 0.3909 -0.9196 0.0386
vn -0.9829 -0.1527 -0.1032
vn -0.9687 -0.0429 -0.2444
vn -0.8305 -0.1358 -0.5402
vn -0.9946 -0.0000 -0.1040
vn 0.0036 -1.0000 -0.0021
vn 0.8305 0.1358 0.5402
vn 0.6636 0.1956 0.7221
vn 0.9687 0.0429 0.2444
vn -0.6636 -0.1956 -0.7221
vn 0.1135 0.0050 -0.9935
vn -0.1135 -0.0050 0.9935
vn 0.0273 0.9996 0.0053
vn 0.9946 -0.0000 0.1040
vt 0.597203 0.396438
vt 0.595854 0.381446
vt 0.670354 0.395528
vt 0.669004 0.380536
vt 0.518044 0.371463
vt 0.516832 0.356410
vt 0.592039 0.374161
vt 0.590834 0.359109
vt 0.518044 0.371463
vt 0.516832 0.356410
vt 0.590834 0.359109
vt 0.592039 0.374162
vt 0.520755 0.339286
vt 0.519543 0.331201
vt 0.594695 0.340702
vt 0.593496 0.332618
vt 0.520755 0.339286
vt 0.519543 0.331201
vt 0.593496 0.332618
vt 0.594695 0.340702
vt 0.554491 0.283719
vt 0.556708 0.285142
vt 0.528782 0.365749
vt 0.531011 0.367173
vt 0.554491 0.283719
vt 0.556708 0.285142
vt 0.531011 0.367173
vt 0.528782 0.365749
vt 0.587034 0.285184
vt 0.589239 0.286606
vt 0.561492 0.367234
vt 0.563707 0.368656
vt 0.587034 0.285184
vt 0.589239 0.286606
vt 0.563707 0.368656
vt 0.561492 0.367234
vt 0.546946 0.282277
vt 0.548689 0.278892
vt 0.563789 0.374992
vt 0.565527 0.371607
vt 0.546946 0.282277
vt 0.548689 0.278892
vt 0.565527 0.371607
vt 0.563789 0.374992
vt 0.597203 0.396438
vt 0.595854 0.381446
vt 0.669004 0.380536
vt 0.670354 0.395528
vt 0.587034 0.285184
vt 0.589239 0.286606
vt 0.561492 0.367234
vt 0.563707 0.368656
vt 0.587034 0.285184
vt 0.589239 0.286606
vt 0.563707 0.368656
vt 0.561492 0.367234
vt 0.520755 0.339286
vt 0.519543 0.331201
vt 0.594695 0.340702
vt 0.593496 0.332618
vt 0.520755 0.339286
vt 0.519543 0.331201
vt 0.593496 0.332618
vt 0.594695 0.340702
vt 0.629642 0.396034
vt 0.628293 0.381042
vt 0.629642 0.396034
vt 0.628293 0.381042
vt 0.629642 0.396034
vt 0.629642 0.396034
vt 0.628293 0.381042
vt 0.628293 0.381042
s 1
usemtl random_pier
f 65/65/1 1/1/1 2/2/1 66/66/1
f 7/7/1 5/5/1 6/6/1 8/8/1
f 12/12/2 11/11/2 10/10/2 9/9/2
f 7/7/3 8/8/3 11/11/3 12/12/3
f 5/5/4 7/7/4 12/12/4 9/9/4
f 6/6/5 5/5/5 9/9/5 10/10/5
f 8/8/6 6/6/6 10/10/6 11/11/6
f 15/15/1 13/13/1 14/14/1 16/16/1
f 20/20/2 19/19/2 18/18/2 17/17/2
f 15/15/7 16/16/7 19/19/7 20/20/7
f 13/13/8 15/15/8 20/20/8 17/17/8
f 14/14/9 13/13/9 17/17/9 18/18/9
f 16/16/10 14/14/10 18/18/10 19/19/10
f 23/23/2 21/21/2 22/22/2 24/24/2
f 28/28/1 27/27/1 26/26/1 25/25/1
f 23/23/11 24/24/11 27/27/11 28/28/11
f 21/21/12 23/23/12 28/28/12 25/25/12
f 22/22/13 21/21/13 25/25/13 26/26/13
f 24/24/14 22/22/14 26/26/14 27/27/14
f 31/31/2 29/29/2 30/30/2 32/32/2
f 36/36/1 35/35/1 34/34/1 33/33/1
f 31/31/15 32/32/15 35/35/15 36/36/15
f 29/29/16 31/31/16 36/36/16 33/33/16
f 30/30/17 29/29/17 33/33/17 34/34/17
f 32/32/18 30/30/18 34/34/18 35/35/18
f 39/39/2 37/37/2 38/38/2 40/40/2
f 44/44/1 43/43/1 42/42/1 41/41/1
f 39/39/19 40/40/19 43/43/19 44/44/19
f 37/37/20 39/39/20 44/44/20 41/41/20
f 38/38/21 37/37/21 41/41/21 42/42/21
f 40/40/22 38/38/22 42/42/22 43/43/22
f 67/67/2 68/68/2 46/46/2 45/45/2
f 69/69/23 3/3/23 48/48/23 70/70/23
f 2/2/24 1/1/24 45/45/24 46/46/24
f 66/66/25 2/2/25 46/46/25 68/68/25
f 3/3/26 4/4/26 47/47/26 48/48/26
f 51/51/2 49/49/2 50/50/2 52/52/2
f 56/56/1 55/55/1 54/54/1 53/53/1
f 51/51/27 52/52/27 55/55/27 56/56/27
f 49/49/16 51/51/16 56/56/16 53/53/16
f 50/50/17 49/49/17 53/53/17 54/54/17
f 52/52/28 50/50/28 54/54/28 55/55/28
f 59/59/1 57/57/1 58/58/1 60/60/1
f 64/64/2 63/63/2 62/62/2 61/61/2
f 59/59/29 60/60/29 63/63/29 64/64/29
f 57/57/30 59/59/30 64/64/30 61/61/30
f 58/58/31 57/57/31 61/61/31 62/62/31
f 60/60/32 58/58/32 62/62/32 63/63/32
f 71/71/33 66/66/34 68/68/35 72/72/35
f 1/1/36 65/65/36 67/67/36 45/45/36
f 70/70/37 72/72/38 68/68/38 67/67/39
f 69/69/40 65/65/40 66/66/34 71/71/33
f 3/3/41 69/69/41 71/71/41 4/4/41
f 48/48/42 47/47/42 72/72/42 70/70/42
f 4/4/43 71/71/43 72/72/43 47/47/43
f 65/65/44 69/69/44 70/70/37 67/67/39
