# Blender 3.4.0
# www.blender.org
mtllib Cube_131.mtl
o Cube.131
v 5.075200 9.288013 -36.631744
v 5.068630 9.435211 -36.600468
v 5.145945 9.298708 -36.700390
v 5.154302 9.448164 -36.683594
v 5.166819 9.260567 -36.541595
v 5.179581 9.401975 -36.491299
v 5.237564 9.271263 -36.610241
v 5.265253 9.414927 -36.574429
v 5.057471 9.475933 -36.576729
v 5.170454 9.491701 -36.686756
v 5.168422 9.442697 -36.467560
v 5.281404 9.458465 -36.577587
v 5.061534 9.484254 -36.600140
v 5.147206 9.497207 -36.683266
v 5.198583 9.444246 -36.465130
v 5.284255 9.457199 -36.548256
v 5.065676 9.495605 -36.543289
v 5.201082 9.514116 -36.675270
v 5.142403 9.472620 -36.467796
v 5.277810 9.491132 -36.599777
v 5.065688 9.515667 -36.617714
v 5.124934 9.524624 -36.675201
v 5.226096 9.467244 -36.459938
v 5.285342 9.476202 -36.517426
v 5.095190 9.288457 -36.608326
v 5.131721 9.408656 -36.536839
v 5.130476 9.276124 -36.570763
v 5.103135 9.417592 -36.561787
v 5.146675 9.298819 -36.701096
v 5.155032 9.448275 -36.684303
v 5.238294 9.271373 -36.610950
v 5.265983 9.415038 -36.575134
v 5.169378 9.299673 -36.680309
v 5.220836 9.422130 -36.623306
v 5.207747 9.287807 -36.645737
v 5.195333 9.431532 -36.651245
v 5.145945 9.298708 -36.700390
v 5.145945 9.298708 -36.700390
v 5.075200 9.288013 -36.631744
v 5.075200 9.288013 -36.631744
v 5.075200 9.288013 -36.631744
v 5.068630 9.435211 -36.600468
v 5.068630 9.435211 -36.600468
v 5.154302 9.448164 -36.683594
v 5.237564 9.271263 -36.610241
v 5.237564 9.271263 -36.610241
v 5.265253 9.414927 -36.574429
v 5.166819 9.260567 -36.541595
v 5.166819 9.260567 -36.541595
v 5.166819 9.260567 -36.541595
v 5.179581 9.401975 -36.491299
v 5.179581 9.401975 -36.491299
vn -0.7006 0.1182 -0.7037
vn -0.6971 0.0096 -0.7169
vn 0.7068 0.0398 -0.7063
vn 0.6755 -0.1295 -0.7259
vn 0.6876 -0.2976 0.6623
vn 0.6538 -0.4579 0.6024
vn -0.7167 -0.1754 0.6750
vn -0.7084 -0.3479 0.6141
vn -0.0706 -0.9720 -0.2242
vn -0.6717 -0.5249 0.5228
vn 0.6082 -0.3344 -0.7199
vn 0.5759 -0.6531 0.4917
vn -0.6706 -0.1812 -0.7194
vn 0.5292 -0.7305 0.4316
vn -0.6575 -0.5678 0.4953
vn -0.6374 -0.3103 -0.7053
vn 0.5707 -0.4175 -0.7071
vn 0.6789 0.1839 -0.7108
vn 0.7378 0.1685 -0.6536
vn 0.7429 0.0310 -0.6687
vn 0.6851 0.0466 -0.7270
vt 0.889090 0.002946
vt 0.863825 0.570471
vt 0.889090 0.204284
vt 0.239706 0.798635
vt 0.567079 0.239784
vt 1.128578 0.002946
vt 1.049227 0.954151
vt 1.128578 0.204284
vt 0.727597 0.811357
vt 0.802357 -0.056324
vt 0.208104 0.152073
vt 0.863825 0.219136
vt 0.567079 0.326589
vt 0.567079 0.216360
vt 0.789805 0.152073
vt 1.153844 0.219136
vt 0.857099 0.326589
vt 0.857099 0.216360
vt 0.792925 0.149802
vt 0.661934 0.225484
vt 0.210300 0.149802
vt 0.880729 0.225484
vt 0.190103 0.218104
vt 0.859765 0.227624
vt 0.802357 0.218104
vt 1.078560 0.227624
vt 0.908553 0.274360
vt 0.611808 0.270219
vt 1.109116 0.274360
vt 0.812370 0.270219
vt 0.695678 0.280078
vt 0.846985 0.280078
vt 0.893509 0.279321
vt 1.044816 0.279321
vt 0.943582 0.281050
vt 1.033595 0.556067
vt 0.935428 0.662546
vt 0.858085 0.941931
vt 0.889090 0.266646
vt 0.863825 0.570471
vt 0.831833 -0.064041
vt 0.857099 0.239784
vt 0.943582 0.281050
vt 1.033595 0.556067
vt 0.743300 -0.051821
vt 0.665957 0.227564
vt 0.698482 0.191809
vt 0.286342 0.237828
vt 0.316089 0.191809
vt 0.327548 0.275351
vt 0.889090 0.266646
vt 0.285250 0.783988
vt 0.208104 -0.027602
vt 0.275747 0.834851
vt 0.792925 -0.031335
vt 0.738824 0.834851
vt 0.210300 -0.031335
vt 0.728395 0.237828
vt 0.689998 0.212034
vt 0.775031 0.798635
vt 0.857099 0.239784
vt 0.333604 0.212034
vt 0.728478 0.275351
vt 1.023962 0.650326
vt 0.296004 0.811357
vt 0.190103 -0.056324
vt 0.770776 0.783988
vt 0.789805 -0.027602
s 1
usemtl Material.016
f 39/49/1 43/54/2 44/56/2 37/47/1
f 38/48/3 4/4/4 47/60/4 45/58/3
f 46/59/5 8/9/6 51/65/6 48/62/5
f 49/63/7 52/67/8 42/52/8 40/50/7
f 3/3/9 7/8/9 5/6/9 1/1/9
f 42/53/8 52/68/8 11/15/10 9/11/10
f 47/61/4 4/5/4 10/13/11 12/17/11
f 51/66/6 8/10/6 16/25/12 15/23/12
f 44/57/2 43/55/2 13/19/13 14/21/13
f 15/24/12 16/26/12 24/34/14 23/33/14
f 9/12/10 11/16/10 19/29/15 17/27/15
f 14/22/13 13/20/13 21/31/16 22/32/16
f 12/18/11 10/14/11 18/28/17 20/30/17
f 6/7/18 50/64/18 27/37/18 28/38/18
f 41/51/19 2/2/19 26/36/19 25/35/19
f 32/42/20 31/41/20 35/45/20 36/46/20
f 29/39/21 30/40/21 34/44/21 33/43/21
