# Blender 3.4.0
# www.blender.org
mtllib Cube_023.mtl
o Cube.023
v -54.422668 -12.349403 7.513257
v -54.422668 59.415886 7.513257
v -54.422668 -12.349403 -8.804575
v -54.422668 59.415886 -8.804575
v -37.813309 -12.349403 7.513257
v -37.813309 59.415886 7.513257
v -37.813309 -12.349403 -8.804575
v -37.813309 59.415886 -8.804575
v -64.193848 25.079363 18.147194
v -63.925297 26.498188 18.147194
v -64.193848 25.079363 -65.584579
v -63.925297 26.498188 -65.584579
v -58.209023 23.946575 18.147194
v -57.940468 25.365400 18.147194
v -58.209023 23.946575 -65.584579
v -57.940468 25.365400 -65.584579
v -31.645414 29.075050 16.837742
v -31.177986 30.249491 16.837742
v -31.645414 29.075050 -19.846325
v -31.177986 30.249491 -19.846325
v -25.986082 26.822643 16.837742
v -25.518658 27.997086 16.837742
v -25.986082 26.822643 -19.846325
v -25.518658 27.997086 -19.846325
v -30.147812 16.789566 7.870830
v -29.908899 17.389856 7.870830
v -30.147812 16.789566 -10.879412
v -29.908899 17.389856 -10.879412
v -27.255173 15.638300 7.870830
v -27.016258 16.238588 7.870830
v -27.255173 15.638300 -10.879412
v -27.016258 16.238588 -10.879412
v -31.079731 22.131504 20.067101
v -30.698618 23.089073 20.067101
v -31.079731 22.131504 -9.842869
v -30.698618 23.089073 -9.842869
v -26.465452 20.295029 20.067101
v -26.084341 21.252598 20.067101
v -26.465452 20.295029 -9.842869
v -26.084341 21.252598 -9.842869
v -31.079731 18.200844 20.067101
v -30.698618 19.158411 20.067101
v -31.079731 18.200844 -9.842869
v -30.698618 19.158411 -9.842869
v -26.465452 16.364368 20.067101
v -26.084341 17.321936 20.067101
v -26.465452 16.364368 -9.842869
v -26.084341 17.321936 -9.842869
v -75.062286 35.512936 -44.483818
v -75.062286 37.047729 -45.405285
v 17.898201 35.512936 -44.483829
v 17.898201 37.047729 -45.405289
v -75.062286 39.953251 -37.088055
v -75.062286 41.488045 -38.009521
v 17.898201 39.953251 -37.088062
v 17.898201 41.488045 -38.009521
v -74.640480 -12.349403 7.513257
v -74.640480 59.415886 7.513257
v -58.031120 -12.349403 7.513257
v -58.031120 59.415886 7.513257
v -31.868664 14.099074 -24.804441
v -31.648329 14.099074 -24.334793
v -31.868664 18.246613 -24.804443
v -31.648329 18.246613 -24.334795
v -29.200998 14.099074 -25.705154
v -28.980669 14.099074 -25.235506
v -29.200998 18.246613 -25.705156
v -28.980669 18.246613 -25.235508
v -31.868664 19.163309 -24.804441
v -31.648329 19.163309 -24.334793
v -31.868664 23.310848 -24.804443
v -31.648329 23.310848 -24.334795
v -29.200998 19.163309 -25.705154
v -28.980669 19.163309 -25.235506
v -29.200998 23.310848 -25.705156
v -28.980669 23.310848 -25.235508
vn -1.0000 -0.0000 -0.0000
vn -0.0000 -0.0000 -1.0000
vn 1.0000 -0.0000 -0.0000
vn -0.0000 -0.0000 1.0000
vn -0.0000 -1.0000 -0.0000
vn -0.0000 1.0000 -0.0000
vn -0.9826 0.1860 -0.0000
vn 0.9826 -0.1860 -0.0000
vn -0.1860 -0.9826 -0.0000
vn 0.1860 0.9826 -0.0000
vn -0.9291 0.3698 -0.0000
vn 0.9291 -0.3698 -0.0000
vn -0.3698 -0.9291 -0.0000
vn 0.3698 0.9291 -0.0000
vn -0.0000 -0.5147 -0.8573
vn -0.0000 0.5147 0.8573
vn -0.0000 -0.8573 0.5147
vn -0.0000 0.8573 -0.5147
vn -0.9053 -0.0000 0.4247
vn 0.9053 -0.0000 -0.4247
vn -0.3199 -0.0000 -0.9475
vn 0.3199 -0.0000 0.9475
vt 0.375000 0.000000
vt 0.375000 1.000000
vt 0.125000 0.750000
vt 0.625000 0.000000
vt 0.625000 1.000000
vt 0.875000 0.750000
vt 0.375000 0.250000
vt 0.125000 0.500000
vt 0.625000 0.250000
vt 0.875000 0.500000
vt 0.375000 0.750000
vt 0.625000 0.750000
vt 0.375000 0.500000
vt 0.625000 0.500000
vt 0.375000 0.000000
vt 0.375000 1.000000
vt 0.125000 0.750000
vt 0.625000 0.000000
vt 0.625000 1.000000
vt 0.875000 0.750000
vt 0.375000 0.250000
vt 0.125000 0.500000
vt 0.625000 0.250000
vt 0.875000 0.500000
vt 0.375000 0.750000
vt 0.625000 0.750000
vt 0.375000 0.500000
vt 0.625000 0.500000
vt 0.375000 0.000000
vt 0.375000 1.000000
vt 0.125000 0.750000
vt 0.625000 0.000000
vt 0.625000 1.000000
vt 0.875000 0.750000
vt 0.375000 0.250000
vt 0.125000 0.500000
vt 0.625000 0.250000
vt 0.875000 0.500000
vt 0.375000 0.750000
vt 0.625000 0.750000
vt 0.375000 0.500000
vt 0.625000 0.500000
vt 0.375000 0.000000
vt 0.375000 1.000000
vt 0.125000 0.750000
vt 0.625000 0.000000
vt 0.625000 1.000000
vt 0.875000 0.750000
vt 0.375000 0.250000
vt 0.125000 0.500000
vt 0.625000 0.250000
vt 0.875000 0.500000
vt 0.375000 0.750000
vt 0.625000 0.750000
vt 0.375000 0.500000
vt 0.625000 0.500000
vt 0.375000 0.000000
vt 0.375000 1.000000
vt 0.125000 0.750000
vt 0.625000 0.000000
vt 0.625000 1.000000
vt 0.875000 0.750000
vt 0.375000 0.250000
vt 0.125000 0.500000
vt 0.625000 0.250000
vt 0.875000 0.500000
vt 0.375000 0.750000
vt 0.625000 0.750000
vt 0.375000 0.500000
vt 0.625000 0.500000
vt 0.375000 0.000000
vt 0.375000 1.000000
vt 0.125000 0.750000
vt 0.625000 0.000000
vt 0.625000 1.000000
vt 0.875000 0.750000
vt 0.375000 0.250000
vt 0.125000 0.500000
vt 0.625000 0.250000
vt 0.875000 0.500000
vt 0.375000 0.750000
vt 0.625000 0.750000
vt 0.375000 0.500000
vt 0.625000 0.500000
vt 0.375000 0.000000
vt 0.375000 1.000000
vt 0.125000 0.750000
vt 0.625000 0.000000
vt 0.625000 1.000000
vt 0.875000 0.750000
vt 0.375000 0.250000
vt 0.125000 0.500000
vt 0.625000 0.250000
vt 0.875000 0.500000
vt 0.375000 0.750000
vt 0.625000 0.750000
vt 0.375000 0.500000
vt 0.625000 0.500000
vt 0.375000 1.000000
vt 0.625000 1.000000
vt 0.375000 0.750000
vt 0.625000 0.750000
vt 0.375000 0.000000
vt 0.375000 1.000000
vt 0.125000 0.750000
vt 0.625000 0.000000
vt 0.625000 1.000000
vt 0.875000 0.750000
vt 0.375000 0.250000
vt 0.125000 0.500000
vt 0.625000 0.250000
vt 0.875000 0.500000
vt 0.375000 0.750000
vt 0.625000 0.750000
vt 0.375000 0.500000
vt 0.625000 0.500000
vt 0.375000 0.000000
vt 0.375000 1.000000
vt 0.125000 0.750000
vt 0.625000 0.000000
vt 0.625000 1.000000
vt 0.875000 0.750000
vt 0.375000 0.250000
vt 0.125000 0.500000
vt 0.625000 0.250000
vt 0.875000 0.500000
vt 0.375000 0.750000
vt 0.625000 0.750000
vt 0.375000 0.500000
vt 0.625000 0.500000
s 0
usemtl Material.025
f 1/1/1 2/4/1 4/9/1 3/7/1
f 3/7/2 4/9/2 8/14/2 7/13/2
f 7/13/3 8/14/3 6/12/3 5/11/3
f 5/11/4 6/12/4 2/5/4 1/2/4
f 3/8/5 7/13/5 5/11/5 1/3/5
f 8/14/6 4/10/6 2/6/6 6/12/6
f 9/15/7 10/18/7 12/23/7 11/21/7
f 11/21/2 12/23/2 16/28/2 15/27/2
f 15/27/8 16/28/8 14/26/8 13/25/8
f 13/25/4 14/26/4 10/19/4 9/16/4
f 11/22/9 15/27/9 13/25/9 9/17/9
f 16/28/10 12/24/10 10/20/10 14/26/10
f 17/29/11 18/32/11 20/37/11 19/35/11
f 19/35/2 20/37/2 24/42/2 23/41/2
f 23/41/12 24/42/12 22/40/12 21/39/12
f 21/39/4 22/40/4 18/33/4 17/30/4
f 19/36/13 23/41/13 21/39/13 17/31/13
f 24/42/14 20/38/14 18/34/14 22/40/14
f 25/43/11 26/46/11 28/51/11 27/49/11
f 27/49/2 28/51/2 32/56/2 31/55/2
f 31/55/12 32/56/12 30/54/12 29/53/12
f 29/53/4 30/54/4 26/47/4 25/44/4
f 27/50/13 31/55/13 29/53/13 25/45/13
f 32/56/14 28/52/14 26/48/14 30/54/14
f 33/57/11 34/60/11 36/65/11 35/63/11
f 35/63/2 36/65/2 40/70/2 39/69/2
f 39/69/12 40/70/12 38/68/12 37/67/12
f 37/67/4 38/68/4 34/61/4 33/58/4
f 35/64/13 39/69/13 37/67/13 33/59/13
f 40/70/14 36/66/14 34/62/14 38/68/14
f 41/71/11 42/74/11 44/79/11 43/77/11
f 43/77/2 44/79/2 48/84/2 47/83/2
f 47/83/12 48/84/12 46/82/12 45/81/12
f 45/81/4 46/82/4 42/75/4 41/72/4
f 43/78/13 47/83/13 45/81/13 41/73/13
f 48/84/14 44/80/14 42/76/14 46/82/14
f 49/85/15 50/88/15 52/93/15 51/91/15
f 51/91/3 52/93/3 56/98/3 55/97/3
f 55/97/16 56/98/16 54/96/16 53/95/16
f 53/95/1 54/96/1 50/89/1 49/86/1
f 51/92/17 55/97/17 53/95/17 49/87/17
f 56/98/18 52/94/18 50/90/18 54/96/18
f 59/101/4 60/102/4 58/100/4 57/99/4
f 61/103/19 62/106/19 64/111/19 63/109/19
f 63/109/6 64/111/6 68/116/6 67/115/6
f 67/115/20 68/116/20 66/114/20 65/113/20
f 65/113/5 66/114/5 62/107/5 61/104/5
f 63/110/21 67/115/21 65/113/21 61/105/21
f 68/116/22 64/112/22 62/108/22 66/114/22
f 69/117/19 70/120/19 72/125/19 71/123/19
f 71/123/6 72/125/6 76/130/6 75/129/6
f 75/129/20 76/130/20 74/128/20 73/127/20
f 73/127/5 74/128/5 70/121/5 69/118/5
f 71/124/21 75/129/21 73/127/21 69/119/21
f 76/130/22 72/126/22 70/122/22 74/128/22
