# Blender 3.4.0
# www.blender.org
mtllib Cube_006.mtl
o Cube.006
v 8.529690 7.434200 11.320862
v 8.559660 7.133906 11.323250
v 8.519644 7.433961 11.416915
v 8.549614 7.133667 11.419303
v 8.403905 7.434200 11.307706
v 8.433875 7.133906 11.310094
v 8.393859 7.433961 11.403759
v 8.423829 7.133667 11.406147
v 8.930618 7.532377 11.338187
v 8.757584 7.694040 12.992610
v 5.641620 7.879796 10.969214
v 5.463238 8.041332 12.674760
v 8.930647 7.423359 11.337919
v 8.757611 7.585023 12.992342
v 5.641658 7.732400 10.968852
v 5.463276 7.893936 12.674397
v 8.934017 7.581029 11.338663
v 8.760982 7.742692 12.993086
v 5.645019 7.928448 10.969690
v 5.466636 8.089984 12.675237
v 8.426475 7.596121 12.878035
v 8.456488 7.130051 12.880015
v 8.416429 7.595882 12.974088
v 8.446442 7.129812 12.976068
v 8.300690 7.596121 12.864880
v 8.330703 7.130051 12.866859
v 8.290644 7.595882 12.960932
v 8.320657 7.129812 12.962913
v 5.578311 7.897350 12.379129
v 5.608975 4.902375 12.374889
v 5.568265 7.897111 12.475183
v 5.598929 4.902136 12.470942
v 5.452527 7.897350 12.365973
v 5.483191 4.902375 12.361734
v 5.442481 7.897111 12.462027
v 5.473145 4.902136 12.457787
v 5.652350 7.914868 11.021117
v 5.683018 4.905734 11.016843
v 5.642304 7.914629 11.117170
v 5.672972 4.905495 11.112895
v 5.526566 7.914868 11.007961
v 5.557233 4.905734 11.003687
v 5.516520 7.914629 11.104014
v 5.547187 4.905495 11.099740
v 8.653761 7.672335 11.334431
v 8.693299 7.475395 11.338078
v 5.706695 8.000736 11.027011
v 5.746234 7.803797 11.030657
v 8.642830 7.672075 11.438942
v 8.682368 7.475135 11.442588
v 5.695765 8.000477 11.131521
v 5.735303 7.803537 11.135168
v 8.604805 7.671171 11.802501
v 8.644344 7.474231 11.806147
v 5.657740 7.999573 11.495080
v 5.697279 7.802633 11.498726
v 8.593874 7.670911 11.907011
v 8.633413 7.473971 11.910657
v 5.646809 7.999313 11.599591
v 5.686348 7.802373 11.603237
v 8.537597 7.835350 12.445089
v 8.577136 7.638410 12.448735
v 5.590532 8.163752 12.137669
v 5.630071 7.966812 12.141315
v 8.526667 7.835091 12.549601
v 8.566205 7.638150 12.553246
v 5.579601 8.163492 12.242180
v 5.619140 7.966552 12.245826
v 8.847681 7.586350 12.131167
v 5.556120 7.933708 11.786700
v 8.847710 7.477333 12.130899
v 5.556158 7.786312 11.786338
v 8.851079 7.635002 12.131644
v 5.559518 7.982360 11.787177
v 5.629794 7.484481 11.048102
v 5.484405 7.516430 12.609496
v 5.629262 7.538655 11.053185
v 5.483873 7.570604 12.614579
v 5.555221 7.484481 11.040303
v 5.409832 7.516430 12.601697
v 5.554689 7.538655 11.045385
v 5.409300 7.570604 12.606780
v 5.631667 7.166218 11.030199
v 5.485632 7.316509 12.597761
v 5.631606 7.220608 11.030775
v 5.485572 7.370898 12.598336
v 5.557094 7.166218 11.022400
v 5.411059 7.316509 12.589962
v 5.557034 7.220608 11.022975
v 5.410999 7.370898 12.590537
v 8.534412 7.371987 11.351616
v 8.389023 7.403936 12.913010
v 8.533880 7.426161 11.356698
v 8.388491 7.458110 12.918093
v 8.459839 7.371987 11.343816
v 8.314449 7.403936 12.905210
v 8.459308 7.426161 11.348899
v 8.313918 7.458110 12.910293
v 8.536284 7.053724 11.333713
v 8.390250 7.204015 12.901275
v 8.536224 7.108114 11.334288
v 8.390190 7.258404 12.901850
v 8.461712 7.053724 11.325913
v 8.315678 7.204015 12.893475
v 8.461652 7.108114 11.326488
v 8.315617 7.258404 12.894051
vn -0.9896 -0.0996 -0.1038
vn 0.1040 0.0025 -0.9946
vn 0.9896 0.0996 0.1038
vn -0.1040 -0.0025 0.9946
vn 0.0003 -1.0000 -0.0025
vn -0.0003 1.0000 0.0025
vn -0.9936 0.0348 -0.1071
vn -0.9934 0.0372 -0.1084
vn -0.9912 0.0703 -0.1122
vn -0.9914 0.0703 -0.1104
vn -0.1017 -0.9913 0.0834
vn -0.1017 -0.9913 0.0837
vn -0.0994 -0.9935 0.0562
vn -0.9938 0.0341 -0.1062
vn -0.9946 -0.0000 -0.1040
vn 0.9936 -0.0348 0.1072
vn 0.9934 -0.0372 0.1086
vn 0.9946 -0.0000 0.1040
vn 0.1117 0.0022 -0.9937
vn 0.1117 0.0025 -0.9937
vn -0.0963 -0.0027 0.9953
vn -0.0963 -0.0028 0.9953
vn -0.0963 -0.0025 0.9953
vn 0.1130 0.9902 -0.0821
vn 0.1107 0.9923 -0.0549
vn 0.1130 0.9902 -0.0824
vn 0.9938 -0.0341 0.1063
vn 0.9916 -0.0703 0.1085
vn 0.9914 -0.0703 0.1106
vn 0.1117 0.0019 -0.9937
vn -0.0964 -0.0030 0.9953
vn -0.9925 -0.0644 -0.1040
vn 0.9925 0.0644 0.1040
vn -0.9945 -0.0100 -0.1040
vn 0.9945 0.0100 0.1040
vn -0.9749 -0.1976 -0.1025
vn 0.1093 0.9939 0.0139
vn 0.9749 0.1976 0.1025
vn -0.1093 -0.9939 -0.0139
vn 0.9912 -0.0703 0.1125
vn 0.1151 0.9873 -0.1095
vn -0.1039 -0.9884 0.1108
vn -0.9916 0.0703 -0.1084
vn -0.9957 -0.0011 -0.0927
vn -0.0021 -0.9998 0.0203
vn 0.9957 0.0011 0.0927
vn 0.0021 0.9998 -0.0203
vn -0.1036 -0.0939 0.9902
vn 0.1036 0.0939 -0.9902
vn -0.9957 -0.0001 -0.0927
vn -0.0099 -0.9955 0.0945
vn 0.9957 0.0001 0.0927
vn 0.0099 0.9955 -0.0945
vn -0.1040 -0.0106 0.9945
vn 0.1040 0.0106 -0.9945
vt 0.463208 0.575039
vt 0.461852 0.268404
vt 0.463208 0.575039
vt 0.461852 0.268404
vt 0.468912 0.575039
vt 0.467556 0.268404
vt 0.468912 0.575039
vt 0.467556 0.268404
vt 0.445141 0.588576
vt 0.445141 0.588576
vt 0.594179 0.605486
vt 0.594179 0.605486
vt 0.445141 0.573534
vt 0.445141 0.573534
vt 0.594147 0.585145
vt 0.594147 0.585145
vt 0.676001 0.405363
vt 0.444986 0.595289
vt 0.444986 0.595289
vt 0.674790 0.490481
vt 0.735422 0.407819
vt 0.594036 0.612200
vt 0.594036 0.612200
vt 0.734174 0.495568
vt 0.476764 0.575039
vt 0.475408 0.268404
vt 0.476764 0.575039
vt 0.475408 0.268404
vt 0.482468 0.575039
vt 0.481112 0.268404
vt 0.482468 0.575039
vt 0.481112 0.268404
vt 0.590407 0.585516
vt 0.588796 0.265364
vt 0.590407 0.585516
vt 0.588796 0.265364
vt 0.596059 0.585510
vt 0.594424 0.265355
vt 0.596059 0.585510
vt 0.594424 0.265355
vt 0.593467 0.610344
vt 0.591806 0.262343
vt 0.593467 0.610344
vt 0.591806 0.262343
vt 0.599121 0.610338
vt 0.597431 0.262334
vt 0.599121 0.610338
vt 0.597431 0.262334
vt 0.625827 0.642655
vt 0.457578 0.607895
vt 0.622991 0.617555
vt 0.455787 0.580723
vt 0.591040 0.622196
vt 0.756090 0.628529
vt 0.753254 0.603429
vt 0.589225 0.595021
vt 0.625977 0.646114
vt 0.457578 0.607895
vt 0.455787 0.580723
vt 0.591040 0.622196
vt 0.756239 0.631988
vt 0.589225 0.595021
vt 0.626496 0.658147
vt 0.457578 0.607895
vt 0.623659 0.633047
vt 0.455787 0.580723
vt 0.591040 0.622196
vt 0.756758 0.644021
vt 0.753922 0.618921
vt 0.589225 0.595021
vt 0.626645 0.661607
vt 0.457578 0.607895
vt 0.455787 0.580723
vt 0.591040 0.622196
vt 0.756908 0.647480
vt 0.589225 0.595021
vt 0.627413 0.679402
vt 0.457578 0.607895
vt 0.624576 0.654302
vt 0.455787 0.580723
vt 0.591040 0.622196
vt 0.757675 0.665276
vt 0.754839 0.640176
vt 0.589225 0.595021
vt 0.627562 0.682862
vt 0.457578 0.607895
vt 0.455787 0.580723
vt 0.591040 0.622196
vt 0.757825 0.668735
vt 0.589225 0.595021
vt 0.445141 0.580801
vt 0.594167 0.597709
vt 0.445141 0.565759
vt 0.594135 0.577368
vt 0.444986 0.587513
vt 0.675582 0.434832
vt 0.734985 0.438549
vt 0.594024 0.604423
vt 0.594254 0.550960
vt 0.593432 0.533028
vt 0.594265 0.558438
vt 0.593443 0.540506
vt 0.597600 0.550956
vt 0.596777 0.533024
vt 0.597612 0.558434
vt 0.596788 0.540502
vt 0.594190 0.507034
vt 0.593393 0.505435
vt 0.594200 0.514540
vt 0.593403 0.512941
vt 0.597532 0.507030
vt 0.596736 0.505431
vt 0.597543 0.514535
vt 0.596747 0.512937
vt 0.462851 0.566465
vt 0.462048 0.548535
vt 0.462851 0.573942
vt 0.462048 0.556012
vt 0.466233 0.566465
vt 0.465429 0.548535
vt 0.466233 0.573942
vt 0.465429 0.556012
vt 0.462851 0.522547
vt 0.462048 0.520947
vt 0.462851 0.530051
vt 0.462048 0.528452
vt 0.466233 0.522547
vt 0.465429 0.520947
vt 0.466233 0.530051
vt 0.465429 0.528452
s 1
usemtl random_pier
f 1/1/1 2/2/1 4/4/1 3/3/1
f 3/3/2 4/4/2 8/8/2 7/7/2
f 7/7/3 8/8/3 6/6/3 5/5/3
f 5/5/4 6/6/4 2/2/4 1/1/4
f 3/3/5 7/7/5 5/5/5 1/1/5
f 8/8/6 4/4/6 2/2/6 6/6/6
f 70/92/7 12/12/8 20/23/9 74/98/10
f 71/93/11 72/94/12 15/15/13 13/13/13
f 70/92/7 11/11/14 15/15/15 72/94/15
f 69/91/16 10/10/17 14/14/18 71/93/18
f 11/11/19 9/9/19 13/13/20 15/15/20
f 10/10/21 12/12/22 16/16/23 14/14/23
f 73/96/24 17/17/25 19/21/25 74/97/26
f 69/91/16 9/9/27 17/18/28 73/95/29
f 9/9/19 11/11/19 19/22/30 17/18/30
f 12/12/22 10/10/21 18/19/31 20/23/31
f 21/25/32 22/26/32 24/28/32 23/27/32
f 23/27/2 24/28/2 28/32/2 27/31/2
f 27/31/33 28/32/33 26/30/33 25/29/33
f 25/29/4 26/30/4 22/26/4 21/25/4
f 23/27/5 27/31/5 25/29/5 21/25/5
f 28/32/6 24/28/6 22/26/6 26/30/6
f 29/33/34 30/34/34 32/36/34 31/35/34
f 31/35/2 32/36/2 36/40/2 35/39/2
f 35/39/35 36/40/35 34/38/35 33/37/35
f 33/37/4 34/38/4 30/34/4 29/33/4
f 31/35/5 35/39/5 33/37/5 29/33/5
f 36/40/6 32/36/6 30/34/6 34/38/6
f 37/41/34 38/42/34 40/44/34 39/43/34
f 39/43/2 40/44/2 44/48/2 43/47/2
f 43/47/35 44/48/35 42/46/35 41/45/35
f 41/45/4 42/46/4 38/42/4 37/41/4
f 39/43/5 43/47/5 41/45/5 37/41/5
f 44/48/6 40/44/6 38/42/6 42/46/6
f 47/54/2 45/49/2 46/51/2 48/55/2
f 51/60/4 52/62/4 50/59/4 49/58/4
f 47/53/36 48/56/36 52/62/36 51/60/36
f 45/49/37 47/54/37 51/61/37 49/57/37
f 46/52/38 45/50/38 49/58/38 50/59/38
f 48/56/39 46/52/39 50/59/39 52/62/39
f 55/68/2 53/63/2 54/65/2 56/69/2
f 59/74/4 60/76/4 58/73/4 57/72/4
f 55/67/36 56/70/36 60/76/36 59/74/36
f 53/63/37 55/68/37 59/75/37 57/71/37
f 54/66/38 53/64/38 57/72/38 58/73/38
f 56/70/39 54/66/39 58/73/39 60/76/39
f 63/82/2 61/77/2 62/79/2 64/83/2
f 67/88/4 68/90/4 66/87/4 65/86/4
f 63/81/36 64/84/36 68/90/36 67/88/36
f 61/77/37 63/82/37 67/89/37 65/85/37
f 62/80/38 61/78/38 65/86/38 66/87/38
f 64/84/39 62/80/39 66/87/39 68/90/39
f 10/10/17 69/91/16 73/95/29 18/19/40
f 18/20/41 73/96/24 74/97/26 20/24/41
f 9/9/27 69/91/16 71/93/18 13/13/18
f 12/12/8 70/92/7 72/94/15 16/16/15
f 14/14/42 16/16/42 72/94/12 71/93/11
f 11/11/14 70/92/7 74/98/10 19/22/43
f 75/99/44 76/100/44 78/102/44 77/101/44
f 77/101/45 78/102/45 82/106/45 81/105/45
f 81/105/46 82/106/46 80/104/46 79/103/46
f 79/103/47 80/104/47 76/100/47 75/99/47
f 77/101/48 81/105/48 79/103/48 75/99/48
f 82/106/49 78/102/49 76/100/49 80/104/49
f 83/107/50 84/108/50 86/110/50 85/109/50
f 85/109/51 86/110/51 90/114/51 89/113/51
f 89/113/52 90/114/52 88/112/52 87/111/52
f 87/111/53 88/112/53 84/108/53 83/107/53
f 85/109/54 89/113/54 87/111/54 83/107/54
f 90/114/55 86/110/55 84/108/55 88/112/55
f 91/115/44 92/116/44 94/118/44 93/117/44
f 93/117/45 94/118/45 98/122/45 97/121/45
f 97/121/46 98/122/46 96/120/46 95/119/46
f 95/119/47 96/120/47 92/116/47 91/115/47
f 93/117/48 97/121/48 95/119/48 91/115/48
f 98/122/49 94/118/49 92/116/49 96/120/49
f 99/123/50 100/124/50 102/126/50 101/125/50
f 101/125/51 102/126/51 106/130/51 105/129/51
f 105/129/52 106/130/52 104/128/52 103/127/52
f 103/127/53 104/128/53 100/124/53 99/123/53
f 101/125/54 105/129/54 103/127/54 99/123/54
f 106/130/55 102/126/55 100/124/55 104/128/55
