# Blender 3.4.0
# www.blender.org
mtllib Cylinder_003.mtl
o Cylinder.003
v 7.457551 7.296463 12.848290
v 6.704205 7.332408 12.769588
v 7.462984 7.356846 12.823858
v 6.709639 7.392791 12.745155
v 7.470439 7.381981 12.763982
v 6.717093 7.417927 12.685279
v 7.475548 7.357145 12.703735
v 6.722202 7.393090 12.625033
v 7.475318 7.296886 12.678411
v 6.721973 7.332831 12.599709
v 7.469885 7.236503 12.702844
v 6.716539 7.272448 12.624141
v 7.462430 7.211368 12.762720
v 6.709085 7.247313 12.684017
v 7.457321 7.236204 12.822966
v 6.703976 7.272149 12.744264
v 6.892173 7.480733 12.773590
v 6.845342 7.482968 12.768697
v 6.896592 7.529846 12.753717
v 6.849761 7.532081 12.748825
v 6.902656 7.550290 12.705016
v 6.855824 7.552525 12.700124
v 6.906811 7.530089 12.656014
v 6.859980 7.532324 12.651122
v 6.906624 7.481077 12.635417
v 6.859793 7.483311 12.630524
v 6.902205 7.431963 12.655289
v 6.855373 7.434198 12.650396
v 6.896142 7.411520 12.703990
v 6.849310 7.413754 12.699098
v 6.891986 7.431721 12.752992
v 6.845155 7.433955 12.748099
v 7.256690 7.463341 12.811671
v 7.209859 7.465575 12.806779
v 7.261109 7.512454 12.791799
v 7.214278 7.514688 12.786906
v 7.267173 7.532898 12.743097
v 7.220342 7.535132 12.738205
v 7.271328 7.512697 12.694096
v 7.224497 7.514931 12.689203
v 7.271142 7.463684 12.673498
v 7.224310 7.465919 12.668606
v 7.266722 7.414571 12.693370
v 7.219891 7.416806 12.688478
v 7.260659 7.394127 12.742071
v 7.213828 7.396362 12.737179
v 7.256504 7.414328 12.791073
v 7.209672 7.416563 12.786180
v 7.309870 7.597768 12.851523
v 7.240271 7.601089 12.844252
v 7.316438 7.670759 12.821990
v 7.246839 7.674080 12.814718
v 7.325449 7.701142 12.749611
v 7.255850 7.704463 12.742340
v 7.331625 7.671120 12.676786
v 7.262025 7.674441 12.669515
v 7.331347 7.598279 12.646173
v 7.261748 7.601600 12.638903
v 7.324779 7.525289 12.675707
v 7.255180 7.528609 12.668436
v 7.315768 7.494905 12.748086
v 7.246169 7.498226 12.740814
v 7.309592 7.524927 12.820911
v 7.239993 7.528248 12.813640
v 7.184391 7.256973 12.837552
v 6.963888 7.267494 12.814515
v 7.190959 7.329964 12.808019
v 6.970457 7.340485 12.784983
v 7.199970 7.360347 12.735640
v 6.979467 7.370868 12.712604
v 7.206146 7.330325 12.662814
v 6.985643 7.340846 12.639778
v 7.205868 7.257483 12.632202
v 6.985366 7.268004 12.609166
v 7.199300 7.184493 12.661736
v 6.978797 7.195014 12.638700
v 7.190289 7.154109 12.734115
v 6.969787 7.164630 12.711079
v 7.184114 7.184132 12.806939
v 6.963611 7.194653 12.783903
v 6.942810 7.317327 12.733145
v 6.472513 7.328109 12.683983
v 6.943954 7.334576 12.726129
v 6.473658 7.345357 12.676968
v 6.945913 7.341756 12.709022
v 6.475616 7.352537 12.659861
v 6.947539 7.334661 12.691845
v 6.477243 7.345442 12.642683
v 6.947881 7.317448 12.684659
v 6.477584 7.328229 12.635498
v 6.946736 7.300200 12.691675
v 6.476440 7.310981 12.642513
v 6.944777 7.293020 12.708782
v 6.474481 7.303801 12.659620
v 6.943150 7.300115 12.725959
v 6.472854 7.310896 12.676798
v 7.723153 7.441188 12.846329
v 6.297223 7.509225 12.697361
v 7.726681 7.480404 12.830462
v 6.300752 7.548441 12.681494
v 7.731523 7.496728 12.791574
v 6.305593 7.564765 12.642606
v 7.734841 7.480598 12.752446
v 6.308911 7.548635 12.603478
v 7.734692 7.441463 12.735999
v 6.308763 7.509499 12.587031
v 7.731163 7.402246 12.751867
v 6.305233 7.470283 12.602899
v 7.726321 7.385922 12.790754
v 6.300392 7.453959 12.641787
v 7.723003 7.402052 12.829882
v 6.297074 7.470089 12.680914
v 7.263673 7.463241 12.780789
v 5.518056 7.546532 12.598424
v 7.266092 7.490125 12.769912
v 5.520475 7.573416 12.587546
v 7.269411 7.501316 12.743254
v 5.523794 7.584607 12.560887
v 7.271686 7.490258 12.716430
v 5.526069 7.573549 12.534064
v 7.271584 7.463429 12.705155
v 5.525967 7.546720 12.522789
v 7.269165 7.436545 12.716033
v 5.523548 7.519835 12.533667
v 7.265845 7.425354 12.742691
v 5.520228 7.508645 12.560326
v 7.263571 7.436412 12.769515
v 5.517954 7.519702 12.587149
v 6.992413 7.643968 12.740587
v 5.807566 7.700502 12.616805
v 6.994055 7.662216 12.733204
v 5.809207 7.718750 12.609422
v 6.996308 7.669812 12.715109
v 5.811460 7.726346 12.591327
v 6.997852 7.662306 12.696902
v 5.813004 7.718840 12.573120
v 6.997783 7.644096 12.689249
v 5.812935 7.700630 12.565467
v 6.996140 7.625848 12.696632
v 5.811293 7.682382 12.572850
v 6.993888 7.618252 12.714727
v 5.809040 7.674786 12.590945
v 6.992344 7.625758 12.732934
v 5.807496 7.682292 12.609152
v 6.810928 7.652569 12.729478
v 6.774964 7.654285 12.725720
v 6.813066 7.676338 12.719860
v 6.777102 7.678054 12.716104
v 6.816001 7.686232 12.696291
v 6.780037 7.687948 12.692534
v 6.818012 7.676455 12.672577
v 6.782048 7.678171 12.668819
v 6.817922 7.652736 12.662608
v 6.781958 7.654451 12.658851
v 6.815783 7.628967 12.672226
v 6.779819 7.630683 12.668468
v 6.812849 7.619073 12.695794
v 6.776885 7.620789 12.692038
v 6.810838 7.628850 12.719509
v 6.774873 7.630566 12.715752
v 5.946043 7.693836 12.639122
v 5.910079 7.695552 12.635365
v 5.948181 7.717605 12.629505
v 5.912218 7.719321 12.625748
v 5.951116 7.727499 12.605936
v 5.915152 7.729215 12.602179
v 5.953126 7.717722 12.582221
v 5.917163 7.719439 12.578465
v 5.953036 7.694003 12.572253
v 5.917073 7.695719 12.568496
v 5.950897 7.670234 12.581870
v 5.914934 7.671950 12.578114
v 5.947963 7.660340 12.605439
v 5.912000 7.662056 12.601683
v 5.945952 7.670117 12.629154
v 5.909988 7.671833 12.625397
v 6.775153 7.531286 12.667733
v 6.811117 7.529570 12.671491
v 6.808183 7.519676 12.695060
v 6.772219 7.521391 12.691302
v 6.806172 7.529452 12.718774
v 6.770207 7.531168 12.715016
v 5.910268 7.572553 12.577378
v 5.946232 7.570837 12.581135
v 5.943297 7.560943 12.604704
v 5.907333 7.562659 12.600947
v 5.941286 7.570719 12.628419
v 5.905323 7.572435 12.624661
v 5.896294 7.697639 12.635983
v 5.588270 7.712336 12.603803
v 5.898563 7.722852 12.625781
v 5.590539 7.737549 12.593601
v 5.901676 7.733347 12.600780
v 5.593651 7.748044 12.568600
v 5.903809 7.722977 12.575624
v 5.595784 7.737674 12.543445
v 5.903713 7.697815 12.565050
v 5.595689 7.712512 12.532870
v 5.901444 7.672603 12.575252
v 5.593420 7.687300 12.543072
v 5.898332 7.662107 12.600253
v 5.590307 7.676804 12.568073
v 5.896198 7.672478 12.625408
v 5.588174 7.687175 12.593229
v 6.447704 7.669882 12.693969
v 6.136385 7.684737 12.661445
v 6.449997 7.695365 12.683659
v 6.138678 7.710219 12.651134
v 6.453143 7.705972 12.658389
v 6.141824 7.720827 12.625866
v 6.455299 7.695491 12.632964
v 6.143980 7.710345 12.600441
v 6.455202 7.670061 12.622277
v 6.143883 7.684915 12.589753
v 6.452909 7.644578 12.632587
v 6.141590 7.659432 12.600064
v 6.449763 7.633971 12.657857
v 6.138444 7.648825 12.625333
v 6.447607 7.644452 12.683282
v 6.136288 7.659307 12.650758
v 7.745595 7.440262 12.829060
v 7.747882 7.465686 12.818772
v 7.751021 7.476268 12.793562
v 7.753172 7.465811 12.768196
v 7.753076 7.440440 12.757534
v 7.750788 7.415017 12.767820
v 7.747649 7.404434 12.793031
v 7.745498 7.414891 12.818397
v 7.938060 7.431079 12.849166
v 7.940348 7.456502 12.838880
v 7.943486 7.467085 12.813669
v 7.945637 7.456628 12.788303
v 7.945540 7.431257 12.777641
v 7.943253 7.405833 12.787928
v 7.940114 7.395251 12.813138
v 7.937963 7.405708 12.838504
v 7.880691 7.479511 12.864681
v 7.884333 7.519979 12.848308
v 7.889329 7.536825 12.808179
v 7.892753 7.520180 12.767802
v 7.892599 7.479795 12.750830
v 7.888958 7.439326 12.767203
v 7.883961 7.422481 12.807333
v 7.880537 7.439126 12.847710
v 8.115105 7.426654 12.889068
v 8.111957 7.466847 12.871983
v 8.114141 7.483579 12.831559
v 8.120377 7.467047 12.791477
v 8.127013 7.426937 12.775215
v 8.130161 7.386744 12.792300
v 8.127978 7.370012 12.832724
v 8.121741 7.386544 12.872806
v 8.230352 7.435136 12.895589
v 8.227097 7.471392 12.880110
v 8.228899 7.486485 12.843569
v 8.234704 7.471573 12.807372
v 8.241111 7.435392 12.792724
v 8.244367 7.399136 12.808203
v 8.242564 7.384043 12.844744
v 8.236759 7.398955 12.880940
v 8.617960 7.440269 12.936142
v 8.614704 7.476525 12.920662
v 8.616507 7.491618 12.884121
v 8.622312 7.476706 12.847925
v 8.628718 7.440525 12.833276
v 8.631974 7.404269 12.848755
v 8.630172 7.389176 12.885296
v 8.624367 7.404088 12.921493
vn -0.0782 0.3800 0.9217
vn 0.0035 0.9219 0.3874
vn 0.0831 0.9238 -0.3738
vn 0.1140 0.3845 -0.9160
vn 0.0782 -0.3800 -0.9217
vn -0.0035 -0.9219 -0.3874
vn -0.9935 0.0474 -0.1038
vn -0.0831 -0.9238 0.3738
vn -0.1140 -0.3845 0.9160
vn 0.9935 -0.0474 0.1038
vn -0.0875 0.3803 0.9207
vn -0.0191 0.9227 0.3851
vn 0.0605 0.9246 -0.3761
vn 0.1047 0.3849 -0.9170
vn 0.0875 -0.3803 -0.9207
vn 0.0191 -0.9227 -0.3851
vn -0.9943 0.0237 -0.1039
vn -0.0605 -0.9246 0.3761
vn -0.1047 -0.3849 0.9170
vn 0.9943 -0.0237 0.1039
vn 0.7176 0.6632 -0.2126
vn 0.1040 0.0025 -0.9946
vn -0.1040 -0.0025 0.9946
vn 0.6525 -0.7243 -0.2228
vn 0.7409 0.2578 -0.6202
vn 0.5926 -0.7257 0.3494
vn 0.6578 0.6618 0.3597
vn 0.7139 -0.3169 -0.6245
vn 0.5694 -0.3203 0.7571
vn 0.5964 0.2544 0.7613
vn 0.4406 0.8425 -0.3100
vn 0.1829 0.3877 -0.9034
vn -0.1148 0.3815 0.9172
vn -0.7839 -0.5947 0.1787
vn -0.4726 -0.2937 -0.8309
vn 0.0773 0.3860 -0.9192
vn 0.3665 0.8407 0.3986
vn -0.6342 -0.2975 0.7137
vn -0.7296 -0.5934 -0.3399
vn -0.0245 -0.3790 0.9251
vn 0.1717 0.9038 0.3920
vn -0.2328 -0.9086 0.3467
vn 0.0111 -0.3832 -0.9236
vn 0.2487 0.9056 -0.3436
vn -0.0082 0.3832 0.9236
vn -0.1800 -0.3877 0.9040
vn -0.1555 -0.9068 -0.3918
vn 0.1011 -0.3830 -0.9182
vn 0.1511 -0.9162 -0.3710
vn 0.1116 0.3895 -0.9142
vn -0.0631 0.9234 0.3786
vn 0.0715 -0.9181 0.3898
vn 0.1676 -0.3744 -0.9120
vn 0.0161 0.9253 -0.3789
vn -0.0802 0.3849 0.9195
vn 0.9857 0.1327 0.1034
vn 0.0272 0.9258 -0.3770
vn -0.1011 0.3830 0.9182
vn -0.0908 -0.3875 0.9174
vn 0.0519 -0.9239 -0.3791
vn 0.0908 0.3875 -0.9174
vn -0.0519 0.9239 0.3791
vn -0.0272 -0.9258 0.3770
vt 0.444270 0.396976
vt 0.441607 0.287587
vt 0.450945 0.396709
vt 0.448282 0.287320
vt 0.453710 0.396599
vt 0.451047 0.287210
vt 0.450945 0.396709
vt 0.448282 0.287320
vt 0.444270 0.396976
vt 0.441607 0.287587
vt 0.437595 0.397243
vt 0.434932 0.287854
vt 0.434830 0.397353
vt 0.432168 0.287964
vt 0.437595 0.397243
vt 0.434932 0.287854
vt 0.459593 0.312878
vt 0.459428 0.306078
vt 0.465023 0.312661
vt 0.464857 0.305861
vt 0.467271 0.312571
vt 0.467106 0.305771
vt 0.465023 0.312661
vt 0.464857 0.305861
vt 0.459593 0.312878
vt 0.459428 0.306078
vt 0.454164 0.313095
vt 0.453999 0.306295
vt 0.451915 0.313185
vt 0.451750 0.306385
vt 0.454164 0.313095
vt 0.453999 0.306295
vt 0.460882 0.365807
vt 0.460716 0.359007
vt 0.466311 0.365590
vt 0.466145 0.358791
vt 0.468560 0.365501
vt 0.468394 0.358701
vt 0.466311 0.365590
vt 0.466145 0.358791
vt 0.460882 0.365807
vt 0.460716 0.359007
vt 0.455453 0.366024
vt 0.455287 0.359224
vt 0.453204 0.366114
vt 0.453038 0.359314
vt 0.455453 0.366024
vt 0.455287 0.359224
vt 0.476209 0.372501
vt 0.475963 0.362395
vt 0.484278 0.372179
vt 0.484032 0.362073
vt 0.487620 0.372045
vt 0.487374 0.361939
vt 0.484278 0.372179
vt 0.484032 0.362073
vt 0.476209 0.372501
vt 0.475963 0.362395
vt 0.468141 0.372823
vt 0.467895 0.362717
vt 0.464798 0.372957
vt 0.464552 0.362851
vt 0.468141 0.372823
vt 0.467895 0.362717
vt 0.437535 0.358169
vt 0.436756 0.326151
vt 0.445604 0.357846
vt 0.444825 0.325828
vt 0.448946 0.357713
vt 0.448166 0.325695
vt 0.445604 0.357846
vt 0.444825 0.325828
vt 0.437535 0.358169
vt 0.436756 0.326151
vt 0.429467 0.358491
vt 0.428687 0.326473
vt 0.426124 0.358624
vt 0.425345 0.326607
vt 0.429467 0.358491
vt 0.428687 0.326473
vt 0.441971 0.321358
vt 0.439023 0.253199
vt 0.443874 0.321223
vt 0.440926 0.253065
vt 0.444662 0.321167
vt 0.441715 0.253008
vt 0.443874 0.321223
vt 0.440926 0.253065
vt 0.441971 0.321358
vt 0.439023 0.253199
vt 0.440068 0.321493
vt 0.437120 0.253335
vt 0.439279 0.321549
vt 0.436332 0.253391
vt 0.440068 0.321493
vt 0.437120 0.253335
vt 0.462525 0.433328
vt 0.457486 0.226277
vt 0.466860 0.433155
vt 0.461821 0.226104
vt 0.468656 0.433083
vt 0.463616 0.226032
vt 0.466860 0.433155
vt 0.461821 0.226104
vt 0.462525 0.433328
vt 0.457486 0.226277
vt 0.458190 0.433501
vt 0.453151 0.226450
vt 0.456394 0.433573
vt 0.451355 0.226522
vt 0.458190 0.433501
vt 0.453151 0.226450
vt 0.460895 0.366346
vt 0.454726 0.112875
vt 0.463867 0.366228
vt 0.457698 0.112757
vt 0.465098 0.366178
vt 0.458929 0.112707
vt 0.463867 0.366228
vt 0.457698 0.112757
vt 0.460895 0.366346
vt 0.454726 0.112875
vt 0.457923 0.366465
vt 0.451754 0.112994
vt 0.456692 0.366514
vt 0.450523 0.113043
vt 0.457923 0.366465
vt 0.451754 0.112994
vt 0.478419 0.324894
vt 0.474232 0.152849
vt 0.480436 0.324813
vt 0.476249 0.152769
vt 0.481272 0.324780
vt 0.477084 0.152735
vt 0.480436 0.324813
vt 0.476249 0.152769
vt 0.478419 0.324894
vt 0.474232 0.152849
vt 0.476401 0.324974
vt 0.472214 0.152929
vt 0.475566 0.325008
vt 0.471379 0.152963
vt 0.476401 0.324974
vt 0.472214 0.152929
vt 0.477780 0.298659
vt 0.477653 0.293437
vt 0.480408 0.298554
vt 0.480280 0.293332
vt 0.481496 0.298511
vt 0.481369 0.293289
vt 0.480408 0.298554
vt 0.480280 0.293332
vt 0.477780 0.298659
vt 0.477653 0.293437
vt 0.475153 0.298764
vt 0.475026 0.293542
vt 0.474065 0.298808
vt 0.473937 0.293586
vt 0.475153 0.298764
vt 0.475026 0.293542
vt 0.474723 0.173074
vt 0.474597 0.167852
vt 0.477351 0.172969
vt 0.477224 0.167747
vt 0.478439 0.172926
vt 0.478312 0.167704
vt 0.477351 0.172969
vt 0.477224 0.167747
vt 0.474723 0.173074
vt 0.474597 0.167852
vt 0.472096 0.173179
vt 0.471969 0.167957
vt 0.471008 0.173223
vt 0.470881 0.168000
vt 0.472096 0.173179
vt 0.471969 0.167957
vt 0.464027 0.293981
vt 0.464154 0.299203
vt 0.463065 0.299247
vt 0.462938 0.294025
vt 0.464154 0.299203
vt 0.464027 0.293981
vt 0.460970 0.168396
vt 0.461097 0.173618
vt 0.460009 0.173662
vt 0.459882 0.168440
vt 0.461097 0.173618
vt 0.460970 0.168396
vt 0.474708 0.165865
vt 0.473619 0.121139
vt 0.477495 0.165754
vt 0.476406 0.121027
vt 0.478649 0.165708
vt 0.477561 0.120981
vt 0.477495 0.165754
vt 0.476406 0.121027
vt 0.474708 0.165865
vt 0.473619 0.121139
vt 0.471921 0.165977
vt 0.470832 0.121250
vt 0.470766 0.166022
vt 0.469677 0.121296
vt 0.471921 0.165977
vt 0.470832 0.121250
vt 0.476498 0.245954
vt 0.475397 0.200749
vt 0.479314 0.245842
vt 0.478214 0.200637
vt 0.480481 0.245795
vt 0.479381 0.200590
vt 0.479314 0.245842
vt 0.478214 0.200637
vt 0.476498 0.245954
vt 0.475397 0.200749
vt 0.473681 0.246067
vt 0.472580 0.200862
vt 0.472514 0.246113
vt 0.471413 0.200909
vt 0.473681 0.246067
vt 0.472580 0.200862
vt 0.462597 0.436292
vt 0.465408 0.436180
vt 0.466572 0.436134
vt 0.465408 0.436180
vt 0.462597 0.436292
vt 0.459787 0.436404
vt 0.458623 0.436451
vt 0.459787 0.436404
vt 0.463277 0.464239
vt 0.466088 0.464127
vt 0.467252 0.464080
vt 0.466088 0.464127
vt 0.463277 0.464239
vt 0.460467 0.464351
vt 0.459303 0.464398
vt 0.460467 0.464351
vt 0.463401 0.469320
vt 0.467874 0.469142
vt 0.469727 0.469068
vt 0.467874 0.469142
vt 0.463401 0.469320
vt 0.458927 0.469499
vt 0.457074 0.469573
vt 0.458927 0.469499
vt 0.465668 0.562476
vt 0.470142 0.562297
vt 0.471995 0.562224
vt 0.470142 0.562297
vt 0.465668 0.562476
vt 0.461195 0.562655
vt 0.459342 0.562729
vt 0.461195 0.562655
vt 0.465668 0.562476
vt 0.469710 0.562315
vt 0.471384 0.562248
vt 0.469710 0.562315
vt 0.465668 0.562476
vt 0.461626 0.562638
vt 0.459952 0.562704
vt 0.461626 0.562638
vt 0.478910 1.106561
vt 0.482952 1.106400
vt 0.484626 1.106333
vt 0.482952 1.106400
vt 0.478910 1.106561
vt 0.474868 1.106723
vt 0.473194 1.106790
vt 0.474868 1.106723
s 0
usemtl boat
f 1/1/1 3/3/1 4/4/1 2/2/1
f 3/3/2 5/5/2 6/6/2 4/4/2
f 5/5/3 7/7/3 8/8/3 6/6/3
f 7/7/4 9/9/4 10/10/4 8/8/4
f 9/9/5 11/11/5 12/12/5 10/10/5
f 11/11/6 13/13/6 14/14/6 12/12/6
f 4/4/7 6/6/7 8/8/7 10/10/7 12/12/7 14/14/7 16/16/7 2/2/7
f 13/13/8 15/15/8 16/16/8 14/14/8
f 15/15/9 1/1/9 2/2/9 16/16/9
f 1/1/10 15/15/10 13/13/10 11/11/10 9/9/10 7/7/10 5/5/10 3/3/10
f 17/17/1 19/19/1 20/20/1 18/18/1
f 19/19/2 21/21/2 22/22/2 20/20/2
f 21/21/3 23/23/3 24/24/3 22/22/3
f 23/23/4 25/25/4 26/26/4 24/24/4
f 25/25/5 27/27/5 28/28/5 26/26/5
f 27/27/6 29/29/6 30/30/6 28/28/6
f 20/20/7 22/22/7 24/24/7 26/26/7 28/28/7 30/30/7 32/32/7 18/18/7
f 29/29/8 31/31/8 32/32/8 30/30/8
f 31/31/9 17/17/9 18/18/9 32/32/9
f 17/17/10 31/31/10 29/29/10 27/27/10 25/25/10 23/23/10 21/21/10 19/19/10
f 33/33/1 35/35/1 36/36/1 34/34/1
f 35/35/2 37/37/2 38/38/2 36/36/2
f 37/37/3 39/39/3 40/40/3 38/38/3
f 39/39/4 41/41/4 42/42/4 40/40/4
f 41/41/5 43/43/5 44/44/5 42/42/5
f 43/43/6 45/45/6 46/46/6 44/44/6
f 36/36/7 38/38/7 40/40/7 42/42/7 44/44/7 46/46/7 48/48/7 34/34/7
f 45/45/8 47/47/8 48/48/8 46/46/8
f 47/47/9 33/33/9 34/34/9 48/48/9
f 33/33/10 47/47/10 45/45/10 43/43/10 41/41/10 39/39/10 37/37/10 35/35/10
f 49/49/1 51/51/1 52/52/1 50/50/1
f 51/51/2 53/53/2 54/54/2 52/52/2
f 53/53/3 55/55/3 56/56/3 54/54/3
f 55/55/4 57/57/4 58/58/4 56/56/4
f 57/57/5 59/59/5 60/60/5 58/58/5
f 59/59/6 61/61/6 62/62/6 60/60/6
f 52/52/7 54/54/7 56/56/7 58/58/7 60/60/7 62/62/7 64/64/7 50/50/7
f 61/61/8 63/63/8 64/64/8 62/62/8
f 63/63/9 49/49/9 50/50/9 64/64/9
f 49/49/10 63/63/10 61/61/10 59/59/10 57/57/10 55/55/10 53/53/10 51/51/10
f 65/65/1 67/67/1 68/68/1 66/66/1
f 67/67/2 69/69/2 70/70/2 68/68/2
f 69/69/3 71/71/3 72/72/3 70/70/3
f 71/71/4 73/73/4 74/74/4 72/72/4
f 73/73/5 75/75/5 76/76/5 74/74/5
f 75/75/6 77/77/6 78/78/6 76/76/6
f 68/68/7 70/70/7 72/72/7 74/74/7 76/76/7 78/78/7 80/80/7 66/66/7
f 77/77/8 79/79/8 80/80/8 78/78/8
f 79/79/9 65/65/9 66/66/9 80/80/9
f 65/65/10 79/79/10 77/77/10 75/75/10 73/73/10 71/71/10 69/69/10 67/67/10
f 81/81/11 83/83/11 84/84/11 82/82/11
f 83/83/12 85/85/12 86/86/12 84/84/12
f 85/85/13 87/87/13 88/88/13 86/86/13
f 87/87/14 89/89/14 90/90/14 88/88/14
f 89/89/15 91/91/15 92/92/15 90/90/15
f 91/91/16 93/93/16 94/94/16 92/92/16
f 84/84/17 86/86/17 88/88/17 90/90/17 92/92/17 94/94/17 96/96/17 82/82/17
f 93/93/18 95/95/18 96/96/18 94/94/18
f 95/95/19 81/81/19 82/82/19 96/96/19
f 81/81/20 95/95/20 93/93/20 91/91/20 89/89/20 87/87/20 85/85/20 83/83/20
f 97/97/1 99/99/1 100/100/1 98/98/1
f 99/99/2 101/101/2 102/102/2 100/100/2
f 101/101/3 103/103/3 104/104/3 102/102/3
f 103/103/4 105/105/4 106/106/4 104/104/4
f 105/105/5 107/107/5 108/108/5 106/106/5
f 107/107/6 109/109/6 110/110/6 108/108/6
f 100/100/7 102/102/7 104/104/7 106/106/7 108/108/7 110/110/7 112/112/7 98/98/7
f 109/109/8 111/111/8 112/112/8 110/110/8
f 111/111/9 97/97/9 98/98/9 112/112/9
f 101/101/21 223/223/21 224/224/21 103/103/21
f 113/113/1 115/115/1 116/116/1 114/114/1
f 115/115/2 117/117/2 118/118/2 116/116/2
f 117/117/3 119/119/3 120/120/3 118/118/3
f 119/119/4 121/121/4 122/122/4 120/120/4
f 121/121/5 123/123/5 124/124/5 122/122/5
f 123/123/6 125/125/6 126/126/6 124/124/6
f 116/116/7 118/118/7 120/120/7 122/122/7 124/124/7 126/126/7 128/128/7 114/114/7
f 125/125/8 127/127/8 128/128/8 126/126/8
f 127/127/9 113/113/9 114/114/9 128/128/9
f 113/113/10 127/127/10 125/125/10 123/123/10 121/121/10 119/119/10 117/117/10 115/115/10
f 129/129/1 131/131/1 132/132/1 130/130/1
f 131/131/2 133/133/2 134/134/2 132/132/2
f 133/133/3 135/135/3 136/136/3 134/134/3
f 135/135/4 137/137/4 138/138/4 136/136/4
f 137/137/5 139/139/5 140/140/5 138/138/5
f 139/139/6 141/141/6 142/142/6 140/140/6
f 132/132/7 134/134/7 136/136/7 138/138/7 140/140/7 142/142/7 144/144/7 130/130/7
f 141/141/8 143/143/8 144/144/8 142/142/8
f 143/143/9 129/129/9 130/130/9 144/144/9
f 129/129/10 143/143/10 141/141/10 139/139/10 137/137/10 135/135/10 133/133/10 131/131/10
f 145/145/1 147/147/1 148/148/1 146/146/1
f 147/147/2 149/149/2 150/150/2 148/148/2
f 149/149/3 151/151/3 152/152/3 150/150/3
f 151/151/4 153/153/4 154/154/4 152/152/4
f 153/153/5 155/155/5 156/156/5 154/154/5
f 175/175/10 187/187/10 185/185/10 173/173/10
f 148/148/7 150/150/7 152/152/7 154/154/7 156/156/7 158/158/7 160/160/7 146/146/7
f 159/159/10 181/181/10 179/179/10 157/157/10
f 159/159/9 145/145/9 146/146/9 160/160/9
f 145/145/10 159/159/10 157/157/10 155/155/10 153/153/10 151/151/10 149/149/10 147/147/10
f 161/161/1 163/163/1 164/164/1 162/162/1
f 163/163/2 165/165/2 166/166/2 164/164/2
f 165/165/3 167/167/3 168/168/3 166/166/3
f 167/167/4 169/169/4 170/170/4 168/168/4
f 169/169/5 171/171/5 172/172/5 170/170/5
f 171/171/22 184/184/22 183/183/22 172/172/22
f 164/164/7 166/166/7 168/168/7 170/170/7 172/172/7 174/174/7 176/176/7 162/162/7
f 155/155/22 178/178/22 177/177/22 156/156/22
f 175/175/9 161/161/9 162/162/9 176/176/9
f 161/161/10 175/175/10 173/173/10 171/171/10 169/169/10 167/167/10 165/165/10 163/163/10
f 178/178/6 179/179/6 180/180/6 177/177/6
f 179/179/8 181/181/8 182/182/8 180/180/8
f 184/184/6 185/185/6 186/186/6 183/183/6
f 185/185/8 187/187/8 188/188/8 186/186/8
f 157/157/10 179/179/10 178/178/10 155/155/10
f 173/173/10 185/185/10 184/184/10 171/171/10
f 158/158/7 180/180/7 182/182/7 160/160/7
f 174/174/7 186/186/7 188/188/7 176/176/7
f 156/156/7 177/177/7 180/180/7 158/158/7
f 172/172/7 183/183/7 186/186/7 174/174/7
f 160/160/23 182/182/23 181/181/23 159/159/23
f 176/176/23 188/188/23 187/187/23 175/175/23
f 189/189/1 191/191/1 192/192/1 190/190/1
f 191/191/2 193/193/2 194/194/2 192/192/2
f 193/193/3 195/195/3 196/196/3 194/194/3
f 195/195/4 197/197/4 198/198/4 196/196/4
f 197/197/5 199/199/5 200/200/5 198/198/5
f 199/199/6 201/201/6 202/202/6 200/200/6
f 192/192/7 194/194/7 196/196/7 198/198/7 200/200/7 202/202/7 204/204/7 190/190/7
f 201/201/8 203/203/8 204/204/8 202/202/8
f 203/203/9 189/189/9 190/190/9 204/204/9
f 189/189/10 203/203/10 201/201/10 199/199/10 197/197/10 195/195/10 193/193/10 191/191/10
f 205/205/1 207/207/1 208/208/1 206/206/1
f 207/207/2 209/209/2 210/210/2 208/208/2
f 209/209/3 211/211/3 212/212/3 210/210/3
f 211/211/4 213/213/4 214/214/4 212/212/4
f 213/213/5 215/215/5 216/216/5 214/214/5
f 215/215/6 217/217/6 218/218/6 216/216/6
f 208/208/7 210/210/7 212/212/7 214/214/7 216/216/7 218/218/7 220/220/7 206/206/7
f 217/217/8 219/219/8 220/220/8 218/218/8
f 219/219/9 205/205/9 206/206/9 220/220/9
f 205/205/10 219/219/10 217/217/10 215/215/10 213/213/10 211/211/10 209/209/10 207/207/10
f 223/223/3 231/231/3 232/232/3 224/224/3
f 107/107/24 226/226/24 227/227/24 109/109/24
f 103/103/25 224/224/25 225/225/25 105/105/25
f 109/109/26 227/227/26 228/228/26 111/111/26
f 99/99/27 222/222/27 223/223/27 101/101/27
f 105/105/28 225/225/28 226/226/28 107/107/28
f 111/111/29 228/228/29 221/221/29 97/97/29
f 97/97/30 221/221/30 222/222/30 99/99/30
f 235/235/31 243/243/31 244/244/31 236/236/31
f 221/221/1 229/229/1 230/230/1 222/222/1
f 228/228/9 236/236/9 229/229/9 221/221/9
f 226/226/6 234/234/6 235/235/6 227/227/6
f 224/224/4 232/232/4 233/233/4 225/225/4
f 222/222/2 230/230/2 231/231/2 223/223/2
f 227/227/8 235/235/8 236/236/8 228/228/8
f 225/225/5 233/233/5 234/234/5 226/226/5
f 240/240/32 248/248/32 249/249/32 241/241/32
f 233/233/33 241/241/33 242/242/33 234/234/33
f 231/231/34 239/239/34 240/240/34 232/232/34
f 229/229/35 237/237/35 238/238/35 230/230/35
f 236/236/36 244/244/36 237/237/36 229/229/36
f 234/234/37 242/242/37 243/243/37 235/235/37
f 232/232/38 240/240/38 241/241/38 233/233/38
f 230/230/39 238/238/39 239/239/39 231/231/39
f 252/252/40 260/260/40 253/253/40 245/245/40
f 238/238/41 246/246/41 247/247/41 239/239/41
f 243/243/42 251/251/42 252/252/42 244/244/42
f 241/241/43 249/249/43 250/250/43 242/242/43
f 239/239/44 247/247/44 248/248/44 240/240/44
f 237/237/45 245/245/45 246/246/45 238/238/45
f 244/244/46 252/252/46 245/245/46 237/237/46
f 242/242/47 250/250/47 251/251/47 243/243/47
f 257/257/48 265/265/48 266/266/48 258/258/48
f 250/250/49 258/258/49 259/259/49 251/251/49
f 248/248/50 256/256/50 257/257/50 249/249/50
f 246/246/51 254/254/51 255/255/51 247/247/51
f 251/251/52 259/259/52 260/260/52 252/252/52
f 249/249/53 257/257/53 258/258/53 250/250/53
f 247/247/54 255/255/54 256/256/54 248/248/54
f 245/245/55 253/253/55 254/254/55 246/246/55
f 261/261/56 268/268/56 267/267/56 266/266/56 265/265/56 264/264/56 263/263/56 262/262/56
f 255/255/57 263/263/57 264/264/57 256/256/57
f 253/253/58 261/261/58 262/262/58 254/254/58
f 260/260/59 268/268/59 261/261/59 253/253/59
f 258/258/60 266/266/60 267/267/60 259/259/60
f 256/256/61 264/264/61 265/265/61 257/257/61
f 254/254/62 262/262/62 263/263/62 255/255/62
f 259/259/63 267/267/63 268/268/63 260/260/63
