# Blender 3.4.0
# www.blender.org
mtllib Cylinder_029.mtl
o Cylinder.029
v 1.890374 13.589746 -12.045653
v 1.840123 13.589746 -12.044981
v 1.890374 13.425037 -12.045653
v 1.840123 13.425037 -12.044981
v 1.891269 13.589746 -11.622375
v 1.841018 13.589746 -11.621703
v 1.891269 13.425037 -11.622375
v 1.841018 13.425037 -11.621703
v 1.841018 13.451250 -11.621703
v 1.841018 13.563534 -11.621703
v 1.851235 13.451250 -11.175392
v 1.841844 13.451250 -11.231565
v 1.873671 13.451250 -11.152372
v 1.851235 13.563521 -11.175391
v 1.873671 13.563519 -11.152372
v 1.841844 13.563528 -11.231565
v 1.891269 13.563534 -11.622375
v 1.841751 13.451250 -11.275394
v 1.841751 13.563533 -11.275394
v 1.891269 13.451250 -11.622375
v 1.892263 13.451250 -11.152621
v 1.892002 13.451250 -11.276067
v 1.892002 13.563533 -11.276067
v 1.892263 13.563519 -11.152621
v 1.892263 13.465715 -11.152621
v 1.892002 13.465715 -11.276067
v 1.892002 13.549067 -11.276067
v 1.892263 13.549055 -11.152621
v 1.916935 13.465715 -11.152951
v 1.916674 13.465715 -11.276397
v 1.916674 13.549067 -11.276397
v 1.916935 13.549055 -11.152951
v 1.927322 13.435264 -11.153090
v 1.927061 13.435264 -11.276536
v 1.927061 13.579521 -11.276536
v 1.927322 13.579502 -11.153090
v 2.022151 13.435264 -11.154359
v 2.021890 13.435264 -11.277804
v 2.022151 13.579502 -11.154358
v 2.021890 13.579521 -11.277804
v 1.890374 12.908277 -11.816760
v 1.840123 12.908278 -11.816319
v 1.890374 12.743567 -11.816760
v 1.840123 12.743567 -11.816319
v 1.891270 12.908277 -11.538617
v 1.841018 12.908277 -11.538176
v 1.891269 12.743567 -11.538618
v 1.841018 12.743567 -11.538176
v 1.841018 12.769780 -11.538176
v 1.841018 12.882064 -11.538176
v 1.851235 12.769780 -11.244897
v 1.841844 12.769780 -11.281810
v 1.873671 12.769780 -11.229771
v 1.851235 12.882051 -11.244897
v 1.873671 12.882049 -11.229771
v 1.841844 12.882058 -11.281810
v 1.891270 12.882064 -11.538617
v 1.841751 12.769780 -11.310611
v 1.841751 12.882063 -11.310611
v 1.891269 12.769780 -11.538618
v 1.892263 12.769780 -11.229935
v 1.892002 12.769780 -11.311052
v 1.892002 12.882063 -11.311052
v 1.892263 12.882049 -11.229934
v 1.892263 12.784245 -11.229935
v 1.892002 12.784245 -11.311052
v 1.892002 12.867597 -11.311052
v 1.892263 12.867585 -11.229934
v 1.916935 12.784245 -11.230151
v 1.916674 12.784245 -11.311270
v 1.916674 12.867597 -11.311270
v 1.916935 12.867585 -11.230151
v 1.927322 12.753794 -11.230243
v 1.927061 12.753794 -11.311361
v 1.927061 12.898051 -11.311360
v 1.927322 12.898032 -11.230243
v 2.022151 12.753794 -11.231076
v 2.021890 12.753794 -11.312195
v 2.022151 12.898032 -11.231076
v 2.021890 12.898051 -11.312195
v 1.890374 12.168394 -12.052711
v 1.840123 12.168394 -12.052303
v 1.890374 12.003685 -12.052712
v 1.840123 12.003685 -12.052303
v 1.891270 12.168394 -11.795641
v 1.841018 12.168394 -11.795233
v 1.891269 12.003685 -11.795641
v 1.841018 12.003685 -11.795233
v 1.841018 12.029898 -11.795233
v 1.841018 12.142181 -11.795233
v 1.851235 12.029898 -11.524173
v 1.841843 12.029898 -11.558289
v 1.873671 12.029898 -11.510192
v 1.851235 12.142169 -11.524173
v 1.873671 12.142166 -11.510192
v 1.841843 12.142176 -11.558289
v 1.891270 12.142181 -11.795641
v 1.841751 12.029898 -11.584908
v 1.841751 12.142181 -11.584908
v 1.891269 12.029898 -11.795641
v 1.892263 12.029898 -11.510343
v 1.892002 12.029898 -11.585316
v 1.892002 12.142181 -11.585316
v 1.892263 12.142166 -11.510343
v 1.892263 12.044363 -11.510343
v 1.892002 12.044363 -11.585316
v 1.892002 12.127714 -11.585316
v 1.892263 12.127703 -11.510343
v 1.916935 12.044363 -11.510544
v 1.916674 12.044363 -11.585517
v 1.916674 12.127714 -11.585516
v 1.916935 12.127703 -11.510544
v 1.927322 12.013911 -11.510628
v 1.927061 12.013911 -11.585601
v 1.927061 12.158169 -11.585601
v 1.927322 12.158150 -11.510628
v 2.022151 12.013911 -11.511398
v 2.021890 12.013911 -11.586371
v 2.022151 12.158150 -11.511398
v 2.021890 12.158169 -11.586371
vn -0.0000 1.0000 -0.0000
vn -1.0000 -0.0000 0.0043
vn -1.0000 -0.0000 0.0021
vn -0.0134 -0.0000 -0.9999
vn -0.0000 -1.0000 -0.0000
vn 0.0134 -0.0000 0.9999
vn -0.7161 -0.0000 0.6980
vn 1.0000 -0.0000 -0.0021
vn -0.0000 1.0000 0.0001
vn 1.0000 -0.0000 -0.0043
vn -0.9965 -0.0000 0.0838
vn -0.9863 -0.0000 0.1649
vn -1.0000 -0.0000 0.0053
vn -0.9465 0.3228 0.0020
vn -0.9465 -0.3228 0.0020
vn -1.0000 -0.0000 0.0046
vn -1.0000 -0.0000 0.0032
vn -0.0088 -0.0000 -1.0000
vn 0.0088 -0.0000 1.0000
vn -0.5590 -0.0000 0.8291
vn 1.0000 -0.0000 -0.0032
vn -0.0000 1.0000 0.0002
vn -0.9921 -0.0000 0.1258
vn -0.9920 -0.0000 0.1258
vn -0.9691 -0.0000 0.2466
vn -0.0053 -0.0000 -1.0000
vn -0.9464 0.3228 0.0031
vn -0.9464 -0.3228 0.0030
vn 0.0063 -0.0000 1.0000
vn 0.0081 -0.0000 1.0000
vn -0.0081 -0.0000 -1.0000
vn -1.0000 -0.0000 0.0035
vn -0.5289 -0.0000 0.8487
vn 1.0000 -0.0000 -0.0035
vn -0.9908 -0.0000 0.1356
vn -0.9641 -0.0000 0.2654
vn -0.9465 0.3228 0.0034
vn -0.9465 -0.3228 0.0033
vt 0.511097 0.025927
vt 0.511097 0.025927
vt 0.511097 0.449834
vt 0.511097 0.449834
vt 0.511097 0.025927
vt 0.511097 0.025927
vt 0.511097 0.449834
vt 0.511097 0.449834
vt 0.511097 0.449834
vt 0.511097 0.025927
vt 0.517544 0.449834
vt 0.513540 0.449834
vt 0.517978 0.449834
vt 0.517544 0.025947
vt 0.517978 0.025948
vt 0.513540 0.025935
vt 0.511097 0.025927
vt 0.511097 0.449834
vt 0.511097 0.025927
vt 0.511097 0.449834
vt 0.517978 0.449834
vt 0.511097 0.449834
vt 0.511097 0.025927
vt 0.517978 0.025948
vt 0.517978 0.449834
vt 0.511097 0.449834
vt 0.511097 0.025927
vt 0.517978 0.025948
vt 0.517978 0.449834
vt 0.511097 0.449834
vt 0.511097 0.025927
vt 0.517978 0.025948
vt 0.517978 0.449834
vt 0.511097 0.449834
vt 0.511097 0.025927
vt 0.517978 0.025948
vt 0.517978 0.449834
vt 0.511097 0.449834
vt 0.517978 0.025948
vt 0.511097 0.025927
vt 0.511097 0.025927
vt 0.511097 0.025927
vt 0.511097 0.449834
vt 0.511097 0.449834
vt 0.511097 0.025927
vt 0.511097 0.025927
vt 0.511097 0.449834
vt 0.511097 0.449834
vt 0.511097 0.449834
vt 0.511097 0.025927
vt 0.517544 0.449834
vt 0.513540 0.449834
vt 0.517978 0.449834
vt 0.517544 0.025947
vt 0.517978 0.025948
vt 0.513540 0.025935
vt 0.511097 0.025927
vt 0.511097 0.449834
vt 0.511097 0.025927
vt 0.511097 0.449834
vt 0.517978 0.449834
vt 0.511097 0.449834
vt 0.511097 0.025927
vt 0.517978 0.025948
vt 0.517978 0.449834
vt 0.511097 0.449834
vt 0.511097 0.025927
vt 0.517978 0.025948
vt 0.517978 0.449834
vt 0.511097 0.449834
vt 0.511097 0.025927
vt 0.517978 0.025948
vt 0.517978 0.449834
vt 0.511097 0.449834
vt 0.511097 0.025927
vt 0.517978 0.025948
vt 0.517978 0.449834
vt 0.511097 0.449834
vt 0.517978 0.025948
vt 0.511097 0.025927
vt 0.511097 0.025927
vt 0.511097 0.025927
vt 0.511097 0.449834
vt 0.511097 0.449834
vt 0.511097 0.025927
vt 0.511097 0.025927
vt 0.511097 0.449834
vt 0.511097 0.449834
vt 0.511097 0.449834
vt 0.511097 0.025927
vt 0.517544 0.449834
vt 0.513540 0.449834
vt 0.517978 0.449834
vt 0.517544 0.025947
vt 0.517978 0.025948
vt 0.513540 0.025935
vt 0.511097 0.025927
vt 0.511097 0.449834
vt 0.511097 0.025927
vt 0.511097 0.449834
vt 0.517978 0.449834
vt 0.511097 0.449834
vt 0.511097 0.025927
vt 0.517978 0.025948
vt 0.517978 0.449834
vt 0.511097 0.449834
vt 0.511097 0.025927
vt 0.517978 0.025948
vt 0.517978 0.449834
vt 0.511097 0.449834
vt 0.511097 0.025927
vt 0.517978 0.025948
vt 0.517978 0.449834
vt 0.511097 0.449834
vt 0.511097 0.025927
vt 0.517978 0.025948
vt 0.517978 0.449834
vt 0.511097 0.449834
vt 0.517978 0.025948
vt 0.511097 0.025927
s 1
usemtl reader
f 6/6/1 5/5/1 1/1/1 2/2/1
f 9/9/2 10/10/2 6/6/3 8/8/3
f 1/1/4 3/3/4 4/4/4 2/2/4
f 7/7/5 8/8/5 4/4/5 3/3/5
f 20/20/6 9/9/6 8/8/6 7/7/6
f 8/8/3 6/6/3 2/2/3 4/4/3
f 14/14/7 11/11/7 13/13/7 15/15/7
f 10/10/6 17/17/6 5/5/6 6/6/6
f 22/22/5 18/18/5 9/9/5 20/20/5
f 5/5/8 7/7/8 3/3/8 1/1/8
f 18/18/3 19/19/3 10/10/2 9/9/2
f 24/24/9 23/23/9 19/19/9 16/16/9 14/14/9 15/15/9
f 19/19/9 23/23/9 17/17/1 10/10/1
f 23/23/8 22/22/8 20/20/10 17/17/10
f 22/22/5 21/21/5 13/13/5 11/11/5 12/12/5 18/18/5
f 16/16/11 12/12/11 11/11/12 14/14/12
f 19/19/3 18/18/3 12/12/11 16/16/11
f 17/17/10 20/20/10 7/7/8 5/5/8
f 27/27/5 26/26/5 22/22/5 23/23/5
f 35/35/4 34/34/4 30/30/4 31/31/4
f 31/31/4 30/30/4 26/26/4 27/27/4
f 25/25/13 28/28/13 24/24/13 21/21/13
f 36/36/14 35/35/14 31/31/14 32/32/14
f 30/30/5 29/29/5 25/25/5 26/26/5
f 21/21/6 24/24/6 15/15/6 13/13/6
f 28/28/8 27/27/8 23/23/8 24/24/8
f 26/26/8 25/25/8 21/21/8 22/22/8
f 32/32/9 31/31/9 27/27/9 28/28/9
f 37/37/6 39/39/6 36/36/6 33/33/6
f 40/40/4 38/38/4 34/34/4 35/35/4
f 34/34/15 33/33/15 29/29/15 30/30/15
f 29/29/6 32/32/6 28/28/6 25/25/6
f 40/40/8 39/39/8 37/37/8 38/38/8
f 39/39/9 40/40/9 35/35/9 36/36/9
f 33/33/6 36/36/6 32/32/6 29/29/6
f 38/38/5 37/37/5 33/33/5 34/34/5
f 46/46/1 45/45/1 41/41/1 42/42/1
f 49/49/16 50/50/16 46/46/17 48/48/17
f 41/41/18 43/43/18 44/44/18 42/42/18
f 47/47/5 48/48/5 44/44/5 43/43/5
f 60/60/19 49/49/19 48/48/19 47/47/19
f 48/48/17 46/46/17 42/42/17 44/44/17
f 54/54/20 51/51/20 53/53/20 55/55/20
f 50/50/19 57/57/19 45/45/19 46/46/19
f 62/62/5 58/58/5 49/49/5 60/60/5
f 45/45/21 47/47/21 43/43/21 41/41/21
f 58/58/17 59/59/17 50/50/16 49/49/16
f 64/64/22 63/63/9 59/59/9 56/56/22 54/54/22 55/55/22
f 59/59/9 63/63/9 57/57/1 50/50/1
f 63/63/21 62/62/21 60/60/21 57/57/21
f 62/62/5 61/61/5 53/53/5 51/51/5 52/52/5 58/58/5
f 56/56/23 52/52/24 51/51/25 54/54/25
f 59/59/17 58/58/17 52/52/24 56/56/23
f 57/57/26 60/60/26 47/47/26 45/45/26
f 67/67/5 66/66/5 62/62/5 63/63/5
f 75/75/18 74/74/18 70/70/18 71/71/18
f 71/71/18 70/70/18 66/66/18 67/67/18
f 65/65/5 68/68/5 64/64/5 61/61/5
f 76/76/27 75/75/27 71/71/27 72/72/27
f 70/70/5 69/69/5 65/65/5 66/66/5
f 61/61/19 64/64/19 55/55/19 53/53/19
f 68/68/21 67/67/21 63/63/21 64/64/21
f 66/66/21 65/65/21 61/61/21 62/62/21
f 72/72/9 71/71/9 67/67/9 68/68/9
f 77/77/19 79/79/19 76/76/19 73/73/19
f 80/80/18 78/78/18 74/74/18 75/75/18
f 74/74/28 73/73/28 69/69/28 70/70/28
f 69/69/19 72/72/19 68/68/19 65/65/19
f 80/80/21 79/79/21 77/77/21 78/78/21
f 79/79/22 80/80/22 75/75/22 76/76/22
f 73/73/19 76/76/19 72/72/19 69/69/19
f 78/78/5 77/77/5 73/73/5 74/74/5
f 86/86/1 85/85/1 81/81/1 82/82/1
f 89/89/29 90/90/29 86/86/30 88/88/30
f 81/81/31 83/83/31 84/84/31 82/82/31
f 87/87/5 88/88/5 84/84/5 83/83/5
f 100/100/30 89/89/29 88/88/30 87/87/30
f 88/88/32 86/86/32 82/82/32 84/84/32
f 94/94/33 91/91/33 93/93/33 95/95/33
f 90/90/29 97/97/30 85/85/30 86/86/30
f 102/102/5 98/98/5 89/89/5 100/100/5
f 85/85/34 87/87/34 83/83/34 81/81/34
f 98/98/32 99/99/32 90/90/32 89/89/32
f 104/104/22 103/103/9 99/99/9 96/96/22 94/94/22 95/95/22
f 99/99/9 103/103/9 97/97/1 90/90/1
f 103/103/34 102/102/34 100/100/34 97/97/34
f 102/102/5 101/101/5 93/93/5 91/91/5 92/92/5 98/98/5
f 96/96/35 92/92/35 91/91/36 94/94/36
f 99/99/32 98/98/32 92/92/35 96/96/35
f 97/97/26 100/100/26 87/87/26 85/85/26
f 107/107/5 106/106/5 102/102/5 103/103/5
f 115/115/31 114/114/31 110/110/31 111/111/31
f 111/111/31 110/110/31 106/106/31 107/107/31
f 105/105/5 108/108/5 104/104/5 101/101/5
f 116/116/37 115/115/37 111/111/37 112/112/37
f 110/110/5 109/109/5 105/105/5 106/106/5
f 101/101/30 104/104/30 95/95/30 93/93/30
f 108/108/34 107/107/34 103/103/34 104/104/34
f 106/106/34 105/105/34 101/101/34 102/102/34
f 112/112/9 111/111/9 107/107/9 108/108/9
f 117/117/30 119/119/30 116/116/30 113/113/30
f 120/120/31 118/118/31 114/114/31 115/115/31
f 114/114/38 113/113/38 109/109/38 110/110/38
f 109/109/30 112/112/30 108/108/30 105/105/30
f 120/120/34 119/119/34 117/117/34 118/118/34
f 119/119/22 120/120/22 115/115/22 116/116/22
f 113/113/30 116/116/30 112/112/30 109/109/30
f 118/118/5 117/117/5 113/113/5 114/114/5
